<svg xmlns="http://www.w3.org/2000/svg" width="25" height="25" viewBox="0 0 25 25" fill="none">
  <g clip-path="url(#clip0_561_49793)">
    <path d="M20.6127 7.89711L15.3627 2.64711C15.293 2.57748 15.2102 2.52227 15.1192 2.48463C15.0281 2.44699 14.9306 2.42766 14.832 2.42773H5.83203C5.43421 2.42773 5.05268 2.58577 4.77137 2.86707C4.49007 3.14838 4.33203 3.52991 4.33203 3.92773V20.4277C4.33203 20.8256 4.49007 21.2071 4.77137 21.4884C5.05268 21.7697 5.43421 21.9277 5.83203 21.9277H19.332C19.7299 21.9277 20.1114 21.7697 20.3927 21.4884C20.674 21.2071 20.832 20.8256 20.832 20.4277V8.42773C20.8321 8.32921 20.8128 8.23164 20.7751 8.1406C20.7375 8.04955 20.6823 7.96681 20.6127 7.89711ZM14.832 8.42773V4.30273L18.957 8.42773H14.832Z" fill="#716DCF"/>
  </g>
  <defs>
    <clipPath id="clip0_561_49793">
      <rect width="24" height="24" fill="white" transform="translate(0.582031 0.177734)"/>
    </clipPath>
  </defs>
</svg>