<svg width="512" height="512" viewBox="0 0 512 512" fill="none" xmlns="http://www.w3.org/2000/svg">
<g clip-path="url(#clip0_2071_9377)">
<path d="M505.411 211.478H6.58745C5.96545 213.227 5.56445 215.082 5.56445 217.043C5.56445 256.934 38.0205 289.391 77.9125 289.391C100.629 289.391 120.909 278.844 134.183 262.414C148.479 278.844 170.319 289.391 194.782 289.391C219.615 289.391 241.721 278.505 255.999 261.646C270.277 278.505 292.383 289.391 317.216 289.391C341.678 289.391 363.519 278.844 377.815 262.414C391.089 278.844 411.369 289.391 434.086 289.391C473.977 289.391 506.434 256.935 506.434 217.043C506.434 215.082 506.033 213.227 505.411 211.478Z" fill="#716DCF"/>
<path d="M325.335 0H272.695V178.087H355.015L325.335 0Z" fill="#716DCF"/>
<path d="M448.098 30.12C447.838 29.283 447.511 28.468 447.12 27.696C438.587 10.608 421.424 0 402.315 0H359.188L388.867 178.087H494.918L448.098 30.12Z" fill="#716DCF"/>
<path d="M109.685 0C90.576 0 73.413 10.608 64.88 27.696C64.488 28.467 64.162 29.283 63.902 30.12L17.082 178.087H123.133L152.813 0H109.685Z" fill="#716DCF"/>
<path d="M186.665 0L156.984 178.087H239.304V0H186.665Z" fill="#716DCF"/>
<path d="M434.087 322.783C413.587 322.783 393.935 316.914 377.141 306.131C359.456 316.903 338.76 322.783 317.217 322.783C295.109 322.783 273.956 316.62 256 305.326C238.043 316.62 216.891 322.783 194.783 322.783C173.24 322.783 152.544 316.903 134.859 306.131C118.065 316.914 98.414 322.783 77.913 322.783C64.149 322.783 51.029 320.059 38.957 315.253V461.913C38.957 489.532 61.425 512 89.044 512H422.957C450.576 512 473.044 489.532 473.044 461.913V315.253C460.971 320.059 447.851 322.783 434.087 322.783ZM372.87 478.609C336.055 478.609 306.087 448.641 306.087 411.826C306.087 375.011 336.055 345.043 372.87 345.043C381.902 345.043 390.674 346.836 398.892 350.326C407.37 353.946 411.316 363.76 407.696 372.24C404.076 380.686 394.294 384.664 385.782 381.044C381.739 379.315 377.37 378.435 372.87 378.435C354.446 378.435 339.479 393.402 339.479 411.826C339.479 430.25 354.446 445.217 372.87 445.217C385.196 445.217 395.989 438.5 401.794 428.521H389.566C380.338 428.521 372.87 421.054 372.87 411.825C372.87 402.597 380.337 395.129 389.566 395.129H422.957C432.185 395.129 439.653 402.596 439.653 411.825C439.652 448.641 409.685 478.609 372.87 478.609Z" fill="#716DCF"/>
</g>
<defs>
<clipPath id="clip0_2071_9377">
<rect width="512" height="512" fill="white"/>
</clipPath>
</defs>
</svg>
