<svg xmlns="http://www.w3.org/2000/svg" width="25" height="25" viewBox="0 0 25 25" fill="none">
  <g clip-path="url(#clip0_561_49785)">
    <path d="M20.832 3.92773H4.33203C3.93421 3.92773 3.55268 4.08577 3.27137 4.36707C2.99007 4.64838 2.83203 5.02991 2.83203 5.42773V18.9277C2.83203 19.3256 2.99007 19.7071 3.27137 19.9884C3.55268 20.2697 3.93421 20.4277 4.33203 20.4277H20.832C21.2299 20.4277 21.6114 20.2697 21.8927 19.9884C22.174 19.7071 22.332 19.3256 22.332 18.9277V5.42773C22.332 5.02991 22.174 4.64838 21.8927 4.36707C21.6114 4.08577 21.2299 3.92773 20.832 3.92773ZM20.832 5.42773V8.42773H4.33203V5.42773H20.832Z" fill="#716DCF"/>
  </g>
  <defs>
    <clipPath id="clip0_561_49785">
      <rect width="24" height="24" fill="white" transform="translate(0.582031 0.177734)"/>
    </clipPath>
  </defs>
</svg>