<svg xmlns="http://www.w3.org/2000/svg" width="25" height="25" viewBox="0 0 25 25" fill="none">
  <g clip-path="url(#clip0_561_49777)">
    <path d="M20.8321 4.67773H4.33206C3.93423 4.67773 3.5527 4.83577 3.2714 5.11707C2.99009 5.39838 2.83206 5.77991 2.83206 6.17773V21.1777C2.83033 21.4638 2.91125 21.7442 3.06508 21.9854C3.21892 22.2265 3.43913 22.4181 3.69925 22.5371C3.89746 22.6294 4.11341 22.6774 4.33206 22.6777C4.68419 22.6769 5.02463 22.5513 5.293 22.3234L5.30143 22.3168L8.36331 19.6777H20.8321C21.2299 19.6777 21.6114 19.5197 21.8927 19.2384C22.174 18.9571 22.3321 18.5756 22.3321 18.1777V6.17773C22.3321 5.77991 22.174 5.39838 21.8927 5.11707C21.6114 4.83577 21.2299 4.67773 20.8321 4.67773ZM15.5821 14.4277H9.58206C9.38315 14.4277 9.19238 14.3487 9.05173 14.2081C8.91108 14.0674 8.83206 13.8766 8.83206 13.6777C8.83206 13.4788 8.91108 13.2881 9.05173 13.1474C9.19238 13.0068 9.38315 12.9277 9.58206 12.9277H15.5821C15.781 12.9277 15.9717 13.0068 16.1124 13.1474C16.253 13.2881 16.3321 13.4788 16.3321 13.6777C16.3321 13.8766 16.253 14.0674 16.1124 14.2081C15.9717 14.3487 15.781 14.4277 15.5821 14.4277ZM15.5821 11.4277H9.58206C9.38315 11.4277 9.19238 11.3487 9.05173 11.2081C8.91108 11.0674 8.83206 10.8766 8.83206 10.6777C8.83206 10.4788 8.91108 10.2881 9.05173 10.1474C9.19238 10.0068 9.38315 9.92773 9.58206 9.92773H15.5821C15.781 9.92773 15.9717 10.0068 16.1124 10.1474C16.253 10.2881 16.3321 10.4788 16.3321 10.6777C16.3321 10.8766 16.253 11.0674 16.1124 11.2081C15.9717 11.3487 15.781 11.4277 15.5821 11.4277Z" fill="#716DCF"/>
  </g>
  <defs>
    <clipPath id="clip0_561_49777">
      <rect width="24" height="24" fill="white" transform="translate(0.582031 0.177734)"/>
    </clipPath>
  </defs>
</svg>