<svg xmlns="http://www.w3.org/2000/svg" width="25" height="25" viewBox="0 0 25 25" fill="none">
  <g clip-path="url(#clip0_561_49760)">
    <path d="M14.8864 13.793L17.0427 14.8692C16.9404 15.3799 16.6642 15.8394 16.2611 16.1692C15.8579 16.4989 15.3529 16.6787 14.832 16.6776C13.0424 16.6757 11.3267 15.9639 10.0613 14.6984C8.79581 13.433 8.08402 11.7172 8.08203 9.92764C8.08189 9.40744 8.262 8.90326 8.59171 8.5009C8.92143 8.09854 9.38038 7.82286 9.89047 7.72077L10.9667 9.87702L10.0508 11.2401C9.98234 11.3428 9.94028 11.4608 9.92834 11.5836C9.91641 11.7064 9.93495 11.8303 9.98234 11.9442C10.519 13.2196 11.5335 14.2342 12.8089 14.7708C12.9232 14.8203 13.048 14.8405 13.172 14.8297C13.2961 14.8189 13.4155 14.7774 13.5195 14.7089L14.8864 13.793ZM22.332 12.1776C22.3324 13.861 21.8969 15.5157 21.0681 16.9808C20.2392 18.4459 19.0451 19.6714 17.6021 20.5381C16.159 21.4048 14.5162 21.8831 12.8334 21.9265C11.1507 21.9699 9.48533 21.5769 7.99953 20.7858L4.80734 21.8498C4.54305 21.938 4.25943 21.9508 3.98828 21.8868C3.71712 21.8228 3.46914 21.6845 3.27214 21.4875C3.07514 21.2905 2.93689 21.0426 2.8729 20.7714C2.80891 20.5002 2.8217 20.2166 2.90984 19.9523L3.97391 16.7601C3.27842 15.4525 2.88997 14.0037 2.83803 12.5236C2.78609 11.0434 3.07204 9.5709 3.67416 8.21777C4.27628 6.86464 5.17876 5.66647 6.31308 4.7142C7.4474 3.76193 8.78376 3.08059 10.2207 2.7219C11.6577 2.36321 13.1575 2.3366 14.6062 2.64408C16.055 2.95156 17.4147 3.58506 18.5821 4.49649C19.7495 5.40792 20.6939 6.57332 21.3437 7.90423C21.9934 9.23515 22.3314 10.6966 22.332 12.1776ZM18.582 14.4276C18.5821 14.2883 18.5434 14.1517 18.4702 14.0331C18.397 13.9146 18.2923 13.8187 18.1677 13.7564L15.1677 12.2564C15.0496 12.1975 14.918 12.1709 14.7864 12.1791C14.6547 12.1874 14.5275 12.2302 14.4177 12.3033L13.0405 13.222C12.4083 12.8745 11.888 12.3542 11.5405 11.722L12.4592 10.3448C12.5323 10.235 12.5751 10.1078 12.5834 9.97612C12.5916 9.84444 12.5649 9.71292 12.5061 9.59483L11.0061 6.59483C10.9439 6.46927 10.8478 6.36364 10.7287 6.2899C10.6095 6.21617 10.4721 6.17728 10.332 6.17764C9.33747 6.17764 8.38364 6.57273 7.68038 7.27599C6.97712 7.97925 6.58203 8.93308 6.58203 9.92764C6.58451 12.1149 7.4545 14.2119 9.00114 15.7585C10.5478 17.3052 12.6448 18.1752 14.832 18.1776C15.3245 18.1776 15.8121 18.0806 16.2671 17.8922C16.7221 17.7037 17.1355 17.4275 17.4837 17.0793C17.8319 16.7311 18.1081 16.3177 18.2966 15.8627C18.485 15.4077 18.582 14.9201 18.582 14.4276Z" fill="#716DCF"/>
  </g>
  <defs>
    <clipPath id="clip0_561_49760">
      <rect width="24" height="24" fill="white" transform="translate(0.582031 0.177734)"/>
    </clipPath>
  </defs>
</svg>