<svg width="59" height="54" viewBox="0 0 59 54" fill="none" xmlns="http://www.w3.org/2000/svg">
<g id="abdm-logo 1" clip-path="url(#clip0_612_71081)">
<g id="Layer_x0020_1">
<g id="Group">
<path id="Vector" d="M28.2835 -0.242188C35.1657 -0.242188 41.4901 2.1462 46.4735 6.13898L46.0273 6.58521C41.1597 2.70468 34.9926 0.385033 28.2835 0.385033C21.5744 0.385033 15.4073 2.70468 10.5398 6.58516L10.0936 6.13898C15.0769 2.14625 21.4013 -0.242188 28.2835 -0.242188ZM51.0159 10.6814C55.0087 15.6647 57.3971 21.9891 57.3971 28.8714C57.3971 35.7537 55.0087 42.078 51.016 47.0614L50.5698 46.6151C54.4503 41.7475 56.7699 35.5805 56.7699 28.8714C56.7699 22.1623 54.4502 15.9952 50.5697 11.1276L51.0159 10.6814ZM5.55108 47.0614C1.55831 42.078 -0.830078 35.7535 -0.830078 28.8713C-0.830078 21.9891 1.55836 15.6647 5.55113 10.6813L5.99732 11.1275C2.11679 15.9951 -0.202907 22.1622 -0.202907 28.8713C-0.202907 35.5804 2.11684 41.7475 5.99732 46.6151L5.55108 47.0614ZM28.2834 4.64934C33.8142 4.64934 38.9119 6.50316 42.9893 9.62311L42.5417 10.0707C38.581 7.06233 33.6408 5.27651 28.2834 5.27651C22.9261 5.27651 17.9859 7.06233 14.0253 10.0707L13.5777 9.62311C17.6552 6.50316 22.7529 4.64934 28.2834 4.64934ZM47.5317 14.1655C50.6517 18.243 52.5055 23.3407 52.5055 28.8713C52.5055 34.402 50.6517 39.4997 47.5318 43.5771L47.0842 43.1295C50.0925 39.1688 51.8783 34.2287 51.8783 28.8713C51.8783 23.5139 50.0924 18.5738 47.0841 14.6132L47.5317 14.1655ZM9.03522 43.5772C5.91532 39.4998 4.0615 34.4021 4.0615 28.8714C4.0615 23.3407 5.91537 18.243 9.03532 14.1656L9.48283 14.6131C6.47449 18.5738 4.68867 23.514 4.68867 28.8714C4.68867 34.2288 6.47453 39.169 9.48283 43.1296L9.03522 43.5772ZM28.2834 9.72902C32.4098 9.72902 36.2311 11.0347 39.3571 13.2554L38.907 13.7055C35.8998 11.5951 32.2363 10.3561 28.2834 10.3561C24.3306 10.3561 20.6673 11.5951 17.6601 13.7054L17.2099 13.2553C20.3357 11.0346 24.1572 9.72902 28.2834 9.72902ZM43.8994 17.7978C46.1201 20.9237 47.4258 24.745 47.4258 28.8714C47.4258 32.9977 46.1201 36.819 43.8995 39.9449L43.4494 39.4948C45.5598 36.4876 46.7987 32.8243 46.7987 28.8714C46.7987 24.9185 45.5598 21.2551 43.4493 18.2479L43.8994 17.7978ZM12.6674 39.945C10.4468 36.8191 9.14113 32.9977 9.14113 28.8714C9.14113 24.745 10.4468 20.9237 12.6674 17.7977L13.1176 18.2479C11.0072 21.2551 9.76825 24.9185 9.76825 28.8714C9.76825 32.8243 11.0072 36.4877 13.1176 39.4949L12.6674 39.945Z" fill="white"/>
<path id="1" d="M46.585 6.25043L46.3632 6.02864L46.3761 6.26187L45.9075 5.89425L45.4313 5.53615L44.9475 5.18763L44.4564 4.84888L43.958 4.52014L43.4525 4.20143L42.94 3.89297L42.4207 3.59478L41.8948 3.30714L41.3623 3.03006L40.8235 2.76384L40.2784 2.50846L39.7271 2.26423L39.17 2.0312L38.607 1.80945L38.0384 1.59925L37.4642 1.40069L36.8847 1.2139L36.2998 1.039L35.7099 0.876185L35.115 0.725542L34.5153 0.587321L33.9109 0.461524L33.302 0.348345L32.6887 0.247982L32.0711 0.160532L31.4494 0.0861438L30.8237 0.0249635L30.1942 -0.0229103L29.5609 -0.0572321L28.9242 -0.0779529L28.2841 -0.0848762V-0.398438L28.931 -0.391416L29.5745 -0.370499L30.2145 -0.335784L30.8508 -0.287419L31.4832 -0.225601L32.1116 -0.150427L32.7359 -0.061995L33.3559 0.0394484L33.9715 0.153805L34.5824 0.280978L35.1886 0.42077L35.79 0.572984L36.3864 0.737571L36.9776 0.914435L37.5635 1.10328L38.144 1.304L38.7188 1.51647L39.288 1.74066L39.8511 1.97625L40.4084 2.22313L40.9594 2.48126L41.5041 2.75038L42.0424 3.03041L42.574 3.32119L43.0989 3.62262L43.6169 3.93441L44.1279 4.25657L44.6317 4.58893L45.1282 4.93132L45.6171 5.28352L46.0985 5.64555L46.5721 6.0171L46.585 6.25033L46.585 6.25043ZM46.5722 6.01719C46.6397 6.07135 46.6506 6.17005 46.5965 6.23761C46.5423 6.30513 46.4436 6.31607 46.376 6.26192L46.5721 6.01719H46.5722ZM45.917 6.47492L46.3632 6.02868L46.585 6.25048L46.1388 6.69671L45.9302 6.70844L45.917 6.47497V6.47492ZM46.1388 6.69671C46.0776 6.75794 45.9782 6.75794 45.917 6.69671C45.8558 6.63548 45.8558 6.53615 45.917 6.47492L46.1388 6.69671ZM28.2841 0.542443V0.228881L28.9149 0.235707L29.5423 0.256084L30.1663 0.289767L30.7867 0.336757L31.4033 0.396857L32.0161 0.46992L32.6248 0.555749L33.2294 0.654345L33.8296 0.765461L34.4255 0.889L35.0167 1.02481L35.6033 1.17271L36.1849 1.33263L36.7616 1.50439L37.3331 1.68788L37.8992 1.88291L38.46 2.08943L39.0152 2.30719L39.5648 2.53611L40.1085 2.77606L40.6462 3.02687L41.1777 3.28844L41.703 3.56056L42.2219 3.84309L42.7342 4.13602L43.2399 4.43913L43.7387 4.7522L44.2306 5.07519L44.7154 5.40795L45.1929 5.75033L45.6631 6.10214L46.1257 6.46328L45.9303 6.70849L45.4726 6.35128L45.0076 6.00325L44.5353 5.6646L44.0558 5.33547L43.5693 5.01602L43.0759 4.70639L42.5758 4.40662L42.0691 4.11692L41.5558 3.83744L41.0363 3.56836L40.5106 3.30965L39.9789 3.06159L39.4412 2.82428L38.8977 2.59792L38.3486 2.38252L37.794 2.17835L37.2341 1.98548L36.6689 1.80395L36.0986 1.63406L35.5233 1.47591L34.9433 1.32968L34.3586 1.19534L33.7693 1.07318L33.1756 0.963339L32.5777 0.865824L31.9757 0.780879L31.3696 0.708602L30.7597 0.649189L30.146 0.60269L29.5288 0.569399L28.9081 0.549219L28.2842 0.542492L28.2841 0.542443ZM28.2841 0.542443C28.1976 0.542443 28.1273 0.472228 28.1273 0.385662C28.1273 0.299096 28.1976 0.228881 28.2841 0.228881V0.542443ZM10.4295 6.69666L10.6513 6.47487L10.4427 6.46313L10.9053 6.10199L11.3755 5.75018L11.853 5.4078L12.3378 5.07504L12.8297 4.75205L13.3285 4.43898L13.8342 4.13588L14.3466 3.84299L14.8654 3.56041L15.3907 3.28829L15.9222 3.02673L16.4599 2.77592L17.0036 2.53601L17.5532 2.3071L18.1084 2.08933L18.6691 1.88281L19.2353 1.68773L19.8068 1.50429L20.3835 1.33253L20.9651 1.17261L21.5516 1.02467L22.1429 0.888902L22.7388 0.765363L23.339 0.654246L23.9435 0.555651L24.5522 0.469773L25.165 0.396759L25.7816 0.336659L26.402 0.289669L27.026 0.255936L27.6535 0.235608L28.2842 0.228783V0.542344L27.6602 0.549071L27.0395 0.569203L26.4223 0.602543L25.8087 0.649042L25.1988 0.708454L24.5928 0.780682L23.9907 0.865677L23.3928 0.963192L22.7991 1.07303L22.2098 1.1952L21.6251 1.32949L21.0451 1.47576L20.4698 1.63392L19.8996 1.80381L19.3344 1.98529L18.7745 2.17821L18.2198 2.38237L17.6707 2.59778L17.1273 2.82413L16.5896 3.06139L16.0578 3.30945L15.5321 3.56817L15.0126 3.83724L14.4994 4.11678L13.9927 4.40642L13.4925 4.70619L12.9992 5.01582L12.5127 5.33528L12.0332 5.6644L11.5608 6.00305L11.0958 6.35108L10.6382 6.7083L10.4296 6.69656L10.4295 6.69666ZM10.6382 6.70839C10.5705 6.76236 10.4718 6.75121 10.4178 6.68355C10.3638 6.61589 10.375 6.51715 10.4427 6.46318L10.6381 6.70839H10.6382ZM10.2051 6.02873L10.6513 6.47492L10.4295 6.69671L9.98336 6.25052L9.99622 6.01729L10.2051 6.02878V6.02873ZM9.98336 6.25052C9.92213 6.1893 9.92213 6.08996 9.98336 6.02873C10.0446 5.9675 10.1439 5.9675 10.2051 6.02873L9.98336 6.25052ZM28.2841 -0.39829V-0.0847289L27.644 -0.0778056L27.0072 -0.0570849L26.374 -0.022763L25.7445 0.0251108L25.1188 0.0862911L24.4971 0.16068L23.8795 0.248129L23.2663 0.348541L22.6573 0.461671L22.053 0.587469L21.4533 0.725738L20.8584 0.876381L20.2684 1.0392L19.6836 1.21405L19.104 1.40083L18.5299 1.5994L17.9612 1.80965L17.3983 2.03134L16.8411 2.26438L16.2899 2.50866L15.7448 2.76398L15.206 3.03026L14.6735 3.30729L14.1475 3.59498L13.6283 3.89312L13.1158 4.20162L12.6103 4.52034L12.1119 4.84907L11.6208 5.18778L11.137 5.5363L10.6609 5.89439L10.1922 6.26201L9.99617 6.01729L10.4698 5.64574L10.9511 5.28372L11.4401 4.93151L11.9366 4.58918L12.4403 4.25681L12.9513 3.93466L13.4694 3.62282L13.9942 3.32143L14.5259 3.0306L15.0641 2.75063L15.6088 2.48146L16.1599 2.22338L16.717 1.97645L17.2803 1.74086L17.8494 1.51671L18.4242 1.3042L19.0047 1.10347L19.5906 0.914631L20.1818 0.737817L20.7781 0.573229L21.3795 0.421015L21.9857 0.281174L22.5967 0.154002L23.2123 0.0396939L23.8322 -0.0617986L24.4565 -0.15023L25.085 -0.225404L25.7174 -0.287223L26.3536 -0.335588L26.9936 -0.370302L27.6372 -0.39122L28.2841 -0.398241L28.2841 -0.39829ZM28.2841 -0.39829C28.3707 -0.39829 28.4409 -0.328075 28.4409 -0.24151C28.4409 -0.154944 28.3707 -0.0847289 28.2841 -0.0847289V-0.39829ZM57.5545 28.8721H57.2409L57.234 28.2319L57.2133 27.5952L57.1789 26.962L57.1311 26.3324L57.0699 25.7067L56.9955 25.085L56.908 24.4674L56.8077 23.8541L56.6945 23.2452L56.5688 22.6409L56.4305 22.0412L56.2798 21.4463L56.117 20.8563L55.9422 20.2715L55.7554 19.6919L55.5568 19.1177L55.3466 18.5491L55.1249 17.9861L54.8918 17.429L54.6476 16.8778L54.3922 16.3327L54.126 15.7938L53.8489 15.2614L53.5613 14.7354L53.2631 14.2161L52.9547 13.7037L52.6359 13.1982L52.3072 12.6998L51.9684 12.2086L51.6199 11.7249L51.2618 11.2487L50.8942 10.7801L51.1389 10.584L51.5105 11.0576L51.8725 11.539L52.2247 12.0279L52.5671 12.5244L52.8995 13.0282L53.2216 13.5392L53.5334 14.0572L53.8348 14.582L54.1256 15.1137L54.4056 15.652L54.6748 16.1967L54.9328 16.7477L55.1798 17.3049L55.4154 17.8681L55.6395 18.4372L55.852 19.0121L56.0527 19.5925L56.2416 20.1785L56.4184 20.7696L56.583 21.366L56.7352 21.9674L56.875 22.5736L57.0022 23.1846L57.1165 23.8001L57.218 24.4201L57.3064 25.0444L57.3816 25.6729L57.4434 26.3053L57.4918 26.9416L57.5265 27.5815L57.5474 28.2251L57.5544 28.872L57.5545 28.8721ZM57.5545 28.8721C57.5545 28.9586 57.4843 29.0288 57.3977 29.0288C57.3111 29.0288 57.2409 28.9586 57.2409 28.8721H57.5545ZM50.9058 47.1729L51.1275 46.9511L50.8943 46.964L51.2619 46.4954L51.62 46.0192L51.9685 45.5354L52.3072 45.0443L52.636 44.5459L52.9547 44.0404L53.2632 43.5279L53.5613 43.0087L53.849 42.4827L54.1261 41.9503L54.3923 41.4114L54.6476 40.8663L54.8919 40.315L55.1249 39.7579L55.3466 39.195L55.5569 38.6263L55.7554 38.0521L55.9422 37.4726L56.1171 36.8878L56.2799 36.2978L56.4305 35.7029L56.5688 35.1032L56.6946 34.4988L56.8077 33.89L56.9081 33.2766L56.9955 32.659L57.0699 32.0374L57.1311 31.4116L57.179 30.7821L57.2133 30.1489L57.234 29.5121L57.241 28.872H57.5545L57.5475 29.5189L57.5266 30.1625L57.4919 30.8024L57.4435 31.4387L57.3817 32.0712L57.3065 32.6996L57.2181 33.3239L57.1166 33.9439L57.0023 34.5594L56.8751 35.1704L56.7353 35.7766L56.5831 36.378L56.4185 36.9744L56.2417 37.5656L56.0528 38.1515L55.8521 38.732L55.6396 39.3068L55.4155 39.8759L55.1799 40.4391L54.9329 40.9963L54.6749 41.5473L54.4057 42.0921L54.1257 42.6303L53.8349 43.162L53.5336 43.6868L53.2217 44.2048L52.8996 44.7158L52.5672 45.2196L52.2249 45.7161L51.8727 46.205L51.5106 46.6864L51.1391 47.16L50.9058 47.1729L50.9058 47.1729ZM51.139 47.1601C51.0848 47.2276 50.9861 47.2385 50.9186 47.1844C50.8511 47.1302 50.8401 47.0315 50.8943 46.9639L51.139 47.16V47.1601ZM50.6813 46.5049L51.1275 46.9511L50.9057 47.1729L50.4595 46.7267L50.4477 46.5181L50.6812 46.5049H50.6813ZM50.4595 46.7267C50.3982 46.6655 50.3982 46.5661 50.4595 46.5049C50.5207 46.4437 50.62 46.4437 50.6813 46.5049L50.4595 46.7267ZM56.6137 28.8721H56.9272L56.9204 29.5028L56.9001 30.1303L56.8664 30.7543L56.8194 31.3747L56.7593 31.9913L56.6863 32.6041L56.6004 33.2128L56.5018 33.8173L56.3907 34.4175L56.2671 35.0134L56.1314 35.6047L55.9834 36.1912L55.8235 36.7728L55.6517 37.3495L55.4683 37.9209L55.2732 38.4871L55.0667 39.0479L54.8489 39.6031L54.62 40.1527L54.3801 40.6964L54.1293 41.2341L53.8677 41.7656L53.5956 42.2909L53.313 42.8097L53.0202 43.3221L52.717 43.8278L52.404 44.3266L52.081 44.8185L51.7482 45.3032L51.4058 45.7808L51.054 46.251L50.6929 46.7136L50.4477 46.5182L50.8049 46.0605L51.1529 45.5955L51.4916 45.1231L51.8207 44.6437L52.1402 44.1572L52.4498 43.6638L52.7496 43.1637L53.0392 42.6569L53.3187 42.1437L53.5878 41.6242L53.8465 41.0985L54.0946 40.5668L54.3318 40.0291L54.5582 39.4856L54.7736 38.9365L54.9778 38.3819L55.1707 37.822L55.3522 37.2568L55.5221 36.6865L55.6802 36.1113L55.8265 35.5312L55.9608 34.9465L56.0829 34.3572L56.1928 33.7635L56.2903 33.1656L56.3753 32.5635L56.4475 31.9575L56.5069 31.3476L56.5534 30.734L56.5868 30.1168L56.6069 29.4961L56.6136 28.8721L56.6137 28.8721ZM56.6137 28.8721C56.6137 28.7855 56.6839 28.7153 56.7705 28.7153C56.857 28.7153 56.9272 28.7855 56.9272 28.8721H56.6137ZM50.4594 11.0174L50.6812 11.2392L50.6929 11.0306L51.0541 11.4932L51.4059 11.9634L51.7483 12.4409L52.081 12.9257L52.404 13.4176L52.7171 13.9164L53.0202 14.4221L53.3131 14.9344L53.5957 15.4533L53.8678 15.9786L54.1293 16.5102L54.3802 17.0479L54.6201 17.5915L54.849 18.1411L55.0668 18.6963L55.2733 19.2571L55.4683 19.8233L55.6518 20.3948L55.8236 20.9714L55.9835 21.553L56.1314 22.1396L56.2672 22.7309L56.3908 23.3267L56.5019 23.9269L56.6005 24.5315L56.6863 25.1402L56.7594 25.7529L56.8195 26.3696L56.8665 26.99L56.9001 27.6139L56.9205 28.2414L56.9273 28.8722H56.6138L56.6071 28.2482L56.5869 27.6275L56.5536 27.0103L56.5071 26.3967L56.4477 25.7867L56.3754 25.1807L56.2905 24.5786L56.1929 23.9807L56.0831 23.387L55.9609 22.7978L55.8266 22.2131L55.6804 21.633L55.5222 21.0578L55.3523 20.4875L55.1708 19.9223L54.9779 19.3624L54.7738 18.8078L54.5583 18.2586L54.332 17.7152L54.0947 17.1775L53.8466 16.6458L53.5879 16.12L53.3188 15.6006L53.0394 15.0873L52.7497 14.5806L52.4499 14.0805L52.1403 13.5871L51.8208 13.1006L51.4917 12.6211L51.153 12.1487L50.805 11.6837L50.4478 11.2261L50.4595 11.0175L50.4594 11.0174ZM50.4477 11.2261C50.3937 11.1584 50.4049 11.0597 50.4725 11.0057C50.5402 10.9517 50.6389 10.9629 50.6929 11.0305L50.4477 11.226V11.2261ZM51.1274 10.793L50.6812 11.2392L50.4594 11.0174L50.9056 10.5712L51.1388 10.5841L51.1273 10.793H51.1274ZM50.9056 10.5712C50.9668 10.51 51.0662 10.51 51.1274 10.5712C51.1886 10.6324 51.1886 10.7318 51.1274 10.793L50.9056 10.5712ZM-0.986279 28.8721H-0.672718L-0.665795 29.5122L-0.645074 30.1489L-0.610752 30.7822L-0.562878 31.4116L-0.501698 32.0374L-0.427309 32.659L-0.33986 33.2766L-0.239497 33.89L-0.126318 34.4988L-0.000520289 35.1032L0.1377 35.7029L0.288343 36.2978L0.451163 36.8878L0.626062 37.4727L0.812844 38.0522L1.01141 38.6263L1.22161 39.195L1.44335 39.758L1.67639 40.3151L1.92062 40.8663L2.176 41.4115L2.44222 41.9503L2.7193 42.4828L3.00694 43.0087L3.30513 43.528L3.61358 44.0404L3.9323 44.5459L4.26104 45.0444L4.59979 45.5355L4.94831 46.0193L5.3064 46.4955L5.67403 46.9641L5.4293 47.1602L5.05775 46.6866L4.69573 46.2052L4.34353 45.7162L4.00114 45.2198L3.66878 44.7159L3.34662 44.2049L3.03483 43.6869L2.73339 43.1621L2.44262 42.6304L2.16259 42.0922L1.89347 41.5474L1.63534 40.9964L1.38846 40.4392L1.15287 39.876L0.928674 39.3069L0.716212 38.732L0.515486 38.1516L0.326642 37.5657L0.149779 36.9744L-0.0148088 36.378L-0.167023 35.7766L-0.306814 35.1704L-0.433987 34.5595L-0.548344 33.9439L-0.649787 33.3239L-0.738219 32.6997L-0.813393 32.0712L-0.875212 31.4388L-0.923577 30.8025L-0.958291 30.1626L-0.979208 29.519L-0.98623 28.8721L-0.986279 28.8721ZM-0.986279 28.8721C-0.986279 28.7855 -0.916064 28.7153 -0.829498 28.7153C-0.742933 28.7153 -0.672718 28.7855 -0.672718 28.8721H-0.986279ZM5.66258 10.5712L5.44079 10.793L5.67403 10.7801L5.3064 11.2487L4.94831 11.7249L4.59979 12.2087L4.26104 12.6998L3.9323 13.1983L3.61358 13.7038L3.30513 14.2162L3.00694 14.7355L2.7193 15.2614L2.44222 15.7939L2.176 16.3327L1.92062 16.8778L1.67634 17.4291L1.44331 17.9862L1.22161 18.5491L1.01136 19.1178L0.812795 19.692L0.626013 20.2715L0.451163 20.8564L0.288343 21.4463L0.1377 22.0412L-0.000569403 22.6409L-0.126367 23.2453L-0.239497 23.8542L-0.339909 24.4675L-0.427358 25.0851L-0.501747 25.7068L-0.562927 26.3325L-0.610801 26.962L-0.645123 27.5952L-0.665844 28.232L-0.672767 28.8721H-0.986328L-0.979307 28.2252L-0.958389 27.5816L-0.923675 26.9417L-0.87531 26.3054L-0.813491 25.673L-0.738317 25.0446L-0.649886 24.4203L-0.548393 23.8003L-0.434085 23.1847L-0.306913 22.5737L-0.167072 21.9675L-0.0148578 21.3661L0.14973 20.7698L0.326544 20.1786L0.515388 19.5926L0.716114 19.0122L0.928625 18.4373L1.15277 17.8682L1.38836 17.305L1.63529 16.7478L1.89342 16.1968L2.16254 15.6521L2.44257 15.1138L2.73335 14.5822L3.03478 14.0573L3.34657 13.5393L3.66873 13.0283L4.00109 12.5245L4.34348 12.028L4.69568 11.5391L5.0577 11.0577L5.42925 10.5841L5.66249 10.5712L5.66258 10.5712ZM5.42935 10.5841C5.48351 10.5165 5.58221 10.5056 5.64977 10.5598C5.71728 10.6139 5.72823 10.7126 5.67407 10.7802L5.42935 10.5841V10.5841ZM5.88703 11.2392L5.44084 10.793L5.66263 10.5712L6.10882 11.0174L6.12055 11.226L5.88708 11.2392H5.88703ZM6.10882 11.0174C6.17005 11.0786 6.17005 11.1779 6.10882 11.2392C6.04759 11.3004 5.94826 11.3004 5.88703 11.2392L6.10882 11.0174ZM-0.0454971 28.8721H-0.359058L-0.352233 28.2413L-0.331856 27.6138L-0.298173 26.9899L-0.251183 26.3695L-0.191083 25.7528L-0.11802 25.1401L-0.0321907 24.5314L0.0664048 23.9268L0.177521 23.3266L0.30106 22.7307L0.436875 22.1394L0.584817 21.5529L0.744691 20.9713L0.916497 20.3946L1.09994 19.8231L1.29502 19.2569L1.50154 18.6961L1.7193 18.141L1.94821 17.5914L2.18817 17.0477L2.43898 16.5101L2.7005 15.9785L2.97267 15.4532L3.25519 14.9343L3.54813 14.422L3.85124 13.9163L4.16431 13.4175L4.48729 12.9256L4.82005 12.4408L5.16244 11.9633L5.51425 11.4931L5.87539 11.0304L6.1206 11.2259L5.76339 11.6835L5.41536 12.1485L5.07671 12.6209L4.74758 13.1004L4.42813 13.5869L4.11849 14.0803L3.81873 14.5804L3.52903 15.0871L3.24955 15.6004L2.98042 16.1198L2.72176 16.6455L2.4737 17.1773L2.23639 17.715L2.01003 18.2585L1.79463 18.8076L1.59046 19.3622L1.39754 19.9221L1.21606 20.4873L1.04612 21.0576L0.888018 21.6328L0.741745 22.2129L0.607404 22.7976L0.48524 23.3868L0.3754 23.9806L0.277884 24.5784L0.192939 25.1805L0.120662 25.7866L0.0612493 26.3965L0.0147502 27.0101L-0.0185404 27.6273L-0.0387211 28.248L-0.0454481 28.872L-0.0454971 28.8721ZM-0.0454971 28.8721C-0.0454971 28.9586 -0.115712 29.0288 -0.202278 29.0288C-0.288843 29.0288 -0.359058 28.9586 -0.359058 28.8721H-0.0454971ZM6.10882 46.7267L5.88703 46.5049L5.87529 46.7136L5.51415 46.2509L5.16234 45.7808L4.81996 45.3032L4.4872 44.8185L4.16421 44.3266L3.85114 43.8277L3.54803 43.322L3.2551 42.8097L2.97257 42.2908L2.7004 41.7655L2.43888 41.234L2.18807 40.6963L1.94812 40.1526L1.71921 39.6031L1.50144 39.0478L1.29492 38.4871L1.09984 37.9208L0.916398 37.3494L0.744593 36.7728L0.584719 36.1911L0.436776 35.6046L0.300962 35.0133L0.177423 34.4175L0.0663067 33.8172L-0.0322888 33.2126L-0.118118 32.604L-0.191181 31.9912L-0.251281 31.3746L-0.298271 30.7542L-0.331954 30.1302L-0.352332 29.5027L-0.359157 28.872H-0.0455953L-0.0388685 29.4959L-0.0186878 30.1166L0.014603 30.7338L0.0611019 31.3475L0.120515 31.9574L0.192792 32.5634L0.277737 33.1655L0.375252 33.7634L0.485092 34.3571L0.607256 34.9464L0.741598 35.5311L0.887871 36.1111L1.04598 36.6864L1.21592 37.2567L1.3974 37.8218L1.59031 38.3818L1.79448 38.9364L2.00989 39.4855L2.23624 40.029L2.47355 40.5667L2.72161 41.0984L2.98028 41.6241L3.2494 42.1436L3.52888 42.6568L3.81858 43.1636L4.11835 43.6637L4.42798 44.1571L4.74743 44.6436L5.07656 45.123L5.41521 45.5954L5.76324 46.0604L6.12045 46.5181L6.10872 46.7267L6.10882 46.7267ZM6.12055 46.5181C6.17451 46.5858 6.16337 46.6845 6.09571 46.7385C6.02805 46.7924 5.9293 46.7813 5.87534 46.7136L6.12055 46.5182V46.5181ZM5.44084 46.9512L5.88708 46.5049L6.10887 46.7267L5.66263 47.173L5.4294 47.1601L5.44089 46.9512H5.44084ZM5.66263 47.173C5.6014 47.2342 5.50207 47.2342 5.44084 47.173C5.37961 47.1117 5.37961 47.0124 5.44084 46.9512L5.66263 47.173ZM43.1009 9.73471L42.8791 9.51292L42.8947 9.74831L42.512 9.46141L42.1233 9.18197L41.7291 8.91015L41.3292 8.64598L40.9237 8.38963L40.5129 8.14117L40.0968 7.90077L39.6754 7.66847L39.249 7.44438L38.8176 7.22862L38.3814 7.02132L37.9404 6.82256L37.4948 6.63248L37.0446 6.4511L36.5899 6.27866L36.1309 6.1151L35.6677 5.96073L35.2003 5.81554L34.729 5.67957L34.2537 5.55304L33.7747 5.43598L33.2919 5.32865L32.8056 5.23093L32.3157 5.14299L31.8225 5.06512L31.326 4.99726L30.8263 4.93952L30.3236 4.89199L29.8178 4.85492L29.3093 4.82825L28.798 4.81215L28.284 4.8068V4.49324L28.8045 4.49869L29.3224 4.51499L29.8374 4.54194L30.3497 4.57951L30.8589 4.62763L31.3651 4.68616L31.8681 4.7549L32.3678 4.83385L32.864 4.92287L33.3568 5.02186L33.8458 5.13067L34.3312 5.2492L34.8127 5.3774L35.2902 5.51513L35.7637 5.66229L36.233 5.81873L36.698 5.98435L37.1586 6.15915L37.6147 6.34288L38.0663 6.53541L38.5131 6.73682L38.955 6.94678L39.392 7.16538L39.824 7.39238L40.2508 7.62772L40.6723 7.87126L41.0886 8.12296L41.4992 8.38265L41.9043 8.65021L42.3038 8.92557L42.6974 9.20864L43.0851 9.49927L43.1007 9.73466L43.1009 9.73471ZM43.0853 9.49932C43.154 9.55195 43.1671 9.65035 43.1145 9.71914C43.0619 9.78788 42.9635 9.80099 42.8947 9.74836L43.0852 9.49932H43.0853ZM42.4315 9.96057L42.8791 9.51297L43.1009 9.73476L42.6533 10.1824L42.4476 10.1964L42.4315 9.96062V9.96057ZM42.6533 10.1824C42.5921 10.2436 42.4927 10.2436 42.4315 10.1824C42.3703 10.1211 42.3703 10.0218 42.4315 9.96057L42.6533 10.1824ZM28.2841 5.43402V5.12046L28.7884 5.12571L29.2902 5.14142L29.7892 5.1674L30.2856 5.20359L30.779 5.24994L31.2695 5.30635L31.7569 5.37259L32.2411 5.44865L32.722 5.53448L33.1996 5.62983L33.6736 5.73471L34.1441 5.84892L34.6109 5.97251L35.0738 6.10528L35.5328 6.24709L35.9879 6.39793L36.4388 6.55756L36.8854 6.72602L37.3277 6.90313L37.7656 7.08873L38.199 7.28288L38.6278 7.48537L39.0518 7.69607L39.471 7.91496L39.8851 8.14186L40.2943 8.37666L40.6983 8.61937L41.097 8.86979L41.4903 9.12777L41.8782 9.39335L42.2606 9.66636L42.6372 9.94658L42.4476 10.1963L42.0759 9.91972L41.6986 9.65035L41.3158 9.3883L40.9276 9.13366L40.5342 8.88658L40.1355 8.64711L39.7318 8.41535L39.3231 8.19145L38.9095 7.9755L38.4911 7.76756L38.068 7.56772L37.6404 7.37622L37.2083 7.19302L36.7719 7.01827L36.3311 6.85207L35.8862 6.6945L35.4372 6.54572L34.9844 6.40578L34.5275 6.27478L34.067 6.15286L33.6028 6.04013L33.135 5.93672L32.6638 5.84254L32.1892 5.75789L31.7114 5.68281L31.2305 5.61746L30.7465 5.56183L30.2595 5.51607L29.7697 5.48037L29.2771 5.45469L28.782 5.43917L28.2842 5.43402H28.2841ZM28.2841 5.43402C28.1976 5.43402 28.1273 5.3638 28.1273 5.27724C28.1273 5.19067 28.1976 5.12046 28.2841 5.12046V5.43402ZM13.915 10.1823L14.1368 9.96052L13.9311 9.94653L14.3078 9.66631L14.6901 9.39331L15.078 9.12772L15.4713 8.86974L15.8701 8.61932L16.274 8.37661L16.6831 8.14181L17.0974 7.91491L17.5165 7.69602L17.9405 7.48533L18.3693 7.28288L18.8026 7.08873L19.2405 6.90308L19.6829 6.72597L20.1295 6.55751L20.5805 6.39788L21.0354 6.24709L21.4945 6.10523L21.9574 5.97251L22.4242 5.84892L22.8947 5.73471L23.3687 5.62983L23.8462 5.53443L24.3272 5.44865L24.8114 5.37259L25.2988 5.30635L25.7892 5.24994L26.2827 5.20359L26.7791 5.1674L27.2781 5.14142L27.7798 5.12571L28.2841 5.12046V5.43402L27.7863 5.43917L27.2911 5.45469L26.7986 5.48037L26.3088 5.51607L25.8218 5.56183L25.3378 5.61746L24.8569 5.68281L24.3791 5.75789L23.9046 5.84249L23.4333 5.93662L22.9656 6.04013L22.5013 6.15286L22.0408 6.27478L21.584 6.40573L21.1311 6.54572L20.6821 6.69445L20.2372 6.85202L19.7965 7.01822L19.36 7.19298L18.928 7.37622L18.5003 7.56772L18.0773 7.76751L17.6589 7.97546L17.2453 8.1914L16.8366 8.41531L16.4329 8.64706L16.0342 8.88653L15.6408 9.13361L15.2526 9.38825L14.8698 9.6503L14.4925 9.91967L14.1208 10.1963L13.9151 10.1823L13.915 10.1823ZM14.1208 10.1963C14.0518 10.2487 13.9534 10.2352 13.9011 10.1663C13.8487 10.0974 13.8621 9.99897 13.9311 9.94658L14.1207 10.1963H14.1208ZM13.6892 9.51302L14.1368 9.96057L13.915 10.1824L13.4674 9.73481L13.4831 9.49941L13.6892 9.51306V9.51302ZM13.4674 9.73481C13.4062 9.67358 13.4062 9.57424 13.4674 9.51302C13.5287 9.45179 13.628 9.45179 13.6892 9.51302L13.4674 9.73481ZM28.2841 4.49333V4.8069L27.7701 4.81225L27.2588 4.82835L26.7503 4.85502L26.2445 4.89209L25.7418 4.93962L25.2421 4.99736L24.7457 5.06522L24.2525 5.14309L23.7626 5.23103L23.2763 5.32874L22.7935 5.43608L22.3145 5.55314L21.8392 5.67967L21.3678 5.81563L20.9005 5.96083L20.4373 6.1152L19.9783 6.27876L19.5236 6.4512L19.0734 6.63258L18.6278 6.82265L18.1868 7.02142L17.7506 7.22872L17.3192 7.44447L16.8928 7.66857L16.4715 7.90087L16.0553 8.14127L15.6445 8.38972L15.239 8.64608L14.8391 8.91025L14.4449 9.18207L14.0563 9.46151L13.6735 9.74841L13.483 9.49936L13.8707 9.20873L14.2643 8.92566L14.6637 8.6503L15.0688 8.38275L15.4795 8.12305L15.8957 7.87136L16.3173 7.62782L16.7441 7.39247L17.1761 7.16548L17.6131 6.94688L18.055 6.73692L18.5018 6.53551L18.9533 6.34298L19.4094 6.15925L19.8701 5.98444L20.335 5.81883L20.8044 5.66239L21.2778 5.51523L21.7554 5.3775L22.2368 5.2493L22.7222 5.13077L23.2113 5.02196L23.704 4.92297L24.2002 4.83395L24.6999 4.755L25.2029 4.68625L25.709 4.62772L26.2183 4.57961L26.7305 4.54204L27.2456 4.51509L27.7634 4.49878L28.2839 4.49333H28.2841ZM28.2841 4.49333C28.3706 4.49333 28.4408 4.56355 28.4408 4.65012C28.4408 4.73668 28.3706 4.8069 28.2841 4.8069V4.49333ZM52.6629 28.8721H52.3493L52.344 28.3582L52.3279 27.8468L52.3012 27.3383L52.2641 26.8325L52.2166 26.3298L52.1589 25.8301L52.091 25.3337L52.0131 24.8404L51.9252 24.3506L51.8275 23.8643L51.7201 23.3814L51.6031 22.9025L51.4766 22.4272L51.3406 21.9558L51.1954 21.4885L51.041 21.0252L50.8775 20.5662L50.705 20.1116L50.5236 19.6614L50.3336 19.2157L50.1348 18.7748L49.9275 18.3385L49.7118 17.9071L49.4877 17.4807L49.2554 17.0594L49.015 16.6433L48.7665 16.2324L48.5101 15.827L48.246 15.4271L47.9742 15.0328L47.6947 14.6442L47.4078 14.2615L47.6569 14.0709L47.9475 14.4587L48.2306 14.8522L48.5059 15.2517L48.7735 15.6568L49.0332 16.0675L49.2849 16.4837L49.5284 16.9052L49.7638 17.3321L49.9907 17.764L50.2093 18.2011L50.4193 18.643L50.6207 19.0897L50.8132 19.5413L50.997 19.9974L51.1718 20.458L51.3374 20.923L51.4938 21.3924L51.641 21.8658L51.7787 22.3433L51.9069 22.8248L52.0255 23.3102L52.1343 23.7992L52.2333 24.292L52.3223 24.7882L52.4012 25.2879L52.47 25.7908L52.5285 26.297L52.5766 26.8063L52.6142 27.3185L52.6411 27.8336L52.6574 28.3515L52.6629 28.872V28.8721ZM52.6629 28.8721C52.6629 28.9587 52.5927 29.0289 52.5061 29.0289C52.4195 29.0289 52.3493 28.9587 52.3493 28.8721H52.6629ZM47.4215 43.6888L47.6433 43.467L47.4079 43.4826L47.6948 43.0999L47.9743 42.7112L48.246 42.317L48.5102 41.9171L48.7666 41.5117L49.015 41.1008L49.2554 40.6847L49.4877 40.2633L49.7118 39.8369L49.9276 39.4056L50.1349 38.9693L50.3336 38.5283L50.5237 38.0827L50.7051 37.6325L50.8775 37.1778L51.0411 36.7188L51.1954 36.2556L51.3406 35.7883L51.4766 35.3169L51.6031 34.8416L51.7201 34.3626L51.8275 33.8799L51.9252 33.3935L52.0131 32.9036L52.091 32.4104L52.1589 31.9139L52.2166 31.4142L52.2641 30.9115L52.3012 30.4058L52.3279 29.8972L52.344 29.386L52.3493 28.872H52.6629L52.6574 29.3925L52.6411 29.9103L52.6142 30.4254L52.5766 30.9376L52.5285 31.4469L52.47 31.9531L52.4012 32.4561L52.3223 32.9557L52.2333 33.452L52.1343 33.9447L52.0255 34.4338L51.9069 34.9191L51.7787 35.4006L51.641 35.8781L51.4939 36.3516L51.3374 36.8209L51.1718 37.2859L50.997 37.7465L50.8133 38.2026L50.6208 38.6542L50.4193 39.101L50.2094 39.5429L49.9908 39.9799L49.7638 40.4119L49.5285 40.8387L49.2849 41.2602L49.0332 41.6764L48.7735 42.0872L48.506 42.4922L48.2307 42.8917L47.9476 43.2853L47.657 43.673L47.4216 43.6886L47.4215 43.6888ZM47.6569 43.6732C47.6043 43.7419 47.5059 43.755 47.4371 43.7024C47.3683 43.6497 47.3552 43.5513 47.4079 43.4826L47.6569 43.6731V43.6732ZM47.1956 43.0194L47.6433 43.467L47.4215 43.6888L46.9738 43.2412L46.9598 43.0354L47.1956 43.0194H47.1956ZM46.9738 43.2412C46.9126 43.18 46.9126 43.0806 46.9738 43.0194C47.035 42.9582 47.1344 42.9582 47.1956 43.0194L46.9738 43.2412ZM51.7221 28.8721H52.0357L52.0304 29.3764L52.0147 29.8781L51.9887 30.3772L51.9525 30.8736L51.9062 31.367L51.8498 31.8575L51.7835 32.3448L51.7075 32.8291L51.6216 33.31L51.5262 33.7875L51.4214 34.2615L51.3072 34.732L51.1836 35.1988L51.0508 35.6617L50.909 36.1208L50.7582 36.5759L50.5986 37.0268L50.4302 37.4734L50.253 37.9157L50.0674 38.3536L49.8732 38.7869L49.6708 39.2157L49.4601 39.6397L49.2412 40.0589L49.0143 40.4731L48.7795 40.8822L48.5368 41.2862L48.2864 41.6849L48.0284 42.0782L47.7628 42.4661L47.4898 42.8485L47.2096 43.2251L46.9599 43.0354L47.2365 42.6638L47.5058 42.2864L47.7678 41.9037L48.0225 41.5155L48.2696 41.1221L48.5091 40.7234L48.7408 40.3197L48.9647 39.911L49.1807 39.4974L49.3886 39.079L49.5884 38.6559L49.7799 38.2283L49.9631 37.7962L50.1379 37.3598L50.3041 36.9191L50.4616 36.4742L50.6104 36.0252L50.7503 35.5723L50.8813 35.1155L51.0033 34.655L51.116 34.1908L51.2195 33.723L51.3136 33.2518L51.3982 32.7772L51.4733 32.2994L51.5387 31.8184L51.5943 31.3344L51.6401 30.8475L51.6758 30.3577L51.7014 29.8651L51.717 29.3699L51.7221 28.8722V28.8721ZM51.7221 28.8721C51.7221 28.7855 51.7923 28.7153 51.8789 28.7153C51.9655 28.7153 52.0357 28.7855 52.0357 28.8721H51.7221ZM46.9738 14.503L47.1956 14.7248L47.2095 14.5191L47.4898 14.8958L47.7628 15.2781L48.0284 15.666L48.2863 16.0594L48.5368 16.4581L48.7795 16.862L49.0143 17.2712L49.2412 17.6853L49.4601 18.1045L49.6707 18.5285L49.8732 18.9573L50.0674 19.3906L50.253 19.8285L50.4301 20.2709L50.5986 20.7175L50.7582 21.1684L50.909 21.6234L51.0508 22.0825L51.1836 22.5454L51.3072 23.0122L51.4214 23.4827L51.5263 23.9567L51.6216 24.4342L51.7075 24.9151L51.7835 25.3994L51.8498 25.8867L51.9062 26.3772L51.9525 26.8707L51.9887 27.367L52.0147 27.8661L52.0304 28.3678L52.0357 28.8721H51.7221L51.717 28.3743L51.7014 27.8791L51.6758 27.3865L51.6401 26.8968L51.5943 26.4098L51.5387 25.9258L51.4733 25.4448L51.3982 24.9671L51.3136 24.4926L51.2194 24.0213L51.116 23.5535L51.0033 23.0893L50.8813 22.6288L50.7503 22.172L50.6104 21.7191L50.4616 21.2701L50.3041 20.8252L50.1379 20.3845L49.9631 19.948L49.7799 19.5159L49.5884 19.0883L49.3886 18.6653L49.1806 18.2469L48.9647 17.8333L48.7408 17.4246L48.509 17.0209L48.2696 16.6222L48.0225 16.2288L47.7678 15.8406L47.5058 15.4578L47.2364 15.0805L46.9598 14.7088L46.9738 14.5031L46.9738 14.503ZM46.9598 14.7088C46.9074 14.6398 46.9208 14.5414 46.9898 14.489C47.0587 14.4367 47.1571 14.4501 47.2095 14.519L46.9598 14.7087V14.7088ZM47.6431 14.2771L47.1955 14.7248L46.9737 14.503L47.4213 14.0553L47.6567 14.0709L47.6431 14.2771H47.6431ZM47.4213 14.0553C47.4826 13.9941 47.5819 13.9941 47.6431 14.0553C47.7043 14.1166 47.7043 14.2159 47.6431 14.2771L47.4213 14.0553ZM3.9052 28.8721H4.21876L4.22411 29.386L4.24022 29.8973L4.26688 30.4059L4.30395 30.9116L4.35148 31.4143L4.40922 31.914L4.47708 32.4105L4.55496 32.9037L4.6429 33.3936L4.74056 33.88L4.84794 34.3627L4.965 34.8417L5.09154 35.317L5.2275 35.7884L5.37269 36.2557L5.52706 36.7189L5.69062 37.1779L5.86311 37.6326L6.0444 38.0828L6.23452 38.5284L6.43323 38.9694L6.64058 39.4057L6.85634 39.837L7.08043 40.2635L7.31268 40.6848L7.55313 41.1009L7.80159 41.5117L8.05795 41.9172L8.32211 42.3171L8.59389 42.7113L8.87332 43.1L9.16022 43.4827L8.91118 43.6733L8.62055 43.2855L8.33748 42.8919L8.06217 42.4925L7.79461 42.0874L7.53492 41.6767L7.28322 41.2605L7.03963 40.8389L6.80434 40.4121L6.57734 39.9802L6.35874 39.5432L6.14874 39.1012L5.94737 38.6544L5.7548 38.2029L5.57106 37.7468L5.39631 37.2862L5.23069 36.8212L5.07425 36.3519L4.9271 35.8784L4.78937 35.4009L4.66116 34.9194L4.54263 34.4341L4.43377 33.945L4.33484 33.4522L4.24581 32.956L4.16686 32.4563L4.09812 31.9533L4.03959 31.4471L3.99147 30.9379L3.95391 30.4256L3.92695 29.9106L3.91065 29.3927L3.9052 28.8722V28.8721ZM3.9052 28.8721C3.9052 28.7855 3.97541 28.7153 4.06198 28.7153C4.14854 28.7153 4.21876 28.7855 4.21876 28.8721H3.9052ZM9.14672 14.0553L8.92493 14.2771L9.16032 14.2615L8.87342 14.6443L8.59398 15.0329L8.32216 15.4271L8.05799 15.8271L7.80164 16.2325L7.55318 16.6433L7.31278 17.0595L7.08048 17.4808L6.85639 17.9072L6.64063 18.3386L6.43328 18.7748L6.23457 19.2158L6.04445 19.6615L5.86307 20.1116L5.69062 20.5663L5.52711 21.0253L5.37269 21.4885L5.2275 21.9558L5.09154 22.4272L4.965 22.9025L4.84794 23.3815L4.74061 23.8643L4.6429 24.3507L4.55496 24.8405L4.47708 25.3337L4.40922 25.8302L4.35148 26.3299L4.304 26.8326L4.26688 27.3383L4.24022 27.8469L4.22411 28.3582L4.21876 28.8722H3.9052L3.91065 28.3517L3.92695 27.8338L3.95391 27.3187L3.99152 26.8065L4.03959 26.2972L4.09812 25.791L4.16686 25.2881L4.24581 24.7884L4.33484 24.2922L4.43382 23.7994L4.54263 23.3103L4.66116 22.825L4.78937 22.3435L4.9271 21.866L5.07425 21.3925L5.23074 20.9232L5.39631 20.4582L5.57111 19.9976L5.75485 19.5414L5.94742 19.0899L6.14879 18.6432L6.35879 18.2013L6.57739 17.7642L6.80439 17.3323L7.03973 16.9054L7.28327 16.4839L7.53497 16.0677L7.79466 15.657L8.06222 15.2519L8.33758 14.8524L8.62065 14.4588L8.91128 14.0711L9.14667 14.0555L9.14672 14.0553ZM8.91133 14.0709C8.96396 14.0022 9.06236 13.9891 9.13115 14.0417C9.19989 14.0944 9.213 14.1928 9.16037 14.2616L8.91133 14.071V14.0709ZM9.37249 14.7247L8.92498 14.2771L9.14677 14.0553L9.59428 14.5029L9.60827 14.7086L9.37253 14.7247H9.37249ZM9.59428 14.5029C9.65551 14.5641 9.65551 14.6635 9.59428 14.7247C9.53305 14.7859 9.43371 14.7859 9.37249 14.7247L9.59428 14.5029ZM4.84598 28.8721H4.53242L4.53767 28.3678L4.55338 27.866L4.57936 27.367L4.61555 26.8706L4.6619 26.3772L4.71832 25.8866L4.78455 25.3993L4.86061 24.915L4.94644 24.4341L5.0418 23.9566L5.14668 23.4826L5.26089 23.0121L5.38447 22.5453L5.51724 22.0824L5.65905 21.6233L5.80989 21.1683L5.96952 20.7174L6.13793 20.2707L6.31509 19.8284L6.5007 19.3905L6.69484 18.9571L6.89729 18.5284L7.10798 18.1044L7.32692 17.6852L7.55382 17.271L7.78857 16.8619L8.03128 16.4579L8.2817 16.0592L8.53973 15.6659L8.80527 15.278L9.07827 14.8956L9.35849 14.5189L9.60822 14.7086L9.33163 15.0803L9.06226 15.4576L8.80026 15.8404L8.54557 16.2286L8.29849 16.622L8.05902 17.0207L7.82732 17.4244L7.60341 17.8331L7.38742 18.2467L7.17947 18.6651L6.97968 19.0881L6.78818 19.5157L6.60499 19.9478L6.43019 20.3843L6.26403 20.825L6.10646 21.2699L5.95768 21.7189L5.81774 22.1718L5.68674 22.6286L5.56482 23.0891L5.45209 23.5534L5.34868 24.0211L5.2545 24.4924L5.16985 24.9669L5.09478 25.4447L5.02942 25.9257L4.97379 26.4097L4.92803 26.8967L4.89233 27.3864L4.86665 27.879L4.85114 28.3742L4.84598 28.872V28.8721ZM4.84598 28.8721C4.84598 28.9586 4.77576 29.0288 4.6892 29.0288C4.60263 29.0288 4.53242 28.9586 4.53242 28.8721H4.84598ZM9.59428 43.2412L9.37249 43.0194L9.35849 43.2251L9.07827 42.8485L8.80527 42.4661L8.53973 42.0782L8.2817 41.6849L8.03128 41.2862L7.78857 40.8822L7.55382 40.4731L7.32692 40.0589L7.10798 39.6397L6.89729 39.2157L6.69484 38.7869L6.5007 38.3536L6.31509 37.9157L6.13793 37.4733L5.96952 37.0267L5.80989 36.5758L5.65905 36.1208L5.51724 35.6617L5.38447 35.1988L5.26089 34.732L5.14668 34.2615L5.0418 33.7875L4.94644 33.31L4.86061 32.829L4.78455 32.3448L4.71832 31.8575L4.6619 31.3669L4.61555 30.8735L4.57936 30.3772L4.55338 29.8781L4.53767 29.3763L4.53242 28.8721H4.84598L4.85114 29.3698L4.86665 29.865L4.89233 30.3576L4.92803 30.8474L4.97379 31.3343L5.02942 31.8184L5.09478 32.2993L5.16985 32.7771L5.2545 33.2517L5.34868 33.7229L5.45209 34.1907L5.56482 34.6549L5.68674 35.1154L5.81774 35.5723L5.95768 36.0251L6.10646 36.4741L6.26403 36.919L6.43019 37.3597L6.60499 37.7962L6.78818 38.2283L6.97968 38.6559L7.17947 39.079L7.38742 39.4973L7.60341 39.9109L7.82732 40.3196L8.05902 40.7234L8.29849 41.122L8.54557 41.5155L8.80026 41.9036L9.06226 42.2864L9.33163 42.6637L9.60822 43.0354L9.59423 43.2411L9.59428 43.2412ZM9.60827 43.0354C9.66066 43.1044 9.64721 43.2028 9.57827 43.2552C9.50933 43.3076 9.41093 43.2941 9.35854 43.2252L9.60827 43.0355V43.0354ZM8.92493 43.467L9.37253 43.0194L9.59433 43.2412L9.14672 43.6888L8.91133 43.6732L8.92498 43.467H8.92493ZM9.14672 43.6888C9.08549 43.7501 8.98616 43.7501 8.92493 43.6888C8.8637 43.6276 8.8637 43.5283 8.92493 43.467L9.14672 43.6888ZM39.4686 13.367L39.2468 13.1452L39.2669 13.3839L38.9742 13.1801L38.6775 12.9817L38.377 12.7887L38.0726 12.6013L37.7645 12.4195L37.4527 12.2433L37.1373 12.0729L36.8184 11.9083L36.496 11.7496L36.1701 11.5969L35.8409 11.4501L35.5085 11.3095L35.1729 11.175L34.8341 11.0468L34.4923 10.9248L34.1476 10.8093L33.7999 10.7003L33.4494 10.5977L33.0962 10.5017L32.7402 10.4124L32.3817 10.3298L32.0205 10.2541L31.6569 10.1853L31.2909 10.1233L30.9225 10.0684L30.5519 10.0206L30.179 9.97992L29.804 9.94648L29.427 9.92036L29.0479 9.90165L28.6669 9.89031L28.284 9.88653V9.57297L28.673 9.57685L29.0603 9.58829L29.4455 9.60739L29.8288 9.6339L30.21 9.66793L30.589 9.70918L30.9657 9.75783L31.3402 9.81366L31.7123 9.87661L32.082 9.94663L32.4491 10.0236L32.8137 10.1076L33.1755 10.1984L33.5347 10.2959L33.8909 10.4001L34.2444 10.511L34.5949 10.6285L34.9424 10.7524L35.2867 10.8828L35.628 11.0195L35.9659 11.1625L36.3005 11.3116L36.6318 11.4669L36.9596 11.6283L37.2838 11.7956L37.6044 11.9689L37.9214 12.1479L38.2346 12.3328L38.5439 12.5233L38.8495 12.7195L39.151 12.9211L39.4485 13.1283L39.4686 13.367H39.4686ZM39.4485 13.1283C39.5191 13.1785 39.5356 13.2764 39.4855 13.347C39.4353 13.4176 39.3374 13.4341 39.2668 13.384L39.4485 13.1283ZM38.7967 13.5954L39.2468 13.1453L39.4686 13.3671L39.0185 13.8172L38.8175 13.8347L38.7967 13.5954L38.7967 13.5954ZM39.0185 13.8172C38.9572 13.8784 38.8579 13.8784 38.7967 13.8172C38.7354 13.756 38.7354 13.6566 38.7967 13.5954L39.0185 13.8172ZM28.2841 10.5138V10.2002L28.6568 10.2039L29.0279 10.2147L29.3971 10.2328L29.7644 10.2581L30.1297 10.2903L30.4929 10.3295L30.8541 10.3757L31.2131 10.4287L31.5698 10.4885L31.9242 10.5549L32.2763 10.6281L32.6259 10.7077L32.9729 10.794L33.3174 10.8867L33.6592 10.9857L33.9983 11.091L34.3347 11.2025L34.6681 11.3203L34.9986 11.4441L35.3261 11.5739L35.6505 11.7098L35.9719 11.8515L36.29 11.9991L36.6048 12.1524L36.9162 12.3113L37.2243 12.4759L37.529 12.6462L37.8301 12.8219L38.1276 13.0029L38.4213 13.1894L38.7114 13.381L38.9976 13.578L38.8174 13.8347L38.536 13.6411L38.2509 13.4526L37.962 13.2692L37.6695 13.0912L37.3735 12.9184L37.074 12.7512L36.7711 12.5893L36.4648 12.433L36.1553 12.2822L35.8426 12.1372L35.5268 11.9979L35.2078 11.8644L34.8858 11.7367L34.5609 11.6149L34.2331 11.4993L33.9025 11.3896L33.5691 11.2861L33.2331 11.1887L32.8944 11.0976L32.5532 11.0128L32.2096 10.9345L31.8634 10.8626L31.5149 10.7973L31.1642 10.7385L30.8113 10.6863L30.4562 10.641L30.0991 10.6024L29.7398 10.5707L29.3786 10.546L29.0156 10.5281L28.6508 10.5174L28.2841 10.5138V10.5138ZM28.2841 10.5138C28.1975 10.5138 28.1273 10.4435 28.1273 10.357C28.1273 10.2704 28.1975 10.2002 28.2841 10.2002V10.5138ZM17.5499 13.8171L17.7716 13.5953L17.5707 13.5778L17.8569 13.3809L18.1469 13.1892L18.4408 13.0028L18.7382 12.8217L19.0394 12.6461L19.344 12.4758L19.6521 12.3113L19.9635 12.1523L20.2784 11.999L20.5965 11.8515L20.9177 11.7097L21.2422 11.5738L21.5697 11.444L21.9002 11.3202L22.2337 11.2024L22.5699 11.0909L22.909 10.9856L23.2508 10.8866L23.5954 10.7939L23.9424 10.7077L24.292 10.628L24.644 10.5549L24.9984 10.4884L25.3551 10.4287L25.7141 10.3756L26.0753 10.3295L26.4385 10.2902L26.8039 10.258L27.1711 10.2328L27.5403 10.2147L27.9113 10.2038L28.2841 10.2001V10.5137L27.9174 10.5173L27.5526 10.528L27.1895 10.5459L26.8284 10.5706L26.4692 10.6023L26.112 10.6409L25.757 10.6862L25.404 10.7384L25.0533 10.7972L24.7049 10.8625L24.3587 10.9344L24.0151 11.0127L23.6738 11.0975L23.3352 11.1885L22.9992 11.2859L22.6658 11.3895L22.3352 11.4991L22.0074 11.6148L21.6825 11.7366L21.3605 11.8642L21.0417 11.9977L20.7258 12.1371L20.413 12.2821L20.1036 12.4328L19.7973 12.5892L19.4944 12.751L19.1949 12.9183L18.8988 13.091L18.6064 13.269L18.3175 13.4524L18.0323 13.6409L17.7508 13.8345L17.55 13.817L17.5499 13.8171ZM17.7507 13.8346C17.6799 13.8843 17.582 13.8671 17.5323 13.7963C17.4827 13.7254 17.4998 13.6276 17.5706 13.5779L17.7507 13.8346ZM17.3214 13.1453L17.7715 13.5954L17.5498 13.8171L17.0997 13.3671L17.1197 13.1284L17.3214 13.1453V13.1453ZM17.0997 13.3671C17.0384 13.3058 17.0384 13.2066 17.0996 13.1453C17.1608 13.0841 17.2601 13.0841 17.3214 13.1453L17.0997 13.3671ZM28.284 9.57307V9.88663L27.9012 9.89041L27.5201 9.90175L27.1411 9.92046L26.764 9.94658L26.389 9.97997L26.0162 10.0207L25.6455 10.0685L25.2771 10.1234L24.9111 10.1853L24.5476 10.2542L24.1864 10.3299L23.8279 10.4125L23.4719 10.5018L23.1187 10.5978L22.7682 10.7004L22.4205 10.8094L22.0757 10.9249L21.7339 11.0468L21.3952 11.175L21.0595 11.3095L20.7272 11.4502L20.3979 11.5969L20.0722 11.7496L19.7498 11.9083L19.4308 12.0729L19.1154 12.2433L18.8036 12.4195L18.4955 12.6014L18.1911 12.7888L17.8906 12.9817L17.5939 13.1801L17.3013 13.384L17.1196 13.1283L17.4172 12.9212L17.7186 12.7194L18.0241 12.5233L18.3335 12.3328L18.6467 12.148L18.9636 11.9689L19.2843 11.7956L19.6085 11.6283L19.9363 11.4669L20.2675 11.3116L20.6022 11.1625L20.9401 11.0195L21.2814 10.8828L21.6257 10.7524L21.9732 10.6285L22.3237 10.511L22.6771 10.4002L23.0334 10.2959L23.3925 10.1984L23.7544 10.1076L24.1189 10.0237L24.4861 9.94663L24.8558 9.87661L25.2278 9.81371L25.6023 9.75783L25.9791 9.70922L26.3581 9.66793L26.7393 9.63395L27.1225 9.60744L27.5078 9.58834L27.895 9.5769L28.284 9.57302V9.57307ZM28.284 9.57307C28.3706 9.57307 28.4408 9.64328 28.4408 9.72985C28.4408 9.81641 28.3706 9.88663 28.284 9.88663V9.57307ZM47.5832 28.8722H47.2696L47.2659 28.4894L47.2545 28.1083L47.2358 27.7293L47.2097 27.3522L47.1763 26.9772L47.1356 26.6044L47.0877 26.2337L47.0329 25.8653L46.9709 25.4993L46.9021 25.1357L46.8264 24.7745L46.7438 24.416L46.6545 24.06L46.5585 23.7068L46.4559 23.3563L46.3468 23.0086L46.2313 22.6639L46.1094 22.3221L45.9812 21.9834L45.8467 21.6477L45.7061 21.3154L45.5593 20.9861L45.4066 20.6603L45.2479 20.3379L45.0833 20.019L44.9129 19.7036L44.7367 19.3918L44.5548 19.0837L44.3675 18.7793L44.1744 18.4787L43.976 18.1821L43.7723 17.8894L44.0279 17.7077L44.2351 18.0053L44.4367 18.3068L44.6329 18.6123L44.8234 18.9217L45.0083 19.2349L45.1874 19.5518L45.3606 19.8725L45.528 20.1967L45.6893 20.5245L45.8446 20.8557L45.9937 21.1903L46.1367 21.5283L46.2734 21.8695L46.4038 22.2139L46.5277 22.5614L46.6452 22.9118L46.7561 23.2653L46.8603 23.6216L46.9579 23.9807L47.0486 24.3426L47.1326 24.7071L47.2096 25.0742L47.2796 25.4439L47.3426 25.816L47.3984 26.1905L47.447 26.5672L47.4883 26.9463L47.5223 27.3274L47.5488 27.7107L47.5679 28.096L47.5794 28.4832L47.5833 28.8722H47.5832ZM47.5832 28.8722C47.5832 28.9588 47.513 29.029 47.4264 29.029C47.3399 29.029 47.2696 28.9588 47.2696 28.8722H47.5832ZM43.7892 40.0566L44.011 39.8348L43.7723 39.8549L43.9761 39.5623L44.1745 39.2656L44.3675 38.965L44.5549 38.6607L44.7367 38.3525L44.9129 38.0408L45.0833 37.7254L45.2479 37.4064L45.4066 37.084L45.5594 36.7582L45.7061 36.429L45.8467 36.0966L45.9812 35.761L46.1094 35.4222L46.2313 35.0804L46.3468 34.7357L46.4559 34.388L46.5585 34.0375L46.6545 33.6843L46.7438 33.3283L46.8264 32.9698L46.9021 32.6086L46.9709 32.245L47.0329 31.879L47.0877 31.5106L47.1356 31.14L47.1763 30.7671L47.2097 30.3921L47.2358 30.0151L47.2545 29.636L47.2659 29.255L47.2696 28.8722H47.5832L47.5793 29.2612L47.5679 29.6484L47.5488 30.0336L47.5223 30.4169L47.4882 30.7981L47.447 31.1771L47.3983 31.5538L47.3425 31.9283L47.2796 32.3004L47.2095 32.6701L47.1326 33.0372L47.0486 33.4018L46.9578 33.7636L46.8602 34.1228L46.756 34.479L46.6451 34.8325L46.5277 35.183L46.4037 35.5304L46.2734 35.8748L46.1367 36.216L45.9936 36.554L45.8446 36.8886L45.6893 37.2199L45.5279 37.5476L45.3606 37.8719L45.1873 38.1925L45.0083 38.5095L44.8234 38.8226L44.6329 39.132L44.4367 39.4375L44.2351 39.739L44.0279 40.0366L43.7892 40.0567V40.0566ZM44.0279 40.0365C43.9777 40.1071 43.8798 40.1236 43.8092 40.0735C43.7387 40.0234 43.7221 39.9255 43.7723 39.8549L44.0279 40.0365ZM43.5609 39.3847L44.0109 39.8348L43.7891 40.0566L43.3391 39.6065L43.3216 39.4056L43.5608 39.3848L43.5609 39.3847ZM43.3391 39.6065C43.2779 39.5453 43.2779 39.4459 43.3391 39.3847C43.4003 39.3235 43.4996 39.3235 43.5609 39.3847L43.3391 39.6065ZM46.6424 28.8722H46.956L46.9523 29.245L46.9415 29.616L46.9233 29.9852L46.8981 30.3525L46.8659 30.7178L46.8267 31.0811L46.7805 31.4423L46.7275 31.8013L46.6677 32.158L46.6012 32.5124L46.5281 32.8643L46.4484 33.2139L46.3622 33.561L46.2696 33.9055L46.1705 34.2473L46.0652 34.5864L45.9537 34.9227L45.8359 35.2562L45.7121 35.5867L45.5823 35.9142L45.4464 36.2386L45.3047 36.56L45.1571 36.878L45.0039 37.1928L44.8449 37.5043L44.6803 37.8124L44.5101 38.117L44.3344 38.4181L44.1533 38.7156L43.9669 39.0094L43.7752 39.2995L43.5783 39.5856L43.3216 39.4055L43.5152 39.1241L43.7037 38.8389L43.8871 38.55L44.0651 38.2576L44.2378 37.9616L44.4051 37.662L44.5669 37.3591L44.7233 37.0528L44.8739 36.7434L45.0189 36.4307L45.1583 36.1148L45.2918 35.7959L45.4195 35.4739L45.5413 35.149L45.657 34.8212L45.7666 34.4906L45.8702 34.1572L45.9675 33.8212L46.0586 33.4826L46.1434 33.1413L46.2217 32.7977L46.2936 32.4515L46.3589 32.1031L46.4177 31.7523L46.4698 31.3995L46.5152 31.0444L46.5537 30.6872L46.5855 30.328L46.6103 29.9668L46.628 29.6038L46.6388 29.2389L46.6424 28.8722H46.6424ZM46.6424 28.8722C46.6424 28.7856 46.7126 28.7154 46.7992 28.7154C46.8858 28.7154 46.956 28.7856 46.956 28.8722H46.6424ZM43.339 18.1379L43.5608 18.3597L43.5783 18.1587L43.7752 18.4449L43.9668 18.735L44.1533 19.0288L44.3344 19.3263L44.5101 19.6274L44.6803 19.932L44.8449 20.2401L45.0039 20.5515L45.1572 20.8664L45.3047 21.1845L45.4464 21.5058L45.5823 21.8302L45.7122 22.1577L45.8359 22.4882L45.9537 22.8216L46.0652 23.158L46.1705 23.4971L46.2696 23.8389L46.3623 24.1834L46.4485 24.5305L46.5282 24.8801L46.6013 25.2321L46.6678 25.5865L46.7275 25.9432L46.7806 26.3022L46.8267 26.6633L46.8659 27.0266L46.8981 27.3919L46.9233 27.7592L46.9415 28.1284L46.9524 28.4994L46.956 28.8722H46.6425L46.6389 28.5055L46.6281 28.1406L46.6104 27.7776L46.5856 27.4164L46.5538 27.0573L46.5153 26.7001L46.4699 26.345L46.4178 25.9921L46.359 25.6414L46.2937 25.2929L46.2218 24.9467L46.1435 24.6031L46.0587 24.2619L45.9676 23.9232L45.8702 23.5872L45.7667 23.2538L45.657 22.9232L45.5413 22.5954L45.4196 22.2705L45.2919 21.9486L45.1584 21.6296L45.019 21.3137L44.874 21.0011L44.7233 20.6915L44.567 20.3852L44.4051 20.0823L44.2378 19.7828L44.0651 19.4868L43.8871 19.1943L43.7037 18.9055L43.5152 18.6203L43.3216 18.3389L43.3391 18.1379L43.339 18.1379ZM43.3215 18.3388C43.2718 18.268 43.2889 18.1701 43.3598 18.1204C43.4306 18.0706 43.5285 18.0878 43.5782 18.1586L43.3215 18.3388ZM44.0108 17.9095L43.5607 18.3596L43.3389 18.1378L43.7891 17.6877L44.0277 17.7078L44.0108 17.9095H44.0108ZM43.7891 17.6877C43.8503 17.6265 43.9496 17.6265 44.0108 17.6877C44.0721 17.7489 44.0721 17.8483 44.0108 17.9095L43.7891 17.6877ZM8.98483 28.8722H9.29839L9.30217 29.255L9.31351 29.636L9.33222 30.0151L9.35835 30.3921L9.39178 30.7671L9.43244 31.14L9.48026 31.5107L9.53516 31.879L9.59712 32.2451L9.66596 32.6087L9.74168 32.9698L9.82422 33.3284L9.91353 33.6843L10.0095 34.0375L10.1121 34.3881L10.2212 34.7357L10.3367 35.0805L10.4586 35.4223L10.5868 35.761L10.7213 36.0966L10.8619 36.4291L11.0086 36.7582L11.1614 37.084L11.3201 37.4065L11.4847 37.7254L11.6551 38.0408L11.8313 38.3526L12.0132 38.6607L12.2005 38.9651L12.3935 39.2656L12.592 39.5623L12.7957 39.8549L12.5401 40.0366L12.3329 39.7391L12.1312 39.4376L11.9351 39.132L11.7446 38.8227L11.5597 38.5095L11.3806 38.1925L11.2074 37.8719L11.0401 37.5477L10.8787 37.2199L10.7235 36.8887L10.5743 36.5541L10.4313 36.216L10.2946 35.8749L10.1642 35.5305L10.0403 35.183L9.92281 34.8325L9.81194 34.4791L9.7077 34.1228L9.61014 33.7636L9.51935 33.4018L9.43543 33.0373L9.35844 32.6701L9.28842 32.3005L9.22548 31.9283L9.1696 31.5539L9.12099 31.1771L9.07974 30.7981L9.04572 30.4169L9.0192 30.0336L9.0001 29.6484L8.98866 29.2612L8.98478 28.8722H8.98483ZM8.98483 28.8722C8.98483 28.7856 9.05505 28.7154 9.14161 28.7154C9.22818 28.7154 9.29839 28.7856 9.29839 28.8722H8.98483ZM12.7788 17.6877L12.5571 17.9094L12.7957 17.8894L12.592 18.182L12.3935 18.4787L12.2005 18.7792L12.0132 19.0836L11.8313 19.3918L11.6551 19.7035L11.4847 20.0189L11.3201 20.3378L11.1614 20.6603L11.0086 20.9861L10.8619 21.3153L10.7213 21.6477L10.5868 21.9833L10.4586 22.3221L10.3367 22.6639L10.2212 23.0086L10.1121 23.3563L10.0095 23.7068L9.91353 24.06L9.82422 24.416L9.74168 24.7745L9.66596 25.1357L9.59712 25.4993L9.53516 25.8653L9.48026 26.2337L9.43244 26.6044L9.39178 26.9772L9.35835 27.3522L9.33222 27.7293L9.31351 28.1083L9.30217 28.4894L9.29839 28.8722H8.98483L8.98871 28.4832L9.00015 28.096L9.01925 27.7107L9.04577 27.3274L9.07979 26.9463L9.12104 26.5672L9.16965 26.1905L9.22553 25.816L9.28847 25.4439L9.35849 25.0742L9.43548 24.7071L9.5194 24.3426L9.61019 23.9807L9.70775 23.6216L9.81199 23.2653L9.92286 22.9118L10.0404 22.5614L10.1642 22.2139L10.2946 21.8695L10.4314 21.5283L10.5743 21.1903L10.7235 20.8557L10.8788 20.5244L11.0401 20.1966L11.2075 19.8724L11.3807 19.5518L11.5598 19.2348L11.7446 18.9216L11.9351 18.6123L12.1313 18.3067L12.333 18.0052L12.5402 17.7077L12.7788 17.6876V17.6877ZM12.5402 17.7077C12.5903 17.6372 12.6882 17.6206 12.7588 17.6708C12.8294 17.7209 12.8459 17.8188 12.7958 17.8894L12.5402 17.7077ZM13.0072 18.3596L12.5571 17.9094L12.7789 17.6877L13.229 18.1378L13.2465 18.3387L13.0073 18.3595L13.0072 18.3596ZM13.229 18.1378C13.2902 18.199 13.2902 18.2983 13.229 18.3596C13.1678 18.4208 13.0684 18.4208 13.0072 18.3596L13.229 18.1378ZM9.92561 28.8722H9.61205L9.61573 28.4994L9.62659 28.1283L9.64475 27.7591L9.66994 27.3918L9.70215 27.0265L9.74138 26.6633L9.78754 26.3021L9.84057 25.9431L9.90032 25.5864L9.96686 25.232L10.0399 24.88L10.1197 24.5304L10.2059 24.1834L10.2985 23.8388L10.3976 23.497L10.5028 23.1579L10.6144 22.8216L10.7322 22.4881L10.856 22.1576L10.9858 21.8302L11.1217 21.5057L11.2634 21.1844L11.4109 20.8663L11.5642 20.5515L11.7232 20.24L11.8878 19.9319L12.058 19.6273L12.2337 19.3262L12.4148 19.0287L12.6012 18.7349L12.7928 18.4448L12.9898 18.1586L13.2465 18.3387L13.0529 18.6202L12.8644 18.9054L12.681 19.1943L12.503 19.4867L12.3303 19.7828L12.163 20.0823L12.0012 20.3852L11.8448 20.6915L11.6941 21.001L11.5491 21.3137L11.4098 21.6295L11.2762 21.9485L11.1486 22.2704L11.0268 22.5953L10.9111 22.9232L10.8014 23.2538L10.6979 23.5871L10.6006 23.9231L10.5095 24.2618L10.4247 24.603L10.3464 24.9467L10.2745 25.2928L10.2091 25.6413L10.1503 25.992L10.0982 26.3449L10.0528 26.7L10.0143 27.0572L9.98257 27.4164L9.95777 27.7776L9.94 28.1406L9.92925 28.5055L9.92566 28.8722H9.92561ZM9.92561 28.8722C9.92561 28.9587 9.8554 29.0289 9.76883 29.0289C9.68227 29.0289 9.61205 28.9587 9.61205 28.8722H9.92561ZM13.229 39.6065L13.0072 39.3848L12.9897 39.5857L12.7928 39.2995L12.6011 39.0094L12.4147 38.7157L12.2336 38.4181L12.0579 38.1171L11.8878 37.8124L11.7231 37.5043L11.5642 37.1928L11.4109 36.878L11.2633 36.56L11.1216 36.2386L10.9858 35.9142L10.8559 35.5867L10.7321 35.2562L10.6143 34.9228L10.5028 34.5864L10.3975 34.2473L10.2984 33.9055L10.2058 33.561L10.1196 33.2139L10.0399 32.8643L9.96676 32.5123L9.90028 32.1579L9.84052 31.8012L9.78749 31.4422L9.74134 31.081L9.7021 30.7178L9.66989 30.3525L9.6447 29.9852L9.62654 29.616L9.61568 29.2449L9.612 28.8722H9.92556L9.92915 29.2388L9.9399 29.6037L9.95768 29.9667L9.98247 30.3279L10.0142 30.6871L10.0527 31.0443L10.0981 31.3994L10.1503 31.7523L10.209 32.103L10.2743 32.4515L10.3463 32.7977L10.4246 33.1413L10.5093 33.4825L10.6004 33.8212L10.6978 34.1572L10.8013 34.4906L10.911 34.8212L11.0267 35.149L11.1484 35.4739L11.2761 35.7958L11.4097 36.1148L11.549 36.4307L11.694 36.7433L11.8447 37.0529L12.001 37.3592L12.1629 37.6621L12.3302 37.9616L12.5029 38.2576L12.6809 38.5501L12.8643 38.8389L13.0528 39.1241L13.2464 39.4056L13.2289 39.6065L13.229 39.6065ZM13.2465 39.4056C13.2962 39.4765 13.279 39.5743 13.2082 39.624C13.1373 39.6737 13.0395 39.6566 12.9898 39.5857L13.2465 39.4056ZM12.5572 39.8349L13.0073 39.3848L13.2291 39.6066L12.7789 40.0567L12.5403 40.0366L12.5572 39.8349H12.5572ZM12.7789 40.0567C12.7177 40.1179 12.6184 40.1179 12.5572 40.0567C12.4959 39.9954 12.4959 39.8961 12.5572 39.8349L12.7789 40.0567Z" fill="white"/>
</g>
<path id="Vector_2" fill-rule="evenodd" clip-rule="evenodd" d="M26.6183 30.9593C26.5123 30.7355 26.3828 30.5943 26.2768 30.3117C26.1825 30.0644 26.1354 29.7582 26.1472 29.4638C26.1825 28.6985 26.4416 28.569 26.6771 28.1097C26.4298 27.992 26.2296 27.8154 25.9587 27.6505C25.158 27.1559 24.5222 26.8733 23.5919 26.5436C22.4614 26.1432 20.9071 25.8842 19.6 25.9313C17.9279 25.9195 16.1616 26.4376 14.8545 27.0618C13.8182 27.5563 12.0402 28.6514 11.4043 29.511C11.6398 30.0527 13.7241 31.3951 14.407 31.7601C17.0682 33.1379 20.1887 33.5264 23.1208 32.655C24.2866 32.3135 25.6644 31.6893 26.6182 30.9593H26.6183Z" fill="#056137"/>
<path id="Vector_3" fill-rule="evenodd" clip-rule="evenodd" d="M29.9258 28.1212C30.0436 28.345 30.1849 28.4863 30.3026 28.7688C30.7854 29.9463 30.0671 30.7 29.9611 30.9944C30.5028 31.2888 30.7383 31.536 31.5744 31.9364C33.6351 32.9373 35.8136 33.3495 38.1804 33.0433C39.6994 32.8549 40.9711 32.3957 42.1605 31.7834C43.0436 31.3359 44.7746 30.1701 45.1632 29.5342C44.6686 28.7924 42.6903 27.5442 41.7365 27.0967C40.7473 26.6257 38.2392 25.7779 36.9675 25.978C36.0372 25.7779 33.788 26.2724 32.9638 26.5668C31.8216 26.9672 30.7853 27.5089 29.9258 28.1212H29.9258Z" fill="#056137"/>
<path id="Vector_4" fill-rule="evenodd" clip-rule="evenodd" d="M27.064 37.4355C26.0748 37.0352 25.333 36.4935 24.0377 36.4935C21.2234 36.4935 19.8575 38.8722 22.401 39.9555C24.0377 40.6621 25.545 40.1086 27.0051 39.355C27.4644 39.1195 27.853 38.8604 28.2769 38.6367C28.5006 38.7073 28.8657 38.9546 29.0777 39.0723C29.3485 39.2254 29.584 39.3667 29.8666 39.4962C30.3965 39.7436 31.0206 40.0261 31.6564 40.1792C33.0813 40.5207 34.7534 39.9908 35.3187 39.0959C35.7543 38.4129 35.4835 37.8124 35.0713 37.3767C34.6945 36.9881 34.0822 36.7055 33.3992 36.5759C31.4092 36.1991 30.1374 37.306 29.5251 37.4355C29.6311 37.3296 29.902 36.9763 30.0315 36.8232C30.5496 36.2227 32.4925 34.0207 32.728 33.5732C33.152 32.8078 32.6221 32.3721 31.8685 32.3721L24.7561 32.3721C23.9907 32.3721 23.4961 32.7724 23.8729 33.5496C24.0731 33.9499 24.6383 34.5505 24.9209 34.8802C25.3566 35.4219 26.7579 36.9763 27.064 37.4355L27.064 37.4355Z" fill="#FF6245"/>
<path id="Vector_5" fill-rule="evenodd" clip-rule="evenodd" d="M31.9514 20.8203C31.9395 20.8321 31.9279 20.8438 31.916 20.8556L31.292 21.4679C30.079 22.6572 28.4187 25.9543 28.4658 27.4262C28.772 27.4498 29.0428 27.5322 29.2901 27.6617C29.5609 27.8031 29.7258 28.0268 29.9142 28.1328C30.7738 27.5323 31.8101 26.9906 32.964 26.5785C33.8001 26.2841 36.0492 25.7895 36.9677 25.9897C37.0149 25.8837 37.9098 24.8239 38.2277 24.3411C39.417 22.5276 40.3473 19.8665 40.2177 17.5938C38.4986 17.5938 36.8029 17.947 35.4134 18.5594C34.7304 18.8537 34.1063 19.1717 33.5411 19.5603C33.0819 19.8429 32.2458 20.4435 31.9515 20.8203H31.9514Z" fill="#018D41"/>
<path id="Vector_6" fill-rule="evenodd" clip-rule="evenodd" d="M19.5881 25.9547C20.8952 25.8958 22.4495 26.1548 23.5799 26.567C24.5102 26.8967 25.1461 27.1911 25.9468 27.6739C26.2176 27.8387 26.4179 28.0036 26.6651 28.1331C27.0655 27.8034 27.3246 27.4972 28.1017 27.4148C28.0782 26.4021 27.2656 24.471 26.8418 23.7055C26.5239 23.1285 26.2059 22.6458 25.8526 22.1747C25.464 21.6801 25.0755 21.2798 24.6868 20.8559C24.0274 20.326 23.9332 20.1493 23.0618 19.5724C21.1778 18.3477 18.6814 17.5116 16.3027 17.5823C16.4323 18.5125 16.2792 18.7952 16.5854 20.1847C16.9975 22.0687 17.9513 24.1648 19.2466 25.5425C19.3644 25.672 19.5057 25.8251 19.5881 25.9547V25.9547Z" fill="#018D41"/>
<path id="Vector_7" fill-rule="evenodd" clip-rule="evenodd" d="M25.2645 17.4647C25.1585 17.9828 24.9819 18.4892 24.8759 19.0544C24.7582 19.6785 24.7582 20.2084 24.6875 20.8442C25.0761 21.2681 25.4765 21.6685 25.8533 22.163C26.2183 22.6341 26.5245 23.105 26.8424 23.6939C27.2546 24.4592 28.0788 26.4022 28.1024 27.4031H28.4674C28.4203 25.9312 30.0807 22.6341 31.2935 21.4447L31.9176 20.8324C31.9295 20.8207 31.9411 20.8089 31.953 20.7971C31.8941 20.7618 31.8705 20.856 31.847 20.4909C31.7293 18.7481 31.4702 17.7119 30.7283 16.0634C30.328 15.1567 28.9267 12.9782 28.2791 12.625C27.4548 13.2373 26.3597 14.9919 25.8298 16.0752C25.6296 16.5109 25.4529 17.1232 25.2645 17.4647H25.2645Z" fill="#95BE32"/>
<path id="Vector_8" fill-rule="evenodd" clip-rule="evenodd" d="M26.6762 28.1216C26.4407 28.5809 26.1816 28.7104 26.1463 29.4758C26.1345 29.7701 26.1816 30.0645 26.2759 30.3236C26.3818 30.5944 26.5113 30.7357 26.6174 30.9712C26.8175 31.1007 26.9589 31.2891 27.265 31.4658C27.8772 31.7955 28.6309 31.819 29.2432 31.5128C29.5611 31.3598 29.726 31.1478 29.9615 30.9947C30.0675 30.7121 30.7858 29.9585 30.303 28.7692C30.1853 28.4866 30.044 28.3453 29.9262 28.1216C29.7378 28.0156 29.573 27.7918 29.3021 27.6505C29.0548 27.521 28.784 27.4386 28.4779 27.415H28.1128C27.3357 27.4975 27.0766 27.7919 26.6762 28.1216H26.6762Z" fill="#FF6245"/>
<path id="Vector_9" d="M17.8913 42.5108H18.3431L18.3236 42.4438C18.2696 42.2616 18.2255 42.1063 18.1911 41.978C18.1567 41.8497 18.1357 41.7669 18.1283 41.7298L18.1172 41.6739C18.1022 41.7763 18.0335 42.0328 17.9108 42.4438L17.8912 42.5107L17.8913 42.5108ZM18.5607 43.2416L18.4463 42.8566H17.788L17.6737 43.2416H17.2246L17.8522 41.3615H18.3934L19.021 43.2416H18.5608H18.5607ZM19.6458 43.2193L19.0991 41.8274H19.5426L19.696 42.2681C19.735 42.3815 19.7671 42.4792 19.7922 42.561C19.8173 42.6428 19.8327 42.6968 19.8383 42.7228L19.8466 42.7618C19.8671 42.6874 19.9173 42.5229 19.9973 42.2681L20.1368 41.8274H20.5552L20.0447 43.1998C19.8978 43.5959 19.6737 43.794 19.3724 43.794C19.3148 43.794 19.2627 43.7893 19.2162 43.78V43.4565C19.246 43.4639 19.2776 43.4676 19.3111 43.4676C19.4654 43.4676 19.577 43.3849 19.6458 43.2193V43.2193ZM21.6124 41.8274H22.0196V43.2416H21.6124V43.0157C21.538 43.1737 21.3948 43.2528 21.1828 43.2528C21.0377 43.2528 20.9247 43.2123 20.8438 43.1314C20.763 43.0505 20.7225 42.9311 20.7225 42.773V41.8274H21.1297V42.681C21.1297 42.8464 21.2023 42.9292 21.3474 42.9292C21.524 42.9292 21.6124 42.8111 21.6124 42.5749V41.8274ZM23.2469 41.8693V42.2179C23.1484 42.1603 23.0331 42.1315 22.9011 42.1315C22.8527 42.1315 22.8155 42.1412 22.7895 42.1607C22.7635 42.1803 22.7504 42.2049 22.7504 42.2346C22.7504 42.2514 22.7551 42.2672 22.7644 42.2821C22.7737 42.297 22.789 42.3109 22.8104 42.3239C22.8318 42.3369 22.8523 42.3485 22.8718 42.3587C22.8913 42.369 22.9183 42.3815 22.9527 42.3964C22.9871 42.4113 23.0145 42.4243 23.035 42.4355C23.1206 42.4801 23.1893 42.5317 23.2414 42.5903C23.2935 42.6489 23.3195 42.7237 23.3195 42.8149C23.3195 42.9543 23.2693 43.0622 23.1689 43.1384C23.0685 43.2146 22.9355 43.2528 22.77 43.2528C22.5989 43.2528 22.4558 43.224 22.3404 43.1663V42.8037C22.4688 42.8929 22.6045 42.9376 22.7477 42.9376C22.85 42.9376 22.9011 42.905 22.9011 42.8399C22.9011 42.8231 22.8965 42.8074 22.8871 42.7925C22.8778 42.7776 22.862 42.7637 22.8397 42.7507C22.8174 42.7376 22.7969 42.727 22.7783 42.7186C22.7597 42.7102 22.7328 42.6986 22.6974 42.6838C22.6621 42.6688 22.6351 42.6568 22.6165 42.6475C22.4287 42.5582 22.3348 42.4243 22.3348 42.2458C22.3348 42.1082 22.3874 42.0013 22.4924 41.925C22.5974 41.8488 22.7281 41.8107 22.8843 41.8107C23.0293 41.8107 23.1503 41.8302 23.2469 41.8693L23.2469 41.8693ZM23.9778 41.2695V42.0673C24.0502 41.8981 24.1916 41.8135 24.4018 41.8135C24.5394 41.8135 24.6514 41.8572 24.7379 41.9446C24.8244 42.032 24.8676 42.1641 24.8676 42.3407V43.2416H24.4603V42.4048C24.4603 42.323 24.4399 42.2588 24.399 42.2123C24.3581 42.1658 24.305 42.1426 24.24 42.1426C24.2121 42.1426 24.1856 42.1468 24.1605 42.1552C24.1354 42.1636 24.1079 42.1784 24.0782 42.1998C24.0485 42.2212 24.0243 42.2575 24.0057 42.3086C23.987 42.3597 23.9778 42.4216 23.9778 42.4941V43.2416H23.5706V41.2695H23.9778H23.9778ZM25.5957 41.8274V42.0478C25.6737 41.8916 25.8067 41.8135 25.9945 41.8135C26.1935 41.8135 26.3255 41.9027 26.3906 42.0812C26.4222 41.9976 26.4752 41.932 26.5496 41.8846C26.6239 41.8371 26.7113 41.8135 26.8118 41.8135C26.9513 41.8135 27.0615 41.8577 27.1423 41.946C27.2232 42.0343 27.2637 42.1641 27.2637 42.3351V43.2417H26.8564V42.4021C26.8564 42.3221 26.8406 42.2588 26.809 42.2124C26.7774 42.1659 26.7319 42.1427 26.6723 42.1427C26.6091 42.1427 26.5528 42.1682 26.5035 42.2194C26.4542 42.2705 26.4296 42.3621 26.4296 42.4941V43.2417H26.0224V42.4021C26.0224 42.3221 26.0066 42.2588 25.975 42.2124C25.9433 42.1659 25.8978 42.1427 25.8383 42.1427C25.7751 42.1427 25.7188 42.1682 25.6695 42.2194C25.6202 42.2705 25.5956 42.3621 25.5956 42.4941V43.2417H25.1884V41.8274H25.5956L25.5957 41.8274ZM28.2846 42.6615H28.1535C28.0847 42.6615 28.0317 42.6763 27.9945 42.7061C27.9573 42.7358 27.9387 42.7739 27.9387 42.8204C27.9387 42.9153 27.9936 42.9627 28.1033 42.9627C28.161 42.9627 28.2056 42.945 28.2372 42.9097C28.2688 42.8744 28.2846 42.826 28.2846 42.7647V42.6615V42.6615ZM27.6235 42.2626V41.8971C27.7351 41.834 27.896 41.8023 28.1061 41.8023C28.3069 41.8023 28.4566 41.8455 28.5552 41.932C28.6537 42.0185 28.703 42.1529 28.703 42.3351V43.2416H28.3041V43.0687C28.2446 43.1895 28.1275 43.25 27.9527 43.25C27.815 43.25 27.7077 43.211 27.6305 43.1329C27.5533 43.0548 27.5148 42.9571 27.5148 42.84C27.5148 42.7042 27.5645 42.5987 27.664 42.5234C27.7635 42.4481 27.9108 42.4105 28.1061 42.4105H28.2846V42.3128C28.2846 42.1938 28.2056 42.1343 28.0475 42.1343C27.8951 42.1343 27.7537 42.177 27.6235 42.2626ZM29.4311 41.8274V42.0673C29.4664 41.9892 29.5208 41.9273 29.5943 41.8818C29.6677 41.8363 29.7556 41.8135 29.8579 41.8135C30.0029 41.8135 30.1164 41.8568 30.1982 41.9433C30.28 42.0297 30.3209 42.1566 30.3209 42.324V43.2417H29.9137V42.3993C29.9137 42.3156 29.8941 42.252 29.8551 42.2083C29.8161 42.1646 29.7612 42.1427 29.6905 42.1427C29.6162 42.1427 29.5543 42.172 29.5051 42.2306C29.4558 42.2892 29.4312 42.377 29.4312 42.4942V43.2418H29.0239V41.8275H29.4312L29.4311 41.8274ZM31.7826 42.8986H32.0085C32.2206 42.8986 32.3265 42.826 32.3265 42.681C32.3265 42.536 32.2215 42.4634 32.0113 42.4634H31.7826V42.8985L31.7826 42.8986ZM31.7826 41.7047V42.1259H31.9416C32.0531 42.1259 32.1373 42.1054 32.194 42.0645C32.2508 42.0236 32.2791 41.9697 32.2791 41.9027C32.2791 41.7707 32.1898 41.7047 32.0113 41.7047H31.7826H31.7826ZM31.353 41.3616H32.0838C32.2902 41.3616 32.4474 41.4104 32.5552 41.508C32.6631 41.6057 32.717 41.7298 32.717 41.8804C32.717 41.979 32.691 42.0655 32.6389 42.1399C32.5869 42.2142 32.519 42.2644 32.4353 42.2904C32.6529 42.3555 32.7617 42.5025 32.7617 42.7312C32.7617 42.8799 32.7082 43.0022 32.6012 43.098C32.4943 43.1938 32.3488 43.2416 32.1647 43.2416H31.353V41.3616H31.353ZM33.4339 41.2695V42.0673C33.5064 41.8981 33.6477 41.8135 33.8579 41.8135C33.9955 41.8135 34.1075 41.8572 34.194 41.9446C34.2805 42.032 34.3237 42.1641 34.3237 42.3407V43.2416H33.9165V42.4048C33.9165 42.323 33.896 42.2588 33.8551 42.2123C33.8142 42.1658 33.7612 42.1426 33.6961 42.1426C33.6682 42.1426 33.6417 42.1468 33.6166 42.1552C33.5915 42.1636 33.5641 42.1784 33.5343 42.1998C33.5046 42.2212 33.4804 42.2575 33.4618 42.3086C33.4432 42.3597 33.4339 42.4216 33.4339 42.4941V43.2416H33.0267V41.2695H33.4339H33.4339ZM35.3447 42.6615H35.2136C35.1448 42.6615 35.0918 42.6763 35.0546 42.7061C35.0174 42.7358 34.9988 42.7739 34.9988 42.8204C34.9988 42.9153 35.0537 42.9627 35.1633 42.9627C35.221 42.9627 35.2656 42.945 35.2972 42.9097C35.3288 42.8744 35.3447 42.826 35.3447 42.7647V42.6615V42.6615ZM34.6836 42.2626V41.8971C34.7951 41.834 34.956 41.8023 35.1661 41.8023C35.367 41.8023 35.5166 41.8455 35.6152 41.932C35.7138 42.0185 35.763 42.1529 35.763 42.3351V43.2416H35.3642V43.0687C35.3047 43.1895 35.1875 43.25 35.0127 43.25C34.8751 43.25 34.7677 43.211 34.6905 43.1329C34.6134 43.0548 34.5748 42.9571 34.5748 42.84C34.5748 42.7042 34.6246 42.5987 34.724 42.5234C34.8235 42.4481 34.9709 42.4105 35.1661 42.4105H35.3447V42.3128C35.3447 42.1938 35.2656 42.1343 35.1076 42.1343C34.9551 42.1343 34.8137 42.177 34.6836 42.2626ZM36.4883 41.8274V42.0897C36.5144 42.0078 36.5576 41.9423 36.6181 41.893C36.6785 41.8437 36.7487 41.8191 36.8287 41.8191C36.8733 41.8191 36.9086 41.8229 36.9346 41.8303V42.2152C36.89 42.1948 36.8388 42.1846 36.7812 42.1846C36.6938 42.1846 36.6232 42.2166 36.5692 42.2808C36.5153 42.3449 36.4883 42.43 36.4883 42.5361V43.2418H36.0811L36.0839 41.8275H36.4883V41.8274ZM37.8161 42.6615H37.685C37.6162 42.6615 37.5632 42.6764 37.526 42.7061C37.4888 42.7358 37.4702 42.774 37.4702 42.8205C37.4702 42.9153 37.5251 42.9627 37.6348 42.9627C37.6924 42.9627 37.737 42.9451 37.7687 42.9098C37.8002 42.8744 37.8161 42.826 37.8161 42.7647V42.6616V42.6615ZM37.155 42.2626V41.8972C37.2666 41.834 37.4274 41.8023 37.6376 41.8023C37.8384 41.8023 37.9881 41.8456 38.0866 41.9321C38.1852 42.0185 38.2344 42.1529 38.2344 42.3351V43.2417H37.8356V43.0688C37.7761 43.1896 37.6589 43.2501 37.4841 43.2501C37.3465 43.2501 37.2392 43.211 37.162 43.1329C37.0848 43.0548 37.0462 42.9572 37.0462 42.84C37.0462 42.7043 37.096 42.5988 37.1955 42.5234C37.2949 42.4481 37.4423 42.4105 37.6376 42.4105H37.8161V42.3128C37.8161 42.1938 37.737 42.1343 37.579 42.1343C37.4265 42.1343 37.2852 42.1771 37.155 42.2626ZM39.0267 42.1259V42.7759C39.0267 42.826 39.0411 42.8642 39.0699 42.8902C39.0987 42.9162 39.1364 42.9293 39.1829 42.9293C39.2573 42.9293 39.3233 42.9106 39.3809 42.8734V43.211C39.3121 43.2407 39.2191 43.2556 39.102 43.2556C38.7803 43.2556 38.6194 43.0947 38.6194 42.7731V42.1259H38.4158V41.8274H38.6194V41.4927H39.0267V41.8274H39.3558V42.1259H39.0267Z" fill="white"/>
<path id="Vector_10" d="M12.7644 47.2292H13.1221C13.4389 47.2292 13.6833 47.1305 13.8554 46.9329C14.0274 46.7353 14.1135 46.4559 14.1135 46.0948C14.1135 45.7881 14.0266 45.542 13.8528 45.3563C13.6791 45.1707 13.4338 45.0779 13.117 45.0779H12.7644V47.2292ZM11.957 44.4289H13.1426C13.6604 44.4289 14.0845 44.5881 14.415 44.9067C14.7454 45.2252 14.9107 45.6212 14.9107 46.0948C14.9107 46.6467 14.748 47.081 14.4227 47.3979C14.0973 47.7147 13.6672 47.8731 13.1323 47.8731H11.957V44.4289V44.4289ZM15.4473 47.8731V45.2823H16.1933V47.8731H15.4473ZM15.5136 44.8377C15.4285 44.7525 15.3859 44.6503 15.3859 44.5311C15.3859 44.4118 15.4285 44.3096 15.5136 44.2244C15.5988 44.1392 15.701 44.0967 15.8203 44.0967C15.9395 44.0967 16.0418 44.1392 16.1269 44.2244C16.2121 44.3096 16.2547 44.4118 16.2547 44.5311C16.2547 44.6503 16.2121 44.7525 16.1269 44.8377C16.0418 44.9229 15.9396 44.9654 15.8203 44.9654C15.7011 44.9654 15.5988 44.9229 15.5136 44.8377ZM17.9819 47.1935C18.142 47.1935 18.2672 47.133 18.3575 47.0121C18.4478 46.8911 18.4929 46.7454 18.4929 46.5752C18.4929 46.1118 18.3243 45.8802 17.987 45.8802C17.8371 45.8802 17.7196 45.9381 17.6344 46.054C17.5492 46.1697 17.5067 46.3299 17.5067 46.5343C17.5067 46.7489 17.5476 46.9124 17.6293 47.0248C17.7111 47.1372 17.8286 47.1935 17.9819 47.1935ZM18.4929 45.2823H19.2339V47.6227C19.2339 48.0383 19.1095 48.3509 18.8608 48.5604C18.6122 48.7699 18.3004 48.8747 17.9257 48.8747C17.5612 48.8747 17.2426 48.81 16.9701 48.6805V47.9191C17.2086 48.1099 17.5016 48.2053 17.849 48.2053C18.0739 48.2053 18.2374 48.1576 18.3396 48.0622C18.4418 47.9668 18.4929 47.8169 18.4929 47.6125V47.4387C18.3431 47.6704 18.1045 47.7863 17.7775 47.7863C17.4913 47.7863 17.2452 47.6806 17.0391 47.4694C16.8329 47.2582 16.7299 46.9448 16.7299 46.5292C16.7299 46.1612 16.8296 45.8572 17.0289 45.617C17.2282 45.3768 17.4897 45.2567 17.8133 45.2567C18.1199 45.2567 18.3464 45.3794 18.4929 45.6247V45.2823ZM19.8471 47.8731V45.2823H20.5932V47.8731H19.8471ZM19.9135 44.8377C19.8284 44.7525 19.7858 44.6503 19.7858 44.5311C19.7858 44.4118 19.8284 44.3096 19.9135 44.2244C19.9987 44.1392 20.1009 44.0967 20.2202 44.0967C20.3394 44.0967 20.4416 44.1392 20.5268 44.2244C20.612 44.3096 20.6546 44.4118 20.6546 44.5311C20.6546 44.6503 20.612 44.7525 20.5268 44.8377C20.4416 44.9229 20.3395 44.9654 20.2202 44.9654C20.1009 44.9654 19.9987 44.9229 19.9135 44.8377ZM22.0956 45.8291V47.0197C22.0956 47.1117 22.122 47.1816 22.1748 47.2292C22.2276 47.277 22.2966 47.3008 22.3817 47.3008C22.518 47.3008 22.639 47.2667 22.7446 47.1986V47.8169C22.6185 47.8714 22.4482 47.8986 22.2336 47.8986C21.6441 47.8986 21.3494 47.6039 21.3494 47.0146V45.829H20.9764V45.2822H21.3494V44.669H22.0955V45.2822H22.6985V45.829H22.0955L22.0956 45.8291ZM24.4872 46.8102H24.247C24.1209 46.8102 24.0238 46.8375 23.9557 46.892C23.8876 46.9465 23.8535 47.0163 23.8535 47.1015C23.8535 47.2753 23.954 47.3621 24.155 47.3621C24.2606 47.3621 24.3423 47.3298 24.4002 47.265C24.4582 47.2003 24.4872 47.1117 24.4872 46.9993V46.8102ZM23.276 46.0795V45.41C23.4804 45.2942 23.7751 45.2363 24.1601 45.2363C24.528 45.2363 24.8022 45.3155 24.9828 45.4739C25.1634 45.6323 25.2536 45.8784 25.2536 46.2123V47.8731H24.5229V47.5563C24.4139 47.7778 24.1993 47.8885 23.879 47.8885C23.627 47.8885 23.4302 47.8169 23.2888 47.6738C23.1474 47.5307 23.0767 47.3519 23.0767 47.1372C23.0767 46.8886 23.1679 46.6952 23.3501 46.5572C23.5324 46.4193 23.8023 46.3503 24.16 46.3503H24.4871V46.1714C24.4871 45.9533 24.3423 45.8443 24.0528 45.8443C23.7734 45.8443 23.5145 45.9227 23.276 46.0794V46.0795ZM25.8669 47.8731V44.2602H26.613V47.8731H25.8669ZM28.4782 47.8731L28.7745 44.4289H29.6382L30.1185 45.6758C30.2003 45.8836 30.2701 46.0743 30.3281 46.2481C30.386 46.4219 30.4235 46.5445 30.4405 46.616L30.466 46.7183C30.5205 46.4934 30.6398 46.1459 30.8237 45.6758L31.3092 44.4289H32.1727L32.5305 47.8731H31.7435L31.6157 46.5393L31.5493 45.5326C31.4607 45.7881 31.3381 46.1237 31.1814 46.5393L30.6959 47.8373H30.2309L29.7505 46.5393C29.6722 46.3281 29.6058 46.1391 29.5512 45.9721C29.4967 45.8052 29.461 45.6894 29.4439 45.6246L29.4184 45.5326C29.4184 45.7745 29.4031 46.1101 29.3724 46.5393L29.2651 47.8731H28.4782ZM33.1182 47.8731V45.2823H33.8643V47.8731H33.1182ZM33.1846 44.8377C33.0994 44.7525 33.0568 44.6503 33.0568 44.5311C33.0568 44.4118 33.0994 44.3096 33.1846 44.2244C33.2698 44.1392 33.372 44.0967 33.4912 44.0967C33.6105 44.0967 33.7127 44.1392 33.7979 44.2244C33.883 44.3096 33.9256 44.4118 33.9256 44.5311C33.9256 44.6503 33.883 44.7525 33.7979 44.8377C33.7127 44.9229 33.6105 44.9654 33.4912 44.9654C33.372 44.9654 33.2698 44.9229 33.1846 44.8377ZM36.1383 45.3589V45.9976C35.9577 45.8921 35.7465 45.8392 35.5046 45.8392C35.416 45.8392 35.3479 45.8572 35.3002 45.8929C35.2525 45.9287 35.2287 45.9738 35.2287 46.0284C35.2287 46.059 35.2372 46.088 35.2542 46.1152C35.2712 46.1425 35.2993 46.1681 35.3385 46.1919C35.3777 46.2157 35.4152 46.237 35.451 46.2557C35.4867 46.2745 35.5361 46.2975 35.5991 46.3247C35.6621 46.352 35.7124 46.3758 35.7498 46.3962C35.9066 46.478 36.0326 46.5726 36.128 46.6799C36.2234 46.7871 36.2711 46.9243 36.2711 47.0912C36.2711 47.3467 36.1791 47.5443 35.9952 47.684C35.8112 47.8237 35.5676 47.8935 35.2644 47.8935C34.951 47.8935 34.6887 47.8407 34.4775 47.7351V47.0708C34.7125 47.2343 34.9612 47.3161 35.2236 47.3161C35.4109 47.3161 35.5046 47.2564 35.5046 47.1372C35.5046 47.1065 35.4961 47.0776 35.4791 47.0503C35.462 47.0231 35.4331 46.9975 35.3922 46.9737C35.3513 46.9499 35.3139 46.9302 35.2798 46.9149C35.2457 46.8995 35.1963 46.8783 35.1316 46.851C35.0669 46.8238 35.0175 46.8016 34.9834 46.7846C34.6393 46.6211 34.4673 46.3758 34.4673 46.0488C34.4673 45.7967 34.5636 45.6008 34.7561 45.4611C34.9485 45.3214 35.1879 45.2515 35.474 45.2515C35.7398 45.2515 35.9612 45.2873 36.1384 45.3589L36.1383 45.3589ZM38.3663 45.3589V45.9976C38.1857 45.8921 37.9746 45.8392 37.7326 45.8392C37.6441 45.8392 37.5759 45.8572 37.5282 45.8929C37.4805 45.9287 37.4567 45.9738 37.4567 46.0284C37.4567 46.059 37.4652 46.088 37.4822 46.1152C37.4993 46.1425 37.5273 46.1681 37.5665 46.1919C37.6057 46.2157 37.6432 46.237 37.679 46.2557C37.7147 46.2745 37.7641 46.2975 37.8271 46.3247C37.8901 46.352 37.9404 46.3758 37.9779 46.3962C38.1346 46.478 38.2606 46.5726 38.356 46.6799C38.4514 46.7871 38.4991 46.9243 38.4991 47.0912C38.4991 47.3467 38.4071 47.5443 38.2232 47.684C38.0392 47.8237 37.7956 47.8935 37.4924 47.8935C37.1791 47.8935 36.9167 47.8407 36.7055 47.7351V47.0708C36.9405 47.2343 37.1892 47.3161 37.4516 47.3161C37.6389 47.3161 37.7326 47.2564 37.7326 47.1372C37.7326 47.1065 37.7241 47.0776 37.7071 47.0503C37.69 47.0231 37.6611 46.9975 37.6202 46.9737C37.5793 46.9499 37.5419 46.9302 37.5078 46.9149C37.4737 46.8995 37.4243 46.8783 37.3596 46.851C37.2949 46.8238 37.2455 46.8016 37.2114 46.7846C36.8673 46.6211 36.6953 46.3758 36.6953 46.0488C36.6953 45.7967 36.7916 45.6008 36.9841 45.4611C37.1765 45.3214 37.4159 45.2515 37.7021 45.2515C37.9678 45.2515 38.1892 45.2873 38.3664 45.3589L38.3663 45.3589ZM38.9846 47.8731V45.2823H39.7307V47.8731H38.9846ZM39.051 44.8377C38.9659 44.7525 38.9233 44.6503 38.9233 44.5311C38.9233 44.4118 38.9659 44.3096 39.051 44.2244C39.1362 44.1392 39.2384 44.0967 39.3577 44.0967C39.4769 44.0967 39.5791 44.1392 39.6643 44.2244C39.7495 44.3096 39.7921 44.4118 39.7921 44.5311C39.7921 44.6503 39.7495 44.7525 39.6643 44.8377C39.5791 44.9229 39.477 44.9654 39.3577 44.9654C39.2384 44.9654 39.1362 44.9229 39.051 44.8377ZM41.5141 47.914C41.1088 47.914 40.7953 47.7922 40.5739 47.5486C40.3524 47.3051 40.2417 46.9925 40.2417 46.6109C40.2417 46.2124 40.3575 45.8845 40.5892 45.6272C40.8209 45.37 41.1292 45.2414 41.5142 45.2414C41.9162 45.2414 42.2279 45.3658 42.4493 45.6144C42.6708 45.8631 42.7815 46.18 42.7815 46.5649C42.7815 46.9567 42.6699 47.2795 42.4468 47.5333C42.2236 47.7871 41.9128 47.914 41.5142 47.914H41.5141ZM41.509 45.8291C41.3455 45.8291 41.2229 45.8989 41.1411 46.0386C41.0594 46.1783 41.0185 46.3588 41.0185 46.5803C41.0185 46.8017 41.0602 46.9831 41.1437 47.1245C41.2271 47.2659 41.3523 47.3366 41.5192 47.3366C41.6828 47.3366 41.8046 47.2676 41.8847 47.1296C41.9647 46.9916 42.0047 46.812 42.0047 46.5905C42.0047 46.0829 41.8395 45.8291 41.509 45.8291V45.8291ZM44.013 45.2823V45.7217C44.0777 45.5786 44.1773 45.4653 44.3119 45.3819C44.4465 45.2984 44.6075 45.2567 44.7948 45.2567C45.0606 45.2567 45.2684 45.3359 45.4183 45.4943C45.5682 45.6527 45.6432 45.8852 45.6432 46.1918V47.8731H44.8971V46.3298C44.8971 46.1765 44.8613 46.0598 44.7898 45.9798C44.7182 45.8997 44.6177 45.8597 44.4883 45.8597C44.352 45.8597 44.2387 45.9134 44.1484 46.0207C44.0581 46.128 44.013 46.289 44.013 46.5036V47.8731H43.2669V45.2823H44.013Z" fill="#FF6245"/>
<path id="Vector_11" d="M6.78123 52.6448V52.6394C6.78123 52.5136 6.74975 52.4151 6.6873 52.3442C6.62484 52.2732 6.53857 52.217 6.42981 52.1757C6.46349 52.1577 6.49536 52.1361 6.52462 52.111C6.55428 52.0858 6.57991 52.0566 6.60235 52.0234C6.62479 51.9901 6.64232 51.9528 6.65582 51.9115C6.66932 51.8701 6.6761 51.8225 6.6761 51.7685V51.7631C6.6761 51.614 6.62081 51.4954 6.51073 51.4073C6.4002 51.3192 6.24828 51.2752 6.05462 51.2752H5.17969V53.1625H6.07618C6.18175 53.1625 6.27838 53.1517 6.36553 53.1301C6.4523 53.1085 6.52688 53.0762 6.5889 53.033C6.65047 52.9899 6.6981 52.936 6.73139 52.8713C6.76463 52.8066 6.78128 52.7311 6.78128 52.6448H6.78123ZM6.26625 51.8387C6.26625 51.9088 6.23934 51.9596 6.18538 51.991C6.13147 52.0224 6.05865 52.0382 5.96698 52.0382H5.58409V51.6392H5.99394C6.08202 51.6392 6.14939 51.6558 6.19613 51.6891C6.24288 51.7223 6.2662 51.7704 6.2662 51.8333V51.8387H6.26625ZM6.37138 52.5936C6.37138 52.6637 6.34535 52.7154 6.29321 52.7486C6.24106 52.7819 6.16918 52.7985 6.07751 52.7985H5.58409V52.3833H6.064C6.17183 52.3833 6.25 52.4018 6.29856 52.4386C6.34712 52.4754 6.37133 52.5253 6.37133 52.5882V52.5936H6.37138ZM8.39627 53.1625V51.7174H7.98642V52.5217C7.98642 52.6183 7.96354 52.6916 7.91768 52.7405C7.87187 52.79 7.80941 52.8147 7.73036 52.8147C7.65125 52.8147 7.59012 52.79 7.54696 52.7405C7.50385 52.6916 7.4823 52.6183 7.4823 52.5217V51.7174H7.07245V52.6529C7.07245 52.8201 7.11517 52.9513 7.20055 53.0465C7.28594 53.1418 7.40678 53.1895 7.56317 53.1895C7.61531 53.1895 7.66206 53.1831 7.7034 53.1706C7.74474 53.1575 7.78245 53.1405 7.81663 53.1189C7.85075 53.0969 7.88174 53.0721 7.90967 53.0443C7.93751 53.016 7.96315 52.9867 7.98647 52.9557V53.1625H8.39632L8.39627 53.1625ZM9.20237 51.5583V51.1943H8.77096V51.5583H9.20237ZM9.19161 53.1625V51.7174H8.78176V53.1625H9.19161ZM10.0059 53.1625V51.1943H9.59601V53.1625H10.0059ZM11.8446 53.1625V51.1943H11.4348V51.9043C11.3863 51.8472 11.3265 51.7974 11.2555 51.7547C11.1845 51.712 11.0942 51.6905 10.9845 51.6905C10.8983 51.6905 10.8156 51.7067 10.7365 51.739C10.6574 51.7713 10.5878 51.8194 10.5276 51.8832C10.4673 51.947 10.4188 52.0252 10.382 52.1178C10.3452 52.2103 10.3267 52.3168 10.3267 52.4372V52.4426C10.3267 52.5631 10.3452 52.6696 10.382 52.7621C10.4188 52.8547 10.4678 52.9329 10.5289 52.9967C10.59 53.0605 10.6601 53.1085 10.7392 53.1409C10.8183 53.1733 10.9001 53.1895 10.9845 53.1895C11.0924 53.1895 11.1818 53.1675 11.2528 53.1239C11.3238 53.0803 11.3845 53.0245 11.4348 52.9567V53.1625H11.8446ZM11.4402 52.4426C11.4402 52.5024 11.4308 52.5572 11.4119 52.6067C11.393 52.6566 11.3679 52.6992 11.3364 52.7343C11.305 52.7698 11.2682 52.7968 11.2259 52.8161C11.1837 52.835 11.1383 52.8444 11.0897 52.8444C11.0412 52.8444 10.9958 52.8349 10.9536 52.8161C10.9113 52.7968 10.874 52.7698 10.8417 52.7343C10.8094 52.6992 10.7837 52.6566 10.7649 52.6067C10.746 52.5572 10.7365 52.5024 10.7365 52.4426V52.4372C10.7365 52.3757 10.746 52.3204 10.7649 52.2719C10.7837 52.2229 10.8094 52.1807 10.8417 52.1456C10.874 52.1101 10.9113 52.0832 10.9536 52.0638C10.9958 52.0449 11.0412 52.0355 11.0897 52.0355C11.1383 52.0355 11.1837 52.045 11.2259 52.0638C11.2682 52.0832 11.305 52.1101 11.3364 52.1456C11.3679 52.1807 11.3931 52.2234 11.4119 52.2732C11.4308 52.3227 11.4402 52.3775 11.4402 52.4372V52.4426ZM12.6508 51.5583V51.1944H12.2194V51.5583H12.6508ZM12.64 53.1626V51.7174H12.2302V53.1626H12.64ZM14.3494 53.1626V52.227C14.3494 52.0598 14.3067 51.9286 14.2213 51.8334C14.1359 51.7381 14.0151 51.6905 13.8587 51.6905C13.8066 51.6905 13.7598 51.6967 13.7185 51.7094C13.6771 51.7224 13.6394 51.7395 13.6052 51.7611C13.5711 51.7831 13.5401 51.8078 13.5122 51.8356C13.4843 51.8639 13.4587 51.8931 13.4354 51.9242V51.7175H13.0255V53.1626H13.4354V52.3583C13.4354 52.2617 13.4583 52.1884 13.5041 52.1394C13.5499 52.09 13.6124 52.0653 13.6915 52.0653C13.7706 52.0653 13.8317 52.09 13.8749 52.1394C13.918 52.1884 13.9395 52.2617 13.9395 52.3583V53.1626H14.3494L14.3494 53.1626ZM16.1585 52.8363V51.7174H15.7487V51.9061C15.693 51.845 15.6292 51.7938 15.5573 51.7525C15.4854 51.7111 15.3938 51.6905 15.2823 51.6905C15.1996 51.6905 15.1196 51.7053 15.0423 51.7349C14.965 51.7646 14.8968 51.8082 14.8374 51.8657C14.7781 51.9232 14.7305 51.9938 14.6945 52.0774C14.6586 52.1609 14.6406 52.2567 14.6406 52.3645V52.3699C14.6406 52.4777 14.6581 52.5735 14.6932 52.6571C14.7282 52.7406 14.7754 52.8112 14.8347 52.8687C14.8941 52.9262 14.9623 52.9698 15.0396 52.9995C15.1169 53.0292 15.1978 53.044 15.2823 53.044C15.3919 53.044 15.4827 53.0234 15.5546 52.982C15.6265 52.9407 15.693 52.8831 15.7541 52.8094V52.8795C15.7541 53.0089 15.7204 53.1069 15.653 53.1734C15.5856 53.2399 15.4817 53.2732 15.3416 53.2732C15.2445 53.2732 15.1578 53.2615 15.0814 53.2381C15.005 53.2148 14.9291 53.1824 14.8536 53.1411L14.7134 53.4484C14.805 53.497 14.9048 53.5343 15.0127 53.5603C15.1205 53.5864 15.2338 53.5994 15.3524 53.5994C15.4872 53.5994 15.6049 53.585 15.7055 53.5563C15.8063 53.5275 15.8903 53.4826 15.9577 53.4215C16.025 53.3603 16.0754 53.2817 16.1086 53.1855C16.1419 53.0894 16.1585 52.973 16.1585 52.8364V52.8363ZM15.7541 52.3699C15.7541 52.4184 15.7451 52.4634 15.7271 52.5047C15.7092 52.546 15.6845 52.5815 15.653 52.6112C15.6216 52.6408 15.5843 52.6637 15.5412 52.6799C15.498 52.6961 15.4513 52.7041 15.4009 52.7041C15.3003 52.7041 15.2166 52.6736 15.1502 52.6125C15.0837 52.5513 15.0504 52.4704 15.0504 52.3698V52.3644C15.0504 52.3159 15.0594 52.2709 15.0773 52.2296C15.0954 52.1882 15.1201 52.1527 15.1515 52.1231C15.1829 52.0935 15.2198 52.0706 15.262 52.0544C15.3042 52.0382 15.3505 52.0301 15.4009 52.0301C15.4512 52.0301 15.4979 52.0382 15.5411 52.0544C15.5843 52.0706 15.6215 52.0935 15.653 52.1231C15.6844 52.1527 15.7092 52.1882 15.7271 52.2296C15.7451 52.2709 15.7541 52.3159 15.7541 52.3644V52.3698L15.7541 52.3699ZM19.1163 52.2189V52.2135C19.1163 52.0805 19.092 51.9569 19.0435 51.8428C18.9949 51.7287 18.9262 51.6293 18.8372 51.5448C18.7482 51.4604 18.6422 51.3943 18.5191 51.3467C18.396 51.299 18.2607 51.2753 18.1133 51.2753H17.3773V53.1626H18.1133C18.2607 53.1626 18.396 53.1383 18.5191 53.0898C18.6422 53.0412 18.7482 52.9747 18.8372 52.8902C18.9262 52.8058 18.9949 52.706 19.0435 52.591C19.092 52.4759 19.1163 52.352 19.1163 52.2189ZM18.6822 52.2243C18.6822 52.3088 18.6682 52.3852 18.6404 52.4534C18.6125 52.5217 18.5739 52.5811 18.5245 52.6314C18.475 52.6818 18.4153 52.7204 18.3451 52.7474C18.2751 52.7743 18.1978 52.7878 18.1133 52.7878H17.7925V51.65H18.1133C18.1978 51.65 18.2751 51.664 18.3451 51.6918C18.4153 51.7197 18.475 51.7588 18.5245 51.8091C18.5739 51.8594 18.6125 51.9196 18.6404 51.9897C18.6682 52.0598 18.6822 52.1362 18.6822 52.2189V52.2243ZM19.882 51.5583V51.1944H19.4506V51.5583H19.882ZM19.8712 53.1626V51.7174H19.4614V53.1626H19.8712ZM21.71 52.8363V51.7174H21.3002V51.9061C21.2444 51.845 21.1806 51.7938 21.1088 51.7525C21.0369 51.7111 20.9452 51.6905 20.8337 51.6905C20.7511 51.6905 20.6711 51.7053 20.5938 51.7349C20.5165 51.7646 20.4482 51.8082 20.3889 51.8657C20.3296 51.9232 20.2819 51.9938 20.2459 52.0774C20.21 52.1609 20.192 52.2567 20.192 52.3645V52.3699C20.192 52.4777 20.2096 52.5735 20.2446 52.6571C20.2797 52.7406 20.3269 52.8112 20.3862 52.8687C20.4455 52.9262 20.5138 52.9698 20.5911 52.9995C20.6684 53.0292 20.7493 53.044 20.8337 53.044C20.9434 53.044 21.0342 53.0234 21.1061 52.982C21.1779 52.9407 21.2445 52.8831 21.3056 52.8094V52.8795C21.3056 53.0089 21.2719 53.1069 21.2044 53.1734C21.137 53.2399 21.0332 53.2732 20.8931 53.2732C20.796 53.2732 20.7092 53.2615 20.6329 53.2381C20.5565 53.2148 20.4805 53.1824 20.405 53.1411L20.2648 53.4484C20.3565 53.497 20.4562 53.5343 20.5641 53.5603C20.6719 53.5864 20.7852 53.5994 20.9039 53.5994C21.0386 53.5994 21.1564 53.585 21.257 53.5563C21.3577 53.5275 21.4417 53.4826 21.5091 53.4215C21.5765 53.3603 21.6268 53.2817 21.6601 53.1855C21.6933 53.0894 21.71 52.973 21.71 52.8364V52.8363ZM21.3056 52.3699C21.3056 52.4184 21.2966 52.4634 21.2786 52.5047C21.2606 52.546 21.2359 52.5815 21.2045 52.6112C21.173 52.6408 21.1358 52.6637 21.0926 52.6799C21.0494 52.6961 21.0027 52.7041 20.9524 52.7041C20.8517 52.7041 20.7681 52.6736 20.7016 52.6125C20.6351 52.5513 20.6018 52.4704 20.6018 52.3698V52.3644C20.6018 52.3159 20.6109 52.2709 20.6288 52.2296C20.6468 52.1882 20.6715 52.1527 20.7029 52.1231C20.7344 52.0935 20.7712 52.0706 20.8135 52.0544C20.8557 52.0382 20.902 52.0301 20.9523 52.0301C21.0026 52.0301 21.0494 52.0382 21.0926 52.0544C21.1357 52.0706 21.173 52.0935 21.2044 52.1231C21.2359 52.1527 21.2606 52.1882 21.2785 52.2296C21.2966 52.2709 21.3055 52.3159 21.3055 52.3644V52.3698L21.3056 52.3699ZM22.5161 51.5583V51.1944H22.0847V51.5583H22.5161ZM22.5054 53.1626V51.7174H22.0955V53.1626H22.5054ZM23.7025 53.1032V52.7743C23.6396 52.8084 23.5722 52.8255 23.5003 52.8255C23.4122 52.8255 23.3682 52.7788 23.3682 52.6853V52.0679H23.7079V51.7174H23.3682V51.348H22.9584V51.7174H22.7858V52.0679H22.9584V52.7527C22.9584 52.8372 22.9687 52.9068 22.9893 52.9616C23.01 53.0165 23.0388 53.061 23.0756 53.0951C23.1125 53.1293 23.1565 53.1531 23.2077 53.1665C23.259 53.18 23.316 53.1868 23.379 53.1868C23.4473 53.1868 23.5075 53.1792 23.5596 53.1639C23.6117 53.1486 23.6594 53.1284 23.7025 53.1032H23.7025ZM25.2528 53.1626V52.324C25.2528 52.1281 25.2015 51.9753 25.0991 51.8657C24.9967 51.7561 24.833 51.7012 24.6084 51.7012C24.4862 51.7012 24.382 51.712 24.2957 51.7336C24.2094 51.7551 24.1267 51.783 24.0476 51.8171L24.1501 52.1299C24.2166 52.1047 24.28 52.0854 24.3402 52.0719C24.4004 52.0584 24.47 52.0516 24.5491 52.0516C24.6516 52.0516 24.7289 52.0741 24.781 52.119C24.8331 52.164 24.8592 52.2295 24.8592 52.3159V52.3401C24.807 52.3221 24.7536 52.3078 24.6988 52.297C24.6439 52.2862 24.5797 52.2808 24.506 52.2808C24.4197 52.2808 24.341 52.2902 24.2701 52.309C24.1991 52.3279 24.138 52.3562 24.0867 52.394C24.0355 52.4317 23.9955 52.4794 23.9667 52.5369C23.938 52.5944 23.9236 52.6627 23.9236 52.7418V52.7472C23.9236 52.8191 23.9367 52.8825 23.9627 52.9373C23.9887 52.9921 24.0243 53.0384 24.0692 53.0761C24.1141 53.1139 24.1667 53.1422 24.2269 53.1611C24.2871 53.1799 24.3514 53.1894 24.4197 53.1894C24.5203 53.1894 24.6057 53.1727 24.6758 53.1395C24.7459 53.1062 24.8061 53.0618 24.8565 53.006V53.1624H25.2528V53.1626ZM24.8645 52.653C24.8645 52.7285 24.8353 52.7896 24.7769 52.8363C24.7184 52.8831 24.6407 52.9064 24.5437 52.9064C24.4772 52.9064 24.4232 52.8911 24.3819 52.8606C24.3406 52.83 24.3199 52.7869 24.3199 52.7312V52.7258C24.3199 52.661 24.3451 52.6116 24.3954 52.5775C24.4457 52.5433 24.5149 52.5263 24.603 52.5263C24.6533 52.5263 24.7005 52.5312 24.7446 52.5411C24.7886 52.551 24.8286 52.564 24.8646 52.5802V52.653H24.8645ZM26.0347 53.1626V51.1944H25.6249V53.1626H26.0347ZM28.8684 53.1626V51.2753H28.4531V52.0221H27.6875V51.2753H27.2723V53.1626H27.6875V52.4049H28.4531V53.1626H28.8684ZM30.6263 52.4804V52.475C30.6263 52.3726 30.6123 52.2742 30.5845 52.1798C30.5566 52.0854 30.5135 52.0019 30.4551 51.929C30.3966 51.8563 30.3234 51.7983 30.2353 51.7552C30.1472 51.712 30.043 51.6905 29.9226 51.6905C29.8165 51.6905 29.7199 51.7102 29.6328 51.7498C29.5455 51.7893 29.4705 51.8433 29.4076 51.9116C29.3447 51.9799 29.2957 52.0598 29.2607 52.1515C29.2256 52.2432 29.2081 52.3402 29.2081 52.4427V52.4481C29.2081 52.5595 29.227 52.6607 29.2647 52.7514C29.3024 52.8422 29.355 52.9208 29.4225 52.9874C29.4898 53.0539 29.5698 53.1051 29.6624 53.141C29.755 53.177 29.8551 53.195 29.963 53.195C30.0943 53.195 30.2084 53.1712 30.3054 53.1235C30.4025 53.0759 30.4852 53.0099 30.5535 52.9254L30.3189 52.7178C30.2614 52.7699 30.2057 52.8076 30.1518 52.831C30.0978 52.8543 30.0368 52.866 29.9684 52.866C29.8767 52.866 29.7999 52.8422 29.7379 52.7946C29.6759 52.747 29.6351 52.6764 29.6152 52.5829H30.6209C30.6227 52.5631 30.6241 52.5461 30.625 52.5317C30.6259 52.5173 30.6263 52.5002 30.6263 52.4804H30.6263ZM30.2273 52.3268H29.6098C29.626 52.2333 29.6606 52.1587 29.7136 52.103C29.7667 52.0472 29.8363 52.0194 29.9226 52.0194C30.0089 52.0194 30.0781 52.0477 30.1302 52.1043C30.1823 52.1609 30.2147 52.2351 30.2273 52.3268ZM32.1739 53.1626V52.3241C32.1739 52.1282 32.1227 51.9753 32.0203 51.8657C31.9178 51.7561 31.7542 51.7013 31.5295 51.7013C31.4073 51.7013 31.3031 51.7121 31.2168 51.7336C31.1305 51.7552 31.0479 51.7831 30.9688 51.8172L31.0712 52.1299C31.1377 52.1048 31.2011 52.0854 31.2613 52.0719C31.3215 52.0584 31.3912 52.0517 31.4703 52.0517C31.5727 52.0517 31.65 52.0741 31.7021 52.1191C31.7542 52.164 31.7803 52.2296 31.7803 52.3159V52.3401C31.7282 52.3221 31.6747 52.3078 31.6199 52.297C31.565 52.2862 31.5008 52.2808 31.4271 52.2808C31.3408 52.2808 31.2622 52.2902 31.1912 52.3091C31.1202 52.328 31.0591 52.3563 31.0078 52.394C30.9566 52.4318 30.9166 52.4794 30.8879 52.537C30.8591 52.5945 30.8447 52.6628 30.8447 52.7419V52.7473C30.8447 52.8191 30.8578 52.8825 30.8838 52.9373C30.9099 52.9921 30.9454 53.0384 30.9903 53.0762C31.0352 53.1139 31.0878 53.1422 31.148 53.1611C31.2083 53.18 31.2725 53.1894 31.3408 53.1894C31.4415 53.1894 31.5268 53.1728 31.5969 53.1395C31.667 53.1063 31.7273 53.0618 31.7776 53.006V53.1624H32.1739V53.1626ZM31.7857 52.653C31.7857 52.7285 31.7564 52.7896 31.698 52.8364C31.6396 52.8831 31.5618 52.9064 31.4648 52.9064C31.3983 52.9064 31.3444 52.8912 31.303 52.8606C31.2617 52.8301 31.2411 52.7869 31.2411 52.7312V52.7258C31.2411 52.6611 31.2662 52.6117 31.3165 52.5775C31.3669 52.5434 31.436 52.5263 31.5241 52.5263C31.5745 52.5263 31.6217 52.5312 31.6657 52.5411C31.7097 52.5511 31.7498 52.564 31.7857 52.5802V52.653H31.7857ZM32.9558 53.1626V51.1944H32.546V53.1626H32.9558ZM34.1529 53.1033V52.7743C34.09 52.8085 34.0226 52.8256 33.9507 52.8256C33.8626 52.8256 33.8186 52.7788 33.8186 52.6853V52.0679H34.1583V51.7175H33.8186V51.3481H33.4088V51.7175H33.2362V52.0679H33.4088V52.7528C33.4088 52.8372 33.4192 52.9068 33.4398 52.9617C33.4604 53.0165 33.4892 53.061 33.526 53.0952C33.5629 53.1293 33.607 53.1532 33.6582 53.1666C33.7094 53.1801 33.7664 53.1869 33.8294 53.1869C33.8977 53.1869 33.9579 53.1792 34.01 53.1639C34.0622 53.1487 34.1099 53.1285 34.153 53.1033H34.1529ZM35.7841 53.1626V52.227C35.7841 52.0599 35.7414 51.9286 35.656 51.8334C35.5706 51.7381 35.4498 51.6905 35.2934 51.6905C35.2413 51.6905 35.1945 51.6968 35.1532 51.7094C35.1118 51.7225 35.0741 51.7395 35.0399 51.7611C35.0058 51.7831 34.9748 51.8079 34.9469 51.8357C34.9191 51.864 34.8934 51.8932 34.8701 51.9242V51.1945H34.4603V53.1627H34.8701V52.3583C34.8701 52.2617 34.893 52.1884 34.9388 52.1395C34.9847 52.09 35.0471 52.0653 35.1262 52.0653C35.2053 52.0653 35.2664 52.09 35.3096 52.1395C35.3527 52.1884 35.3742 52.2617 35.3742 52.3583V53.1627H35.7841L35.7841 53.1626ZM38.4264 53.1626V52.7932H37.4018V52.3969H38.2915V52.0275H37.4018V51.6447H38.4129V51.2753H36.992V53.1626H38.4264ZM40.0279 52.9308L39.7879 52.6881C39.7376 52.7348 39.6868 52.7722 39.6356 52.8C39.5844 52.8278 39.5247 52.8418 39.4563 52.8418C39.4006 52.8418 39.3503 52.8314 39.3053 52.8108C39.2604 52.7901 39.2218 52.7618 39.1894 52.7259C39.1571 52.6899 39.1323 52.6477 39.1153 52.5991C39.0982 52.5506 39.0897 52.4985 39.0897 52.4427V52.4373C39.0897 52.3834 39.0982 52.3327 39.1153 52.285C39.1324 52.2374 39.1566 52.1956 39.1881 52.1597C39.2195 52.1237 39.2564 52.0954 39.2986 52.0747C39.3408 52.0541 39.388 52.0437 39.4402 52.0437C39.5139 52.0437 39.5754 52.0581 39.6249 52.0869C39.6743 52.1156 39.7224 52.1543 39.7691 52.2028L40.0199 51.9332C39.9515 51.8577 39.8725 51.7984 39.7826 51.7553C39.6927 51.7121 39.5795 51.6906 39.4429 51.6906C39.3315 51.6906 39.2294 51.7103 39.1368 51.7499C39.0443 51.7894 38.9647 51.8434 38.8982 51.9117C38.8317 51.98 38.7796 52.0599 38.7418 52.1516C38.7041 52.2433 38.6852 52.3403 38.6852 52.4428V52.4482C38.6852 52.5507 38.7041 52.6472 38.7418 52.738C38.7796 52.8288 38.8317 52.9079 38.8982 52.9753C38.9647 53.0427 39.0443 53.0962 39.1368 53.1357C39.2294 53.1753 39.3296 53.1951 39.4375 53.1951C39.5813 53.1951 39.6981 53.1704 39.7879 53.1209C39.8778 53.0715 39.9578 53.0081 40.0279 52.9309V52.9308ZM41.7885 52.4427V52.4373C41.7885 52.3331 41.7687 52.2356 41.7292 52.1448C41.6896 52.0541 41.6352 51.9749 41.566 51.9076C41.4969 51.8402 41.4146 51.7871 41.3193 51.7485C41.2241 51.7098 41.1207 51.6905 41.0093 51.6905C40.8961 51.6905 40.7918 51.7103 40.6966 51.7499C40.6013 51.7894 40.5186 51.8433 40.4485 51.9116C40.3784 51.9799 40.3236 52.0595 40.284 52.1502C40.2445 52.241 40.2247 52.3385 40.2247 52.4427V52.4481C40.2247 52.5524 40.2445 52.6499 40.284 52.7407C40.3236 52.8315 40.3779 52.9106 40.4472 52.9779C40.5164 53.0454 40.5986 53.0984 40.6939 53.137C40.7891 53.1757 40.8925 53.195 41.0039 53.195C41.1171 53.195 41.2214 53.1752 41.3166 53.1357C41.4119 53.0961 41.4946 53.0422 41.5647 52.9739C41.6347 52.9056 41.6896 52.8261 41.7292 52.7353C41.7687 52.6445 41.7885 52.547 41.7885 52.4427ZM41.3841 52.4481C41.3841 52.5021 41.3755 52.5528 41.3585 52.6005C41.3414 52.6481 41.3167 52.6899 41.2844 52.7259C41.252 52.7618 41.2129 52.7901 41.1671 52.8108C41.1212 52.8314 41.0686 52.8418 41.0093 52.8418C40.9518 52.8418 40.9001 52.831 40.8543 52.8094C40.8085 52.7879 40.7685 52.7587 40.7343 52.7218C40.7002 52.685 40.6741 52.6427 40.6562 52.5951C40.6382 52.5474 40.6292 52.4967 40.6292 52.4427V52.4373C40.6292 52.3834 40.6377 52.3327 40.6548 52.285C40.6719 52.2374 40.6966 52.1956 40.729 52.1597C40.7613 52.1237 40.8004 52.0954 40.8462 52.0747C40.8921 52.0541 40.9447 52.0437 41.0039 52.0437C41.0597 52.0437 41.1109 52.0545 41.1576 52.0761C41.2044 52.0976 41.2448 52.1269 41.279 52.1637C41.3131 52.2006 41.3392 52.2428 41.3571 52.2904C41.3751 52.3381 41.3841 52.3889 41.3841 52.4427V52.4481ZM43.1447 52.7232V52.7178C43.1447 52.6513 43.1312 52.5946 43.1042 52.5479C43.0773 52.5012 43.0431 52.4616 43.0017 52.4293C42.9604 52.3969 42.9136 52.3695 42.8615 52.347C42.8094 52.3246 42.7582 52.3053 42.7079 52.289C42.6683 52.2764 42.631 52.2639 42.596 52.2513C42.5609 52.2387 42.5299 52.2257 42.503 52.2122C42.476 52.1987 42.4544 52.1844 42.4382 52.169C42.422 52.1538 42.414 52.1362 42.414 52.1165V52.1111C42.414 52.0823 42.4266 52.0585 42.4517 52.0396C42.4769 52.0208 42.5146 52.0113 42.565 52.0113C42.6171 52.0113 42.6773 52.0235 42.7456 52.0477C42.8139 52.072 42.8841 52.1048 42.956 52.1462L43.1123 51.8631C43.0332 51.8109 42.9465 51.77 42.8521 51.7404C42.7577 51.7107 42.6647 51.6959 42.5731 51.6959C42.4994 51.6959 42.4306 51.7058 42.3668 51.7256C42.303 51.7453 42.2473 51.775 42.1997 51.8145C42.152 51.8541 42.1143 51.9022 42.0864 51.9587C42.0586 52.0154 42.0446 52.0805 42.0446 52.1542V52.1596C42.0446 52.2297 42.0577 52.2891 42.0837 52.3376C42.1098 52.3861 42.1435 52.427 42.1848 52.4603C42.2262 52.4935 42.2725 52.5205 42.3237 52.5411C42.3749 52.5618 42.4258 52.5793 42.476 52.5937C42.5156 52.6063 42.5533 52.618 42.5893 52.6288C42.6252 52.6396 42.6571 52.6508 42.685 52.6625C42.7129 52.6742 42.7349 52.688 42.751 52.7043C42.7672 52.7205 42.7753 52.7393 42.7753 52.7609V52.7663C42.7753 52.7986 42.7613 52.8247 42.7335 52.8445C42.7056 52.8643 42.662 52.8741 42.6027 52.8741C42.5344 52.8741 42.4612 52.8597 42.3829 52.831C42.3048 52.8023 42.2261 52.7591 42.1471 52.7016L41.9718 52.9712C42.0689 53.0466 42.1708 53.1019 42.2778 53.137C42.3848 53.172 42.4895 53.1896 42.5919 53.1896C42.6692 53.1896 42.7415 53.1801 42.809 53.1613C42.8764 53.1424 42.9352 53.1141 42.9856 53.0763C43.0359 53.0386 43.075 52.9905 43.1029 52.9321C43.1307 52.8737 43.1447 52.804 43.1447 52.7232ZM44.8136 51.7175H44.3876L44.0721 52.7016L43.7432 51.7175H43.3091L43.8753 53.168C43.8573 53.204 43.838 53.2287 43.8173 53.2422C43.7967 53.2557 43.7683 53.2624 43.7324 53.2624C43.7054 53.2624 43.6762 53.257 43.6448 53.2462C43.6133 53.2354 43.5841 53.2219 43.5571 53.2058L43.4196 53.5023C43.4717 53.5329 43.5265 53.5572 43.5841 53.5751C43.6416 53.5931 43.7081 53.6021 43.7836 53.6021C43.8447 53.6021 43.8986 53.5949 43.9454 53.5805C43.9921 53.5661 44.0339 53.5428 44.0707 53.5104C44.1076 53.4781 44.1413 53.4363 44.1719 53.3851C44.2024 53.3338 44.2312 53.2714 44.2581 53.1977L44.8135 51.7175L44.8136 51.7175ZM46.1158 52.7232V52.7178C46.1158 52.6513 46.1023 52.5946 46.0754 52.5479C46.0485 52.5012 46.0142 52.4616 45.9729 52.4293C45.9316 52.3969 45.8848 52.3695 45.8327 52.347C45.7806 52.3246 45.7294 52.3053 45.679 52.289C45.6395 52.2764 45.6022 52.2639 45.5671 52.2513C45.5321 52.2387 45.5011 52.2257 45.4741 52.2122C45.4472 52.1987 45.4256 52.1844 45.4094 52.169C45.3932 52.1538 45.3852 52.1362 45.3852 52.1165V52.1111C45.3852 52.0823 45.3978 52.0585 45.4229 52.0396C45.4481 52.0208 45.4858 52.0113 45.5361 52.0113C45.5883 52.0113 45.6485 52.0235 45.7168 52.0477C45.7851 52.072 45.8553 52.1048 45.9271 52.1462L46.0835 51.8631C46.0044 51.8109 45.9177 51.77 45.8233 51.7404C45.7289 51.7107 45.6359 51.6959 45.5442 51.6959C45.4705 51.6959 45.4017 51.7058 45.338 51.7256C45.2742 51.7453 45.2185 51.775 45.1708 51.8145C45.1232 51.8541 45.0854 51.9022 45.0576 51.9587C45.0298 52.0154 45.0158 52.0805 45.0158 52.1542V52.1596C45.0158 52.2297 45.0288 52.2891 45.0549 52.3376C45.0809 52.3861 45.1147 52.427 45.156 52.4603C45.1973 52.4935 45.2436 52.5205 45.2949 52.5411C45.3461 52.5618 45.3969 52.5793 45.4472 52.5937C45.4867 52.6063 45.5245 52.618 45.5604 52.6288C45.5964 52.6396 45.6283 52.6508 45.6562 52.6625C45.684 52.6742 45.7061 52.688 45.7222 52.7043C45.7384 52.7205 45.7464 52.7393 45.7464 52.7609V52.7663C45.7464 52.7986 45.7325 52.8247 45.7047 52.8445C45.6768 52.8643 45.6332 52.8741 45.5739 52.8741C45.5056 52.8741 45.4323 52.8597 45.3541 52.831C45.276 52.8023 45.1973 52.7591 45.1182 52.7016L44.9429 52.9712C45.0401 53.0466 45.142 53.1019 45.249 53.137C45.3559 53.172 45.4607 53.1896 45.5631 53.1896C45.6404 53.1896 45.7127 53.1801 45.7801 53.1613C45.8475 53.1424 45.9064 53.1141 45.9567 53.0763C46.0071 53.0386 46.0462 52.9905 46.0741 52.9321C46.1019 52.8737 46.1158 52.804 46.1158 52.7232ZM47.2213 53.1033V52.7744C47.1584 52.8085 47.0909 52.8256 47.0191 52.8256C46.931 52.8256 46.8869 52.7789 46.8869 52.6854V52.068H47.2267V51.7175H46.8869V51.3481H46.4771V51.7175H46.3045V52.068H46.4771V52.7528C46.4771 52.8373 46.4875 52.9069 46.5081 52.9617C46.5287 53.0166 46.5575 53.0611 46.5944 53.0952C46.6312 53.1294 46.6753 53.1532 46.7265 53.1666C46.7778 53.1801 46.8348 53.1869 46.8977 53.1869C46.966 53.1869 47.0263 53.1793 47.0784 53.164C47.1305 53.1487 47.1782 53.1285 47.2213 53.1033H47.2213ZM48.8767 52.4805V52.4751C48.8767 52.3726 48.8628 52.2742 48.8349 52.1798C48.8071 52.0855 48.764 52.0019 48.7055 51.9291C48.6471 51.8563 48.5738 51.7983 48.4858 51.7552C48.3977 51.7121 48.2934 51.6905 48.173 51.6905C48.067 51.6905 47.9703 51.7103 47.8832 51.7499C47.796 51.7894 47.721 51.8433 47.658 51.9116C47.5951 51.9799 47.5462 52.0599 47.5111 52.1516C47.476 52.2432 47.4585 52.3403 47.4585 52.4427V52.4481C47.4585 52.5596 47.4774 52.6607 47.5151 52.7515C47.5529 52.8423 47.6055 52.9209 47.6729 52.9874C47.7403 53.0539 47.8202 53.1051 47.9128 53.1411C48.0054 53.177 48.1056 53.195 48.2134 53.195C48.3447 53.195 48.4588 53.1712 48.5559 53.1236C48.653 53.0759 48.7356 53.0099 48.8039 52.9254L48.5694 52.7178C48.5118 52.7699 48.4562 52.8077 48.4022 52.831C48.3483 52.8544 48.2872 52.8661 48.2188 52.8661C48.1272 52.8661 48.0503 52.8423 47.9884 52.7946C47.9263 52.747 47.8855 52.6765 47.8657 52.583H48.8714C48.8732 52.5632 48.8745 52.5461 48.8754 52.5318C48.8763 52.5173 48.8768 52.5003 48.8768 52.4805H48.8767ZM48.4777 52.3268H47.8603C47.8765 52.2334 47.9111 52.1588 47.9641 52.103C48.0171 52.0473 48.0867 52.0194 48.173 52.0194C48.2593 52.0194 48.3285 52.0477 48.3806 52.1044C48.4328 52.161 48.4651 52.2351 48.4777 52.3268ZM51.3869 53.1627V52.2217C51.3869 52.0473 51.3437 51.9152 51.2574 51.8254C51.1712 51.7355 51.0516 51.6906 50.8988 51.6906C50.8 51.6906 50.7119 51.7099 50.6346 51.749C50.5573 51.7881 50.4872 51.8452 50.4243 51.9216C50.3866 51.847 50.333 51.7903 50.2639 51.7504C50.1947 51.7103 50.1124 51.6906 50.0172 51.6906C49.965 51.6906 49.9178 51.6968 49.8756 51.7095C49.8333 51.7225 49.7952 51.7396 49.761 51.7612C49.7269 51.7832 49.6959 51.8079 49.668 51.8357C49.6401 51.864 49.6145 51.8932 49.5912 51.9243V51.7176H49.1813V53.1627H49.5912V52.3584C49.5912 52.2617 49.6132 52.1885 49.6572 52.1395C49.7013 52.0901 49.7619 52.0654 49.8392 52.0654C49.9165 52.0654 49.9758 52.0901 50.0172 52.1395C50.0585 52.1885 50.0791 52.2617 50.0791 52.3584V53.1627H50.489V52.3584C50.489 52.2617 50.511 52.1885 50.555 52.1395C50.5991 52.0901 50.6597 52.0654 50.7371 52.0654C50.8143 52.0654 50.8737 52.0901 50.915 52.1395C50.9563 52.1885 50.977 52.2617 50.977 52.3584V53.1627H51.3868L51.3869 53.1627Z" fill="white"/>
</g>
</g>
<defs>
<clipPath id="clip0_612_71081">
<rect width="58.5409" height="54" fill="white"/>
</clipPath>
</defs>
</svg>
