<svg width="102" height="23" viewBox="0 0 102 23" fill="none" xmlns="http://www.w3.org/2000/svg">
<rect x="0.5" y="0.238281" width="101.019" height="22.2875" rx="6.60371" fill="url(#paint0_linear_548_179475)"/>
<path d="M13.9032 10.14L16.1853 11.39L13.9032 12.64L12.6532 14.9221L11.4032 12.64L9.11475 11.39L11.4032 10.14L12.6532 7.85156L13.9032 10.14Z" fill="white"/>
<path d="M17.0633 7.67198L18.2236 8.30659L17.0633 8.94121L16.4287 10.1079L15.7941 8.94121L14.6274 8.30659L15.7941 7.67198L16.4287 6.51172L17.0633 7.67198Z" fill="white"/>
<path d="M17.0633 13.8268L18.2236 14.4614L17.0633 15.0961L16.4287 16.2563L15.7941 15.0961L14.6274 14.4614L15.7941 13.8268L16.4287 12.6602L17.0633 13.8268Z" fill="white"/>
<path d="M31.2629 14.2603H27.8714L27.3102 15.8828H25.5169L28.579 7.35529H30.5675L33.6296 15.8828H31.8241L31.2629 14.2603ZM30.7993 12.8939L29.5672 9.33162L28.335 12.8939H30.7993ZM36.4822 7.36749V15.8828H34.7742V7.36749H36.4822ZM47.2861 10.0026C47.2861 10.4581 47.1763 10.885 46.9568 11.2836C46.7453 11.6821 46.4078 12.0033 45.9442 12.2473C45.4887 12.4913 44.9113 12.6133 44.2118 12.6133H42.7845V15.8828H41.0765V7.36749H44.2118C44.8706 7.36749 45.4318 7.48135 45.8954 7.70908C46.359 7.9368 46.7046 8.24992 46.9324 8.64844C47.1682 9.04697 47.2861 9.49835 47.2861 10.0026ZM44.1386 11.2348C44.6104 11.2348 44.9601 11.129 45.1878 10.9176C45.4155 10.698 45.5294 10.393 45.5294 10.0026C45.5294 9.17303 45.0658 8.75824 44.1386 8.75824H42.7845V11.2348H44.1386ZM51.4999 15.9926C50.8492 15.9926 50.2636 15.8503 49.7431 15.5656C49.2226 15.2728 48.8119 14.8621 48.511 14.3335C48.2182 13.8048 48.0718 13.1948 48.0718 12.5035C48.0718 11.8122 48.2222 11.2022 48.5232 10.6736C48.8322 10.1449 49.2511 9.73828 49.7797 9.45362C50.3084 9.16083 50.898 9.01443 51.5487 9.01443C52.1993 9.01443 52.789 9.16083 53.3176 9.45362C53.8463 9.73828 54.261 10.1449 54.562 10.6736C54.871 11.2022 55.0256 11.8122 55.0256 12.5035C55.0256 13.1948 54.867 13.8048 54.5498 14.3335C54.2407 14.8621 53.8178 15.2728 53.281 15.5656C52.7524 15.8503 52.1586 15.9926 51.4999 15.9926ZM51.4999 14.5043C51.8089 14.5043 52.0976 14.4311 52.366 14.2847C52.6426 14.1301 52.8622 13.9024 53.0248 13.6015C53.1875 13.3006 53.2688 12.9346 53.2688 12.5035C53.2688 11.861 53.098 11.369 52.7564 11.0274C52.423 10.6776 52.0123 10.5028 51.5243 10.5028C51.0363 10.5028 50.6256 10.6776 50.2921 11.0274C49.9668 11.369 49.8041 11.861 49.8041 12.5035C49.8041 13.146 49.9627 13.6422 50.2799 13.9919C50.6052 14.3335 51.0119 14.5043 51.4999 14.5043ZM65.6477 9.12423L63.6714 15.8828H61.8292L60.5971 11.1616L59.3649 15.8828H57.5106L55.522 9.12423H57.2544L58.4499 14.2725L59.7431 9.12423H61.5486L62.8174 14.2603L64.0129 9.12423H65.6477ZM72.8546 12.3571C72.8546 12.6011 72.8384 12.8207 72.8058 13.0159H67.865C67.9056 13.5039 68.0764 13.8861 68.3774 14.1627C68.6783 14.4392 69.0483 14.5775 69.4875 14.5775C70.1219 14.5775 70.5733 14.305 70.8417 13.7601H72.6838C72.4886 14.4107 72.1145 14.9475 71.5615 15.3704C71.0084 15.7852 70.3293 15.9926 69.5241 15.9926C68.8735 15.9926 68.2879 15.8503 67.7674 15.5656C67.255 15.2728 66.8524 14.8621 66.5596 14.3335C66.275 13.8048 66.1326 13.1948 66.1326 12.5035C66.1326 11.8041 66.275 11.19 66.5596 10.6614C66.8443 10.1327 67.2428 9.72608 67.7552 9.44142C68.2676 9.15676 68.8572 9.01443 69.5241 9.01443C70.1666 9.01443 70.74 9.1527 71.2443 9.42922C71.7567 9.70574 72.1511 10.1002 72.4276 10.6126C72.7123 11.1168 72.8546 11.6983 72.8546 12.3571ZM71.0857 11.8691C71.0775 11.43 70.9189 11.0802 70.6099 10.82C70.3008 10.5516 69.9226 10.4174 69.4753 10.4174C69.0524 10.4174 68.6946 10.5475 68.4018 10.8078C68.1171 11.0599 67.9422 11.4137 67.8772 11.8691H71.0857ZM75.8092 10.1734C76.0288 9.81554 76.3135 9.53495 76.6632 9.33162C77.021 9.1283 77.4277 9.02663 77.8831 9.02663V10.82H77.4318C76.895 10.82 76.4883 10.946 76.2118 11.1982C75.9434 11.4503 75.8092 11.8895 75.8092 12.5157V15.8828H74.1013V9.12423H75.8092V10.1734ZM85.3163 12.3571C85.3163 12.6011 85.3001 12.8207 85.2675 13.0159H80.3267C80.3674 13.5039 80.5381 13.8861 80.8391 14.1627C81.14 14.4392 81.51 14.5775 81.9492 14.5775C82.5836 14.5775 83.035 14.305 83.3034 13.7601H85.1455C84.9503 14.4107 84.5762 14.9475 84.0232 15.3704C83.4701 15.7852 82.791 15.9926 81.9858 15.9926C81.3352 15.9926 80.7496 15.8503 80.2291 15.5656C79.7167 15.2728 79.3141 14.8621 79.0213 14.3335C78.7367 13.8048 78.5943 13.1948 78.5943 12.5035C78.5943 11.8041 78.7367 11.19 79.0213 10.6614C79.306 10.1327 79.7045 9.72608 80.2169 9.44142C80.7293 9.15676 81.3189 9.01443 81.9858 9.01443C82.6283 9.01443 83.2017 9.1527 83.706 9.42922C84.2184 9.70574 84.6128 10.1002 84.8893 10.6126C85.174 11.1168 85.3163 11.6983 85.3163 12.3571ZM83.5474 11.8691C83.5392 11.43 83.3807 11.0802 83.0716 10.82C82.7625 10.5516 82.3844 10.4174 81.937 10.4174C81.5141 10.4174 81.1563 10.5475 80.8635 10.8078C80.5788 11.0599 80.4039 11.4137 80.3389 11.8691H83.5474ZM86.1238 12.4791C86.1238 11.7959 86.258 11.19 86.5264 10.6614C86.8029 10.1327 87.177 9.72608 87.6487 9.44142C88.1205 9.15676 88.645 9.01443 89.2225 9.01443C89.6617 9.01443 90.0805 9.11203 90.479 9.30722C90.8776 9.49428 91.1948 9.74641 91.4306 10.0636V6.8551H93.163V15.8828H91.4306V14.8824C91.2192 15.2159 90.9223 15.4843 90.54 15.6876C90.1578 15.8909 89.7145 15.9926 89.2103 15.9926C88.641 15.9926 88.1205 15.8462 87.6487 15.5534C87.177 15.2606 86.8029 14.8499 86.5264 14.3213C86.258 13.7845 86.1238 13.1704 86.1238 12.4791ZM91.4428 12.5035C91.4428 12.0887 91.3615 11.7349 91.1988 11.4422C91.0362 11.1412 90.8166 10.9135 90.54 10.759C90.2635 10.5963 89.9667 10.515 89.6495 10.515C89.3323 10.515 89.0395 10.5922 88.7711 10.7468C88.5027 10.9013 88.2831 11.129 88.1123 11.43C87.9497 11.7227 87.8683 12.0725 87.8683 12.4791C87.8683 12.8858 87.9497 13.2436 88.1123 13.5527C88.2831 13.8536 88.5027 14.0854 88.7711 14.2481C89.0476 14.4107 89.3404 14.4921 89.6495 14.4921C89.9667 14.4921 90.2635 14.4148 90.54 14.2603C90.8166 14.0976 91.0362 13.8699 91.1988 13.5771C91.3615 13.2762 91.4428 12.9183 91.4428 12.5035Z" fill="white"/>
<defs>
<linearGradient id="paint0_linear_548_179475" x1="12.3846" y1="0.238281" x2="70.0939" y2="55.4016" gradientUnits="userSpaceOnUse">
<stop stop-color="#A461D8"/>
<stop offset="0.415" stop-color="#B85DFF"/>
<stop offset="1" stop-color="#7700D4"/>
</linearGradient>
</defs>
</svg>
