<svg width="69" height="69" viewBox="0 0 69 69" fill="none" xmlns="http://www.w3.org/2000/svg">
<g id="AI symbol">
<path id="Vector 1" d="M56.22 50.1553C42.0259 50.1553 28.7611 55.8037 23.903 58.628C19.9951 60.5646 18.4728 57.821 18.2002 56.2072C18.2002 42.6508 12.2859 29.9821 9.32873 25.3423C7.80794 22.4374 9.9624 20.5007 11.2297 19.8955C28.4654 18.9272 39.9559 13.4402 43.5467 10.8177C48.1091 9.3652 49.6721 12.2298 49.8833 13.8436C50.3903 26.9158 56.4312 40.2704 59.3883 45.3137C60.9091 48.7028 57.9098 49.9535 56.22 50.1553Z" stroke="url(#paint0_linear_1621_42860)" stroke-width="4.05614"/>
<path id="Vector 2" d="M37.2348 60.2494C28.161 50.4313 15.5904 45.0368 10.4394 43.5668C6.53857 42.16 7.55246 39.2706 8.547 38.0018C18.3651 28.928 23.7595 16.3573 25.2295 11.2062C26.3611 8.20992 29.141 8.4039 30.3895 8.87544C42.109 20.1493 53.4284 24.4245 57.6232 25.1529C61.5917 27.3365 60.5163 30.3351 59.4825 31.5614C50.3391 40.6618 44.5289 53.7791 42.7667 59.2003C41.2844 62.5206 38.4612 61.2832 37.2348 60.2494Z" stroke="url(#paint1_linear_1621_42860)" stroke-width="4.05614"/>
</g>
<defs>
<linearGradient id="paint0_linear_1621_42860" x1="34.3057" y1="10.4191" x2="34.3057" y2="59.2941" gradientUnits="userSpaceOnUse">
<stop stop-color="#573CCD"/>
<stop offset="1" stop-color="#A41BF0"/>
</linearGradient>
<linearGradient id="paint1_linear_1621_42860" x1="52.0044" y1="18.4941" x2="16.607" y2="51.2082" gradientUnits="userSpaceOnUse">
<stop stop-color="#573CCD"/>
<stop offset="1" stop-color="#A41BF0"/>
</linearGradient>
</defs>
</svg>
