<svg width="32" height="33" viewBox="0 0 32 33" fill="none" xmlns="http://www.w3.org/2000/svg">
<g id="alert">
<path id="Union" fill-rule="evenodd" clip-rule="evenodd" d="M14.0929 3.57053C14.675 3.2426 15.3319 3.07031 16 3.07031C16.6681 3.07031 17.3249 3.2426 17.907 3.57053C18.4891 3.89846 18.9768 4.37095 19.323 4.94238L19.3266 4.94824L30.1346 22.9962L30.1457 23.0152C30.4844 23.6026 30.6635 24.2684 30.6652 24.9464C30.6669 25.6245 30.4911 26.2912 30.1553 26.8802C29.8195 27.4693 29.3354 27.9602 28.7511 28.3042C28.1668 28.6482 27.5027 28.8334 26.8247 28.8412L26.8093 28.8414L5.17567 28.8413C4.49737 28.8337 3.83289 28.6485 3.24831 28.3044C2.66373 27.9603 2.17943 27.4691 1.84359 26.8797C1.50775 26.2903 1.33206 25.6233 1.334 24.945C1.33594 24.2666 1.51545 23.6006 1.85466 23.0132L1.86545 22.9948L12.6521 4.9852C12.6601 4.97079 12.6684 4.95651 12.6769 4.94238C13.0231 4.37095 13.5108 3.89846 14.0929 3.57053ZM16 5.73698C15.7904 5.73698 15.5844 5.79102 15.4018 5.89388C15.2277 5.99197 15.0805 6.1313 14.9731 6.29946L14.9612 6.31971L4.15964 24.3542C4.05604 24.5366 4.00126 24.7427 4.00066 24.9526C4.00005 25.1654 4.05515 25.3746 4.16049 25.5595C4.26584 25.7443 4.41774 25.8984 4.60109 26.0063C4.7827 26.1132 4.98888 26.1712 5.19952 26.1746H26.8002C27.0107 26.1711 27.2167 26.1131 27.3982 26.0063C27.5814 25.8984 27.7333 25.7444 27.8386 25.5596C27.9439 25.3749 27.9991 25.1657 27.9985 24.9531C27.998 24.7434 27.9434 24.5374 27.84 24.3551L17.0423 6.32417L17.0408 6.32174C16.9323 6.1436 16.7799 5.99627 16.5981 5.89388C16.4156 5.79102 16.2095 5.73698 16 5.73698ZM16 11.5133C16.7364 11.5133 17.3333 12.1102 17.3333 12.8466V18.1799C17.3333 18.9163 16.7364 19.5133 16 19.5133C15.2636 19.5133 14.6667 18.9163 14.6667 18.1799V12.8466C14.6667 12.1102 15.2636 11.5133 16 11.5133ZM16 20.8466C15.2636 20.8466 14.6667 21.4436 14.6667 22.1799C14.6667 22.9163 15.2636 23.5133 16 23.5133H16.0133C16.7497 23.5133 17.3467 22.9163 17.3467 22.1799C17.3467 21.4436 16.7497 20.8466 16.0133 20.8466H16Z" fill="#ED8A00"/>
</g>
</svg>
