<svg width="24" height="24" viewBox="0 0 24 24" fill="none" xmlns="http://www.w3.org/2000/svg">
<path fill-rule="evenodd" clip-rule="evenodd" d="M10.5692 2.04289C11.0058 1.79694 11.4984 1.66772 11.9995 1.66772C12.5006 1.66772 12.9932 1.79694 13.4298 2.04289C13.8664 2.28884 14.2321 2.64321 14.4918 3.07177L14.4944 3.07617L22.6004 16.6122L22.6088 16.6264C22.8628 17.0669 22.9971 17.5663 22.9984 18.0748C22.9997 18.5834 22.8678 19.0834 22.616 19.5252C22.3642 19.967 22.0011 20.3352 21.5629 20.5932C21.1246 20.8512 20.6265 20.99 20.118 20.9959L20.1065 20.996L3.88126 20.9959C3.37254 20.9902 2.87418 20.8514 2.43574 20.5933C1.99731 20.3352 1.63409 19.9668 1.3822 19.5248C1.13032 19.0827 0.998555 18.5825 1.00001 18.0737C1.00147 17.565 1.1361 17.0655 1.39051 16.6249L1.3986 16.6111L9.48857 3.10389C9.49458 3.09308 9.5008 3.08238 9.50722 3.07177C9.76687 2.64321 10.1326 2.28884 10.5692 2.04289ZM11.9995 3.66772C11.8423 3.66772 11.6878 3.70825 11.5509 3.7854C11.4203 3.85897 11.3099 3.96347 11.2293 4.08958L11.2204 4.10477L3.11924 17.6307C3.04154 17.7675 3.00045 17.9221 3 18.0794C2.99955 18.239 3.04088 18.3959 3.11988 18.5346C3.19889 18.6732 3.31282 18.7888 3.45033 18.8697C3.58653 18.9499 3.74117 18.9934 3.89915 18.9959H20.0997C20.2575 18.9933 20.4121 18.9498 20.5481 18.8697C20.6856 18.7888 20.7995 18.6733 20.8785 18.5347C20.9575 18.3961 20.9988 18.2393 20.9984 18.0798C20.998 17.9225 20.9571 17.7681 20.8795 17.6313L12.7812 4.10812L12.7801 4.1063C12.6987 3.97269 12.5844 3.86219 12.4481 3.7854C12.3112 3.70825 12.1567 3.66772 11.9995 3.66772ZM11.9994 7.99988C12.5517 7.99988 12.9994 8.44759 12.9994 8.99988V12.9999C12.9994 13.5522 12.5517 13.9999 11.9994 13.9999C11.4471 13.9999 10.9994 13.5522 10.9994 12.9999V8.99988C10.9994 8.44759 11.4471 7.99988 11.9994 7.99988ZM11.9994 15C11.4471 15 10.9994 15.4477 10.9994 16C10.9994 16.5523 11.4471 17 11.9994 17H12.0094C12.5617 17 13.0094 16.5523 13.0094 16C13.0094 15.4477 12.5617 15 12.0094 15H11.9994Z" fill="#FC5A5A"/>
</svg>
