<svg width="24" height="24" viewBox="0 0 24 24" fill="none" xmlns="http://www.w3.org/2000/svg">
<g clip-path="url(#clip0_972_8538)">
<path d="M23.25 14.25C23.25 14.4489 23.171 14.6397 23.0303 14.7803C22.8897 14.921 22.6989 15 22.5 15H21V16.5C21 16.6989 20.921 16.8897 20.7803 17.0303C20.6397 17.171 20.4489 17.25 20.25 17.25C20.0511 17.25 19.8603 17.171 19.7196 17.0303C19.579 16.8897 19.5 16.6989 19.5 16.5V15H18C17.8011 15 17.6103 14.921 17.4696 14.7803C17.329 14.6397 17.25 14.4489 17.25 14.25C17.25 14.0511 17.329 13.8603 17.4696 13.7197C17.6103 13.579 17.8011 13.5 18 13.5H19.5V12C19.5 11.8011 19.579 11.6103 19.7196 11.4697C19.8603 11.329 20.0511 11.25 20.25 11.25C20.4489 11.25 20.6397 11.329 20.7803 11.4697C20.921 11.6103 21 11.8011 21 12V13.5H22.5C22.6989 13.5 22.8897 13.579 23.0303 13.7197C23.171 13.8603 23.25 14.0511 23.25 14.25ZM5.24998 6.75H6.74998V8.25C6.74998 8.44891 6.829 8.63968 6.96965 8.78033C7.1103 8.92098 7.30107 9 7.49998 9C7.69889 9 7.88966 8.92098 8.03031 8.78033C8.17096 8.63968 8.24998 8.44891 8.24998 8.25V6.75H9.74998C9.94889 6.75 10.1397 6.67098 10.2803 6.53033C10.421 6.38968 10.5 6.19891 10.5 6C10.5 5.80109 10.421 5.61032 10.2803 5.46967C10.1397 5.32902 9.94889 5.25 9.74998 5.25H8.24998V3.75C8.24998 3.55109 8.17096 3.36032 8.03031 3.21967C7.88966 3.07902 7.69889 3 7.49998 3C7.30107 3 7.1103 3.07902 6.96965 3.21967C6.829 3.36032 6.74998 3.55109 6.74998 3.75V5.25H5.24998C5.05107 5.25 4.8603 5.32902 4.71965 5.46967C4.579 5.61032 4.49998 5.80109 4.49998 6C4.49998 6.19891 4.579 6.38968 4.71965 6.53033C4.8603 6.67098 5.05107 6.75 5.24998 6.75ZM17.25 18H16.5V17.25C16.5 17.0511 16.421 16.8603 16.2803 16.7197C16.1397 16.579 15.9489 16.5 15.75 16.5C15.5511 16.5 15.3603 16.579 15.2196 16.7197C15.079 16.8603 15 17.0511 15 17.25V18H14.25C14.0511 18 13.8603 18.079 13.7196 18.2197C13.579 18.3603 13.5 18.5511 13.5 18.75C13.5 18.9489 13.579 19.1397 13.7196 19.2803C13.8603 19.421 14.0511 19.5 14.25 19.5H15V20.25C15 20.4489 15.079 20.6397 15.2196 20.7803C15.3603 20.921 15.5511 21 15.75 21C15.9489 21 16.1397 20.921 16.2803 20.7803C16.421 20.6397 16.5 20.4489 16.5 20.25V19.5H17.25C17.4489 19.5 17.6397 19.421 17.7803 19.2803C17.921 19.1397 18 18.9489 18 18.75C18 18.5511 17.921 18.3603 17.7803 18.2197C17.6397 18.079 17.4489 18 17.25 18ZM20.5603 7.5L7.49998 20.5603C7.2187 20.8414 6.83732 20.9993 6.43967 20.9993C6.04201 20.9993 5.66063 20.8414 5.37935 20.5603L3.43873 18.6216C3.2994 18.4823 3.18888 18.3169 3.11348 18.1349C3.03808 17.9529 2.99927 17.7578 2.99927 17.5608C2.99927 17.3638 3.03808 17.1687 3.11348 16.9867C3.18888 16.8047 3.2994 16.6393 3.43873 16.5L16.5 3.43969C16.6393 3.30036 16.8046 3.18984 16.9867 3.11444C17.1687 3.03904 17.3637 3.00023 17.5608 3.00023C17.7578 3.00023 17.9529 3.03904 18.1349 3.11444C18.3169 3.18984 18.4822 3.30036 18.6215 3.43969L20.5603 5.37844C20.6996 5.51773 20.8101 5.6831 20.8855 5.86511C20.9609 6.04713 20.9998 6.24221 20.9998 6.43922C20.9998 6.63623 20.9609 6.83131 20.8855 7.01332C20.8101 7.19533 20.6996 7.36071 20.5603 7.5ZM19.5 6.43969L17.5603 4.5L14.5603 7.5L16.5 9.43969L19.5 6.43969Z" fill="#4B4AD5"/>
</g>
<defs>
<clipPath id="clip0_972_8538">
<rect width="24" height="24" fill="white"/>
</clipPath>
</defs>
</svg>
