<svg width="24" height="24" viewBox="0 0 24 24" fill="none" xmlns="http://www.w3.org/2000/svg">
<g clip-path="url(#clip0_2273_14595)">
<path d="M23.2497 14.25C23.2497 14.4489 23.1707 14.6397 23.0301 14.7803C22.8894 14.921 22.6986 15 22.4997 15H20.9997V16.5C20.9997 16.6989 20.9207 16.8897 20.7801 17.0303C20.6394 17.171 20.4486 17.25 20.2497 17.25C20.0508 17.25 19.8601 17.171 19.7194 17.0303C19.5788 16.8897 19.4997 16.6989 19.4997 16.5V15H17.9997C17.8008 15 17.6101 14.921 17.4694 14.7803C17.3288 14.6397 17.2497 14.4489 17.2497 14.25C17.2497 14.0511 17.3288 13.8603 17.4694 13.7197C17.6101 13.579 17.8008 13.5 17.9997 13.5H19.4997V12C19.4997 11.8011 19.5788 11.6103 19.7194 11.4697C19.8601 11.329 20.0508 11.25 20.2497 11.25C20.4486 11.25 20.6394 11.329 20.7801 11.4697C20.9207 11.6103 20.9997 11.8011 20.9997 12V13.5H22.4997C22.6986 13.5 22.8894 13.579 23.0301 13.7197C23.1707 13.8603 23.2497 14.0511 23.2497 14.25ZM5.24973 6.75H6.74973V8.25C6.74973 8.44891 6.82875 8.63968 6.9694 8.78033C7.11006 8.92098 7.30082 9 7.49973 9C7.69865 9 7.88941 8.92098 8.03006 8.78033C8.17072 8.63968 8.24973 8.44891 8.24973 8.25V6.75H9.74973C9.94865 6.75 10.1394 6.67098 10.2801 6.53033C10.4207 6.38968 10.4997 6.19891 10.4997 6C10.4997 5.80109 10.4207 5.61032 10.2801 5.46967C10.1394 5.32902 9.94865 5.25 9.74973 5.25H8.24973V3.75C8.24973 3.55109 8.17072 3.36032 8.03006 3.21967C7.88941 3.07902 7.69865 3 7.49973 3C7.30082 3 7.11006 3.07902 6.9694 3.21967C6.82875 3.36032 6.74973 3.55109 6.74973 3.75V5.25H5.24973C5.05082 5.25 4.86006 5.32902 4.7194 5.46967C4.57875 5.61032 4.49973 5.80109 4.49973 6C4.49973 6.19891 4.57875 6.38968 4.7194 6.53033C4.86006 6.67098 5.05082 6.75 5.24973 6.75ZM17.2497 18H16.4997V17.25C16.4997 17.0511 16.4207 16.8603 16.2801 16.7197C16.1394 16.579 15.9486 16.5 15.7497 16.5C15.5508 16.5 15.3601 16.579 15.2194 16.7197C15.0788 16.8603 14.9997 17.0511 14.9997 17.25V18H14.2497C14.0508 18 13.8601 18.079 13.7194 18.2197C13.5788 18.3603 13.4997 18.5511 13.4997 18.75C13.4997 18.9489 13.5788 19.1397 13.7194 19.2803C13.8601 19.421 14.0508 19.5 14.2497 19.5H14.9997V20.25C14.9997 20.4489 15.0788 20.6397 15.2194 20.7803C15.3601 20.921 15.5508 21 15.7497 21C15.9486 21 16.1394 20.921 16.2801 20.7803C16.4207 20.6397 16.4997 20.4489 16.4997 20.25V19.5H17.2497C17.4486 19.5 17.6394 19.421 17.7801 19.2803C17.9207 19.1397 17.9997 18.9489 17.9997 18.75C17.9997 18.5511 17.9207 18.3603 17.7801 18.2197C17.6394 18.079 17.4486 18 17.2497 18ZM20.56 7.5L7.49973 20.5603C7.21846 20.8414 6.83708 20.9993 6.43942 20.9993C6.04177 20.9993 5.66039 20.8414 5.37911 20.5603L3.43848 18.6216C3.29916 18.4823 3.18864 18.3169 3.11324 18.1349C3.03783 17.9529 2.99902 17.7578 2.99902 17.5608C2.99902 17.3638 3.03783 17.1687 3.11324 16.9867C3.18864 16.8047 3.29916 16.6393 3.43848 16.5L16.4997 3.43969C16.639 3.30036 16.8044 3.18984 16.9864 3.11444C17.1684 3.03904 17.3635 3.00023 17.5605 3.00023C17.7575 3.00023 17.9526 3.03904 18.1346 3.11444C18.3166 3.18984 18.482 3.30036 18.6213 3.43969L20.56 5.37844C20.6994 5.51773 20.8099 5.6831 20.8853 5.86511C20.9607 6.04713 20.9995 6.24221 20.9995 6.43922C20.9995 6.63623 20.9607 6.83131 20.8853 7.01332C20.8099 7.19533 20.6994 7.36071 20.56 7.5ZM19.4997 6.43969L17.56 4.5L14.56 7.5L16.4997 9.43969L19.4997 6.43969Z" fill="white"/>
</g>
<defs>
<clipPath id="clip0_2273_14595">
<rect width="24" height="24" fill="white"/>
</clipPath>
</defs>
</svg>
