<svg width="24" height="24" viewBox="0 0 24 24" fill="none" xmlns="http://www.w3.org/2000/svg">
<path fill-rule="evenodd" clip-rule="evenodd" d="M7 3.875C6.70163 3.875 6.41548 3.99353 6.2045 4.2045C5.99353 4.41548 5.875 4.70163 5.875 5V19.365L7.51464 18.272C7.86168 18.0406 8.32379 18.0864 8.61872 18.3813L10 19.7626L11.3813 18.3813C11.723 18.0396 12.277 18.0396 12.6187 18.3813L14 19.7626L15.3813 18.3813C15.6762 18.0864 16.1383 18.0406 16.4854 18.272L18.125 19.365V5C18.125 4.70163 18.0065 4.41548 17.7955 4.2045C17.5845 3.99353 17.2984 3.875 17 3.875H7ZM4.96707 2.96707C5.50624 2.4279 6.2375 2.125 7 2.125H17C17.7625 2.125 18.4938 2.4279 19.0329 2.96707C19.5721 3.50623 19.875 4.2375 19.875 5V21C19.875 21.3227 19.6974 21.6192 19.4129 21.7715C19.1284 21.9237 18.7831 21.907 18.5146 21.728L16.1115 20.1259L14.6187 21.6187C14.277 21.9604 13.723 21.9604 13.3813 21.6187L12 20.2374L10.6187 21.6187C10.277 21.9604 9.72299 21.9604 9.38128 21.6187L7.88851 20.1259L5.48536 21.728C5.21686 21.907 4.87164 21.9237 4.58712 21.7715C4.30261 21.6192 4.125 21.3227 4.125 21V5C4.125 4.2375 4.4279 3.50624 4.96707 2.96707ZM8.125 7C8.125 6.51675 8.51675 6.125 9 6.125H15C15.4833 6.125 15.875 6.51675 15.875 7C15.875 7.48325 15.4833 7.875 15 7.875H9C8.51675 7.875 8.125 7.48325 8.125 7ZM8.125 11C8.125 10.5168 8.51675 10.125 9 10.125H15C15.4833 10.125 15.875 10.5168 15.875 11C15.875 11.4832 15.4833 11.875 15 11.875H9C8.51675 11.875 8.125 11.4832 8.125 11ZM12.125 15C12.125 14.5168 12.5168 14.125 13 14.125H15C15.4833 14.125 15.875 14.5168 15.875 15C15.875 15.4832 15.4833 15.875 15 15.875H13C12.5168 15.875 12.125 15.4832 12.125 15Z" fill="#4B4AD5"/>
</svg>
