<svg width="12" height="13" viewBox="0 0 12 13" fill="none" xmlns="http://www.w3.org/2000/svg">
<path d="M7 11.9688H5C2.285 11.9688 1.125 10.8088 1.125 8.09375V5.09375C1.125 2.37875 2.285 1.21875 5 1.21875H7C9.715 1.21875 10.875 2.37875 10.875 5.09375V8.09375C10.875 10.8088 9.715 11.9688 7 11.9688ZM5 1.96875C2.695 1.96875 1.875 2.78875 1.875 5.09375V8.09375C1.875 10.3988 2.695 11.2188 5 11.2188H7C9.305 11.2188 10.125 10.3988 10.125 8.09375V5.09375C10.125 2.78875 9.305 1.96875 7 1.96875H5Z" fill="#4B4AD5"/>
<path d="M7.5 6.00879H4.5C3.88 6.00879 3.375 5.50379 3.375 4.88379V4.38379C3.375 3.76379 3.88 3.25879 4.5 3.25879H7.5C8.12 3.25879 8.625 3.76379 8.625 4.38379V4.88379C8.625 5.50379 8.12 6.00879 7.5 6.00879ZM4.5 4.00879C4.295 4.00879 4.125 4.17879 4.125 4.38379V4.88379C4.125 5.08879 4.295 5.25879 4.5 5.25879H7.5C7.705 5.25879 7.875 5.08879 7.875 4.88379V4.38379C7.875 4.17879 7.705 4.00879 7.5 4.00879H4.5Z" fill="#4B4AD5"/>
<path d="M4.07508 8.05366C4.01008 8.05366 3.94508 8.03866 3.88508 8.01366C3.82508 7.98866 3.77008 7.95366 3.72508 7.90866C3.63008 7.81366 3.58008 7.68866 3.58008 7.55366C3.58008 7.48866 3.59008 7.42366 3.61508 7.36366C3.64008 7.29866 3.67508 7.24866 3.72508 7.19866C3.74508 7.17866 3.77008 7.15366 3.80008 7.13866C3.82508 7.11866 3.85508 7.10366 3.88508 7.09366C3.91508 7.07866 3.95008 7.06866 3.98008 7.06366C4.14008 7.02866 4.31508 7.08366 4.43008 7.19866C4.47508 7.24366 4.51508 7.29866 4.54008 7.36366C4.56508 7.42366 4.58008 7.48866 4.58008 7.55366C4.58008 7.68866 4.52508 7.81366 4.43008 7.90866C4.33508 8.00366 4.21008 8.05366 4.07508 8.05366Z" fill="#4B4AD5"/>
<path d="M6.08008 8.05371C5.94508 8.05371 5.82008 8.00371 5.72508 7.90871C5.63008 7.81371 5.58008 7.68871 5.58008 7.55371C5.58008 7.48871 5.59008 7.42371 5.61508 7.36371C5.64008 7.29871 5.67508 7.24871 5.72508 7.19871C5.74508 7.17871 5.77008 7.15371 5.80008 7.13871C5.82508 7.11871 5.85508 7.10371 5.88508 7.09371C5.91508 7.07871 5.95008 7.06871 5.98008 7.06371C6.07508 7.04371 6.17508 7.05371 6.27008 7.09371C6.33008 7.11871 6.38508 7.15371 6.43008 7.19871C6.47508 7.24871 6.51508 7.29871 6.54008 7.36371C6.56508 7.42371 6.58008 7.48871 6.58008 7.55371C6.58008 7.68871 6.52508 7.81371 6.43008 7.90871C6.33508 8.00371 6.21008 8.05371 6.08008 8.05371Z" fill="#4B4AD5"/>
<path d="M8.07508 8.05381C8.01008 8.05381 7.94508 8.03881 7.88508 8.01381C7.82508 7.98881 7.77008 7.95381 7.72508 7.90881C7.67508 7.85881 7.64008 7.80381 7.61508 7.74381C7.59008 7.68381 7.58008 7.61881 7.58008 7.55381C7.58008 7.48881 7.59008 7.42381 7.61508 7.36381C7.64008 7.29881 7.67508 7.24881 7.72508 7.19881C7.91008 7.01381 8.24508 7.01381 8.43008 7.19881C8.52508 7.29381 8.58008 7.42381 8.58008 7.55381C8.58008 7.68881 8.52508 7.81381 8.43008 7.90881C8.34008 7.99881 8.21508 8.05381 8.07508 8.05381Z" fill="#4B4AD5"/>
<path d="M4.0802 10.0537C3.9452 10.0537 3.8202 10.0037 3.7252 9.90871C3.6302 9.81371 3.5752 9.68871 3.5752 9.55371C3.5752 9.42371 3.6302 9.29371 3.7252 9.19871C3.7452 9.17871 3.7752 9.15371 3.8002 9.13871C3.8252 9.11871 3.8552 9.10371 3.8852 9.09371C3.9152 9.07871 3.9502 9.06871 3.9802 9.06371C4.1452 9.03371 4.3152 9.08371 4.4302 9.19871C4.4552 9.22371 4.4752 9.24871 4.4952 9.27371C4.5102 9.30371 4.5252 9.33372 4.5402 9.36372C4.5502 9.39372 4.5602 9.42371 4.5702 9.45371C4.5752 9.48871 4.5802 9.51871 4.5802 9.55371C4.5802 9.68871 4.5252 9.81371 4.4302 9.90871C4.3352 10.0037 4.2102 10.0537 4.0802 10.0537Z" fill="#4B4AD5"/>
<path d="M6.07971 10.0537C5.94471 10.0537 5.81971 10.0037 5.72471 9.90871C5.62971 9.81371 5.57471 9.68871 5.57471 9.55371C5.57471 9.42371 5.62971 9.29371 5.72471 9.19871C5.83971 9.08371 6.01471 9.03371 6.17471 9.06371C6.20471 9.06871 6.23971 9.07871 6.26971 9.09371C6.29971 9.10371 6.32971 9.11871 6.35471 9.13871C6.37971 9.15371 6.40471 9.17871 6.42971 9.19871C6.52471 9.29371 6.57471 9.42371 6.57471 9.55371C6.57471 9.68871 6.52471 9.81371 6.42971 9.90871C6.33471 10.0037 6.20971 10.0537 6.07971 10.0537Z" fill="#4B4AD5"/>
<path d="M8.07508 10.0539C7.94508 10.0539 7.82008 10.0039 7.72508 9.90886C7.63008 9.81386 7.58008 9.68886 7.58008 9.55386C7.58008 9.42386 7.63008 9.29386 7.72508 9.19886C7.77008 9.15386 7.82508 9.11886 7.88508 9.09386C8.07008 9.01886 8.29508 9.05886 8.43008 9.19886C8.52508 9.29386 8.57508 9.42386 8.57508 9.55386C8.57508 9.68886 8.52508 9.81386 8.43008 9.90886C8.38508 9.95386 8.33008 9.98886 8.27008 10.0139C8.21008 10.0389 8.14508 10.0539 8.07508 10.0539Z" fill="#4B4AD5"/>
</svg>
