<svg xmlns="http://www.w3.org/2000/svg" width="24" height="25" viewBox="0 0 24 25" fill="none">
  <path d="M14 23.0938H10C4.57 23.0938 2.25 20.7738 2.25 15.3438V9.34375C2.25 3.91375 4.57 1.59375 10 1.59375H14C19.43 1.59375 21.75 3.91375 21.75 9.34375V15.3438C21.75 20.7738 19.43 23.0938 14 23.0938ZM10 3.09375C5.39 3.09375 3.75 4.73375 3.75 9.34375V15.3438C3.75 19.9538 5.39 21.5938 10 21.5938H14C18.61 21.5938 20.25 19.9538 20.25 15.3438V9.34375C20.25 4.73375 18.61 3.09375 14 3.09375H10Z" fill="#292D32"/>
  <path d="M15 11.1738H9C7.76 11.1738 6.75 10.1638 6.75 8.92383V7.92383C6.75 6.68383 7.76 5.67383 9 5.67383H15C16.24 5.67383 17.25 6.68383 17.25 7.92383V8.92383C17.25 10.1638 16.24 11.1738 15 11.1738ZM9 7.17383C8.59 7.17383 8.25 7.51383 8.25 7.92383V8.92383C8.25 9.33383 8.59 9.67383 9 9.67383H15C15.41 9.67383 15.75 9.33383 15.75 8.92383V7.92383C15.75 7.51383 15.41 7.17383 15 7.17383H9Z" fill="#292D32"/>
  <path d="M8.15016 15.2641C8.02016 15.2641 7.89016 15.2341 7.77016 15.1841C7.65016 15.1341 7.54016 15.0641 7.45016 14.9741C7.26016 14.7841 7.16016 14.5341 7.16016 14.2641C7.16016 14.1341 7.18016 14.0041 7.23016 13.8841C7.28016 13.7541 7.35016 13.6541 7.45016 13.5541C7.49016 13.5141 7.54016 13.4641 7.60016 13.4341C7.65016 13.3941 7.71016 13.3641 7.77016 13.3441C7.83016 13.3141 7.90016 13.2941 7.96016 13.2841C8.28016 13.2141 8.63016 13.3241 8.86016 13.5541C8.95016 13.6441 9.03016 13.7541 9.08016 13.8841C9.13016 14.0041 9.16016 14.1341 9.16016 14.2641C9.16016 14.5341 9.05016 14.7841 8.86016 14.9741C8.67016 15.1641 8.42016 15.2641 8.15016 15.2641Z" fill="#292D32"/>
  <path d="M12.1597 15.2637C11.8897 15.2637 11.6397 15.1637 11.4497 14.9737C11.2597 14.7837 11.1597 14.5337 11.1597 14.2637C11.1597 14.1337 11.1797 14.0037 11.2297 13.8837C11.2797 13.7537 11.3497 13.6537 11.4497 13.5537C11.4897 13.5137 11.5397 13.4637 11.5997 13.4337C11.6497 13.3937 11.7097 13.3637 11.7697 13.3437C11.8297 13.3137 11.8997 13.2937 11.9597 13.2837C12.1497 13.2437 12.3497 13.2637 12.5397 13.3437C12.6597 13.3937 12.7697 13.4637 12.8597 13.5537C12.9497 13.6537 13.0297 13.7537 13.0797 13.8837C13.1297 14.0037 13.1597 14.1337 13.1597 14.2637C13.1597 14.5337 13.0497 14.7837 12.8597 14.9737C12.6697 15.1637 12.4197 15.2637 12.1597 15.2637Z" fill="#292D32"/>
  <path d="M16.1502 15.2634C16.0202 15.2634 15.8902 15.2334 15.7702 15.1834C15.6502 15.1334 15.5402 15.0634 15.4502 14.9734C15.3502 14.8734 15.2802 14.7634 15.2302 14.6434C15.1802 14.5234 15.1602 14.3934 15.1602 14.2634C15.1602 14.1334 15.1802 14.0034 15.2302 13.8834C15.2802 13.7534 15.3502 13.6534 15.4502 13.5534C15.8202 13.1834 16.4902 13.1834 16.8602 13.5534C17.0502 13.7434 17.1602 14.0034 17.1602 14.2634C17.1602 14.5334 17.0502 14.7834 16.8602 14.9734C16.6802 15.1534 16.4302 15.2634 16.1502 15.2634Z" fill="#292D32"/>
  <path d="M8.16039 19.2637C7.89039 19.2637 7.64039 19.1637 7.45039 18.9737C7.26039 18.7837 7.15039 18.5337 7.15039 18.2637C7.15039 18.0037 7.26039 17.7437 7.45039 17.5537C7.49039 17.5137 7.55039 17.4637 7.60039 17.4337C7.65039 17.3937 7.71039 17.3637 7.77039 17.3437C7.83039 17.3137 7.90039 17.2937 7.96039 17.2837C8.29039 17.2237 8.63039 17.3237 8.86039 17.5537C8.91039 17.6037 8.95039 17.6537 8.99039 17.7037C9.02039 17.7637 9.05039 17.8237 9.08039 17.8837C9.10039 17.9437 9.12039 18.0037 9.14039 18.0637C9.15039 18.1337 9.16039 18.1937 9.16039 18.2637C9.16039 18.5337 9.05039 18.7837 8.86039 18.9737C8.67039 19.1637 8.42039 19.2637 8.16039 19.2637Z" fill="#292D32"/>
  <path d="M12.1599 19.2637C11.8899 19.2637 11.6399 19.1637 11.4499 18.9737C11.2599 18.7837 11.1499 18.5337 11.1499 18.2637C11.1499 18.0037 11.2599 17.7437 11.4499 17.5537C11.6799 17.3237 12.0299 17.2237 12.3499 17.2837C12.4099 17.2937 12.4799 17.3137 12.5399 17.3437C12.5999 17.3637 12.6599 17.3937 12.7099 17.4337C12.7599 17.4637 12.8099 17.5137 12.8599 17.5537C13.0499 17.7437 13.1499 18.0037 13.1499 18.2637C13.1499 18.5337 13.0499 18.7837 12.8599 18.9737C12.6699 19.1637 12.4199 19.2637 12.1599 19.2637Z" fill="#292D32"/>
  <path d="M16.1502 19.2635C15.8902 19.2635 15.6402 19.1635 15.4502 18.9735C15.2602 18.7835 15.1602 18.5335 15.1602 18.2635C15.1602 18.0035 15.2602 17.7435 15.4502 17.5535C15.5402 17.4635 15.6502 17.3935 15.7702 17.3435C16.1402 17.1935 16.5902 17.2735 16.8602 17.5535C17.0502 17.7435 17.1502 18.0035 17.1502 18.2635C17.1502 18.5335 17.0502 18.7835 16.8602 18.9735C16.7702 19.0635 16.6602 19.1335 16.5402 19.1835C16.4202 19.2335 16.2902 19.2635 16.1502 19.2635Z" fill="#292D32"/>
</svg>