<svg width="37" height="37" viewBox="0 0 37 37" fill="none" xmlns="http://www.w3.org/2000/svg">
<path d="M33.6413 27.8557C33.6413 28.4028 33.5198 28.9651 33.2614 29.5122C33.0031 30.0593 32.6687 30.576 32.228 31.0623C31.4834 31.8829 30.6627 32.4756 29.7357 32.8555C28.8239 33.2355 27.8361 33.433 26.7723 33.433C25.2222 33.433 23.5657 33.0683 21.8181 32.3236C20.0704 31.579 18.3228 30.576 16.5903 29.3146C14.8427 28.0381 13.1862 26.6248 11.6057 25.0595C10.0404 23.479 8.62711 21.8225 7.36576 20.0901C6.11961 18.3576 5.11661 16.6252 4.38715 14.9079C3.6577 13.1754 3.29297 11.519 3.29297 9.93849C3.29297 8.9051 3.47533 7.91729 3.84006 7.00547C4.20479 6.07846 4.78227 5.22743 5.58771 4.46758C6.56032 3.51017 7.62411 3.03906 8.74868 3.03906C9.1742 3.03906 9.59972 3.13024 9.97964 3.31261C10.3748 3.49497 10.7243 3.76852 10.9978 4.16364L14.5235 9.13305C14.7971 9.51298 14.9946 9.86251 15.1314 10.1968C15.2682 10.516 15.3442 10.8351 15.3442 11.1239C15.3442 11.4886 15.2378 11.8533 15.025 12.2028C14.8275 12.5524 14.5387 12.9171 14.174 13.2818L13.019 14.4824C12.8519 14.6496 12.7759 14.8471 12.7759 15.0903C12.7759 15.2118 12.7911 15.3182 12.8215 15.4398C12.8671 15.5614 12.9127 15.6526 12.9431 15.7437C13.2166 16.2452 13.6877 16.8987 14.3564 17.689C15.0402 18.4792 15.7697 19.2846 16.5599 20.0901C17.3806 20.8955 18.1708 21.6402 18.9763 22.324C19.7665 22.9927 20.42 23.4486 20.9367 23.7222C21.0126 23.7525 21.1038 23.7981 21.2102 23.8437C21.3318 23.8893 21.4534 23.9045 21.5901 23.9045C21.8485 23.9045 22.046 23.8133 22.2132 23.6462L23.3682 22.5064C23.7481 22.1265 24.1128 21.8377 24.4624 21.6554C24.8119 21.4426 25.1614 21.3362 25.5413 21.3362C25.8301 21.3362 26.134 21.397 26.4684 21.5338C26.8027 21.6706 27.1522 21.8681 27.5322 22.1265L32.5624 25.6978C32.9575 25.9713 33.231 26.2904 33.3982 26.6704C33.5502 27.0503 33.6413 27.4302 33.6413 27.8557Z" stroke="#A461D8" stroke-width="2.48678" stroke-miterlimit="10"/>
</svg>
