<svg width="24" height="25" viewBox="0 0 24 25" fill="none" xmlns="http://www.w3.org/2000/svg">
<path d="M4 10.5645L10.2627 13.3037C11.2243 13.7246 11.6664 14.8427 11.2529 15.8076C11.1902 15.9539 11.1115 16.0885 11.0195 16.21L13.7334 17.9307C14.5664 18.3471 15.4848 18.5644 16.416 18.5645H18C19.1046 18.5645 20 19.4599 20 20.5645C19.9998 21.6689 19.1045 22.5645 18 22.5645H9.88867C8.64671 22.5645 7.42139 22.2751 6.31055 21.7197L2 19.5645V10.5645H4ZM16.459 3.50977C17.7266 2.24883 19.7822 2.24882 21.0498 3.50977C22.3171 4.77066 22.3171 6.81527 21.0498 8.07617L16.918 12.1855C16.4109 12.6899 15.5891 12.6899 15.082 12.1855L10.9502 8.07617C9.68293 6.81527 9.68291 4.77066 10.9502 3.50977C12.2178 2.24882 14.2734 2.24883 15.541 3.50977L16 3.9668L16.459 3.50977Z" fill="white"/>
</svg>
