<svg width="24" height="25" viewBox="0 0 24 25" fill="none" xmlns="http://www.w3.org/2000/svg">
<path d="M4 10.7656L10.2627 13.5049C11.2243 13.9258 11.6664 15.0439 11.2529 16.0088C11.1902 16.1551 11.1115 16.2897 11.0195 16.4111L13.7334 18.1318C14.5664 18.5483 15.4848 18.7656 16.416 18.7656H18C19.1046 18.7656 20 19.6611 20 20.7656C19.9998 21.87 19.1045 22.7656 18 22.7656H9.88867C8.64671 22.7656 7.42139 22.4763 6.31055 21.9209L2 19.7656V10.7656H4ZM16.459 3.71094C17.7266 2.45 19.7822 2.44999 21.0498 3.71094C22.3171 4.97183 22.3171 7.01644 21.0498 8.27734L16.918 12.3867C16.4109 12.8911 15.5891 12.8911 15.082 12.3867L10.9502 8.27734C9.68293 7.01644 9.68291 4.97183 10.9502 3.71094C12.2178 2.44999 14.2734 2.45 15.541 3.71094L16 4.16797L16.459 3.71094Z" fill="#A461D8"/>
</svg>
