<svg width="20" height="20" viewBox="0 0 20 20" fill="none" xmlns="http://www.w3.org/2000/svg">
<path d="M19.75 19.25C19.75 19.4489 19.671 19.6397 19.5303 19.7803C19.3897 19.921 19.1989 20 19 20H1C0.801088 20 0.610322 19.921 0.46967 19.7803C0.329018 19.6397 0.25 19.4489 0.25 19.25C0.25 19.0511 0.329018 18.8603 0.46967 18.7197C0.610322 18.579 0.801088 18.5 1 18.5H14.9922C16.0276 17.6628 16.7922 16.5382 17.19 15.2675C17.5877 13.9968 17.6007 12.6368 17.2275 11.3587C16.8542 10.0807 16.1112 8.94151 15.0921 8.08464C14.073 7.22776 12.8232 6.69143 11.5 6.54313V11.75C11.5 12.1478 11.342 12.5294 11.0607 12.8107C10.7794 13.092 10.3978 13.25 10 13.25H5.5C5.10218 13.25 4.72064 13.092 4.43934 12.8107C4.15804 12.5294 4 12.1478 4 11.75V2C4 1.60218 4.15804 1.22064 4.43934 0.93934C4.72064 0.658035 5.10218 0.5 5.5 0.5H10C10.3978 0.5 10.7794 0.658035 11.0607 0.93934C11.342 1.22064 11.5 1.60218 11.5 2V5.03469C12.9941 5.17185 14.4226 5.71365 15.6319 6.60184C16.8411 7.49003 17.7855 8.69101 18.3633 10.0757C18.9412 11.4603 19.1307 12.9763 18.9115 14.4606C18.6923 15.9449 18.0728 17.3414 17.1194 18.5H19C19.1989 18.5 19.3897 18.579 19.5303 18.7197C19.671 18.8603 19.75 19.0511 19.75 19.25ZM10.75 16.25C10.9489 16.25 11.1397 16.171 11.2803 16.0303C11.421 15.8897 11.5 15.6989 11.5 15.5C11.5 15.3011 11.421 15.1103 11.2803 14.9697C11.1397 14.829 10.9489 14.75 10.75 14.75H4.75C4.55109 14.75 4.36032 14.829 4.21967 14.9697C4.07902 15.1103 4 15.3011 4 15.5C4 15.6989 4.07902 15.8897 4.21967 16.0303C4.36032 16.171 4.55109 16.25 4.75 16.25H10.75Z" fill="#716DCF"/>
</svg>
