<svg width="220" height="77" viewBox="0 0 220 77" fill="none" xmlns="http://www.w3.org/2000/svg">
<g clip-path="url(#clip0_612_143057)">
<path d="M65.391 21.6314L44.391 7.45936C39.294 4.02136 32.706 4.02136 27.609 7.45936L6.612 21.6314C2.472 24.4244 0 29.0684 0 34.0664V61.8944C0 70.1654 6.729 76.8944 15 76.8944H57C65.271 76.8944 72 70.1654 72 61.8944V34.0664C72 29.0714 69.528 24.4244 65.391 21.6314ZM54 45.3944C54 49.5314 50.634 52.8944 46.5 52.8944H45V54.3944C45 58.5314 41.634 61.8944 37.5 61.8944H34.5C30.366 61.8944 27 58.5314 27 54.3944V52.8944H25.5C21.366 52.8944 18 49.5314 18 45.3944V42.3944C18 38.2574 21.366 34.8944 25.5 34.8944H27V33.3944C27 29.2574 30.366 25.8944 34.5 25.8944H37.5C41.634 25.8944 45 29.2574 45 33.3944V34.8944H46.5C50.634 34.8944 54 38.2574 54 42.3944V45.3944ZM48 42.3944V45.3944C48 46.2194 47.328 46.8944 46.5 46.8944H42C40.344 46.8944 39 48.2354 39 49.8944V54.3944C39 55.2194 38.328 55.8944 37.5 55.8944H34.5C33.672 55.8944 33 55.2194 33 54.3944V49.8944C33 48.2354 31.656 46.8944 30 46.8944H25.5C24.672 46.8944 24 46.2194 24 45.3944V42.3944C24 41.5694 24.672 40.8944 25.5 40.8944H30C31.656 40.8944 33 39.5534 33 37.8944V33.3944C33 32.5694 33.672 31.8944 34.5 31.8944H37.5C38.328 31.8944 39 32.5694 39 33.3944V37.8944C39 39.5534 40.344 40.8944 42 40.8944H46.5C47.328 40.8944 48 41.5694 48 42.3944Z" fill="#4B4AD5"/>
</g>
<path d="M98.5633 18.7866H90.4513V22.3746C90.798 21.9932 91.2833 21.6812 91.9073 21.4386C92.5313 21.1959 93.2073 21.0746 93.9353 21.0746C95.2353 21.0746 96.31 21.3692 97.1593 21.9586C98.026 22.5479 98.6586 23.3106 99.0573 24.2466C99.456 25.1826 99.6553 26.1966 99.6553 27.2886C99.6553 29.3166 99.0833 30.9286 97.9393 32.1246C96.7953 33.3032 95.1833 33.8926 93.1033 33.8926C91.7166 33.8926 90.512 33.6586 89.4893 33.1906C88.4666 32.7052 87.678 32.0379 87.1233 31.1886C86.5686 30.3392 86.2653 29.3599 86.2133 28.2506H90.5553C90.6593 28.7879 90.9106 29.2386 91.3093 29.6026C91.708 29.9492 92.254 30.1226 92.9473 30.1226C93.762 30.1226 94.3686 29.8626 94.7673 29.3426C95.166 28.8226 95.3653 28.1292 95.3653 27.2626C95.3653 26.4132 95.1573 25.7632 94.7413 25.3126C94.3253 24.8619 93.7186 24.6366 92.9213 24.6366C92.332 24.6366 91.8466 24.7839 91.4653 25.0786C91.084 25.3559 90.8326 25.7286 90.7113 26.1966H86.4213V14.8866H98.5633V18.7866ZM102.109 24.1426C102.109 21.1612 102.681 18.8126 103.825 17.0966C104.987 15.3806 106.85 14.5226 109.415 14.5226C111.981 14.5226 113.835 15.3806 114.979 17.0966C116.141 18.8126 116.721 21.1612 116.721 24.1426C116.721 27.1586 116.141 29.5246 114.979 31.2406C113.835 32.9566 111.981 33.8146 109.415 33.8146C106.85 33.8146 104.987 32.9566 103.825 31.2406C102.681 29.5246 102.109 27.1586 102.109 24.1426ZM112.353 24.1426C112.353 22.3919 112.163 21.0486 111.781 20.1126C111.4 19.1592 110.611 18.6826 109.415 18.6826C108.219 18.6826 107.431 19.1592 107.049 20.1126C106.668 21.0486 106.477 22.3919 106.477 24.1426C106.477 25.3212 106.547 26.3006 106.685 27.0806C106.824 27.8432 107.101 28.4672 107.517 28.9526C107.951 29.4206 108.583 29.6546 109.415 29.6546C110.247 29.6546 110.871 29.4206 111.287 28.9526C111.721 28.4672 112.007 27.8432 112.145 27.0806C112.284 26.3006 112.353 25.3212 112.353 24.1426ZM132.694 26.7946H128.17V31.4226H123.958V26.7946H119.434V22.8166H123.958V18.1626H128.17V22.8166H132.694V26.7946ZM97.4933 54.1806C97.4933 55.0286 97.2933 55.8286 96.8933 56.5806C96.4933 57.3326 95.8533 57.9486 94.9733 58.4286C94.0933 58.8926 92.9653 59.1246 91.5893 59.1246H88.5653V65.8926H85.8293V49.2126H91.5893C92.8693 49.2126 93.9493 49.4366 94.8293 49.8846C95.7253 50.3166 96.3893 50.9086 96.8213 51.6606C97.2693 52.4126 97.4933 53.2526 97.4933 54.1806ZM91.5893 56.8926C92.6293 56.8926 93.4053 56.6606 93.9173 56.1966C94.4293 55.7166 94.6853 55.0446 94.6853 54.1806C94.6853 52.3566 93.6533 51.4446 91.5893 51.4446H88.5653V56.8926H91.5893ZM105.839 66.1086C104.591 66.1086 103.463 65.8286 102.455 65.2686C101.447 64.6926 100.655 63.8926 100.079 62.8686C99.5027 61.8286 99.2147 60.6286 99.2147 59.2686C99.2147 57.9246 99.5107 56.7326 100.103 55.6926C100.695 54.6526 101.503 53.8526 102.527 53.2926C103.551 52.7326 104.695 52.4526 105.959 52.4526C107.223 52.4526 108.367 52.7326 109.391 53.2926C110.415 53.8526 111.223 54.6526 111.815 55.6926C112.407 56.7326 112.703 57.9246 112.703 59.2686C112.703 60.6126 112.399 61.8046 111.791 62.8446C111.183 63.8846 110.351 64.6926 109.295 65.2686C108.255 65.8286 107.103 66.1086 105.839 66.1086ZM105.839 63.7326C106.543 63.7326 107.199 63.5646 107.807 63.2286C108.431 62.8926 108.935 62.3886 109.319 61.7166C109.703 61.0446 109.895 60.2286 109.895 59.2686C109.895 58.3086 109.711 57.5006 109.343 56.8446C108.975 56.1726 108.487 55.6686 107.879 55.3326C107.271 54.9966 106.615 54.8286 105.911 54.8286C105.207 54.8286 104.551 54.9966 103.943 55.3326C103.351 55.6686 102.879 56.1726 102.527 56.8446C102.175 57.5006 101.999 58.3086 101.999 59.2686C101.999 60.6926 102.359 61.7966 103.079 62.5806C103.815 63.3486 104.735 63.7326 105.839 63.7326ZM118.143 48.1326V65.8926H115.407V48.1326H118.143ZM133.64 52.6686L125.528 72.1086H122.696L125.384 65.6766L120.176 52.6686H123.224L126.944 62.7486L130.808 52.6686H133.64ZM141.027 57.5166C141.027 55.8846 141.403 54.4206 142.155 53.1246C142.923 51.8286 143.955 50.8206 145.251 50.1006C146.563 49.3646 147.995 48.9966 149.547 48.9966C151.323 48.9966 152.899 49.4366 154.275 50.3166C155.667 51.1806 156.675 52.4126 157.299 54.0126H154.011C153.579 53.1326 152.979 52.4766 152.211 52.0446C151.443 51.6126 150.555 51.3966 149.547 51.3966C148.443 51.3966 147.459 51.6446 146.595 52.1406C145.731 52.6366 145.051 53.3486 144.555 54.2766C144.075 55.2046 143.835 56.2846 143.835 57.5166C143.835 58.7486 144.075 59.8286 144.555 60.7566C145.051 61.6846 145.731 62.4046 146.595 62.9166C147.459 63.4126 148.443 63.6606 149.547 63.6606C150.555 63.6606 151.443 63.4446 152.211 63.0126C152.979 62.5806 153.579 61.9246 154.011 61.0446H157.299C156.675 62.6446 155.667 63.8766 154.275 64.7406C152.899 65.6046 151.323 66.0366 149.547 66.0366C147.979 66.0366 146.547 65.6766 145.251 64.9566C143.955 64.2206 142.923 63.2046 142.155 61.9086C141.403 60.6126 141.027 59.1486 141.027 57.5166ZM163.237 48.1326V65.8926H160.501V48.1326H163.237ZM168.221 50.9166C167.725 50.9166 167.309 50.7486 166.973 50.4126C166.637 50.0766 166.469 49.6606 166.469 49.1646C166.469 48.6686 166.637 48.2526 166.973 47.9166C167.309 47.5806 167.725 47.4126 168.221 47.4126C168.701 47.4126 169.109 47.5806 169.445 47.9166C169.781 48.2526 169.949 48.6686 169.949 49.1646C169.949 49.6606 169.781 50.0766 169.445 50.4126C169.109 50.7486 168.701 50.9166 168.221 50.9166ZM169.565 52.6686V65.8926H166.829V52.6686H169.565ZM179.829 52.4526C180.869 52.4526 181.797 52.6686 182.613 53.1006C183.445 53.5326 184.093 54.1726 184.557 55.0206C185.021 55.8686 185.253 56.8926 185.253 58.0926V65.8926H182.541V58.5006C182.541 57.3166 182.245 56.4126 181.653 55.7886C181.061 55.1486 180.253 54.8286 179.229 54.8286C178.205 54.8286 177.389 55.1486 176.781 55.7886C176.189 56.4126 175.893 57.3166 175.893 58.5006V65.8926H173.157V52.6686H175.893V54.1806C176.341 53.6366 176.909 53.2126 177.597 52.9086C178.301 52.6046 179.045 52.4526 179.829 52.4526ZM190.135 50.9166C189.639 50.9166 189.223 50.7486 188.887 50.4126C188.551 50.0766 188.383 49.6606 188.383 49.1646C188.383 48.6686 188.551 48.2526 188.887 47.9166C189.223 47.5806 189.639 47.4126 190.135 47.4126C190.615 47.4126 191.023 47.5806 191.359 47.9166C191.695 48.2526 191.863 48.6686 191.863 49.1646C191.863 49.6606 191.695 50.0766 191.359 50.4126C191.023 50.7486 190.615 50.9166 190.135 50.9166ZM191.479 52.6686V65.8926H188.743V52.6686H191.479ZM194.159 59.2686C194.159 57.9086 194.431 56.7166 194.975 55.6926C195.535 54.6526 196.303 53.8526 197.279 53.2926C198.255 52.7326 199.375 52.4526 200.639 52.4526C202.239 52.4526 203.559 52.8366 204.599 53.6046C205.655 54.3566 206.367 55.4366 206.735 56.8446H203.783C203.543 56.1886 203.159 55.6766 202.631 55.3086C202.103 54.9406 201.439 54.7566 200.639 54.7566C199.519 54.7566 198.623 55.1566 197.951 55.9566C197.295 56.7406 196.967 57.8446 196.967 59.2686C196.967 60.6926 197.295 61.8046 197.951 62.6046C198.623 63.4046 199.519 63.8046 200.639 63.8046C202.223 63.8046 203.271 63.1086 203.783 61.7166H206.735C206.351 63.0606 205.631 64.1326 204.575 64.9326C203.519 65.7166 202.207 66.1086 200.639 66.1086C199.375 66.1086 198.255 65.8286 197.279 65.2686C196.303 64.6926 195.535 63.8926 194.975 62.8686C194.431 61.8286 194.159 60.6286 194.159 59.2686ZM214.262 66.1086C213.222 66.1086 212.286 65.9246 211.454 65.5566C210.638 65.1726 209.99 64.6606 209.51 64.0206C209.03 63.3646 208.774 62.6366 208.742 61.8366H211.574C211.622 62.3966 211.886 62.8686 212.366 63.2526C212.862 63.6206 213.478 63.8046 214.214 63.8046C214.982 63.8046 215.574 63.6606 215.99 63.3726C216.422 63.0686 216.638 62.6846 216.638 62.2206C216.638 61.7246 216.398 61.3566 215.918 61.1166C215.454 60.8766 214.71 60.6126 213.686 60.3246C212.694 60.0526 211.886 59.7886 211.262 59.5326C210.638 59.2766 210.094 58.8846 209.63 58.3566C209.182 57.8286 208.958 57.1326 208.958 56.2686C208.958 55.5646 209.166 54.9246 209.582 54.3486C209.998 53.7566 210.59 53.2926 211.358 52.9566C212.142 52.6206 213.038 52.4526 214.046 52.4526C215.55 52.4526 216.758 52.8366 217.67 53.6046C218.598 54.3566 219.094 55.3886 219.158 56.7006H216.422C216.374 56.1086 216.134 55.6366 215.702 55.2846C215.27 54.9326 214.686 54.7566 213.95 54.7566C213.23 54.7566 212.678 54.8926 212.294 55.1646C211.91 55.4366 211.718 55.7966 211.718 56.2446C211.718 56.5966 211.846 56.8926 212.102 57.1326C212.358 57.3726 212.67 57.5646 213.038 57.7086C213.406 57.8366 213.95 58.0046 214.67 58.2126C215.63 58.4686 216.414 58.7326 217.022 59.0046C217.646 59.2606 218.182 59.6446 218.63 60.1566C219.078 60.6686 219.31 61.3486 219.326 62.1966C219.326 62.9486 219.118 63.6206 218.702 64.2126C218.286 64.8046 217.694 65.2686 216.926 65.6046C216.174 65.9406 215.286 66.1086 214.262 66.1086Z" fill="#4B4AD5"/>
<defs>
<clipPath id="clip0_612_143057">
<rect width="72" height="72" fill="white" transform="translate(0 4.89648)"/>
</clipPath>
</defs>
</svg>
