<svg xmlns="http://www.w3.org/2000/svg" width="20" height="21" viewBox="0 0 20 21" fill="none">
  <g clip-path="url(#clip0_670_165)">
    <path fill-rule="evenodd" clip-rule="evenodd" d="M4.13922 4.63922C4.58853 4.18992 5.19792 3.9375 5.83333 3.9375H7.5C7.90271 3.9375 8.22917 4.26396 8.22917 4.66667C8.22917 5.06937 7.90271 5.39583 7.5 5.39583H5.83333C5.58469 5.39583 5.34624 5.49461 5.17042 5.67042C4.99461 5.84624 4.89583 6.08469 4.89583 6.33333V16.3333C4.89583 16.582 4.99461 16.8204 5.17042 16.9962C5.34624 17.1721 5.58469 17.2708 5.83333 17.2708H6.66667C7.06937 17.2708 7.39583 17.5973 7.39583 18C7.39583 18.4027 7.06937 18.7292 6.66667 18.7292H5.83333C5.19792 18.7292 4.58853 18.4767 4.13922 18.0274C3.68992 17.5781 3.4375 16.9687 3.4375 16.3333V6.33333C3.4375 5.69792 3.68992 5.08853 4.13922 4.63922ZM11.7708 4.66667C11.7708 4.26396 12.0973 3.9375 12.5 3.9375H14.1667C14.8021 3.9375 15.4115 4.18992 15.8608 4.63922C16.3101 5.08853 16.5625 5.69792 16.5625 6.33333V9.66667C16.5625 10.0694 16.236 10.3958 15.8333 10.3958C15.4306 10.3958 15.1042 10.0694 15.1042 9.66667V6.33333C15.1042 6.08469 15.0054 5.84624 14.8296 5.67042C14.6538 5.49461 14.4153 5.39583 14.1667 5.39583H12.5C12.0973 5.39583 11.7708 5.06937 11.7708 4.66667Z" fill="white"/>
    <path fill-rule="evenodd" clip-rule="evenodd" d="M9.16683 3.72921C8.91819 3.72921 8.67973 3.82798 8.50392 4.00379C8.3281 4.17961 8.22933 4.41807 8.22933 4.66671C8.22933 4.91535 8.3281 5.1538 8.50392 5.32962C8.67973 5.50544 8.91819 5.60421 9.16683 5.60421H10.8335C11.0821 5.60421 11.3206 5.50544 11.4964 5.32962C11.6722 5.1538 11.771 4.91535 11.771 4.66671C11.771 4.41807 11.6722 4.17961 11.4964 4.00379C11.3206 3.82798 11.0821 3.72921 10.8335 3.72921H9.16683ZM7.47272 2.9726C7.92203 2.52329 8.53141 2.27087 9.16683 2.27087H10.8335C11.4689 2.27087 12.0783 2.52329 12.5276 2.9726C12.9769 3.4219 13.2293 4.03129 13.2293 4.66671C13.2293 5.30212 12.9769 5.91151 12.5276 6.36082C12.0783 6.81012 11.4689 7.06254 10.8335 7.06254H9.16683C8.53141 7.06254 7.92203 6.81012 7.47272 6.36082C7.02341 5.91151 6.771 5.30212 6.771 4.66671C6.771 4.03129 7.02341 3.4219 7.47272 2.9726Z" fill="white"/>
    <path fill-rule="evenodd" clip-rule="evenodd" d="M13.5467 11.8921C13.9045 11.5344 14.3897 11.3334 14.8957 11.3334C15.4016 11.3334 15.8868 11.5344 16.2446 11.8921C16.6024 12.2499 16.8033 12.7351 16.8033 13.2411C16.8033 13.747 16.6024 14.2322 16.2446 14.59L12.0779 18.7567C11.9412 18.8934 11.7557 18.9702 11.5623 18.9702H9.89567C9.49296 18.9702 9.1665 18.6438 9.1665 18.2411V16.5744C9.1665 16.381 9.24333 16.1955 9.38007 16.0588L13.5467 11.8921ZM14.8957 12.7917C14.7765 12.7917 14.6622 12.839 14.5779 12.9233L10.6248 16.8764V17.5119H11.2603L15.2134 13.5588C15.2977 13.4745 15.345 13.3602 15.345 13.2411C15.345 13.1219 15.2977 13.0076 15.2134 12.9233C15.1291 12.839 15.0148 12.7917 14.8957 12.7917Z" fill="white"/>
  </g>
  <defs>
    <clipPath id="clip0_670_165">
      <rect width="20" height="20" fill="white" transform="translate(0 0.5)"/>
    </clipPath>
  </defs>
</svg>