<svg width="20" height="18" viewBox="0 0 20 18" fill="none" xmlns="http://www.w3.org/2000/svg">
<path d="M18.25 0.75H1.75C1.35218 0.75 0.970644 0.908035 0.68934 1.18934C0.408035 1.47064 0.25 1.85218 0.25 2.25V15.75C0.25 16.1478 0.408035 16.5294 0.68934 16.8107C0.970644 17.092 1.35218 17.25 1.75 17.25H18.25C18.6478 17.25 19.0294 17.092 19.3107 16.8107C19.592 16.5294 19.75 16.1478 19.75 15.75V2.25C19.75 1.85218 19.592 1.47064 19.3107 1.18934C19.0294 0.908035 18.6478 0.75 18.25 0.75ZM6.7 10.65C6.85913 10.7693 6.96433 10.947 6.99246 11.1439C7.02059 11.3408 6.96935 11.5409 6.85 11.7C6.73065 11.8591 6.55298 11.9643 6.35607 11.9925C6.15915 12.0206 5.95913 11.9693 5.8 11.85L2.8 9.6C2.70685 9.53014 2.63125 9.43955 2.57918 9.33541C2.52711 9.23127 2.5 9.11643 2.5 9C2.5 8.88357 2.52711 8.76873 2.57918 8.66459C2.63125 8.56045 2.70685 8.46986 2.8 8.4L5.8 6.15C5.95913 6.03065 6.15915 5.97941 6.35607 6.00754C6.55298 6.03567 6.73065 6.14087 6.85 6.3C6.96935 6.45913 7.02059 6.65915 6.99246 6.85607C6.96433 7.05298 6.85913 7.23065 6.7 7.35L4.49969 9L6.7 10.65ZM12.2209 3.95625L9.22094 14.4562C9.19537 14.5526 9.15084 14.6429 9.08995 14.7219C9.02907 14.8009 8.95305 14.8669 8.86634 14.9161C8.77963 14.9654 8.68398 14.9968 8.58497 15.0086C8.48596 15.0205 8.38559 15.0124 8.28972 14.985C8.19386 14.9576 8.10443 14.9113 8.02665 14.8489C7.94888 14.7865 7.88433 14.7092 7.83678 14.6216C7.78923 14.5339 7.75964 14.4377 7.74973 14.3385C7.73982 14.2393 7.74979 14.1391 7.77906 14.0438L10.7791 3.54375C10.8367 3.356 10.9657 3.19836 11.1384 3.1047C11.311 3.01105 11.5135 2.98884 11.7023 3.04286C11.8911 3.09688 12.0512 3.22282 12.1482 3.39361C12.2452 3.5644 12.2713 3.76641 12.2209 3.95625ZM17.2 9.6L14.2 11.85C14.0409 11.9693 13.8408 12.0206 13.6439 11.9925C13.447 11.9643 13.2693 11.8591 13.15 11.7C13.0307 11.5409 12.9794 11.3408 13.0075 11.1439C13.0357 10.947 13.1409 10.7693 13.3 10.65L15.5003 9L13.3 7.35C13.2212 7.29091 13.1548 7.21687 13.1046 7.13212C13.0545 7.04737 13.0215 6.95357 13.0075 6.85607C12.9936 6.75856 12.999 6.65927 13.0235 6.56386C13.0479 6.46845 13.0909 6.37879 13.15 6.3C13.2091 6.22121 13.2831 6.15482 13.3679 6.10464C13.4526 6.05446 13.5464 6.02147 13.6439 6.00754C13.7414 5.99361 13.8407 5.99902 13.9361 6.02346C14.0315 6.04791 14.1212 6.09091 14.2 6.15L17.2 8.4C17.2931 8.46986 17.3687 8.56045 17.4208 8.66459C17.4729 8.76873 17.5 8.88357 17.5 9C17.5 9.11643 17.4729 9.23127 17.4208 9.33541C17.3687 9.43955 17.2931 9.53014 17.2 9.6Z" fill="#716DCF"/>
</svg>
