<svg xmlns="http://www.w3.org/2000/svg" width="29" height="28" viewBox="0 0 29 28" fill="none">
  <path d="M19.5853 15.0497V19.9497C19.5853 24.033 17.952 25.6663 13.8686 25.6663H8.96862C4.88529 25.6663 3.25195 24.033 3.25195 19.9497V15.0497C3.25195 10.9663 4.88529 9.33301 8.96862 9.33301H13.8686C17.952 9.33301 19.5853 10.9663 19.5853 15.0497Z" stroke="#4B4AD5" stroke-width="1.90909" stroke-linecap="round" stroke-linejoin="round"/>
  <path d="M15.9688 3.28711H20.8682C22.8155 3.28711 23.9308 3.6829 24.583 4.33496C25.2352 4.98711 25.6309 6.10228 25.6309 8.0498V12.9492C25.6309 14.8967 25.2352 16.0119 24.583 16.6641C23.9309 17.3162 22.8157 17.7119 20.8682 17.7119H20.54V15.0498C20.54 12.9142 20.1187 11.1707 18.9336 9.98535C17.7482 8.8 16.004 8.37891 13.8682 8.37891H11.2061V8.0498C11.2061 6.10228 11.6018 4.98711 12.2539 4.33496C12.9061 3.68281 14.0212 3.28711 15.9688 3.28711Z" stroke="#4B4AD5" stroke-width="1.90909" stroke-linecap="round" stroke-linejoin="round"/>
</svg>