<svg width="20" height="20" viewBox="0 0 20 20" fill="none" xmlns="http://www.w3.org/2000/svg">
<g clip-path="url(#clip0_205_7775)">
<path d="M9.99788 19.9981C8.02009 19.998 6.08673 19.4115 4.44227 18.3127C2.79781 17.2139 1.51611 15.6521 0.759246 13.8249C0.00238441 11.9976 -0.195649 9.98698 0.190189 8.0472C0.576027 6.10741 1.52841 4.3256 2.9269 2.92707C3.8538 1.99091 4.95654 1.24712 6.17177 0.738431C7.38701 0.229747 8.69078 -0.0338031 10.0082 -0.0370785C11.3256 -0.0403539 12.6306 0.21671 13.8484 0.719345C15.0661 1.22198 16.1726 1.96028 17.1041 2.89182C18.0357 3.82337 18.774 4.9298 19.2766 6.14754C19.7792 7.36529 20.0363 8.67035 20.033 9.98775C20.0297 11.3052 19.7662 12.6089 19.2575 13.8242C18.7488 15.0394 18.005 16.1421 17.0689 17.069C16.1425 18.0006 15.0405 18.7391 13.8268 19.2419C12.613 19.7447 11.3116 20.0017 9.99788 19.9981Z" fill="#A461D8"/>
<path d="M9.99847 19.6063C15.3047 19.6063 19.6063 15.3047 19.6063 9.99847C19.6063 4.6922 15.3047 0.390625 9.99847 0.390625C4.6922 0.390625 0.390625 4.6922 0.390625 9.99847C0.390625 15.3047 4.6922 19.6063 9.99847 19.6063Z" fill="#A461D8"/>
<path d="M9.75122 15.2914C9.61347 15.2931 9.47677 15.2672 9.34914 15.2153C9.22151 15.1635 9.10551 15.0866 9.00793 14.9894C8.91035 14.8921 8.83315 14.7764 8.78086 14.6489C8.72856 14.5215 8.70222 14.3849 8.70338 14.2471V11.3028H6.43358C6.23468 11.3028 6.03993 11.246 5.87228 11.139C5.70463 11.032 5.57109 10.8792 5.48741 10.6988C5.40373 10.5184 5.3734 10.3177 5.39999 10.1206C5.42658 9.92353 5.50899 9.73814 5.6375 9.58633L9.45319 5.07418C9.54939 4.9578 9.67018 4.86417 9.80687 4.80002C9.94357 4.73588 10.0928 4.70281 10.2438 4.7032C10.3815 4.70157 10.5182 4.72745 10.6459 4.77932C10.7735 4.83118 10.8895 4.90799 10.9871 5.00524C11.0847 5.10249 11.1618 5.21823 11.2141 5.34569C11.2664 5.47314 11.2928 5.60975 11.2916 5.74751V8.69182H13.5599C13.7588 8.69171 13.9536 8.7485 14.1213 8.85549C14.289 8.96249 14.4226 9.11522 14.5063 9.29567C14.5901 9.47611 14.6204 9.67675 14.5938 9.87389C14.5673 10.071 14.4849 10.2565 14.3563 10.4083L10.5406 14.9205C10.4446 15.0367 10.324 15.1302 10.1875 15.1944C10.051 15.2585 9.90202 15.2916 9.75122 15.2914Z" fill="#A461D8"/>
<path d="M10.9009 5.74757V9.08404H13.5612C13.6853 9.08396 13.8068 9.11932 13.9114 9.18596C14.016 9.2526 14.0994 9.34774 14.1518 9.46018C14.2041 9.57262 14.2233 9.69768 14.207 9.82064C14.1907 9.9436 14.1396 10.0593 14.0597 10.1542L10.2436 14.6676C9.85144 15.1303 9.09576 14.8535 9.09576 14.2472V10.9107H6.43497C6.31107 10.9105 6.1898 10.8749 6.08542 10.8082C5.98103 10.7414 5.89787 10.6462 5.84569 10.5339C5.79351 10.4215 5.77449 10.2965 5.79086 10.1737C5.80723 10.0509 5.85832 9.9353 5.93811 9.84051L9.75419 5.32796C10.1456 4.86443 10.9009 5.14129 10.9009 5.74757Z" fill="#EDDFF7"/>
</g>
<defs>
<clipPath id="clip0_205_7775">
<rect width="20" height="20" fill="white"/>
</clipPath>
</defs>
</svg>
