<svg width="18" height="19" viewBox="0 0 18 19" fill="none" xmlns="http://www.w3.org/2000/svg">
<g clip-path="url(#clip0_612_78117)">
<path fill-rule="evenodd" clip-rule="evenodd" d="M9.00015 1.20605C9.41436 1.20605 9.75015 1.54184 9.75015 1.95605V2.74813C11.2644 2.9174 12.6852 3.59557 13.773 4.68338C14.8609 5.77127 15.5391 7.19227 15.7083 8.70664H16.5C16.9142 8.70664 17.25 9.04243 17.25 9.45664C17.25 9.87085 16.9142 10.2066 16.5 10.2066H15.7083C15.539 11.7208 14.8608 13.1416 13.773 14.2293C12.6852 15.3171 11.2644 15.9953 9.75015 16.1646V16.9561C9.75015 17.3703 9.41436 17.7061 9.00015 17.7061C8.58593 17.7061 8.25015 17.3703 8.25015 16.9561V16.1646C6.73586 15.9953 5.31494 15.3172 4.2271 14.2293C3.13935 13.1416 2.46119 11.7208 2.29188 10.2066H1.5C1.08579 10.2066 0.75 9.87085 0.75 9.45664C0.75 9.04243 1.08579 8.70664 1.5 8.70664H2.29181C2.46102 7.19227 3.13921 5.77127 4.2271 4.68338C5.31494 3.59554 6.73586 2.91736 8.25015 2.74811V1.95605C8.25015 1.54184 8.58593 1.20605 9.00015 1.20605ZM12.7124 5.74404C13.6947 6.72633 14.2475 8.05779 14.2501 9.4467L14.25 9.45664L14.2501 9.46651C14.2474 10.8552 13.6946 12.1865 12.7124 13.1687C11.7325 14.1485 10.4052 14.7011 9.01994 14.7063L9.00015 14.7061L8.98033 14.7063C7.59507 14.7011 6.26767 14.1486 5.28776 13.1687C4.3032 12.1841 3.75007 10.8487 3.75007 9.45635C3.75007 8.06396 4.3032 6.7286 5.28776 5.74404C6.27233 4.75947 7.60769 4.20635 9.00007 4.20635C10.3925 4.20635 11.7278 4.75947 12.7124 5.74404ZM9.00015 6.45664C8.2045 6.45664 7.44144 6.77271 6.87883 7.33532C6.31622 7.89793 6.00015 8.66099 6.00015 9.45664C6.00015 10.2523 6.31622 11.0154 6.87883 11.578C7.44144 12.1406 8.2045 12.4566 9.00015 12.4566C9.7958 12.4566 10.5589 12.1406 11.1215 11.578C11.6841 11.0154 12.0001 10.2523 12.0001 9.45664C12.0001 8.66099 11.6841 7.89793 11.1215 7.33532C10.5589 6.77271 9.7958 6.45664 9.00015 6.45664ZM7.93949 8.39598C8.22079 8.11468 8.60232 7.95664 9.00015 7.95664C9.39797 7.95664 9.7795 8.11468 10.0608 8.39598C10.3421 8.67728 10.5001 9.05882 10.5001 9.45664C10.5001 9.85447 10.3421 10.236 10.0608 10.5173C9.7795 10.7986 9.39797 10.9566 9.00015 10.9566C8.60232 10.9566 8.22079 10.7986 7.93949 10.5173C7.65818 10.236 7.50015 9.85447 7.50015 9.45664C7.50015 9.05882 7.65818 8.67728 7.93949 8.39598Z" fill="#4B4AD5"/>
</g>
<defs>
<clipPath id="clip0_612_78117">
<rect width="18" height="18" fill="white" transform="translate(0 0.457031)"/>
</clipPath>
</defs>
</svg>
