<svg width="24" height="24" viewBox="0 0 24 24" fill="none" xmlns="http://www.w3.org/2000/svg">
<g clip-path="url(#clip0_666_13891)">
<path opacity="0.2" d="M19.712 19.7116C21.3277 18.096 19.1848 13.3336 14.9258 9.07454C10.6668 4.81551 5.90439 2.67264 4.28871 4.28831C2.67304 5.90398 4.81591 10.6664 9.07494 14.9254C13.334 19.1844 18.0964 21.3273 19.712 19.7116Z" fill="#A461D8"/>
<path d="M19.712 19.7116C21.3277 18.096 19.1848 13.3336 14.9258 9.07454C10.6668 4.81551 5.90439 2.67264 4.28871 4.28831C2.67304 5.90398 4.81591 10.6664 9.07494 14.9254C13.334 19.1844 18.0964 21.3273 19.712 19.7116Z" stroke="#A461D8" stroke-width="1.5" stroke-linecap="round" stroke-linejoin="round"/>
<path d="M14.9258 14.9255C19.1848 10.6664 21.3277 5.90404 19.712 4.28836C18.0964 2.67269 13.334 4.81556 9.07494 9.07459C4.81591 13.3336 2.67304 18.096 4.28871 19.7117C5.90439 21.3274 10.6668 19.1845 14.9258 14.9255Z" stroke="#A461D8" stroke-width="1.5" stroke-linecap="round" stroke-linejoin="round"/>
<path d="M12 13.125C12.6213 13.125 13.125 12.6213 13.125 12C13.125 11.3787 12.6213 10.875 12 10.875C11.3787 10.875 10.875 11.3787 10.875 12C10.875 12.6213 11.3787 13.125 12 13.125Z" fill="#A461D8"/>
</g>
<defs>
<clipPath id="clip0_666_13891">
<rect width="24" height="24" fill="white"/>
</clipPath>
</defs>
</svg>
