<svg width="96" height="173" viewBox="0 0 96 173" fill="none" xmlns="http://www.w3.org/2000/svg">
<path d="M154.032 132.798C110.615 132.798 70.04 150.076 55.1799 158.715C43.2263 164.638 38.5699 156.246 37.7359 151.31C37.7359 109.843 19.6451 71.0919 10.5997 56.8995C5.94785 48.0139 12.538 42.0901 16.4145 40.2389C69.1355 37.277 104.283 20.4931 115.266 12.4713C129.222 8.02847 134.003 16.7907 134.649 21.7272C136.2 61.7127 154.678 102.562 163.723 117.989C168.375 128.355 159.201 132.181 154.032 132.798Z" stroke="#7742FE" stroke-opacity="0.04" stroke-width="10.4"/>
<path d="M95.9601 163.675C68.2049 133.643 29.7537 117.142 13.9976 112.646C2.06569 108.342 5.16697 99.5044 8.2091 95.6233C38.2409 67.8681 54.7415 29.4167 59.2378 13.6604C62.6994 4.49519 71.2025 5.08856 75.0214 6.5309C110.869 41.0156 145.493 54.0928 158.325 56.3209C170.464 63.0002 167.174 72.1722 164.012 75.9233C136.044 103.76 118.271 143.883 112.881 160.466C108.347 170.622 99.7112 166.837 95.9601 163.675Z" stroke="#7742FE" stroke-opacity="0.04" stroke-width="10.4"/>
</svg>
