<svg width="24" height="20" viewBox="0 0 24 20" fill="none" xmlns="http://www.w3.org/2000/svg">
<path d="M22.6279 0.922181C22.1261 0.336517 21.3992 0.000518516 20.6337 0.000518516C20.6285 -0.000648146 20.6291 0.000518516 20.6268 0.000518516C20.0311 0.00110185 19.4538 0.208767 18.9917 0.580349C17.9891 -0.228147 16.5237 -0.196648 15.5551 0.711599C14.4863 1.71376 14.4213 3.41125 15.41 4.4945C15.4751 4.56567 17.0014 6.00066 17.9597 6.90016H14.6756L13.8526 4.62225C13.7933 4.45833 13.6368 4.351 13.4659 4.3545C13.2938 4.358 13.143 4.47233 13.0906 4.63858L11.2166 10.5973L9.63043 5.43133C9.57863 5.26333 9.42726 5.14783 9.25403 5.14433C9.07964 5.14025 8.92424 5.24991 8.86611 5.41558L8.09315 7.6194L4.03557 7.6229C3.81629 7.6229 3.63672 7.8049 3.63672 8.02715C3.63672 8.2494 3.81629 8.4314 4.03557 8.4314L8.37747 8.43548C8.54783 8.43548 8.69978 8.32699 8.75733 8.16365L9.22064 6.84299L10.8276 12.0766C10.8799 12.247 11.0348 12.3631 11.2109 12.3636H11.212C11.3876 12.3636 11.5424 12.2487 11.5959 12.0796L13.501 6.02283L14.0161 7.44849C14.0742 7.60949 14.2256 7.71624 14.3942 7.71624C14.3942 7.71624 18.9807 7.71915 18.9917 7.71915C19.0878 7.71915 19.1833 7.68474 19.2599 7.61532C19.4446 7.44849 21.8181 5.27208 22.3787 4.68525C23.4654 3.71575 23.5782 2.03109 22.6274 0.921598L22.6279 0.922181ZM21.8371 4.0815C21.8279 4.08967 21.8193 4.09784 21.8107 4.10717C21.3871 4.55458 19.6731 6.13599 18.994 6.75957C18.2314 6.04616 16.1352 4.071 15.9965 3.9345C15.3145 3.18142 15.3611 2.00601 16.1024 1.31126C16.8454 0.614766 18.0086 0.660265 18.6958 1.41335C18.7724 1.49676 18.8794 1.5446 18.9917 1.5446C19.1039 1.5446 19.2109 1.49676 19.2875 1.41335C19.6322 1.03476 20.1214 0.817765 20.6297 0.817765H20.6325C20.6325 0.817765 20.6371 0.817765 20.6394 0.817765C21.1689 0.819515 21.6714 1.05285 22.019 1.45826C22.6826 2.23234 22.6009 3.4095 21.8366 4.08209L21.8371 4.0815Z" fill="white" fill-opacity="0.5"/>
<path d="M14.8695 8.76416C14.6466 8.76416 14.4662 8.94212 14.4662 9.16198V18.7342C14.4662 18.8496 14.4138 18.9615 14.3213 19.0528C14.2002 19.1682 14.0268 19.244 13.8412 19.2279C13.4903 19.2199 13.2564 18.9455 13.2564 18.6986V18.0104C13.2564 17.7916 13.0748 17.6125 12.8531 17.6125H2.02353V2.61381L12.8991 2.62759C13.126 2.62759 13.3099 2.44677 13.3099 2.22289C13.3099 1.99901 13.126 1.81818 12.8996 1.81818H2.02353C1.57835 1.81818 1.21698 2.17467 1.21698 2.61381V17.6125H0.410437C0.188143 17.6125 0.00716492 17.7916 0.00716492 18.0104V18.6033C-0.0696488 19.2595 0.478522 19.8525 1.29787 19.996C1.32173 20 1.35839 20 1.38225 20H13.6591C13.6835 20 13.7033 20 13.7277 19.996C13.7597 19.996 13.7882 20 13.8202 20H13.861C14.2439 20 14.6152 19.8525 14.8852 19.5982C15.1354 19.3553 15.2727 19.0408 15.2727 18.7107V9.16198C15.2727 8.94212 15.0923 8.76416 14.8695 8.76416ZM1.40669 19.2038C1.08372 19.1401 0.772974 18.9294 0.809636 18.6866C0.813709 18.6671 0.813709 18.647 0.813709 18.6269V18.4082H12.4492V18.6745C12.4492 18.8617 12.4935 19.0408 12.5703 19.2038H1.40669Z" fill="white" fill-opacity="0.5"/>
<path d="M4.05027 5.45454C3.8229 5.45454 3.63672 5.61826 3.63672 5.81818C3.63672 6.0181 3.8229 6.18182 4.05027 6.18182H7.22317C7.45173 6.18182 7.63672 6.01915 7.63672 5.81818C7.63672 5.61721 7.45173 5.45454 7.22317 5.45454H4.05027Z" fill="white" fill-opacity="0.5"/>
<path d="M8.3241 9.81818H4.04024C3.81723 9.81818 3.63672 9.98085 3.63672 10.1818C3.63672 10.3828 3.81723 10.5455 4.04024 10.5455H8.3241C8.54712 10.5455 8.72763 10.3828 8.72763 10.1818C8.72763 9.98085 8.54712 9.81818 8.3241 9.81818Z" fill="white" fill-opacity="0.5"/>
<path d="M4.04024 12.7273H8.3241C8.54712 12.7273 8.72763 12.5646 8.72763 12.3636C8.72763 12.1627 8.54712 12 8.3241 12H4.04024C3.81723 12 3.63672 12.1627 3.63672 12.3636C3.63672 12.5646 3.81723 12.7273 4.04024 12.7273Z" fill="white" fill-opacity="0.5"/>
<path d="M4.03455 14.9091H12.3298C12.5497 14.9091 12.7276 14.7464 12.7276 14.5455C12.7276 14.3445 12.5497 14.1818 12.3298 14.1818H4.03455C3.81468 14.1818 3.63672 14.3445 3.63672 14.5455C3.63672 14.7464 3.81468 14.9091 4.03455 14.9091Z" fill="white" fill-opacity="0.5"/>
</svg>
