<svg xmlns="http://www.w3.org/2000/svg" width="20" height="20" viewBox="0 0 20 20" fill="none">
  <g clip-path="url(#clip0_932_26663)">
    <path fill-rule="evenodd" clip-rule="evenodd" d="M4.06573 4.06558C4.53457 3.59674 5.17046 3.33334 5.8335 3.33334H7.50016C7.9604 3.33334 8.3335 3.70644 8.3335 4.16668C8.3335 4.62691 7.9604 5.00001 7.50016 5.00001H5.8335C5.61248 5.00001 5.40052 5.08781 5.24424 5.24409C5.08796 5.40037 5.00016 5.61233 5.00016 5.83334V15.8333C5.00016 16.0544 5.08796 16.2663 5.24424 16.4226C5.40052 16.5789 5.61248 16.6667 5.8335 16.6667H14.1668C14.3878 16.6667 14.5998 16.5789 14.7561 16.4226C14.9124 16.2663 15.0002 16.0544 15.0002 15.8333V5.83334C15.0002 5.61233 14.9124 5.40037 14.7561 5.24409C14.5998 5.08781 14.3878 5.00001 14.1668 5.00001H12.5002C12.0399 5.00001 11.6668 4.62691 11.6668 4.16668C11.6668 3.70644 12.0399 3.33334 12.5002 3.33334H14.1668C14.8299 3.33334 15.4658 3.59674 15.9346 4.06558C16.4034 4.53442 16.6668 5.1703 16.6668 5.83334V15.8333C16.6668 16.4964 16.4034 17.1323 15.9346 17.6011C15.4658 18.07 14.8299 18.3333 14.1668 18.3333H5.8335C5.17045 18.3333 4.53457 18.07 4.06573 17.6011C3.59689 17.1323 3.3335 16.4964 3.3335 15.8333V5.83334C3.3335 5.1703 3.59689 4.53442 4.06573 4.06558Z" fill="white"/>
    <path fill-rule="evenodd" clip-rule="evenodd" d="M9.1665 3.33332C8.94549 3.33332 8.73353 3.42112 8.57725 3.5774C8.42097 3.73368 8.33317 3.94564 8.33317 4.16666C8.33317 4.38767 8.42097 4.59963 8.57725 4.75591C8.73353 4.91219 8.94549 4.99999 9.1665 4.99999H10.8332C11.0542 4.99999 11.2661 4.91219 11.4224 4.75591C11.5787 4.59963 11.6665 4.38767 11.6665 4.16666C11.6665 3.94564 11.5787 3.73368 11.4224 3.5774C11.2661 3.42112 11.0542 3.33332 10.8332 3.33332H9.1665ZM7.39874 2.39889C7.86758 1.93005 8.50346 1.66666 9.1665 1.66666H10.8332C11.4962 1.66666 12.1321 1.93005 12.6009 2.39889C13.0698 2.86773 13.3332 3.50361 13.3332 4.16666C13.3332 4.8297 13.0698 5.46558 12.6009 5.93442C12.1321 6.40326 11.4962 6.66666 10.8332 6.66666H9.1665C8.50346 6.66666 7.86758 6.40326 7.39874 5.93442C6.9299 5.46558 6.6665 4.8297 6.6665 4.16666C6.6665 3.50361 6.9299 2.86773 7.39874 2.39889Z" fill="white"/>
  </g>
  <defs>
    <clipPath id="clip0_932_26663">
      <rect width="20" height="20" fill="white"/>
    </clipPath>
  </defs>
</svg>