<svg width="24" height="24" viewBox="0 0 24 24" fill="none" xmlns="http://www.w3.org/2000/svg">
<g id="Diagnosis">
<path id="Shape" d="M22 11.9995C22 17.5224 17.5228 21.9995 12 21.9995C6.47715 21.9995 2 17.5224 2 11.9995C2 6.47666 6.47715 1.99951 12 1.99951C17.5228 1.99951 22 6.47666 22 11.9995Z" fill="#A461D8" fill-opacity="0.25"/>
<path id="Shape_2" fill-rule="evenodd" clip-rule="evenodd" d="M14.2929 7.2924C14.6834 6.90188 15.3166 6.90188 15.7071 7.2924C16.0976 7.68293 16.0976 8.31609 15.7071 8.70662L12.7071 11.7066C12.3166 12.0971 11.6834 12.0971 11.2929 11.7066C10.9024 11.3161 10.9024 10.6829 11.2929 10.2924L14.2929 7.2924ZM6.29289 10.2924C6.68342 9.90188 7.31658 9.90188 7.70711 10.2924L8.70711 11.2924C9.09763 11.6829 9.09763 12.3161 8.70711 12.7066C8.31658 13.0971 7.68342 13.0971 7.29289 12.7066L6.29289 11.7066C5.90237 11.3161 5.90237 10.6829 6.29289 10.2924ZM10 8.99951C10.5523 8.99951 11 8.5518 11 7.99951C11 7.44723 10.5523 6.99951 10 6.99951C9.44772 6.99951 9 7.44723 9 7.99951C9 8.5518 9.44772 8.99951 10 8.99951ZM10 15.9995C10 16.5518 9.55228 16.9995 9 16.9995C8.44772 16.9995 8 16.5518 8 15.9995C8 15.4472 8.44772 14.9995 9 14.9995C9.55228 14.9995 10 15.4472 10 15.9995ZM18 11.4995C18 10.9472 17.5523 10.4995 17 10.4995C16.4477 10.4995 16 10.9472 16 11.4995V11.9995C16 12.5518 15.5523 12.9995 15 12.9995C13.3431 12.9995 12 14.3427 12 15.9995V16.4995C12 17.0518 12.4477 17.4995 13 17.4995C13.5523 17.4995 14 17.0518 14 16.4995V15.9995C14 15.4472 14.4477 14.9995 15 14.9995C16.6569 14.9995 18 13.6564 18 11.9995V11.4995Z" fill="#A461D8"/>
</g>
</svg>
