<svg width="24" height="25" viewBox="0 0 24 25" fill="none" xmlns="http://www.w3.org/2000/svg">
<rect x="8" y="10.5" width="9" height="8" fill="#A461D8"/>
<path d="M19.5 7.55019H12.5L9.87 4.37019C9.77695 4.25547 9.65964 4.1628 9.5265 4.09882C9.39336 4.03485 9.24771 4.00116 9.1 4.00019H4.5C3.84661 3.99216 3.21666 4.24338 2.7481 4.69883C2.27953 5.15427 2.01053 5.77683 2 6.43019V18.5702C2.01053 19.2235 2.27953 19.8461 2.7481 20.3015C3.21666 20.757 3.84661 21.0082 4.5 21.0002H19.5C20.1534 21.0082 20.7833 20.757 21.2519 20.3015C21.7205 19.8461 21.9895 19.2235 22 18.5702V9.98019C21.9895 9.32683 21.7205 8.70427 21.2519 8.24883C20.7833 7.79338 20.1534 7.54217 19.5 7.55019ZM14 15.5002H13V16.5002C13 16.7654 12.8946 17.0198 12.7071 17.2073C12.5196 17.3948 12.2652 17.5002 12 17.5002C11.7348 17.5002 11.4804 17.3948 11.2929 17.2073C11.1054 17.0198 11 16.7654 11 16.5002V15.5002H10C9.73478 15.5002 9.48043 15.3948 9.29289 15.2073C9.10536 15.0198 9 14.7654 9 14.5002C9 14.235 9.10536 13.9806 9.29289 13.7931C9.48043 13.6055 9.73478 13.5002 10 13.5002H11V12.5002C11 12.235 11.1054 11.9806 11.2929 11.7931C11.4804 11.6055 11.7348 11.5002 12 11.5002C12.2652 11.5002 12.5196 11.6055 12.7071 11.7931C12.8946 11.9806 13 12.235 13 12.5002V13.5002H14C14.2652 13.5002 14.5196 13.6055 14.7071 13.7931C14.8946 13.9806 15 14.235 15 14.5002C15 14.7654 14.8946 15.0198 14.7071 15.2073C14.5196 15.3948 14.2652 15.5002 14 15.5002Z" fill="white"/>
<path d="M2 6.5C2 5.11929 3.11929 4 4.5 4H9.13443C9.43585 4 9.72119 4.13596 9.91107 4.37005L12.4498 7.50001H2V6.5Z" fill="#A461D8"/>
</svg>
