<svg width="24" height="24" viewBox="0 0 24 24" fill="none" xmlns="http://www.w3.org/2000/svg">
<g id="Medical History">
<path id="Shape" d="M7 3.00049C5.34315 3.00049 4 4.34363 4 6.00049V19.0005C4 20.6573 5.34315 22.0005 7 22.0005H17C18.6569 22.0005 20 20.6573 20 19.0005V6.00049C20 4.34363 18.6569 3.00049 17 3.00049H7Z" fill="#EDDFF7"/>
<path id="Shape_2" fill-rule="evenodd" clip-rule="evenodd" d="M9 11.0005C8.44772 11.0005 8 11.4482 8 12.0005C8 12.5528 8.44772 13.0005 9 13.0005H15C15.5523 13.0005 16 12.5528 16 12.0005C16 11.4482 15.5523 11.0005 15 11.0005H9ZM9 15.0005C8.44772 15.0005 8 15.4482 8 16.0005C8 16.5528 8.44772 17.0005 9 17.0005H13C13.5523 17.0005 14 16.5528 14 16.0005C14 15.4482 13.5523 15.0005 13 15.0005H9Z" fill="#A461D8"/>
<path id="Shape_3" d="M9 3.00049C9 2.4482 9.44772 2.00049 10 2.00049H14C14.5523 2.00049 15 2.4482 15 3.00049V4.00049C15 4.55277 14.5523 5.00049 14 5.00049H10C9.44772 5.00049 9 4.55277 9 4.00049V3.00049Z" fill="#A461D8"/>
</g>
</svg>
