<svg width="20" height="20" viewBox="0 0 20 20" fill="none" xmlns="http://www.w3.org/2000/svg">
<path opacity="0.4" d="M16.992 7.09856V7.1V13.7333C16.992 15.0757 16.5943 16.0864 15.9197 16.761C15.2451 17.4356 14.2344 17.8333 12.892 17.8333H6.26699C4.9291 17.8333 3.91827 17.4358 3.24242 16.76C2.56661 16.0842 2.16699 15.0713 2.16699 13.725V7.1C2.16699 5.75826 2.56638 4.74745 3.24219 4.07254C3.9181 3.39751 4.92909 3 6.26699 3H12.9003C14.2383 3 15.2491 3.39756 15.9239 4.0723C16.5984 4.74683 16.9959 5.75715 16.992 7.09856Z" fill="#A461D8" stroke="#A461D8"/>
<path d="M13.3849 2.83641L13.3849 2.83641L13.3865 2.83484C14.1012 2.12008 14.7283 1.84064 15.2874 1.84378C15.8474 1.84692 16.4658 2.13425 17.1612 2.83337C17.8686 3.54868 18.1496 4.17101 18.1496 4.73962C18.1496 5.29661 17.8719 5.90182 17.1627 6.61106L17.1611 6.61265L16.3108 7.47059C14.5161 6.92059 13.077 5.48152 12.5269 3.68675L13.3849 2.83641Z" fill="#A461D8" stroke="#A461D8"/>
<path d="M13.9809 8.77126C14.1975 8.90634 14.4261 9.02086 14.6448 9.12643L10.6967 13.0746L10.6967 13.0745L10.6917 13.0796C10.5956 13.1785 10.4357 13.2922 10.2437 13.389C10.052 13.4858 9.86533 13.5471 9.72966 13.5665C9.72962 13.5665 9.72958 13.5665 9.72954 13.5665L7.26762 13.9146C7.17844 13.9227 7.11258 13.9281 7.05025 13.9281C6.74898 13.9281 6.50686 13.8276 6.33713 13.6579L5.98358 14.0115L6.33713 13.6579C6.14306 13.4638 6.02999 13.1395 6.08683 12.7409C6.08685 12.7408 6.08687 12.7406 6.08689 12.7405L6.44512 10.2579L6.44522 10.2572C6.46425 10.124 6.5264 9.93815 6.62496 9.74461C6.72321 9.55169 6.83853 9.38862 6.93713 9.29001L10.888 5.33914C10.9916 5.56225 11.1048 5.7794 11.2354 5.99749C11.3364 6.17376 11.4502 6.35121 11.5563 6.4896C11.6643 6.66079 11.7841 6.81642 11.8789 6.92542C11.9343 7.01263 11.9912 7.07502 12.022 7.10674C12.2832 7.41713 12.5689 7.71321 12.8493 7.94246C12.8824 7.97484 12.9138 8.00388 12.9422 8.02841C12.9428 8.02897 12.9436 8.02959 12.9443 8.03028C12.9559 8.0403 12.9829 8.06365 13.0181 8.08829C13.151 8.19912 13.3132 8.33381 13.4682 8.43302C13.6363 8.55603 13.8102 8.66874 13.9809 8.77126Z" fill="#A461D8" stroke="#A461D8"/>
</svg>
