<svg width="284" height="78" viewBox="0 0 284 78" fill="none" xmlns="http://www.w3.org/2000/svg">
<path d="M4.09877 29.4128C5.05907 29.4128 5.90153 29.6005 6.62612 29.9759C7.35945 30.3513 7.92254 30.8882 8.31539 31.5866C8.71697 32.2763 8.91776 33.0795 8.91776 33.9961C8.91776 34.9128 8.71697 35.716 8.31539 36.4056C7.92254 37.0866 7.35945 37.6147 6.62612 37.9901C5.90153 38.3655 5.05907 38.5532 4.09877 38.5532H0.903562V29.4128H4.09877ZM4.03329 36.9949C4.9936 36.9949 5.73565 36.733 6.25946 36.2092C6.78326 35.6854 7.04516 34.9477 7.04516 33.9961C7.04516 33.0446 6.78326 32.3025 6.25946 31.77C5.73565 31.2287 4.9936 30.9581 4.03329 30.9581H2.73688V36.9949H4.03329ZM13.5115 38.6711C12.8131 38.6711 12.1845 38.5183 11.6258 38.2128C11.0671 37.8985 10.6262 37.4576 10.3032 36.8901C9.9889 36.3227 9.83176 35.6679 9.83176 34.9259C9.83176 34.1838 9.99327 33.5291 10.3163 32.9616C10.648 32.3942 11.0976 31.9577 11.6651 31.6521C12.2325 31.3378 12.8655 31.1807 13.5639 31.1807C14.2623 31.1807 14.8952 31.3378 15.4627 31.6521C16.0301 31.9577 16.4753 32.3942 16.7984 32.9616C17.1301 33.5291 17.296 34.1838 17.296 34.9259C17.296 35.6679 17.1257 36.3227 16.7853 36.8901C16.4535 37.4576 15.9996 37.8985 15.4234 38.2128C14.8559 38.5183 14.2186 38.6711 13.5115 38.6711ZM13.5115 37.0735C13.8432 37.0735 14.1531 36.9949 14.4412 36.8378C14.7381 36.6719 14.9738 36.4275 15.1484 36.1044C15.323 35.7814 15.4103 35.3886 15.4103 34.9259C15.4103 34.2362 15.2269 33.708 14.8603 33.3414C14.5023 32.966 14.0615 32.7783 13.5377 32.7783C13.0139 32.7783 12.573 32.966 12.2151 33.3414C11.8659 33.708 11.6913 34.2362 11.6913 34.9259C11.6913 35.6156 11.8615 36.1481 12.202 36.5235C12.5512 36.8901 12.9877 37.0735 13.5115 37.0735ZM21.4169 38.6711C20.8233 38.6711 20.2908 38.5663 19.8193 38.3568C19.3479 38.1385 18.9725 37.8461 18.6932 37.4794C18.4225 37.1128 18.2741 36.7068 18.2479 36.2616H20.0943C20.1292 36.5409 20.2646 36.7723 20.5003 36.9556C20.7447 37.139 21.0459 37.2306 21.4038 37.2306C21.753 37.2306 22.0237 37.1608 22.2157 37.0211C22.4165 36.8814 22.5169 36.7024 22.5169 36.4842C22.5169 36.2485 22.3947 36.0739 22.1503 35.9604C21.9145 35.8382 21.5348 35.7072 21.011 35.5675C20.4697 35.4366 20.0245 35.3013 19.6753 35.1616C19.3348 35.0219 19.038 34.808 18.7848 34.5199C18.5404 34.2318 18.4182 33.8434 18.4182 33.3545C18.4182 32.9529 18.5316 32.5862 18.7586 32.2545C18.9943 31.9227 19.3261 31.6608 19.7539 31.4688C20.1904 31.2767 20.7011 31.1807 21.286 31.1807C22.1503 31.1807 22.8399 31.3989 23.355 31.8354C23.8701 32.2632 24.1538 32.8438 24.2062 33.5771H22.4514C22.4253 33.289 22.303 33.062 22.0848 32.8961C21.8753 32.7215 21.5915 32.6342 21.2336 32.6342C20.9019 32.6342 20.6443 32.6953 20.461 32.8176C20.2864 32.9398 20.1991 33.11 20.1991 33.3283C20.1991 33.5727 20.3213 33.7604 20.5658 33.8914C20.8102 34.0136 21.19 34.1402 21.705 34.2711C22.2288 34.4021 22.661 34.5374 23.0014 34.6771C23.3419 34.8168 23.6344 35.035 23.8788 35.3318C24.132 35.6199 24.2629 36.004 24.2717 36.4842C24.2717 36.9032 24.1538 37.2786 23.9181 37.6104C23.6911 37.9421 23.3594 38.204 22.9229 38.3961C22.4951 38.5794 21.9931 38.6711 21.4169 38.6711ZM32.5206 34.7687C32.5206 35.0306 32.5031 35.2664 32.4682 35.4759H27.1647C27.2083 35.9997 27.3916 36.41 27.7147 36.7068C28.0377 37.0036 28.4349 37.152 28.9063 37.152C29.5873 37.152 30.0718 36.8596 30.3599 36.2747H32.3372C32.1277 36.9731 31.7261 37.5493 31.1325 38.0032C30.5388 38.4485 29.8099 38.6711 28.9456 38.6711C28.2472 38.6711 27.6186 38.5183 27.0599 38.2128C26.5099 37.8985 26.0778 37.4576 25.7635 36.8901C25.4579 36.3227 25.3052 35.6679 25.3052 34.9259C25.3052 34.1751 25.4579 33.516 25.7635 32.9485C26.069 32.3811 26.4968 31.9446 27.0468 31.639C27.5968 31.3335 28.2297 31.1807 28.9456 31.1807C29.6353 31.1807 30.2507 31.3291 30.792 31.6259C31.342 31.9227 31.7654 32.3461 32.0622 32.8961C32.3678 33.4374 32.5206 34.0616 32.5206 34.7687ZM30.6218 34.2449C30.613 33.7735 30.4428 33.3981 30.1111 33.1188C29.7793 32.8307 29.3734 32.6866 28.8932 32.6866C28.4393 32.6866 28.0551 32.8263 27.7408 33.1057C27.4353 33.3763 27.2476 33.7561 27.1778 34.2449H30.6218Z" fill="#454551"/>
<path d="M47.6791 31.5212V33.1188H40.5423V31.5212H47.6791ZM47.6791 34.664V36.2616H40.5423V34.664H47.6791Z" fill="#454551"/>
<path d="M70.179 66.6413C66.9307 63.4275 64.3735 59.3153 62.5075 54.3046C60.6414 49.2593 59.7084 43.7821 59.7084 37.873C59.7084 31.8947 60.676 26.3484 62.6112 21.234C64.5463 16.1196 67.259 11.9037 70.7492 8.58632H74.5332V8.94917C70.8356 12.5776 68.0192 16.9144 66.0841 21.9597C64.1835 27.0049 63.2332 32.3094 63.2332 37.873C63.2332 43.3675 64.1489 48.5682 65.9804 53.4752C67.8119 58.3823 70.49 62.65 74.0148 66.2784V66.6413H70.179Z" fill="#454551"/>
<path d="M268.657 66.6413C271.905 63.4275 274.462 59.3153 276.328 54.3046C278.195 49.2593 279.128 43.7821 279.128 37.873C279.128 31.8947 278.16 26.3484 276.225 21.234C274.29 16.1196 271.577 11.9037 268.087 8.58632H264.303V8.94917C268 12.5776 270.817 16.9144 272.752 21.9597C274.652 27.0049 275.603 32.3094 275.603 37.873C275.603 43.3675 274.687 48.5682 272.856 53.4752C271.024 58.3823 268.346 62.65 264.821 66.2784V66.6413H268.657Z" fill="#454551"/>
<path d="M125.785 55.2628C125.785 54.3724 125.985 53.5735 126.387 52.8664C126.788 52.1505 127.334 51.5918 128.024 51.1902C128.722 50.7887 129.495 50.5879 130.342 50.5879C131.337 50.5879 132.205 50.8279 132.948 51.3081C133.69 51.7883 134.231 52.4692 134.571 53.3509H133.144C132.891 52.8009 132.524 52.3775 132.044 52.0807C131.573 51.7839 131.005 51.6355 130.342 51.6355C129.704 51.6355 129.133 51.7839 128.626 52.0807C128.12 52.3775 127.723 52.8009 127.435 53.3509C127.146 53.8922 127.002 54.5295 127.002 55.2628C127.002 55.9874 127.146 56.6247 127.435 57.1747C127.723 57.716 128.12 58.135 128.626 58.4318C129.133 58.7287 129.704 58.8771 130.342 58.8771C131.005 58.8771 131.573 58.733 132.044 58.4449C132.524 58.1481 132.891 57.7247 133.144 57.1747H134.571C134.231 58.0477 133.69 58.7243 132.948 59.2044C132.205 59.6759 131.337 59.9116 130.342 59.9116C129.495 59.9116 128.722 59.7152 128.024 59.3223C127.334 58.9207 126.788 58.3664 126.387 57.6592C125.985 56.9521 125.785 56.1533 125.785 55.2628ZM139.475 59.9509C138.803 59.9509 138.192 59.7981 137.642 59.4925C137.1 59.187 136.673 58.7548 136.358 58.1961C136.053 57.6287 135.9 56.9739 135.9 56.2319C135.9 55.4985 136.057 54.8525 136.371 54.2938C136.694 53.7263 137.131 53.2942 137.681 52.9974C138.231 52.6918 138.846 52.539 139.527 52.539C140.208 52.539 140.824 52.6918 141.374 52.9974C141.924 53.2942 142.356 53.722 142.67 54.2807C142.993 54.8394 143.155 55.4898 143.155 56.2319C143.155 56.9739 142.989 57.6287 142.657 58.1961C142.334 58.7548 141.893 59.187 141.334 59.4925C140.776 59.7981 140.156 59.9509 139.475 59.9509ZM139.475 58.9033C139.903 58.9033 140.304 58.8029 140.68 58.6021C141.055 58.4013 141.356 58.1001 141.583 57.6985C141.819 57.2969 141.937 56.808 141.937 56.2319C141.937 55.6557 141.823 55.1668 141.596 54.7652C141.369 54.3636 141.073 54.0668 140.706 53.8747C140.339 53.6739 139.942 53.5735 139.514 53.5735C139.078 53.5735 138.676 53.6739 138.309 53.8747C137.952 54.0668 137.663 54.3636 137.445 54.7652C137.227 55.1668 137.118 55.6557 137.118 56.2319C137.118 56.8168 137.223 57.31 137.432 57.7116C137.65 58.1132 137.938 58.4144 138.296 58.6152C138.654 58.8072 139.047 58.9033 139.475 58.9033ZM148.218 52.5259C149.091 52.5259 149.798 52.7922 150.339 53.3247C150.881 53.8485 151.151 54.6081 151.151 55.6033V59.833H149.973V55.7735C149.973 55.0577 149.794 54.512 149.436 54.1366C149.078 53.7525 148.589 53.5605 147.969 53.5605C147.34 53.5605 146.839 53.7569 146.463 54.1497C146.096 54.5426 145.913 55.1144 145.913 55.8652V59.833H144.721V52.6569H145.913V53.6783C146.149 53.3116 146.467 53.0279 146.869 52.8271C147.279 52.6263 147.729 52.5259 148.218 52.5259ZM152.653 56.2319C152.653 55.4898 152.801 54.8438 153.098 54.2938C153.395 53.7351 153.805 53.3029 154.329 52.9974C154.861 52.6918 155.468 52.539 156.149 52.539C157.031 52.539 157.755 52.7529 158.323 53.1807C158.899 53.6085 159.279 54.2021 159.462 54.9616H158.179C158.056 54.5251 157.816 54.1803 157.458 53.9271C157.109 53.6739 156.673 53.5474 156.149 53.5474C155.468 53.5474 154.918 53.7831 154.499 54.2545C154.08 54.7172 153.87 55.3763 153.87 56.2319C153.87 57.0961 154.08 57.764 154.499 58.2354C154.918 58.7068 155.468 58.9425 156.149 58.9425C156.673 58.9425 157.109 58.8203 157.458 58.5759C157.808 58.3314 158.048 57.9822 158.179 57.5283H159.462C159.27 58.2616 158.886 58.8509 158.31 59.2961C157.733 59.7326 157.013 59.9509 156.149 59.9509C155.468 59.9509 154.861 59.7981 154.329 59.4925C153.805 59.187 153.395 58.7548 153.098 58.1961C152.801 57.6374 152.653 56.9826 152.653 56.2319ZM167.6 55.97C167.6 56.1969 167.586 56.437 167.56 56.6902H161.825C161.868 57.3973 162.108 57.9517 162.545 58.3533C162.99 58.7461 163.527 58.9425 164.156 58.9425C164.671 58.9425 165.098 58.8247 165.439 58.589C165.788 58.3445 166.032 58.0215 166.172 57.6199H167.455C167.263 58.3096 166.879 58.8727 166.303 59.3092C165.727 59.737 165.011 59.9509 164.156 59.9509C163.475 59.9509 162.863 59.7981 162.322 59.4925C161.79 59.187 161.371 58.7548 161.065 58.1961C160.76 57.6287 160.607 56.9739 160.607 56.2319C160.607 55.4898 160.755 54.8394 161.052 54.2807C161.349 53.722 161.763 53.2942 162.296 52.9974C162.837 52.6918 163.457 52.539 164.156 52.539C164.836 52.539 165.439 52.6874 165.963 52.9843C166.486 53.2811 166.888 53.6914 167.167 54.2152C167.455 54.7303 167.6 55.3152 167.6 55.97ZM166.369 55.7211C166.369 55.2672 166.268 54.8787 166.067 54.5557C165.867 54.2239 165.592 53.9751 165.242 53.8093C164.902 53.6347 164.522 53.5474 164.103 53.5474C163.501 53.5474 162.986 53.7394 162.558 54.1235C162.139 54.5077 161.899 55.0402 161.838 55.7211H166.369ZM172.669 52.5259C173.542 52.5259 174.249 52.7922 174.79 53.3247C175.332 53.8485 175.602 54.6081 175.602 55.6033V59.833H174.424V55.7735C174.424 55.0577 174.245 54.512 173.887 54.1366C173.529 53.7525 173.04 53.5605 172.42 53.5605C171.792 53.5605 171.29 53.7569 170.914 54.1497C170.547 54.5426 170.364 55.1144 170.364 55.8652V59.833H169.172V52.6569H170.364V53.6783C170.6 53.3116 170.918 53.0279 171.32 52.8271C171.73 52.6263 172.18 52.5259 172.669 52.5259ZM179.002 53.639V57.8687C179.002 58.2179 179.077 58.4668 179.225 58.6152C179.373 58.7548 179.631 58.8247 179.998 58.8247H180.875V59.833H179.801C179.138 59.833 178.64 59.6802 178.308 59.3747C177.977 59.0691 177.811 58.5671 177.811 57.8687V53.639H176.881V52.6569H177.811V50.8498H179.002V52.6569H180.875V53.639H179.002ZM183.51 53.8224C183.72 53.412 184.017 53.0934 184.401 52.8664C184.794 52.6394 185.269 52.5259 185.828 52.5259V53.7569H185.514C184.178 53.7569 183.51 54.4815 183.51 55.9307V59.833H182.319V52.6569H183.51V53.8224ZM186.759 56.2188C186.759 55.4854 186.907 54.8438 187.204 54.2938C187.501 53.7351 187.907 53.3029 188.422 52.9974C188.945 52.6918 189.526 52.539 190.163 52.539C190.792 52.539 191.338 52.6744 191.8 52.945C192.263 53.2156 192.608 53.5561 192.835 53.9664V52.6569H194.039V59.833H192.835V58.4973C192.599 58.9164 192.245 59.2656 191.774 59.5449C191.311 59.8155 190.77 59.9509 190.15 59.9509C189.513 59.9509 188.937 59.7937 188.422 59.4794C187.907 59.1652 187.501 58.7243 187.204 58.1568C186.907 57.5894 186.759 56.9434 186.759 56.2188ZM192.835 56.2319C192.835 55.6906 192.726 55.2192 192.507 54.8176C192.289 54.416 191.992 54.1104 191.617 53.9009C191.25 53.6827 190.844 53.5735 190.399 53.5735C189.954 53.5735 189.548 53.6783 189.181 53.8878C188.815 54.0974 188.522 54.4029 188.304 54.8045C188.086 55.2061 187.976 55.6775 187.976 56.2188C187.976 56.7688 188.086 57.2489 188.304 57.6592C188.522 58.0608 188.815 58.3707 189.181 58.589C189.548 58.7985 189.954 58.9033 190.399 58.9033C190.844 58.9033 191.25 58.7985 191.617 58.589C191.992 58.3707 192.289 58.0608 192.507 57.6592C192.726 57.2489 192.835 56.7731 192.835 56.2319ZM197.507 53.639V57.8687C197.507 58.2179 197.581 58.4668 197.729 58.6152C197.878 58.7548 198.135 58.8247 198.502 58.8247H199.379V59.833H198.306C197.642 59.833 197.145 59.6802 196.813 59.3747C196.481 59.0691 196.315 58.5671 196.315 57.8687V53.639H195.385V52.6569H196.315V50.8498H197.507V52.6569H199.379V53.639H197.507ZM201.439 51.4914C201.212 51.4914 201.02 51.4129 200.863 51.2557C200.705 51.0986 200.627 50.9065 200.627 50.6795C200.627 50.4526 200.705 50.2605 200.863 50.1033C201.02 49.9462 201.212 49.8676 201.439 49.8676C201.657 49.8676 201.84 49.9462 201.989 50.1033C202.146 50.2605 202.224 50.4526 202.224 50.6795C202.224 50.9065 202.146 51.0986 201.989 51.2557C201.84 51.4129 201.657 51.4914 201.439 51.4914ZM202.015 52.6569V59.833H200.823V52.6569H202.015ZM207.176 59.9509C206.503 59.9509 205.892 59.7981 205.342 59.4925C204.801 59.187 204.373 58.7548 204.059 58.1961C203.753 57.6287 203.601 56.9739 203.601 56.2319C203.601 55.4985 203.758 54.8525 204.072 54.2938C204.395 53.7263 204.832 53.2942 205.382 52.9974C205.932 52.6918 206.547 52.539 207.228 52.539C207.909 52.539 208.524 52.6918 209.074 52.9974C209.624 53.2942 210.057 53.722 210.371 54.2807C210.694 54.8394 210.855 55.4898 210.855 56.2319C210.855 56.9739 210.689 57.6287 210.358 58.1961C210.035 58.7548 209.594 59.187 209.035 59.4925C208.476 59.7981 207.857 59.9509 207.176 59.9509ZM207.176 58.9033C207.603 58.9033 208.005 58.8029 208.38 58.6021C208.756 58.4013 209.057 58.1001 209.284 57.6985C209.52 57.2969 209.637 56.808 209.637 56.2319C209.637 55.6557 209.524 55.1668 209.297 54.7652C209.07 54.3636 208.773 54.0668 208.407 53.8747C208.04 53.6739 207.643 53.5735 207.215 53.5735C206.778 53.5735 206.377 53.6739 206.01 53.8747C205.652 54.0668 205.364 54.3636 205.146 54.7652C204.928 55.1668 204.818 55.6557 204.818 56.2319C204.818 56.8168 204.923 57.31 205.133 57.7116C205.351 58.1132 205.639 58.4144 205.997 58.6152C206.355 58.8072 206.748 58.9033 207.176 58.9033ZM215.919 52.5259C216.792 52.5259 217.499 52.7922 218.04 53.3247C218.581 53.8485 218.852 54.6081 218.852 55.6033V59.833H217.673V55.7735C217.673 55.0577 217.494 54.512 217.136 54.1366C216.778 53.7525 216.29 53.5605 215.67 53.5605C215.041 53.5605 214.539 53.7569 214.164 54.1497C213.797 54.5426 213.614 55.1144 213.614 55.8652V59.833H212.422V52.6569H213.614V53.6783C213.849 53.3116 214.168 53.0279 214.57 52.8271C214.98 52.6263 215.43 52.5259 215.919 52.5259Z" fill="#454551"/>
<path d="M80.7838 20.4235C81.779 20.4235 82.6389 20.6112 83.3635 20.9866C84.0969 21.3532 84.6556 21.8814 85.0397 22.5711C85.4326 23.2608 85.629 24.0727 85.629 25.0068C85.629 25.9409 85.4326 26.7528 85.0397 27.4425C84.6556 28.1234 84.0969 28.6472 83.3635 29.0139C82.6389 29.3718 81.779 29.5508 80.7838 29.5508H77.9422V20.4235H80.7838ZM80.7838 28.5686C81.9624 28.5686 82.8616 28.2587 83.4814 27.6389C84.1012 27.0103 84.4111 26.133 84.4111 25.0068C84.4111 23.8719 84.0969 22.9858 83.4683 22.3485C82.8485 21.7112 81.9536 21.3925 80.7838 21.3925H79.1338V28.5686H80.7838ZM90.3305 29.6686C89.6583 29.6686 89.0472 29.5159 88.4972 29.2103C87.956 28.9048 87.5282 28.4726 87.2139 27.9139C86.9083 27.3464 86.7556 26.6917 86.7556 25.9496C86.7556 25.2163 86.9127 24.5703 87.227 24.0116C87.55 23.4441 87.9865 23.012 88.5365 22.7151C89.0865 22.4096 89.702 22.2568 90.3829 22.2568C91.0639 22.2568 91.6793 22.4096 92.2293 22.7151C92.7793 23.012 93.2115 23.4397 93.5257 23.9985C93.8488 24.5572 94.0103 25.2076 94.0103 25.9496C94.0103 26.6917 93.8444 27.3464 93.5126 27.9139C93.1896 28.4726 92.7488 28.9048 92.19 29.2103C91.6313 29.5159 91.0115 29.6686 90.3305 29.6686ZM90.3305 28.621C90.7583 28.621 91.1599 28.5206 91.5353 28.3198C91.9107 28.1191 92.2119 27.8179 92.4388 27.4163C92.6746 27.0147 92.7924 26.5258 92.7924 25.9496C92.7924 25.3734 92.6789 24.8846 92.4519 24.483C92.225 24.0814 91.9281 23.7846 91.5615 23.5925C91.1948 23.3917 90.7976 23.2913 90.3698 23.2913C89.9333 23.2913 89.5317 23.3917 89.1651 23.5925C88.8071 23.7846 88.519 24.0814 88.3008 24.483C88.0825 24.8846 87.9734 25.3734 87.9734 25.9496C87.9734 26.5345 88.0782 27.0278 88.2877 27.4294C88.506 27.831 88.794 28.1321 89.152 28.3329C89.5099 28.525 89.9028 28.621 90.3305 28.621ZM98.1175 29.6686C97.5675 29.6686 97.0743 29.577 96.6378 29.3936C96.2013 29.2016 95.8564 28.9397 95.6033 28.6079C95.3501 28.2675 95.2104 27.879 95.1842 27.4425H96.4152C96.4501 27.8004 96.6159 28.0929 96.9128 28.3198C97.2183 28.5468 97.6155 28.6603 98.1044 28.6603C98.5584 28.6603 98.9163 28.5599 99.1782 28.3591C99.4401 28.1583 99.5711 27.9052 99.5711 27.5996C99.5711 27.2853 99.4314 27.054 99.152 26.9056C98.8727 26.7484 98.4405 26.5957 97.8556 26.4472C97.3231 26.3076 96.8866 26.1679 96.5461 26.0282C96.2144 25.8798 95.9263 25.6659 95.6818 25.3865C95.4461 25.0984 95.3283 24.7231 95.3283 24.2604C95.3283 23.8937 95.4374 23.5576 95.6556 23.252C95.8739 22.9465 96.1838 22.7064 96.5854 22.5318C96.987 22.3485 97.4453 22.2568 97.9604 22.2568C98.7548 22.2568 99.3965 22.4576 99.8854 22.8592C100.374 23.2608 100.636 23.8108 100.671 24.5092H99.4794C99.4532 24.1338 99.3004 23.8326 99.0211 23.6056C98.7504 23.3786 98.3838 23.2651 97.9211 23.2651C97.4933 23.2651 97.1528 23.3568 96.8997 23.5401C96.6465 23.7235 96.5199 23.9635 96.5199 24.2604C96.5199 24.4961 96.5941 24.6925 96.7425 24.8496C96.8997 24.9981 97.0917 25.1203 97.3187 25.2163C97.5544 25.3036 97.8774 25.404 98.2878 25.5175C98.8028 25.6572 99.2219 25.7969 99.5449 25.9365C99.8679 26.0675 100.143 26.2683 100.37 26.5389C100.606 26.8095 100.728 27.1631 100.737 27.5996C100.737 27.9925 100.627 28.346 100.409 28.6603C100.191 28.9746 99.881 29.2234 99.4794 29.4067C99.0866 29.5813 98.6326 29.6686 98.1175 29.6686ZM108.966 25.6877C108.966 25.9147 108.953 26.1548 108.927 26.408H103.191C103.235 27.1151 103.475 27.6695 103.912 28.071C104.357 28.4639 104.894 28.6603 105.522 28.6603C106.037 28.6603 106.465 28.5425 106.806 28.3067C107.155 28.0623 107.399 27.7393 107.539 27.3377H108.822C108.63 28.0274 108.246 28.5905 107.67 29.027C107.094 29.4548 106.378 29.6686 105.522 29.6686C104.841 29.6686 104.23 29.5159 103.689 29.2103C103.156 28.9048 102.737 28.4726 102.432 27.9139C102.126 27.3464 101.974 26.6917 101.974 25.9496C101.974 25.2076 102.122 24.5572 102.419 23.9985C102.716 23.4397 103.13 23.012 103.663 22.7151C104.204 22.4096 104.824 22.2568 105.522 22.2568C106.203 22.2568 106.806 22.4052 107.329 22.702C107.853 22.9989 108.255 23.4092 108.534 23.933C108.822 24.4481 108.966 25.033 108.966 25.6877ZM107.735 25.4389C107.735 24.985 107.635 24.5965 107.434 24.2735C107.233 23.9417 106.958 23.6929 106.609 23.527C106.269 23.3524 105.889 23.2651 105.47 23.2651C104.868 23.2651 104.352 23.4572 103.925 23.8413C103.506 24.2254 103.266 24.758 103.204 25.4389H107.735ZM115.222 23.6973C115.458 23.287 115.807 22.9465 116.27 22.6759C116.741 22.3965 117.287 22.2568 117.907 22.2568C118.544 22.2568 119.12 22.4096 119.635 22.7151C120.159 23.0207 120.569 23.4528 120.866 24.0116C121.163 24.5615 121.311 25.2032 121.311 25.9365C121.311 26.6611 121.163 27.3072 120.866 27.8746C120.569 28.4421 120.159 28.8829 119.635 29.1972C119.12 29.5115 118.544 29.6686 117.907 29.6686C117.295 29.6686 116.754 29.5333 116.283 29.2627C115.82 28.9833 115.467 28.6385 115.222 28.2282V32.9555H114.03V22.3747H115.222V23.6973ZM120.093 25.9365C120.093 25.3953 119.984 24.9238 119.766 24.5223C119.548 24.1207 119.251 23.8151 118.876 23.6056C118.509 23.3961 118.103 23.2913 117.658 23.2913C117.221 23.2913 116.815 23.4004 116.44 23.6187C116.073 23.8282 115.776 24.1381 115.549 24.5485C115.331 24.95 115.222 25.4171 115.222 25.9496C115.222 26.4909 115.331 26.9667 115.549 27.377C115.776 27.7786 116.073 28.0885 116.44 28.3067C116.815 28.5163 117.221 28.621 117.658 28.621C118.103 28.621 118.509 28.5163 118.876 28.3067C119.251 28.0885 119.548 27.7786 119.766 27.377C119.984 26.9667 120.093 26.4865 120.093 25.9365ZM129.427 25.6877C129.427 25.9147 129.414 26.1548 129.388 26.408H123.652C123.696 27.1151 123.936 27.6695 124.373 28.071C124.818 28.4639 125.355 28.6603 125.983 28.6603C126.498 28.6603 126.926 28.5425 127.267 28.3067C127.616 28.0623 127.86 27.7393 128 27.3377H129.283C129.091 28.0274 128.707 28.5905 128.131 29.027C127.555 29.4548 126.839 29.6686 125.983 29.6686C125.302 29.6686 124.691 29.5159 124.15 29.2103C123.618 28.9048 123.198 28.4726 122.893 27.9139C122.587 27.3464 122.435 26.6917 122.435 25.9496C122.435 25.2076 122.583 24.5572 122.88 23.9985C123.177 23.4397 123.591 23.012 124.124 22.7151C124.665 22.4096 125.285 22.2568 125.983 22.2568C126.664 22.2568 127.267 22.4052 127.791 22.702C128.314 22.9989 128.716 23.4092 128.995 23.933C129.283 24.4481 129.427 25.033 129.427 25.6877ZM128.196 25.4389C128.196 24.985 128.096 24.5965 127.895 24.2735C127.694 23.9417 127.419 23.6929 127.07 23.527C126.73 23.3524 126.35 23.2651 125.931 23.2651C125.329 23.2651 124.814 23.4572 124.386 23.8413C123.967 24.2254 123.727 24.758 123.666 25.4389H128.196ZM132.192 23.5401C132.402 23.1298 132.698 22.8112 133.082 22.5842C133.475 22.3572 133.951 22.2437 134.51 22.2437V23.4747H134.196C132.86 23.4747 132.192 24.1993 132.192 25.6484V29.5508H131V22.3747H132.192V23.5401ZM144.327 29.5508L140.568 25.3865V29.5508H139.377V20.4235H140.568V24.6532L144.34 20.4235H145.846L141.708 24.9937L145.885 29.5508H144.327ZM150.175 22.2568C150.795 22.2568 151.336 22.3921 151.799 22.6628C152.27 22.9334 152.62 23.2739 152.847 23.6842V22.3747H154.051V29.7079C154.051 30.3627 153.912 30.9432 153.632 31.4496C153.353 31.9646 152.951 32.3662 152.428 32.6543C151.913 32.9424 151.31 33.0865 150.62 33.0865C149.678 33.0865 148.892 32.8638 148.263 32.4186C147.635 31.9734 147.264 31.3666 147.15 30.5984H148.329C148.46 31.0349 148.73 31.3841 149.141 31.646C149.551 31.9166 150.044 32.0519 150.62 32.0519C151.275 32.0519 151.808 31.8468 152.218 31.4365C152.637 31.0262 152.847 30.45 152.847 29.7079V28.202C152.611 28.621 152.262 28.9702 151.799 29.2496C151.336 29.529 150.795 29.6686 150.175 29.6686C149.538 29.6686 148.957 29.5115 148.434 29.1972C147.919 28.8829 147.513 28.4421 147.216 27.8746C146.919 27.3072 146.771 26.6611 146.771 25.9365C146.771 25.2032 146.919 24.5615 147.216 24.0116C147.513 23.4528 147.919 23.0207 148.434 22.7151C148.957 22.4096 149.538 22.2568 150.175 22.2568ZM152.847 25.9496C152.847 25.4084 152.738 24.9369 152.519 24.5354C152.301 24.1338 152.004 23.8282 151.629 23.6187C151.262 23.4004 150.856 23.2913 150.411 23.2913C149.966 23.2913 149.56 23.3961 149.193 23.6056C148.826 23.8151 148.534 24.1207 148.316 24.5223C148.097 24.9238 147.988 25.3953 147.988 25.9365C147.988 26.4865 148.097 26.9667 148.316 27.377C148.534 27.7786 148.826 28.0885 149.193 28.3067C149.56 28.5163 149.966 28.621 150.411 28.621C150.856 28.621 151.262 28.5163 151.629 28.3067C152.004 28.0885 152.301 27.7786 152.519 27.377C152.738 26.9667 152.847 26.4909 152.847 25.9496Z" fill="#454551"/>
<path d="M165.159 22.1516L167.02 25.4702L168.887 22.1516H170.907L168.145 26.7682L170.978 31.4614H168.938L167.02 28.079L165.108 31.4614H163.062L165.894 26.7682L163.132 22.1516H165.159Z" fill="#454551"/>
<path d="M190.081 20.4235L187.436 29.5508H186.101L183.979 22.2044L181.779 29.5508L180.457 29.5639L177.903 20.4235H179.173L181.164 28.1627L183.364 20.4235H184.699L186.795 28.1365L188.798 20.4235H190.081ZM197.933 25.6877C197.933 25.9147 197.92 26.1548 197.894 26.408H192.158C192.202 27.1151 192.442 27.6695 192.878 28.071C193.324 28.4639 193.86 28.6603 194.489 28.6603C195.004 28.6603 195.432 28.5425 195.772 28.3067C196.122 28.0623 196.366 27.7393 196.506 27.3377H197.789C197.597 28.0274 197.213 28.5905 196.637 29.027C196.06 29.4548 195.345 29.6686 194.489 29.6686C193.808 29.6686 193.197 29.5159 192.656 29.2103C192.123 28.9048 191.704 28.4726 191.399 27.9139C191.093 27.3464 190.94 26.6917 190.94 25.9496C190.94 25.2076 191.089 24.5572 191.386 23.9985C191.682 23.4397 192.097 23.012 192.63 22.7151C193.171 22.4096 193.791 22.2568 194.489 22.2568C195.17 22.2568 195.772 22.4052 196.296 22.702C196.82 22.9989 197.222 23.4092 197.501 23.933C197.789 24.4481 197.933 25.033 197.933 25.6877ZM196.702 25.4389C196.702 24.985 196.602 24.5965 196.401 24.2735C196.2 23.9417 195.925 23.6929 195.576 23.527C195.235 23.3524 194.856 23.2651 194.437 23.2651C193.834 23.2651 193.319 23.4572 192.891 23.8413C192.472 24.2254 192.232 24.758 192.171 25.4389H196.702ZM200.121 21.2092C199.895 21.2092 199.702 21.1306 199.545 20.9735C199.388 20.8163 199.31 20.6243 199.31 20.3973C199.31 20.1703 199.388 19.9783 199.545 19.8211C199.702 19.664 199.895 19.5854 200.121 19.5854C200.34 19.5854 200.523 19.664 200.671 19.8211C200.829 19.9783 200.907 20.1703 200.907 20.3973C200.907 20.6243 200.829 20.8163 200.671 20.9735C200.523 21.1306 200.34 21.2092 200.121 21.2092ZM200.698 22.3747V29.5508H199.506V22.3747H200.698ZM205.688 22.2568C206.308 22.2568 206.849 22.3921 207.312 22.6628C207.783 22.9334 208.133 23.2739 208.36 23.6842V22.3747H209.564V29.7079C209.564 30.3627 209.425 30.9432 209.145 31.4496C208.866 31.9646 208.464 32.3662 207.94 32.6543C207.425 32.9424 206.823 33.0865 206.133 33.0865C205.191 33.0865 204.405 32.8638 203.776 32.4186C203.148 31.9734 202.777 31.3666 202.663 30.5984H203.842C203.973 31.0349 204.243 31.3841 204.654 31.646C205.064 31.9166 205.557 32.0519 206.133 32.0519C206.788 32.0519 207.321 31.8468 207.731 31.4365C208.15 31.0262 208.36 30.45 208.36 29.7079V28.202C208.124 28.621 207.775 28.9702 207.312 29.2496C206.849 29.529 206.308 29.6686 205.688 29.6686C205.051 29.6686 204.47 29.5115 203.946 29.1972C203.431 28.8829 203.025 28.4421 202.729 27.8746C202.432 27.3072 202.283 26.6611 202.283 25.9365C202.283 25.2032 202.432 24.5615 202.729 24.0116C203.025 23.4528 203.431 23.0207 203.946 22.7151C204.47 22.4096 205.051 22.2568 205.688 22.2568ZM208.36 25.9496C208.36 25.4084 208.25 24.9369 208.032 24.5354C207.814 24.1338 207.517 23.8282 207.142 23.6187C206.775 23.4004 206.369 23.2913 205.924 23.2913C205.479 23.2913 205.073 23.3961 204.706 23.6056C204.339 23.8151 204.047 24.1207 203.829 24.5223C203.61 24.9238 203.501 25.3953 203.501 25.9365C203.501 26.4865 203.61 26.9667 203.829 27.377C204.047 27.7786 204.339 28.0885 204.706 28.3067C205.073 28.5163 205.479 28.621 205.924 28.621C206.369 28.621 206.775 28.5163 207.142 28.3067C207.517 28.0885 207.814 27.7786 208.032 27.377C208.25 26.9667 208.36 26.4909 208.36 25.9496ZM215.14 22.2437C215.681 22.2437 216.17 22.3616 216.607 22.5973C217.043 22.8243 217.384 23.1691 217.628 23.6318C217.881 24.0945 218.008 24.6576 218.008 25.3211V29.5508H216.829V25.4913C216.829 24.7754 216.65 24.2298 216.292 23.8544C215.934 23.4703 215.445 23.2782 214.826 23.2782C214.197 23.2782 213.695 23.4747 213.32 23.8675C212.953 24.2604 212.77 24.8322 212.77 25.583V29.5508H211.578V19.8604H212.77V23.3961C213.005 23.0294 213.328 22.7457 213.739 22.5449C214.158 22.3441 214.625 22.2437 215.14 22.2437ZM221.408 23.3568V27.5865C221.408 27.9357 221.482 28.1845 221.631 28.3329C221.779 28.4726 222.036 28.5425 222.403 28.5425H223.28V29.5508H222.207C221.543 29.5508 221.046 29.398 220.714 29.0925C220.382 28.7869 220.216 28.2849 220.216 27.5865V23.3568H219.286V22.3747H220.216V20.5675H221.408V22.3747H223.28V23.3568H221.408ZM231.28 31.9865C230.442 31.1658 229.787 30.1226 229.315 28.8567C228.853 27.5909 228.621 26.2246 228.621 24.758C228.621 23.2564 228.866 21.8552 229.355 20.5544C229.852 19.2449 230.56 18.1668 231.476 17.32H232.72V17.4378C231.742 18.3545 231.005 19.4588 230.507 20.7509C230.018 22.0342 229.774 23.3699 229.774 24.758C229.774 26.1111 230.005 27.4032 230.468 28.6341C230.939 29.8651 231.625 30.9432 232.524 31.8686V31.9865H231.28ZM239.112 29.5508L235.354 25.3865V29.5508H234.162V20.4235H235.354V24.6532L239.125 20.4235H240.631L236.493 24.9937L240.67 29.5508H239.112ZM244.961 22.2568C245.58 22.2568 246.122 22.3921 246.584 22.6628C247.056 22.9334 247.405 23.2739 247.632 23.6842V22.3747H248.837V29.7079C248.837 30.3627 248.697 30.9432 248.418 31.4496C248.138 31.9646 247.737 32.3662 247.213 32.6543C246.698 32.9424 246.096 33.0865 245.406 33.0865C244.463 33.0865 243.677 32.8638 243.049 32.4186C242.42 31.9734 242.049 31.3666 241.936 30.5984H243.114C243.245 31.0349 243.516 31.3841 243.926 31.646C244.336 31.9166 244.83 32.0519 245.406 32.0519C246.061 32.0519 246.593 31.8468 247.003 31.4365C247.423 31.0262 247.632 30.45 247.632 29.7079V28.202C247.396 28.621 247.047 28.9702 246.584 29.2496C246.122 29.529 245.58 29.6686 244.961 29.6686C244.323 29.6686 243.743 29.5115 243.219 29.1972C242.704 28.8829 242.298 28.4421 242.001 27.8746C241.704 27.3072 241.556 26.6611 241.556 25.9365C241.556 25.2032 241.704 24.5615 242.001 24.0116C242.298 23.4528 242.704 23.0207 243.219 22.7151C243.743 22.4096 244.323 22.2568 244.961 22.2568ZM247.632 25.9496C247.632 25.4084 247.523 24.9369 247.305 24.5354C247.086 24.1338 246.79 23.8282 246.414 23.6187C246.048 23.4004 245.642 23.2913 245.196 23.2913C244.751 23.2913 244.345 23.3961 243.979 23.6056C243.612 23.8151 243.319 24.1207 243.101 24.5223C242.883 24.9238 242.774 25.3953 242.774 25.9365C242.774 26.4865 242.883 26.9667 243.101 27.377C243.319 27.7786 243.612 28.0885 243.979 28.3067C244.345 28.5163 244.751 28.621 245.196 28.621C245.642 28.621 246.048 28.5163 246.414 28.3067C246.79 28.0885 247.086 27.7786 247.305 27.377C247.523 26.9667 247.632 26.4909 247.632 25.9496ZM250.471 31.9865V31.8686C251.37 30.9432 252.051 29.8651 252.514 28.6341C252.985 27.4032 253.221 26.1111 253.221 24.758C253.221 23.3699 252.972 22.0342 252.474 20.7509C251.985 19.4588 251.252 18.3545 250.274 17.4378V17.32H251.518C252.435 18.1668 253.138 19.2449 253.627 20.5544C254.124 21.8552 254.373 23.2564 254.373 24.758C254.373 26.2246 254.137 27.5909 253.666 28.8567C253.203 30.1226 252.553 31.1658 251.715 31.9865H250.471Z" fill="#454551"/>
<line x1="77.7522" y1="42.1499" x2="250.444" y2="42.1499" stroke="#454551" stroke-width="0.818444"/>
</svg>
