<svg width="329" height="107" viewBox="0 0 329 107" fill="none" xmlns="http://www.w3.org/2000/svg">
<g clip-path="url(#clip0_57_2792)">
<rect width="329" height="107" rx="12" fill="#E2E2EA" fill-opacity="0.5"/>
<g clip-path="url(#clip1_57_2792)">
<path d="M41.6562 50.3262V51.3994H36.2695V50.3262H41.6562ZM36.4746 46.0469V56H35.1553V46.0469H36.4746ZM42.8047 46.0469V56H41.4922V46.0469H42.8047ZM47.1361 55.2344L49.1938 48.6035H50.5473L47.5805 57.1416C47.5121 57.3239 47.421 57.5199 47.307 57.7295C47.1977 57.9437 47.0564 58.1465 46.8832 58.3379C46.71 58.5293 46.5004 58.6842 46.2543 58.8027C46.0128 58.9258 45.7234 58.9873 45.3861 58.9873C45.2859 58.9873 45.1583 58.9736 45.0033 58.9463C44.8484 58.9189 44.739 58.8962 44.6752 58.8779L44.6684 57.8525C44.7048 57.8571 44.7618 57.8617 44.8393 57.8662C44.9213 57.8753 44.9783 57.8799 45.0102 57.8799C45.2973 57.8799 45.5411 57.8411 45.7416 57.7637C45.9421 57.6908 46.1107 57.5654 46.2475 57.3877C46.3887 57.2145 46.5095 56.9753 46.6098 56.6699L47.1361 55.2344ZM45.6254 48.6035L47.5463 54.3457L47.8744 55.6787L46.9652 56.1436L44.2445 48.6035H45.6254ZM53.0535 50.0254V58.8438H51.782V48.6035H52.9441L53.0535 50.0254ZM58.0369 52.2402V52.3838C58.0369 52.9215 57.9731 53.4206 57.8455 53.8809C57.7179 54.3366 57.5311 54.7331 57.285 55.0703C57.0434 55.4076 56.7449 55.6696 56.3895 55.8564C56.034 56.0433 55.6261 56.1367 55.1658 56.1367C54.6964 56.1367 54.2817 56.0592 53.9217 55.9043C53.5617 55.7493 53.2563 55.5238 53.0057 55.2275C52.755 54.9313 52.5545 54.5758 52.4041 54.1611C52.2583 53.7464 52.158 53.2793 52.1033 52.7598V51.9941C52.158 51.4473 52.2605 50.9574 52.4109 50.5244C52.5613 50.0915 52.7596 49.7223 53.0057 49.417C53.2563 49.1071 53.5594 48.8724 53.9148 48.7129C54.2703 48.5488 54.6805 48.4668 55.1453 48.4668C55.6102 48.4668 56.0226 48.5579 56.3826 48.7402C56.7426 48.918 57.0457 49.1732 57.2918 49.5059C57.5379 49.8385 57.7225 50.2373 57.8455 50.7021C57.9731 51.1624 58.0369 51.6751 58.0369 52.2402ZM56.7654 52.3838V52.2402C56.7654 51.8711 56.7267 51.5247 56.6492 51.2012C56.5717 50.873 56.451 50.5859 56.2869 50.3398C56.1274 50.0892 55.9223 49.8932 55.6717 49.752C55.421 49.6061 55.1225 49.5332 54.7762 49.5332C54.4572 49.5332 54.1792 49.5879 53.9422 49.6973C53.7098 49.8066 53.5115 49.9548 53.3475 50.1416C53.1834 50.3239 53.049 50.5335 52.9441 50.7705C52.8439 51.0029 52.7687 51.2445 52.7186 51.4951V53.2656C52.8097 53.5846 52.9373 53.8854 53.1014 54.168C53.2654 54.446 53.4842 54.6715 53.7576 54.8447C54.0311 55.0133 54.3751 55.0977 54.7898 55.0977C55.1316 55.0977 55.4256 55.027 55.6717 54.8857C55.9223 54.7399 56.1274 54.5417 56.2869 54.291C56.451 54.0404 56.5717 53.7533 56.6492 53.4297C56.7267 53.1016 56.7654 52.7529 56.7654 52.3838ZM62.8195 56.1367C62.3046 56.1367 61.8374 56.0501 61.4182 55.877C61.0034 55.6992 60.6457 55.4508 60.3449 55.1318C60.0487 54.8128 59.8208 54.4346 59.6613 53.9971C59.5018 53.5596 59.4221 53.0811 59.4221 52.5615V52.2744C59.4221 51.6729 59.5109 51.1374 59.6887 50.668C59.8664 50.194 60.1079 49.793 60.4133 49.4648C60.7186 49.1367 61.065 48.8883 61.4523 48.7197C61.8397 48.5511 62.2408 48.4668 62.6555 48.4668C63.1841 48.4668 63.6398 48.5579 64.0227 48.7402C64.41 48.9225 64.7268 49.1777 64.9729 49.5059C65.2189 49.8294 65.4012 50.2122 65.5197 50.6543C65.6382 51.0918 65.6975 51.5703 65.6975 52.0898V52.6572H60.174V51.625H64.4328V51.5293C64.4146 51.2012 64.3462 50.8822 64.2277 50.5723C64.1138 50.2624 63.9315 50.0072 63.6809 49.8066C63.4302 49.6061 63.0884 49.5059 62.6555 49.5059C62.3684 49.5059 62.104 49.5674 61.8625 49.6904C61.621 49.8089 61.4136 49.9867 61.2404 50.2236C61.0673 50.4606 60.9328 50.75 60.8371 51.0918C60.7414 51.4336 60.6936 51.8278 60.6936 52.2744V52.5615C60.6936 52.9124 60.7414 53.2428 60.8371 53.5527C60.9374 53.8581 61.0809 54.127 61.2678 54.3594C61.4592 54.5918 61.6893 54.7741 61.9582 54.9062C62.2316 55.0384 62.5415 55.1045 62.8879 55.1045C63.3345 55.1045 63.7128 55.0133 64.0227 54.8311C64.3326 54.6488 64.6037 54.4049 64.8361 54.0996L65.6018 54.708C65.4423 54.9495 65.2395 55.1797 64.9934 55.3984C64.7473 55.6172 64.4442 55.7949 64.0842 55.9316C63.7287 56.0684 63.3072 56.1367 62.8195 56.1367ZM68.5387 49.7656V56H67.274V48.6035H68.5045L68.5387 49.7656ZM70.8492 48.5625L70.8424 49.7383C70.7376 49.7155 70.6373 49.7018 70.5416 49.6973C70.4505 49.6882 70.3456 49.6836 70.2271 49.6836C69.9355 49.6836 69.678 49.7292 69.4547 49.8203C69.2314 49.9115 69.0423 50.0391 68.8873 50.2031C68.7324 50.3672 68.6093 50.5632 68.5182 50.791C68.4316 51.0143 68.3746 51.2604 68.3473 51.5293L67.9918 51.7344C67.9918 51.2878 68.0351 50.8685 68.1217 50.4766C68.2128 50.0846 68.3518 49.7383 68.5387 49.4375C68.7255 49.1322 68.9625 48.8952 69.2496 48.7266C69.5413 48.5534 69.8876 48.4668 70.2887 48.4668C70.3798 48.4668 70.4846 48.4782 70.6031 48.501C70.7216 48.5192 70.8036 48.5397 70.8492 48.5625ZM75.5566 48.6035V49.5742H71.5576V48.6035H75.5566ZM72.9111 46.8057H74.1758V54.168C74.1758 54.4186 74.2145 54.6077 74.292 54.7354C74.3695 54.863 74.4697 54.9473 74.5928 54.9883C74.7158 55.0293 74.848 55.0498 74.9893 55.0498C75.0941 55.0498 75.2035 55.0407 75.3174 55.0225C75.4359 54.9997 75.5247 54.9814 75.584 54.9678L75.5908 56C75.4906 56.0319 75.3584 56.0615 75.1943 56.0889C75.0348 56.1208 74.8411 56.1367 74.6133 56.1367C74.3034 56.1367 74.0186 56.0752 73.7588 55.9521C73.499 55.8291 73.2917 55.624 73.1367 55.3369C72.9863 55.0452 72.9111 54.6533 72.9111 54.1611V46.8057ZM80.2094 56.1367C79.6944 56.1367 79.2273 56.0501 78.808 55.877C78.3933 55.6992 78.0355 55.4508 77.7348 55.1318C77.4385 54.8128 77.2107 54.4346 77.0512 53.9971C76.8917 53.5596 76.8119 53.0811 76.8119 52.5615V52.2744C76.8119 51.6729 76.9008 51.1374 77.0785 50.668C77.2562 50.194 77.4978 49.793 77.8031 49.4648C78.1085 49.1367 78.4548 48.8883 78.8422 48.7197C79.2296 48.5511 79.6306 48.4668 80.0453 48.4668C80.574 48.4668 81.0297 48.5579 81.4125 48.7402C81.7999 48.9225 82.1166 49.1777 82.3627 49.5059C82.6088 49.8294 82.7911 50.2122 82.9096 50.6543C83.0281 51.0918 83.0873 51.5703 83.0873 52.0898V52.6572H77.5639V51.625H81.8227V51.5293C81.8044 51.2012 81.7361 50.8822 81.6176 50.5723C81.5036 50.2624 81.3214 50.0072 81.0707 49.8066C80.8201 49.6061 80.4783 49.5059 80.0453 49.5059C79.7582 49.5059 79.4939 49.5674 79.2523 49.6904C79.0108 49.8089 78.8034 49.9867 78.6303 50.2236C78.4571 50.4606 78.3227 50.75 78.227 51.0918C78.1312 51.4336 78.0834 51.8278 78.0834 52.2744V52.5615C78.0834 52.9124 78.1312 53.2428 78.227 53.5527C78.3272 53.8581 78.4708 54.127 78.6576 54.3594C78.849 54.5918 79.0792 54.7741 79.348 54.9062C79.6215 55.0384 79.9314 55.1045 80.2777 55.1045C80.7243 55.1045 81.1026 55.0133 81.4125 54.8311C81.7224 54.6488 81.9936 54.4049 82.226 54.0996L82.9916 54.708C82.8321 54.9495 82.6293 55.1797 82.3832 55.3984C82.1371 55.6172 81.834 55.7949 81.474 55.9316C81.1186 56.0684 80.697 56.1367 80.2094 56.1367ZM85.9285 50.1826V56H84.6639V48.6035H85.8602L85.9285 50.1826ZM85.6277 52.0215L85.1014 52.001C85.1059 51.4951 85.1811 51.028 85.327 50.5996C85.4728 50.1667 85.6779 49.7907 85.9422 49.4717C86.2065 49.1527 86.521 48.9066 86.8855 48.7334C87.2547 48.5557 87.6626 48.4668 88.1092 48.4668C88.4738 48.4668 88.8019 48.5169 89.0936 48.6172C89.3852 48.7129 89.6336 48.8678 89.8387 49.082C90.0483 49.2962 90.2078 49.5742 90.3172 49.916C90.4266 50.2533 90.4813 50.6657 90.4813 51.1533V56H89.2098V51.1396C89.2098 50.7523 89.1528 50.4424 89.0389 50.21C88.9249 49.973 88.7586 49.8021 88.5398 49.6973C88.3211 49.5879 88.0522 49.5332 87.7332 49.5332C87.4188 49.5332 87.1316 49.5993 86.8719 49.7314C86.6167 49.8636 86.3956 50.0459 86.2088 50.2783C86.0265 50.5107 85.8829 50.7773 85.7781 51.0781C85.6779 51.3743 85.6277 51.6888 85.6277 52.0215ZM96.8088 54.0381C96.8088 53.8558 96.7678 53.6872 96.6857 53.5322C96.6083 53.3727 96.4465 53.2292 96.2004 53.1016C95.9589 52.9694 95.5943 52.8555 95.1066 52.7598C94.6965 52.6732 94.3251 52.5706 93.9924 52.4521C93.6643 52.3337 93.384 52.1901 93.1516 52.0215C92.9237 51.8529 92.7482 51.6546 92.6252 51.4268C92.5021 51.1989 92.4406 50.9323 92.4406 50.627C92.4406 50.3353 92.5044 50.0596 92.632 49.7998C92.7642 49.54 92.9488 49.3099 93.1857 49.1094C93.4273 48.9089 93.7167 48.7516 94.0539 48.6377C94.3911 48.5238 94.7671 48.4668 95.1818 48.4668C95.7743 48.4668 96.2801 48.5716 96.6994 48.7812C97.1187 48.9909 97.44 49.2712 97.6633 49.6221C97.8866 49.9684 97.9982 50.3535 97.9982 50.7773H96.7336C96.7336 50.5723 96.6721 50.374 96.549 50.1826C96.4305 49.9867 96.2551 49.8249 96.0227 49.6973C95.7948 49.5697 95.5145 49.5059 95.1818 49.5059C94.8309 49.5059 94.5461 49.5605 94.3273 49.6699C94.1132 49.7747 93.9559 49.9092 93.8557 50.0732C93.76 50.2373 93.7121 50.4105 93.7121 50.5928C93.7121 50.7295 93.7349 50.8525 93.7805 50.9619C93.8306 51.0667 93.9172 51.1647 94.0402 51.2559C94.1633 51.3424 94.3365 51.4245 94.5598 51.502C94.7831 51.5794 95.0679 51.6569 95.4143 51.7344C96.0204 51.8711 96.5194 52.0352 96.9113 52.2266C97.3033 52.418 97.5949 52.6527 97.7863 52.9307C97.9777 53.2087 98.0734 53.5459 98.0734 53.9424C98.0734 54.266 98.0051 54.5622 97.8684 54.8311C97.7362 55.0999 97.5425 55.3324 97.2873 55.5283C97.0367 55.7197 96.7359 55.8701 96.385 55.9795C96.0386 56.0843 95.649 56.1367 95.216 56.1367C94.5643 56.1367 94.0129 56.0205 93.5617 55.7881C93.1105 55.5557 92.7687 55.2549 92.5363 54.8857C92.3039 54.5166 92.1877 54.127 92.1877 53.7168H93.4592C93.4774 54.0632 93.5777 54.3389 93.76 54.5439C93.9423 54.7445 94.1656 54.888 94.4299 54.9746C94.6942 55.0566 94.9562 55.0977 95.216 55.0977C95.5624 55.0977 95.8518 55.0521 96.0842 54.9609C96.3212 54.8698 96.5012 54.7445 96.6242 54.585C96.7473 54.4255 96.8088 54.2432 96.8088 54.0381ZM101.209 48.6035V56H99.9371V48.6035H101.209ZM99.8414 46.6416C99.8414 46.4365 99.9029 46.2633 100.026 46.1221C100.154 45.9808 100.34 45.9102 100.587 45.9102C100.828 45.9102 101.013 45.9808 101.14 46.1221C101.272 46.2633 101.338 46.4365 101.338 46.6416C101.338 46.8376 101.272 47.0062 101.14 47.1475C101.013 47.2842 100.828 47.3525 100.587 47.3525C100.34 47.3525 100.154 47.2842 100.026 47.1475C99.9029 47.0062 99.8414 46.8376 99.8414 46.6416ZM103.004 52.3838V52.2266C103.004 51.6934 103.081 51.1989 103.236 50.7432C103.391 50.2829 103.615 49.8841 103.906 49.5469C104.198 49.2051 104.551 48.9408 104.966 48.7539C105.381 48.5625 105.845 48.4668 106.36 48.4668C106.88 48.4668 107.347 48.5625 107.762 48.7539C108.181 48.9408 108.536 49.2051 108.828 49.5469C109.124 49.8841 109.35 50.2829 109.505 50.7432C109.66 51.1989 109.737 51.6934 109.737 52.2266V52.3838C109.737 52.917 109.66 53.4115 109.505 53.8672C109.35 54.3229 109.124 54.7217 108.828 55.0635C108.536 55.4007 108.183 55.665 107.769 55.8564C107.358 56.0433 106.894 56.1367 106.374 56.1367C105.854 56.1367 105.387 56.0433 104.973 55.8564C104.558 55.665 104.202 55.4007 103.906 55.0635C103.615 54.7217 103.391 54.3229 103.236 53.8672C103.081 53.4115 103.004 52.917 103.004 52.3838ZM104.269 52.2266V52.3838C104.269 52.7529 104.312 53.1016 104.398 53.4297C104.485 53.7533 104.615 54.0404 104.788 54.291C104.966 54.5417 105.187 54.7399 105.451 54.8857C105.715 55.027 106.023 55.0977 106.374 55.0977C106.72 55.0977 107.023 55.027 107.283 54.8857C107.548 54.7399 107.766 54.5417 107.939 54.291C108.113 54.0404 108.243 53.7533 108.329 53.4297C108.42 53.1016 108.466 52.7529 108.466 52.3838V52.2266C108.466 51.862 108.42 51.5179 108.329 51.1943C108.243 50.8662 108.11 50.5768 107.933 50.3262C107.759 50.071 107.541 49.8704 107.276 49.7246C107.017 49.5788 106.711 49.5059 106.36 49.5059C106.014 49.5059 105.709 49.5788 105.444 49.7246C105.185 49.8704 104.966 50.071 104.788 50.3262C104.615 50.5768 104.485 50.8662 104.398 51.1943C104.312 51.5179 104.269 51.862 104.269 52.2266ZM112.688 50.1826V56H111.423V48.6035H112.62L112.688 50.1826ZM112.387 52.0215L111.861 52.001C111.865 51.4951 111.94 51.028 112.086 50.5996C112.232 50.1667 112.437 49.7907 112.702 49.4717C112.966 49.1527 113.28 48.9066 113.645 48.7334C114.014 48.5557 114.422 48.4668 114.869 48.4668C115.233 48.4668 115.561 48.5169 115.853 48.6172C116.145 48.7129 116.393 48.8678 116.598 49.082C116.808 49.2962 116.967 49.5742 117.077 49.916C117.186 50.2533 117.241 50.6657 117.241 51.1533V56H115.969V51.1396C115.969 50.7523 115.912 50.4424 115.798 50.21C115.684 49.973 115.518 49.8021 115.299 49.6973C115.08 49.5879 114.812 49.5332 114.493 49.5332C114.178 49.5332 113.891 49.5993 113.631 49.7314C113.376 49.8636 113.155 50.0459 112.968 50.2783C112.786 50.5107 112.642 50.7773 112.537 51.0781C112.437 51.3743 112.387 51.6888 112.387 52.0215Z" fill="#4B4AD5"/>
<path d="M37.5596 64.8516V72H36.6562V65.9795L34.835 66.6436V65.8281L37.418 64.8516H37.5596ZM45.0008 69.8516L46.4119 64.8906H47.0955L46.7 66.8193L45.1814 72H44.5027L45.0008 69.8516ZM43.5408 64.8906L44.6639 69.7539L45.0008 72H44.327L42.6033 64.8906H43.5408ZM48.9217 69.749L50.0203 64.8906H50.9627L49.2439 72H48.5701L48.9217 69.749ZM47.198 64.8906L48.5701 69.8516L49.0682 72H48.3895L46.9246 66.8193L46.5242 64.8906H47.198ZM54.007 72.0977C53.6392 72.0977 53.3055 72.0358 53.0061 71.9121C52.7098 71.7852 52.4543 71.6077 52.2395 71.3799C52.0279 71.152 51.8651 70.8818 51.7512 70.5693C51.6372 70.2568 51.5803 69.915 51.5803 69.5439V69.3389C51.5803 68.9092 51.6437 68.5267 51.7707 68.1914C51.8977 67.8529 52.0702 67.5664 52.2883 67.332C52.5064 67.0977 52.7538 66.9202 53.0305 66.7998C53.3072 66.6794 53.5936 66.6191 53.8898 66.6191C54.2674 66.6191 54.593 66.6842 54.8664 66.8145C55.1431 66.9447 55.3693 67.127 55.5451 67.3613C55.7209 67.5924 55.8511 67.8659 55.9357 68.1816C56.0204 68.4941 56.0627 68.8359 56.0627 69.207V69.6123H52.1174V68.875H55.1594V68.8066C55.1464 68.5723 55.0975 68.3444 55.0129 68.123C54.9315 67.9017 54.8013 67.7194 54.6223 67.5762C54.4432 67.4329 54.1991 67.3613 53.8898 67.3613C53.6848 67.3613 53.496 67.4053 53.3234 67.4932C53.1509 67.5778 53.0028 67.7048 52.8791 67.874C52.7554 68.0433 52.6594 68.25 52.591 68.4941C52.5227 68.7383 52.4885 69.0199 52.4885 69.3389V69.5439C52.4885 69.7946 52.5227 70.0306 52.591 70.252C52.6626 70.4701 52.7652 70.6621 52.8986 70.8281C53.0354 70.9941 53.1997 71.1243 53.3918 71.2188C53.5871 71.3132 53.8085 71.3604 54.0559 71.3604C54.3749 71.3604 54.6451 71.2952 54.8664 71.165C55.0878 71.0348 55.2814 70.8607 55.4475 70.6426L55.9943 71.0771C55.8804 71.2497 55.7355 71.4141 55.5598 71.5703C55.384 71.7266 55.1675 71.8535 54.9104 71.9512C54.6564 72.0488 54.3553 72.0977 54.007 72.0977ZM59.4098 72.0977C59.0419 72.0977 58.7083 72.0358 58.4088 71.9121C58.1126 71.7852 57.857 71.6077 57.6422 71.3799C57.4306 71.152 57.2678 70.8818 57.1539 70.5693C57.04 70.2568 56.983 69.915 56.983 69.5439V69.3389C56.983 68.9092 57.0465 68.5267 57.1734 68.1914C57.3004 67.8529 57.4729 67.5664 57.691 67.332C57.9091 67.0977 58.1565 66.9202 58.4332 66.7998C58.7099 66.6794 58.9964 66.6191 59.2926 66.6191C59.6702 66.6191 59.9957 66.6842 60.2691 66.8145C60.5458 66.9447 60.7721 67.127 60.9479 67.3613C61.1236 67.5924 61.2538 67.8659 61.3385 68.1816C61.4231 68.4941 61.4654 68.8359 61.4654 69.207V69.6123H57.5201V68.875H60.5621V68.8066C60.5491 68.5723 60.5003 68.3444 60.4156 68.123C60.3342 67.9017 60.204 67.7194 60.025 67.5762C59.846 67.4329 59.6018 67.3613 59.2926 67.3613C59.0875 67.3613 58.8987 67.4053 58.7262 67.4932C58.5536 67.5778 58.4055 67.7048 58.2818 67.874C58.1581 68.0433 58.0621 68.25 57.9937 68.4941C57.9254 68.7383 57.8912 69.0199 57.8912 69.3389V69.5439C57.8912 69.7946 57.9254 70.0306 57.9937 70.252C58.0654 70.4701 58.1679 70.6621 58.3014 70.8281C58.4381 70.9941 58.6025 71.1243 58.7945 71.2188C58.9898 71.3132 59.2112 71.3604 59.4586 71.3604C59.7776 71.3604 60.0478 71.2952 60.2691 71.165C60.4905 71.0348 60.6842 70.8607 60.8502 70.6426L61.3971 71.0771C61.2831 71.2497 61.1383 71.4141 60.9625 71.5703C60.7867 71.7266 60.5702 71.8535 60.3131 71.9512C60.0592 72.0488 59.7581 72.0977 59.4098 72.0977ZM63.5283 64.5V72H62.6201V64.5H63.5283ZM66.7559 66.7168L64.4512 69.1826L63.1621 70.5205L63.0889 69.5586L64.0117 68.4551L65.6523 66.7168H66.7559ZM65.9307 72L64.0459 69.4805L64.5146 68.6748L66.9951 72H65.9307ZM71.2674 64.8906V73.3184H70.5398V64.8906H71.2674ZM79.4166 70.2031C79.4166 70.0371 79.3906 69.8906 79.3385 69.7637C79.2896 69.6335 79.2018 69.5163 79.0748 69.4121C78.9511 69.3079 78.7786 69.2087 78.5572 69.1143C78.3391 69.0199 78.0624 68.9238 77.7271 68.8262C77.3756 68.722 77.0582 68.6064 76.775 68.4795C76.4918 68.3493 76.2493 68.2012 76.0475 68.0352C75.8456 67.8691 75.691 67.6787 75.5836 67.4639C75.4762 67.249 75.4225 67.0033 75.4225 66.7266C75.4225 66.4499 75.4794 66.1943 75.5934 65.96C75.7073 65.7256 75.8701 65.5221 76.0816 65.3496C76.2965 65.1738 76.552 65.0371 76.8482 64.9395C77.1445 64.8418 77.4749 64.793 77.8395 64.793C78.3733 64.793 78.8258 64.8955 79.1969 65.1006C79.5712 65.3024 79.8561 65.5677 80.0514 65.8965C80.2467 66.222 80.3443 66.5703 80.3443 66.9414H79.4068C79.4068 66.6745 79.3499 66.4385 79.2359 66.2334C79.122 66.0251 78.9495 65.8623 78.7184 65.7451C78.4872 65.6247 78.1943 65.5645 77.8395 65.5645C77.5042 65.5645 77.2275 65.6149 77.0094 65.7158C76.7913 65.8167 76.6285 65.9535 76.5211 66.126C76.4169 66.2985 76.3648 66.4954 76.3648 66.7168C76.3648 66.8665 76.3958 67.0033 76.4576 67.127C76.5227 67.2474 76.622 67.3597 76.7555 67.4639C76.8922 67.568 77.0647 67.6641 77.273 67.752C77.4846 67.8398 77.7369 67.9245 78.0299 68.0059C78.4335 68.1198 78.7818 68.2467 79.0748 68.3867C79.3678 68.5267 79.6087 68.6846 79.7975 68.8604C79.9895 69.0329 80.1311 69.2298 80.2223 69.4512C80.3167 69.6693 80.3639 69.9167 80.3639 70.1934C80.3639 70.4831 80.3053 70.7451 80.1881 70.9795C80.0709 71.2139 79.9033 71.4141 79.6852 71.5801C79.4671 71.7461 79.205 71.8747 78.899 71.9658C78.5963 72.0537 78.2577 72.0977 77.8834 72.0977C77.5546 72.0977 77.2307 72.0521 76.9117 71.9609C76.596 71.8698 76.3079 71.7331 76.0475 71.5508C75.7903 71.3685 75.5836 71.1439 75.4273 70.877C75.2744 70.6068 75.1979 70.2943 75.1979 69.9395H76.1354C76.1354 70.1836 76.1826 70.3936 76.277 70.5693C76.3714 70.7419 76.4999 70.8851 76.6627 70.999C76.8287 71.113 77.0159 71.1976 77.2242 71.2529C77.4358 71.305 77.6555 71.3311 77.8834 71.3311C78.2122 71.3311 78.4905 71.2855 78.7184 71.1943C78.9462 71.1032 79.1188 70.973 79.2359 70.8037C79.3564 70.6344 79.4166 70.4342 79.4166 70.2031ZM84.7607 70.7793V66.7168H85.6689V72H84.8047L84.7607 70.7793ZM84.9316 69.666L85.3076 69.6562C85.3076 70.0078 85.2702 70.3333 85.1953 70.6328C85.1237 70.929 85.0065 71.1862 84.8438 71.4043C84.681 71.6224 84.4678 71.7933 84.2041 71.917C83.9404 72.0374 83.6198 72.0977 83.2422 72.0977C82.985 72.0977 82.749 72.0602 82.5342 71.9854C82.3226 71.9105 82.1403 71.7949 81.9873 71.6387C81.8343 71.4824 81.7155 71.279 81.6309 71.0283C81.5495 70.7777 81.5088 70.4766 81.5088 70.125V66.7168H82.4121V70.1348C82.4121 70.3724 82.4382 70.5693 82.4902 70.7256C82.5456 70.8786 82.6188 71.0007 82.71 71.0918C82.8044 71.1797 82.9085 71.2415 83.0225 71.2773C83.1396 71.3132 83.2601 71.3311 83.3838 71.3311C83.7679 71.3311 84.0723 71.2578 84.2969 71.1113C84.5215 70.9616 84.6826 70.7614 84.7803 70.5107C84.8812 70.2568 84.9316 69.9753 84.9316 69.666ZM90.2221 70.5986C90.2221 70.4684 90.1928 70.348 90.1342 70.2373C90.0788 70.1234 89.9633 70.0208 89.7875 69.9297C89.615 69.8353 89.3546 69.7539 89.0062 69.6855C88.7133 69.6237 88.448 69.5505 88.2104 69.4658C87.976 69.3812 87.7758 69.2786 87.6098 69.1582C87.447 69.0378 87.3217 68.8962 87.2338 68.7334C87.1459 68.5706 87.102 68.3802 87.102 68.1621C87.102 67.9538 87.1475 67.7568 87.2387 67.5713C87.3331 67.3857 87.4649 67.2214 87.6342 67.0781C87.8067 66.9349 88.0134 66.8226 88.2543 66.7412C88.4952 66.6598 88.7637 66.6191 89.06 66.6191C89.4831 66.6191 89.8445 66.694 90.1439 66.8438C90.4434 66.9935 90.6729 67.1937 90.8324 67.4443C90.9919 67.6917 91.0717 67.9668 91.0717 68.2695H90.1684C90.1684 68.123 90.1244 67.9814 90.0365 67.8447C89.9519 67.7048 89.8266 67.5892 89.6605 67.498C89.4978 67.4069 89.2976 67.3613 89.06 67.3613C88.8093 67.3613 88.6059 67.4004 88.4496 67.4785C88.2966 67.5534 88.1843 67.6494 88.1127 67.7666C88.0443 67.8838 88.0102 68.0075 88.0102 68.1377C88.0102 68.2354 88.0264 68.3232 88.059 68.4014C88.0948 68.4762 88.1566 68.5462 88.2445 68.6113C88.3324 68.6732 88.4561 68.7318 88.6156 68.7871C88.7751 68.8424 88.9786 68.8978 89.226 68.9531C89.6589 69.0508 90.0154 69.168 90.2953 69.3047C90.5753 69.4414 90.7836 69.609 90.9203 69.8076C91.057 70.0062 91.1254 70.2471 91.1254 70.5303C91.1254 70.7614 91.0766 70.973 90.9789 71.165C90.8845 71.3571 90.7462 71.5231 90.5639 71.6631C90.3848 71.7998 90.17 71.9072 89.9193 71.9854C89.6719 72.0602 89.3936 72.0977 89.0844 72.0977C88.6189 72.0977 88.225 72.0146 87.9027 71.8486C87.5805 71.6826 87.3363 71.4678 87.1703 71.2041C87.0043 70.9404 86.9213 70.6621 86.9213 70.3691H87.8295C87.8425 70.6165 87.9141 70.8135 88.0443 70.96C88.1745 71.1032 88.334 71.2057 88.5229 71.2676C88.7117 71.3262 88.8988 71.3555 89.0844 71.3555C89.3318 71.3555 89.5385 71.3229 89.7045 71.2578C89.8738 71.1927 90.0023 71.1032 90.0902 70.9893C90.1781 70.8753 90.2221 70.7451 90.2221 70.5986ZM93.3152 67.7324V74.0312H92.407V66.7168H93.2371L93.3152 67.7324ZM96.8748 69.3145V69.417C96.8748 69.8011 96.8292 70.1576 96.7381 70.4863C96.6469 70.8118 96.5135 71.0951 96.3377 71.3359C96.1652 71.5768 95.952 71.764 95.698 71.8975C95.4441 72.0309 95.1528 72.0977 94.824 72.0977C94.4887 72.0977 94.1925 72.0423 93.9354 71.9316C93.6782 71.821 93.4601 71.6598 93.2811 71.4482C93.102 71.2367 92.9588 70.9827 92.8514 70.6865C92.7472 70.3903 92.6756 70.0566 92.6365 69.6855V69.1387C92.6756 68.748 92.7488 68.3981 92.8563 68.0889C92.9637 67.7796 93.1053 67.516 93.2811 67.2979C93.4601 67.0765 93.6766 66.9089 93.9305 66.7949C94.1844 66.6777 94.4773 66.6191 94.8094 66.6191C95.1414 66.6191 95.436 66.6842 95.6932 66.8145C95.9503 66.9414 96.1668 67.1237 96.3426 67.3613C96.5184 67.599 96.6502 67.8838 96.7381 68.2158C96.8292 68.5446 96.8748 68.9108 96.8748 69.3145ZM95.9666 69.417V69.3145C95.9666 69.0508 95.9389 68.8034 95.8836 68.5723C95.8283 68.3379 95.742 68.1328 95.6248 67.957C95.5109 67.778 95.3644 67.638 95.1854 67.5371C95.0063 67.4329 94.7931 67.3809 94.5457 67.3809C94.3178 67.3809 94.1193 67.4199 93.95 67.498C93.784 67.5762 93.6424 67.682 93.5252 67.8154C93.408 67.9456 93.312 68.0954 93.2371 68.2646C93.1655 68.4307 93.1118 68.6032 93.076 68.7822V70.0469C93.1411 70.2747 93.2322 70.4896 93.3494 70.6914C93.4666 70.89 93.6229 71.0511 93.8182 71.1748C94.0135 71.2952 94.2592 71.3555 94.5555 71.3555C94.7996 71.3555 95.0096 71.305 95.1854 71.2041C95.3644 71.0999 95.5109 70.9583 95.6248 70.7793C95.742 70.6003 95.8283 70.3952 95.8836 70.1641C95.9389 69.9297 95.9666 69.6807 95.9666 69.417ZM100.32 72.0977C99.9517 72.0977 99.618 72.0358 99.3186 71.9121C99.0223 71.7852 98.7668 71.6077 98.552 71.3799C98.3404 71.152 98.1776 70.8818 98.0637 70.5693C97.9497 70.2568 97.8928 69.915 97.8928 69.5439V69.3389C97.8928 68.9092 97.9562 68.5267 98.0832 68.1914C98.2102 67.8529 98.3827 67.5664 98.6008 67.332C98.8189 67.0977 99.0663 66.9202 99.343 66.7998C99.6197 66.6794 99.9061 66.6191 100.202 66.6191C100.58 66.6191 100.905 66.6842 101.179 66.8145C101.456 66.9447 101.682 67.127 101.858 67.3613C102.033 67.5924 102.164 67.8659 102.248 68.1816C102.333 68.4941 102.375 68.8359 102.375 69.207V69.6123H98.4299V68.875H101.472V68.8066C101.459 68.5723 101.41 68.3444 101.325 68.123C101.244 67.9017 101.114 67.7194 100.935 67.5762C100.756 67.4329 100.512 67.3613 100.202 67.3613C99.9973 67.3613 99.8085 67.4053 99.6359 67.4932C99.4634 67.5778 99.3153 67.7048 99.1916 67.874C99.0679 68.0433 98.9719 68.25 98.9035 68.4941C98.8352 68.7383 98.801 69.0199 98.801 69.3389V69.5439C98.801 69.7946 98.8352 70.0306 98.9035 70.252C98.9751 70.4701 99.0777 70.6621 99.2111 70.8281C99.3479 70.9941 99.5122 71.1243 99.7043 71.2188C99.8996 71.3132 100.121 71.3604 100.368 71.3604C100.687 71.3604 100.958 71.2952 101.179 71.165C101.4 71.0348 101.594 70.8607 101.76 70.6426L102.307 71.0771C102.193 71.2497 102.048 71.4141 101.872 71.5703C101.696 71.7266 101.48 71.8535 101.223 71.9512C100.969 72.0488 100.668 72.0977 100.32 72.0977ZM105.644 71.3555C105.859 71.3555 106.058 71.3115 106.24 71.2236C106.422 71.1357 106.572 71.0153 106.689 70.8623C106.806 70.7061 106.873 70.5286 106.889 70.3301H107.749C107.732 70.6426 107.627 70.9339 107.431 71.2041C107.239 71.471 106.987 71.6875 106.674 71.8535C106.362 72.0163 106.018 72.0977 105.644 72.0977C105.247 72.0977 104.9 72.0277 104.604 71.8877C104.311 71.7477 104.067 71.5557 103.872 71.3115C103.68 71.0674 103.535 70.7874 103.437 70.4717C103.343 70.1527 103.296 69.8158 103.296 69.4609V69.2559C103.296 68.901 103.343 68.5658 103.437 68.25C103.535 67.931 103.68 67.6494 103.872 67.4053C104.067 67.1611 104.311 66.9691 104.604 66.8291C104.9 66.6891 105.247 66.6191 105.644 66.6191C106.058 66.6191 106.419 66.7038 106.728 66.873C107.037 67.0391 107.28 67.2669 107.456 67.5566C107.635 67.8431 107.732 68.1686 107.749 68.5332H106.889C106.873 68.3151 106.811 68.1182 106.704 67.9424C106.6 67.7666 106.456 67.6266 106.274 67.5225C106.095 67.415 105.885 67.3613 105.644 67.3613C105.367 67.3613 105.135 67.4167 104.946 67.5273C104.76 67.6348 104.612 67.7812 104.502 67.9668C104.394 68.1491 104.316 68.3525 104.267 68.5771C104.222 68.7985 104.199 69.0247 104.199 69.2559V69.4609C104.199 69.6921 104.222 69.9199 104.267 70.1445C104.313 70.3691 104.389 70.5726 104.497 70.7549C104.607 70.9372 104.755 71.0837 104.941 71.1943C105.13 71.3018 105.364 71.3555 105.644 71.3555ZM111.076 66.7168V67.4102H108.22V66.7168H111.076ZM109.187 65.4326H110.09V70.6914C110.09 70.8704 110.118 71.0055 110.173 71.0967C110.228 71.1878 110.3 71.248 110.388 71.2773C110.476 71.3066 110.57 71.3213 110.671 71.3213C110.746 71.3213 110.824 71.3148 110.905 71.3018C110.99 71.2855 111.053 71.2725 111.096 71.2627L111.101 72C111.029 72.0228 110.935 72.0439 110.817 72.0635C110.703 72.0863 110.565 72.0977 110.402 72.0977C110.181 72.0977 109.978 72.0537 109.792 71.9658C109.606 71.8779 109.458 71.7314 109.348 71.5264C109.24 71.318 109.187 71.0381 109.187 70.6865V65.4326ZM112.27 71.5215C112.27 71.3685 112.317 71.2399 112.412 71.1357C112.509 71.0283 112.649 70.9746 112.831 70.9746C113.014 70.9746 113.152 71.0283 113.246 71.1357C113.344 71.2399 113.393 71.3685 113.393 71.5215C113.393 71.6712 113.344 71.7982 113.246 71.9023C113.152 72.0065 113.014 72.0586 112.831 72.0586C112.649 72.0586 112.509 72.0065 112.412 71.9023C112.317 71.7982 112.27 71.6712 112.27 71.5215ZM114.404 71.5215C114.404 71.3685 114.451 71.2399 114.545 71.1357C114.643 71.0283 114.783 70.9746 114.965 70.9746C115.148 70.9746 115.286 71.0283 115.38 71.1357C115.478 71.2399 115.527 71.3685 115.527 71.5215C115.527 71.6712 115.478 71.7982 115.38 71.9023C115.286 72.0065 115.148 72.0586 114.965 72.0586C114.783 72.0586 114.643 72.0065 114.545 71.9023C114.451 71.7982 114.404 71.6712 114.404 71.5215ZM116.43 71.5215C116.43 71.3685 116.477 71.2399 116.572 71.1357C116.669 71.0283 116.809 70.9746 116.992 70.9746C117.174 70.9746 117.312 71.0283 117.407 71.1357C117.504 71.2399 117.553 71.3685 117.553 71.5215C117.553 71.6712 117.504 71.7982 117.407 71.9023C117.312 72.0065 117.174 72.0586 116.992 72.0586C116.809 72.0586 116.669 72.0065 116.572 71.9023C116.477 71.7982 116.43 71.6712 116.43 71.5215Z" fill="#4B4AD5"/>
<line opacity="0.3" x1="129.5" y1="35" x2="129.5" y2="81" stroke="#4B4AD5"/>
<path fill-rule="evenodd" clip-rule="evenodd" d="M150.179 58L154.303 62.1248C154.629 62.4503 154.629 62.9779 154.303 63.3033C153.978 63.6288 153.45 63.6288 153.125 63.3033L149 59.1785L144.875 63.3033C144.55 63.6288 144.022 63.6288 143.697 63.3033C143.371 62.9779 143.371 62.4503 143.697 62.1248L147.821 58L143.697 53.8752C143.371 53.5498 143.371 53.0222 143.697 52.6967C144.022 52.3713 144.55 52.3713 144.875 52.6967L149 56.8215L153.125 52.6967C153.45 52.3713 153.978 52.3713 154.303 52.6967C154.629 53.0222 154.629 53.5498 154.303 53.8752L150.179 58Z" fill="#4B4AD5"/>
</g>
<rect x="24.5" y="34.5" width="144" height="47" rx="9.5" stroke="#4B4AD5"/>
<g clip-path="url(#clip2_57_2792)">
<rect x="193" y="34" width="112" height="48" rx="10" fill="#4B4AD5"/>
<path d="M210.656 50.3262V51.3994H205.27V50.3262H210.656ZM205.475 46.0469V56H204.155V46.0469H205.475ZM211.805 46.0469V56H210.492V46.0469H211.805ZM217.127 56.1367C216.612 56.1367 216.145 56.0501 215.726 55.877C215.311 55.6992 214.954 55.4508 214.653 55.1318C214.357 54.8128 214.129 54.4346 213.969 53.9971C213.81 53.5596 213.73 53.0811 213.73 52.5615V52.2744C213.73 51.6729 213.819 51.1374 213.996 50.668C214.174 50.194 214.416 49.793 214.721 49.4648C215.026 49.1367 215.373 48.8883 215.76 48.7197C216.148 48.5511 216.549 48.4668 216.963 48.4668C217.492 48.4668 217.948 48.5579 218.33 48.7402C218.718 48.9225 219.035 49.1777 219.281 49.5059C219.527 49.8294 219.709 50.2122 219.828 50.6543C219.946 51.0918 220.005 51.5703 220.005 52.0898V52.6572H214.482V51.625H218.741V51.5293C218.722 51.2012 218.654 50.8822 218.536 50.5723C218.422 50.2624 218.239 50.0072 217.989 49.8066C217.738 49.6061 217.396 49.5059 216.963 49.5059C216.676 49.5059 216.412 49.5674 216.17 49.6904C215.929 49.8089 215.721 49.9867 215.548 50.2236C215.375 50.4606 215.241 50.75 215.145 51.0918C215.049 51.4336 215.001 51.8278 215.001 52.2744V52.5615C215.001 52.9124 215.049 53.2428 215.145 53.5527C215.245 53.8581 215.389 54.127 215.576 54.3594C215.767 54.5918 215.997 54.7741 216.266 54.9062C216.539 55.0384 216.849 55.1045 217.196 55.1045C217.642 55.1045 218.021 55.0133 218.33 54.8311C218.64 54.6488 218.912 54.4049 219.144 54.0996L219.91 54.708C219.75 54.9495 219.547 55.1797 219.301 55.3984C219.055 55.6172 218.752 55.7949 218.392 55.9316C218.037 56.0684 217.615 56.1367 217.127 56.1367ZM225.943 54.7354V50.9277C225.943 50.6361 225.884 50.3831 225.765 50.1689C225.651 49.9502 225.478 49.7816 225.246 49.6631C225.013 49.5446 224.726 49.4854 224.385 49.4854C224.066 49.4854 223.785 49.54 223.544 49.6494C223.307 49.7588 223.12 49.9023 222.983 50.0801C222.851 50.2578 222.785 50.4492 222.785 50.6543H221.52C221.52 50.39 221.589 50.1279 221.725 49.8682C221.862 49.6084 222.058 49.3737 222.313 49.1641C222.573 48.9499 222.883 48.7812 223.243 48.6582C223.608 48.5306 224.013 48.4668 224.46 48.4668C224.998 48.4668 225.471 48.5579 225.882 48.7402C226.296 48.9225 226.62 49.1982 226.852 49.5674C227.089 49.932 227.208 50.39 227.208 50.9414V54.3867C227.208 54.6328 227.228 54.8949 227.269 55.1729C227.315 55.4508 227.381 55.6901 227.468 55.8906V56H226.148C226.084 55.8542 226.034 55.6605 225.998 55.4189C225.961 55.1729 225.943 54.945 225.943 54.7354ZM226.162 51.5156L226.176 52.4043H224.897C224.537 52.4043 224.216 52.4339 223.933 52.4932C223.651 52.5479 223.414 52.6322 223.222 52.7461C223.031 52.86 222.885 53.0036 222.785 53.1768C222.685 53.3454 222.635 53.5436 222.635 53.7715C222.635 54.0039 222.687 54.2158 222.792 54.4072C222.897 54.5986 223.054 54.7513 223.263 54.8652C223.478 54.9746 223.74 55.0293 224.05 55.0293C224.437 55.0293 224.779 54.9473 225.075 54.7832C225.371 54.6191 225.606 54.4186 225.779 54.1816C225.957 53.9447 226.053 53.7145 226.066 53.4912L226.606 54.0996C226.574 54.291 226.488 54.5029 226.346 54.7354C226.205 54.9678 226.016 55.1911 225.779 55.4053C225.547 55.6149 225.269 55.7904 224.945 55.9316C224.626 56.0684 224.266 56.1367 223.865 56.1367C223.364 56.1367 222.924 56.0387 222.546 55.8428C222.172 55.6468 221.88 55.3848 221.671 55.0566C221.466 54.724 221.363 54.3525 221.363 53.9424C221.363 53.5459 221.441 53.1973 221.596 52.8965C221.75 52.5911 221.974 52.3382 222.265 52.1377C222.557 51.9326 222.908 51.7777 223.318 51.6729C223.728 51.568 224.186 51.5156 224.692 51.5156H226.162ZM232.394 48.6035V49.5742H228.395V48.6035H232.394ZM229.748 46.8057H231.013V54.168C231.013 54.4186 231.052 54.6077 231.129 54.7354C231.207 54.863 231.307 54.9473 231.43 54.9883C231.553 55.0293 231.685 55.0498 231.826 55.0498C231.931 55.0498 232.041 55.0407 232.154 55.0225C232.273 54.9997 232.362 54.9814 232.421 54.9678L232.428 56C232.328 56.0319 232.196 56.0615 232.031 56.0889C231.872 56.1208 231.678 56.1367 231.45 56.1367C231.14 56.1367 230.856 56.0752 230.596 55.9521C230.336 55.8291 230.129 55.624 229.974 55.3369C229.823 55.0452 229.748 54.6533 229.748 54.1611V46.8057Z" fill="white"/>
<path d="M206.457 65.5205L204.104 72H203.142L205.852 64.8906H206.472L206.457 65.5205ZM208.43 72L206.071 65.5205L206.057 64.8906H206.677L209.396 72H208.43ZM208.308 69.3682V70.1396H204.313V69.3682H208.308ZM213.642 70.9746V64.5H214.55V72H213.72L213.642 70.9746ZM210.087 69.417V69.3145C210.087 68.9108 210.136 68.5446 210.234 68.2158C210.335 67.8838 210.476 67.599 210.659 67.3613C210.844 67.1237 211.064 66.9414 211.318 66.8145C211.575 66.6842 211.861 66.6191 212.177 66.6191C212.509 66.6191 212.799 66.6777 213.046 66.7949C213.297 66.9089 213.509 67.0765 213.681 67.2979C213.857 67.516 213.995 67.7796 214.096 68.0889C214.197 68.3981 214.267 68.748 214.306 69.1387V69.5879C214.27 69.9753 214.2 70.3236 214.096 70.6328C213.995 70.9421 213.857 71.2057 213.681 71.4238C213.509 71.6419 213.297 71.8096 213.046 71.9268C212.796 72.0407 212.503 72.0977 212.167 72.0977C211.858 72.0977 211.575 72.0309 211.318 71.8975C211.064 71.764 210.844 71.5768 210.659 71.3359C210.476 71.0951 210.335 70.8118 210.234 70.4863C210.136 70.1576 210.087 69.8011 210.087 69.417ZM210.996 69.3145V69.417C210.996 69.6807 211.022 69.9281 211.074 70.1592C211.129 70.3903 211.214 70.5938 211.328 70.7695C211.441 70.9453 211.586 71.0837 211.762 71.1846C211.938 71.2822 212.148 71.3311 212.392 71.3311C212.691 71.3311 212.937 71.2676 213.129 71.1406C213.325 71.0137 213.481 70.846 213.598 70.6377C213.715 70.4294 213.806 70.2031 213.871 69.959V68.7822C213.832 68.6032 213.775 68.4307 213.701 68.2646C213.629 68.0954 213.535 67.9456 213.417 67.8154C213.303 67.682 213.162 67.5762 212.993 67.498C212.827 67.4199 212.63 67.3809 212.402 67.3809C212.154 67.3809 211.941 67.4329 211.762 67.5371C211.586 67.638 211.441 67.778 211.328 67.957C211.214 68.1328 211.129 68.3379 211.074 68.5723C211.022 68.8034 210.996 69.0508 210.996 69.3145ZM219.387 70.9746V64.5H220.295V72H219.465L219.387 70.9746ZM215.832 69.417V69.3145C215.832 68.9108 215.881 68.5446 215.978 68.2158C216.079 67.8838 216.221 67.599 216.403 67.3613C216.589 67.1237 216.808 66.9414 217.062 66.8145C217.319 66.6842 217.606 66.6191 217.922 66.6191C218.254 66.6191 218.543 66.6777 218.791 66.7949C219.041 66.9089 219.253 67.0765 219.426 67.2979C219.601 67.516 219.74 67.7796 219.841 68.0889C219.942 68.3981 220.012 68.748 220.051 69.1387V69.5879C220.015 69.9753 219.945 70.3236 219.841 70.6328C219.74 70.9421 219.601 71.2057 219.426 71.4238C219.253 71.6419 219.041 71.8096 218.791 71.9268C218.54 72.0407 218.247 72.0977 217.912 72.0977C217.603 72.0977 217.319 72.0309 217.062 71.8975C216.808 71.764 216.589 71.5768 216.403 71.3359C216.221 71.0951 216.079 70.8118 215.978 70.4863C215.881 70.1576 215.832 69.8011 215.832 69.417ZM216.74 69.3145V69.417C216.74 69.6807 216.766 69.9281 216.818 70.1592C216.874 70.3903 216.958 70.5938 217.072 70.7695C217.186 70.9453 217.331 71.0837 217.507 71.1846C217.682 71.2822 217.892 71.3311 218.137 71.3311C218.436 71.3311 218.682 71.2676 218.874 71.1406C219.069 71.0137 219.225 70.846 219.343 70.6377C219.46 70.4294 219.551 70.2031 219.616 69.959V68.7822C219.577 68.6032 219.52 68.4307 219.445 68.2646C219.374 68.0954 219.279 67.9456 219.162 67.8154C219.048 67.682 218.906 67.5762 218.737 67.498C218.571 67.4199 218.374 67.3809 218.146 67.3809C217.899 67.3809 217.686 67.4329 217.507 67.5371C217.331 67.638 217.186 67.778 217.072 67.957C216.958 68.1328 216.874 68.3379 216.818 68.5723C216.766 68.8034 216.74 69.0508 216.74 69.3145ZM226.442 72H224.958L224.967 71.2334H226.442C226.95 71.2334 227.373 71.1276 227.712 70.916C228.05 70.7012 228.304 70.4017 228.473 70.0176C228.646 69.6302 228.732 69.1777 228.732 68.6602V68.2256C228.732 67.8187 228.683 67.4574 228.586 67.1416C228.488 66.8226 228.345 66.554 228.156 66.3359C227.967 66.1146 227.736 65.9469 227.462 65.833C227.192 65.7191 226.881 65.6621 226.53 65.6621H224.928V64.8906H226.53C226.995 64.8906 227.42 64.9688 227.804 65.125C228.188 65.278 228.519 65.501 228.796 65.7939C229.075 66.0837 229.29 66.4352 229.44 66.8486C229.59 67.2588 229.665 67.721 229.665 68.2354V68.6602C229.665 69.1745 229.59 69.6383 229.44 70.0518C229.29 70.4619 229.074 70.8118 228.791 71.1016C228.511 71.3913 228.172 71.6143 227.775 71.7705C227.381 71.9235 226.937 72 226.442 72ZM225.461 64.8906V72H224.518V64.8906H225.461ZM233.236 72.0977C232.868 72.0977 232.535 72.0358 232.235 71.9121C231.939 71.7852 231.684 71.6077 231.469 71.3799C231.257 71.152 231.094 70.8818 230.98 70.5693C230.867 70.2568 230.81 69.915 230.81 69.5439V69.3389C230.81 68.9092 230.873 68.5267 231 68.1914C231.127 67.8529 231.299 67.5664 231.518 67.332C231.736 67.0977 231.983 66.9202 232.26 66.7998C232.536 66.6794 232.823 66.6191 233.119 66.6191C233.497 66.6191 233.822 66.6842 234.096 66.8145C234.372 66.9447 234.599 67.127 234.774 67.3613C234.95 67.5924 235.08 67.8659 235.165 68.1816C235.25 68.4941 235.292 68.8359 235.292 69.207V69.6123H231.347V68.875H234.389V68.8066C234.376 68.5723 234.327 68.3444 234.242 68.123C234.161 67.9017 234.031 67.7194 233.852 67.5762C233.673 67.4329 233.428 67.3613 233.119 67.3613C232.914 67.3613 232.725 67.4053 232.553 67.4932C232.38 67.5778 232.232 67.7048 232.108 67.874C231.985 68.0433 231.889 68.25 231.82 68.4941C231.752 68.7383 231.718 69.0199 231.718 69.3389V69.5439C231.718 69.7946 231.752 70.0306 231.82 70.252C231.892 70.4701 231.994 70.6621 232.128 70.8281C232.265 70.9941 232.429 71.1243 232.621 71.2188C232.816 71.3132 233.038 71.3604 233.285 71.3604C233.604 71.3604 233.874 71.2952 234.096 71.165C234.317 71.0348 234.511 70.8607 234.677 70.6426L235.224 71.0771C235.11 71.2497 234.965 71.4141 234.789 71.5703C234.613 71.7266 234.397 71.8535 234.14 71.9512C233.886 72.0488 233.585 72.0977 233.236 72.0977ZM238.659 66.7168V67.4102H235.802V66.7168H238.659ZM236.769 65.4326H237.672V70.6914C237.672 70.8704 237.7 71.0055 237.755 71.0967C237.811 71.1878 237.882 71.248 237.97 71.2773C238.058 71.3066 238.152 71.3213 238.253 71.3213C238.328 71.3213 238.406 71.3148 238.488 71.3018C238.572 71.2855 238.636 71.2725 238.678 71.2627L238.683 72C238.611 72.0228 238.517 72.0439 238.4 72.0635C238.286 72.0863 238.148 72.0977 237.985 72.0977C237.763 72.0977 237.56 72.0537 237.374 71.9658C237.189 71.8779 237.041 71.7314 236.93 71.5264C236.823 71.318 236.769 71.0381 236.769 70.6865V65.4326ZM242.933 71.0967V68.377C242.933 68.1686 242.891 67.988 242.806 67.835C242.725 67.6787 242.601 67.5583 242.435 67.4736C242.269 67.389 242.064 67.3467 241.82 67.3467C241.592 67.3467 241.392 67.3857 241.22 67.4639C241.05 67.542 240.917 67.6445 240.819 67.7715C240.725 67.8984 240.678 68.0352 240.678 68.1816H239.774C239.774 67.9928 239.823 67.8057 239.921 67.6201C240.018 67.4346 240.158 67.2669 240.341 67.1172C240.526 66.9642 240.748 66.8438 241.005 66.7559C241.265 66.6647 241.555 66.6191 241.874 66.6191C242.258 66.6191 242.596 66.6842 242.889 66.8145C243.186 66.9447 243.417 67.1416 243.583 67.4053C243.752 67.6657 243.837 67.9928 243.837 68.3867V70.8477C243.837 71.0234 243.851 71.2106 243.881 71.4092C243.913 71.6077 243.96 71.7786 244.022 71.9219V72H243.08C243.034 71.8958 242.999 71.7575 242.972 71.585C242.946 71.4092 242.933 71.2464 242.933 71.0967ZM243.09 68.7969L243.099 69.4316H242.186C241.929 69.4316 241.7 69.4528 241.498 69.4951C241.296 69.5342 241.127 69.5944 240.99 69.6758C240.853 69.7572 240.749 69.8597 240.678 69.9834C240.606 70.1038 240.57 70.2454 240.57 70.4082C240.57 70.5742 240.608 70.7256 240.682 70.8623C240.757 70.999 240.87 71.1081 241.019 71.1895C241.172 71.2676 241.36 71.3066 241.581 71.3066C241.858 71.3066 242.102 71.248 242.313 71.1309C242.525 71.0137 242.693 70.8704 242.816 70.7012C242.943 70.5319 243.012 70.3675 243.021 70.208L243.407 70.6426C243.384 70.7793 243.322 70.9307 243.221 71.0967C243.121 71.2627 242.985 71.4222 242.816 71.5752C242.65 71.7249 242.452 71.8503 242.221 71.9512C241.993 72.0488 241.735 72.0977 241.449 72.0977C241.091 72.0977 240.777 72.0277 240.507 71.8877C240.24 71.7477 240.031 71.5605 239.882 71.3262C239.735 71.0885 239.662 70.8232 239.662 70.5303C239.662 70.2471 239.717 69.998 239.828 69.7832C239.939 69.5651 240.098 69.3844 240.306 69.2412C240.515 69.0947 240.765 68.984 241.058 68.9092C241.351 68.8343 241.679 68.7969 242.04 68.7969H243.09ZM246.339 66.7168V72H245.431V66.7168H246.339ZM245.362 65.3154C245.362 65.1689 245.406 65.0452 245.494 64.9443C245.585 64.8434 245.719 64.793 245.895 64.793C246.067 64.793 246.199 64.8434 246.29 64.9443C246.385 65.0452 246.432 65.1689 246.432 65.3154C246.432 65.4554 246.385 65.5758 246.29 65.6768C246.199 65.7744 246.067 65.8232 245.895 65.8232C245.719 65.8232 245.585 65.7744 245.494 65.6768C245.406 65.5758 245.362 65.4554 245.362 65.3154ZM248.871 64.5V72H247.963V64.5H248.871ZM253.497 70.5986C253.497 70.4684 253.468 70.348 253.409 70.2373C253.354 70.1234 253.238 70.0208 253.062 69.9297C252.89 69.8353 252.63 69.7539 252.281 69.6855C251.988 69.6237 251.723 69.5505 251.485 69.4658C251.251 69.3812 251.051 69.2786 250.885 69.1582C250.722 69.0378 250.597 68.8962 250.509 68.7334C250.421 68.5706 250.377 68.3802 250.377 68.1621C250.377 67.9538 250.423 67.7568 250.514 67.5713C250.608 67.3857 250.74 67.2214 250.909 67.0781C251.082 66.9349 251.288 66.8226 251.529 66.7412C251.77 66.6598 252.039 66.6191 252.335 66.6191C252.758 66.6191 253.119 66.694 253.419 66.8438C253.718 66.9935 253.948 67.1937 254.107 67.4443C254.267 67.6917 254.347 67.9668 254.347 68.2695H253.443C253.443 68.123 253.399 67.9814 253.312 67.8447C253.227 67.7048 253.102 67.5892 252.936 67.498C252.773 67.4069 252.573 67.3613 252.335 67.3613C252.084 67.3613 251.881 67.4004 251.725 67.4785C251.572 67.5534 251.459 67.6494 251.388 67.7666C251.319 67.8838 251.285 68.0075 251.285 68.1377C251.285 68.2354 251.301 68.3232 251.334 68.4014C251.37 68.4762 251.432 68.5462 251.52 68.6113C251.607 68.6732 251.731 68.7318 251.891 68.7871C252.05 68.8424 252.254 68.8978 252.501 68.9531C252.934 69.0508 253.29 69.168 253.57 69.3047C253.85 69.4414 254.059 69.609 254.195 69.8076C254.332 70.0062 254.4 70.2471 254.4 70.5303C254.4 70.7614 254.352 70.973 254.254 71.165C254.16 71.3571 254.021 71.5231 253.839 71.6631C253.66 71.7998 253.445 71.9072 253.194 71.9854C252.947 72.0602 252.669 72.0977 252.359 72.0977C251.894 72.0977 251.5 72.0146 251.178 71.8486C250.855 71.6826 250.611 71.4678 250.445 71.2041C250.279 70.9404 250.196 70.6621 250.196 70.3691H251.104C251.118 70.6165 251.189 70.8135 251.319 70.96C251.45 71.1032 251.609 71.2057 251.798 71.2676C251.987 71.3262 252.174 71.3555 252.359 71.3555C252.607 71.3555 252.813 71.3229 252.979 71.2578C253.149 71.1927 253.277 71.1032 253.365 70.9893C253.453 70.8753 253.497 70.7451 253.497 70.5986Z" fill="white"/>
<line opacity="0.3" x1="265.5" y1="35" x2="265.5" y2="81" stroke="#FAFAFB"/>
<path fill-rule="evenodd" clip-rule="evenodd" d="M286.179 58L290.303 62.1248C290.629 62.4503 290.629 62.9779 290.303 63.3033C289.978 63.6288 289.45 63.6288 289.125 63.3033L285 59.1785L280.875 63.3033C280.55 63.6288 280.022 63.6288 279.697 63.3033C279.371 62.9779 279.371 62.4503 279.697 62.1248L283.821 58L279.697 53.8752C279.371 53.5498 279.371 53.0222 279.697 52.6967C280.022 52.3713 280.55 52.3713 280.875 52.6967L285 56.8215L289.125 52.6967C289.45 52.3713 289.978 52.3713 290.303 52.6967C290.629 53.0222 290.629 53.5498 290.303 53.8752L286.179 58Z" fill="white"/>
</g>
<path d="M258.805 92.0427L258.805 92.0414C258.631 90.4276 258.194 88.8531 257.51 87.3809C256.063 84.2672 254.612 81.155 253.158 78.0442L253.158 78.0438L252.505 76.6432C252.305 76.4021 252.044 76.2186 251.749 76.1121L251.747 76.1115C251.448 76.0025 251.125 75.9753 250.812 76.0328C250.499 76.0903 250.207 76.2304 249.966 76.4385C249.726 76.6467 249.545 76.9154 249.443 77.2168C249.346 77.501 249.323 77.8046 249.375 78.0995L250.061 79.5701L250.272 80.0232L249.819 80.2345L248.559 80.8222L248.106 81.0335L247.894 80.5804L246.49 77.5681C246.264 77.2273 245.925 76.9768 245.533 76.8611C245.131 76.7427 244.7 76.7737 244.319 76.9484L244.3 76.9572L244.3 76.9575C243.911 77.1382 243.603 77.4562 243.435 77.8503C243.27 78.2367 243.251 78.6695 243.38 79.0686L244.759 82.0245L244.97 82.4777L244.517 82.689L243.239 83.2848L242.786 83.4961L242.574 83.043L240.498 78.5896C240.304 78.1747 239.954 77.8537 239.524 77.6971C239.094 77.5405 238.619 77.5612 238.204 77.7547C237.789 77.9482 237.468 78.2986 237.311 78.7287C237.155 79.1589 237.176 79.6337 237.369 80.0486L239.454 84.5195L239.665 84.9726L239.212 85.1839L237.973 85.7616L237.541 85.9631L237.319 85.5409C237.293 85.4914 237.264 85.4372 237.233 85.38C237.157 85.2395 237.071 85.0808 237.001 84.9297C236.465 83.7794 235.841 82.4401 235.185 81.0313C233.765 77.9826 232.194 74.6087 231.028 72.1218L231.028 72.121C230.78 71.5897 230.408 71.2489 230.005 71.0883C229.605 70.9287 229.14 70.9329 228.672 71.1516L228.669 71.1526C228.278 71.333 227.969 71.6555 227.806 72.0547C227.643 72.454 227.638 72.9002 227.792 73.3032L227.792 73.3038C227.874 73.5207 227.972 73.7276 228.08 73.9546C228.111 74.0198 228.142 74.0866 228.174 74.1558L228.19 74.19L228.206 74.2242L228.222 74.2585L228.238 74.2928L228.254 74.3272L228.27 74.3615L228.286 74.396L228.302 74.4305L228.319 74.465L228.335 74.4995L228.351 74.5341L228.367 74.5688L228.383 74.6035L228.399 74.6382L228.416 74.673L228.432 74.7078L228.448 74.7426L228.464 74.7775L228.481 74.8124L228.497 74.8474L228.513 74.8824L228.53 74.9175L228.546 74.9525L228.562 74.9877L228.579 75.0228L228.595 75.058L228.612 75.0933L228.628 75.1286L228.644 75.1639L228.661 75.1993L228.677 75.2347L228.694 75.2701L228.711 75.3056L228.727 75.3411L228.744 75.3766L228.76 75.4122L228.777 75.4478L228.794 75.4835L228.81 75.5192L228.827 75.5549L228.844 75.5907L228.86 75.6265L228.877 75.6624L228.894 75.6982L228.91 75.7342L228.927 75.7701L228.944 75.8061L228.961 75.8421L228.978 75.8782L228.994 75.9143L229.011 75.9504L229.028 75.9866L229.045 76.0228L229.062 76.059L229.079 76.0952L229.096 76.1315L229.113 76.1679L229.13 76.2042L229.147 76.2406L229.164 76.2771L229.181 76.3136L229.198 76.3501L229.215 76.3866L229.232 76.4231L229.249 76.4597L229.266 76.4964L229.283 76.533L229.3 76.5697L229.317 76.6065L229.334 76.6432L229.351 76.68L229.369 76.7168L229.386 76.7537L229.403 76.7906L229.42 76.8275L229.437 76.8644L229.455 76.9014L229.472 76.9384L229.489 76.9754L229.506 77.0125L229.524 77.0496L229.541 77.0867L229.558 77.1239L229.576 77.1611L229.593 77.1983L229.61 77.2355L229.628 77.2728L229.645 77.3101L229.663 77.3474L229.68 77.3848L229.698 77.4221L229.715 77.4596L229.732 77.497L229.75 77.5345L229.767 77.572L229.785 77.6095L229.802 77.647L229.82 77.6846L229.837 77.7222L229.855 77.7598L229.873 77.7975L229.89 77.8352L229.908 77.8729L229.925 77.9106L229.943 77.9484L229.961 77.9861L229.978 78.024L229.996 78.0618L230.013 78.0996L230.031 78.1375L230.049 78.1754L230.066 78.2134L230.084 78.2513L230.102 78.2893L230.12 78.3273L230.137 78.3654L230.155 78.4034L230.173 78.4415L230.191 78.4796L230.208 78.5177L230.226 78.5559L230.244 78.594L230.262 78.6322L230.28 78.6704L230.297 78.7087L230.315 78.7469L230.333 78.7852L230.351 78.8235L230.369 78.8618L230.387 78.9002L230.405 78.9386L230.423 78.9769L230.44 79.0153L230.458 79.0538L230.476 79.0922L230.494 79.1307L230.512 79.1692L230.53 79.2077L230.548 79.2462L230.566 79.2848L230.584 79.3234L230.602 79.362L230.62 79.4006L230.638 79.4392L230.656 79.4778L230.674 79.5165L230.692 79.5552L230.71 79.5939L230.728 79.6326L230.746 79.6714L230.764 79.7101L230.782 79.7489L230.801 79.7877L230.819 79.8265L230.837 79.8653L230.855 79.9042L230.873 79.943L230.891 79.9819L230.909 80.0208L230.927 80.0597L230.946 80.0986L230.964 80.1376L230.982 80.1766L231 80.2155L231.018 80.2545L231.036 80.2935L231.055 80.3326L231.073 80.3716L231.091 80.4106L231.109 80.4497L231.128 80.4888L231.146 80.5279L231.164 80.567L231.182 80.6061L231.2 80.6453L231.219 80.6844L231.237 80.7236L231.255 80.7627L231.274 80.8019L231.292 80.8411L231.31 80.8804L231.328 80.9196L231.347 80.9588L231.365 80.9981L231.383 81.0374L231.402 81.0766L231.42 81.1159L231.438 81.1552L231.457 81.1945L231.475 81.2339L231.493 81.2732L231.512 81.3126L231.53 81.3519L231.548 81.3913L231.567 81.4307L231.585 81.47L231.603 81.5094L231.622 81.5489L231.64 81.5883L231.659 81.6277L231.677 81.6671L231.695 81.7066L231.714 81.7461L231.732 81.7855L231.751 81.825L231.769 81.8645L231.787 81.904L231.806 81.9435L231.824 81.983L231.843 82.0225L231.861 82.062L231.88 82.1015L231.898 82.1411L231.916 82.1806L231.935 82.2202L231.953 82.2597L231.972 82.2993L231.99 82.3389L232.009 82.3785L232.027 82.4181L232.046 82.4576L232.064 82.4972L232.083 82.5369L232.101 82.5765L232.119 82.6161L232.138 82.6557L232.156 82.6953L232.175 82.735L232.193 82.7746L232.212 82.8142L232.23 82.8539L232.249 82.8935L232.267 82.9332L232.286 82.9728L232.304 83.0125L232.323 83.0521L232.341 83.0918L232.36 83.1315L232.378 83.1712L232.397 83.2108L232.415 83.2505L232.434 83.2902L232.452 83.3299L232.471 83.3696L232.489 83.4093L232.508 83.4489L232.526 83.4886L232.545 83.5283L232.563 83.568L232.582 83.6077L232.6 83.6474L232.619 83.6871L232.637 83.7268L232.656 83.7665L232.674 83.8062L232.693 83.8459L232.711 83.8856L232.73 83.9253L232.748 83.965L232.767 84.0047L232.786 84.0444L232.804 84.0841L232.823 84.1238L232.841 84.1635L232.86 84.2032L232.878 84.2429L232.897 84.2825L232.915 84.3222L232.934 84.3619L232.952 84.4016L232.971 84.4413L232.989 84.481L233.008 84.5206L233.026 84.5603L233.045 84.6L233.063 84.6396L233.082 84.6793L233.1 84.719L233.119 84.7586L233.137 84.7983L233.156 84.8379L233.174 84.8776L233.193 84.9172L233.211 84.9568L233.229 84.9965L233.248 85.0361L233.266 85.0757L233.285 85.1153L233.303 85.1549L233.322 85.1945L233.34 85.2341L233.359 85.2737L233.377 85.3133L233.396 85.3529L233.414 85.3925L233.433 85.432L233.451 85.4716L233.469 85.5111L233.488 85.5507L233.506 85.5902L233.525 85.6298L233.543 85.6693L233.562 85.7088L233.58 85.7483L233.598 85.7878L233.617 85.8273L233.635 85.8668L233.654 85.9062L233.672 85.9457L233.691 85.9852L233.709 86.0246L233.727 86.064L233.746 86.1035L233.764 86.1429L233.782 86.1823L233.801 86.2217L233.819 86.2611L233.838 86.3005L233.856 86.3398L233.874 86.3792L233.893 86.4185L233.911 86.4579L233.929 86.4972L233.948 86.5365L233.966 86.5758L233.984 86.6151L234.003 86.6544L234.021 86.6936L234.039 86.7329L234.057 86.7721L234.076 86.8114L234.094 86.8506L234.112 86.8898L234.131 86.929L234.149 86.9681L234.167 87.0073L234.185 87.0464L234.204 87.0856L234.222 87.1247L234.24 87.1638L234.258 87.2029L234.277 87.242L234.295 87.281L234.313 87.3201L234.331 87.3591L234.349 87.3981L234.368 87.4372L234.386 87.4761L234.404 87.5151L234.422 87.5541L234.44 87.593L234.458 87.6319L234.477 87.6708L234.495 87.7097L234.513 87.7486L234.531 87.7875L234.549 87.8263L234.567 87.8651L234.585 87.9039L234.603 87.9427L234.621 87.9815L234.64 88.0203L234.658 88.059L234.676 88.0977L234.694 88.1364L234.712 88.1751L234.73 88.2138L234.748 88.2524L234.766 88.291L234.784 88.3296L234.802 88.3682L234.82 88.4068L234.838 88.4454L234.856 88.4839L234.874 88.5224L234.892 88.5609L234.91 88.5993L234.927 88.6378L234.945 88.6762L234.963 88.7146L234.981 88.753L234.999 88.7914L235.017 88.8297L235.035 88.868L235.053 88.9063L235.071 88.9446L235.088 88.9829L235.106 89.0211L235.124 89.0593L235.142 89.0975L235.16 89.1357L235.177 89.1738L235.195 89.2119L235.213 89.25L235.231 89.2881L235.248 89.3261L235.266 89.3642L235.284 89.4022L235.302 89.4402L235.319 89.4781L235.337 89.516L235.355 89.5539L235.372 89.5918L235.39 89.6297L235.408 89.6675L235.425 89.7053L235.443 89.7431L235.46 89.7808L235.478 89.8186L235.496 89.8563L235.513 89.8939L235.531 89.9316L235.548 89.9692L235.566 90.0068L235.583 90.0444L235.601 90.0819L235.618 90.1194L235.636 90.1569L235.653 90.1944L235.671 90.2318L235.688 90.2692L235.706 90.3066L235.723 90.344L235.74 90.3813L235.758 90.4186L235.775 90.4558L235.793 90.4931L235.81 90.5303L235.827 90.5675L235.845 90.6046L235.862 90.6417L235.879 90.6788L235.896 90.7159L235.914 90.7529L235.931 90.7899L235.948 90.8269L235.965 90.8638L235.983 90.9007L236 90.9376L236.017 90.9744L236.034 91.0113L236.051 91.048L236.069 91.0848L236.086 91.1215L236.103 91.1582L236.12 91.1949L236.137 91.2315L236.154 91.2681L236.171 91.3046L236.188 91.3412L236.205 91.3777L236.222 91.4141L236.239 91.4506L236.256 91.4869L236.273 91.5233L236.29 91.5596L236.307 91.5959L236.324 91.6322L236.341 91.6684L236.358 91.7046L236.374 91.7408L236.391 91.7769L236.408 91.813L236.425 91.849L236.442 91.885L236.458 91.921L236.475 91.957L236.492 91.9929L236.509 92.0287L236.525 92.0646L236.542 92.1004L236.559 92.1361L236.575 92.1719L236.592 92.2076L236.609 92.2432L236.625 92.2788L236.642 92.3144L236.658 92.35L236.675 92.3855L236.692 92.4209L236.708 92.4564L236.725 92.4918L236.741 92.5271L236.758 92.5624L236.774 92.5977L236.79 92.6329L236.807 92.6681L236.823 92.7033L236.84 92.7384L236.856 92.7735L236.872 92.8085L236.889 92.8435L236.905 92.8785L236.921 92.9134L236.937 92.9483L236.954 92.9831L236.97 93.018L236.986 93.0527L237.002 93.0874L237.019 93.1221L237.035 93.1567L237.051 93.1913L237.067 93.2259L237.083 93.2604L237.099 93.2949L237.115 93.3293L237.131 93.3637L237.147 93.398L237.163 93.4323L237.179 93.4666L237.195 93.5008L237.211 93.535L237.211 93.5355L237.212 93.536L237.212 93.5365L237.212 93.537L237.212 93.5375L237.212 93.538L237.213 93.5385L237.213 93.539L237.213 93.5395L237.213 93.54L237.214 93.5405L237.214 93.541L237.214 93.5415L237.214 93.542L237.215 93.5425L237.215 93.543L237.215 93.5435L237.215 93.544L237.216 93.5445L237.216 93.545L237.216 93.5455L237.216 93.5461L237.216 93.5466L237.217 93.5471L237.217 93.5476L237.217 93.5481L237.217 93.5486L237.218 93.5491L237.218 93.5496L237.218 93.5501L237.218 93.5506L237.219 93.5511L237.219 93.5516L237.219 93.5521L237.219 93.5526L237.22 93.5531L237.22 93.5536L237.22 93.5541L237.22 93.5546L237.22 93.5551L237.221 93.5556L237.221 93.5561L237.221 93.5566L237.221 93.5572L237.222 93.5577L237.222 93.5582L237.222 93.5587L237.222 93.5592L237.223 93.5597L237.223 93.5602L237.223 93.5607L237.223 93.5612L237.224 93.5617L237.224 93.5622L237.224 93.5627L237.224 93.5632L237.224 93.5637L237.225 93.5642L237.225 93.5647L237.225 93.5652L237.225 93.5657L237.226 93.5662L237.226 93.5667L237.226 93.5672L237.226 93.5677L237.227 93.5682L237.227 93.5688L237.227 93.5693L237.227 93.5698L237.228 93.5703L237.228 93.5708L237.228 93.5713L237.228 93.5718L237.228 93.5723L237.229 93.5728L237.229 93.5733L237.229 93.5738L237.229 93.5743L237.23 93.5748L237.23 93.5753L237.23 93.5758L237.23 93.5763L237.231 93.5768L237.231 93.5773L237.231 93.5778L237.231 93.5783L237.232 93.5788L237.232 93.5793L237.232 93.5798L237.232 93.5804L237.232 93.5809L237.233 93.5814L237.233 93.5819L237.233 93.5824L237.233 93.5829L237.234 93.5834L237.234 93.5839L237.234 93.5844L237.234 93.5849L237.235 93.5854L237.235 93.5859L237.235 93.5864L237.235 93.5869L237.236 93.5874L237.236 93.5879L237.236 93.5884L237.236 93.5889L237.236 93.5894L237.237 93.5899L237.237 93.5904L237.237 93.5909L237.237 93.5914L237.238 93.592L237.238 93.5925L237.238 93.593L237.238 93.5935L237.239 93.594L237.239 93.5945L237.239 93.595L237.239 93.5955L237.24 93.596L237.24 93.5965L237.24 93.597L237.24 93.5975L237.24 93.598L237.241 93.5985L237.241 93.599L237.241 93.5995L237.241 93.6L237.242 93.6005L237.242 93.601L237.242 93.6015L237.242 93.602L237.243 93.6025L237.243 93.603L237.243 93.6036L237.243 93.6041L237.244 93.6046L237.244 93.6051L237.244 93.6056L237.244 93.6061L237.244 93.6066L237.245 93.6071L237.245 93.6076L237.245 93.6081L237.245 93.6086L237.246 93.6091L237.246 93.6096L237.246 93.6101L237.246 93.6106L237.247 93.6111L237.247 93.6116L237.247 93.6121L237.247 93.6126L237.247 93.6131L237.248 93.6136L237.248 93.6141L237.248 93.6147L237.248 93.6152L237.249 93.6157L237.249 93.6162L237.249 93.6167L237.249 93.6172L237.25 93.6177L237.25 93.6182L237.25 93.6187L237.25 93.6192L237.251 93.6197L237.251 93.6202L237.251 93.6207L237.251 93.6212L237.251 93.6217L237.252 93.6222L237.252 93.6227L237.252 93.6232L237.252 93.6237L237.253 93.6242L237.253 93.6247L237.253 93.6252L237.253 93.6257L237.254 93.6263L237.254 93.6268L237.254 93.6273L237.254 93.6278L237.255 93.6283L237.255 93.6288L237.255 93.6293L237.255 93.6298L237.255 93.6303L237.256 93.6308L237.256 93.6313L237.256 93.6318L237.256 93.6323L237.257 93.6328L237.257 93.6333L237.257 93.6338L237.257 93.6343L237.258 93.6348L237.258 93.6353L237.258 93.6358L237.258 93.6363L237.259 93.6368L237.259 93.6373L237.259 93.6379L237.259 93.6384L237.259 93.6389L237.26 93.6394L237.26 93.6399L237.26 93.6404L237.26 93.6409L237.261 93.6414L237.261 93.6419L237.261 93.6424L237.261 93.6429L237.262 93.6434L237.262 93.6439L237.262 93.6444L237.262 93.6449L237.263 93.6454L237.263 93.6459L237.263 93.6464L237.263 93.6469L237.263 93.6474L237.264 93.6479L237.264 93.6484L237.264 93.6489L237.264 93.6495L237.265 93.65L237.265 93.6505L237.265 93.651L237.265 93.6515L237.266 93.652L237.266 93.6525L237.266 93.653L237.266 93.6535L237.267 93.654L237.267 93.6545L237.267 93.655L237.267 93.6555L237.267 93.656L237.268 93.6565L237.268 93.657L237.268 93.6575L237.268 93.658L237.269 93.6585L237.269 93.659L237.269 93.6595L237.269 93.66L237.27 93.6605L237.27 93.6611L237.27 93.6616L237.27 93.6621L237.271 93.6626L237.271 93.6631L237.271 93.6636L237.271 93.6641L237.271 93.6646L237.272 93.6651L237.272 93.6656L237.272 93.6661L237.272 93.6666L237.273 93.6671L237.273 93.6676L237.273 93.6681L237.273 93.6686L237.274 93.6691L237.274 93.6696L237.274 93.6701L237.274 93.6706L237.275 93.6711L237.275 93.6716L237.275 93.6721L237.275 93.6727L237.275 93.6732L237.276 93.6737L237.276 93.6742L237.276 93.6747L237.276 93.6752L237.277 93.6757L237.277 93.6762L237.277 93.6767L237.277 93.6772L237.278 93.6777L237.278 93.6782L237.278 93.6787L237.278 93.6792L237.279 93.6797L237.279 93.6802L237.279 93.6807L237.279 93.6812L237.279 93.6817L237.28 93.6822L237.28 93.6827L237.28 93.6832L237.28 93.6838L237.281 93.6843L237.281 93.6848L237.281 93.6853L237.281 93.6858L237.282 93.6863L237.282 93.6868L237.282 93.6873L237.282 93.6878L237.283 93.6883L237.283 93.6888L237.283 93.6893L237.283 93.6898L237.283 93.6903L237.284 93.6908L237.284 93.6913L237.284 93.6918L237.284 93.6923L237.285 93.6928L237.285 93.6933L237.285 93.6938L237.285 93.6943L237.286 93.6948L237.286 93.6954L237.286 93.6959L237.286 93.6964L237.287 93.6969L237.287 93.6974L237.287 93.6979L237.287 93.6984L237.287 93.6989L237.288 93.6994L237.288 93.6999L237.288 93.7004L237.288 93.7009L237.289 93.7014L237.289 93.7019L237.289 93.7024L237.289 93.7029L237.29 93.7034L237.29 93.7039L237.29 93.7044L237.29 93.7049L237.291 93.7054L237.291 93.7059L237.291 93.7064L237.291 93.707L237.291 93.7075L237.292 93.708L237.292 93.7085L237.292 93.709L237.292 93.7095L237.293 93.71L237.293 93.7105L237.293 93.711L237.293 93.7115L237.294 93.712L237.294 93.7125L237.294 93.713L237.294 93.7135L237.295 93.714L237.295 93.7145L237.295 93.715L237.295 93.7155L237.295 93.716L237.296 93.7165L237.296 93.717L237.296 93.7175L237.296 93.718L237.297 93.7186L237.297 93.7191L237.297 93.7196L237.297 93.7201L237.298 93.7206L237.298 93.7211L237.298 93.7216L237.298 93.7221L237.299 93.7226L237.299 93.7231L237.299 93.7236L237.299 93.7241L237.299 93.7246L237.3 93.7251L237.3 93.7256L237.3 93.7261L237.3 93.7266L237.301 93.7271L237.301 93.7276L237.301 93.7281L237.301 93.7286L237.302 93.7291L237.302 93.7296L237.302 93.7302L237.302 93.7307L237.303 93.7312L237.303 93.7317L237.303 93.7322L237.303 93.7327L237.303 93.7332L237.304 93.7337L237.304 93.7342L237.304 93.7347L237.304 93.7352L237.305 93.7357L237.305 93.7362L237.305 93.7367L237.305 93.7372L237.306 93.7377L237.306 93.7382L237.306 93.7387L237.306 93.7392L237.307 93.7397L237.307 93.7402L237.307 93.7407L237.307 93.7412L237.307 93.7418L237.308 93.7423L237.308 93.7428L237.308 93.7433L237.308 93.7438L237.309 93.7443L237.309 93.7448L237.309 93.7453L237.309 93.7458L237.31 93.7463L237.31 93.7468L237.31 93.7473L237.31 93.7478L237.311 93.7483L237.311 93.7488L237.311 93.7493L237.311 93.7498L237.311 93.7503L237.312 93.7508L237.312 93.7513L237.312 93.7518L237.312 93.7523L237.313 93.7529L237.313 93.7534L237.313 93.7539L237.313 93.7544L237.314 93.7549L237.314 93.7554L237.314 93.7559L237.314 93.7564L237.315 93.7569L237.315 93.7574L237.315 93.7579L237.315 93.7584L237.315 93.7589L237.316 93.7594L237.316 93.7599L237.316 93.7604L237.316 93.7609L237.317 93.7614L237.317 93.7619L237.317 93.7624L237.317 93.7629L237.318 93.7634L237.318 93.7639L237.318 93.7645L237.318 93.765L237.319 93.7655L237.319 93.766L237.319 93.7665L237.319 93.767L237.319 93.7675L237.32 93.768L237.32 93.7685L237.32 93.769L237.32 93.7695L237.321 93.77L237.321 93.7705L237.321 93.771L237.321 93.7715L237.322 93.772L237.322 93.7725L237.322 93.773L237.322 93.7735L237.323 93.774L237.323 93.7745L237.323 93.775L237.323 93.7755L237.323 93.7761L237.324 93.7766L237.324 93.7771L237.324 93.7776L237.324 93.7781L237.325 93.7786L237.325 93.7791L237.325 93.7796L237.325 93.7801L237.326 93.7806L237.326 93.7811L237.326 93.7816L237.326 93.7821L237.327 93.7826L237.327 93.7831L237.327 93.7836L237.327 93.7841L237.327 93.7846L237.328 93.7851L237.328 93.7856L237.328 93.7861L237.328 93.7866L237.329 93.7872L237.329 93.7877L237.329 93.7882L237.329 93.7887L237.33 93.7892L237.33 93.7897L237.33 93.7902L237.33 93.7907L237.331 93.7912L237.331 93.7917L237.331 93.7922L237.331 93.7927L237.331 93.7932L237.335 93.8003L237.335 93.8004C237.431 94.0147 237.508 94.2773 237.473 94.5593C237.436 94.8604 237.28 95.1181 237.03 95.3191C236.777 95.523 236.491 95.6157 236.19 95.5844C235.912 95.5555 235.675 95.4258 235.491 95.2967C234.089 94.3133 232.686 93.3298 231.284 92.346L231.282 92.3446C230.961 92.1167 230.656 91.9968 230.366 91.9676C230.079 91.9388 229.774 91.9948 229.44 92.1716L258.805 92.0427ZM258.805 92.0427C259.324 96.7577 257.1 100.8 252.856 102.818L252.651 102.913C251.957 103.231 251.237 103.486 250.499 103.678C250.064 103.788 249.625 103.875 249.181 103.939L249.181 103.939M258.805 92.0427L249.181 103.939M249.181 103.939C247.031 104.253 244.834 104.031 242.598 103.459M249.181 103.939L249.253 104.434C247.02 104.759 244.755 104.527 242.474 103.943M242.474 103.943L242.598 103.459M242.474 103.943L242.598 103.459C242.598 103.459 242.598 103.459 242.598 103.459M242.474 103.943L242.598 103.459M242.598 103.459C240.97 103.042 239.485 102.42 238.157 101.404L238.157 101.404C237.068 100.572 235.931 99.7904 234.806 99.0176C234.313 98.6789 233.822 98.3418 233.339 98.0028L233.339 98.0026C232.908 97.7008 232.477 97.4026 232.048 97.1052C231.102 96.4502 230.163 95.7995 229.238 95.1237C228.642 94.6872 228.405 94.1064 228.443 93.5789C228.481 93.051 228.797 92.5132 229.44 92.1718L242.598 103.459ZM225.567 75.1294L227.54 79.3622C226.431 79.0565 225.412 78.4744 224.582 77.6638C223.522 76.6298 222.827 75.2798 222.601 73.8168C222.374 72.3538 222.629 70.8568 223.326 69.5508C223.965 68.353 224.945 67.3752 226.138 66.7386L226.468 66.5855C227.745 65.9921 229.174 65.8074 230.56 66.0566C231.946 66.3057 233.221 66.9767 234.212 67.9778C235.202 68.9789 235.859 70.2613 236.093 71.6499C236.309 72.9306 236.156 74.244 235.654 75.4372L235.654 75.4368L235.649 75.4254L235.643 75.414L235.638 75.4027L235.633 75.3913L235.628 75.3799L235.622 75.3686L235.617 75.3572L235.612 75.3458L235.606 75.3345L235.601 75.3231L235.596 75.3118L235.591 75.3004L235.585 75.2891L235.58 75.2777L235.575 75.2664L235.569 75.255L235.564 75.2437L235.559 75.2324L235.553 75.221L235.548 75.2097L235.543 75.1984L235.538 75.187L235.532 75.1757L235.527 75.1644L235.522 75.1531L235.517 75.1417L235.511 75.1304L235.506 75.1191L235.501 75.1078L235.495 75.0965L235.49 75.0852L235.485 75.0739L235.48 75.0626L235.474 75.0513L235.469 75.04L235.464 75.0287L235.459 75.0174L235.453 75.0061L235.448 74.9949L235.443 74.9836L235.438 74.9723L235.432 74.961L235.427 74.9498L235.422 74.9385L235.416 74.9272L235.411 74.916L235.406 74.9047L235.401 74.8934L235.395 74.8822L235.39 74.8709L235.385 74.8597L235.38 74.8484L235.375 74.8372L235.369 74.826L235.364 74.8147L235.359 74.8035L235.354 74.7923L235.348 74.781L235.343 74.7698L235.338 74.7586L235.333 74.7474L235.327 74.7361L235.322 74.7249L235.317 74.7137L235.312 74.7025L235.306 74.6913L235.301 74.6801L235.296 74.6689L235.291 74.6577L235.286 74.6465L235.28 74.6353L235.275 74.6241L235.27 74.613L235.265 74.6018L235.26 74.5906L235.254 74.5794L235.249 74.5683L235.244 74.5571L235.239 74.5459L235.233 74.5348L235.228 74.5236L235.223 74.5125L235.218 74.5013L235.213 74.4902L235.207 74.479L235.202 74.4679L235.197 74.4568L235.192 74.4456L235.187 74.4345L235.182 74.4234L235.176 74.4122L235.171 74.4011L235.166 74.39L235.161 74.3789L235.156 74.3678L235.15 74.3567L235.145 74.3456L235.14 74.3345L235.135 74.3234L235.13 74.3123L235.125 74.3012L235.119 74.2901L235.114 74.279L235.109 74.268L235.104 74.2569L235.099 74.2458L235.094 74.2348L235.088 74.2237L235.083 74.2126L235.078 74.2016L235.073 74.1905L235.068 74.1795L235.063 74.1684L235.058 74.1574L235.052 74.1464L235.047 74.1353L235.042 74.1243L235.037 74.1133L235.032 74.1023L235.027 74.0912L235.022 74.0802L235.016 74.0692L235.011 74.0582L235.006 74.0472L235.001 74.0362L234.996 74.0252L234.991 74.0142L234.986 74.0032L234.981 73.9923L234.975 73.9813L234.97 73.9703L234.965 73.9593L234.96 73.9484L234.955 73.9374L234.95 73.9264L234.945 73.9155L234.94 73.9045L234.935 73.8936L234.929 73.8827L234.924 73.8717L234.919 73.8608L234.914 73.8498L234.909 73.8389L234.904 73.828L234.899 73.8171L234.894 73.8062L234.889 73.7953L234.884 73.7844L234.878 73.7735L234.873 73.7626L234.868 73.7517L234.863 73.7408L234.858 73.7299L234.853 73.719L234.848 73.7081L234.843 73.6973L234.838 73.6864L234.833 73.6755L234.828 73.6647L234.823 73.6538L234.818 73.643L234.813 73.6321L234.808 73.6213L234.802 73.6104L234.797 73.5996L234.792 73.5888L234.787 73.578L234.782 73.5671L234.777 73.5563L234.772 73.5455L234.767 73.5347L234.762 73.5239L234.757 73.5131L234.752 73.5023L234.747 73.4915L234.742 73.4808L234.737 73.47L234.732 73.4592L234.727 73.4484L234.722 73.4377L234.717 73.4269L234.712 73.4162L234.707 73.4054L234.702 73.3947L234.697 73.3839L234.692 73.3732L234.687 73.3624L234.682 73.3517L234.677 73.341L234.672 73.3303L234.667 73.3196L234.662 73.3089L234.657 73.2982L234.652 73.2875L234.647 73.2768L234.642 73.2661L234.637 73.2554L234.632 73.2447L234.627 73.234L234.622 73.2234L234.617 73.2127L234.612 73.202L234.607 73.1914L234.602 73.1807L234.597 73.1701L234.592 73.1595L234.587 73.1488L234.582 73.1382L234.577 73.1276L234.572 73.1169L234.567 73.1063L234.562 73.0957L234.558 73.0851L234.553 73.0745L234.548 73.0639L234.543 73.0533L234.538 73.0427L234.533 73.0322L234.528 73.0216L234.523 73.011L234.518 73.0005L234.513 72.9899L234.508 72.9793L234.503 72.9688L234.498 72.9583L234.493 72.9477L234.489 72.9372L234.484 72.9267L234.479 72.9161L234.474 72.9056L234.469 72.8951L234.464 72.8846L234.459 72.8741L234.454 72.8636L234.449 72.8531L234.444 72.8426L234.44 72.8321L234.435 72.8217L234.43 72.8112L234.425 72.8007L234.42 72.7903L234.415 72.7798L234.41 72.7694L234.405 72.7589L234.401 72.7485L234.396 72.7381L234.391 72.7276L234.386 72.7172L234.381 72.7068L234.376 72.6964L234.371 72.686L234.367 72.6756L234.362 72.6652L234.357 72.6548L234.352 72.6444L234.347 72.6341L234.342 72.6237L234.338 72.6133L234.333 72.603L234.328 72.5926L234.323 72.5823L234.318 72.5719L234.313 72.5616L234.309 72.5513L234.304 72.5409L234.299 72.5306L234.294 72.5203L234.289 72.51L234.285 72.4997L234.28 72.4894L234.275 72.4791L234.27 72.4688L234.265 72.4586L234.261 72.4483L234.256 72.438L234.251 72.4278L234.246 72.4175L234.241 72.4073L234.237 72.397L234.232 72.3868L234.227 72.3766L234.222 72.3663L234.218 72.3561L234.213 72.3459L234.208 72.3357L234.203 72.3255L234.199 72.3153L234.194 72.3051L234.189 72.2949L234.184 72.2848L234.18 72.2746L234.175 72.2644L234.17 72.2543L234.165 72.2441L234.161 72.234L234.156 72.2238L234.151 72.2137L234.146 72.2036L234.142 72.1934L234.137 72.1833L234.132 72.1732L234.128 72.1631L234.123 72.153L234.118 72.1429L234.113 72.1329L234.109 72.1228L234.104 72.1127L234.099 72.1026L234.095 72.0926L234.09 72.0825L234.085 72.0725L234.081 72.0624L234.076 72.0524L234.071 72.0424L234.067 72.0324L234.062 72.0224L234.057 72.0124L234.053 72.0024L234.048 71.9924L234.043 71.9824L234.039 71.9724L234.034 71.9624L234.029 71.9524L234.025 71.9425L234.02 71.9325L234.015 71.9226L234.011 71.9126L234.006 71.9027L234.002 71.8928L233.997 71.8829L233.992 71.8729L233.988 71.863L233.983 71.8531L233.978 71.8432L233.974 71.8333L233.969 71.8235L233.965 71.8136L233.96 71.8037L233.955 71.7939L233.951 71.784L233.946 71.7742L233.942 71.7643L233.937 71.7545L233.932 71.7446L233.928 71.7348L233.923 71.725L233.919 71.7152L233.914 71.7054L233.91 71.6956L233.905 71.6858L233.9 71.676L233.896 71.6663L233.891 71.6565L233.887 71.6467L233.882 71.637L233.878 71.6272L233.873 71.6175L233.869 71.6078L233.864 71.5981L233.86 71.5883L233.855 71.5786L233.85 71.5689L233.846 71.5592L233.841 71.5495L233.837 71.5399L233.832 71.5302L233.828 71.5205L233.823 71.5109L233.819 71.5012L233.814 71.4916L233.81 71.4819L233.805 71.4723L233.801 71.4627L233.796 71.453L233.792 71.4434L233.787 71.4338L233.783 71.4242L233.779 71.4146L233.774 71.4051L233.77 71.3955L233.765 71.3859L233.761 71.3764L233.756 71.3668L233.752 71.3573L233.747 71.3477L233.743 71.3382L233.738 71.3287L233.734 71.3192L233.73 71.3096L233.725 71.3001L233.721 71.2907L233.716 71.2812L233.712 71.2717L233.707 71.2622L233.703 71.2528L233.699 71.2433L233.694 71.2338L233.69 71.2244L233.685 71.215L233.681 71.2055L233.677 71.1961L233.672 71.1867L233.668 71.1773L233.663 71.1679L233.659 71.1585L233.655 71.1492L233.65 71.1398L233.646 71.1304L233.642 71.1211L233.637 71.1117L233.633 71.1024L233.629 71.093L233.624 71.0837L233.62 71.0744L233.616 71.0651L233.611 71.0558L233.607 71.0465L233.603 71.0372L233.598 71.0279L233.594 71.0186L233.59 71.0094L233.585 71.0001L233.581 70.9909L233.577 70.9816L233.572 70.9724L233.568 70.9632L233.564 70.9539L233.559 70.9447L233.555 70.9355L233.551 70.9263L233.547 70.9172C232.438 68.5402 229.829 67.5269 227.488 68.6055L227.485 68.607C226.461 69.088 225.655 69.9374 225.23 70.9859C224.804 72.0343 224.789 73.2048 225.187 74.2638L225.188 74.2652C225.311 74.5888 225.451 74.8843 225.567 75.1294Z" fill="white" stroke="#454551"/>
</g>
<defs>
<clipPath id="clip0_57_2792">
<rect width="329" height="107" rx="12" fill="white"/>
</clipPath>
<clipPath id="clip1_57_2792">
<rect x="24" y="34" width="145" height="48" rx="10" fill="white"/>
</clipPath>
<clipPath id="clip2_57_2792">
<rect x="193" y="34" width="112" height="48" rx="10" fill="white"/>
</clipPath>
</defs>
</svg>
