<svg width="55" height="56" viewBox="0 0 55 56" fill="none" xmlns="http://www.w3.org/2000/svg">
<g id="Sketch-annotation-element-brush-pen-icon-thunder">
<path id="Vector" fill-rule="evenodd" clip-rule="evenodd" d="M23.4955 7.38989C23.043 7.56586 22.8167 7.81724 22.867 8.09377C22.9424 8.52114 13.7163 20.9902 11.3532 28.5571C10.6241 30.9202 11.8057 31.247 17.1855 30.2163C20.4536 29.5878 20.3279 28.9342 18.1659 35.0179C16.557 39.4927 15.3755 43.2384 14.8225 45.5261C14.0683 48.5428 15.652 50.1266 19.5738 46.0289C21.2581 44.2691 25.0793 40.3223 34.0288 30.1158C41.6209 21.4679 41.5957 21.6941 35.6125 21.4679L31.9172 21.317C33.6518 19.4819 40.1376 12.4931 42.1236 10.8591C44.1096 9.1999 44.7381 8.52116 42.0734 8.14407C38.9813 7.69156 28.5233 7.51559 25.4563 7.23906C24.7524 7.16364 23.8726 7.23905 23.4955 7.38989ZM38.403 9.92895L37.0957 11.0099C33.9031 13.6244 27.5932 21.141 27.5932 22.2974C27.5932 23.5544 29.7049 23.4287 35.1601 23.4287C27.1155 32.7554 20.8307 40.0206 20.6799 40.0206C20.6296 40.0206 21.2078 38.3614 21.9872 36.3C24.9033 28.4817 25.0541 27.0236 22.9927 27.275C19.4229 27.7024 15.9286 28.18 15.451 28.3309C15.0236 28.4566 15.3001 27.7778 16.909 24.7611C19.7749 19.2807 20.9313 17.697 25.9591 9.3256C35.5372 9.75297 35.4366 9.75297 38.403 9.92895Z" fill="url(#paint0_linear_612_80313)"/>
</g>
<defs>
<linearGradient id="paint0_linear_612_80313" x1="27.5037" y1="7.20947" x2="27.5037" y2="48.5012" gradientUnits="userSpaceOnUse">
<stop stop-color="#6835D4"/>
<stop offset="1" stop-color="#7F2BDE"/>
</linearGradient>
</defs>
</svg>
