<svg width="431" height="294" viewBox="0 0 431 294" fill="none" xmlns="http://www.w3.org/2000/svg">
<path opacity="0.3" d="M-34.422 -199.1V-117.477L-7.0184 -144.438V-199.1H-6.51556L-6.60107 -199.015V-144.851L20.8024 -171.812V-199.1H21.2197V-171.812L48.6233 -144.851V-199.1H215.97V-171.812L243.373 -144.851V-199.1H243.876L271.194 -172.222V-199.1H271.612V-171.812L299.015 -144.851V-199.1H466.157V-116.777H383.195L410.599 -89.8152H466.157V-89.3205L466.072 -89.4047H411.018L438.422 -62.4434H466.157V-62.0328H438.422L411.018 -35.0715H466.157V-34.6609H411.018L438.422 -7.69954H466.157V-7.28896H438.839L466.157 19.5902V20.085H411.018L438.422 47.0463H466.157V293.605H299.019V239.356L271.616 266.317V293.605H271.198V266.317L243.795 239.356V293.521L243.88 293.605H243.378V238.945L215.974 211.984V293.607H48.6274V266.319L48.5419 266.235L48.6274 266.151V239.358L21.2239 266.319V293.607H20.8066V266.73L-6.51138 293.607H-7.01422V239.358L-34.4178 266.319V293.607H-34.6264V47.0484H48.3353L20.9318 20.0871H-34.6244V19.5923L-34.5388 19.6765H20.5145L-6.88907 -7.28485H-34.6244V-7.69543H-6.88907L20.5145 -34.6568H-34.6244V-35.0673H20.5145L-6.88907 -62.0287H-34.6244V-62.4392H-7.3064L-34.6244 -89.3164V-89.8111H20.5145L-6.88907 -116.772H-34.6244V-199.1H-34.4157H-34.422ZM21.0132 -171.436L-6.599 -144.27V-117.187H48.6274V-144.27L21.0153 -171.436H21.0132ZM-7.01633 -143.859L-34.1257 -117.187H-7.01633V-143.859ZM160.034 266.03L187.438 239.068H132.384L104.981 266.03H160.034ZM270.902 211.284L243.499 184.323H188.028L160.624 211.284H270.902ZM327.136 266.03H382.19L354.786 239.068H299.733L327.136 266.03ZM438.128 102.084L410.724 75.1224V129.287L438.128 156.249V102.084ZM383.198 47.459L410.307 74.1308V47.459H383.198ZM382.484 -7.57637V-62.1518L355.08 -89.1131V19.7976L382.484 46.7589V-7.40598L382.398 -7.49014L382.484 -7.57433V-7.57637ZM299.731 -144.559H354.784L382.188 -171.52H327.134L299.731 -144.559ZM187.855 -171.52H132.802L160.205 -144.559H215.258L187.855 -171.52ZM48.9196 74.8329L21.5161 101.794H76.5693L103.973 74.8329H48.9196ZM76.9491 102L104.561 129.166H132.088V74.8308H104.561L76.9491 101.997V102ZM49.0406 238.947V265.74L103.971 211.697H49.0406V238.779L49.1262 238.863L49.0406 238.947ZM160.032 211.284L187.644 184.117L160.032 156.951H132.505V211.286H160.032V211.284ZM188.026 183.912H243.079L215.676 156.951H160.622L188.026 183.912ZM410.426 238.658L437.829 211.697H327.552L354.955 238.658H410.426ZM382.899 157.24V211.284H437.829L382.899 157.24ZM215.555 -143.859L188.445 -117.187H215.555V-143.859ZM104.563 -144.148L77.1599 -117.187H187.438L160.034 -144.148H104.563ZM49.0427 -62.1518V-7.57637L76.4462 19.3849V-89.5258L49.0427 -116.487V-62.3222L49.1282 -62.2381L49.0427 -62.1539V-62.1518ZM159.617 156.538L132.507 129.866V156.538H159.617ZM270.902 156.538L243.499 129.577H215.555H132.802L160.205 156.538H270.902ZM326.84 211.284V184.612L299.731 211.284H326.84ZM299.437 211.694V238.366L326.546 211.694H299.437ZM327.257 211.284H382.484V184.201L354.872 157.035L327.26 184.201V211.284H327.257ZM326.84 -62.1518L299.437 -89.1131V-35.0694V19.3849L326.84 -7.57637V-62.1518ZM271.405 -116.692L271.319 -116.777H188.028L160.624 -89.8152H271.322L298.725 -116.777H271.493L271.407 -116.692H271.405ZM104.267 46.7568V-7.40804L76.8635 -34.3694V19.7955L104.267 46.7568ZM355.078 156.657L382.482 183.618V75.1183L355.078 102.08V156.655V156.657ZM355.373 47.4569L382.482 74.1288V47.4569H355.373ZM382.394 74.6235L355.076 47.7464V101.501L382.394 74.6235ZM299.015 47.0463V-6.99744L271.612 19.9639V74.5393L299.015 101.501V47.0463ZM271.906 -89.8173H299.015V-116.489L271.906 -89.8173ZM299.015 -89.4067H271.488L243.876 -62.2401L271.488 -35.0735H299.015V-89.4088V-89.4067ZM104.682 -7.57843L132.086 19.3829V-62.1539L132 -62.2381L132.086 -62.3222V-89.1152L104.682 -62.1539V-7.57843ZM104.682 46.7568L132 19.8797L104.682 -6.99744V46.7568ZM132.503 128.875L159.907 101.913V-6.99744L132.589 19.8797L132.503 19.9639V47.0463V128.873V128.875ZM243.494 -62.0328H188.024L160.62 -35.0715H187.851L187.936 -35.1556L188.022 -35.0715H215.966H270.896L243.492 -62.0328H243.494ZM160.324 46.7568L187.728 19.7955V-34.3694L160.324 -7.40804V46.7568ZM243.371 -7.40804L215.968 -34.3694V-7.57843L216.053 -7.49425L215.968 -7.41008V47.2495V74.5373L243.371 101.499V-7.41214V-7.40804ZM216.262 -34.6609L243.371 -7.98901V-34.6609H216.262ZM215.968 75.1203V129.164H270.898L215.968 75.1203ZM215.55 -34.6609H188.441L215.55 -7.98901V-34.6609ZM188.147 -34.3714V19.3829L215.465 -7.49425L188.147 -34.3714ZM187.433 -34.6609H160.203L160.117 -34.5767L160.032 -34.6609H132.505V19.3829L187.435 -34.6609H187.433ZM159.612 -35.0715L132.503 -61.7433V-35.0715H159.612ZM160.117 -35.1556L187.435 -62.0328H132.799L160.117 -35.1556ZM243.791 -34.6609V-7.57843L271.403 19.5882L299.015 -7.57843V-34.6609H243.789H243.791ZM271.194 19.9639L243.791 -6.99744V47.1674L271.194 74.1288V19.9639ZM243.791 47.7464V101.911L271.194 128.873V74.7077L243.791 47.7464ZM271.612 128.873L298.93 101.995L271.612 75.1183V128.873ZM271.906 129.162H299.015V102.49L271.906 129.162ZM215.55 47.2495V-6.9995L188.147 19.9618V74.5373L215.55 101.499V47.2495ZM187.73 20.3724L160.326 47.3337V101.499L187.73 74.5373V20.3724ZM132.503 -116.781V-62.7369L187.433 -116.781H132.503ZM132.797 -62.4454H187.851L215.254 -89.4067H160.201L132.797 -62.4454ZM215.845 -89.4067L188.441 -62.4454H243.494L270.898 -89.4067H215.845ZM215.55 102.082L187.938 74.915L160.326 102.082V129.164H215.553V102.082H215.55ZM159.907 102.492L132.797 129.164H159.907V102.492ZM132.086 20.3745L104.977 47.0463H132.086V20.3745ZM76.8594 -34.9524L104.263 -7.99106V-62.1559L76.8594 -89.1172V-34.9524ZM104.472 -62.5296L132.084 -89.6962V-116.779H76.8573V-89.6962L104.469 -62.5296H104.472ZM299.43 -90.1068L326.54 -116.779H299.43V-90.1068ZM326.834 -116.487L299.516 -89.61L326.834 -62.7328V-116.487ZM354.655 156.657V102.492L327.251 129.454V183.618L354.655 156.657ZM327.251 128.875L354.655 101.913V47.7484L327.251 74.7097V128.875ZM354.361 47.4569H299.43V101.501L354.361 47.4569ZM271.486 129.575L271.401 129.659L271.315 129.575H244.085L299.015 183.618V129.575H271.488H271.486ZM103.967 47.0463L49.0364 -6.99744V47.0463H103.967ZM76.44 -90.1068V-116.779H49.3306L76.44 -90.1068ZM187.934 -117.273L215.252 -144.151H160.616L187.934 -117.273ZM326.538 -117.189L299.428 -143.861V-117.189H326.538ZM327.04 -117.273L354.358 -144.151H299.722L327.04 -117.273ZM327.543 -116.779L382.473 -62.7349V-116.779H327.543ZM327.249 -116.489V-62.3243L354.653 -35.363V-89.5278L327.249 -116.489ZM354.653 -34.782L327.249 -61.7433V-7.57843L354.653 19.3829V-34.782ZM327.04 -7.20479L299.428 19.9618V47.0443H354.655V19.9618L327.043 -7.20479H327.04ZM355.07 47.0443H382.179L355.07 20.3724V47.0443ZM327.04 211.775L299.722 238.652H354.358L327.04 211.775ZM326.832 184.027V75.1183L299.514 101.995L299.428 102.08V129.573V184.027L299.514 184.111L299.428 184.195V210.988L326.832 184.027ZM298.715 183.906L271.311 156.945H216.258L243.661 183.906H298.715ZM244.079 184.316L271.397 211.194L298.715 184.316H244.079ZM132.08 211.278V157.234L77.1494 211.278H132.08ZM131.785 156.942H76.7321L49.3286 183.904H104.382L131.785 156.942ZM131.785 156.532L104.467 129.655L77.1494 156.532H131.785ZM132.08 156.242V129.571H104.97L132.08 156.242ZM132.08 74.4141V47.7422L104.97 74.4141H132.08ZM49.0427 -171.933H76.152L49.0427 -198.605V-171.933ZM49.0427 -171.522V-117.187H76.5693L104.182 -144.354L76.5693 -171.52H49.0427V-171.522ZM104.563 -144.561H159.617L132.213 -171.522H77.1599L104.563 -144.561ZM299.019 -117.189V-143.861L271.91 -117.189H299.019ZM382.778 -171.522L355.375 -144.561H410.428L437.831 -171.522H382.778ZM410.428 -144.151H354.957L327.554 -117.189H437.831L410.428 -144.151ZM382.901 47.7484V74.5414L382.987 74.6255L382.901 74.7097V156.657L410.305 183.618V74.7077L382.901 47.7464V47.7484ZM410.722 129.866V184.031L438.126 210.992V156.827L410.722 129.866ZM438.543 210.992L465.863 184.117L438.545 157.24V210.994L438.543 210.992ZM410.808 238.861L438.42 266.028H465.949V211.692H438.422L410.81 238.859L410.808 238.861ZM410.426 239.066H355.373L382.776 266.028H437.831L410.428 239.066H410.426ZM299.017 184.612L271.908 211.284H299.017V184.612ZM215.553 211.984L188.443 238.656H215.553V211.984ZM215.258 211.694H132.505H104.561L77.1577 238.656H187.853L215.256 211.694H215.258ZM131.794 239.066H76.7404L49.3369 266.028H104.39L131.794 239.066ZM49.3369 266.438L76.6549 293.315L103.973 266.438H49.3369ZM20.9255 211.282L21.0111 211.198L21.0966 211.282H76.5672L103.971 184.32H-6.72632L-34.1299 211.282H20.9235H20.9255ZM48.7464 183.91L76.1499 156.949H21.0966L-6.30688 183.91H48.7464ZM21.0966 156.538H76.5672L103.971 129.577H-6.30688L21.0966 156.538ZM103.971 129.166L76.5672 102.205H21.0966L-6.30688 129.166H103.973H103.971ZM20.5061 102.205H-34.1299L-6.81183 129.082L20.5061 102.205ZM20.9235 101.794L48.327 74.8329H-6.72632L-34.1299 101.794H20.9235ZM104.388 74.4223L131.792 47.461H104.559L104.474 47.5452L104.388 47.461H21.0966L-6.30688 74.4223H104.388ZM76.7383 -171.931H187.435L160.034 -198.894H49.3369L76.7404 -171.933L76.7383 -171.931ZM160.624 -198.894L215.555 -144.851V-198.894H160.624ZM215.972 -144.44L216.058 -144.356L215.972 -144.272V-117.189H270.902L215.972 -171.233V-144.44ZM243.793 -198.605V-144.44L271.196 -117.479V-171.641L243.793 -198.605ZM271.614 -171.233V-117.479L298.932 -144.356L271.614 -171.233ZM299.437 -198.894V-144.851L354.367 -198.894H299.437ZM354.957 -198.894L327.554 -171.933H438.249L465.654 -198.894H354.959H354.957ZM438.839 -171.933H465.949V-198.605L438.839 -171.933ZM465.949 -171.522H438.422L410.81 -144.356L438.422 -117.189H465.949V-171.522ZM382.901 -116.487V-89.8152H410.011L382.901 -116.487ZM410.428 -89.4047H382.901V-35.0694H410.428L410.513 -35.1536L438.04 -62.236L410.428 -89.4026V-89.4047ZM382.901 -34.6588V-7.98697L410.011 -34.6588H382.901ZM410.513 -34.5746L383.195 -7.69749H437.831L410.513 -34.5746ZM465.654 19.6765L438.251 -7.28485H383.198L410.601 19.6765H465.654ZM382.901 -6.99539V47.0484H437.831L382.901 -6.99539ZM410.722 47.459V74.5414L438.334 101.708L465.949 74.5414V47.459H410.722ZM465.949 75.1224L438.545 102.084V156.659L465.949 183.62V75.1203V75.1224ZM438.839 211.284H465.949V184.612L438.839 211.284ZM465.949 266.44H438.839L465.949 293.112V266.44ZM438.249 266.44H327.554L354.957 293.402H465.654L438.251 266.44H438.249ZM354.367 293.402L299.437 239.358V293.402H354.367ZM271.405 265.944L298.932 238.861L299.017 238.777V211.694H271.491L271.405 211.779L271.319 211.694H243.793V238.777L271.405 265.944ZM243.375 211.694H216.266L243.375 238.366V211.694ZM215.555 239.066H188.028L160.416 266.233L188.028 293.4H215.555V239.064V239.066ZM187.438 293.402L160.034 266.44H104.563L77.1599 293.402H187.44H187.438ZM76.152 293.402L49.0427 266.73V293.402H76.152ZM48.6254 211.694H21.5161L48.6254 238.366V211.694ZM48.5398 238.861L21.2218 211.984V265.738L48.5398 238.861ZM-6.599 293.11L20.8045 266.149V211.984L-6.599 238.945V293.11ZM-34.4199 265.738L20.5103 211.694H-34.4199V265.738ZM-34.4199 210.994L-7.31058 184.323H-34.4199V210.994ZM-6.89325 183.912L20.719 156.745L-6.89325 129.579H-34.4199V183.914H-6.89325V183.912ZM-34.4199 129.166H-7.31058L-34.4199 102.494V129.166ZM20.5103 47.459H-34.4199V101.503L20.5103 47.459ZM48.6274 46.7568V20.085H21.5182L48.6274 46.7568ZM21.1008 19.6744H48.6274V-34.6609H21.1008L21.0153 -34.5767L-6.51138 -7.49425L21.1008 19.6724V19.6744ZM48.6274 -35.0715V-61.7433L21.5182 -35.0715H48.6274ZM21.0153 -35.1556L48.3332 -62.0328H-6.3027L21.0153 -35.1556ZM-34.1236 -89.4047L-6.72003 -62.4434H48.3332L20.9297 -89.4047H-34.1236ZM48.6295 -62.7328V-116.777H-6.30063L48.6295 -62.7328Z" fill="url(#paint0_radial_471_125893)"/>
<defs>
<radialGradient id="paint0_radial_471_125893" cx="0" cy="0" r="1" gradientUnits="userSpaceOnUse" gradientTransform="translate(223.179 47.2536) rotate(180) scale(195.052 191.904)">
<stop stop-color="white" stop-opacity="0.7"/>
<stop offset="0.21" stop-color="white" stop-opacity="0.9"/>
<stop offset="0.43" stop-color="white"/>
<stop offset="1" stop-color="white" stop-opacity="0"/>
</radialGradient>
</defs>
</svg>
