<svg width="508" height="300" viewBox="0 0 508 300" fill="none" xmlns="http://www.w3.org/2000/svg">
<path opacity="0.5" d="M-288.633 0.529297V130.318L-245.058 87.4471V0.529297H-244.259L-244.395 0.663137V86.791L-200.82 43.9196V0.529297H-200.157V43.9196L-156.582 86.791V0.529297H109.517V43.9196L153.091 86.791V0.529297H153.891L197.329 43.2668V0.529297H197.993V43.9196L241.567 86.791V0.529297H507.341V131.432H375.423L418.997 174.303H507.341V175.09L507.205 174.956H419.664L463.239 217.827H507.341V218.48H463.239L419.664 261.351H507.341V262.004H419.664L463.239 304.875H507.341V305.528H463.902L507.341 348.269V349.056H419.664L463.239 391.927H507.341V783.981H241.574V697.719L197.999 740.591V783.981H197.336V740.591L153.761 697.719V783.847L153.897 783.981H153.098V697.067L109.523 654.195V783.984H-156.575V740.594L-156.711 740.46L-156.575 740.326V697.723L-200.15 740.594V783.984H-200.813V741.247L-244.252 783.984H-245.052V697.723L-288.626 740.594V783.984H-288.958V391.93H-157.04L-200.614 349.059H-288.955V348.272L-288.819 348.406H-201.278L-244.853 305.535H-288.955V304.882H-244.853L-201.278 262.011H-288.955V261.358H-201.278L-244.853 218.486H-288.955V217.834H-245.516L-288.955 175.096V174.309H-201.278L-244.853 131.438H-288.955V0.529297H-288.623H-288.633ZM-200.485 44.517L-244.391 87.7148V130.779H-156.575V87.7148L-200.482 44.517H-200.485ZM-245.055 88.3677L-288.162 130.779H-245.055V88.3677ZM20.5727 740.134L64.1471 697.262H-23.3933L-66.9678 740.134H20.5727ZM196.865 653.082L153.29 610.211H65.0862L21.5116 653.082H196.865ZM286.283 740.134H373.824L330.249 697.262H242.709L286.283 740.134ZM462.771 479.442L419.196 436.571V522.699L462.771 565.57V479.442ZM375.426 392.583L418.533 434.994V392.583H375.426ZM374.291 305.071V218.291L330.717 175.419V348.599L374.291 391.47V305.342L374.155 305.208L374.291 305.075V305.071ZM242.705 87.2545H330.246L373.82 44.3832H286.28L242.705 87.2545ZM64.8108 44.3832H-22.7298L20.8447 87.2545H108.385L64.8108 44.3832ZM-156.111 436.111L-199.685 478.982H-112.145L-68.5704 436.111H-156.111ZM-111.541 479.309L-67.6348 522.506H-23.8645V436.107H-67.6348L-111.541 479.305V479.309ZM-155.918 697.07V739.674L-68.5737 653.738H-155.918V696.802L-155.782 696.936L-155.918 697.07ZM20.5693 653.082L64.4756 609.884L20.5693 566.687H-23.2009V653.085H20.5693V653.082ZM65.0828 609.558H152.623L109.049 566.687H21.5083L65.0828 609.558ZM418.722 696.61L462.296 653.738H286.943L330.518 696.61H418.722ZM374.952 567.147V653.082H462.296L374.952 567.147ZM108.856 88.3677L65.7497 130.779H108.856V88.3677ZM-67.6315 87.9074L-111.206 130.779H64.1471L20.5727 87.9074H-67.6315ZM-155.915 218.291V305.071L-112.341 347.943V174.763L-155.915 131.892V218.02L-155.779 218.154L-155.915 218.287V218.291ZM19.9091 566.03L-23.1976 523.619V566.03H19.9091ZM196.865 566.03L153.29 523.159H108.856H-22.7298L20.8447 566.03H108.855H196.865ZM285.812 653.082V610.671L242.705 653.082H285.812ZM242.238 653.735V696.146L285.344 653.735H242.238ZM286.476 653.082H374.291V610.018L330.385 566.82L286.479 610.018V653.082H286.476ZM285.812 218.291L242.238 175.419V261.355V347.943L285.812 305.071V218.291ZM197.664 131.565L197.528 131.432H65.0862L21.5116 174.303H197.532L241.106 131.432H197.804L197.668 131.565H197.664ZM-68.1026 391.467V305.339L-111.677 262.468V348.596L-68.1026 391.467ZM330.714 566.22L374.288 609.091V436.564L330.714 479.436V566.216V566.22ZM331.181 392.58L374.288 434.991V392.58H331.181ZM374.149 435.778L330.71 393.04V478.515L374.149 435.778ZM241.567 391.927V305.992L197.993 348.863V435.644L241.567 478.515V391.927ZM198.461 174.3H241.567V131.889L198.461 174.3ZM241.567 174.952H197.797L153.891 218.15L197.797 261.348H241.567V174.949V174.952ZM-67.4423 305.068L-23.8679 347.939V218.287L-24.0039 218.154L-23.8679 218.02V175.416L-67.4423 218.287V305.068ZM-67.4423 391.467L-24.0039 348.729L-67.4423 305.992V391.467ZM-23.2042 522.043L20.3703 479.171V305.992L-23.0682 348.729L-23.2042 348.863V391.927V522.039V522.043ZM153.284 218.48H65.0795L21.505 261.351H64.804L64.9402 261.217L65.0762 261.351H109.51H196.855L153.28 218.48H153.284ZM21.0339 391.467L64.6083 348.596V262.468L21.0339 305.339V391.467ZM153.088 305.339L109.513 262.468V305.068L109.649 305.202L109.513 305.336V392.25V435.641L153.088 478.512V305.332V305.339ZM109.981 262.004L153.088 304.415V262.004H109.981ZM109.513 436.568V522.503H196.858L109.513 436.568ZM108.85 262.004H65.7431L108.85 304.415V262.004ZM65.2753 262.464V347.939L108.714 305.202L65.2753 262.464ZM64.1405 262.004H20.8414L20.7054 262.138L20.5693 262.004H-23.2009V347.939L64.1439 262.004H64.1405ZM19.9024 261.351L-23.2042 218.94V261.351H19.9024ZM20.7054 261.217L64.1439 218.48H-22.7331L20.7054 261.217ZM153.755 262.004V305.068L197.661 348.266L241.567 305.068V262.004H153.751H153.755ZM197.329 348.863L153.755 305.992V392.12L197.329 434.991V348.863ZM153.755 393.04V479.168L197.329 522.039V435.912L153.755 393.04ZM197.993 522.039L241.431 479.302L197.993 436.564V522.039ZM198.461 522.5H241.567V480.089L198.461 522.5ZM108.85 392.25V305.989L65.2753 348.86V435.641L108.85 478.512V392.25ZM64.6116 349.513L21.0371 392.384V478.512L64.6116 435.641V349.513ZM-23.2042 131.425V217.36L64.1405 131.425H-23.2042ZM-22.7364 217.824H64.804L108.379 174.952H20.8381L-22.7364 217.824ZM109.318 174.952L65.7431 217.824H153.284L196.858 174.952H109.318ZM108.85 479.439L64.9434 436.241L21.0371 479.439V522.503H108.853V479.439H108.85ZM20.3703 480.092L-22.7364 522.503H20.3703V480.092ZM-23.8679 349.516L-66.9745 391.927H-23.8679V349.516ZM-111.684 261.541L-68.1093 304.412V218.284L-111.684 175.413V261.541ZM-67.7774 217.69L-23.8712 174.492V131.428H-111.687V174.492L-67.7808 217.69H-67.7774ZM242.228 173.839L285.334 131.428H242.228V173.839ZM285.802 131.892L242.364 174.629L285.802 217.367V131.892ZM330.04 566.22V480.092L286.466 522.963V609.091L330.04 566.22ZM286.466 522.043L330.04 479.171V393.044L286.466 435.915V522.043ZM329.572 392.58H242.228V478.515L329.572 392.58ZM197.794 523.156L197.658 523.29L197.522 523.156H154.223L241.567 609.091V523.156H197.797H197.794ZM-68.5803 391.927L-155.925 305.992V391.927H-68.5803ZM-112.351 173.839V131.428H-155.457L-112.351 173.839ZM64.9368 130.642L108.375 87.9041H21.4984L64.9368 130.642ZM285.331 130.775L242.224 88.3644V130.775H285.331ZM286.131 130.642L329.569 87.9041H242.692L286.131 130.642ZM286.93 131.428L374.275 217.364V131.428H286.93ZM286.462 131.889V218.016L330.037 260.888V174.76L286.462 131.889ZM330.037 261.812L286.462 218.94V305.068L330.037 347.939V261.812ZM286.131 305.662L242.224 348.86V391.924H330.04V348.86L286.134 305.662H286.131ZM330.7 391.924H373.807L330.7 349.513V391.924ZM286.131 653.862L242.692 696.6H329.569L286.131 653.862ZM285.799 609.741V436.564L242.36 479.302L242.224 479.436V523.153V609.741L242.36 609.875L242.224 610.008V652.612L285.799 609.741ZM241.09 609.548L197.515 566.677H109.975L153.549 609.548H241.09ZM154.213 610.201L197.651 652.939L241.09 610.201H154.213ZM-23.8778 653.072V567.137L-111.223 653.072H-23.8778ZM-24.3456 566.674H-111.886L-155.461 609.545H-67.9201L-24.3456 566.674ZM-24.3456 566.021L-67.7841 523.283L-111.223 566.021H-24.3456ZM-23.8778 565.56V523.149H-66.9844L-23.8778 565.56ZM-23.8778 435.445V393.034L-66.9844 435.445H-23.8778ZM-155.915 43.7271H-112.808L-155.915 1.31602V43.7271ZM-155.915 44.3799V130.779H-112.145L-68.2386 87.5809L-112.145 44.3832H-155.915V44.3799ZM-67.6315 87.2513H19.9091L-23.6655 44.3799H-111.206L-67.6315 87.2513ZM241.574 130.775V88.3644L198.467 130.775H241.574ZM374.759 44.3799L331.185 87.2513H418.725L462.3 44.3799H374.759ZM418.725 87.9041H330.521L286.947 130.775H462.3L418.725 87.9041ZM374.955 393.044V435.647L375.091 435.781L374.955 435.915V566.22L418.53 609.091V435.912L374.955 393.04V393.044ZM419.193 523.619V609.747L462.768 652.618V566.491L419.193 523.619ZM463.431 652.618L506.873 609.884L463.435 567.147V652.622L463.431 652.618ZM419.329 696.933L463.235 740.13H507.009V653.732H463.239L419.332 696.929L419.329 696.933ZM418.722 697.259H331.181L374.756 740.13H462.3L418.725 697.259H418.722ZM241.571 610.671L198.464 653.082H241.571V610.671ZM108.853 654.195L65.7463 696.606H108.853V654.195ZM108.385 653.735H-23.2009H-67.6348L-111.209 696.606H64.8074L108.382 653.735H108.385ZM-24.3323 697.259H-111.873L-155.447 740.13H-67.9069L-24.3323 697.259ZM-155.447 740.783L-112.009 783.521L-68.5704 740.783H-155.447ZM-200.624 653.079L-200.488 652.945L-200.352 653.079H-112.148L-68.5737 610.208H-244.594L-288.168 653.079H-200.628H-200.624ZM-156.386 609.555L-112.812 566.683H-200.352L-243.927 609.555H-156.386ZM-200.352 566.03H-112.148L-68.5737 523.159H-243.927L-200.352 566.03ZM-68.5737 522.506L-112.148 479.635H-200.352L-243.927 522.506H-68.5704H-68.5737ZM-201.291 479.635H-288.168L-244.73 522.372L-201.291 479.635ZM-200.628 478.982L-157.053 436.111H-244.594L-288.168 478.982H-200.628ZM-67.9102 435.458L-24.3356 392.587H-67.638L-67.7741 392.72L-67.9102 392.587H-200.352L-243.927 435.458H-67.9102ZM-111.876 43.7303H64.1439L20.5727 0.855736H-155.447L-111.873 43.7271L-111.876 43.7303ZM21.5116 0.855736L108.856 86.791V0.855736H21.5116ZM109.52 87.4438L109.656 87.5777L109.52 87.7115V130.775H196.865L109.52 44.8402V87.4438ZM153.758 1.31602V87.4438L197.333 130.315V44.1906L153.758 1.31602ZM197.996 44.8402V130.315L241.435 87.5777L197.996 44.8402ZM242.238 0.855736V86.791L329.582 0.855736H242.238ZM330.521 0.855736L286.947 43.7271H462.963L506.541 0.855736H330.525H330.521ZM463.902 43.7271H507.009V1.31602L463.902 43.7271ZM507.009 44.3799H463.239L419.332 87.5777L463.239 130.775H507.009V44.3799ZM374.955 131.892V174.303H418.062L374.955 131.892ZM418.725 174.956H374.955V261.355H418.725L418.861 261.221L462.632 218.157L418.725 174.959V174.956ZM374.955 262.007V304.418L418.062 262.007H374.955ZM418.861 262.141L375.423 304.879H462.3L418.861 262.141ZM506.541 348.406L462.967 305.535H375.426L419.001 348.406H506.541ZM374.955 305.995V391.93H462.3L374.955 305.995ZM419.193 392.583V435.647L463.099 478.845L507.009 435.647V392.583H419.193ZM507.009 436.571L463.435 479.442V566.223L507.009 609.094V436.568V436.571ZM463.902 653.082H507.009V610.671L463.902 653.082ZM507.009 740.787H463.902L507.009 783.198V740.787ZM462.963 740.787H286.947L330.521 783.658H506.541L462.967 740.787H462.963ZM329.582 783.658L242.238 697.723V783.658H329.582ZM197.664 739.997L241.435 696.933L241.571 696.799V653.735H197.8L197.664 653.869L197.528 653.735H153.758V696.799L197.664 739.997ZM153.094 653.735H109.988L153.094 696.146V653.735ZM108.856 697.259H65.0862L21.1798 740.457L65.0862 783.655H108.856V697.256V697.259ZM64.1471 783.658L20.5727 740.787H-67.6315L-111.206 783.658H64.1505H64.1471ZM-112.808 783.658L-155.915 741.247V783.658H-112.808ZM-156.579 653.735H-199.685L-156.579 696.146V653.735ZM-156.715 696.933L-200.153 654.195V739.67L-156.715 696.933ZM-244.391 783.194L-200.817 740.323V654.195L-244.391 697.067V783.194ZM-288.629 739.67L-201.285 653.735H-288.629V739.67ZM-288.629 652.622L-245.523 610.211H-288.629V652.622ZM-244.859 609.558L-200.953 566.36L-244.859 523.162H-288.629V609.561H-244.859V609.558ZM-288.629 522.506H-245.523L-288.629 480.095V522.506ZM-201.285 392.583H-288.629V478.519L-201.285 392.583ZM-156.575 391.467V349.056H-199.682L-156.575 391.467ZM-200.346 348.403H-156.575V262.004H-200.346L-200.482 262.138L-244.252 305.202L-200.346 348.4V348.403ZM-156.575 261.351V218.94L-199.682 261.351H-156.575ZM-200.482 261.217L-157.043 218.48H-243.92L-200.482 261.217ZM-288.158 174.956L-244.584 217.827H-157.043L-200.618 174.956H-288.158ZM-156.572 217.367V131.432H-243.917L-156.572 217.367Z" fill="url(#paint0_radial_934_16431)"/>
<defs>
<radialGradient id="paint0_radial_934_16431" cx="0" cy="0" r="1" gradientUnits="userSpaceOnUse" gradientTransform="translate(120.98 392.257) rotate(180) scale(310.153 321.58)">
<stop stop-color="white" stop-opacity="0.7"/>
<stop offset="0.21" stop-color="white" stop-opacity="0.9"/>
<stop offset="0.43" stop-color="white"/>
<stop offset="1" stop-color="white" stop-opacity="0"/>
</radialGradient>
</defs>
</svg>
