<svg width="326" height="197" viewBox="0 0 326 197" fill="none" xmlns="http://www.w3.org/2000/svg">
<path fill-rule="evenodd" clip-rule="evenodd" d="M0.691406 36.7246C0.691406 19.754 0.691406 11.2688 5.96348 5.99669C11.2356 0.724609 19.7208 0.724609 36.6914 0.724609H289.691C306.662 0.724609 315.147 0.724609 320.419 5.99669C325.691 11.2688 325.691 19.754 325.691 36.7246V88.4461C315.767 90.591 308.327 99.4815 308.327 110.123C308.327 120.765 315.767 129.655 325.691 131.8V160.301C325.691 177.271 325.691 185.757 320.419 191.029C315.147 196.301 306.662 196.301 289.691 196.301H36.6914C19.7208 196.301 11.2356 196.301 5.96348 191.029C0.691406 185.757 0.691406 177.271 0.691406 160.301V132.278C12.4638 131.846 21.8757 122.092 21.8757 110.123C21.8757 98.1542 12.4638 88.4005 0.691406 87.9681V36.7246Z" fill="url(#paint0_linear_934_16448)"/>
<defs>
<linearGradient id="paint0_linear_934_16448" x1="163.191" y1="79.7109" x2="163.191" y2="117.315" gradientUnits="userSpaceOnUse">
<stop stop-color="#FED15E"/>
<stop offset="1" stop-color="#F0B829"/>
</linearGradient>
</defs>
</svg>
