<svg width="24" height="24" viewBox="0 0 24 24" fill="none" xmlns="http://www.w3.org/2000/svg">
<path fill-rule="evenodd" clip-rule="evenodd" d="M7.62891 14.646H4.33204L3.42579 17H2L5.27345 9.00667H6.6172L10.1016 17H8.59376L7.62891 14.646ZM4.73829 13.5827H7.19923L6.39454 11.5843C6.2311 11.1847 6.07868 10.7813 5.93751 10.3743C5.84349 10.7411 5.7261 11.1023 5.58595 11.456L4.73829 13.5827ZM18.3789 13.8283H14.1563L12.9375 16.9817H10.7305L15.2227 6H17.2148L22 16.9817H19.6758L18.3789 13.8283ZM16.2305 8.431C16.125 8.783 16.0039 9.12767 15.8672 9.46867L14.8008 12.1417H17.6992L16.6914 9.63733C16.5295 9.23759 16.3785 8.83543 16.2305 8.431Z" fill="#454551"/>
</svg>
