<svg xmlns="http://www.w3.org/2000/svg" width="20" height="20" viewBox="0 0 20 20" fill="none">
  <g clip-path="url(#clip0_670_261)">
    <path fill-rule="evenodd" clip-rule="evenodd" d="M4.16683 3.22921C3.91819 3.22921 3.67973 3.32798 3.50392 3.50379C3.3281 3.67961 3.22933 3.91807 3.22933 4.16671V15.8334C3.22933 16.082 3.3281 16.3205 3.50392 16.4963C3.67973 16.6721 3.91819 16.7709 4.16683 16.7709H15.8335C16.0821 16.7709 16.3206 16.6721 16.4964 16.4963C16.6722 16.3205 16.771 16.082 16.771 15.8334V4.16671C16.771 3.91807 16.6722 3.67961 16.4964 3.50379C16.3206 3.32798 16.0821 3.22921 15.8335 3.22921H4.16683ZM2.47272 2.4726C2.92203 2.02329 3.53141 1.77087 4.16683 1.77087H15.8335C16.4689 1.77087 17.0783 2.02329 17.5276 2.4726C17.9769 2.9219 18.2293 3.53129 18.2293 4.16671V15.8334C18.2293 16.4688 17.9769 17.0782 17.5276 17.5275C17.0783 17.9768 16.4689 18.2292 15.8335 18.2292H4.16683C3.53141 18.2292 2.92202 17.9768 2.47272 17.5275C2.02341 17.0782 1.771 16.4688 1.771 15.8334V4.16671C1.771 3.53129 2.02341 2.9219 2.47272 2.4726Z" fill="#4B4AD5"/>
    <path fill-rule="evenodd" clip-rule="evenodd" d="M7.604 8.33329C7.604 7.93059 7.93046 7.60413 8.33317 7.60413H17.4998C17.9025 7.60413 18.229 7.93059 18.229 8.33329C18.229 8.736 17.9025 9.06246 17.4998 9.06246H8.33317C7.93046 9.06246 7.604 8.736 7.604 8.33329Z" fill="#4B4AD5"/>
    <path fill-rule="evenodd" clip-rule="evenodd" d="M8.33317 1.77087C8.73588 1.77087 9.06234 2.09733 9.06234 2.50004V17.5C9.06234 17.9027 8.73588 18.2292 8.33317 18.2292C7.93046 18.2292 7.604 17.9027 7.604 17.5V2.50004C7.604 2.09733 7.93046 1.77087 8.33317 1.77087Z" fill="#4B4AD5"/>
    <path fill-rule="evenodd" clip-rule="evenodd" d="M8.01576 1.98444C8.30052 2.2692 8.30052 2.73088 8.01576 3.01564L3.01576 8.01564C2.731 8.3004 2.26932 8.3004 1.98456 8.01564C1.69981 7.73088 1.69981 7.2692 1.98456 6.98444L6.98456 1.98444C7.26932 1.69968 7.731 1.69968 8.01576 1.98444Z" fill="#4B4AD5"/>
    <path fill-rule="evenodd" clip-rule="evenodd" d="M8.8491 5.31769C9.13385 5.60245 9.13385 6.06413 8.8491 6.34889L3.01576 12.1822C2.731 12.467 2.26932 12.467 1.98456 12.1822C1.69981 11.8975 1.69981 11.4358 1.98456 11.151L7.8179 5.31769C8.10266 5.03294 8.56434 5.03294 8.8491 5.31769Z" fill="#4B4AD5"/>
    <path fill-rule="evenodd" clip-rule="evenodd" d="M8.8491 9.48444C9.13385 9.7692 9.13385 10.2309 8.8491 10.5156L3.01576 16.349C2.731 16.6337 2.26932 16.6337 1.98456 16.349C1.69981 16.0642 1.69981 15.6025 1.98456 15.3178L7.8179 9.48444C8.10266 9.19968 8.56434 9.19968 8.8491 9.48444Z" fill="#4B4AD5"/>
    <path fill-rule="evenodd" clip-rule="evenodd" d="M8.84909 13.6511C9.13385 13.9358 9.13385 14.3975 8.84909 14.6823L5.51576 18.0156C5.231 18.3004 4.76932 18.3004 4.48456 18.0156C4.19981 17.7308 4.19981 17.2692 4.48456 16.9844L7.8179 13.6511C8.10265 13.3663 8.56434 13.3663 8.84909 13.6511Z" fill="#4B4AD5"/>
  </g>
  <defs>
    <clipPath id="clip0_670_261">
      <rect width="20" height="20" fill="white"/>
    </clipPath>
  </defs>
</svg>