<svg width="24" height="24" viewBox="0 0 24 24" fill="none" xmlns="http://www.w3.org/2000/svg">
<path d="M20 9.33334L20 4.00001M20 4.00001H14.6666M20 4.00001L12 12M10.2222 4H8.26667C6.77319 4 6.02646 4 5.45603 4.29065C4.95426 4.54631 4.54631 4.95426 4.29065 5.45603C4 6.02646 4 6.77319 4 8.26667V15.7333C4 17.2268 4 17.9735 4.29065 18.544C4.54631 19.0457 4.95426 19.4537 5.45603 19.7094C6.02646 20 6.77319 20 8.26667 20H15.7333C17.2268 20 17.9735 20 18.544 19.7094C19.0457 19.4537 19.4537 19.0457 19.7094 18.544C20 17.9735 20 17.2268 20 15.7333V13.7778" stroke="#454551" stroke-width="1.77778" stroke-linecap="round" stroke-linejoin="round"/>
</svg>
