<svg width="30" height="31" viewBox="0 0 30 31" fill="none" xmlns="http://www.w3.org/2000/svg">
<path d="M3.23827 7.4455C10.7657 7.4455 17.8002 4.44757 20.3766 2.9486C22.449 1.92072 23.2563 3.37688 23.4009 4.23345C23.4009 11.4285 26.5374 18.1524 28.1056 20.615C28.9121 22.1568 27.7696 23.1847 27.0975 23.5059C17.957 24.0198 11.8634 26.9321 9.95917 28.324C7.53965 29.0949 6.71074 27.5745 6.59872 26.718C6.32989 19.7799 3.12626 12.6919 1.55805 10.0152C0.751538 8.2164 2.34215 7.55258 3.23827 7.4455Z" stroke="#D4B1EF" stroke-width="1.4"/>
<path d="M13.3064 2.08885C18.1185 7.29982 24.7849 10.163 27.5166 10.9431C29.5853 11.6898 29.0476 13.2234 28.5202 13.8968C23.3134 18.7127 20.4527 25.3846 19.6731 28.1186C19.073 29.7089 17.5988 29.6059 16.9367 29.3556C10.7216 23.372 4.71867 21.1029 2.49409 20.7163C0.389511 19.5574 0.959845 17.9659 1.50808 17.315C6.357 12.485 9.43826 5.52293 10.3728 2.64567C11.1589 0.883368 12.6561 1.54017 13.3064 2.08885Z" stroke="#D4B1EF" stroke-width="1.4"/>
<g clip-path="url(#clip0_604_27263)">
<path d="M12.3745 14.9932V11.4932C12.3745 10.797 12.6511 10.1293 13.1434 9.63701C13.6356 9.14473 14.3033 8.86816 14.9995 8.86816C15.6957 8.86816 16.3634 9.14473 16.8557 9.63701C17.3479 10.1293 17.6245 10.797 17.6245 11.4932V14.9932C17.6245 15.6894 17.3479 16.357 16.8557 16.8493C16.3634 17.3416 15.6957 17.6182 14.9995 17.6182C14.3033 17.6182 13.6356 17.3416 13.1434 16.8493C12.6511 16.357 12.3745 15.6894 12.3745 14.9932ZM19.3745 14.9932C19.3745 14.8771 19.3284 14.7659 19.2464 14.6838C19.1643 14.6018 19.053 14.5557 18.937 14.5557C18.821 14.5557 18.7097 14.6018 18.6277 14.6838C18.5456 14.7659 18.4995 14.8771 18.4995 14.9932C18.4995 15.9214 18.1308 16.8117 17.4744 17.468C16.818 18.1244 15.9278 18.4932 14.9995 18.4932C14.0713 18.4932 13.181 18.1244 12.5246 17.468C11.8683 16.8117 11.4995 15.9214 11.4995 14.9932C11.4995 14.8771 11.4534 14.7659 11.3714 14.6838C11.2893 14.6018 11.178 14.5557 11.062 14.5557C10.946 14.5557 10.8347 14.6018 10.7527 14.6838C10.6706 14.7659 10.6245 14.8771 10.6245 14.9932C10.6258 16.0774 11.0292 17.1226 11.7565 17.9266C12.4838 18.7307 13.4834 19.2365 14.562 19.3463V21.1182C14.562 21.2342 14.6081 21.3455 14.6902 21.4275C14.7722 21.5096 14.8835 21.5557 14.9995 21.5557C15.1155 21.5557 15.2268 21.5096 15.3089 21.4275C15.3909 21.3455 15.437 21.2342 15.437 21.1182V19.3463C16.5156 19.2365 17.5153 18.7307 18.2426 17.9266C18.9699 17.1226 19.3732 16.0774 19.3745 14.9932Z" fill="#943CD7"/>
</g>
<defs>
<clipPath id="clip0_604_27263">
<rect width="14" height="14" fill="white" transform="translate(8 8)"/>
</clipPath>
</defs>
</svg>
