<svg xmlns="http://www.w3.org/2000/svg" width="25" height="25" viewBox="0 0 25 25" fill="none">
  <g clip-path="url(#clip0_5206_3110)">
    <path d="M12.4999 23.7801C18.9064 23.7801 24.0999 18.5866 24.0999 12.1801C24.0999 5.77357 18.9064 0.580078 12.4999 0.580078C6.0934 0.580078 0.899902 5.77357 0.899902 12.1801C0.899902 18.5866 6.0934 23.7801 12.4999 23.7801Z" fill="#6BB577"/>
    <path d="M10.1002 18.58C9.783 18.58 9.4774 18.4544 9.2518 18.2284L6.0518 15.0284C5.583 14.56 5.583 13.8 6.0518 13.3316C6.5202 12.8628 7.2802 12.8628 7.7486 13.3316L9.9702 15.5532L16.3398 7.06002C16.7382 6.52962 17.491 6.42282 18.0198 6.82002C18.5502 7.21762 18.6578 7.97002 18.2602 8.50002L11.0602 18.1C10.8518 18.3784 10.5322 18.5524 10.1854 18.5768C10.157 18.5788 10.1282 18.58 10.1002 18.58Z" fill="white"/>
  </g>
  <defs>
    <clipPath id="clip0_5206_3110">
      <rect width="24" height="24" fill="white" transform="translate(0.5 0.179688)"/>
    </clipPath>
  </defs>
</svg>