<svg width="20" height="20" viewBox="0 0 20 20" fill="none" xmlns="http://www.w3.org/2000/svg">
<path d="M17.125 10C17.125 13.935 13.935 17.125 10 17.125C6.06497 17.125 2.875 13.935 2.875 10C2.875 6.06497 6.06497 2.875 10 2.875M13.9583 10C13.9583 12.1861 12.1861 13.9583 10 13.9583C7.81387 13.9583 6.04167 12.1861 6.04167 10C6.04167 7.81387 7.81387 6.04167 10 6.04167M12.1833 7.90337L15.3175 8.23254L17.0165 5.85398L14.9777 5.17439L14.2981 3.13563L11.9196 4.8346L12.1833 7.90337ZM12.1833 7.90337L10 9.99993" stroke="#A461D8" stroke-width="1.1875" stroke-linecap="round" stroke-linejoin="round"/>
</svg>
