<svg width="19" height="22" viewBox="0 0 19 22" fill="none" xmlns="http://www.w3.org/2000/svg">
<g id="vuesax/linear/mobile">
<g id="mobile">
<path id="Vector" d="M17.4404 6V16C17.4404 20 16.4404 21 12.4404 21H6.44043C2.44043 21 1.44043 20 1.44043 16V6C1.44043 2 2.44043 1 6.44043 1H12.4404C16.4404 1 17.4404 2 17.4404 6Z" stroke="#292D32" stroke-width="1.5" stroke-linecap="round" stroke-linejoin="round"/>
<path id="Vector_2" d="M11.4404 4.5H7.44043" stroke="#292D32" stroke-width="1.5" stroke-linecap="round" stroke-linejoin="round"/>
<path id="Vector_3" d="M9.44038 18.1C10.2964 18.1 10.9904 17.406 10.9904 16.55C10.9904 15.694 10.2964 15 9.44038 15C8.58434 15 7.89038 15.694 7.89038 16.55C7.89038 17.406 8.58434 18.1 9.44038 18.1Z" stroke="#292D32" stroke-width="1.5" stroke-linecap="round" stroke-linejoin="round"/>
</g>
</g>
</svg>
