<svg width="24" height="24" viewBox="0 0 24 24" fill="none" xmlns="http://www.w3.org/2000/svg">
<g clip-path="url(#clip0_3667_1575)">
<path fill-rule="evenodd" clip-rule="evenodd" d="M10.719 9.01001L11.459 9.22001C11.5252 9.23049 11.5927 9.23049 11.659 9.22001H20.559C20.7499 9.22001 20.9331 9.14415 21.0681 9.00913C21.2031 8.8741 21.279 8.69097 21.279 8.50001C21.2606 7.23822 20.7471 6.03418 19.8492 5.14749C18.9513 4.26081 17.7409 3.7625 16.479 3.76001H10.909C10.718 3.76001 10.5349 3.83587 10.3998 3.97089C10.2648 4.10592 10.189 4.28905 10.189 4.48001V8.35001C10.1992 8.50102 10.2555 8.64526 10.3503 8.76327C10.445 8.88129 10.5737 8.9674 10.719 9.01001ZM11.719 7.80001H11.609V5.20001H16.459C17.2246 5.18734 17.971 5.44053 18.5709 5.91644C19.1708 6.39236 19.5871 7.06155 19.749 7.81001L11.719 7.80001Z" fill="#4B4AD5"/>
<path fill-rule="evenodd" clip-rule="evenodd" d="M7.029 8.15998C7.54013 8.16196 8.04032 8.01208 8.46613 7.72934C8.89193 7.44661 9.22417 7.04377 9.42068 6.57193C9.61719 6.10009 9.66913 5.58052 9.5699 5.07912C9.47067 4.57771 9.22474 4.11709 8.86332 3.75567C8.5019 3.39425 8.04127 3.14832 7.53987 3.04909C7.03847 2.94986 6.51889 3.00179 6.04705 3.19831C5.57521 3.39482 5.17238 3.72705 4.88964 4.15286C4.60691 4.57867 4.45703 5.07886 4.459 5.58998C4.46164 6.27078 4.73325 6.92294 5.21465 7.40434C5.69605 7.88574 6.34821 8.15735 7.029 8.15998ZM7.029 4.44998C7.25531 4.44801 7.47709 4.51343 7.66609 4.63793C7.85508 4.76244 8.00275 4.94037 8.09027 5.14908C8.17779 5.3578 8.20121 5.58783 8.15754 5.8099C8.11387 6.03197 8.00509 6.23601 7.84506 6.39604C7.68503 6.55607 7.48099 6.66485 7.25892 6.70852C7.03686 6.75218 6.80682 6.72877 6.59811 6.64125C6.38939 6.55373 6.21146 6.40606 6.08696 6.21707C5.96246 6.02807 5.89703 5.80629 5.899 5.57998C5.90161 5.2811 6.02151 4.99519 6.23286 4.78384C6.44421 4.57248 6.73012 4.45259 7.029 4.44998Z" fill="#4B4AD5"/>
<path fill-rule="evenodd" clip-rule="evenodd" d="M22.359 11.71C22.2351 11.237 21.9578 10.8184 21.5706 10.5199C21.1834 10.2213 20.708 10.0596 20.219 10.06H11.599L4.69903 8.21003C4.52864 8.16978 4.35411 8.14964 4.17903 8.15003C3.64372 8.15753 3.12932 8.3591 2.73142 8.71729C2.33352 9.07547 2.07917 9.56591 2.01563 10.0975C1.95208 10.6291 2.08366 11.1657 2.38592 11.6075C2.68818 12.0494 3.14057 12.3666 3.65903 12.5L8.07903 13.68L12.889 16.62L8.53903 19.01C8.43327 19.0756 8.34575 19.1668 8.28457 19.2752C8.22339 19.3835 8.19053 19.5056 8.18903 19.63C8.18903 19.821 8.26489 20.0041 8.39992 20.1391C8.53494 20.2742 8.71808 20.35 8.90903 20.35C9.0274 20.3534 9.1446 20.3258 9.24903 20.27L14.299 17.44L18.899 20.26C19.0123 20.3232 19.1394 20.3576 19.269 20.36H19.499C19.6655 20.3085 19.8076 20.1984 19.899 20.05C19.9489 19.9704 19.9818 19.8814 19.9956 19.7884C20.0094 19.6955 20.0037 19.6007 19.979 19.51C19.9585 19.4175 19.9195 19.3299 19.8646 19.2526C19.8096 19.1754 19.7397 19.1099 19.659 19.06L15.739 16.67L19.739 14.46C19.8337 14.458 19.9269 14.4366 20.013 14.397C20.099 14.3575 20.1759 14.3006 20.239 14.23C20.3655 14.0868 20.4333 13.9011 20.429 13.71C20.4187 13.5199 20.3345 13.3414 20.1944 13.2125C20.0543 13.0836 19.8693 13.0145 19.679 13.02H11.209L3.97903 11.08C3.80244 11.0289 3.65036 10.9156 3.55096 10.7609C3.45156 10.6063 3.41158 10.4208 3.43843 10.239C3.46529 10.0571 3.55715 9.89114 3.697 9.77182C3.83685 9.6525 4.01521 9.58791 4.19903 9.59003H4.41903L11.319 11.47H20.229C20.3978 11.4708 20.5616 11.527 20.6953 11.63C20.829 11.733 20.9252 11.8771 20.969 12.04C21.0071 12.1943 21.0957 12.3313 21.2208 12.4292C21.3459 12.5271 21.5002 12.5802 21.659 12.58C21.7186 12.5905 21.7795 12.5905 21.839 12.58C22.0213 12.5279 22.178 12.4104 22.279 12.25C22.3289 12.1704 22.3618 12.0814 22.3756 11.9884C22.3894 11.8955 22.3837 11.8007 22.359 11.71ZM16.719 14.47L14.319 15.81L12.129 14.47H16.719Z" fill="#4B4AD5"/>
</g>
<defs>
<clipPath id="clip0_3667_1575">
<rect width="24" height="24" fill="white"/>
</clipPath>
</defs>
</svg>
