<svg width="37" height="37" viewBox="0 0 37 37" fill="none" xmlns="http://www.w3.org/2000/svg">
<g clip-path="url(#clip0_561_49344)">
<path d="M18.4879 23.09C15.2161 23.09 12.5879 20.4619 12.5879 17.19C12.5879 13.9182 15.2161 11.29 18.4879 11.29C21.7597 11.29 24.3879 13.9182 24.3879 17.19C24.3879 20.4619 21.7597 23.09 18.4879 23.09ZM18.4879 13.9719C16.7179 13.9719 15.2697 15.42 15.2697 17.19C15.2697 18.96 16.7179 20.4082 18.4879 20.4082C20.2579 20.4082 21.7061 18.96 21.7061 17.19C21.7061 15.42 20.2579 13.9719 18.4879 13.9719Z" fill="#A461D8"/>
<path d="M18.4876 34.4611C17.3612 34.4611 16.2349 34.032 15.3767 33.1738L8.94032 26.7375C3.68396 21.4811 3.68396 12.8993 8.94032 7.64292C11.5149 5.06837 14.894 3.67383 18.4876 3.67383C22.0812 3.67383 25.4603 5.06837 28.0349 7.64292C33.2912 12.8993 33.2912 21.4811 28.0349 26.7375L21.5985 33.1738C20.7403 34.032 19.614 34.4611 18.4876 34.4611ZM18.4876 6.35565C15.6985 6.35565 12.9631 7.42838 10.8176 9.5202C6.58032 13.7575 6.58032 20.6229 10.8176 24.8066L17.254 31.2429C17.8976 31.8866 18.9703 31.8866 19.6676 31.2429L26.104 24.8066C30.3412 20.5693 30.3412 13.7038 26.104 9.5202C24.0121 7.42838 21.2767 6.35565 18.4876 6.35565Z" fill="#A461D8"/>
</g>
<defs>
<clipPath id="clip0_561_49344">
<rect width="36.4728" height="36.4728" fill="white" transform="translate(0.251953 0.455078)"/>
</clipPath>
</defs>
</svg>
