<svg width="12" height="13" viewBox="0 0 12 13" fill="none" xmlns="http://www.w3.org/2000/svg">
<path d="M10.1895 4.63672H8.43945V3.32422C8.43945 2.62803 8.16289 1.96035 7.67061 1.46806C7.17833 0.97578 6.51065 0.699219 5.81445 0.699219C5.11826 0.699219 4.45058 0.97578 3.9583 1.46806C3.46601 1.96035 3.18945 2.62803 3.18945 3.32422V4.63672H1.43945C1.20739 4.63672 0.984829 4.72891 0.820735 4.893C0.65664 5.05709 0.564453 5.27965 0.564453 5.51172V11.6367C0.564453 11.8688 0.65664 12.0913 0.820735 12.2554C0.984829 12.4195 1.20739 12.5117 1.43945 12.5117H10.1895C10.4215 12.5117 10.6441 12.4195 10.8082 12.2554C10.9723 12.0913 11.0645 11.8688 11.0645 11.6367V5.51172C11.0645 5.27965 10.9723 5.05709 10.8082 4.893C10.6441 4.72891 10.4215 4.63672 10.1895 4.63672ZM6.25195 8.9368V10.3242C6.25195 10.4403 6.20586 10.5515 6.12381 10.6336C6.04177 10.7156 5.93049 10.7617 5.81445 10.7617C5.69842 10.7617 5.58714 10.7156 5.50509 10.6336C5.42305 10.5515 5.37695 10.4403 5.37695 10.3242V8.9368C5.08505 8.83359 4.83902 8.63052 4.68236 8.36346C4.52571 8.09641 4.4685 7.78257 4.52085 7.47741C4.57321 7.17226 4.73176 6.89544 4.96848 6.69588C5.20519 6.49631 5.50484 6.38686 5.81445 6.38686C6.12407 6.38686 6.42371 6.49631 6.66043 6.69588C6.89715 6.89544 7.05569 7.17226 7.10805 7.47741C7.16041 7.78257 7.1032 8.09641 6.94654 8.36346C6.78988 8.63052 6.54386 8.83359 6.25195 8.9368ZM7.56445 4.63672H4.06445V3.32422C4.06445 2.86009 4.24883 2.41497 4.57702 2.08678C4.9052 1.75859 5.35032 1.57422 5.81445 1.57422C6.27858 1.57422 6.7237 1.75859 7.05189 2.08678C7.38008 2.41497 7.56445 2.86009 7.56445 3.32422V4.63672Z" fill="white"/>
</svg>
