<svg width="101" height="110" viewBox="0 0 101 110" fill="none" xmlns="http://www.w3.org/2000/svg">
<g opacity="0.14">
<path opacity="0.4" d="M56.6826 20.5307H8.98262C-4.91113 20.5307 -16.1611 31.8369 -16.1611 45.6744V98.6057C-16.1611 112.443 -4.85488 123.749 8.98262 123.749H56.6264C70.5201 123.749 81.7701 112.443 81.7701 98.6057V45.6744C81.8264 31.7807 70.5201 20.5307 56.6826 20.5307Z" fill="#4B4AD5"/>
<path d="M46.0492 11.25H19.6117C13.7617 11.25 8.98047 15.975 8.98047 21.825V27.1125C8.98047 32.9625 13.7055 37.6875 19.5555 37.6875H46.0492C51.8992 37.6875 56.6242 32.9625 56.6242 27.1125V21.825C56.6805 15.975 51.8992 11.25 46.0492 11.25Z" fill="#4B4AD5"/>
<path d="M49.707 72.8435H10.332C8.02578 72.8435 6.11328 70.931 6.11328 68.6247C6.11328 66.3185 8.02578 64.406 10.332 64.406H49.707C52.0133 64.406 53.9258 66.3185 53.9258 68.6247C53.9258 70.931 52.0133 72.8435 49.707 72.8435Z" fill="#4B4AD5"/>
<path d="M34.9695 95.3435H10.332C8.02578 95.3435 6.11328 93.431 6.11328 91.1247C6.11328 88.8185 8.02578 86.906 10.332 86.906H34.9695C37.2758 86.906 39.1883 88.8185 39.1883 91.1247C39.1883 93.431 37.2758 95.3435 34.9695 95.3435Z" fill="#4B4AD5"/>
</g>
</svg>
