<svg width="83" height="108" viewBox="0 0 83 108" fill="none" xmlns="http://www.w3.org/2000/svg">
<g opacity="0.1">
<rect x="25.5" y="71.875" width="33.5417" height="28.75" fill="#F6F2FF"/>
<path d="M30.8837 50.9939C43.4786 48.0207 51.2784 35.4002 48.3052 22.8053C45.3319 10.2103 32.7114 2.41044 20.1166 5.38369C7.52169 8.35694 -0.278169 20.9774 2.6951 33.5724C5.66836 46.1673 18.2888 53.9672 30.8837 50.9939Z" fill="#4B4AD5"/>
<path d="M54.8995 54.6757C53.1781 53.6244 51.1927 53.0991 49.1779 53.0564C46.24 52.9941 43.4115 54.219 41.24 56.1988C36.9082 60.1483 33.4403 62.8892 25.4997 62.8892C17.5553 62.8892 13.9515 60.0707 9.8227 56.2315C7.92512 54.4669 5.51935 53.2521 2.93372 53.0814C0.545233 52.9237 -1.86254 53.431 -3.90006 54.6757C-10.0321 58.4206 -22.417 69.9449 -22.417 101.942C-22.417 103.204 -22.3973 104.421 -22.3622 105.604C-22.2837 108.255 -20.0933 110.353 -17.4412 110.353H2.06773H16.0192H34.2764H47.7482H68.4404C71.0924 110.353 73.2827 108.255 73.3615 105.604C73.3966 104.422 73.4164 103.204 73.4164 101.942C73.4164 69.9449 61.0313 58.4206 54.8995 54.6757ZM52.7612 89.8361H46.8554V95.7419H39.2623V89.8361H33.3565V82.243H39.2623V76.3371H46.8554V82.243H52.7612V89.8361Z" fill="#4B4AD5"/>
</g>
</svg>
