<svg width="109" height="118" viewBox="0 0 109 118" fill="none" xmlns="http://www.w3.org/2000/svg">
<g opacity="0.1" clip-path="url(#clip0_612_80284)">
<path d="M33.667 14.0625C21.235 14.0625 9.31213 19.0011 0.521362 27.7919C-8.26941 36.5826 -13.208 48.5055 -13.208 60.9375C-13.208 103.125 33.667 135.938 33.667 135.938C33.667 135.938 80.542 103.125 80.542 60.9375C80.542 48.5055 75.6034 36.5826 66.8126 27.7919C58.0219 19.0011 46.099 14.0625 33.667 14.0625ZM33.667 79.6875C29.9586 79.6875 26.3335 78.5878 23.2501 76.5276C20.1666 74.4673 17.7634 71.5389 16.3442 68.1128C14.9251 64.6867 14.5538 60.9167 15.2773 57.2796C16.0007 53.6424 17.7865 50.3015 20.4087 47.6792C23.031 45.057 26.3719 43.2712 30.009 42.5478C33.6462 41.8243 37.4162 42.1956 40.8423 43.6148C44.2684 45.0339 47.1968 47.4371 49.257 50.5206C51.3173 53.604 52.417 57.2291 52.417 60.9375C52.417 65.9103 50.4415 70.6794 46.9252 74.1958C43.4089 77.7121 38.6398 79.6875 33.667 79.6875Z" fill="#4B4AD5"/>
<path opacity="0.4" d="M33.667 79.6875C44.0223 79.6875 52.417 71.2928 52.417 60.9375C52.417 50.5822 44.0223 42.1875 33.667 42.1875C23.3117 42.1875 14.917 50.5822 14.917 60.9375C14.917 71.2928 23.3117 79.6875 33.667 79.6875Z" fill="#4B4AD5" stroke="#4B4AD5" stroke-width="9.375" stroke-linecap="round" stroke-linejoin="round"/>
</g>
<defs>
<clipPath id="clip0_612_80284">
<rect width="150" height="150" fill="white" transform="translate(-41.333)"/>
</clipPath>
</defs>
</svg>
