<svg width="121" height="117" viewBox="0 0 121 117" fill="none" xmlns="http://www.w3.org/2000/svg">
<g opacity="0.1">
<path opacity="0.4" d="M22.2503 13.1667C5.00199 13.1667 -9.02051 27.1892 -9.02051 44.4375C-9.02051 61.3567 4.21199 75.05 21.4603 75.6425C21.987 75.5767 22.5137 75.5767 22.9087 75.6425C23.0403 75.6425 23.1062 75.6425 23.2378 75.6425C23.3037 75.6425 23.3037 75.6425 23.3695 75.6425C40.2228 75.05 53.4553 61.3567 53.5212 44.4375C53.5212 27.1892 39.4987 13.1667 22.2503 13.1667Z" fill="#4B4AD5"/>
<path d="M55.6933 93.1534C37.3258 80.9084 7.37165 80.9084 -11.1275 93.1534C-19.4883 98.7492 -24.0967 106.32 -24.0967 114.418C-24.0967 122.515 -19.4883 130.02 -11.1933 135.55C-1.97668 141.738 10.1367 144.833 22.25 144.833C34.3633 144.833 46.4767 141.738 55.6933 135.55C63.9883 129.954 68.5967 122.449 68.5967 114.286C68.5308 106.188 63.9883 98.6834 55.6933 93.1534Z" fill="#4B4AD5"/>
<path opacity="0.4" d="M94.6036 48.3223C95.6569 61.094 86.5719 72.2856 73.9977 73.7998C73.9319 73.7998 73.9319 73.7998 73.8661 73.7998H73.6686C73.2736 73.7998 72.8786 73.7998 72.5494 73.9315C66.1636 74.2606 60.3044 72.2198 55.8936 68.4673C62.6744 62.4106 66.5586 53.3256 65.7686 43.4506C65.3077 38.1181 63.4644 33.2465 60.6994 29.099C63.2011 27.8481 66.0977 27.0581 69.0602 26.7948C81.9636 25.6756 93.4844 35.2873 94.6036 48.3223Z" fill="#4B4AD5"/>
<path d="M107.769 109.217C107.243 115.603 103.161 121.133 96.3142 124.885C89.7309 128.506 81.4359 130.218 73.2067 130.02C77.9467 125.741 80.7117 120.409 81.2384 114.747C81.8967 106.584 78.0125 98.7494 70.2442 92.4952C65.8334 89.0061 60.6984 86.2411 55.1025 84.2002C69.6517 79.9869 87.9534 82.8177 99.2109 91.9027C105.268 96.7744 108.362 102.897 107.769 109.217Z" fill="#4B4AD5"/>
</g>
</svg>
