<svg width="119" height="112" viewBox="0 0 119 112" fill="none" xmlns="http://www.w3.org/2000/svg">
<g opacity="0.1" clip-path="url(#clip0_612_80267)">
<path d="M40 20.2979C72.5524 20.2979 98.9414 46.6868 98.9414 79.2393C98.9414 111.792 72.5524 138.181 40 138.181C7.44756 138.181 -18.9414 111.792 -18.9414 79.2393C-18.9414 46.6868 7.44756 20.2979 40 20.2979Z" fill="#4B4AD5" stroke="#F5F1FF" stroke-width="0.617188"/>
<path d="M-19.25 79.2393H99.25" stroke="#F5F1FF" stroke-width="9.875" stroke-linecap="round" stroke-linejoin="round"/>
<path d="M40 138.489C72.7229 138.489 99.25 111.962 99.25 79.2393C99.25 46.5164 72.7229 19.9893 40 19.9893C7.27713 19.9893 -19.25 46.5164 -19.25 79.2393C-19.25 111.962 7.27713 138.489 40 138.489Z" stroke="#F6F2FF" stroke-width="9.875" stroke-linecap="round" stroke-linejoin="round"/>
<path d="M64.6875 79.2393C64.6875 118.739 40 138.489 40 138.489C40 138.489 15.3125 118.739 15.3125 79.2393C15.3125 39.7393 40 19.9893 40 19.9893C40 19.9893 64.6875 39.7393 64.6875 79.2393Z" stroke="#F5F1FF" stroke-width="9.875" stroke-linecap="round" stroke-linejoin="round"/>
</g>
<defs>
<clipPath id="clip0_612_80267">
<rect width="158" height="158" fill="white" transform="translate(-39 0.239258)"/>
</clipPath>
</defs>
</svg>
