<svg width="97" height="107" viewBox="0 0 97 107" fill="none" xmlns="http://www.w3.org/2000/svg">
<g opacity="0.1">
<path fill-rule="evenodd" clip-rule="evenodd" d="M85.4984 48.7503C85.4984 48.7502 85.4984 48.7501 85.4984 48.75C85.4984 30.8007 70.9476 16.25 52.9984 16.25C44.6745 16.25 37.0816 19.3792 31.3317 24.5255C25.5818 19.3792 17.9889 16.25 9.66504 16.25C-8.28422 16.25 -22.835 30.8007 -22.835 48.75C-22.835 48.7502 -22.835 48.7503 -22.835 48.7505C-22.835 88.5688 13.3021 107.283 26.5434 112.804C29.628 114.09 33.0354 114.09 36.12 112.804C49.3613 107.283 85.4984 88.5688 85.4984 48.7503Z" fill="#4B4AD5"/>
<path d="M84.5619 59.5833H59.2785L52.5604 43.9079C51.7069 41.9163 49.7485 40.625 47.5817 40.625C45.4149 40.625 43.4566 41.9163 42.603 43.9079L31.3317 70.2076L28.1854 62.8663C27.3319 60.8747 25.3735 59.5833 23.2067 59.5833H-21.8984C-21.217 63.4247 -20.1857 67.0326 -18.8769 70.4167H19.635L26.353 86.0921C27.2066 88.0837 29.1649 89.375 31.3317 89.375C33.4985 89.375 35.4569 88.0837 36.3104 86.0921L47.5817 59.7924L50.728 67.1337C51.5816 69.1254 53.5399 70.4167 55.7067 70.4167H81.5403C82.8491 67.0326 83.8804 63.4247 84.5619 59.5833Z" fill="#F4EFFF"/>
</g>
</svg>
