<svg width="63" height="63" viewBox="0 0 63 63" fill="none" xmlns="http://www.w3.org/2000/svg">
<rect x="0.433594" y="0.707031" width="62.2188" height="62.2188" rx="14.7101" fill="url(#paint0_linear_533_176516)"/>
<g clip-path="url(#clip0_533_176516)">
<rect x="14.4492" y="13.8086" width="33.9671" height="33.4445" rx="16.7222" fill="white"/>
<path d="M31.9546 40.457V50.3867" stroke="#A461D8" stroke-width="2.56534" stroke-linecap="round" stroke-linejoin="round"/>
<path d="M28.2867 25.0156H26.9839C26.2929 25.0156 25.6302 25.2859 25.1416 25.767C24.6529 26.2481 24.3784 26.9007 24.3784 27.5811V32.0706C24.3784 33.9416 25.1333 35.7361 26.477 37.0591C27.8208 38.3822 29.6433 39.1255 31.5436 39.1255C33.4439 39.1255 35.2664 38.3822 36.6101 37.0591C37.9538 35.7361 38.7087 33.9416 38.7087 32.0706V27.5811C38.7087 26.9007 38.4342 26.2481 37.9456 25.767C37.457 25.2859 36.7942 25.0156 36.1032 25.0156H34.8005" stroke="#A461D8" stroke-width="2.56534" stroke-linecap="round" stroke-linejoin="round"/>
<path d="M34.8003 23.7344V26.3008" stroke="#A461D8" stroke-width="2.56534" stroke-linecap="round" stroke-linejoin="round"/>
<path d="M28.2856 23.7344V26.3008" stroke="#A461D8" stroke-width="2.56534" stroke-linecap="round" stroke-linejoin="round"/>
</g>
<path d="M48.4383 45.8658C48.5118 46.0708 48.3358 46.2786 48.1215 46.2398L39.3162 44.6445C39.1018 44.6057 39.0099 44.3494 39.1507 44.1832L44.9348 37.3552C45.0756 37.1889 45.3436 37.2375 45.4171 37.4425L48.4383 45.8658Z" fill="white"/>
<defs>
<linearGradient id="paint0_linear_533_176516" x1="16.3871" y1="3.10006" x2="50.6872" y2="67.7118" gradientUnits="userSpaceOnUse">
<stop stop-color="#484BFF"/>
<stop offset="1" stop-color="#AB1EFD"/>
</linearGradient>
<clipPath id="clip0_533_176516">
<rect x="14.4492" y="13.8086" width="33.9671" height="33.4445" rx="16.7222" fill="white"/>
</clipPath>
</defs>
</svg>
