<svg width="26" height="26" viewBox="0 0 26 26" fill="none" xmlns="http://www.w3.org/2000/svg">
<g id="Free Gym Icon - Free Download Sports &#38; Games Icons _ IconScout-25 1">
<path id="Layer 2" d="M16.9637 4.44079C16.5066 3.98383 15.8867 3.72713 15.2404 3.72713C14.594 3.72713 13.9742 3.98383 13.5171 4.44079L13.0003 4.95754C12.5434 5.41464 12.2866 6.03452 12.2866 6.68085C12.2866 7.32719 12.5434 7.94707 13.0003 8.40417L14.7236 10.1283L10.1281 14.7238L8.404 13.0013C8.17766 12.7749 7.90893 12.5953 7.61317 12.4728C7.31741 12.3503 7.00042 12.2872 6.68028 12.2872C6.36015 12.2872 6.04316 12.3503 5.7474 12.4728C5.45164 12.5953 5.18291 12.7749 4.95657 13.0013L4.439 13.518C3.98204 13.9751 3.72534 14.595 3.72534 15.2414C3.72534 15.8877 3.98204 16.5076 4.439 16.9647L9.03613 21.5618C9.49323 22.0188 10.1131 22.2755 10.7594 22.2755C11.4058 22.2755 12.0257 22.0188 12.4828 21.5618L13.0003 21.045C13.4573 20.5879 13.714 19.9681 13.714 19.3217C13.714 18.6754 13.4573 18.0555 13.0003 17.5984L11.277 15.8743L15.8725 11.2788L17.5966 13.0013C17.823 13.2277 18.0917 13.4073 18.3875 13.5298C18.6832 13.6523 19.0002 13.7154 19.3203 13.7154C19.6405 13.7154 19.9575 13.6523 20.2532 13.5298C20.549 13.4073 20.8177 13.2277 21.0441 13.0013L21.5616 12.4845C22.0186 12.0274 22.2753 11.4076 22.2753 10.7612C22.2753 10.1149 22.0186 9.49502 21.5616 9.03792L16.9637 4.44079ZM23.3434 4.95754L21.0441 2.65817C20.587 2.2017 19.9675 1.94531 19.3216 1.94531C18.6756 1.94531 18.0561 2.2017 17.5991 2.65817L17.4772 2.78004C17.7062 2.92748 17.9186 3.09909 18.1109 3.29192L22.7097 7.89067C22.9025 8.08298 23.0741 8.29545 23.2216 8.52442L23.3434 8.40254C23.7999 7.94551 24.0563 7.32598 24.0563 6.68004C24.0563 6.0341 23.7999 5.41457 23.3434 4.95754ZM3.29094 18.1119C3.09811 17.9196 2.9265 17.7071 2.77907 17.4782L2.65719 17.6C2.20073 18.0571 1.94434 18.6766 1.94434 19.3225C1.94434 19.9685 2.20073 20.588 2.65719 21.045L4.95657 23.3444C5.41547 23.7973 6.0343 24.0513 6.67907 24.0513C7.32384 24.0513 7.94266 23.7973 8.40157 23.3444L8.52344 23.2225C8.29447 23.0751 8.082 22.9035 7.88969 22.7107L3.29094 18.1119Z" fill="#BA7DE9"/>
</g>
</svg>
