<svg width="24" height="24" viewBox="0 0 24 24" fill="none" xmlns="http://www.w3.org/2000/svg">
<g id="Medical History">
<path id="Shape" d="M7 3C5.34315 3 4 4.34315 4 6V19C4 20.6569 5.34315 22 7 22H17C18.6569 22 20 20.6569 20 19V6C20 4.34315 18.6569 3 17 3H7Z" fill="#A461D8" fill-opacity="0.2"/>
<path id="Shape_2" fill-rule="evenodd" clip-rule="evenodd" d="M9 11C8.44772 11 8 11.4477 8 12C8 12.5523 8.44772 13 9 13H15C15.5523 13 16 12.5523 16 12C16 11.4477 15.5523 11 15 11H9ZM9 15C8.44772 15 8 15.4477 8 16C8 16.5523 8.44772 17 9 17H13C13.5523 17 14 16.5523 14 16C14 15.4477 13.5523 15 13 15H9Z" fill="#A461D8"/>
<path id="Shape_3" d="M9 3C9 2.44772 9.44772 2 10 2H14C14.5523 2 15 2.44772 15 3V4C15 4.55228 14.5523 5 14 5H10C9.44772 5 9 4.55228 9 4V3Z" fill="#A461D8"/>
</g>
</svg>
