<svg width="26" height="26" viewBox="0 0 26 26" fill="none" xmlns="http://www.w3.org/2000/svg">
<g id="Medical Box Icon - Free Download Healthcare &#38; Medical Icons _ IconScout-29 1">
<g id="Layer 2">
<path id="Subtract" fill-rule="evenodd" clip-rule="evenodd" d="M16.5208 4.41536V6.76953H9.47917V4.41536C9.47917 4.34354 9.5077 4.27465 9.55849 4.22386C9.60928 4.17307 9.67817 4.14453 9.75 4.14453H16.25C16.3218 4.14453 16.3907 4.17307 16.4415 4.22386C16.4923 4.27465 16.5208 4.34354 16.5208 4.41536ZM7.85417 4.41536V6.76953H6.77083H4.33333C3.28629 6.76953 2.4375 7.61832 2.4375 8.66536V20.582C2.4375 21.6291 3.28629 22.4779 4.33333 22.4779H6.77083H8.39583H17.6042H19.2292H21.6667C22.7137 22.4779 23.5625 21.6291 23.5625 20.582V8.66536C23.5625 7.61832 22.7137 6.76953 21.6667 6.76953H19.2292H18.1458V4.41536C18.143 3.91344 17.9423 3.43287 17.5874 3.07795C17.2325 2.72303 16.7519 2.52238 16.25 2.51953H9.75C9.24807 2.52238 8.76751 2.72303 8.41259 3.07795C8.05766 3.43287 7.85701 3.91344 7.85417 4.41536ZM13.8125 13.8099H15.7083C15.9238 13.8099 16.1305 13.8955 16.2829 14.0479C16.4352 14.2002 16.5208 14.4069 16.5208 14.6224C16.5208 14.8379 16.4352 15.0445 16.2829 15.1969C16.1305 15.3493 15.9238 15.4349 15.7083 15.4349H13.8125V17.3307C13.8125 17.5462 13.7269 17.7529 13.5745 17.9053C13.4221 18.0576 13.2155 18.1432 13 18.1432C12.7845 18.1432 12.5778 18.0576 12.4255 17.9053C12.2731 17.7529 12.1875 17.5462 12.1875 17.3307V15.4349H10.2917C10.0762 15.4349 9.86951 15.3493 9.71714 15.1969C9.56477 15.0445 9.47916 14.8379 9.47916 14.6224C9.47916 14.4069 9.56477 14.2002 9.71714 14.0479C9.86951 13.8955 10.0762 13.8099 10.2917 13.8099H12.1875V11.9141C12.1875 11.6986 12.2731 11.4919 12.4255 11.3395C12.5778 11.1872 12.7845 11.1016 13 11.1016C13.2155 11.1016 13.4221 11.1872 13.5745 11.3395C13.7269 11.4919 13.8125 11.6986 13.8125 11.9141V13.8099Z" fill="#BA7DE9"/>
</g>
</g>
</svg>
