<svg width="26" height="26" viewBox="0 0 26 26" fill="none" xmlns="http://www.w3.org/2000/svg">
<g id="Medical Box Icon - Free Download Healthcare &#38; Medical Icons _ IconScout-29 1">
<path id="Vector" d="M6.67435 2C5.20418 2 4 3.18104 4 4.62296V21.377C4 22.819 5.20418 24 6.67435 24H19.3256C20.7958 24 22 22.819 22 21.377V4.62296C22 3.18104 20.7958 2 19.3256 2H6.67435ZM13.0026 5.11469C15.9471 5.11469 18.3461 7.47267 18.3461 10.3606C18.3461 13.2485 15.9471 15.6015 13.0026 15.6015C10.0581 15.6015 7.65387 13.2485 7.65387 10.3606C7.65387 7.47267 10.0581 5.11469 13.0026 5.11469ZM13.0026 6.4091C13.0012 6.4091 12.9469 6.40842 12.817 6.55322C12.6871 6.698 12.5226 6.97028 12.3839 7.33568C12.1574 7.93238 11.9883 8.76886 11.9341 9.71088H14.0659C14.0117 8.76886 13.8426 7.93238 13.6161 7.33568C13.4774 6.97028 13.3129 6.698 13.183 6.55322C13.0531 6.40844 13.0039 6.4091 13.0026 6.4091ZM14.8379 6.84015C14.8434 6.85409 14.8481 6.86776 14.8534 6.88188C15.1489 7.66051 15.3337 8.63429 15.3869 9.71088H16.9722C16.7623 8.45362 15.9524 7.39924 14.8379 6.84015ZM11.1621 6.84142C10.0483 7.40096 9.23804 8.45496 9.02778 9.71087H10.6131C10.6663 8.63428 10.8511 7.6605 11.1466 6.88187C11.1519 6.86817 11.1569 6.85504 11.1621 6.84142ZM9.02778 11.0053C9.23696 12.263 10.0477 13.3171 11.1634 13.876C11.1579 13.8618 11.1519 13.8485 11.1467 13.8343C10.8508 13.0546 10.6661 12.0825 10.6131 11.0053L9.02778 11.0053ZM11.9341 11.0053C11.988 11.9493 12.157 12.7865 12.3839 13.3843C12.5226 13.7497 12.6871 14.0182 12.817 14.163C12.9469 14.3077 13.0012 14.307 13.0026 14.307C13.0039 14.307 13.0531 14.3077 13.183 14.163C13.3129 14.0182 13.4774 13.7497 13.6161 13.3843C13.8429 12.7865 14.012 11.9493 14.0659 11.0053H11.9341ZM15.3869 11.0053C15.334 12.0825 15.1493 13.0546 14.8534 13.8343C14.8476 13.8495 14.8411 13.8635 14.8354 13.8785C15.9525 13.3203 16.7634 12.2649 16.9723 11.0053L15.3869 11.0053ZM9.00845 16.9768H16.9967C17.0835 16.9771 17.1693 16.9942 17.2493 17.0271C17.3294 17.0601 17.402 17.1081 17.463 17.1686C17.5241 17.2291 17.5724 17.3007 17.6051 17.3795C17.6379 17.4583 17.6545 17.5427 17.654 17.6278C17.6533 17.7986 17.5839 17.9622 17.4607 18.0829C17.3376 18.2037 17.1708 18.2718 16.9967 18.2725H9.00845C8.92179 18.2728 8.83592 18.2564 8.75572 18.2242C8.67553 18.192 8.6026 18.1446 8.54108 18.0847C8.47957 18.0248 8.43067 17.9537 8.3972 17.8753C8.36372 17.7969 8.34632 17.7128 8.34598 17.6278C8.34547 17.5423 8.36225 17.4575 8.39534 17.3784C8.42844 17.2992 8.47719 17.2273 8.53879 17.1668C8.6004 17.1063 8.67362 17.0583 8.75423 17.0257C8.83484 16.9931 8.92125 16.9765 9.00845 16.9768ZM9.00845 19.5909H16.9967C17.1708 19.5916 17.3376 19.6597 17.4607 19.7805C17.5839 19.9012 17.6533 20.0648 17.654 20.2356C17.6544 20.3206 17.6376 20.4048 17.6048 20.4834C17.5719 20.5621 17.5236 20.6336 17.4626 20.694C17.4015 20.7543 17.329 20.8022 17.249 20.8351C17.1691 20.8679 17.0834 20.885 16.9967 20.8853H9.00845C8.92136 20.8856 8.83506 20.8691 8.75453 20.8365C8.674 20.804 8.60084 20.7562 8.53926 20.6958C8.47767 20.6354 8.42889 20.5636 8.39572 20.4846C8.36254 20.4056 8.34564 20.321 8.34598 20.2356C8.34632 20.1506 8.36372 20.0665 8.3972 19.9881C8.43067 19.9097 8.47956 19.8385 8.54108 19.7787C8.6026 19.7188 8.67553 19.6714 8.75572 19.6392C8.83591 19.607 8.92179 19.5906 9.00845 19.5909Z" fill="#BA7DE9"/>
</g>
</svg>
