<svg width="24" height="25" viewBox="0 0 24 25" fill="none" xmlns="http://www.w3.org/2000/svg">
<path d="M7 3.16406C5.34315 3.16406 4 4.50721 4 6.16406V19.1641C4 20.8209 5.34315 22.1641 7 22.1641H17C18.6569 22.1641 20 20.8209 20 19.1641V6.16406C20 4.50721 18.6569 3.16406 17 3.16406H7Z" fill="white"/>
<path fill-rule="evenodd" clip-rule="evenodd" d="M9 11.1641C8.44772 11.1641 8 11.6118 8 12.1641C8 12.7163 8.44772 13.1641 9 13.1641H15C15.5523 13.1641 16 12.7163 16 12.1641C16 11.6118 15.5523 11.1641 15 11.1641H9ZM9 15.1641C8.44772 15.1641 8 15.6118 8 16.1641C8 16.7163 8.44772 17.1641 9 17.1641H13C13.5523 17.1641 14 16.7163 14 16.1641C14 15.6118 13.5523 15.1641 13 15.1641H9Z" fill="#A461D8"/>
<path d="M9 3.16406C9 2.61178 9.44772 2.16406 10 2.16406H14C14.5523 2.16406 15 2.61178 15 3.16406V4.16406C15 4.71635 14.5523 5.16406 14 5.16406H10C9.44772 5.16406 9 4.71635 9 4.16406V3.16406Z" fill="#A461D8"/>
</svg>
