<svg width="21" height="21" viewBox="0 0 21 21" fill="none" xmlns="http://www.w3.org/2000/svg">
<path d="M16.3526 14.749L16.6776 17.3823C16.761 18.0739 16.0193 18.5573 15.4276 18.1989L11.936 16.1239C11.5526 16.1239 11.1776 16.099 10.811 16.049C11.4276 15.324 11.7943 14.4073 11.7943 13.4156C11.7943 11.0489 9.74431 9.13231 7.21097 9.13231C6.24431 9.13231 5.35264 9.40729 4.61098 9.89062C4.58598 9.68229 4.57764 9.47395 4.57764 9.25728C4.57764 5.46562 7.8693 2.39062 11.936 2.39062C16.0026 2.39062 19.2943 5.46562 19.2943 9.25728C19.2943 11.5073 18.136 13.499 16.3526 14.749Z" stroke="white" stroke-opacity="0.8" stroke-width="1.5" stroke-linecap="round" stroke-linejoin="round"/>
<path d="M11.7944 13.4161C11.7944 14.4078 11.4277 15.3245 10.811 16.0495C9.98602 17.0495 8.67768 17.6911 7.21102 17.6911L5.03602 18.9828C4.66935 19.2078 4.20268 18.8994 4.25268 18.4744L4.46102 16.8328C3.34435 16.0578 2.62769 14.8161 2.62769 13.4161C2.62769 11.9494 3.41102 10.6578 4.61102 9.89112C5.35269 9.40779 6.24435 9.13281 7.21102 9.13281C9.74435 9.13281 11.7944 11.0494 11.7944 13.4161Z" stroke="white" stroke-opacity="0.8" stroke-width="1.5" stroke-linecap="round" stroke-linejoin="round"/>
</svg>
