<svg width="54" height="67" viewBox="0 0 54 67" fill="none" xmlns="http://www.w3.org/2000/svg">
<path d="M42.7375 0H7.37987C3.29979 0 0 3.29971 0 7.37968V55.7472C0 59.8177 3.29979 63.1268 7.37987 63.1268H31.1647C31.1647 61.3877 31.1647 59.3195 31.1647 57.8624C29.4725 57.5991 27.9589 56.6872 27.0658 55.3711C26.3983 54.5156 25.712 53.1337 25.8343 51.1595C25.8531 50.9339 25.8719 50.7271 25.8907 50.5109C25.9095 50.257 25.9471 49.9092 25.9377 49.7964C25.9283 49.7588 25.9001 49.6648 25.8719 49.5708C25.6932 49.3452 25.3078 49.0255 24.96 48.7435C23.0233 47.1642 22.6097 45.2746 22.6003 43.9585C22.5251 42.1441 23.2396 40.4613 24.6121 39.2016C24.913 38.929 25.2232 38.6846 25.4864 38.4684L25.6462 38.3461C25.7497 38.2333 25.8343 38.1299 25.8813 38.0359C25.9001 37.9983 25.9283 37.9513 25.9471 37.8573C25.9283 37.4813 25.9001 37.0958 25.8813 36.7198C25.8343 36.4566 25.8155 36.1745 25.8155 35.9019C25.8155 35.2251 25.9471 34.5388 26.2197 33.8149C26.5581 32.8372 27.1504 31.9912 27.9683 31.2955C29.0588 30.252 30.4502 29.7067 32.0108 29.7067C32.3492 29.7067 32.6877 29.7255 33.0355 29.782C33.2799 29.8196 33.4774 29.829 33.6654 29.829C33.891 29.829 34.0414 29.8008 34.1637 29.7632C34.2953 29.6597 34.4081 29.5563 34.5209 29.4529C35.6772 27.836 37.1438 26.8489 38.8924 26.5105L39.2026 26.454H40.6974L40.9983 26.5105C42.023 26.7079 42.9725 27.1309 43.7998 27.7796C44.3827 28.2214 44.8997 28.7855 45.398 29.4717C45.492 29.5751 45.6236 29.6879 45.7928 29.8102C45.8586 29.829 45.9432 29.8478 46.0749 29.8478C46.1689 29.8478 46.2817 29.8384 46.4133 29.8196C46.9304 29.7444 47.3722 29.7067 47.7953 29.7067C48.6414 29.7067 49.4217 29.8572 50.1455 30.1486V7.37968C50.1173 3.29971 46.8176 0 42.7375 0ZM9.38231 9.41967C9.66435 9.13765 10.0498 8.95903 10.4822 8.95903H24.8189C25.6744 8.95903 26.3795 9.65469 26.3795 10.5196C26.3795 10.952 26.2009 11.3374 25.9189 11.6195C25.6368 11.9015 25.2514 12.0707 24.8189 12.0707H10.4822C9.62674 12.0707 8.92166 11.3751 8.92166 10.5102C8.92166 10.0871 9.10028 9.7017 9.38231 9.41967ZM37.6985 20.8699C37.4164 21.152 37.031 21.3212 36.5985 21.3212H10.4822C9.62674 21.3212 8.92166 20.6255 8.92166 19.7606C8.92166 19.3282 9.10028 18.9428 9.38231 18.6607C9.66435 18.3787 10.0498 18.2001 10.4822 18.2001H36.5985C37.4634 18.2001 38.1591 18.8957 38.1591 19.7606C38.1591 20.1931 37.9805 20.5879 37.6985 20.8699ZM48.1807 18.2565L40.0205 10.0965L31.8604 1.93658H42.5024C45.6424 1.93658 48.1807 4.47481 48.1807 7.6147V18.2565ZM45.4074 57.3547C45.4074 60.2972 45.4074 63.2491 45.4074 66.2009C45.4074 66.2855 45.4074 66.3701 45.4074 66.4548C45.4074 66.671 45.398 66.8778 45.163 66.9718C44.9467 67.0658 44.7963 66.9436 44.6459 66.812C44.11 66.3419 43.5648 65.8719 43.0289 65.4019C42.1546 64.6498 41.2897 63.8883 40.4154 63.1362C40.0393 62.8166 39.8325 62.8166 39.4659 63.1362C38.0745 64.3396 36.6831 65.5523 35.2918 66.7556C35.132 66.8966 34.9721 67.0752 34.7183 66.9718C34.4457 66.859 34.4739 66.6146 34.4739 66.3795C34.4739 64.6686 34.4739 62.9576 34.4739 61.2467C34.4739 59.5169 34.4739 57.7777 34.4739 56.048C34.4739 55.6437 34.5115 55.6249 34.8875 55.766C35.3294 55.9352 35.7054 56.189 36.0157 56.5462C36.2977 56.8659 36.5609 57.1949 36.843 57.5145C38.4694 59.4229 41.3837 59.4417 43.0195 57.5427C43.3015 57.2231 43.5648 56.8941 43.8468 56.5744C44.1664 56.2078 44.5425 55.9352 44.9937 55.766C45.3792 55.6249 45.4074 55.6437 45.4168 56.0386C45.4074 56.4804 45.4074 56.9129 45.4074 57.3547ZM53.8402 42.9244C53.7274 42.3791 53.4077 41.9561 53.0035 41.5894C52.4676 41.11 51.8942 40.6964 51.4147 40.1605C50.8694 39.3708 50.6156 38.506 50.6156 37.5753C50.6156 37.4155 50.6156 37.265 50.6344 37.1052C50.7002 36.748 50.7472 36.3908 50.7472 36.0241C50.7472 35.6481 50.6908 35.2815 50.5498 34.9148C50.39 34.4354 50.0985 34.0499 49.7037 33.7397C49.5909 33.5799 49.4217 33.4859 49.2618 33.3825C48.5098 32.9124 47.6825 32.9406 46.874 33.0723C45.8962 33.2133 44.9749 33.1287 44.11 32.6586C43.6212 32.3202 43.1605 31.9536 42.7845 31.5023C42.4836 31.0699 42.1546 30.6844 41.7598 30.3836C41.3649 30.0828 40.9137 29.8572 40.3778 29.7632H39.5129C38.4412 29.97 37.6985 30.6468 37.1062 31.5117C36.7208 31.963 36.2789 32.339 35.7806 32.668C35.0944 33.0065 34.3893 33.1381 33.6654 33.1381C33.2987 33.1381 32.9227 33.1005 32.5467 33.0535C31.6724 32.9218 30.8357 33.0817 30.1776 33.7585C29.7827 34.0688 29.4913 34.4448 29.3315 34.9336C29.2093 35.2533 29.1247 35.5729 29.1247 35.9019C29.1247 36.0335 29.1341 36.1745 29.1717 36.325C29.1999 36.8796 29.2375 37.4343 29.2563 37.9889C29.2093 38.553 29.0588 39.07 28.8238 39.5401C28.5794 40.0101 28.2503 40.4331 27.8461 40.8186C27.5077 41.0912 27.1598 41.3638 26.8402 41.6553C26.1821 42.2569 25.8531 42.9902 25.9095 43.8833V43.9397C25.9095 44.8798 26.3325 45.613 27.0564 46.1959C27.7615 46.7787 28.4572 47.3522 28.8896 48.1795C29.0024 48.5085 29.1247 48.8375 29.1905 49.1854C29.3315 49.928 29.1905 50.6519 29.1435 51.3852C29.0964 52.1466 29.2375 52.8517 29.7545 53.4439C30.234 54.2618 31.4561 54.7695 32.4903 54.6379C33.3834 54.525 34.2859 54.431 35.179 54.7507C36.2225 55.1079 36.8994 55.8882 37.5386 56.7154C38.5258 57.9846 40.406 58.2948 41.6657 57.3453C42.117 57.0069 42.4554 56.5462 42.8033 56.095C43.7058 54.9575 44.8903 54.4592 46.3287 54.5344C46.7517 54.5532 47.1654 54.6379 47.5884 54.6567C48.6508 54.7037 49.4687 54.2148 50.1455 53.4439C50.578 52.9457 50.766 52.3722 50.766 51.7518C50.766 51.6296 50.7566 51.5074 50.7472 51.3758C50.5874 50.022 50.5498 48.7059 51.4053 47.5402C51.8565 47.0326 52.383 46.6095 52.9001 46.1677C53.8684 45.3122 54.235 44.0619 53.8402 42.9244ZM47.0056 47.371C46.1971 48.8563 45.0877 50.0408 43.5742 50.8211C39.9923 52.6731 35.6302 51.5544 33.374 48.2171C33.2987 48.1043 33.2235 47.9914 33.1483 47.888C32.5561 46.8445 32.18 45.7352 32.0578 44.5413C31.992 43.291 32.1236 42.0783 32.5749 40.9032C33.0449 39.8503 33.6654 38.9008 34.4739 38.0829C35.132 37.5659 35.7618 37.03 36.5327 36.6728C36.7866 36.56 37.0498 36.4754 37.313 36.372C39.6445 35.6105 41.8726 35.8549 44.0066 37.0394C45.3322 37.8761 46.3381 39.0042 47.062 40.3861C47.4004 41.1852 47.6448 42.0125 47.7859 42.8586C47.9175 44.4191 47.6919 45.9327 47.0056 47.371ZM45.398 42.3415C45.4826 43.3192 45.4544 44.2969 45.4168 45.2746C45.398 45.6412 45.1348 45.7822 44.7869 45.7822C43.828 45.7822 42.8785 45.7822 41.9196 45.7822C41.9102 46.7129 41.9102 47.6436 41.9008 48.5743C41.9008 49.1383 41.7221 49.317 41.1675 49.3264C40.3402 49.3358 39.5223 49.3358 38.695 49.3264C38.1403 49.3264 37.9711 49.1383 37.9617 48.5743C37.9523 47.6436 37.9523 46.7129 37.9429 45.7822C36.984 45.7822 36.0345 45.7822 35.0756 45.7822C34.7277 45.7822 34.4645 45.6506 34.4457 45.2746C34.4081 44.2969 34.3799 43.3192 34.4645 42.3415C34.5021 41.9279 34.7841 41.8433 35.132 41.8433C35.9405 41.8433 36.749 41.8245 37.5575 41.8433C37.8771 41.8527 37.9899 41.7493 37.9711 41.4296C37.9523 41.0066 37.9711 40.5836 37.9805 40.1605C37.9805 39.7469 37.9617 39.3332 37.9711 38.929C37.9805 38.5436 38.1685 38.3461 38.554 38.3367C39.4753 38.3273 40.3966 38.3273 41.3179 38.3367C41.7033 38.3367 41.8914 38.5436 41.9008 38.929C41.9102 39.3426 41.9008 39.7563 41.8914 40.1605C41.8914 40.6118 41.9102 41.0536 41.9008 41.5048C41.8914 41.7587 41.9854 41.8433 42.2392 41.8433C43.0759 41.8339 43.9032 41.8339 44.7399 41.8433C45.0783 41.8339 45.3698 41.9279 45.398 42.3415Z" fill="#E5E5E5"/>
</svg>
