<svg width="24" height="25" viewBox="0 0 24 25" fill="none" xmlns="http://www.w3.org/2000/svg">
<path d="M6 4.16406L15 3.16406L17 5.66406L19 8.66406L18 21.1641H6V4.16406Z" fill="#A461D8"/>
<path d="M19.74 7.49424L15.3 2.49424C15.2065 2.39065 15.0924 2.30777 14.9649 2.25094C14.8375 2.1941 14.6995 2.16457 14.56 2.16424H6.56C6.22775 2.16028 5.89797 2.2218 5.5895 2.3453C5.28103 2.46879 4.9999 2.65185 4.76218 2.884C4.52446 3.11615 4.33479 3.39285 4.20402 3.69831C4.07324 4.00377 4.00392 4.33199 4 4.66424V19.6642C4.00392 19.9965 4.07324 20.3247 4.20402 20.6302C4.33479 20.9356 4.52446 21.2123 4.76218 21.4445C4.9999 21.6766 5.28103 21.8597 5.5895 21.9832C5.89797 22.1067 6.22775 22.1682 6.56 22.1642H17.44C17.7723 22.1682 18.102 22.1067 18.4105 21.9832C18.719 21.8597 19.0001 21.6766 19.2378 21.4445C19.4755 21.2123 19.6652 20.9356 19.796 20.6302C19.9268 20.3247 19.9961 19.9965 20 19.6642V8.16424C19.9994 7.91641 19.9067 7.67764 19.74 7.49424ZM9 12.1642H12C12.2652 12.1642 12.5196 12.2696 12.7071 12.4571C12.8946 12.6447 13 12.899 13 13.1642C13 13.4295 12.8946 13.6838 12.7071 13.8713C12.5196 14.0589 12.2652 14.1642 12 14.1642H9C8.73478 14.1642 8.48043 14.0589 8.29289 13.8713C8.10536 13.6838 8 13.4295 8 13.1642C8 12.899 8.10536 12.6447 8.29289 12.4571C8.48043 12.2696 8.73478 12.1642 9 12.1642ZM15 18.1642H9C8.73478 18.1642 8.48043 18.0589 8.29289 17.8714C8.10536 17.6838 8 17.4295 8 17.1642C8 16.899 8.10536 16.6447 8.29289 16.4571C8.48043 16.2696 8.73478 16.1642 9 16.1642H15C15.2652 16.1642 15.5196 16.2696 15.7071 16.4571C15.8946 16.6447 16 16.899 16 17.1642C16 17.4295 15.8946 17.6838 15.7071 17.8714C15.5196 18.0589 15.2652 18.1642 15 18.1642ZM14.71 8.16424C14.5038 8.14394 14.3139 8.04348 14.1811 7.88449C14.0483 7.72551 13.9833 7.52072 14 7.31424V4.16424L17.74 8.16424H14.71Z" fill="white"/>
</svg>
