<svg width="24" height="25" viewBox="0 0 24 25" fill="none" xmlns="http://www.w3.org/2000/svg">
<g id="notes">
<path id="Rectangle 6" d="M6 4.41211L15 3.41211L17 5.91211L19 8.91211L18 21.4121H6V4.41211Z" fill="#A461D8"/>
<path id="Vector" d="M19.74 7.74211L15.3 2.74211C15.2065 2.63851 15.0924 2.55564 14.9649 2.4988C14.8375 2.44197 14.6995 2.41244 14.56 2.41211H6.56C6.22775 2.40814 5.89797 2.46967 5.5895 2.59316C5.28103 2.71666 4.9999 2.89971 4.76218 3.13186C4.52446 3.36401 4.33479 3.64072 4.20402 3.94617C4.07324 4.25163 4.00392 4.57985 4 4.91211V19.9121C4.00392 20.2444 4.07324 20.5726 4.20402 20.878C4.33479 21.1835 4.52446 21.4602 4.76218 21.6924C4.9999 21.9245 5.28103 22.1076 5.5895 22.231C5.89797 22.3545 6.22775 22.4161 6.56 22.4121H17.44C17.7723 22.4161 18.102 22.3545 18.4105 22.231C18.719 22.1076 19.0001 21.9245 19.2378 21.6924C19.4755 21.4602 19.6652 21.1835 19.796 20.878C19.9268 20.5726 19.9961 20.2444 20 19.9121V8.41211C19.9994 8.16427 19.9067 7.9255 19.74 7.74211ZM9 12.4121H12C12.2652 12.4121 12.5196 12.5175 12.7071 12.705C12.8946 12.8925 13 13.1469 13 13.4121C13 13.6773 12.8946 13.9317 12.7071 14.1192C12.5196 14.3067 12.2652 14.4121 12 14.4121H9C8.73478 14.4121 8.48043 14.3067 8.29289 14.1192C8.10536 13.9317 8 13.6773 8 13.4121C8 13.1469 8.10536 12.8925 8.29289 12.705C8.48043 12.5175 8.73478 12.4121 9 12.4121ZM15 18.4121H9C8.73478 18.4121 8.48043 18.3068 8.29289 18.1192C8.10536 17.9317 8 17.6773 8 17.4121C8 17.1469 8.10536 16.8925 8.29289 16.705C8.48043 16.5175 8.73478 16.4121 9 16.4121H15C15.2652 16.4121 15.5196 16.5175 15.7071 16.705C15.8946 16.8925 16 17.1469 16 17.4121C16 17.6773 15.8946 17.9317 15.7071 18.1192C15.5196 18.3068 15.2652 18.4121 15 18.4121ZM14.71 8.41211C14.5038 8.39181 14.3139 8.29134 14.1811 8.13236C14.0483 7.97337 13.9833 7.76858 14 7.56211V4.41211L17.74 8.41211H14.71Z" fill="#EDDFF7"/>
</g>
</svg>
