<svg width="100%" height="100%" viewBox="0 0 1194 193" fill="none" xmlns="http://www.w3.org/2000/svg">
<g clip-path="url(#clip0_3143_78714)">
<mask id="path-1-inside-1_3143_78714" fill="white">
<path d="M0 0H1194V193H0V0Z"/>
</mask>
<path d="M0 0H1194V193H0V0Z" fill="url(#paint0_linear_3143_78714)"/>
<path d="M51 74.4808C51 26.1837 90.1923 -13 138.5 -13M199.385 11.6869C215.808 27.6065 226 49.8708 226 74.5192C226 122.816 186.808 162 138.5 162C109.885 162 84.4615 148.272 68.5 127.008M206.308 91.9769C198.538 122.163 171.115 144.465 138.5 144.465C99.8462 144.465 68.5 113.126 68.5 74.4808C68.5 35.8354 99.8462 4.49616 138.5 4.49616C167.077 4.49616 191.615 21.6078 202.5 46.1409M116.115 121.97C98.3077 113.549 86 95.4762 86 74.4808C86 45.4872 109.5 21.9923 138.5 21.9923C167.5 21.9923 191 45.4872 191 74.4808C191 98.2833 175.154 118.356 153.462 124.816M138.5 39.4885C143.269 39.4885 147.808 40.4498 151.962 42.1802C164.615 47.4483 173.5 59.9455 173.5 74.4808C173.5 93.8227 157.846 109.473 138.5 109.473C119.154 109.473 103.5 93.8227 103.5 74.4808M138.5 91.9769C128.846 91.9769 121 84.1325 121 74.4808C121 64.8291 128.846 56.9846 138.5 56.9846C148.154 56.9846 156 64.8291 156 74.4808" stroke="white" stroke-opacity="0.16" stroke-width="0.5" stroke-miterlimit="10"/>
<path d="M790.5 -44.5C790.5 -5.28779 758.712 26.5 719.5 26.5C680.288 26.5 648.5 -5.28778 648.5 -44.5" stroke="#476ECF" stroke-opacity="0.04" stroke-width="24"/>
<g opacity="0.2">
<path d="M349 -75.1016H350.898V-77H351.32V-75.1016H353.219V-74.6797H351.32V-72.7812H350.898V-74.6797H349V-75.1016Z" fill="#FF7A71"/>
<path d="M361.216 -75.1016H363.114V-77H363.536V-75.1016H365.435V-74.6797H363.536V-72.7812H363.114V-74.6797H361.216V-75.1016Z" fill="#FF7A71"/>
<path d="M373.432 -75.1016H375.33V-77H375.752V-75.1016H377.651V-74.6797H375.752V-72.7812H375.33V-74.6797H373.432V-75.1016Z" fill="#FF7A71"/>
<path d="M385.648 -75.1016H387.546V-77H387.968V-75.1016H389.867V-74.6797H387.968V-72.7812H387.546V-74.6797H385.648V-75.1016Z" fill="#FF7A71"/>
<path d="M397.864 -75.1016H399.762V-77H400.184V-75.1016H402.083V-74.6797H400.184V-72.7813H399.762V-74.6797H397.864V-75.1016Z" fill="#FF7A71"/>
<path d="M410.08 -75.1016H411.978V-77H412.4V-75.1016H414.298V-74.6797H412.4V-72.7813H411.978V-74.6797H410.08V-75.1016Z" fill="#FF7A71"/>
<path d="M422.296 -75.1016H424.194V-77H424.616V-75.1016H426.514V-74.6797H424.616V-72.7813H424.194V-74.6797H422.296V-75.1016Z" fill="#FF7A71"/>
<path d="M434.512 -75.1016H436.41V-77H436.832V-75.1016H438.73V-74.6797H436.832V-72.7813H436.41V-74.6797H434.512V-75.1016Z" fill="#FF7A71"/>
<path d="M446.728 -75.1016H448.626V-77H449.048V-75.1016H450.946V-74.6797H449.048V-72.7813H448.626V-74.6797H446.728V-75.1016Z" fill="#FF7A71"/>
<path d="M458.943 -75.1016H460.842V-77H461.264V-75.1016H463.162V-74.6797H461.264V-72.7813H460.842V-74.6797H458.943V-75.1016Z" fill="#FF7A71"/>
<path d="M471.159 -75.1016H473.058V-77H473.48V-75.1016H475.378V-74.6797H473.48V-72.7813H473.058V-74.6797H471.159V-75.1016Z" fill="#FF7A71"/>
<path d="M483.375 -75.1016H485.274V-77H485.696V-75.1016H487.594V-74.6797H485.696V-72.7813H485.274V-74.6797H483.375V-75.1016Z" fill="#FF7A71"/>
<path d="M349 -58.1016H350.898V-60H351.32V-58.1016H353.219V-57.6797H351.32V-55.7812H350.898V-57.6797H349V-58.1016Z" fill="#FF7A71"/>
<path d="M361.216 -58.1016H363.114V-60H363.536V-58.1016H365.435V-57.6797H363.536V-55.7812H363.114V-57.6797H361.216V-58.1016Z" fill="#FF7A71"/>
<path d="M373.432 -58.1016H375.33V-60H375.752V-58.1016H377.651V-57.6797H375.752V-55.7812H375.33V-57.6797H373.432V-58.1016Z" fill="#FF7A71"/>
<path d="M385.648 -58.1016H387.546V-60H387.968V-58.1016H389.867V-57.6797H387.968V-55.7813H387.546V-57.6797H385.648V-58.1016Z" fill="#FF7A71"/>
<path d="M397.864 -58.1016H399.762V-60H400.184V-58.1016H402.083V-57.6797H400.184V-55.7813H399.762V-57.6797H397.864V-58.1016Z" fill="#FF7A71"/>
<path d="M410.08 -58.1016H411.978V-60H412.4V-58.1016H414.298V-57.6797H412.4V-55.7813H411.978V-57.6797H410.08V-58.1016Z" fill="#FF7A71"/>
<path d="M422.296 -58.1016H424.194V-60H424.616V-58.1016H426.514V-57.6797H424.616V-55.7813H424.194V-57.6797H422.296V-58.1016Z" fill="#FF7A71"/>
<path d="M434.512 -58.1016H436.41V-60H436.832V-58.1016H438.73V-57.6797H436.832V-55.7813H436.41V-57.6797H434.512V-58.1016Z" fill="#FF7A71"/>
<path d="M446.728 -58.1016H448.626V-60H449.048V-58.1016H450.946V-57.6797H449.048V-55.7813H448.626V-57.6797H446.728V-58.1016Z" fill="#FF7A71"/>
<path d="M458.943 -58.1016H460.842V-60H461.264V-58.1016H463.162V-57.6797H461.264V-55.7813H460.842V-57.6797H458.943V-58.1016Z" fill="#FF7A71"/>
<path d="M471.159 -58.1016H473.058V-60H473.48V-58.1016H475.378V-57.6797H473.48V-55.7813H473.058V-57.6797H471.159V-58.1016Z" fill="#FF7A71"/>
<path d="M483.375 -58.1016H485.274V-60H485.696V-58.1016H487.594V-57.6797H485.696V-55.7813H485.274V-57.6797H483.375V-58.1016Z" fill="#FF7A71"/>
<path d="M349 -41.1016H350.898V-43H351.32V-41.1016H353.219V-40.6797H351.32V-38.7812H350.898V-40.6797H349V-41.1016Z" fill="#FF7A71"/>
<path d="M361.216 -41.1016H363.114V-43H363.536V-41.1016H365.435V-40.6797H363.536V-38.7812H363.114V-40.6797H361.216V-41.1016Z" fill="#FF7A71"/>
<path d="M373.432 -41.1016H375.33V-43H375.752V-41.1016H377.651V-40.6797H375.752V-38.7813H375.33V-40.6797H373.432V-41.1016Z" fill="#FF7A71"/>
<path d="M385.648 -41.1016H387.546V-43H387.968V-41.1016H389.867V-40.6797H387.968V-38.7813H387.546V-40.6797H385.648V-41.1016Z" fill="#FF7A71"/>
<path d="M397.864 -41.1016H399.762V-43H400.184V-41.1016H402.083V-40.6797H400.184V-38.7813H399.762V-40.6797H397.864V-41.1016Z" fill="#FF7A71"/>
<path d="M410.08 -41.1016H411.978V-43H412.4V-41.1016H414.298V-40.6797H412.4V-38.7813H411.978V-40.6797H410.08V-41.1016Z" fill="#FF7A71"/>
<path d="M422.296 -41.1016H424.194V-43H424.616V-41.1016H426.514V-40.6797H424.616V-38.7813H424.194V-40.6797H422.296V-41.1016Z" fill="#FF7A71"/>
<path d="M434.512 -41.1016H436.41V-43H436.832V-41.1016H438.73V-40.6797H436.832V-38.7813H436.41V-40.6797H434.512V-41.1016Z" fill="#FF7A71"/>
<path d="M446.728 -41.1016H448.626V-43H449.048V-41.1016H450.946V-40.6797H449.048V-38.7813H448.626V-40.6797H446.728V-41.1016Z" fill="#FF7A71"/>
<path d="M458.943 -41.1016L460.842 -41.1016V-43H461.264V-41.1016H463.162V-40.6797H461.264V-38.7813H460.842V-40.6797L458.943 -40.6797V-41.1016Z" fill="#FF7A71"/>
<path d="M471.159 -41.1016H473.058V-43H473.48V-41.1016H475.378V-40.6797H473.48V-38.7813H473.058V-40.6797H471.159V-41.1016Z" fill="#FF7A71"/>
<path d="M483.375 -41.1016H485.274V-43H485.696V-41.1016H487.594V-40.6797H485.696V-38.7813H485.274V-40.6797H483.375V-41.1016Z" fill="#FF7A71"/>
<path d="M349 -24.1016H350.898V-26H351.32V-24.1016H353.219V-23.6797H351.32V-21.7812H350.898V-23.6797H349V-24.1016Z" fill="#FF7A71"/>
<path d="M361.216 -24.1016H363.114V-26H363.536V-24.1016H365.435V-23.6797H363.536V-21.7812H363.114V-23.6797H361.216V-24.1016Z" fill="#FF7A71"/>
<path d="M373.432 -24.1016H375.33V-26H375.752V-24.1016H377.651V-23.6797H375.752V-21.7813H375.33V-23.6797H373.432V-24.1016Z" fill="#FF7A71"/>
<path d="M385.648 -24.1016H387.546V-26H387.968V-24.1016H389.867V-23.6797H387.968V-21.7813H387.546V-23.6797H385.648V-24.1016Z" fill="#FF7A71"/>
<path d="M397.864 -24.1016H399.762V-26H400.184V-24.1016H402.083V-23.6797H400.184V-21.7813H399.762V-23.6797H397.864V-24.1016Z" fill="#FF7A71"/>
<path d="M410.08 -24.1016H411.978V-26H412.4V-24.1016H414.298V-23.6797H412.4V-21.7813H411.978V-23.6797H410.08V-24.1016Z" fill="#FF7A71"/>
<path d="M422.296 -24.1016H424.194V-26H424.616V-24.1016H426.514V-23.6797H424.616V-21.7813H424.194V-23.6797H422.296V-24.1016Z" fill="#FF7A71"/>
<path d="M434.512 -24.1016H436.41V-26H436.832V-24.1016H438.73V-23.6797H436.832V-21.7813H436.41V-23.6797H434.512V-24.1016Z" fill="#FF7A71"/>
<path d="M446.728 -24.1016H448.626V-26H449.048V-24.1016H450.946V-23.6797H449.048V-21.7813H448.626V-23.6797H446.728V-24.1016Z" fill="#FF7A71"/>
<path d="M458.943 -24.1016L460.842 -24.1016V-26H461.264V-24.1016H463.162V-23.6797H461.264V-21.7813H460.842V-23.6797L458.943 -23.6797V-24.1016Z" fill="#FF7A71"/>
<path d="M471.159 -24.1016H473.058V-26H473.48V-24.1016H475.378V-23.6797H473.48V-21.7813H473.058V-23.6797H471.159V-24.1016Z" fill="#FF7A71"/>
<path d="M483.375 -24.1016H485.274V-26H485.696V-24.1016H487.594V-23.6797H485.696V-21.7813H485.274V-23.6797H483.375V-24.1016Z" fill="#FF7A71"/>
<path d="M349 -7.10156H350.898V-9H351.32V-7.10156H353.219V-6.67969H351.32V-4.78125H350.898V-6.67969H349V-7.10156Z" fill="#FF7A71"/>
<path d="M361.216 -7.10156H363.114V-9H363.536V-7.10156H365.435V-6.67969H363.536V-4.78125H363.114V-6.67969H361.216V-7.10156Z" fill="#FF7A71"/>
<path d="M373.432 -7.10156H375.33V-9H375.752V-7.10156H377.651V-6.67969H375.752V-4.78125H375.33V-6.67969H373.432V-7.10156Z" fill="#FF7A71"/>
<path d="M385.648 -7.10156H387.546V-9H387.968V-7.10156H389.867V-6.67969H387.968V-4.78125H387.546V-6.67969H385.648V-7.10156Z" fill="#FF7A71"/>
<path d="M397.864 -7.10156H399.762V-9H400.184V-7.10156H402.083V-6.67969H400.184V-4.78125H399.762V-6.67969H397.864V-7.10156Z" fill="#FF7A71"/>
<path d="M410.08 -7.10156H411.978V-9H412.4V-7.10156H414.298V-6.67969H412.4V-4.78125H411.978V-6.67969H410.08V-7.10156Z" fill="#FF7A71"/>
<path d="M422.296 -7.10156H424.194V-9H424.616V-7.10156H426.514V-6.67969H424.616V-4.78125H424.194V-6.67969H422.296V-7.10156Z" fill="#FF7A71"/>
<path d="M434.512 -7.10156H436.41V-9H436.832V-7.10156H438.73V-6.67969H436.832V-4.78125H436.41V-6.67969H434.512V-7.10156Z" fill="#FF7A71"/>
<path d="M446.728 -7.10156H448.626V-9H449.048V-7.10156H450.946V-6.67969H449.048V-4.78125H448.626V-6.67969H446.728V-7.10156Z" fill="#FF7A71"/>
<path d="M458.943 -7.10156H460.842V-9H461.264V-7.10156H463.162V-6.67969H461.264V-4.78125H460.842V-6.67969H458.943V-7.10156Z" fill="#FF7A71"/>
<path d="M471.159 -7.10156H473.058V-9H473.48V-7.10156H475.378V-6.67969H473.48V-4.78125H473.058V-6.67969H471.159V-7.10156Z" fill="#FF7A71"/>
<path d="M483.375 -7.10156H485.274V-9H485.696V-7.10156H487.594V-6.67969H485.696V-4.78125H485.274V-6.67969H483.375V-7.10156Z" fill="#FF7A71"/>
<path d="M349 9.89844H350.898V8H351.32V9.89844H353.219V10.3203H351.32V12.2188H350.898V10.3203H349V9.89844Z" fill="#FF7A71"/>
<path d="M361.216 9.89844H363.114V8H363.536V9.89844H365.435V10.3203H363.536V12.2188H363.114V10.3203H361.216V9.89844Z" fill="#FF7A71"/>
<path d="M373.432 9.89844H375.33V8H375.752V9.89844H377.651V10.3203H375.752V12.2188H375.33V10.3203H373.432V9.89844Z" fill="#FF7A71"/>
<path d="M385.648 9.89844H387.546V8H387.968V9.89844H389.867V10.3203H387.968V12.2188H387.546V10.3203H385.648V9.89844Z" fill="#FF7A71"/>
<path d="M397.864 9.89844H399.762V8H400.184V9.89844H402.083V10.3203H400.184V12.2187H399.762V10.3203H397.864V9.89844Z" fill="#FF7A71"/>
<path d="M410.08 9.89844H411.978V8H412.4V9.89844H414.298V10.3203H412.4V12.2187H411.978V10.3203H410.08V9.89844Z" fill="#FF7A71"/>
<path d="M422.296 9.89844H424.194V8H424.616V9.89844H426.514V10.3203H424.616V12.2187H424.194V10.3203H422.296V9.89844Z" fill="#FF7A71"/>
<path d="M434.512 9.89844H436.41V8H436.832V9.89844H438.73V10.3203H436.832V12.2187H436.41V10.3203H434.512V9.89844Z" fill="#FF7A71"/>
<path d="M446.728 9.89844H448.626V8H449.048V9.89844H450.946V10.3203H449.048V12.2187H448.626V10.3203H446.728V9.89844Z" fill="#FF7A71"/>
<path d="M458.943 9.89844H460.842V8H461.264V9.89844H463.162V10.3203H461.264V12.2187H460.842V10.3203H458.943V9.89844Z" fill="#FF7A71"/>
<path d="M471.159 9.89844H473.058V8H473.48V9.89844H475.378V10.3203H473.48V12.2187H473.058V10.3203H471.159V9.89844Z" fill="#FF7A71"/>
<path d="M483.375 9.89844H485.274V8H485.696V9.89844H487.594V10.3203H485.696V12.2187H485.274V10.3203H483.375V9.89844Z" fill="#FF7A71"/>
<path d="M349 26.8984H350.898V25H351.32V26.8984H353.219V27.3203H351.32V29.2188H350.898V27.3203H349V26.8984Z" fill="#FF7A71"/>
<path d="M361.216 26.8984H363.114V25H363.536V26.8984H365.435V27.3203H363.536V29.2188H363.114V27.3203H361.216V26.8984Z" fill="#FF7A71"/>
<path d="M373.432 26.8984H375.33V25H375.752V26.8984H377.651V27.3203H375.752V29.2188H375.33V27.3203H373.432V26.8984Z" fill="#FF7A71"/>
<path d="M385.648 26.8984H387.546V25H387.968V26.8984H389.867V27.3203H387.968V29.2188H387.546V27.3203H385.648V26.8984Z" fill="#FF7A71"/>
<path d="M397.864 26.8984H399.762V25H400.184V26.8984H402.083V27.3203H400.184V29.2187H399.762V27.3203H397.864V26.8984Z" fill="#FF7A71"/>
<path d="M410.08 26.8984H411.978V25H412.4V26.8984H414.298V27.3203H412.4V29.2187H411.978V27.3203H410.08V26.8984Z" fill="#FF7A71"/>
<path d="M422.296 26.8984H424.194V25H424.616V26.8984H426.514V27.3203H424.616V29.2187H424.194V27.3203H422.296V26.8984Z" fill="#FF7A71"/>
<path d="M434.512 26.8984H436.41V25H436.832V26.8984H438.73V27.3203H436.832V29.2187H436.41V27.3203H434.512V26.8984Z" fill="#FF7A71"/>
<path d="M446.728 26.8984H448.626V25H449.048V26.8984H450.946V27.3203H449.048V29.2187H448.626V27.3203H446.728V26.8984Z" fill="#FF7A71"/>
<path d="M458.943 26.8984H460.842V25H461.264V26.8984H463.162V27.3203H461.264V29.2187H460.842V27.3203H458.943V26.8984Z" fill="#FF7A71"/>
<path d="M471.159 26.8984H473.058V25H473.48V26.8984H475.378V27.3203H473.48V29.2187H473.058V27.3203H471.159V26.8984Z" fill="#FF7A71"/>
<path d="M483.375 26.8984H485.274V25H485.696V26.8984H487.594V27.3203H485.696V29.2187H485.274V27.3203H483.375V26.8984Z" fill="#FF7A71"/>
</g>
<path d="M1117 -65.1016H1118.9V-67H1119.32V-65.1016H1121.22V-64.6797H1119.32V-62.7812H1118.9V-64.6797H1117V-65.1016Z" fill="#FF7A71"/>
<path d="M1129.22 -65.1016H1131.11V-67H1131.54V-65.1016H1133.43V-64.6797H1131.54V-62.7812H1131.11V-64.6797H1129.22V-65.1016Z" fill="#FF7A71"/>
<path d="M1141.43 -65.1016H1143.33V-67H1143.75V-65.1016H1145.65V-64.6797H1143.75V-62.7813H1143.33V-64.6797H1141.43V-65.1016Z" fill="#FF7A71"/>
<path d="M1153.65 -65.1016H1155.55V-67H1155.97V-65.1016H1157.87V-64.6797H1155.97V-62.7813H1155.55V-64.6797H1153.65V-65.1016Z" fill="#FF7A71"/>
<path d="M1165.86 -65.1016H1167.76V-67H1168.18V-65.1016H1170.08V-64.6797H1168.18V-62.7813H1167.76V-64.6797H1165.86V-65.1016Z" fill="#FF7A71"/>
<path d="M1178.08 -65.1016H1179.98V-67H1180.4V-65.1016H1182.3V-64.6797H1180.4V-62.7813H1179.98V-64.6797H1178.08V-65.1016Z" fill="#FF7A71"/>
<path d="M1190.3 -65.1016H1192.19V-67H1192.62V-65.1016H1194.51V-64.6797H1192.62V-62.7813H1192.19V-64.6797H1190.3V-65.1016Z" fill="#FF7A71"/>
<path d="M1202.51 -65.1016H1204.41V-67H1204.83V-65.1016H1206.73V-64.6797H1204.83V-62.7813H1204.41V-64.6797H1202.51V-65.1016Z" fill="#FF7A71"/>
<path d="M1214.73 -65.1016H1216.63V-67H1217.05V-65.1016H1218.95V-64.6797H1217.05V-62.7813H1216.63V-64.6797H1214.73V-65.1016Z" fill="#FF7A71"/>
<path d="M1226.94 -65.1016H1228.84V-67H1229.26V-65.1016H1231.16V-64.6797H1229.26V-62.7813H1228.84V-64.6797H1226.94V-65.1016Z" fill="#FF7A71"/>
<path d="M1239.16 -65.1016H1241.06V-67H1241.48V-65.1016H1243.38V-64.6797H1241.48V-62.7813H1241.06V-64.6797H1239.16V-65.1016Z" fill="#FF7A71"/>
<path d="M1251.38 -65.1016H1253.27V-67H1253.7V-65.1016H1255.59V-64.6797H1253.7V-62.7813H1253.27V-64.6797H1251.38V-65.1016Z" fill="#FF7A71"/>
<path d="M1117 -48.1016H1118.9V-50H1119.32V-48.1016H1121.22V-47.6797H1119.32V-45.7812H1118.9V-47.6797H1117V-48.1016Z" fill="#FF7A71"/>
<path d="M1129.22 -48.1016H1131.11V-50H1131.54V-48.1016H1133.43V-47.6797H1131.54V-45.7812H1131.11V-47.6797H1129.22V-48.1016Z" fill="#FF7A71"/>
<path d="M1141.43 -48.1016H1143.33V-50H1143.75V-48.1016H1145.65V-47.6797H1143.75V-45.7812H1143.33V-47.6797H1141.43V-48.1016Z" fill="#FF7A71"/>
<path d="M1153.65 -48.1016H1155.55V-50H1155.97V-48.1016H1157.87V-47.6797H1155.97V-45.7813H1155.55V-47.6797H1153.65V-48.1016Z" fill="#FF7A71"/>
<path d="M1165.86 -48.1016H1167.76V-50H1168.18V-48.1016H1170.08V-47.6797H1168.18V-45.7813H1167.76V-47.6797H1165.86V-48.1016Z" fill="#FF7A71"/>
<path d="M1178.08 -48.1016H1179.98V-50H1180.4V-48.1016H1182.3V-47.6797H1180.4V-45.7813H1179.98V-47.6797H1178.08V-48.1016Z" fill="#FF7A71"/>
<path d="M1190.3 -48.1016H1192.19V-50H1192.62V-48.1016H1194.51V-47.6797H1192.62V-45.7813H1192.19V-47.6797H1190.3V-48.1016Z" fill="#FF7A71"/>
<path d="M1202.51 -48.1016H1204.41V-50H1204.83V-48.1016H1206.73V-47.6797H1204.83V-45.7813H1204.41V-47.6797H1202.51V-48.1016Z" fill="#FF7A71"/>
<path d="M1214.73 -48.1016H1216.63V-50H1217.05V-48.1016H1218.95V-47.6797H1217.05V-45.7813H1216.63V-47.6797H1214.73V-48.1016Z" fill="#FF7A71"/>
<path d="M1226.94 -48.1016H1228.84V-50H1229.26V-48.1016H1231.16V-47.6797H1229.26V-45.7813H1228.84V-47.6797H1226.94V-48.1016Z" fill="#FF7A71"/>
<path d="M1239.16 -48.1016H1241.06V-50H1241.48V-48.1016H1243.38V-47.6797H1241.48V-45.7813H1241.06V-47.6797H1239.16V-48.1016Z" fill="#FF7A71"/>
<path d="M1251.38 -48.1016H1253.27V-50H1253.7V-48.1016H1255.59V-47.6797H1253.7V-45.7813H1253.27V-47.6797H1251.38V-48.1016Z" fill="#FF7A71"/>
<path d="M1117 -31.1016H1118.9V-33H1119.32V-31.1016H1121.22V-30.6797H1119.32V-28.7812H1118.9V-30.6797H1117V-31.1016Z" fill="#FF7A71"/>
<path d="M1129.22 -31.1016H1131.11V-33H1131.54V-31.1016H1133.43V-30.6797H1131.54V-28.7812H1131.11V-30.6797H1129.22V-31.1016Z" fill="#FF7A71"/>
<path d="M1141.43 -31.1016H1143.33V-33H1143.75V-31.1016H1145.65V-30.6797H1143.75V-28.7813H1143.33V-30.6797H1141.43V-31.1016Z" fill="#FF7A71"/>
<path d="M1153.65 -31.1016H1155.55V-33H1155.97V-31.1016H1157.87V-30.6797H1155.97V-28.7813H1155.55V-30.6797H1153.65V-31.1016Z" fill="#FF7A71"/>
<path d="M1165.86 -31.1016H1167.76V-33H1168.18V-31.1016H1170.08V-30.6797H1168.18V-28.7813H1167.76V-30.6797H1165.86V-31.1016Z" fill="#FF7A71"/>
<path d="M1178.08 -31.1016H1179.98V-33H1180.4V-31.1016H1182.3V-30.6797H1180.4V-28.7813H1179.98V-30.6797H1178.08V-31.1016Z" fill="#FF7A71"/>
<path d="M1190.3 -31.1016H1192.19V-33H1192.62V-31.1016H1194.51V-30.6797H1192.62V-28.7813H1192.19V-30.6797H1190.3V-31.1016Z" fill="#FF7A71"/>
<path d="M1202.51 -31.1016H1204.41V-33H1204.83V-31.1016H1206.73V-30.6797H1204.83V-28.7813H1204.41V-30.6797H1202.51V-31.1016Z" fill="#FF7A71"/>
<path d="M1214.73 -31.1016H1216.63V-33H1217.05V-31.1016H1218.95V-30.6797H1217.05V-28.7813H1216.63V-30.6797H1214.73V-31.1016Z" fill="#FF7A71"/>
<path d="M1226.94 -31.1016L1228.84 -31.1016V-33H1229.26V-31.1016H1231.16V-30.6797H1229.26V-28.7813H1228.84V-30.6797L1226.94 -30.6797V-31.1016Z" fill="#FF7A71"/>
<path d="M1239.16 -31.1016H1241.06V-33H1241.48V-31.1016H1243.38V-30.6797H1241.48V-28.7813H1241.06V-30.6797H1239.16V-31.1016Z" fill="#FF7A71"/>
<path d="M1251.38 -31.1016H1253.27V-33H1253.7V-31.1016H1255.59V-30.6797H1253.7V-28.7813H1253.27V-30.6797H1251.38V-31.1016Z" fill="#FF7A71"/>
<path d="M1117 -14.1016H1118.9V-16H1119.32V-14.1016H1121.22V-13.6797H1119.32V-11.7812H1118.9V-13.6797H1117V-14.1016Z" fill="#FF7A71"/>
<path d="M1129.22 -14.1016H1131.11V-16H1131.54V-14.1016H1133.43V-13.6797H1131.54V-11.7812H1131.11V-13.6797H1129.22V-14.1016Z" fill="#FF7A71"/>
<path d="M1141.43 -14.1016H1143.33V-16H1143.75V-14.1016H1145.65V-13.6797H1143.75V-11.7813H1143.33V-13.6797H1141.43V-14.1016Z" fill="#FF7A71"/>
<path d="M1153.65 -14.1016H1155.55V-16H1155.97V-14.1016H1157.87V-13.6797H1155.97V-11.7813H1155.55V-13.6797H1153.65V-14.1016Z" fill="#FF7A71"/>
<path d="M1165.86 -14.1016H1167.76V-16H1168.18V-14.1016H1170.08V-13.6797H1168.18V-11.7813H1167.76V-13.6797H1165.86V-14.1016Z" fill="#FF7A71"/>
<path d="M1178.08 -14.1016H1179.98V-16H1180.4V-14.1016H1182.3V-13.6797H1180.4V-11.7813H1179.98V-13.6797H1178.08V-14.1016Z" fill="#FF7A71"/>
<path d="M1190.3 -14.1016H1192.19V-16H1192.62V-14.1016H1194.51V-13.6797H1192.62V-11.7813H1192.19V-13.6797H1190.3V-14.1016Z" fill="#FF7A71"/>
<path d="M1202.51 -14.1016H1204.41V-16H1204.83V-14.1016H1206.73V-13.6797H1204.83V-11.7813H1204.41V-13.6797H1202.51V-14.1016Z" fill="#FF7A71"/>
<path d="M1214.73 -14.1016H1216.63V-16H1217.05V-14.1016H1218.95V-13.6797H1217.05V-11.7813H1216.63V-13.6797H1214.73V-14.1016Z" fill="#FF7A71"/>
<path d="M1226.94 -14.1016L1228.84 -14.1016V-16H1229.26V-14.1016H1231.16V-13.6797H1229.26V-11.7813H1228.84V-13.6797L1226.94 -13.6797V-14.1016Z" fill="#FF7A71"/>
<path d="M1239.16 -14.1016H1241.06V-16H1241.48V-14.1016H1243.38V-13.6797H1241.48V-11.7813H1241.06V-13.6797H1239.16V-14.1016Z" fill="#FF7A71"/>
<path d="M1251.38 -14.1016H1253.27V-16H1253.7V-14.1016H1255.59V-13.6797H1253.7V-11.7813H1253.27V-13.6797H1251.38V-14.1016Z" fill="#FF7A71"/>
<path d="M1117 2.89844H1118.9V1H1119.32V2.89844H1121.22V3.32031H1119.32V5.21875H1118.9V3.32031H1117V2.89844Z" fill="#FF7A71"/>
<path d="M1129.22 2.89844H1131.11V1H1131.54V2.89844H1133.43V3.32031H1131.54V5.21875H1131.11V3.32031H1129.22V2.89844Z" fill="#FF7A71"/>
<path d="M1141.43 2.89844H1143.33V1H1143.75V2.89844H1145.65V3.32031H1143.75V5.21875H1143.33V3.32031H1141.43V2.89844Z" fill="#FF7A71"/>
<path d="M1153.65 2.89844H1155.55V1H1155.97V2.89844H1157.87V3.32031H1155.97V5.21875H1155.55V3.32031H1153.65V2.89844Z" fill="#FF7A71"/>
<path d="M1165.86 2.89844H1167.76V1H1168.18V2.89844H1170.08V3.32031H1168.18V5.21875H1167.76V3.32031H1165.86V2.89844Z" fill="#FF7A71"/>
<path d="M1178.08 2.89844H1179.98V1H1180.4V2.89844H1182.3V3.32031H1180.4V5.21875H1179.98V3.32031H1178.08V2.89844Z" fill="#FF7A71"/>
<path d="M1190.3 2.89844H1192.19V1H1192.62V2.89844H1194.51V3.32031H1192.62V5.21875H1192.19V3.32031H1190.3V2.89844Z" fill="#FF7A71"/>
<path d="M1202.51 2.89844H1204.41V1H1204.83V2.89844H1206.73V3.32031H1204.83V5.21875H1204.41V3.32031H1202.51V2.89844Z" fill="#FF7A71"/>
<path d="M1214.73 2.89844H1216.63V1H1217.05V2.89844H1218.95V3.32031H1217.05V5.21875H1216.63V3.32031H1214.73V2.89844Z" fill="#FF7A71"/>
<path d="M1226.94 2.89844H1228.84V1H1229.26V2.89844H1231.16V3.32031H1229.26V5.21875H1228.84V3.32031H1226.94V2.89844Z" fill="#FF7A71"/>
<path d="M1239.16 2.89844H1241.06V1H1241.48V2.89844H1243.38V3.32031H1241.48V5.21875H1241.06V3.32031H1239.16V2.89844Z" fill="#FF7A71"/>
<path d="M1251.38 2.89844H1253.27V1H1253.7V2.89844H1255.59V3.32031H1253.7V5.21875H1253.27V3.32031H1251.38V2.89844Z" fill="#FF7A71"/>
<path d="M1117 19.8984H1118.9V18H1119.32V19.8984H1121.22V20.3203H1119.32V22.2188H1118.9V20.3203H1117V19.8984Z" fill="#FF7A71"/>
<path d="M1129.22 19.8984H1131.11V18H1131.54V19.8984H1133.43V20.3203H1131.54V22.2188H1131.11V20.3203H1129.22V19.8984Z" fill="#FF7A71"/>
<path d="M1141.43 19.8984H1143.33V18H1143.75V19.8984H1145.65V20.3203H1143.75V22.2188H1143.33V20.3203H1141.43V19.8984Z" fill="#FF7A71"/>
<path d="M1153.65 19.8984H1155.55V18H1155.97V19.8984H1157.87V20.3203H1155.97V22.2188H1155.55V20.3203H1153.65V19.8984Z" fill="#FF7A71"/>
<path d="M1165.86 19.8984H1167.76V18H1168.18V19.8984H1170.08V20.3203H1168.18V22.2187H1167.76V20.3203H1165.86V19.8984Z" fill="#FF7A71"/>
<path d="M1178.08 19.8984H1179.98V18H1180.4V19.8984H1182.3V20.3203H1180.4V22.2187H1179.98V20.3203H1178.08V19.8984Z" fill="#FF7A71"/>
<path d="M1190.3 19.8984H1192.19V18H1192.62V19.8984H1194.51V20.3203H1192.62V22.2187H1192.19V20.3203H1190.3V19.8984Z" fill="#FF7A71"/>
<path d="M1202.51 19.8984H1204.41V18H1204.83V19.8984H1206.73V20.3203H1204.83V22.2187H1204.41V20.3203H1202.51V19.8984Z" fill="#FF7A71"/>
<path d="M1214.73 19.8984H1216.63V18H1217.05V19.8984H1218.95V20.3203H1217.05V22.2187H1216.63V20.3203H1214.73V19.8984Z" fill="#FF7A71"/>
<path d="M1226.94 19.8984H1228.84V18H1229.26V19.8984H1231.16V20.3203H1229.26V22.2187H1228.84V20.3203H1226.94V19.8984Z" fill="#FF7A71"/>
<path d="M1239.16 19.8984H1241.06V18H1241.48V19.8984H1243.38V20.3203H1241.48V22.2187H1241.06V20.3203H1239.16V19.8984Z" fill="#FF7A71"/>
<path d="M1251.38 19.8984H1253.27V18H1253.7V19.8984H1255.59V20.3203H1253.7V22.2187H1253.27V20.3203H1251.38V19.8984Z" fill="#FF7A71"/>
<path d="M1117 36.8984H1118.9V35H1119.32V36.8984H1121.22V37.3203H1119.32V39.2188H1118.9V37.3203H1117V36.8984Z" fill="#FF7A71"/>
<path d="M1129.22 36.8984H1131.11V35H1131.54V36.8984H1133.43V37.3203H1131.54V39.2188H1131.11V37.3203H1129.22V36.8984Z" fill="#FF7A71"/>
<path d="M1141.43 36.8984H1143.33V35H1143.75V36.8984H1145.65V37.3203H1143.75V39.2188H1143.33V37.3203H1141.43V36.8984Z" fill="#FF7A71"/>
<path d="M1153.65 36.8984H1155.55V35H1155.97V36.8984H1157.87V37.3203H1155.97V39.2188H1155.55V37.3203H1153.65V36.8984Z" fill="#FF7A71"/>
<path d="M1165.86 36.8984H1167.76V35H1168.18V36.8984H1170.08V37.3203H1168.18V39.2187H1167.76V37.3203H1165.86V36.8984Z" fill="#FF7A71"/>
<path d="M1178.08 36.8984H1179.98V35H1180.4V36.8984H1182.3V37.3203H1180.4V39.2187H1179.98V37.3203H1178.08V36.8984Z" fill="#FF7A71"/>
<path d="M1190.3 36.8984H1192.19V35H1192.62V36.8984H1194.51V37.3203H1192.62V39.2187H1192.19V37.3203H1190.3V36.8984Z" fill="#FF7A71"/>
<path d="M1202.51 36.8984H1204.41V35H1204.83V36.8984H1206.73V37.3203H1204.83V39.2187H1204.41V37.3203H1202.51V36.8984Z" fill="#FF7A71"/>
<path d="M1214.73 36.8984H1216.63V35H1217.05V36.8984H1218.95V37.3203H1217.05V39.2187H1216.63V37.3203H1214.73V36.8984Z" fill="#FF7A71"/>
<path d="M1226.94 36.8984H1228.84V35H1229.26V36.8984H1231.16V37.3203H1229.26V39.2187H1228.84V37.3203H1226.94V36.8984Z" fill="#FF7A71"/>
<path d="M1239.16 36.8984H1241.06V35H1241.48V36.8984H1243.38V37.3203H1241.48V39.2187H1241.06V37.3203H1239.16V36.8984Z" fill="#FF7A71"/>
<path d="M1251.38 36.8984H1253.27V35H1253.7V36.8984H1255.59V37.3203H1253.7V39.2187H1253.27V37.3203H1251.38V36.8984Z" fill="#FF7A71"/>
<path d="M-80 131.898H-78.1016V130H-77.6797V131.898H-75.7812V132.32H-77.6797V134.219H-78.1016V132.32H-80V131.898Z" fill="#FF7A71"/>
<path d="M-67.7841 131.898H-65.8856V130H-65.4637V131.898H-63.5653V132.32H-65.4637V134.219H-65.8856V132.32H-67.7841V131.898Z" fill="#FF7A71"/>
<path d="M-55.5681 131.898H-53.6697V130H-53.2478V131.898H-51.3494V132.32H-53.2478V134.219H-53.6697V132.32H-55.5681V131.898Z" fill="#FF7A71"/>
<path d="M-43.3522 131.898H-41.4538V130H-41.0319V131.898H-39.1334V132.32H-41.0319V134.219H-41.4538V132.32H-43.3522V131.898Z" fill="#FF7A71"/>
<path d="M-31.1362 131.898H-29.2378V130H-28.8159V131.898H-26.9175V132.32H-28.8159V134.219H-29.2378V132.32H-31.1362V131.898Z" fill="#FF7A71"/>
<path d="M-18.9203 131.898H-17.0219V130H-16.6V131.898H-14.7016V132.32H-16.6V134.219H-17.0219V132.32H-18.9203V131.898Z" fill="#FF7A71"/>
<path d="M-6.70438 131.898H-4.80594V130H-4.38406V131.898H-2.48563V132.32H-4.38406V134.219H-4.80594V132.32H-6.70438V131.898Z" fill="#FF7A71"/>
<path d="M5.51157 131.898H7.41V130H7.83188V131.898L9.73032 131.898V132.32H7.83188V134.219H7.41V132.32H5.51157V131.898Z" fill="#FF7A71"/>
<path d="M17.7275 131.898H19.6259V130H20.0478V131.898H21.9463V132.32H20.0478V134.219H19.6259V132.32H17.7275V131.898Z" fill="#FF7A71"/>
<path d="M29.9434 131.898H31.8419V130H32.2637V131.898H34.1622V132.32H32.2637V134.219H31.8419V132.32H29.9434V131.898Z" fill="#FF7A71"/>
<path d="M42.1594 131.898H44.0578V130H44.4797V131.898H46.3781V132.32H44.4797V134.219H44.0578V132.32H42.1594V131.898Z" fill="#FF7A71"/>
<path d="M54.3753 131.898H56.2737V130H56.6956V131.898H58.5941V132.32H56.6956V134.219H56.2737V132.32H54.3753V131.898Z" fill="#FF7A71"/>
<path d="M-80 148.898H-78.1016V147H-77.6797V148.898H-75.7812V149.32H-77.6797V151.219H-78.1016V149.32H-80V148.898Z" fill="#FF7A71"/>
<path d="M-67.7841 148.898H-65.8856V147H-65.4637V148.898H-63.5653V149.32H-65.4637V151.219H-65.8856V149.32H-67.7841V148.898Z" fill="#FF7A71"/>
<path d="M-55.5681 148.898H-53.6697V147H-53.2478V148.898H-51.3494V149.32H-53.2478V151.219H-53.6697V149.32H-55.5681V148.898Z" fill="#FF7A71"/>
<path d="M-43.3522 148.898H-41.4538V147H-41.0319V148.898H-39.1334V149.32H-41.0319V151.219H-41.4538V149.32H-43.3522V148.898Z" fill="#FF7A71"/>
<path d="M-31.1362 148.898H-29.2378V147H-28.8159V148.898H-26.9175V149.32H-28.8159V151.219H-29.2378V149.32H-31.1362V148.898Z" fill="#FF7A71"/>
<path d="M-18.9203 148.898H-17.0219V147H-16.6V148.898H-14.7016V149.32H-16.6V151.219H-17.0219V149.32H-18.9203V148.898Z" fill="#FF7A71"/>
<path d="M-6.70438 148.898H-4.80594V147H-4.38406V148.898H-2.48563V149.32H-4.38406V151.219H-4.80594V149.32H-6.70438V148.898Z" fill="#FF7A71"/>
<path d="M5.51157 148.898H7.41V147H7.83188V148.898H9.73032V149.32H7.83188V151.219H7.41V149.32H5.51157V148.898Z" fill="#FF7A71"/>
<path d="M17.7275 148.898L19.6259 148.898V147H20.0478V148.898H21.9463V149.32H20.0478V151.219H19.6259V149.32L17.7275 149.32V148.898Z" fill="#FF7A71"/>
<path d="M29.9434 148.898H31.8419V147H32.2637V148.898H34.1622V149.32H32.2637V151.219H31.8419V149.32H29.9434V148.898Z" fill="#FF7A71"/>
<path d="M42.1594 148.898H44.0578V147H44.4797V148.898H46.3781V149.32H44.4797V151.219H44.0578V149.32H42.1594V148.898Z" fill="#FF7A71"/>
<path d="M54.3753 148.898H56.2737V147H56.6956V148.898H58.5941V149.32H56.6956V151.219H56.2737V149.32H54.3753V148.898Z" fill="#FF7A71"/>
<path d="M-80 165.898H-78.1016V164H-77.6797V165.898H-75.7812V166.32H-77.6797V168.219H-78.1016V166.32H-80V165.898Z" fill="#FF7A71"/>
<path d="M-67.7841 165.898H-65.8856V164H-65.4637V165.898H-63.5653V166.32H-65.4637V168.219H-65.8856V166.32H-67.7841V165.898Z" fill="#FF7A71"/>
<path d="M-55.5681 165.898H-53.6697V164H-53.2478V165.898H-51.3494V166.32H-53.2478V168.219H-53.6697V166.32H-55.5681V165.898Z" fill="#FF7A71"/>
<path d="M-43.3522 165.898H-41.4538V164H-41.0319V165.898H-39.1334V166.32H-41.0319V168.219H-41.4538V166.32H-43.3522V165.898Z" fill="#FF7A71"/>
<path d="M-31.1362 165.898H-29.2378V164H-28.8159V165.898H-26.9175V166.32H-28.8159V168.219H-29.2378V166.32H-31.1362V165.898Z" fill="#FF7A71"/>
<path d="M-18.9203 165.898H-17.0219V164H-16.6V165.898H-14.7016V166.32H-16.6V168.219H-17.0219V166.32H-18.9203V165.898Z" fill="#FF7A71"/>
<path d="M-6.70438 165.898H-4.80594V164H-4.38406V165.898H-2.48563V166.32H-4.38406V168.219H-4.80594V166.32H-6.70438V165.898Z" fill="#FF7A71"/>
<path d="M5.51157 165.898H7.41V164H7.83188V165.898H9.73032V166.32H7.83188V168.219H7.41V166.32H5.51157V165.898Z" fill="#FF7A71"/>
<path d="M17.7275 165.898H19.6259V164H20.0478V165.898H21.9463V166.32H20.0478V168.219H19.6259V166.32H17.7275V165.898Z" fill="#FF7A71"/>
<path d="M29.9434 165.898L31.8419 165.898V164H32.2637V165.898H34.1622V166.32H32.2637V168.219H31.8419V166.32L29.9434 166.32V165.898Z" fill="#FF7A71"/>
<path d="M42.1594 165.898H44.0578V164H44.4797V165.898H46.3781V166.32H44.4797V168.219H44.0578V166.32H42.1594V165.898Z" fill="#FF7A71"/>
<path d="M54.3753 165.898H56.2737V164H56.6956V165.898H58.5941V166.32H56.6956V168.219H56.2737V166.32H54.3753V165.898Z" fill="#FF7A71"/>
<path d="M-80 182.898H-78.1016V181H-77.6797V182.898H-75.7812V183.32H-77.6797V185.219H-78.1016V183.32H-80V182.898Z" fill="#FF7A71"/>
<path d="M-67.7841 182.898H-65.8856V181H-65.4637V182.898H-63.5653V183.32H-65.4637V185.219H-65.8856V183.32H-67.7841V182.898Z" fill="#FF7A71"/>
<path d="M-55.5681 182.898H-53.6697V181H-53.2478V182.898H-51.3494V183.32H-53.2478V185.219H-53.6697V183.32H-55.5681V182.898Z" fill="#FF7A71"/>
<path d="M-43.3522 182.898H-41.4538V181H-41.0319V182.898H-39.1334V183.32H-41.0319V185.219H-41.4538V183.32H-43.3522V182.898Z" fill="#FF7A71"/>
<path d="M-31.1362 182.898H-29.2378V181H-28.8159V182.898H-26.9175V183.32H-28.8159V185.219H-29.2378V183.32H-31.1362V182.898Z" fill="#FF7A71"/>
<path d="M-18.9203 182.898H-17.0219V181H-16.6V182.898H-14.7016V183.32H-16.6V185.219H-17.0219V183.32H-18.9203V182.898Z" fill="#FF7A71"/>
<path d="M-6.70438 182.898H-4.80594V181H-4.38406V182.898H-2.48563V183.32H-4.38406V185.219H-4.80594V183.32H-6.70438V182.898Z" fill="#FF7A71"/>
<path d="M5.51157 182.898H7.41V181H7.83188V182.898H9.73032V183.32H7.83188V185.219H7.41V183.32H5.51157V182.898Z" fill="#FF7A71"/>
<path d="M17.7275 182.898H19.6259V181H20.0478V182.898H21.9463V183.32H20.0478V185.219H19.6259V183.32H17.7275V182.898Z" fill="#FF7A71"/>
<path d="M29.9434 182.898L31.8419 182.898V181H32.2637V182.898H34.1622V183.32H32.2637V185.219H31.8419V183.32L29.9434 183.32V182.898Z" fill="#FF7A71"/>
<path d="M42.1594 182.898H44.0578V181H44.4797V182.898H46.3781V183.32H44.4797V185.219H44.0578V183.32H42.1594V182.898Z" fill="#FF7A71"/>
<path d="M54.3753 182.898H56.2737V181H56.6956V182.898H58.5941V183.32H56.6956V185.219H56.2737V183.32H54.3753V182.898Z" fill="#FF7A71"/>
<path d="M-80 199.898H-78.1016V198H-77.6797V199.898H-75.7812V200.32H-77.6797V202.219H-78.1016V200.32H-80V199.898Z" fill="#FF7A71"/>
<path d="M-67.7841 199.898H-65.8856V198H-65.4637V199.898H-63.5653V200.32H-65.4637V202.219H-65.8856V200.32H-67.7841V199.898Z" fill="#FF7A71"/>
<path d="M-55.5681 199.898H-53.6697V198H-53.2478V199.898H-51.3494V200.32H-53.2478V202.219H-53.6697V200.32H-55.5681V199.898Z" fill="#FF7A71"/>
<path d="M-43.3522 199.898H-41.4538V198H-41.0319V199.898H-39.1334V200.32H-41.0319V202.219H-41.4538V200.32H-43.3522V199.898Z" fill="#FF7A71"/>
<path d="M-31.1362 199.898H-29.2378V198H-28.8159V199.898H-26.9175V200.32H-28.8159V202.219H-29.2378V200.32H-31.1362V199.898Z" fill="#FF7A71"/>
<path d="M-18.9203 199.898H-17.0219V198H-16.6V199.898H-14.7016V200.32H-16.6V202.219H-17.0219V200.32H-18.9203V199.898Z" fill="#FF7A71"/>
<path d="M-6.70438 199.898H-4.80594V198H-4.38406V199.898H-2.48563V200.32H-4.38406V202.219H-4.80594V200.32H-6.70438V199.898Z" fill="#FF7A71"/>
<path d="M5.51157 199.898H7.41V198H7.83188V199.898H9.73032V200.32H7.83188V202.219H7.41V200.32H5.51157V199.898Z" fill="#FF7A71"/>
<path d="M17.7275 199.898H19.6259V198H20.0478V199.898H21.9463V200.32H20.0478V202.219H19.6259V200.32H17.7275V199.898Z" fill="#FF7A71"/>
<path d="M29.9434 199.898H31.8419V198H32.2637V199.898H34.1622V200.32H32.2637V202.219H31.8419V200.32H29.9434V199.898Z" fill="#FF7A71"/>
<path d="M42.1594 199.898H44.0578V198H44.4797V199.898H46.3781V200.32H44.4797V202.219H44.0578V200.32H42.1594V199.898Z" fill="#FF7A71"/>
<path d="M54.3753 199.898H56.2737V198H56.6956V199.898H58.5941V200.32H56.6956V202.219H56.2737V200.32H54.3753V199.898Z" fill="#FF7A71"/>
<path d="M-80 216.898H-78.1016V215H-77.6797V216.898H-75.7812V217.32H-77.6797V219.219H-78.1016V217.32H-80V216.898Z" fill="#FF7A71"/>
<path d="M-67.7841 216.898H-65.8856V215H-65.4637V216.898H-63.5653V217.32H-65.4637V219.219H-65.8856V217.32H-67.7841V216.898Z" fill="#FF7A71"/>
<path d="M-55.5681 216.898H-53.6697V215H-53.2478V216.898H-51.3494V217.32H-53.2478V219.219H-53.6697V217.32H-55.5681V216.898Z" fill="#FF7A71"/>
<path d="M-43.3522 216.898H-41.4538V215H-41.0319V216.898H-39.1334V217.32H-41.0319V219.219H-41.4538V217.32H-43.3522V216.898Z" fill="#FF7A71"/>
<path d="M-31.1362 216.898H-29.2378V215H-28.8159V216.898H-26.9175V217.32H-28.8159V219.219H-29.2378V217.32H-31.1362V216.898Z" fill="#FF7A71"/>
<path d="M-18.9203 216.898H-17.0219V215H-16.6V216.898H-14.7016V217.32H-16.6V219.219H-17.0219V217.32H-18.9203V216.898Z" fill="#FF7A71"/>
<path d="M-6.70438 216.898H-4.80594V215H-4.38406V216.898H-2.48563V217.32H-4.38406V219.219H-4.80594V217.32H-6.70438V216.898Z" fill="#FF7A71"/>
<path d="M5.51157 216.898H7.41V215H7.83188V216.898H9.73032V217.32H7.83188V219.219H7.41V217.32H5.51157V216.898Z" fill="#FF7A71"/>
<path d="M17.7275 216.898H19.6259V215H20.0478V216.898H21.9463V217.32H20.0478V219.219H19.6259V217.32H17.7275V216.898Z" fill="#FF7A71"/>
<path d="M29.9434 216.898H31.8419V215H32.2637V216.898H34.1622V217.32H32.2637V219.219H31.8419V217.32H29.9434V216.898Z" fill="#FF7A71"/>
<path d="M42.1594 216.898H44.0578V215H44.4797V216.898H46.3781V217.32H44.4797V219.219H44.0578V217.32H42.1594V216.898Z" fill="#FF7A71"/>
<path d="M54.3753 216.898H56.2737V215H56.6956V216.898H58.5941V217.32H56.6956L56.6956 219.219H56.2737L56.2737 217.32H54.3753V216.898Z" fill="#FF7A71"/>
<path d="M-80 233.898H-78.1016V232H-77.6797V233.898H-75.7812V234.32H-77.6797V236.219H-78.1016V234.32H-80V233.898Z" fill="#FF7A71"/>
<path d="M-67.7841 233.898H-65.8856V232H-65.4637V233.898H-63.5653V234.32H-65.4637V236.219H-65.8856V234.32H-67.7841V233.898Z" fill="#FF7A71"/>
<path d="M-55.5681 233.898H-53.6697V232H-53.2478V233.898H-51.3494V234.32H-53.2478V236.219H-53.6697V234.32H-55.5681V233.898Z" fill="#FF7A71"/>
<path d="M-43.3522 233.898H-41.4538V232H-41.0319V233.898H-39.1334V234.32H-41.0319V236.219H-41.4538V234.32H-43.3522V233.898Z" fill="#FF7A71"/>
<path d="M-31.1362 233.898H-29.2378V232H-28.8159V233.898H-26.9175V234.32H-28.8159V236.219H-29.2378V234.32H-31.1362V233.898Z" fill="#FF7A71"/>
<path d="M-18.9203 233.898H-17.0219V232H-16.6V233.898H-14.7016V234.32H-16.6V236.219H-17.0219V234.32H-18.9203V233.898Z" fill="#FF7A71"/>
<path d="M-6.70438 233.898H-4.80594V232H-4.38406V233.898H-2.48563V234.32H-4.38406V236.219H-4.80594V234.32H-6.70438V233.898Z" fill="#FF7A71"/>
<path d="M5.51157 233.898H7.41V232H7.83188V233.898H9.73032V234.32H7.83188V236.219H7.41V234.32H5.51157V233.898Z" fill="#FF7A71"/>
<path d="M17.7275 233.898H19.6259V232H20.0478V233.898H21.9463V234.32H20.0478V236.219H19.6259V234.32H17.7275V233.898Z" fill="#FF7A71"/>
<path d="M29.9434 233.898H31.8419V232H32.2637V233.898H34.1622V234.32H32.2637V236.219H31.8419V234.32H29.9434V233.898Z" fill="#FF7A71"/>
<path d="M42.1594 233.898H44.0578V232H44.4797V233.898H46.3781V234.32H44.4797V236.219H44.0578V234.32H42.1594V233.898Z" fill="#FF7A71"/>
<path d="M54.3753 233.898H56.2737V232H56.6956V233.898H58.5941V234.32H56.6956V236.219H56.2737V234.32H54.3753V233.898Z" fill="#FF7A71"/>
</g>
<path d="M1194 192H0V194H1194V192Z" fill="url(#paint1_linear_3143_78714)" mask="url(#path-1-inside-1_3143_78714)"/>
<defs>
<linearGradient id="paint0_linear_3143_78714" x1="0" y1="0" x2="1194" y2="193" gradientUnits="userSpaceOnUse">
<stop stop-color="#EDDFF7" stop-opacity="0.6"/>
<stop offset="0.416426" stop-color="#F3DDEB" stop-opacity="0.3"/>
<stop offset="1" stop-color="#FCDADA" stop-opacity="0"/>
</linearGradient>
<linearGradient id="paint1_linear_3143_78714" x1="0" y1="96.5" x2="1194" y2="96.5" gradientUnits="userSpaceOnUse">
<stop stop-color="#EDDFF7"/>
<stop offset="0.532854" stop-color="#F5DCE8" stop-opacity="0.127"/>
<stop offset="1" stop-color="#FCDADA" stop-opacity="0.3"/>
</linearGradient>
<clipPath id="clip0_3143_78714">
<path d="M0 0H1194V193H0V0Z" fill="white"/>
</clipPath>
</defs>
</svg>
