<svg width="340" height="24" viewBox="0 0 340 24" fill="none" xmlns="http://www.w3.org/2000/svg">
<path fill-rule="evenodd" clip-rule="evenodd" d="M340 0H0V24H5.29961C6.34489 19.9732 10.0043 17 14.3581 17C18.7119 17 22.3712 19.9732 23.4165 24H27.5342C28.5795 19.9732 32.2388 17 36.5926 17C40.9464 17 44.6058 19.9732 45.6511 24H49.7687C50.814 19.9732 54.4734 17 58.8272 17C63.181 17 66.8403 19.9732 67.8856 24H72.0033C73.0486 19.9732 76.7079 17 81.0617 17C85.4155 17 89.0749 19.9732 90.1202 24H94.2379C95.2831 19.9732 98.9425 17 103.296 17C107.65 17 111.309 19.9732 112.355 24H116.472C117.518 19.9732 121.177 17 125.531 17C129.885 17 133.544 19.9732 134.589 24H138.707C139.752 19.9732 143.412 17 147.765 17C152.119 17 155.779 19.9732 156.824 24H160.942C161.987 19.9732 165.646 17 170 17C174.354 17 178.013 19.9732 179.058 24H183.176C184.221 19.9732 187.881 17 192.235 17C196.588 17 200.248 19.9732 201.293 24H205.411C206.456 19.9732 210.115 17 214.469 17C218.823 17 222.482 19.9732 223.528 24H227.645C228.69 19.9732 232.35 17 236.704 17C241.057 17 244.717 19.9732 245.762 24H249.88C250.925 19.9732 254.584 17 258.938 17C263.292 17 266.951 19.9732 267.997 24H272.114C273.16 19.9732 276.819 17 281.173 17C285.527 17 289.186 19.9732 290.231 24H294.349C295.394 19.9732 299.054 17 303.407 17C307.761 17 311.421 19.9732 312.466 24H316.583C317.629 19.9732 321.288 17 325.642 17C329.996 17 333.655 19.9732 334.7 24H340V0Z" fill="white"/>
</svg>
