<svg width="24" height="24" viewBox="0 0 24 24" fill="none" xmlns="http://www.w3.org/2000/svg">
<g clip-path="url(#clip0_3663_1679)">
<path d="M22 11V20H20V17H4V20H2V4H4V14H12V7H18C19.0609 7 20.0783 7.42143 20.8284 8.17157C21.5786 8.92172 22 9.93913 22 11ZM20 14V11C20 10.4696 19.7893 9.96086 19.4142 9.58579C19.0391 9.21071 18.5304 9 18 9H14V14H20ZM8 11C8.19778 11 8.39112 10.9414 8.55557 10.8315C8.72002 10.7216 8.84819 10.5654 8.92388 10.3827C8.99957 10.2 9.01937 9.99889 8.98079 9.80491C8.9422 9.61093 8.84696 9.43275 8.70711 9.29289C8.56725 9.15304 8.38907 9.0578 8.19509 9.01921C8.00111 8.98063 7.80004 9.00043 7.61732 9.07612C7.43459 9.15181 7.27841 9.27998 7.16853 9.44443C7.05865 9.60888 7 9.80222 7 10C7 10.2652 7.10536 10.5196 7.29289 10.7071C7.48043 10.8946 7.73478 11 8 11ZM8 13C7.40666 13 6.82664 12.8241 6.33329 12.4944C5.83994 12.1648 5.45542 11.6962 5.22836 11.1481C5.0013 10.5999 4.94189 9.99667 5.05764 9.41473C5.1734 8.83279 5.45912 8.29824 5.87868 7.87868C6.29824 7.45912 6.83279 7.1734 7.41473 7.05764C7.99667 6.94189 8.59987 7.0013 9.14805 7.22836C9.69623 7.45542 10.1648 7.83994 10.4944 8.33329C10.8241 8.82664 11 9.40666 11 10C11 10.7956 10.6839 11.5587 10.1213 12.1213C9.55871 12.6839 8.79565 13 8 13Z" fill="#454551"/>
</g>
<defs>
<clipPath id="clip0_3663_1679">
<rect width="24" height="24" fill="white"/>
</clipPath>
</defs>
</svg>
