<svg width="24" height="24" viewBox="0 0 24 24" fill="none" xmlns="http://www.w3.org/2000/svg">
<g clip-path="url(#clip0_3667_1572)">
<path d="M20.1821 13.22V19.364H21.0911V21.182H2.90907V19.364H3.81807V13.22C2.94681 12.6378 2.33217 11.7435 2.1009 10.7214C1.86962 9.6994 2.03935 8.62758 2.57507 7.727L5.04107 3.455C5.12077 3.31675 5.23546 3.20192 5.37361 3.12205C5.51176 3.04218 5.6685 3.00009 5.82807 3H18.1731C18.3326 3.00009 18.4894 3.04218 18.6275 3.12205C18.7657 3.20192 18.8804 3.31675 18.9601 3.455L21.4151 7.711C21.9566 8.61184 22.1306 9.68655 21.9011 10.7123C21.6715 11.738 21.0559 12.6359 20.1821 13.22ZM18.3641 13.884C17.7391 13.9539 17.1064 13.8787 16.5152 13.6643C15.9239 13.45 15.3901 13.1022 14.9551 12.648C14.5732 13.0467 14.1146 13.364 13.6068 13.5808C13.099 13.7976 12.5527 13.9093 12.0006 13.9093C11.4485 13.9093 10.9021 13.7976 10.3943 13.5808C9.88658 13.364 9.42795 13.0467 9.04607 12.648C8.61117 13.1024 8.07737 13.4503 7.48613 13.6649C6.89489 13.8794 6.26215 13.9547 5.63707 13.885V19.364H18.3641V13.885V13.884ZM6.35407 4.818L4.14207 8.648C3.93099 9.17814 3.92703 9.76829 4.13098 10.3012C4.33493 10.8342 4.73186 11.2709 5.24295 11.5247C5.75403 11.7784 6.34187 11.8307 6.88971 11.6711C7.43755 11.5114 7.9053 11.1516 8.20007 10.663C8.2677 10.4946 8.38418 10.3503 8.5345 10.2487C8.68483 10.1471 8.86213 10.0928 9.04357 10.0928C9.22502 10.0928 9.40232 10.1471 9.55265 10.2487C9.70297 10.3503 9.81944 10.4946 9.88707 10.663C10.0556 11.0851 10.3468 11.4471 10.7231 11.702C11.0994 11.957 11.5435 12.0933 11.9981 12.0933C12.4526 12.0933 12.8967 11.957 13.273 11.702C13.6493 11.4471 13.9405 11.0851 14.1091 10.663C14.1767 10.4946 14.2932 10.3503 14.4435 10.2487C14.5938 10.1471 14.7711 10.0928 14.9526 10.0928C15.134 10.0928 15.3113 10.1471 15.4616 10.2487C15.612 10.3503 15.7284 10.4946 15.7961 10.663C15.9142 10.9531 16.091 11.2157 16.3154 11.4343C16.5397 11.6528 16.8069 11.8226 17.1 11.9331C17.3931 12.0435 17.7059 12.0922 18.0188 12.076C18.3316 12.0598 18.6377 11.9791 18.9178 11.839C19.198 11.699 19.4462 11.5025 19.6468 11.2619C19.8475 11.0214 19.9962 10.742 20.0838 10.4412C20.1713 10.1404 20.1957 9.82483 20.1555 9.51418C20.1153 9.20354 20.0113 8.90455 19.8501 8.636L17.6501 4.818H6.35407Z" fill="#4B4AD5"/>
</g>
<defs>
<clipPath id="clip0_3667_1572">
<rect width="24" height="24" fill="white"/>
</clipPath>
</defs>
</svg>
