<svg width="44" height="60" viewBox="0 0 44 60" fill="none" xmlns="http://www.w3.org/2000/svg">
<g id="Group">
<path id="Vector" d="M18.7022 6.87779C21.4681 8.67881 22.658 7.68185 22.3686 3.85468C22.1113 0.57425 19.5384 -1.32332 18.6379 1.0566C17.8017 3.21139 17.866 6.33105 18.7022 6.87779Z" fill="url(#paint0_linear_612_80350)"/>
<path id="Vector_2" d="M11.2084 9.67612C12.5591 10.4158 16.8687 10.5123 17.7692 9.86911C19.731 8.45403 13.4918 6.58865 10.6295 7.74645C9.6003 8.13238 9.85759 8.93641 11.2084 9.67612Z" fill="url(#paint1_linear_612_80350)"/>
<path id="Vector_3" d="M17.8014 11.5733C15.8717 14.6929 19.2808 20.1924 21.4999 17.5231C22.1431 16.7512 21.789 12.9884 20.985 12.1844C20.181 11.4125 18.1552 10.9944 17.8014 11.5733Z" fill="url(#paint2_linear_612_80350)"/>
<path id="Vector_4" d="M27.5781 10.255C31.1801 9.77255 31.5017 9.6761 31.5017 9.00072C31.5017 7.55347 27.6424 6.94235 24.3298 7.8107C20.181 8.9685 22.7861 10.8982 27.5781 10.255Z" fill="url(#paint3_linear_612_80350)"/>
<path id="Vector_5" d="M19.7314 47.7869C18.0911 47.015 12.4951 47.0472 12.4951 47.8512C12.4951 48.9125 14.3605 49.6522 17.3836 49.813C21.2108 49.9738 22.3364 49.009 19.7314 47.7869Z" fill="url(#paint4_linear_612_80350)"/>
<path id="Vector_6" d="M39.6069 13.1491C35.3616 14.918 30.5053 19.0667 24.3303 21.9612C19.4419 24.2447 16.5474 24.1482 13.2348 22.315C9.31112 20.1924 7.2528 20.6105 9.15031 23.1512C11.9805 26.9462 11.4659 31.6739 7.8317 35.0186C4.71192 37.881 8.15299 39.6498 12.945 37.6558C16.1289 36.3372 16.483 36.3694 20.4067 38.4277C25.1665 40.9363 26.1635 40.8076 26.3243 37.7845C26.453 34.7613 27.3856 31.6739 28.7686 29.6799C30.9234 26.4959 38.7707 18.2949 41.3757 16.4938C44.9134 14.0496 44.8169 10.9943 39.6069 13.1491ZM23.7836 27.3965C22.4328 29.4226 21.7575 31.3523 21.5966 33.5071C21.3394 37.1734 21.468 35.1151 16.1293 34.0216C14.3282 33.6679 14.1353 33.5392 14.2961 32.9603C15.2288 29.7121 15.2288 28.3934 14.2639 25.8527C14.1353 25.5311 14.6499 25.5954 16.1293 26.0778C17.2549 26.4316 18.9594 26.7532 19.9243 26.7854C21.9504 26.8497 23.4298 26.5281 24.4911 26.3351L23.7836 27.3965Z" fill="url(#paint5_linear_612_80350)"/>
<path id="Vector_7" d="M12.4619 46.8541C13.2338 44.7637 13.2019 43.1235 12.3658 42.2873C11.3688 41.2903 9.47126 41.1616 8.98885 42.03C8.60291 42.7375 8.82804 43.6059 8.89237 45.2461C8.98885 47.3044 11.8187 48.5908 12.4619 46.8541Z" fill="url(#paint6_linear_612_80350)"/>
<path id="Vector_8" d="M9.15022 51.7426C8.507 52.7717 8.82829 57.9496 9.56799 58.5607C11.9479 60.4904 13.2668 58.7537 12.5271 54.6371C12.0447 51.9998 10.0507 50.2953 9.15022 51.7426Z" fill="url(#paint7_linear_612_80350)"/>
<path id="Vector_9" d="M0.691696 47.1436C-0.208814 47.3366 -0.241009 47.9477 0.659501 48.7195C1.62433 49.5879 7.60642 49.8452 7.89587 49.009C8.47477 47.5296 4.16509 46.4039 0.691696 47.1436Z" fill="url(#paint8_linear_612_80350)"/>
</g>
<defs>
<linearGradient id="paint0_linear_612_80350" x1="20.2265" y1="-0.00976563" x2="20.2265" y2="7.74619" gradientUnits="userSpaceOnUse">
<stop stop-color="#6836D4"/>
<stop offset="1" stop-color="#A41CF0"/>
</linearGradient>
<linearGradient id="paint1_linear_612_80350" x1="14.0715" y1="7.38428" x2="14.0715" y2="10.2969" gradientUnits="userSpaceOnUse">
<stop stop-color="#6836D4"/>
<stop offset="1" stop-color="#A41CF0"/>
</linearGradient>
<linearGradient id="paint2_linear_612_80350" x1="19.5319" y1="11.3027" x2="19.5319" y2="18.2326" gradientUnits="userSpaceOnUse">
<stop stop-color="#6836D4"/>
<stop offset="1" stop-color="#A41CF0"/>
</linearGradient>
<linearGradient id="paint3_linear_612_80350" x1="26.8808" y1="7.4104" x2="26.8808" y2="10.3831" gradientUnits="userSpaceOnUse">
<stop stop-color="#6836D4"/>
<stop offset="1" stop-color="#A41CF0"/>
</linearGradient>
<linearGradient id="paint4_linear_612_80350" x1="16.819" y1="47.2275" x2="16.819" y2="49.8306" gradientUnits="userSpaceOnUse">
<stop stop-color="#6836D4"/>
<stop offset="1" stop-color="#A41CF0"/>
</linearGradient>
<linearGradient id="paint5_linear_612_80350" x1="25.223" y1="12.4175" x2="25.223" y2="40.1906" gradientUnits="userSpaceOnUse">
<stop stop-color="#6836D4"/>
<stop offset="1" stop-color="#A41CF0"/>
</linearGradient>
<linearGradient id="paint6_linear_612_80350" x1="10.8932" y1="41.4517" x2="10.8932" y2="47.6668" gradientUnits="userSpaceOnUse">
<stop stop-color="#6836D4"/>
<stop offset="1" stop-color="#A41CF0"/>
</linearGradient>
<linearGradient id="paint7_linear_612_80350" x1="10.7687" y1="51.2134" x2="10.7687" y2="59.3477" gradientUnits="userSpaceOnUse">
<stop stop-color="#6836D4"/>
<stop offset="1" stop-color="#A41CF0"/>
</linearGradient>
<linearGradient id="paint8_linear_612_80350" x1="3.97427" y1="46.9102" x2="3.97427" y2="49.5197" gradientUnits="userSpaceOnUse">
<stop stop-color="#6836D4"/>
<stop offset="1" stop-color="#A41CF0"/>
</linearGradient>
</defs>
</svg>
