<svg width="180" height="15" viewBox="0 0 180 15" fill="none" xmlns="http://www.w3.org/2000/svg">
<rect width="179" height="14" transform="translate(0.192383 0.382812)" fill="#F9F9FD"/>
<path d="M10.7758 6.14002L13.0578 7.39002L10.7758 8.64002L9.52577 10.9221L8.27577 8.64002L5.9873 7.39002L8.27577 6.14002L9.52577 3.85156L10.7758 6.14002Z" fill="#4B4AD5"/>
<path d="M13.9359 3.67198L15.0962 4.30659L13.9359 4.94121L13.3013 6.10787L12.6667 4.94121L11.5 4.30659L12.6667 3.67198L13.3013 2.51172L13.9359 3.67198Z" fill="#4B4AD5"/>
<path d="M13.9359 9.82682L15.0962 10.4614L13.9359 11.0961L13.3013 12.2563L12.6667 11.0961L11.5 10.4614L12.6667 9.82682L13.3013 8.66016L13.9359 9.82682Z" fill="#4B4AD5"/>
<path d="M26.7295 9.22656C26.7295 9.02734 26.6982 8.85156 26.6357 8.69922C26.5771 8.54297 26.4717 8.40234 26.3193 8.27734C26.1709 8.15234 25.9639 8.0332 25.6982 7.91992C25.4365 7.80664 25.1045 7.69141 24.7021 7.57422C24.2803 7.44922 23.8994 7.31055 23.5596 7.1582C23.2197 7.00195 22.9287 6.82422 22.6865 6.625C22.4443 6.42578 22.2588 6.19727 22.1299 5.93945C22.001 5.68164 21.9365 5.38672 21.9365 5.05469C21.9365 4.72266 22.0049 4.41602 22.1416 4.13477C22.2783 3.85352 22.4736 3.60937 22.7275 3.40234C22.9854 3.19141 23.292 3.02734 23.6475 2.91016C24.0029 2.79297 24.3994 2.73438 24.8369 2.73438C25.4775 2.73438 26.0205 2.85742 26.4658 3.10352C26.915 3.3457 27.2568 3.66406 27.4912 4.05859C27.7256 4.44922 27.8428 4.86719 27.8428 5.3125H26.7178C26.7178 4.99219 26.6494 4.70898 26.5127 4.46289C26.376 4.21289 26.1689 4.01758 25.8916 3.87695C25.6143 3.73242 25.2627 3.66016 24.8369 3.66016C24.4346 3.66016 24.1025 3.7207 23.8408 3.8418C23.5791 3.96289 23.3838 4.12695 23.2549 4.33398C23.1299 4.54102 23.0674 4.77734 23.0674 5.04297C23.0674 5.22266 23.1045 5.38672 23.1787 5.53516C23.2568 5.67969 23.376 5.81445 23.5361 5.93945C23.7002 6.06445 23.9072 6.17969 24.1572 6.28516C24.4111 6.39062 24.7139 6.49219 25.0654 6.58984C25.5498 6.72656 25.9678 6.87891 26.3193 7.04688C26.6709 7.21484 26.96 7.4043 27.1865 7.61523C27.417 7.82227 27.5869 8.05859 27.6963 8.32422C27.8096 8.58594 27.8662 8.88281 27.8662 9.21484C27.8662 9.5625 27.7959 9.87695 27.6553 10.1582C27.5146 10.4395 27.3135 10.6797 27.0518 10.8789C26.79 11.0781 26.4756 11.2324 26.1084 11.3418C25.7451 11.4473 25.3389 11.5 24.8896 11.5C24.4951 11.5 24.1064 11.4453 23.7236 11.3359C23.3447 11.2266 22.999 11.0625 22.6865 10.8438C22.3779 10.625 22.1299 10.3555 21.9424 10.0352C21.7588 9.71094 21.667 9.33594 21.667 8.91016H22.792C22.792 9.20312 22.8486 9.45508 22.9619 9.66602C23.0752 9.87305 23.2295 10.0449 23.4248 10.1816C23.624 10.3184 23.8486 10.4199 24.0986 10.4863C24.3525 10.5488 24.6162 10.5801 24.8896 10.5801C25.2842 10.5801 25.6182 10.5254 25.8916 10.416C26.165 10.3066 26.3721 10.1504 26.5127 9.94727C26.6572 9.74414 26.7295 9.50391 26.7295 9.22656ZM30.4717 6.30273V11.3828H29.3818V5.04297H30.4131L30.4717 6.30273ZM30.249 7.97266L29.7451 7.95508C29.749 7.52148 29.8057 7.12109 29.915 6.75391C30.0244 6.38281 30.1865 6.06055 30.4014 5.78711C30.6162 5.51367 30.8838 5.30273 31.2041 5.1543C31.5244 5.00195 31.8955 4.92578 32.3174 4.92578C32.6143 4.92578 32.8877 4.96875 33.1377 5.05469C33.3877 5.13672 33.6045 5.26758 33.7881 5.44727C33.9717 5.62695 34.1143 5.85742 34.2158 6.13867C34.3174 6.41992 34.3682 6.75977 34.3682 7.1582V11.3828H33.2842V7.21094C33.2842 6.87891 33.2275 6.61328 33.1143 6.41406C33.0049 6.21484 32.8486 6.07031 32.6455 5.98047C32.4424 5.88672 32.2041 5.83984 31.9307 5.83984C31.6104 5.83984 31.3428 5.89648 31.1279 6.00977C30.9131 6.12305 30.7412 6.2793 30.6123 6.47852C30.4834 6.67773 30.3896 6.90625 30.3311 7.16406C30.2764 7.41797 30.249 7.6875 30.249 7.97266ZM34.3564 7.375L33.6299 7.59766C33.6338 7.25 33.6904 6.91602 33.7998 6.5957C33.9131 6.27539 34.0752 5.99023 34.2861 5.74023C34.501 5.49023 34.7646 5.29297 35.0771 5.14844C35.3896 5 35.7471 4.92578 36.1494 4.92578C36.4893 4.92578 36.79 4.9707 37.0518 5.06055C37.3174 5.15039 37.54 5.28906 37.7197 5.47656C37.9033 5.66016 38.042 5.89648 38.1357 6.18555C38.2295 6.47461 38.2764 6.81836 38.2764 7.2168V11.3828H37.1865V7.20508C37.1865 6.84961 37.1299 6.57422 37.0166 6.37891C36.9072 6.17969 36.751 6.04102 36.5479 5.96289C36.3486 5.88086 36.1104 5.83984 35.833 5.83984C35.5947 5.83984 35.3838 5.88086 35.2002 5.96289C35.0166 6.04492 34.8623 6.1582 34.7373 6.30273C34.6123 6.44336 34.5166 6.60547 34.4502 6.78906C34.3877 6.97266 34.3564 7.16797 34.3564 7.375ZM43.9053 10.2988V7.03516C43.9053 6.78516 43.8545 6.56836 43.7529 6.38477C43.6553 6.19727 43.5068 6.05273 43.3076 5.95117C43.1084 5.84961 42.8623 5.79883 42.5693 5.79883C42.2959 5.79883 42.0557 5.8457 41.8486 5.93945C41.6455 6.0332 41.4854 6.15625 41.3682 6.30859C41.2549 6.46094 41.1982 6.625 41.1982 6.80078H40.1143C40.1143 6.57422 40.1729 6.34961 40.29 6.12695C40.4072 5.9043 40.5752 5.70312 40.7939 5.52344C41.0166 5.33984 41.2822 5.19531 41.5908 5.08984C41.9033 4.98047 42.251 4.92578 42.6338 4.92578C43.0947 4.92578 43.501 5.00391 43.8525 5.16016C44.208 5.31641 44.4854 5.55273 44.6846 5.86914C44.8877 6.18164 44.9893 6.57422 44.9893 7.04688V10C44.9893 10.2109 45.0068 10.4355 45.042 10.6738C45.0811 10.9121 45.1377 11.1172 45.2119 11.2891V11.3828H44.0811C44.0264 11.2578 43.9834 11.0918 43.9521 10.8848C43.9209 10.6738 43.9053 10.4785 43.9053 10.2988ZM44.0928 7.53906L44.1045 8.30078H43.0088C42.7002 8.30078 42.4248 8.32617 42.1826 8.37695C41.9404 8.42383 41.7373 8.49609 41.5732 8.59375C41.4092 8.69141 41.2842 8.81445 41.1982 8.96289C41.1123 9.10742 41.0693 9.27734 41.0693 9.47266C41.0693 9.67188 41.1143 9.85352 41.2041 10.0176C41.2939 10.1816 41.4287 10.3125 41.6084 10.4102C41.792 10.5039 42.0166 10.5508 42.2822 10.5508C42.6143 10.5508 42.9072 10.4805 43.1611 10.3398C43.415 10.1992 43.6162 10.0273 43.7646 9.82422C43.917 9.62109 43.999 9.42383 44.0107 9.23242L44.4736 9.75391C44.4463 9.91797 44.3721 10.0996 44.251 10.2988C44.1299 10.498 43.9678 10.6895 43.7646 10.873C43.5654 11.0527 43.3271 11.2031 43.0498 11.3242C42.7764 11.4414 42.4678 11.5 42.124 11.5C41.6943 11.5 41.3174 11.416 40.9932 11.248C40.6729 11.0801 40.4229 10.8555 40.2432 10.5742C40.0674 10.2891 39.9795 9.9707 39.9795 9.61914C39.9795 9.2793 40.0459 8.98047 40.1787 8.72266C40.3115 8.46094 40.5029 8.24414 40.7529 8.07227C41.0029 7.89648 41.3037 7.76367 41.6553 7.67383C42.0068 7.58398 42.3994 7.53906 42.833 7.53906H44.0928ZM48.0283 6.03906V11.3828H46.9443V5.04297H47.999L48.0283 6.03906ZM50.0088 5.00781L50.0029 6.01562C49.9131 5.99609 49.8271 5.98438 49.7451 5.98047C49.667 5.97266 49.5771 5.96875 49.4756 5.96875C49.2256 5.96875 49.0049 6.00781 48.8135 6.08594C48.6221 6.16406 48.46 6.27344 48.3271 6.41406C48.1943 6.55469 48.0889 6.72266 48.0107 6.91797C47.9365 7.10938 47.8877 7.32031 47.8643 7.55078L47.5596 7.72656C47.5596 7.34375 47.5967 6.98438 47.6709 6.64844C47.749 6.3125 47.8682 6.01562 48.0283 5.75781C48.1885 5.49609 48.3916 5.29297 48.6377 5.14844C48.8877 5 49.1846 4.92578 49.5283 4.92578C49.6064 4.92578 49.6963 4.93555 49.7979 4.95508C49.8994 4.9707 49.9697 4.98828 50.0088 5.00781ZM54.208 5.04297V5.875H50.7803V5.04297H54.208ZM51.9404 3.50195H53.0244V9.8125C53.0244 10.0273 53.0576 10.1895 53.124 10.2988C53.1904 10.4082 53.2764 10.4805 53.3818 10.5156C53.4873 10.5508 53.6006 10.5684 53.7217 10.5684C53.8115 10.5684 53.9053 10.5605 54.0029 10.5449C54.1045 10.5254 54.1807 10.5098 54.2314 10.498L54.2373 11.3828C54.1514 11.4102 54.0381 11.4355 53.8975 11.459C53.7607 11.4863 53.5947 11.5 53.3994 11.5C53.1338 11.5 52.8896 11.4473 52.667 11.3418C52.4443 11.2363 52.2666 11.0605 52.1338 10.8145C52.0049 10.5645 51.9404 10.2285 51.9404 9.80664V3.50195ZM63.667 9.22656C63.667 9.02734 63.6357 8.85156 63.5732 8.69922C63.5146 8.54297 63.4092 8.40234 63.2568 8.27734C63.1084 8.15234 62.9014 8.0332 62.6357 7.91992C62.374 7.80664 62.042 7.69141 61.6396 7.57422C61.2178 7.44922 60.8369 7.31055 60.4971 7.1582C60.1572 7.00195 59.8662 6.82422 59.624 6.625C59.3818 6.42578 59.1963 6.19727 59.0674 5.93945C58.9385 5.68164 58.874 5.38672 58.874 5.05469C58.874 4.72266 58.9424 4.41602 59.0791 4.13477C59.2158 3.85352 59.4111 3.60937 59.665 3.40234C59.9229 3.19141 60.2295 3.02734 60.585 2.91016C60.9404 2.79297 61.3369 2.73438 61.7744 2.73438C62.415 2.73438 62.958 2.85742 63.4033 3.10352C63.8525 3.3457 64.1943 3.66406 64.4287 4.05859C64.6631 4.44922 64.7803 4.86719 64.7803 5.3125H63.6553C63.6553 4.99219 63.5869 4.70898 63.4502 4.46289C63.3135 4.21289 63.1064 4.01758 62.8291 3.87695C62.5518 3.73242 62.2002 3.66016 61.7744 3.66016C61.3721 3.66016 61.04 3.7207 60.7783 3.8418C60.5166 3.96289 60.3213 4.12695 60.1924 4.33398C60.0674 4.54102 60.0049 4.77734 60.0049 5.04297C60.0049 5.22266 60.042 5.38672 60.1162 5.53516C60.1943 5.67969 60.3135 5.81445 60.4736 5.93945C60.6377 6.06445 60.8447 6.17969 61.0947 6.28516C61.3486 6.39062 61.6514 6.49219 62.0029 6.58984C62.4873 6.72656 62.9053 6.87891 63.2568 7.04688C63.6084 7.21484 63.8975 7.4043 64.124 7.61523C64.3545 7.82227 64.5244 8.05859 64.6338 8.32422C64.7471 8.58594 64.8037 8.88281 64.8037 9.21484C64.8037 9.5625 64.7334 9.87695 64.5928 10.1582C64.4521 10.4395 64.251 10.6797 63.9893 10.8789C63.7275 11.0781 63.4131 11.2324 63.0459 11.3418C62.6826 11.4473 62.2764 11.5 61.8271 11.5C61.4326 11.5 61.0439 11.4453 60.6611 11.3359C60.2822 11.2266 59.9365 11.0625 59.624 10.8438C59.3154 10.625 59.0674 10.3555 58.8799 10.0352C58.6963 9.71094 58.6045 9.33594 58.6045 8.91016H59.7295C59.7295 9.20312 59.7861 9.45508 59.8994 9.66602C60.0127 9.87305 60.167 10.0449 60.3623 10.1816C60.5615 10.3184 60.7861 10.4199 61.0361 10.4863C61.29 10.5488 61.5537 10.5801 61.8271 10.5801C62.2217 10.5801 62.5557 10.5254 62.8291 10.416C63.1025 10.3066 63.3096 10.1504 63.4502 9.94727C63.5947 9.74414 63.667 9.50391 63.667 9.22656ZM68.1123 10.7266L69.876 5.04297H71.0361L68.4932 12.3613C68.4346 12.5176 68.3564 12.6855 68.2588 12.8652C68.165 13.0488 68.0439 13.2227 67.8955 13.3867C67.7471 13.5508 67.5674 13.6836 67.3564 13.7852C67.1494 13.8906 66.9014 13.9434 66.6123 13.9434C66.5264 13.9434 66.417 13.9316 66.2842 13.9082C66.1514 13.8848 66.0576 13.8652 66.0029 13.8496L65.9971 12.9707C66.0283 12.9746 66.0771 12.9785 66.1436 12.9824C66.2139 12.9902 66.2627 12.9941 66.29 12.9941C66.5361 12.9941 66.7451 12.9609 66.917 12.8945C67.0889 12.832 67.2334 12.7246 67.3506 12.5723C67.4717 12.4238 67.5752 12.2188 67.6611 11.957L68.1123 10.7266ZM66.8174 5.04297L68.4639 9.96484L68.7451 11.1074L67.9658 11.5059L65.6338 5.04297H66.8174ZM73.3486 6.39648V11.3828H72.2646V5.04297H73.29L73.3486 6.39648ZM73.0908 7.97266L72.6396 7.95508C72.6436 7.52148 72.708 7.12109 72.833 6.75391C72.958 6.38281 73.1338 6.06055 73.3604 5.78711C73.5869 5.51367 73.8564 5.30273 74.1689 5.1543C74.4854 5.00195 74.835 4.92578 75.2178 4.92578C75.5303 4.92578 75.8115 4.96875 76.0615 5.05469C76.3115 5.13672 76.5244 5.26953 76.7002 5.45312C76.8799 5.63672 77.0166 5.875 77.1104 6.16797C77.2041 6.45703 77.251 6.81055 77.251 7.22852V11.3828H76.1611V7.2168C76.1611 6.88477 76.1123 6.61914 76.0146 6.41992C75.917 6.2168 75.7744 6.07031 75.5869 5.98047C75.3994 5.88672 75.1689 5.83984 74.8955 5.83984C74.626 5.83984 74.3799 5.89648 74.1572 6.00977C73.9385 6.12305 73.749 6.2793 73.5889 6.47852C73.4326 6.67773 73.3096 6.90625 73.2197 7.16406C73.1338 7.41797 73.0908 7.6875 73.0908 7.97266ZM81.6846 10.6094C81.9424 10.6094 82.1807 10.5566 82.3994 10.4512C82.6182 10.3457 82.7979 10.2012 82.9385 10.0176C83.0791 9.83008 83.1592 9.61719 83.1787 9.37891H84.21C84.1904 9.75391 84.0635 10.1035 83.8291 10.4277C83.5986 10.748 83.2959 11.0078 82.9209 11.207C82.5459 11.4023 82.1338 11.5 81.6846 11.5C81.208 11.5 80.792 11.416 80.4365 11.248C80.085 11.0801 79.792 10.8496 79.5576 10.5566C79.3271 10.2637 79.1533 9.92773 79.0361 9.54883C78.9229 9.16602 78.8662 8.76172 78.8662 8.33594V8.08984C78.8662 7.66406 78.9229 7.26172 79.0361 6.88281C79.1533 6.5 79.3271 6.16211 79.5576 5.86914C79.792 5.57617 80.085 5.3457 80.4365 5.17773C80.792 5.00977 81.208 4.92578 81.6846 4.92578C82.1807 4.92578 82.6143 5.02734 82.9854 5.23047C83.3564 5.42969 83.6475 5.70312 83.8584 6.05078C84.0732 6.39453 84.1904 6.78516 84.21 7.22266H83.1787C83.1592 6.96094 83.085 6.72461 82.9561 6.51367C82.8311 6.30273 82.6592 6.13477 82.4404 6.00977C82.2256 5.88086 81.9736 5.81641 81.6846 5.81641C81.3525 5.81641 81.0732 5.88281 80.8467 6.01562C80.624 6.14453 80.4463 6.32031 80.3135 6.54297C80.1846 6.76172 80.0908 7.00586 80.0322 7.27539C79.9775 7.54102 79.9502 7.8125 79.9502 8.08984V8.33594C79.9502 8.61328 79.9775 8.88672 80.0322 9.15625C80.0869 9.42578 80.1787 9.66992 80.3076 9.88867C80.4404 10.1074 80.6182 10.2832 80.8408 10.416C81.0674 10.5449 81.3486 10.6094 81.6846 10.6094ZM92.2158 8.03711H89.9365V7.11719H92.2158C92.6572 7.11719 93.0146 7.04688 93.2881 6.90625C93.5615 6.76562 93.7607 6.57031 93.8857 6.32031C94.0146 6.07031 94.0791 5.78516 94.0791 5.46484C94.0791 5.17188 94.0146 4.89648 93.8857 4.63867C93.7607 4.38086 93.5615 4.17383 93.2881 4.01758C93.0146 3.85742 92.6572 3.77734 92.2158 3.77734H90.2002V11.3828H89.0693V2.85156H92.2158C92.8604 2.85156 93.4053 2.96289 93.8506 3.18555C94.2959 3.4082 94.6338 3.7168 94.8643 4.11133C95.0947 4.50195 95.21 4.94922 95.21 5.45312C95.21 6 95.0947 6.4668 94.8643 6.85352C94.6338 7.24023 94.2959 7.53516 93.8506 7.73828C93.4053 7.9375 92.8604 8.03711 92.2158 8.03711ZM97.8096 6.03906V11.3828H96.7256V5.04297H97.7803L97.8096 6.03906ZM99.79 5.00781L99.7842 6.01562C99.6943 5.99609 99.6084 5.98438 99.5264 5.98047C99.4482 5.97266 99.3584 5.96875 99.2568 5.96875C99.0068 5.96875 98.7861 6.00781 98.5947 6.08594C98.4033 6.16406 98.2412 6.27344 98.1084 6.41406C97.9756 6.55469 97.8701 6.72266 97.792 6.91797C97.7178 7.10938 97.6689 7.32031 97.6455 7.55078L97.3408 7.72656C97.3408 7.34375 97.3779 6.98438 97.4521 6.64844C97.5303 6.3125 97.6494 6.01562 97.8096 5.75781C97.9697 5.49609 98.1729 5.29297 98.4189 5.14844C98.6689 5 98.9658 4.92578 99.3096 4.92578C99.3877 4.92578 99.4775 4.93555 99.5791 4.95508C99.6807 4.9707 99.751 4.98828 99.79 5.00781ZM100.638 8.2832V8.14844C100.638 7.69141 100.704 7.26758 100.837 6.87695C100.97 6.48242 101.161 6.14062 101.411 5.85156C101.661 5.55859 101.964 5.33203 102.319 5.17188C102.675 5.00781 103.073 4.92578 103.515 4.92578C103.96 4.92578 104.36 5.00781 104.716 5.17188C105.075 5.33203 105.38 5.55859 105.63 5.85156C105.884 6.14062 106.077 6.48242 106.21 6.87695C106.343 7.26758 106.409 7.69141 106.409 8.14844V8.2832C106.409 8.74023 106.343 9.16406 106.21 9.55469C106.077 9.94531 105.884 10.2871 105.63 10.5801C105.38 10.8691 105.077 11.0957 104.722 11.2598C104.37 11.4199 103.972 11.5 103.526 11.5C103.081 11.5 102.681 11.4199 102.325 11.2598C101.97 11.0957 101.665 10.8691 101.411 10.5801C101.161 10.2871 100.97 9.94531 100.837 9.55469C100.704 9.16406 100.638 8.74023 100.638 8.2832ZM101.722 8.14844V8.2832C101.722 8.59961 101.759 8.89844 101.833 9.17969C101.907 9.45703 102.019 9.70312 102.167 9.91797C102.319 10.1328 102.509 10.3027 102.735 10.4277C102.962 10.5488 103.226 10.6094 103.526 10.6094C103.823 10.6094 104.083 10.5488 104.306 10.4277C104.532 10.3027 104.72 10.1328 104.868 9.91797C105.017 9.70312 105.128 9.45703 105.202 9.17969C105.28 8.89844 105.319 8.59961 105.319 8.2832V8.14844C105.319 7.83594 105.28 7.54102 105.202 7.26367C105.128 6.98242 105.015 6.73438 104.862 6.51953C104.714 6.30078 104.526 6.12891 104.3 6.00391C104.077 5.87891 103.815 5.81641 103.515 5.81641C103.218 5.81641 102.956 5.87891 102.729 6.00391C102.507 6.12891 102.319 6.30078 102.167 6.51953C102.019 6.73438 101.907 6.98242 101.833 7.26367C101.759 7.54102 101.722 7.83594 101.722 8.14844ZM112.622 2.85156V11.3828H111.491V2.85156H112.622ZM115.849 6.39648V11.3828H114.765V5.04297H115.79L115.849 6.39648ZM115.591 7.97266L115.14 7.95508C115.144 7.52148 115.208 7.12109 115.333 6.75391C115.458 6.38281 115.634 6.06055 115.86 5.78711C116.087 5.51367 116.356 5.30273 116.669 5.1543C116.985 5.00195 117.335 4.92578 117.718 4.92578C118.03 4.92578 118.312 4.96875 118.562 5.05469C118.812 5.13672 119.024 5.26953 119.2 5.45312C119.38 5.63672 119.517 5.875 119.61 6.16797C119.704 6.45703 119.751 6.81055 119.751 7.22852V11.3828H118.661V7.2168C118.661 6.88477 118.612 6.61914 118.515 6.41992C118.417 6.2168 118.274 6.07031 118.087 5.98047C117.899 5.88672 117.669 5.83984 117.396 5.83984C117.126 5.83984 116.88 5.89648 116.657 6.00977C116.438 6.12305 116.249 6.2793 116.089 6.47852C115.933 6.67773 115.81 6.90625 115.72 7.16406C115.634 7.41797 115.591 7.6875 115.591 7.97266ZM124.185 10.6094C124.442 10.6094 124.681 10.5566 124.899 10.4512C125.118 10.3457 125.298 10.2012 125.438 10.0176C125.579 9.83008 125.659 9.61719 125.679 9.37891H126.71C126.69 9.75391 126.563 10.1035 126.329 10.4277C126.099 10.748 125.796 11.0078 125.421 11.207C125.046 11.4023 124.634 11.5 124.185 11.5C123.708 11.5 123.292 11.416 122.937 11.248C122.585 11.0801 122.292 10.8496 122.058 10.5566C121.827 10.2637 121.653 9.92773 121.536 9.54883C121.423 9.16602 121.366 8.76172 121.366 8.33594V8.08984C121.366 7.66406 121.423 7.26172 121.536 6.88281C121.653 6.5 121.827 6.16211 122.058 5.86914C122.292 5.57617 122.585 5.3457 122.937 5.17773C123.292 5.00977 123.708 4.92578 124.185 4.92578C124.681 4.92578 125.114 5.02734 125.485 5.23047C125.856 5.42969 126.147 5.70312 126.358 6.05078C126.573 6.39453 126.69 6.78516 126.71 7.22266H125.679C125.659 6.96094 125.585 6.72461 125.456 6.51367C125.331 6.30273 125.159 6.13477 124.94 6.00977C124.726 5.88086 124.474 5.81641 124.185 5.81641C123.853 5.81641 123.573 5.88281 123.347 6.01562C123.124 6.14453 122.946 6.32031 122.813 6.54297C122.685 6.76172 122.591 7.00586 122.532 7.27539C122.478 7.54102 122.45 7.8125 122.45 8.08984V8.33594C122.45 8.61328 122.478 8.88672 122.532 9.15625C122.587 9.42578 122.679 9.66992 122.808 9.88867C122.94 10.1074 123.118 10.2832 123.341 10.416C123.567 10.5449 123.849 10.6094 124.185 10.6094ZM129.356 2.38281V11.3828H128.267V2.38281H129.356ZM135.226 9.91797V5.04297H136.315V11.3828H135.278L135.226 9.91797ZM135.431 8.58203L135.882 8.57031C135.882 8.99219 135.837 9.38281 135.747 9.74219C135.661 10.0977 135.521 10.4062 135.325 10.668C135.13 10.9297 134.874 11.1348 134.558 11.2832C134.241 11.4277 133.856 11.5 133.403 11.5C133.095 11.5 132.812 11.4551 132.554 11.3652C132.3 11.2754 132.081 11.1367 131.897 10.9492C131.714 10.7617 131.571 10.5176 131.47 10.2168C131.372 9.91602 131.323 9.55469 131.323 9.13281V5.04297H132.407V9.14453C132.407 9.42969 132.438 9.66602 132.501 9.85352C132.567 10.0371 132.655 10.1836 132.765 10.293C132.878 10.3984 133.003 10.4727 133.14 10.5156C133.28 10.5586 133.425 10.5801 133.573 10.5801C134.034 10.5801 134.399 10.4922 134.669 10.3164C134.938 10.1367 135.132 9.89648 135.249 9.5957C135.37 9.29102 135.431 8.95312 135.431 8.58203ZM142.214 10.1523V2.38281H143.304V11.3828H142.308L142.214 10.1523ZM137.948 8.2832V8.16016C137.948 7.67578 138.007 7.23633 138.124 6.8418C138.245 6.44336 138.415 6.10156 138.634 5.81641C138.856 5.53125 139.12 5.3125 139.425 5.16016C139.733 5.00391 140.077 4.92578 140.456 4.92578C140.854 4.92578 141.202 4.99609 141.499 5.13672C141.8 5.27344 142.054 5.47461 142.261 5.74023C142.472 6.00195 142.638 6.31836 142.759 6.68945C142.88 7.06055 142.964 7.48047 143.011 7.94922V8.48828C142.968 8.95312 142.884 9.37109 142.759 9.74219C142.638 10.1133 142.472 10.4297 142.261 10.6914C142.054 10.9531 141.8 11.1543 141.499 11.2949C141.198 11.4316 140.847 11.5 140.444 11.5C140.073 11.5 139.733 11.4199 139.425 11.2598C139.12 11.0996 138.856 10.875 138.634 10.5859C138.415 10.2969 138.245 9.95703 138.124 9.56641C138.007 9.17188 137.948 8.74414 137.948 8.2832ZM139.038 8.16016V8.2832C139.038 8.59961 139.069 8.89648 139.132 9.17383C139.198 9.45117 139.3 9.69531 139.437 9.90625C139.573 10.1172 139.747 10.2832 139.958 10.4043C140.169 10.5215 140.421 10.5801 140.714 10.5801C141.073 10.5801 141.368 10.5039 141.599 10.3516C141.833 10.1992 142.021 9.99805 142.161 9.74805C142.302 9.49805 142.411 9.22656 142.489 8.93359V7.52148C142.442 7.30664 142.374 7.09961 142.284 6.90039C142.198 6.69727 142.085 6.51758 141.944 6.36133C141.808 6.20117 141.638 6.07422 141.435 5.98047C141.235 5.88672 140.999 5.83984 140.726 5.83984C140.429 5.83984 140.173 5.90234 139.958 6.02734C139.747 6.14844 139.573 6.31641 139.437 6.53125C139.3 6.74219 139.198 6.98828 139.132 7.26953C139.069 7.54688 139.038 7.84375 139.038 8.16016ZM147.872 11.5C147.431 11.5 147.03 11.4258 146.671 11.2773C146.315 11.125 146.009 10.9121 145.751 10.6387C145.497 10.3652 145.302 10.041 145.165 9.66602C145.028 9.29102 144.96 8.88086 144.96 8.43555V8.18945C144.96 7.67383 145.036 7.21484 145.188 6.8125C145.341 6.40625 145.548 6.0625 145.81 5.78125C146.071 5.5 146.368 5.28711 146.7 5.14258C147.032 4.99805 147.376 4.92578 147.731 4.92578C148.185 4.92578 148.575 5.00391 148.903 5.16016C149.235 5.31641 149.507 5.53516 149.718 5.81641C149.929 6.09375 150.085 6.42188 150.187 6.80078C150.288 7.17578 150.339 7.58594 150.339 8.03125V8.51758H145.604V7.63281H149.255V7.55078C149.239 7.26953 149.181 6.99609 149.079 6.73047C148.981 6.46484 148.825 6.24609 148.61 6.07422C148.396 5.90234 148.103 5.81641 147.731 5.81641C147.485 5.81641 147.259 5.86914 147.052 5.97461C146.845 6.07617 146.667 6.22852 146.519 6.43164C146.37 6.63477 146.255 6.88281 146.173 7.17578C146.091 7.46875 146.05 7.80664 146.05 8.18945V8.43555C146.05 8.73633 146.091 9.01953 146.173 9.28516C146.259 9.54688 146.382 9.77734 146.542 9.97656C146.706 10.1758 146.903 10.332 147.134 10.4453C147.368 10.5586 147.634 10.6152 147.931 10.6152C148.313 10.6152 148.638 10.5371 148.903 10.3809C149.169 10.2246 149.401 10.0156 149.601 9.75391L150.257 10.2754C150.12 10.4824 149.946 10.6797 149.735 10.8672C149.524 11.0547 149.265 11.207 148.956 11.3242C148.651 11.4414 148.29 11.5 147.872 11.5ZM155.546 9.70117C155.546 9.54492 155.511 9.40039 155.44 9.26758C155.374 9.13086 155.235 9.00781 155.024 8.89844C154.817 8.78516 154.505 8.6875 154.087 8.60547C153.735 8.53125 153.417 8.44336 153.132 8.3418C152.851 8.24023 152.61 8.11719 152.411 7.97266C152.216 7.82812 152.065 7.6582 151.96 7.46289C151.854 7.26758 151.802 7.03906 151.802 6.77734C151.802 6.52734 151.856 6.29102 151.966 6.06836C152.079 5.8457 152.237 5.64844 152.44 5.47656C152.647 5.30469 152.896 5.16992 153.185 5.07227C153.474 4.97461 153.796 4.92578 154.151 4.92578C154.659 4.92578 155.093 5.01562 155.452 5.19531C155.812 5.375 156.087 5.61523 156.278 5.91602C156.47 6.21289 156.565 6.54297 156.565 6.90625H155.481C155.481 6.73047 155.429 6.56055 155.323 6.39648C155.222 6.22852 155.071 6.08984 154.872 5.98047C154.677 5.87109 154.437 5.81641 154.151 5.81641C153.851 5.81641 153.606 5.86328 153.419 5.95703C153.235 6.04688 153.101 6.16211 153.015 6.30273C152.933 6.44336 152.892 6.5918 152.892 6.74805C152.892 6.86523 152.911 6.9707 152.95 7.06445C152.993 7.1543 153.067 7.23828 153.173 7.31641C153.278 7.39062 153.427 7.46094 153.618 7.52734C153.81 7.59375 154.054 7.66016 154.351 7.72656C154.87 7.84375 155.298 7.98438 155.634 8.14844C155.97 8.3125 156.22 8.51367 156.384 8.75195C156.548 8.99023 156.63 9.2793 156.63 9.61914C156.63 9.89648 156.571 10.1504 156.454 10.3809C156.341 10.6113 156.175 10.8105 155.956 10.9785C155.741 11.1426 155.483 11.2715 155.183 11.3652C154.886 11.4551 154.552 11.5 154.181 11.5C153.622 11.5 153.149 11.4004 152.763 11.2012C152.376 11.002 152.083 10.7441 151.884 10.4277C151.685 10.1113 151.585 9.77734 151.585 9.42578H152.675C152.69 9.72266 152.776 9.95898 152.933 10.1348C153.089 10.3066 153.28 10.4297 153.507 10.5039C153.733 10.5742 153.958 10.6094 154.181 10.6094C154.478 10.6094 154.726 10.5703 154.925 10.4922C155.128 10.4141 155.282 10.3066 155.388 10.1699C155.493 10.0332 155.546 9.87695 155.546 9.70117Z" fill="#4B4AD5"/>
<path d="M168.276 6.14002L170.558 7.39002L168.276 8.64002L167.026 10.9221L165.776 8.64002L163.487 7.39002L165.776 6.14002L167.026 3.85156L168.276 6.14002Z" fill="#4B4AD5"/>
<path d="M171.436 3.67198L172.596 4.30659L171.436 4.94121L170.801 6.10787L170.167 4.94121L169 4.30659L170.167 3.67198L170.801 2.51172L171.436 3.67198Z" fill="#4B4AD5"/>
<path d="M171.436 9.82682L172.596 10.4614L171.436 11.0961L170.801 12.2563L170.167 11.0961L169 10.4614L170.167 9.82682L170.801 8.66016L171.436 9.82682Z" fill="#4B4AD5"/>
</svg>
