<svg width="28" height="28" viewBox="0 0 28 28" fill="none" xmlns="http://www.w3.org/2000/svg">
<g clip-path="url(#clip0_1161_191877)">
<path d="M22.6971 15.6926C22.6992 16.0381 22.5942 16.3758 22.3966 16.6592C22.1989 16.9426 21.9183 17.1578 21.5933 17.2752L16.1296 19.2941L14.117 24.7621C13.9978 25.0858 13.7822 25.3653 13.4992 25.5627C13.2162 25.76 12.8795 25.8659 12.5345 25.8659C12.1894 25.8659 11.8527 25.76 11.5697 25.5627C11.2867 25.3653 11.0711 25.0858 10.9519 24.7621L8.92661 19.2941L3.45868 17.2815C3.1349 17.1623 2.85546 16.9467 2.65807 16.6637C2.46069 16.3807 2.35486 16.044 2.35486 15.699C2.35486 15.354 2.46069 15.0172 2.65807 14.7342C2.85546 14.4513 3.1349 14.2356 3.45868 14.1164L8.92661 12.0911L10.9392 6.6232C11.0584 6.29941 11.274 6.01998 11.557 5.82259C11.84 5.62521 12.1767 5.51938 12.5218 5.51938C12.8668 5.51938 13.2035 5.62521 13.4865 5.82259C13.7695 6.01998 13.9851 6.29941 14.1043 6.6232L16.1296 12.0911L21.5975 14.1037C21.9228 14.2221 22.2032 14.4386 22.4001 14.7232C22.5971 15.0078 22.7008 15.3465 22.6971 15.6926ZM16.7652 5.52368H18.46V7.21851C18.46 7.44325 18.5493 7.6588 18.7082 7.81772C18.8671 7.97664 19.0827 8.06592 19.3074 8.06592C19.5322 8.06592 19.7477 7.97664 19.9066 7.81772C20.0655 7.6588 20.1548 7.44325 20.1548 7.21851V5.52368H21.8496C22.0744 5.52368 22.2899 5.4344 22.4489 5.27548C22.6078 5.11656 22.6971 4.90102 22.6971 4.67627C22.6971 4.45152 22.6078 4.23598 22.4489 4.07706C22.2899 3.91814 22.0744 3.82886 21.8496 3.82886H20.1548V2.13403C20.1548 1.90929 20.0655 1.69374 19.9066 1.53482C19.7477 1.3759 19.5322 1.28662 19.3074 1.28662C19.0827 1.28662 18.8671 1.3759 18.7082 1.53482C18.5493 1.69374 18.46 1.90929 18.46 2.13403V3.82886H16.7652C16.5404 3.82886 16.3249 3.91814 16.166 4.07706C16.007 4.23598 15.9178 4.45152 15.9178 4.67627C15.9178 4.90102 16.007 5.11656 16.166 5.27548C16.3249 5.4344 16.5404 5.52368 16.7652 5.52368ZM26.0867 8.91333H25.2393V8.06592C25.2393 7.84117 25.15 7.62563 24.9911 7.46671C24.8322 7.30779 24.6166 7.21851 24.3919 7.21851C24.1671 7.21851 23.9516 7.30779 23.7927 7.46671C23.6337 7.62563 23.5445 7.84117 23.5445 8.06592V8.91333H22.6971C22.4723 8.91333 22.2568 9.00261 22.0978 9.16153C21.9389 9.32045 21.8496 9.53599 21.8496 9.76074C21.8496 9.98549 21.9389 10.201 22.0978 10.36C22.2568 10.5189 22.4723 10.6082 22.6971 10.6082H23.5445V11.4556C23.5445 11.6803 23.6337 11.8959 23.7927 12.0548C23.9516 12.2137 24.1671 12.303 24.3919 12.303C24.6166 12.303 24.8322 12.2137 24.9911 12.0548C25.15 11.8959 25.2393 11.6803 25.2393 11.4556V10.6082H26.0867C26.3114 10.6082 26.527 10.5189 26.6859 10.36C26.8448 10.201 26.9341 9.98549 26.9341 9.76074C26.9341 9.53599 26.8448 9.32045 26.6859 9.16153C26.527 9.00261 26.3114 8.91333 26.0867 8.91333Z" fill="url(#paint0_linear_1161_191877)"/>
</g>
<defs>
<linearGradient id="paint0_linear_1161_191877" x1="14.6445" y1="1.28662" x2="14.6445" y2="25.8659" gradientUnits="userSpaceOnUse">
<stop stop-color="#BD68A6"/>
<stop offset="1" stop-color="#4B4AD5"/>
</linearGradient>
<clipPath id="clip0_1161_191877">
<rect width="27.1172" height="27.1172" fill="white" transform="translate(0.664917 0.441406)"/>
</clipPath>
</defs>
</svg>
