<svg xmlns="http://www.w3.org/2000/svg" width="898" height="658" viewBox="0 0 898 658" fill="none">
  <path opacity="0.5" d="M1.45508 -88.6992V112.271L68.9272 45.8872V-88.6992H70.1654L69.9548 -88.492V44.8712L137.427 -21.5122V-88.6992H138.454V-21.5122L205.927 44.8712V-88.6992H617.963V-21.5122L685.435 44.8712V-88.6992H686.673L753.935 -22.5231V-88.6992H754.962V-21.5122L822.434 44.8712V-88.6992H1233.97V113.994H1029.7L1097.17 180.378H1233.97V181.596L1233.76 181.389H1098.21L1165.68 247.772H1233.97V248.783H1165.68L1098.21 315.166H1233.97V316.177H1098.21L1165.68 382.561H1233.97V383.572H1166.71L1233.97 449.753V450.971H1098.21L1165.68 517.354H1233.97V1124.42H822.445V990.853L754.972 1057.24V1124.42H753.945V1057.24L686.473 990.853V1124.22L686.683 1124.42H685.445V989.842L617.973 923.459V1124.43H205.937V1057.24L205.726 1057.03L205.937 1056.83V990.858L138.465 1057.24V1124.43H137.437V1058.25L70.1757 1124.43H68.9376V990.858L1.46533 1057.24V1124.43H0.951538V517.359H205.218L137.745 450.976H0.956665V449.758L1.16736 449.965H136.718L69.2457 383.582H0.956665V382.571H69.2457L136.718 316.187H0.956665V315.176H136.718L69.2457 248.793H0.956665V247.782H68.2183L0.956665 181.606V180.388H136.718L69.2457 114.004H0.956665V-88.6992H1.47046H1.45508ZM137.946 -20.5871L69.96 46.3017V112.983H205.937V46.3017L137.951 -20.5871H137.946ZM68.9324 47.3126L2.18457 112.983H68.9324V47.3126ZM480.239 1056.53L547.711 990.146H412.16L344.688 1056.53H480.239ZM753.215 921.735L685.743 855.352H549.165L481.693 921.735H753.215ZM891.674 1056.53H1027.22L959.752 990.146H824.202L891.674 1056.53ZM1164.95 652.866L1097.48 586.482V719.845L1164.95 786.229V652.866ZM1029.71 518.37L1096.45 584.041V518.37H1029.71ZM1027.95 382.864V248.49L960.477 182.106V450.263L1027.95 516.647V383.283L1027.74 383.076L1027.95 382.869V382.864ZM824.196 45.589H959.747L1027.22 -20.7944H891.669L824.196 45.589ZM548.739 -20.7944H413.188L480.66 45.589H616.211L548.739 -20.7944ZM206.656 585.77L139.184 652.153H274.735L342.207 585.77H206.656ZM275.67 652.658L343.656 719.547H411.431V585.765H343.656L275.67 652.653V652.658ZM206.954 989.847V1055.82L342.202 922.751H206.954V989.433L207.165 989.64L206.954 989.847ZM480.234 921.735L548.22 854.846L480.234 787.958H412.458V921.74H480.234V921.735ZM549.16 854.341H684.71L617.238 787.958H481.688L549.16 854.341ZM1096.75 989.135L1164.22 922.751H892.696L960.168 989.135H1096.75ZM1028.97 788.67V921.735H1164.22L1028.97 788.67ZM616.94 47.3126L550.193 112.983H616.94V47.3126ZM343.661 46.5999L276.189 112.983H547.711L480.239 46.5999H343.661ZM206.959 248.49V382.864L274.431 449.247V181.09L206.959 114.707V248.07L207.17 248.277L206.959 248.485V248.49ZM479.211 786.942L412.464 721.271V786.942H479.211ZM753.215 786.942L685.743 720.558H616.94H413.188L480.66 786.942H753.215ZM890.944 921.735V856.065L824.196 921.735H890.944ZM823.472 922.746V988.417L890.22 922.746H823.472ZM891.972 921.735H1027.95V855.054L959.963 788.165L891.977 855.054V921.735H891.972ZM890.944 248.49L823.472 182.106V315.171V449.247L890.944 382.864V248.49ZM754.453 114.201L754.243 113.994H549.165L481.693 180.378H754.248L821.72 113.994H754.669L754.459 114.201H754.453ZM342.931 516.641V383.278L275.459 316.895V450.258L342.931 516.641ZM960.471 787.235L1027.94 853.618V586.472L960.471 652.856V787.23V787.235ZM961.196 518.365L1027.94 584.036V518.365H961.196ZM1027.73 585.254L960.466 519.078V651.43L1027.73 585.254ZM822.434 517.354V384.289L754.962 450.673V585.047L822.434 651.43V517.354ZM755.686 180.373H822.434V114.702L755.686 180.373ZM822.434 181.384H754.659L686.673 248.272L754.659 315.161H822.434V181.378V181.384ZM343.954 382.859L411.426 449.242V248.485L411.215 248.277L411.426 248.07V182.101L343.954 248.485V382.859ZM343.954 516.641L411.215 450.465L343.954 384.289V516.641ZM412.453 718.829L479.925 652.446V384.289L412.664 450.465L412.453 450.673V517.354V718.824V718.829ZM685.733 248.783H549.155L481.682 315.166H548.728L548.939 314.959L549.15 315.166H617.952H753.2L685.728 248.783H685.733ZM480.953 516.641L548.425 450.258V316.895L480.953 383.278V516.641ZM685.43 383.278L617.958 316.895V382.859L618.168 383.066L617.958 383.273V517.855V585.042L685.43 651.425V383.268V383.278ZM618.682 316.177L685.43 381.848V316.177H618.682ZM617.958 586.477V719.542H753.205L617.958 586.477ZM616.93 316.177H550.182L616.93 381.848V316.177ZM549.458 316.89V449.242L616.719 383.066L549.458 316.89ZM547.701 316.177H480.655L480.444 316.384L480.234 316.177H412.458V449.242L547.706 316.177H547.701ZM479.201 315.166L412.453 249.496V315.166H479.201ZM480.444 314.959L547.706 248.783H413.183L480.444 314.959ZM686.462 316.177V382.859L754.448 449.748L822.434 382.859V316.177H686.457H686.462ZM753.935 450.673L686.462 384.289V517.652L753.935 584.036V450.673ZM686.462 519.078V652.441L753.935 718.824V585.461L686.462 519.078ZM754.962 718.824L822.224 652.648L754.962 586.472V718.824ZM755.686 719.537H822.434V653.867L755.686 719.537ZM616.93 517.855V384.284L549.458 450.668V585.042L616.93 651.425V517.855ZM548.43 451.679L480.958 518.062V651.425L548.43 585.042V451.679ZM412.453 113.984V247.049L547.701 113.984H412.453ZM413.178 247.767H548.728L616.201 181.384H480.65L413.178 247.767ZM617.654 181.384L550.182 247.767H685.733L753.205 181.384H617.654ZM616.93 652.861L548.944 585.972L480.958 652.861V719.542H616.935V652.861H616.93ZM479.925 653.872L413.178 719.542H479.925V653.872ZM411.426 451.684L344.678 517.354H411.426V451.684ZM275.449 315.459L342.921 381.843V248.48L275.449 182.096V315.459ZM343.435 247.56L411.421 180.671V113.989H275.444V180.671L343.43 247.56H343.435ZM823.457 179.66L890.204 113.989H823.457V179.66ZM890.929 114.707L823.667 180.883L890.929 247.059V114.707ZM959.429 787.235V653.872L891.956 720.255V853.618L959.429 787.235ZM891.956 718.829L959.429 652.446V519.083L891.956 585.466V718.829ZM958.704 518.365H823.457V651.43L958.704 518.365ZM754.654 720.553L754.443 720.76L754.233 720.553H687.187L822.434 853.618V720.553H754.659H754.654ZM342.191 517.354L206.944 384.289V517.354H342.191ZM274.416 179.66V113.989H207.668L274.416 179.66ZM548.934 112.771L616.195 46.5949H481.672L548.934 112.771ZM890.199 112.978L823.452 47.3076V112.978H890.199ZM891.437 112.771L958.699 46.5949H824.176L891.437 112.771ZM892.676 113.989L1027.92 247.054V113.989H892.676ZM891.951 114.702V248.065L959.423 314.448V181.085L891.951 114.702ZM959.423 315.879L891.951 249.496V382.859L959.423 449.242V315.879ZM891.437 383.779L823.452 450.668V517.349H959.429V450.668L891.443 383.779H891.437ZM960.451 517.349H1027.2L960.451 451.679V517.349ZM891.437 922.943L824.176 989.12H958.699L891.437 922.943ZM890.924 854.624V586.472L823.662 652.648L823.452 652.856V720.548V854.624L823.662 854.831L823.452 855.039V921.007L890.924 854.624ZM821.694 854.326L754.222 787.942H618.672L686.144 854.326H821.694ZM687.171 855.337L754.433 921.513L821.694 855.337H687.171ZM411.41 921.72V788.655L276.163 921.72H411.41ZM410.686 787.937H275.135L207.663 854.321H343.214L410.686 787.937ZM410.686 786.926L343.424 720.75L276.163 786.926H410.686ZM411.41 786.214V720.543H344.663L411.41 786.214ZM411.41 584.738V519.068L344.663 584.738H411.41ZM206.959 -21.8104H273.707L206.959 -87.481V-21.8104ZM206.959 -20.7994V112.983H274.735L342.721 46.0945L274.735 -20.7944H206.959V-20.7994ZM343.661 45.5839H479.211L411.739 -20.7994H276.189L343.661 45.5839ZM822.445 112.978V47.3076L755.697 112.978H822.445ZM1028.67 -20.7994L961.201 45.5839H1096.75L1164.22 -20.7994H1028.67ZM1096.75 46.5949H960.173L892.701 112.978H1164.22L1096.75 46.5949ZM1028.98 519.083V585.052L1029.19 585.259L1028.98 585.466V787.235L1096.45 853.618V585.461L1028.98 519.078V519.083ZM1097.48 721.271V854.634L1164.95 921.017V787.654L1097.48 721.271ZM1165.98 921.017L1233.24 854.846L1165.98 788.67V921.023L1165.98 921.017ZM1097.69 989.635L1165.67 1056.52H1233.45V922.741H1165.68L1097.69 989.63L1097.69 989.635ZM1096.75 990.141H961.196L1028.67 1056.52H1164.22L1096.75 990.141H1096.75ZM822.439 856.065L755.692 921.735H822.439V856.065ZM616.935 923.459L550.187 989.13H616.935V923.459ZM616.211 922.746H412.458H343.656L276.183 989.13H548.733L616.206 922.746H616.211ZM410.706 990.141H275.156L207.684 1056.52H343.234L410.706 990.141ZM207.684 1057.53L274.945 1123.71L342.207 1057.53H207.684ZM137.73 921.73L137.941 921.523L138.151 921.73H274.729L342.202 855.347H69.6465L2.17432 921.73H137.725H137.73ZM206.23 854.336L273.702 787.953H138.151L70.6792 854.336H206.23ZM138.151 786.942H274.729L342.202 720.558H70.6792L138.151 786.942ZM342.202 719.547L274.729 653.164H138.151L70.6792 719.547H342.207H342.202ZM136.697 653.164H2.17432L69.4359 719.34L136.697 653.164ZM137.725 652.153L205.197 585.77H69.6465L2.17432 652.153H137.725ZM343.229 584.759L410.701 518.375H343.651L343.44 518.583L343.229 518.375H138.151L70.6792 584.759H343.229ZM275.151 -21.8053H547.706L480.239 -88.1937H207.684L275.156 -21.8104L275.151 -21.8053ZM481.693 -88.1937L616.94 44.8712V-88.1937H481.693ZM617.968 45.8822L618.178 46.0894L617.968 46.2966V112.978H753.215L617.968 -20.0867V45.8822ZM686.467 -87.481V45.8822L753.94 112.266V-21.0926L686.467 -87.481ZM754.967 -20.0867V112.266L822.229 46.0894L754.967 -20.0867ZM823.472 -88.1937V44.8712L958.72 -88.1937H823.472ZM960.173 -88.1937L892.701 -21.8104H1165.25L1232.73 -88.1937H960.179H960.173ZM1166.71 -21.8104H1233.45V-87.481L1166.71 -21.8104ZM1233.45 -20.7994H1165.68L1097.69 46.0894L1165.68 112.978H1233.45V-20.7994ZM1028.98 114.707V180.378H1095.72L1028.98 114.707ZM1096.75 181.389H1028.98V315.171H1096.75L1096.96 314.964L1164.74 248.282L1096.75 181.394V181.389ZM1028.98 316.182V381.853L1095.72 316.182H1028.98ZM1096.96 316.389L1029.7 382.566H1164.22L1096.96 316.389ZM1232.73 449.965L1165.26 383.582H1029.71L1097.18 449.965H1232.73ZM1028.98 384.294V517.359H1164.22L1028.98 384.294ZM1097.48 518.37V585.052L1165.46 651.941L1233.45 585.052V518.37H1097.48ZM1233.45 586.482L1165.98 652.866V787.24L1233.45 853.623V586.477V586.482ZM1166.71 921.735H1233.45V856.065L1166.71 921.735ZM1233.45 1057.54H1166.71L1233.45 1123.21V1057.54ZM1165.25 1057.54H892.701L960.173 1123.92H1232.73L1165.26 1057.54H1165.25ZM958.72 1123.92L823.472 990.858V1123.92H958.72ZM754.453 1056.32L822.229 989.635L822.439 989.428V922.746H754.664L754.453 922.953L754.243 922.746H686.467V989.428L754.453 1056.32ZM685.44 922.746H618.692L685.44 988.417V922.746ZM616.94 990.141H549.165L481.179 1057.03L549.165 1123.92H616.94V990.135V990.141ZM547.711 1123.92L480.239 1057.54H343.661L276.189 1123.92H547.716H547.711ZM273.707 1123.92L206.959 1058.25V1123.92H273.707ZM205.932 922.746H139.184L205.932 988.417V922.746ZM205.721 989.635L138.46 923.459V1055.81L205.721 989.635ZM69.96 1123.21L137.432 1056.82V923.459L69.96 989.842V1123.21ZM1.46021 1055.81L136.708 922.746H1.46021V1055.81ZM1.46021 921.023L68.2079 855.352H1.46021V921.023ZM69.2355 854.341L137.221 787.452L69.2355 720.563H1.46021V854.346H69.2355V854.341ZM1.46021 719.547H68.2079L1.46021 653.877V719.547ZM136.708 518.37H1.46021V651.435L136.708 518.37ZM205.937 516.641V450.971H139.189L205.937 516.641ZM138.162 449.96H205.937V316.177H138.162L137.951 316.384L70.1757 383.066L138.162 449.955V449.96ZM205.937 315.166V249.496L139.189 315.166H205.937ZM137.951 314.959L205.213 248.783H70.6895L137.951 314.959ZM2.1897 181.389L69.6619 247.772H205.213L137.74 181.389H2.1897ZM205.942 247.059V113.994H70.6946L205.942 247.059Z" fill="url(#paint0_radial_1702_37682)"/>
  <defs>
    <radialGradient id="paint0_radial_1702_37682" cx="0" cy="0" r="1" gradientUnits="userSpaceOnUse" gradientTransform="translate(635.713 517.865) rotate(180) scale(480.251 472.501)">
      <stop stop-color="white" stop-opacity="0.7"/>
      <stop offset="0.21" stop-color="white" stop-opacity="0.9"/>
      <stop offset="0.43" stop-color="white"/>
      <stop offset="1" stop-color="white" stop-opacity="0"/>
    </radialGradient>
  </defs>
</svg>