<svg width="19" height="18" viewBox="0 0 19 18" fill="none" xmlns="http://www.w3.org/2000/svg">
<path d="M9.88886 2.33659C9.90063 2.3366 9.91238 2.33744 9.92402 2.33912C9.93566 2.33742 9.94741 2.33658 9.95918 2.33659C10.7702 2.42438 11.5627 2.63748 12.3085 2.96828L12.6218 1.6675C11.7697 1.29669 10.8484 1.11202 9.91924 1.12581C8.99088 1.11113 8.07017 1.29575 7.21924 1.66722L7.53396 2.96969C8.2814 2.63796 9.07584 2.42438 9.88886 2.33659Z" fill="#A461D8"/>
<path d="M10.5453 5.04132C10.5754 5.00704 10.6133 4.98059 10.6558 4.96423C10.6984 4.94787 10.7443 4.9421 10.7896 4.94741C10.8348 4.95272 10.8781 4.96896 10.9157 4.99473C10.9533 5.02049 10.9841 5.05502 11.0054 5.09532C11.0459 5.17097 11.9878 6.88069 13.9867 6.99573C13.9867 6.83991 13.9906 6.68044 13.9946 6.5176C14.0361 5.93985 13.9099 5.36239 13.6312 4.85464C13.3524 4.34688 12.933 3.93042 12.4232 3.65532C12.3854 3.6449 12.3503 3.62648 12.3203 3.60132C11.5711 3.22225 10.7587 2.98393 9.92346 2.89819C8.02361 3.14457 5.79077 3.97341 5.84927 6.51704C5.85124 6.60141 5.85208 6.68101 5.85349 6.76285C6.58699 6.82754 8.93965 6.87282 10.5453 5.04132Z" fill="#A461D8"/>
<path d="M8.54095 14.497C8.54095 14.4552 8.55024 14.414 8.56814 14.3763C8.58604 14.3386 8.61211 14.3054 8.64445 14.279L9.35405 13.701L7.61283 12.0959C7.44012 12.1162 7.2664 12.1266 7.09252 12.1272C7.0253 12.1272 6.96061 12.1238 6.89564 12.121C5.87736 12.1298 4.9037 12.5402 4.18631 13.2629C3.46891 13.9856 3.06575 14.9623 3.06445 15.9806V16.8749H8.54095V14.497Z" fill="#A461D8"/>
<path d="M12.6355 7.88651C12.636 7.67317 12.6249 7.45995 12.6023 7.24779C11.8418 6.90865 11.1884 6.368 10.7129 5.68433C9.7705 6.60397 8.54333 7.17575 7.233 7.30573C7.18068 7.8702 7.12837 9.38698 7.92543 10.4051C8.16944 10.7016 8.47306 10.9434 8.8166 11.115C9.16013 11.2865 9.53589 11.3838 9.9195 11.4007C12.1636 11.1912 12.6355 9.37573 12.6355 7.88651Z" fill="#A461D8"/>
<path d="M11.4969 11.955C11.2985 11.9007 11.1032 11.8356 10.9119 11.7598C10.5985 11.8678 10.273 11.9365 9.94272 11.9645C9.93457 11.9649 9.9264 11.9649 9.91825 11.9645C9.91001 11.9649 9.90174 11.9649 9.8935 11.9645C9.56305 11.9366 9.23723 11.8686 8.92319 11.762C8.72001 11.8427 8.51216 11.911 8.30078 11.9668L9.79337 13.3426L11.4969 11.955Z" fill="#A461D8"/>
<path d="M12.7513 12.1264C12.5727 12.1258 12.3943 12.1149 12.217 12.0938L9.10352 14.6301V16.8742H16.7794V15.9798C16.7779 14.9616 16.3746 13.9851 15.6571 13.2625C14.9397 12.54 13.9661 12.1298 12.9479 12.121C12.883 12.123 12.8188 12.1264 12.7513 12.1264Z" fill="#A461D8"/>
<path d="M13.1843 7.44653C13.1927 7.57478 13.1986 7.72272 13.1986 7.8881C13.1986 9.53341 12.6451 10.7473 11.6357 11.4099C12.0503 11.525 12.4801 11.5754 12.9101 11.5593C12.9129 11.5593 12.9154 11.5576 12.9185 11.5576H12.9346C13.5337 11.5317 14.118 11.3635 14.6392 11.0668C14.2263 10.5732 14.0084 9.39616 13.9881 7.56128C13.717 7.54987 13.4478 7.51143 13.1843 7.44653Z" fill="#A461D8"/>
<path d="M6.92577 11.5561C6.92914 11.5561 6.93167 11.5581 6.93505 11.5581C7.36137 11.5742 7.78764 11.5248 8.19898 11.4116C7.92601 11.2323 7.68414 11.0096 7.48292 10.7523C6.60092 9.62733 6.60739 8.05598 6.6642 7.3492C6.39538 7.35899 6.1262 7.3526 5.85814 7.33008C5.8542 9.29883 5.63539 10.5521 5.20508 11.0662C5.72586 11.3626 6.30968 11.5308 6.90833 11.557C6.91423 11.557 6.91986 11.5561 6.92577 11.5561Z" fill="#A461D8"/>
</svg>
