<svg width="20" height="20" viewBox="0 0 20 20" fill="none" xmlns="http://www.w3.org/2000/svg">
<path d="M18.3332 9.9974C18.3332 14.5974 14.5998 18.3307 9.99984 18.3307C5.39984 18.3307 1.6665 14.5974 1.6665 9.9974C1.6665 5.3974 5.39984 1.66406 9.99984 1.66406" stroke="#4B4AD5" stroke-width="2" stroke-linecap="round" stroke-linejoin="round"/>
<path d="M12.2562 7.93487L12.0054 8.84076H7.21496L7.46574 7.93487H12.2562ZM9.93772 13.5391L7.36338 10.5041L7.35826 9.74152H8.58146C8.89877 9.74152 9.15979 9.68522 9.36451 9.57263C9.57264 9.45662 9.72788 9.30137 9.83024 9.10689C9.9326 8.909 9.98378 8.68892 9.98378 8.44667C9.98378 8.18395 9.93602 7.95193 9.84048 7.75063C9.74494 7.54932 9.59311 7.39237 9.38498 7.27977C9.17685 7.16718 8.90218 7.11088 8.56098 7.11088H7.22007L7.49644 6.08728H8.56098C9.16491 6.08728 9.66647 6.1777 10.0657 6.35853C10.4649 6.53937 10.7634 6.80209 10.9613 7.1467C11.1626 7.49131 11.2633 7.90758 11.2633 8.39549C11.2633 8.82199 11.1899 9.19901 11.0432 9.52657C10.8965 9.8507 10.6594 10.1134 10.3318 10.3147C10.0043 10.5126 9.56923 10.6355 9.02672 10.6832L11.381 13.4725V13.5391H9.93772ZM12.2613 6.08728L12.0054 6.99316H8.09013L8.34091 6.08728H12.2613Z" fill="#4B4AD5"/>
<path d="M18.3333 4.9974V1.66406H15" stroke="#4B4AD5" stroke-width="1.5" stroke-linecap="round" stroke-linejoin="round"/>
<path d="M14.1665 5.83073L18.3332 1.66406" stroke="#4B4AD5" stroke-width="1.5" stroke-linecap="round" stroke-linejoin="round"/>
</svg>
