<svg xmlns="http://www.w3.org/2000/svg" width="21" height="21" viewBox="0 0 21 21" fill="none">
  <g clip-path="url(#clip0_561_44620)">
    <path d="M3.71846 10.3426C4.17426 10.2793 4.59548 10.5978 4.65889 11.0536C4.83753 12.339 5.43401 13.53 6.35616 14.4432C7.2782 15.3562 8.47451 15.9412 9.76143 16.1073C11.0485 16.2734 12.3545 16.0113 13.4782 15.3622C14.2175 14.9351 14.8515 14.3563 15.3405 13.6688H13.8327C13.3727 13.6686 12.9997 13.2949 12.9997 12.8348C12.9999 12.3749 13.3728 12.0021 13.8327 12.0018H17.1667C17.6268 12.0019 17.9996 12.3748 17.9997 12.8348V16.1688C17.9995 16.6288 17.6267 17.0017 17.1667 17.0018C16.7066 17.0018 16.3329 16.6289 16.3327 16.1688V15.1073C15.7673 15.7826 15.085 16.3591 14.3122 16.8055C12.872 17.6376 11.1982 17.9734 9.54854 17.7606C7.89897 17.5478 6.36518 16.7981 5.18331 15.6278C4.0014 14.4574 3.23648 12.9306 3.00752 11.2831C2.94425 10.8273 3.26265 10.406 3.71846 10.3426ZM6.68721 3.86412C8.12737 3.03214 9.80135 2.69727 11.4509 2.91002C13.1006 3.12288 14.6352 3.87241 15.8171 5.04283C16.9989 6.21322 17.763 7.74014 17.9919 9.38756C18.055 9.84324 17.7367 10.2637 17.281 10.327C16.8252 10.3902 16.4048 10.0718 16.3415 9.61608C16.1628 8.33078 15.5663 7.13952 14.6442 6.22643C13.7221 5.31332 12.525 4.72942 11.238 4.56334C9.95093 4.39727 8.64491 4.65834 7.5212 5.30748C6.7818 5.73464 6.1479 6.31424 5.65889 7.00182H7.1667C7.6268 7.00186 7.99955 7.37475 7.99971 7.83483C7.99971 8.29504 7.6269 8.66877 7.1667 8.66881H3.8337C3.37346 8.66881 2.99971 8.29506 2.99971 7.83483V4.50182C2.99971 4.04158 3.37346 3.66881 3.8337 3.66881C4.29375 3.66903 4.6667 4.04172 4.6667 4.50182V5.56237C5.23215 4.8871 5.91446 4.31055 6.68721 3.86412Z" fill="#4B4AD5"/>
  </g>
  <defs>
    <clipPath id="clip0_561_44620">
      <rect width="20" height="20" fill="white" transform="translate(0.5 0.334961)"/>
    </clipPath>
  </defs>
</svg>