<svg width="45" height="40" viewBox="0 0 45 40" fill="none" xmlns="http://www.w3.org/2000/svg">
<g id="Frame 1410087365">
<g id="Group">
<path id="Vector" d="M37.6094 32.865C37.259 33.4558 37.3937 35.7824 37.7711 36.1147C38.3371 36.5948 39.3882 36.5023 39.5769 35.9668C40.1699 34.3236 38.391 31.5171 37.6094 32.865Z" fill="url(#paint0_linear_612_80446)"/>
<path id="Vector_2" d="M8.28497 10.0622C8.12325 10.8746 8.20417 12.9794 8.25807 14.235C8.28502 14.6227 8.71624 14.9181 9.25529 14.955C10.8186 15.0473 11.142 13.0164 10.1448 9.67449C9.90219 8.84363 8.50059 9.1206 8.28497 10.0622Z" fill="url(#paint1_linear_612_80446)"/>
<path id="Vector_3" d="M14.5368 8.34561C16.8548 8.34561 18.1485 8.10564 18.1485 7.66251C18.1485 7.09014 16.2079 6.9424 13.297 7.25628C10.1705 7.62555 11.006 8.34561 14.5368 8.34561Z" fill="url(#paint2_linear_612_80446)"/>
<path id="Vector_4" d="M8.23107 0.16602C7.5842 0.350655 7.77287 6.07432 8.41974 6.31434C10.1986 6.96057 10.9803 6.24055 10.7646 4.24648C10.2525 0.0921836 10.01 -0.332496 8.23107 0.16602Z" fill="url(#paint3_linear_612_80446)"/>
<path id="Vector_5" d="M2.89388 7.21886C1.08805 7.36657 0.629883 7.49574 0.629883 7.88347C0.629883 8.49277 6.02042 8.64048 7.2872 8.06811C8.79655 7.38496 6.45164 6.92344 2.89388 7.21886Z" fill="url(#paint4_linear_612_80446)"/>
<path id="Vector_6" d="M37.9044 30.4649C38.3895 30.428 38.7668 30.1695 38.7668 29.8371C38.9016 27.6584 39.0094 26.2183 37.0419 26.7537C36.6645 26.8645 36.5837 28.2308 36.8801 29.671C37.0688 30.5018 37.0958 30.5203 37.9044 30.4649Z" fill="url(#paint5_linear_612_80446)"/>
<path id="Vector_7" d="M40.0343 31.2583C39.1988 31.4983 39.2797 31.9413 40.1961 32.0705C41.0046 32.1997 44.1851 31.886 44.805 31.6276C45.937 31.129 41.6515 30.7967 40.0343 31.2583Z" fill="url(#paint6_linear_612_80446)"/>
<path id="Vector_8" d="M36.3416 31.2399C35.4791 31.0183 35.2905 31.0183 33.9159 31.2953C31.8405 31.72 32.703 32.2923 35.1018 32.0708C36.7729 31.9231 37.3658 31.5169 36.3416 31.2399Z" fill="url(#paint7_linear_612_80446)"/>
<path id="Vector_9" d="M33.2158 22.5437C33.8897 21.7682 33.674 20.7897 32.7307 20.1804C30.3858 18.6664 28.1218 16.0815 26.8011 13.4043C26.0464 11.9087 24.0519 5.9081 24.0519 5.1511C24.0519 4.19099 22.5156 3.7109 21.5453 4.37559C21.3297 4.5233 21.0602 5.16958 20.9793 5.8158C20.4672 9.06539 17.6641 16.4323 16.0739 18.6479C15.2923 19.7372 13.6751 20.7897 11.9771 21.3067C10.5217 21.7498 10.5217 21.8236 12.3275 22.8945C15.9122 25.0363 18.5536 29.2644 20.4133 35.8744C22.0844 41.8012 25.0222 39.881 24.6988 38.6809C24.025 36.3544 27.987 28.5444 32.5151 23.3376L33.2158 22.5437ZM29.7659 21.7867C27.1515 24.0762 24.3214 27.6581 22.9738 30.4092L22.3539 31.7016L22.0035 30.5015C19.5508 22.3591 14.5646 21.9529 14.0255 21.6021C14.6185 21.1774 19.9821 18.8695 22.4617 13.552C23.2164 11.9456 23.0816 11.9456 23.8093 13.4596C25.1839 16.3215 27.0976 18.6479 29.3077 20.1988L30.5745 21.0851L29.7659 21.7867Z" fill="url(#paint8_linear_612_80446)"/>
</g>
</g>
<defs>
<linearGradient id="paint0_linear_612_80446" x1="38.551" y1="32.5098" x2="38.551" y2="36.4269" gradientUnits="userSpaceOnUse">
<stop stop-color="#4544C5"/>
<stop offset="1" stop-color="#A41BF0"/>
</linearGradient>
<linearGradient id="paint1_linear_612_80446" x1="9.4517" y1="9.18066" x2="9.4517" y2="14.9581" gradientUnits="userSpaceOnUse">
<stop stop-color="#4544C5"/>
<stop offset="1" stop-color="#A41BF0"/>
</linearGradient>
<linearGradient id="paint2_linear_612_80446" x1="14.7544" y1="7.09473" x2="14.7544" y2="8.34561" gradientUnits="userSpaceOnUse">
<stop stop-color="#4544C5"/>
<stop offset="1" stop-color="#A41BF0"/>
</linearGradient>
<linearGradient id="paint3_linear_612_80446" x1="9.31485" y1="0" x2="9.31485" y2="6.54482" gradientUnits="userSpaceOnUse">
<stop stop-color="#4544C5"/>
<stop offset="1" stop-color="#A41BF0"/>
</linearGradient>
<linearGradient id="paint4_linear_612_80446" x1="4.19126" y1="7.12793" x2="4.19126" y2="8.42759" gradientUnits="userSpaceOnUse">
<stop stop-color="#4544C5"/>
<stop offset="1" stop-color="#A41BF0"/>
</linearGradient>
<linearGradient id="paint5_linear_612_80446" x1="37.7656" y1="26.6416" x2="37.7656" y2="30.4834" gradientUnits="userSpaceOnUse">
<stop stop-color="#4544C5"/>
<stop offset="1" stop-color="#A41BF0"/>
</linearGradient>
<linearGradient id="paint6_linear_612_80446" x1="42.224" y1="31.0381" x2="42.224" y2="32.1006" gradientUnits="userSpaceOnUse">
<stop stop-color="#4544C5"/>
<stop offset="1" stop-color="#A41BF0"/>
</linearGradient>
<linearGradient id="paint7_linear_612_80446" x1="34.7959" y1="31.0801" x2="34.7959" y2="32.1201" gradientUnits="userSpaceOnUse">
<stop stop-color="#4544C5"/>
<stop offset="1" stop-color="#A41BF0"/>
</linearGradient>
<linearGradient id="paint8_linear_612_80446" x1="22.2669" y1="4.06738" x2="22.2669" y2="39.9608" gradientUnits="userSpaceOnUse">
<stop stop-color="#4544C5"/>
<stop offset="1" stop-color="#A41BF0"/>
</linearGradient>
</defs>
</svg>
