<svg width="210" height="297" viewBox="0 0 210 297" fill="none" xmlns="http://www.w3.org/2000/svg">
<rect x="0.5" y="0.5" width="209" height="296" fill="white" stroke="#A2A2A8"/>
<path d="M68.5578 132.625H72.5812C73.4458 132.625 74.1828 132.755 74.7922 133.016C75.4016 133.276 75.8677 133.661 76.1906 134.172C76.5187 134.677 76.6828 135.302 76.6828 136.047C76.6828 136.615 76.5786 137.115 76.3703 137.547C76.162 137.979 75.8677 138.344 75.4875 138.641C75.1073 138.932 74.6542 139.159 74.1281 139.32L73.5344 139.609H69.9172L69.9016 138.055H72.6125C73.0812 138.055 73.4719 137.971 73.7844 137.805C74.0969 137.638 74.3312 137.411 74.4875 137.125C74.649 136.833 74.7297 136.505 74.7297 136.141C74.7297 135.745 74.6516 135.401 74.4953 135.109C74.3443 134.812 74.1099 134.586 73.7922 134.43C73.4745 134.268 73.0708 134.188 72.5812 134.188H70.5187V144H68.5578V132.625ZM75.05 144L72.3781 138.891L74.4328 138.883L77.1437 143.898V144H75.05ZM79.9859 135.547L81.5953 138.352L83.2359 135.547H85.3062L82.7437 139.695L85.4078 144H83.3375L81.6187 141.078L79.9 144H77.8219L80.4781 139.695L77.9234 135.547H79.9859ZM94.2719 144H91.8422L91.8578 142.445H94.2719C94.975 142.445 95.5635 142.292 96.0375 141.984C96.5167 141.677 96.876 141.237 97.1156 140.664C97.3604 140.091 97.4828 139.409 97.4828 138.617V138C97.4828 137.385 97.4125 136.841 97.2719 136.367C97.1365 135.893 96.9333 135.495 96.6625 135.172C96.3969 134.849 96.0687 134.604 95.6781 134.438C95.2927 134.271 94.8474 134.188 94.3422 134.188H91.7953V132.625H94.3422C95.0974 132.625 95.7875 132.753 96.4125 133.008C97.0375 133.258 97.5766 133.62 98.0297 134.094C98.488 134.568 98.8396 135.135 99.0844 135.797C99.3292 136.458 99.4516 137.198 99.4516 138.016V138.617C99.4516 139.435 99.3292 140.174 99.0844 140.836C98.8396 141.497 98.488 142.065 98.0297 142.539C97.5714 143.008 97.0245 143.37 96.3891 143.625C95.7589 143.875 95.0531 144 94.2719 144ZM92.9281 132.625V144H90.9672V132.625H92.9281ZM103.348 135.547V144H101.458V135.547H103.348ZM101.333 133.328C101.333 133.042 101.427 132.805 101.614 132.617C101.807 132.424 102.072 132.328 102.411 132.328C102.744 132.328 103.007 132.424 103.2 132.617C103.393 132.805 103.489 133.042 103.489 133.328C103.489 133.609 103.393 133.844 103.2 134.031C103.007 134.219 102.744 134.312 102.411 134.312C102.072 134.312 101.807 134.219 101.614 134.031C101.427 133.844 101.333 133.609 101.333 133.328ZM110.253 141.711C110.253 141.523 110.206 141.354 110.112 141.203C110.019 141.047 109.839 140.906 109.573 140.781C109.313 140.656 108.928 140.542 108.417 140.438C107.969 140.339 107.558 140.221 107.183 140.086C106.813 139.945 106.495 139.776 106.23 139.578C105.964 139.38 105.758 139.146 105.612 138.875C105.467 138.604 105.394 138.292 105.394 137.938C105.394 137.594 105.469 137.268 105.62 136.961C105.771 136.654 105.987 136.383 106.269 136.148C106.55 135.914 106.891 135.729 107.292 135.594C107.698 135.458 108.152 135.391 108.652 135.391C109.36 135.391 109.967 135.51 110.472 135.75C110.982 135.984 111.373 136.305 111.644 136.711C111.915 137.112 112.05 137.565 112.05 138.07H110.167C110.167 137.846 110.11 137.638 109.995 137.445C109.886 137.247 109.719 137.089 109.495 136.969C109.271 136.844 108.99 136.781 108.652 136.781C108.329 136.781 108.06 136.833 107.847 136.938C107.639 137.036 107.482 137.167 107.378 137.328C107.279 137.49 107.23 137.667 107.23 137.859C107.23 138 107.256 138.128 107.308 138.242C107.365 138.352 107.459 138.453 107.589 138.547C107.719 138.635 107.896 138.719 108.12 138.797C108.349 138.875 108.636 138.951 108.98 139.023C109.626 139.159 110.18 139.333 110.644 139.547C111.112 139.755 111.472 140.026 111.722 140.359C111.972 140.688 112.097 141.104 112.097 141.609C112.097 141.984 112.016 142.328 111.855 142.641C111.698 142.948 111.469 143.216 111.167 143.445C110.865 143.669 110.503 143.844 110.081 143.969C109.665 144.094 109.196 144.156 108.675 144.156C107.909 144.156 107.261 144.021 106.73 143.75C106.198 143.474 105.795 143.122 105.519 142.695C105.248 142.263 105.112 141.815 105.112 141.352H106.933C106.954 141.701 107.05 141.979 107.222 142.188C107.399 142.391 107.618 142.539 107.878 142.633C108.144 142.721 108.417 142.766 108.698 142.766C109.037 142.766 109.321 142.721 109.55 142.633C109.779 142.539 109.954 142.414 110.073 142.258C110.193 142.096 110.253 141.914 110.253 141.711ZM115.736 137.172V147.25H113.853V135.547H115.587L115.736 137.172ZM121.244 139.695V139.859C121.244 140.474 121.171 141.044 121.025 141.57C120.884 142.091 120.673 142.547 120.392 142.938C120.116 143.323 119.775 143.622 119.369 143.836C118.962 144.049 118.494 144.156 117.962 144.156C117.436 144.156 116.976 144.06 116.58 143.867C116.189 143.669 115.858 143.391 115.587 143.031C115.317 142.672 115.098 142.25 114.931 141.766C114.77 141.276 114.655 140.74 114.587 140.156V139.523C114.655 138.904 114.77 138.341 114.931 137.836C115.098 137.331 115.317 136.896 115.587 136.531C115.858 136.167 116.189 135.885 116.58 135.688C116.97 135.49 117.426 135.391 117.947 135.391C118.478 135.391 118.949 135.495 119.361 135.703C119.772 135.906 120.119 136.198 120.4 136.578C120.681 136.953 120.892 137.406 121.033 137.938C121.173 138.464 121.244 139.049 121.244 139.695ZM119.361 139.859V139.695C119.361 139.305 119.324 138.943 119.252 138.609C119.179 138.271 119.064 137.974 118.908 137.719C118.752 137.464 118.551 137.266 118.306 137.125C118.067 136.979 117.778 136.906 117.439 136.906C117.106 136.906 116.819 136.964 116.58 137.078C116.34 137.188 116.14 137.341 115.978 137.539C115.817 137.737 115.692 137.969 115.603 138.234C115.515 138.495 115.452 138.779 115.416 139.086V140.602C115.478 140.977 115.585 141.32 115.736 141.633C115.887 141.945 116.101 142.195 116.377 142.383C116.658 142.565 117.017 142.656 117.455 142.656C117.793 142.656 118.082 142.583 118.322 142.438C118.561 142.292 118.757 142.091 118.908 141.836C119.064 141.576 119.179 141.276 119.252 140.938C119.324 140.599 119.361 140.24 119.361 139.859ZM124.961 132V144H123.07V132H124.961ZM131.889 142.305V138.273C131.889 137.971 131.834 137.711 131.725 137.492C131.616 137.273 131.449 137.104 131.225 136.984C131.006 136.865 130.73 136.805 130.397 136.805C130.09 136.805 129.824 136.857 129.6 136.961C129.376 137.065 129.202 137.206 129.077 137.383C128.952 137.56 128.889 137.76 128.889 137.984H127.014C127.014 137.651 127.095 137.328 127.256 137.016C127.418 136.703 127.652 136.424 127.959 136.18C128.267 135.935 128.634 135.742 129.061 135.602C129.488 135.461 129.967 135.391 130.498 135.391C131.134 135.391 131.696 135.497 132.186 135.711C132.681 135.924 133.069 136.247 133.35 136.68C133.636 137.107 133.78 137.643 133.78 138.289V142.047C133.78 142.432 133.806 142.779 133.858 143.086C133.915 143.388 133.996 143.651 134.1 143.875V144H132.17C132.082 143.797 132.011 143.539 131.959 143.227C131.912 142.909 131.889 142.602 131.889 142.305ZM132.162 138.859L132.178 140.023H130.827C130.478 140.023 130.17 140.057 129.905 140.125C129.639 140.188 129.418 140.281 129.241 140.406C129.064 140.531 128.931 140.682 128.842 140.859C128.754 141.036 128.709 141.237 128.709 141.461C128.709 141.685 128.761 141.891 128.866 142.078C128.97 142.26 129.121 142.404 129.319 142.508C129.522 142.612 129.767 142.664 130.053 142.664C130.439 142.664 130.774 142.586 131.061 142.43C131.353 142.268 131.582 142.073 131.748 141.844C131.915 141.609 132.004 141.388 132.014 141.18L132.623 142.016C132.561 142.229 132.454 142.458 132.303 142.703C132.152 142.948 131.954 143.182 131.709 143.406C131.47 143.625 131.181 143.805 130.842 143.945C130.509 144.086 130.123 144.156 129.686 144.156C129.134 144.156 128.642 144.047 128.209 143.828C127.777 143.604 127.439 143.305 127.194 142.93C126.949 142.549 126.827 142.12 126.827 141.641C126.827 141.193 126.91 140.797 127.077 140.453C127.248 140.104 127.498 139.812 127.827 139.578C128.16 139.344 128.566 139.167 129.045 139.047C129.524 138.922 130.071 138.859 130.686 138.859H132.162ZM138.177 143.078L140.473 135.547H142.489L139.098 145.289C139.02 145.497 138.919 145.724 138.794 145.969C138.669 146.214 138.505 146.445 138.302 146.664C138.104 146.888 137.856 147.068 137.559 147.203C137.262 147.344 136.903 147.414 136.481 147.414C136.315 147.414 136.153 147.398 135.997 147.367C135.846 147.341 135.703 147.312 135.567 147.281L135.559 145.844C135.611 145.849 135.674 145.854 135.747 145.859C135.825 145.865 135.887 145.867 135.934 145.867C136.247 145.867 136.507 145.828 136.716 145.75C136.924 145.677 137.093 145.557 137.223 145.391C137.359 145.224 137.473 145 137.567 144.719L138.177 143.078ZM136.88 135.547L138.887 141.875L139.223 143.859L137.919 144.195L134.848 135.547H136.88ZM93.7797 154.141L90.3813 164H88.3266L92.6078 152.625H93.9203L93.7797 154.141ZM96.6234 164L93.2172 154.141L93.0688 152.625H94.3891L98.6859 164H96.6234ZM96.4594 159.781V161.336H90.2719V159.781H96.4594ZM101.763 157.156V164H99.8797V155.547H101.677L101.763 157.156ZM104.348 155.492L104.333 157.242C104.218 157.221 104.093 157.206 103.958 157.195C103.828 157.185 103.697 157.18 103.567 157.18C103.244 157.18 102.96 157.227 102.716 157.32C102.471 157.409 102.265 157.539 102.098 157.711C101.937 157.878 101.812 158.081 101.723 158.32C101.635 158.56 101.583 158.828 101.567 159.125L101.138 159.156C101.138 158.625 101.19 158.133 101.294 157.68C101.398 157.227 101.554 156.828 101.763 156.484C101.976 156.141 102.242 155.872 102.559 155.68C102.882 155.487 103.255 155.391 103.677 155.391C103.791 155.391 103.914 155.401 104.044 155.422C104.179 155.443 104.281 155.466 104.348 155.492ZM109.198 164.156C108.573 164.156 108.008 164.055 107.503 163.852C107.003 163.643 106.576 163.354 106.222 162.984C105.873 162.615 105.605 162.18 105.417 161.68C105.23 161.18 105.136 160.641 105.136 160.062V159.75C105.136 159.089 105.232 158.49 105.425 157.953C105.618 157.417 105.886 156.958 106.23 156.578C106.573 156.193 106.98 155.898 107.448 155.695C107.917 155.492 108.425 155.391 108.972 155.391C109.576 155.391 110.105 155.492 110.558 155.695C111.011 155.898 111.386 156.185 111.683 156.555C111.985 156.919 112.209 157.354 112.355 157.859C112.506 158.365 112.581 158.922 112.581 159.531V160.336H106.05V158.984H110.722V158.836C110.711 158.497 110.644 158.18 110.519 157.883C110.399 157.586 110.214 157.346 109.964 157.164C109.714 156.982 109.381 156.891 108.964 156.891C108.652 156.891 108.373 156.958 108.128 157.094C107.889 157.224 107.688 157.414 107.527 157.664C107.365 157.914 107.24 158.216 107.152 158.57C107.068 158.919 107.027 159.312 107.027 159.75V160.062C107.027 160.432 107.076 160.776 107.175 161.094C107.279 161.406 107.43 161.68 107.628 161.914C107.826 162.148 108.066 162.333 108.347 162.469C108.628 162.599 108.948 162.664 109.308 162.664C109.761 162.664 110.165 162.573 110.519 162.391C110.873 162.208 111.18 161.951 111.441 161.617L112.433 162.578C112.251 162.844 112.014 163.099 111.722 163.344C111.43 163.583 111.073 163.779 110.652 163.93C110.235 164.081 109.751 164.156 109.198 164.156ZM118.916 162.305V158.273C118.916 157.971 118.861 157.711 118.752 157.492C118.642 157.273 118.476 157.104 118.252 156.984C118.033 156.865 117.757 156.805 117.423 156.805C117.116 156.805 116.851 156.857 116.627 156.961C116.403 157.065 116.228 157.206 116.103 157.383C115.978 157.56 115.916 157.76 115.916 157.984H114.041C114.041 157.651 114.121 157.328 114.283 157.016C114.444 156.703 114.679 156.424 114.986 156.18C115.293 155.935 115.66 155.742 116.088 155.602C116.515 155.461 116.994 155.391 117.525 155.391C118.16 155.391 118.723 155.497 119.213 155.711C119.707 155.924 120.095 156.247 120.377 156.68C120.663 157.107 120.806 157.643 120.806 158.289V162.047C120.806 162.432 120.832 162.779 120.884 163.086C120.942 163.388 121.022 163.651 121.127 163.875V164H119.197C119.108 163.797 119.038 163.539 118.986 163.227C118.939 162.909 118.916 162.602 118.916 162.305ZM119.189 158.859L119.205 160.023H117.853C117.504 160.023 117.197 160.057 116.931 160.125C116.666 160.188 116.444 160.281 116.267 160.406C116.09 160.531 115.957 160.682 115.869 160.859C115.78 161.036 115.736 161.237 115.736 161.461C115.736 161.685 115.788 161.891 115.892 162.078C115.996 162.26 116.147 162.404 116.345 162.508C116.548 162.612 116.793 162.664 117.08 162.664C117.465 162.664 117.801 162.586 118.088 162.43C118.379 162.268 118.608 162.073 118.775 161.844C118.942 161.609 119.03 161.388 119.041 161.18L119.65 162.016C119.588 162.229 119.481 162.458 119.33 162.703C119.179 162.948 118.981 163.182 118.736 163.406C118.496 163.625 118.207 163.805 117.869 163.945C117.535 164.086 117.15 164.156 116.713 164.156C116.16 164.156 115.668 164.047 115.236 163.828C114.804 163.604 114.465 163.305 114.22 162.93C113.976 162.549 113.853 162.12 113.853 161.641C113.853 161.193 113.936 160.797 114.103 160.453C114.275 160.104 114.525 159.812 114.853 159.578C115.186 159.344 115.593 159.167 116.072 159.047C116.551 158.922 117.098 158.859 117.713 158.859H119.189Z" fill="#A2A2A8"/>
<rect x="1" y="1" width="208" height="25" fill="#F1F1F5"/>
<rect x="1" y="281" width="260" height="10" transform="rotate(-90 1 281)" fill="#F1F1F5"/>
<rect x="199" y="281" width="260" height="10" transform="rotate(-90 199 281)" fill="#F1F1F5"/>
<rect x="1" y="281" width="208" height="15" fill="#F1F1F5"/>
<line x1="1" y1="280.5" x2="210" y2="280.5" stroke="#FC5A5A" stroke-dasharray="5 5"/>
<line x1="10.5" y1="296" x2="10.5" y2="1" stroke="#FC5A5A" stroke-dasharray="5 5"/>
<line x1="198.5" y1="296" x2="198.5" y2="1" stroke="#FC5A5A" stroke-dasharray="5 5"/>
<line x1="1" y1="25.5" x2="210" y2="25.5" stroke="#FC5A5A" stroke-dasharray="5 5"/>
</svg>
