<svg width="25" height="25" viewBox="0 0 25 25" fill="none" xmlns="http://www.w3.org/2000/svg">
<path d="M7.625 3.29688C5.96815 3.29688 4.625 4.64002 4.625 6.29688V19.2969C4.625 20.9537 5.96815 22.2969 7.625 22.2969H17.625C19.2819 22.2969 20.625 20.9537 20.625 19.2969V6.29688C20.625 4.64002 19.2819 3.29688 17.625 3.29688H7.625Z" fill="white"/>
<path d="M9.625 3.29687C9.625 2.74459 10.0727 2.29688 10.625 2.29688H14.625C15.1773 2.29688 15.625 2.74459 15.625 3.29688V4.29688C15.625 4.84916 15.1773 5.29688 14.625 5.29688H10.625C10.0727 5.29688 9.625 4.84916 9.625 4.29688V3.29687Z" fill="#A6A6FF"/>
<g clip-path="url(#clip0_2283_40953)">
<path d="M9.87207 13.0693H12.2172C12.7435 13.0693 13.2483 12.8603 13.6204 12.4881C13.9925 12.116 14.2016 11.6112 14.2016 11.085C14.2016 10.5587 13.9925 10.0539 13.6204 9.68179C13.2483 9.30965 12.7435 9.10059 12.2172 9.10059H9.87207V15.9557" stroke="#4B4AD5" stroke-width="0.721588" stroke-linecap="round" stroke-linejoin="round"/>
<path d="M11.6763 13.0688L15.645 17.0376" stroke="#4B4AD5" stroke-width="0.721588" stroke-linecap="round" stroke-linejoin="round"/>
<path d="M15.6447 14.5127L13.1191 17.0383" stroke="#4B4AD5" stroke-width="0.721588" stroke-linecap="round" stroke-linejoin="round"/>
</g>
<defs>
<clipPath id="clip0_2283_40953">
<rect width="11.5454" height="11.5454" fill="white" transform="translate(6.625 7.29688)"/>
</clipPath>
</defs>
</svg>
