<svg width="24" height="25" viewBox="0 0 24 25" fill="none" xmlns="http://www.w3.org/2000/svg">
<path d="M7 3.51562C5.34315 3.51562 4 4.85877 4 6.51562V19.5156C4 21.1725 5.34315 22.5156 7 22.5156H17C18.6569 22.5156 20 21.1725 20 19.5156V6.51562C20 4.85877 18.6569 3.51562 17 3.51562H7Z" fill="#4B4AD5"/>
<path d="M9 3.51562C9 2.96334 9.44772 2.51562 10 2.51562H14C14.5523 2.51562 15 2.96334 15 3.51562V4.51562C15 5.06791 14.5523 5.51562 14 5.51562H10C9.44772 5.51562 9 5.06791 9 4.51562V3.51562Z" fill="#A6A6FF"/>
<g clip-path="url(#clip0_2273_17418)">
<path d="M9.24707 13.2886H11.5922C12.1185 13.2886 12.6233 13.0795 12.9954 12.7074C13.3675 12.3352 13.5766 11.8305 13.5766 11.3042C13.5766 10.7779 13.3675 10.2732 12.9954 9.90103C12.6233 9.52889 12.1185 9.31982 11.5922 9.31982H9.24707V16.1749" stroke="white" stroke-width="0.721588" stroke-linecap="round" stroke-linejoin="round"/>
<path d="M11.0513 13.2881L15.02 17.2568" stroke="white" stroke-width="0.721588" stroke-linecap="round" stroke-linejoin="round"/>
<path d="M15.0197 14.7314L12.4941 17.257" stroke="white" stroke-width="0.721588" stroke-linecap="round" stroke-linejoin="round"/>
</g>
<defs>
<clipPath id="clip0_2273_17418">
<rect width="11.5454" height="11.5454" fill="white" transform="translate(6 7.51562)"/>
</clipPath>
</defs>
</svg>
