<svg width="26" height="26" viewBox="0 0 26 26" fill="none" xmlns="http://www.w3.org/2000/svg">
<path d="M2.54352 6.39302C8.99558 6.39302 15.0252 3.82336 17.2335 2.53853C19.0099 1.65749 19.7018 2.90563 19.8258 3.63983C19.8258 9.80701 22.5142 15.5704 23.8584 17.6812C24.5497 19.0027 23.5703 19.8838 22.9943 20.1591C15.1596 20.5996 9.93651 23.0958 8.30429 24.2889C6.23041 24.9496 5.51992 23.6465 5.42391 22.9123C5.19347 16.9653 2.4475 10.8899 1.10332 8.59559C0.412031 7.05379 1.77541 6.48479 2.54352 6.39302Z" stroke="#4B4AD5" stroke-width="1.2"/>
<path d="M11.1734 1.8016C15.298 6.26815 21.012 8.72226 23.3535 9.391C25.1267 10.031 24.6658 11.3455 24.2137 11.9227C19.7508 16.0506 17.2987 21.7694 16.6305 24.1128C16.1161 25.4759 14.8525 25.3877 14.285 25.1731C8.95779 20.0443 3.81243 18.0994 1.90565 17.768C0.101722 16.7746 0.59058 15.4105 1.0605 14.8526C5.21671 10.7126 7.8578 4.7451 8.65881 2.27887C9.33262 0.768329 10.6159 1.3313 11.1734 1.8016Z" stroke="#4B4AD5" stroke-width="1.2"/>
<g clip-path="url(#clip0_2283_40945)">
<path d="M10.375 12.8633V9.86328C10.375 9.26654 10.6121 8.69425 11.034 8.27229C11.456 7.85033 12.0283 7.61328 12.625 7.61328C13.2217 7.61328 13.794 7.85033 14.216 8.27229C14.6379 8.69425 14.875 9.26654 14.875 9.86328V12.8633C14.875 13.46 14.6379 14.0323 14.216 14.4543C13.794 14.8762 13.2217 15.1133 12.625 15.1133C12.0283 15.1133 11.456 14.8762 11.034 14.4543C10.6121 14.0323 10.375 13.46 10.375 12.8633ZM16.375 12.8633C16.375 12.7638 16.3355 12.6684 16.2652 12.5981C16.1948 12.5278 16.0995 12.4883 16 12.4883C15.9005 12.4883 15.8052 12.5278 15.7348 12.5981C15.6645 12.6684 15.625 12.7638 15.625 12.8633C15.625 13.6589 15.3089 14.422 14.7463 14.9846C14.1837 15.5472 13.4206 15.8633 12.625 15.8633C11.8294 15.8633 11.0663 15.5472 10.5037 14.9846C9.94107 14.422 9.625 13.6589 9.625 12.8633C9.625 12.7638 9.58549 12.6684 9.51516 12.5981C9.44484 12.5278 9.34946 12.4883 9.25 12.4883C9.15054 12.4883 9.05516 12.5278 8.98484 12.5981C8.91451 12.6684 8.875 12.7638 8.875 12.8633C8.87614 13.7926 9.22184 14.6885 9.84524 15.3777C10.4686 16.0669 11.3255 16.5005 12.25 16.5945V18.1133C12.25 18.2127 12.2895 18.3081 12.3598 18.3784C12.4302 18.4488 12.5255 18.4883 12.625 18.4883C12.7245 18.4883 12.8198 18.4488 12.8902 18.3784C12.9605 18.3081 13 18.2127 13 18.1133V16.5945C13.9245 16.5005 14.7814 16.0669 15.4048 15.3777C16.0282 14.6885 16.3739 13.7926 16.375 12.8633Z" fill="#4B4AD5"/>
</g>
<defs>
<clipPath id="clip0_2283_40945">
<rect width="12" height="12" fill="white" transform="translate(6.625 6.86865)"/>
</clipPath>
</defs>
</svg>
