<svg width="51" height="47" viewBox="0 0 51 47" fill="none" xmlns="http://www.w3.org/2000/svg">
<g id="Frame 1410087360">
<g id="Group">
<path id="Vector" d="M38.5124 13.016C47.8801 6.20453 51.464 2.75254 49.7608 2.19776C48.8737 1.92037 48.4833 1.98198 46.922 2.62923C43.9059 3.92371 32.9414 12.0606 32.9414 13.016C32.9414 14.3413 36.6317 14.3721 38.5124 13.016Z" fill="url(#paint0_linear_612_80233)"/>
<path id="Vector_2" d="M13.926 13.2631C15.097 12.5851 15.026 12.4618 10.4841 8.17766C8.07121 5.86592 6.08425 4.41734 4.62941 3.86256C2.64232 3.09203 1.68422 4.14001 2.46486 5.003C9.13572 12.4618 11.9035 14.4343 13.926 13.2631Z" fill="url(#paint1_linear_612_80233)"/>
<path id="Vector_3" d="M45.5046 23.3094C43.3401 22.7546 32.2695 19.7033 31.4534 19.4259C31.063 19.3026 30.7792 18.6862 30.6372 17.6383C29.4663 9.80976 27.6208 1.76528 26.8046 0.871469C26.2014 0.193405 24.1433 0.409153 23.5756 1.17968C23.0078 1.95021 20.382 9.74812 18.8208 15.4192L17.7921 19.1177C-2.36289 24.6655 -3.46296 24.5422 5.65639 26.9771L13.7114 29.1346C18.2889 30.3674 18.3949 30.3979 18.6433 31.3842C18.9982 32.802 21.3046 39.7062 22.1917 43.004C24.0724 50.0929 27.905 45.7163 31.2759 32.5249L32.0566 29.5044C32.4824 29.4428 35.1788 29.227 46.8175 27.0387C49.4788 26.5148 48.6982 24.1107 45.5046 23.3094ZM40.4659 24.8196C40.182 25.0354 32.4111 26.6689 30.8853 26.6689C29.0401 26.6689 28.6143 27.4394 26.5208 34.6824C25.1369 39.4596 25.0308 39.5518 24.2501 36.7779C23.2921 33.2951 21.3401 29.227 21.0917 28.2716C20.8788 27.4086 18.8917 26.7922 11.1917 25.1895C7.32416 24.3881 6.72094 24.1107 8.1756 23.7409C9.98528 23.2786 18.6788 20.8129 19.6724 20.8129C20.6304 20.8129 21.4466 20.1965 21.7304 19.2718L24.4982 9.90222C24.9949 8.26871 24.9953 8.26871 26.3792 14.6487C27.9759 21.83 27.7982 21.5215 30.353 21.9838C33.5466 22.5694 40.7853 24.573 40.4659 24.8196Z" fill="url(#paint2_linear_612_80233)"/>
<path id="Vector_4" d="M34.0068 33.0166C34.0068 33.6947 43.3746 41.9239 44.6875 42.3862C47.4552 43.3725 48.1649 42.0777 45.9649 40.0127C40.0391 34.3725 34.0068 30.8592 34.0068 33.0166Z" fill="url(#paint3_linear_612_80233)"/>
<path id="Vector_5" d="M6.68495 34.9902C-0.127955 38.997 -0.908636 39.9216 2.49781 39.9216C4.16556 39.9216 14.7041 33.5725 14.3848 32.7403C13.888 31.4458 11.5106 32.1239 6.68495 34.9902Z" fill="url(#paint4_linear_612_80233)"/>
</g>
</g>
<defs>
<linearGradient id="paint0_linear_612_80233" x1="41.5558" y1="2.04149" x2="41.5558" y2="14.0216" gradientUnits="userSpaceOnUse">
<stop stop-color="#6635D4"/>
<stop offset="1" stop-color="#802ADF"/>
</linearGradient>
<linearGradient id="paint1_linear_612_80233" x1="8.37844" y1="3.59422" x2="8.37844" y2="13.5766" gradientUnits="userSpaceOnUse">
<stop stop-color="#6635D4"/>
<stop offset="1" stop-color="#802ADF"/>
</linearGradient>
<linearGradient id="paint2_linear_612_80233" x1="24.299" y1="0.464828" x2="24.299" y2="46.374" gradientUnits="userSpaceOnUse">
<stop stop-color="#6635D4"/>
<stop offset="1" stop-color="#802ADF"/>
</linearGradient>
<linearGradient id="paint3_linear_612_80233" x1="40.6348" y1="32.3741" x2="40.6348" y2="42.7233" gradientUnits="userSpaceOnUse">
<stop stop-color="#6635D4"/>
<stop offset="1" stop-color="#802ADF"/>
</linearGradient>
<linearGradient id="paint4_linear_612_80233" x1="7.46059" y1="32.1106" x2="7.46059" y2="39.9216" gradientUnits="userSpaceOnUse">
<stop stop-color="#6635D4"/>
<stop offset="1" stop-color="#802ADF"/>
</linearGradient>
</defs>
</svg>
