<svg xmlns="http://www.w3.org/2000/svg" width="25" height="25" viewBox="0 0 29 28" fill="none">
  <path fill-rule="evenodd" clip-rule="evenodd" d="M17.8984 5.83333C17.8984 3.256 19.9878 1.16667 22.5651 1.16667C25.1424 1.16667 27.2318 3.256 27.2318 5.83333C27.2318 8.41066 25.1424 10.5 22.5651 10.5C20.9721 10.5 19.5656 9.70186 18.7235 8.48366L10.6278 12.4301C10.803 12.9207 10.8984 13.4492 10.8984 14C10.8984 14.5128 10.8157 15.0062 10.663 15.4677L18.7123 19.5327C19.553 18.3053 20.965 17.5 22.5651 17.5C25.1424 17.5 27.2318 19.5893 27.2318 22.1667C27.2318 24.744 25.1424 26.8333 22.5651 26.8333C19.9878 26.8333 17.8984 24.744 17.8984 22.1667C17.8984 22.0246 17.9048 21.884 17.9172 21.7452L9.38775 17.4377C8.55696 18.2008 7.44877 18.6667 6.23177 18.6667C3.65444 18.6667 1.5651 16.5773 1.5651 14C1.5651 11.4227 3.65444 9.33333 6.23177 9.33333C7.40566 9.33333 8.47832 9.76677 9.29844 10.4823L17.9195 6.2798C17.9056 6.13285 17.8984 5.98393 17.8984 5.83333ZM24.8984 5.83333C24.8984 4.54467 23.8538 3.5 22.5651 3.5C21.2764 3.5 20.2318 4.54467 20.2318 5.83333C20.2318 7.122 21.2764 8.16667 22.5651 8.16667C23.8538 8.16667 24.8984 7.122 24.8984 5.83333ZM24.8984 22.1667C24.8984 20.878 23.8538 19.8333 22.5651 19.8333C21.2764 19.8333 20.2318 20.878 20.2318 22.1667C20.2318 23.4553 21.2764 24.5 22.5651 24.5C23.8538 24.5 24.8984 23.4553 24.8984 22.1667ZM6.23177 11.6667C7.52043 11.6667 8.5651 12.7113 8.5651 14C8.5651 15.2887 7.52043 16.3333 6.23177 16.3333C4.94311 16.3333 3.89844 15.2887 3.89844 14C3.89844 12.7113 4.94311 11.6667 6.23177 11.6667Z" fill="#4B4AD5"/>
  <path fill-rule="evenodd" clip-rule="evenodd" d="M17.8984 5.83333C17.8984 3.256 19.9878 1.16667 22.5651 1.16667C25.1424 1.16667 27.2318 3.256 27.2318 5.83333C27.2318 8.41066 25.1424 10.5 22.5651 10.5C20.9721 10.5 19.5656 9.70186 18.7235 8.48366L10.6278 12.4301C10.803 12.9207 10.8984 13.4492 10.8984 14C10.8984 14.5128 10.8157 15.0062 10.663 15.4677L18.7123 19.5327C19.553 18.3053 20.965 17.5 22.5651 17.5C25.1424 17.5 27.2318 19.5893 27.2318 22.1667C27.2318 24.744 25.1424 26.8333 22.5651 26.8333C19.9878 26.8333 17.8984 24.744 17.8984 22.1667C17.8984 22.0246 17.9048 21.884 17.9172 21.7452L9.38775 17.4377C8.55696 18.2008 7.44877 18.6667 6.23177 18.6667C3.65444 18.6667 1.5651 16.5773 1.5651 14C1.5651 11.4227 3.65444 9.33333 6.23177 9.33333C7.40566 9.33333 8.47832 9.76677 9.29844 10.4823L17.9195 6.2798C17.9056 6.13285 17.8984 5.98393 17.8984 5.83333ZM24.8984 5.83333C24.8984 4.54467 23.8538 3.5 22.5651 3.5C21.2764 3.5 20.2318 4.54467 20.2318 5.83333C20.2318 7.122 21.2764 8.16667 22.5651 8.16667C23.8538 8.16667 24.8984 7.122 24.8984 5.83333ZM24.8984 22.1667C24.8984 20.878 23.8538 19.8333 22.5651 19.8333C21.2764 19.8333 20.2318 20.878 20.2318 22.1667C20.2318 23.4553 21.2764 24.5 22.5651 24.5C23.8538 24.5 24.8984 23.4553 24.8984 22.1667ZM6.23177 11.6667C7.52043 11.6667 8.5651 12.7113 8.5651 14C8.5651 15.2887 7.52043 16.3333 6.23177 16.3333C4.94311 16.3333 3.89844 15.2887 3.89844 14C3.89844 12.7113 4.94311 11.6667 6.23177 11.6667Z" stroke="#4B4AD5"/>
</svg>