<svg xmlns="http://www.w3.org/2000/svg" width="20" height="20" viewBox="0 0 20 20" fill="none">
  <g clip-path="url(#clip0_744_1996)">
    <path fill-rule="evenodd" clip-rule="evenodd" d="M4.13922 4.13922C4.58853 3.68992 5.19792 3.4375 5.83333 3.4375H7.5C7.90271 3.4375 8.22917 3.76396 8.22917 4.16667C8.22917 4.56937 7.90271 4.89583 7.5 4.89583H5.83333C5.58469 4.89583 5.34624 4.99461 5.17042 5.17042C4.99461 5.34624 4.89583 5.58469 4.89583 5.83333V15.8333C4.89583 16.082 4.99461 16.3204 5.17042 16.4962C5.34624 16.6721 5.58469 16.7708 5.83333 16.7708H6.66667C7.06937 16.7708 7.39583 17.0973 7.39583 17.5C7.39583 17.9027 7.06937 18.2292 6.66667 18.2292H5.83333C5.19792 18.2292 4.58853 17.9767 4.13922 17.5274C3.68992 17.0781 3.4375 16.4687 3.4375 15.8333V5.83333C3.4375 5.19792 3.68992 4.58853 4.13922 4.13922ZM11.7708 4.16667C11.7708 3.76396 12.0973 3.4375 12.5 3.4375H14.1667C14.8021 3.4375 15.4115 3.68992 15.8608 4.13922C16.3101 4.58853 16.5625 5.19792 16.5625 5.83333V9.16667C16.5625 9.56937 16.236 9.89583 15.8333 9.89583C15.4306 9.89583 15.1042 9.56937 15.1042 9.16667V5.83333C15.1042 5.58469 15.0054 5.34624 14.8296 5.17042C14.6538 4.99461 14.4153 4.89583 14.1667 4.89583H12.5C12.0973 4.89583 11.7708 4.56937 11.7708 4.16667Z" fill="#9f9f9f"/>
    <path fill-rule="evenodd" clip-rule="evenodd" d="M9.16634 3.22909C8.9177 3.22909 8.67924 3.32786 8.50343 3.50367C8.32761 3.67949 8.22884 3.91795 8.22884 4.16659C8.22884 4.41523 8.32761 4.65368 8.50343 4.8295C8.67924 5.00531 8.9177 5.10409 9.16634 5.10409H10.833C11.0816 5.10409 11.3201 5.00531 11.4959 4.8295C11.6717 4.65368 11.7705 4.41523 11.7705 4.16659C11.7705 3.91795 11.6717 3.67949 11.4959 3.50367C11.3201 3.32786 11.0816 3.22909 10.833 3.22909H9.16634ZM7.47223 2.47248C7.92154 2.02317 8.53093 1.77075 9.16634 1.77075H10.833C11.4684 1.77075 12.0778 2.02317 12.5271 2.47248C12.9764 2.92178 13.2288 3.53117 13.2288 4.16659C13.2288 4.802 12.9764 5.41139 12.5271 5.8607C12.0778 6.31 11.4684 6.56242 10.833 6.56242H9.16634C8.53093 6.56242 7.92154 6.31 7.47223 5.8607C7.02293 5.41139 6.77051 4.802 6.77051 4.16659C6.77051 3.53117 7.02293 2.92178 7.47223 2.47248Z" fill="#9f9f9f"/>
    <path fill-rule="evenodd" clip-rule="evenodd" d="M13.5472 11.392C13.905 11.0342 14.3902 10.8333 14.8962 10.8333C15.4021 10.8333 15.8873 11.0342 16.2451 11.392C16.6029 11.7498 16.8038 12.235 16.8038 12.7409C16.8038 13.2469 16.6029 13.7321 16.2451 14.0899L12.0784 18.2565C11.9417 18.3933 11.7562 18.4701 11.5628 18.4701H9.89616C9.49345 18.4701 9.16699 18.1436 9.16699 17.7409V16.0743C9.16699 15.8809 9.24381 15.6954 9.38056 15.5587L13.5472 11.392ZM14.8962 12.2916C14.777 12.2916 14.6627 12.3389 14.5784 12.4232L10.6253 16.3763V17.0118H11.2608L15.2139 13.0587C15.2982 12.9744 15.3455 12.8601 15.3455 12.7409C15.3455 12.6218 15.2982 12.5075 15.2139 12.4232C15.1296 12.3389 15.0153 12.2916 14.8962 12.2916Z" fill="#9f9f9f"/>
  </g>
  <defs>
    <clipPath id="clip0_744_1996">
      <rect width="20" height="20" fill="white"/>
    </clipPath>
  </defs>
</svg>