<svg width="24" height="24" viewBox="0 0 24 24" fill="none" xmlns="http://www.w3.org/2000/svg">
<g clip-path="url(#clip0_1432_2595)">
<path fill-rule="evenodd" clip-rule="evenodd" d="M4.87868 4.87868C5.44129 4.31607 6.20435 4 7 4H9C9.55229 4 10 4.44772 10 5C10 5.55228 9.55229 6 9 6H7C6.73478 6 6.48043 6.10536 6.29289 6.29289C6.10536 6.48043 6 6.73478 6 7V19C6 19.2652 6.10536 19.5196 6.29289 19.7071C6.48043 19.8946 6.73478 20 7 20H17C17.2652 20 17.5196 19.8946 17.7071 19.7071C17.8946 19.5196 18 19.2652 18 19V7C18 6.73478 17.8946 6.48043 17.7071 6.29289C17.5196 6.10536 17.2652 6 17 6H15C14.4477 6 14 5.55228 14 5C14 4.44772 14.4477 4 15 4H17C17.7957 4 18.5587 4.31607 19.1213 4.87868C19.6839 5.44129 20 6.20435 20 7V19C20 19.7957 19.6839 20.5587 19.1213 21.1213C18.5587 21.6839 17.7957 22 17 22H7C6.20435 22 5.44129 21.6839 4.87868 21.1213C4.31607 20.5587 4 19.7956 4 19V7C4 6.20435 4.31607 5.44129 4.87868 4.87868Z" fill="#454551"/>
<path fill-rule="evenodd" clip-rule="evenodd" d="M11 4C10.7348 4 10.4804 4.10536 10.2929 4.29289C10.1054 4.48043 10 4.73478 10 5C10 5.26522 10.1054 5.51957 10.2929 5.70711C10.4804 5.89464 10.7348 6 11 6H13C13.2652 6 13.5196 5.89464 13.7071 5.70711C13.8946 5.51957 14 5.26522 14 5C14 4.73478 13.8946 4.48043 13.7071 4.29289C13.5196 4.10536 13.2652 4 13 4H11ZM8.87868 2.87868C9.44129 2.31607 10.2044 2 11 2H13C13.7956 2 14.5587 2.31607 15.1213 2.87868C15.6839 3.44129 16 4.20435 16 5C16 5.79565 15.6839 6.55871 15.1213 7.12132C14.5587 7.68393 13.7956 8 13 8H11C10.2044 8 9.44129 7.68393 8.87868 7.12132C8.31607 6.55871 8 5.79565 8 5C8 4.20435 8.31607 3.44129 8.87868 2.87868Z" fill="#454551"/>
<circle cx="17.0002" cy="17.0002" r="4.8" fill="white"/>
<path d="M20.0001 11.8039C20.9051 12.3264 21.6579 13.0763 22.184 13.9791C22.7102 14.882 22.9914 15.9066 22.9998 16.9515C23.0082 17.9965 22.7436 19.0255 22.2322 19.9368C21.7207 20.848 20.9801 21.6099 20.0837 22.1469C19.1872 22.684 18.1661 22.9776 17.1213 22.9988C16.0766 23.0199 15.0444 22.7678 14.127 22.2675C13.2096 21.7671 12.4387 21.0358 11.8908 20.146C11.3429 19.2562 11.0368 18.2388 11.003 17.1943L11 16.9999L11.003 16.8055C11.0366 15.7693 11.3381 14.7595 11.8782 13.8745C12.4183 12.9895 13.1784 12.2596 14.0846 11.7559C14.9907 11.2521 16.0119 10.9918 17.0487 11.0002C18.0854 11.0086 19.1023 11.2855 20.0001 11.8039ZM19.2243 15.3757C19.121 15.2724 18.9835 15.2104 18.8377 15.2012C18.6919 15.192 18.5477 15.2364 18.4323 15.3259L18.3759 15.3757L16.4001 17.3509L15.6243 16.5757L15.5679 16.5259C15.4524 16.4364 15.3083 16.3921 15.1625 16.4013C15.0167 16.4105 14.8793 16.4726 14.776 16.5759C14.6727 16.6792 14.6107 16.8166 14.6015 16.9624C14.5923 17.1082 14.6366 17.2523 14.726 17.3677L14.7758 17.4241L15.9759 18.6241L16.0323 18.6739C16.1375 18.7556 16.2669 18.7999 16.4001 18.7999C16.5332 18.7999 16.6626 18.7556 16.7679 18.6739L16.8243 18.6241L19.2243 16.2241L19.2741 16.1677C19.3637 16.0523 19.408 15.9081 19.3988 15.7623C19.3897 15.6165 19.3276 15.4791 19.2243 15.3757Z" fill="#19BB7A"/>
</g>
<defs>
<clipPath id="clip0_1432_2595">
<rect width="24" height="24" fill="white"/>
</clipPath>
</defs>
</svg>
