<svg width="24" height="24" viewBox="0 0 24 24" fill="none" xmlns="http://www.w3.org/2000/svg">
<g clip-path="url(#clip0_1432_2736)">
<path fill-rule="evenodd" clip-rule="evenodd" d="M4.87868 4.87868C5.44129 4.31607 6.20435 4 7 4H9C9.55229 4 10 4.44772 10 5C10 5.55228 9.55229 6 9 6H7C6.73478 6 6.48043 6.10536 6.29289 6.29289C6.10536 6.48043 6 6.73478 6 7V19C6 19.2652 6.10536 19.5196 6.29289 19.7071C6.48043 19.8946 6.73478 20 7 20H17C17.2652 20 17.5196 19.8946 17.7071 19.7071C17.8946 19.5196 18 19.2652 18 19V7C18 6.73478 17.8946 6.48043 17.7071 6.29289C17.5196 6.10536 17.2652 6 17 6H15C14.4477 6 14 5.55228 14 5C14 4.44772 14.4477 4 15 4H17C17.7957 4 18.5587 4.31607 19.1213 4.87868C19.6839 5.44129 20 6.20435 20 7V19C20 19.7957 19.6839 20.5587 19.1213 21.1213C18.5587 21.6839 17.7957 22 17 22H7C6.20435 22 5.44129 21.6839 4.87868 21.1213C4.31607 20.5587 4 19.7956 4 19V7C4 6.20435 4.31607 5.44129 4.87868 4.87868Z" fill="#454551"/>
<path fill-rule="evenodd" clip-rule="evenodd" d="M11 4C10.7348 4 10.4804 4.10536 10.2929 4.29289C10.1054 4.48043 10 4.73478 10 5C10 5.26522 10.1054 5.51957 10.2929 5.70711C10.4804 5.89464 10.7348 6 11 6H13C13.2652 6 13.5196 5.89464 13.7071 5.70711C13.8946 5.51957 14 5.26522 14 5C14 4.73478 13.8946 4.48043 13.7071 4.29289C13.5196 4.10536 13.2652 4 13 4H11ZM8.87868 2.87868C9.44129 2.31607 10.2044 2 11 2H13C13.7956 2 14.5587 2.31607 15.1213 2.87868C15.6839 3.44129 16 4.20435 16 5C16 5.79565 15.6839 6.55871 15.1213 7.12132C14.5587 7.68393 13.7956 8 13 8H11C10.2044 8 9.44129 7.68393 8.87868 7.12132C8.31607 6.55871 8 5.79565 8 5C8 4.20435 8.31607 3.44129 8.87868 2.87868Z" fill="#454551"/>
<path fill-rule="evenodd" clip-rule="evenodd" d="M12.7574 21.2426C15.1005 23.5858 18.8995 23.5858 21.2426 21.2426C23.5858 18.8995 23.5858 15.1005 21.2426 12.7574C18.8995 10.4142 15.1005 10.4142 12.7574 12.7574C10.4142 15.1005 10.4142 18.8995 12.7574 21.2426Z" fill="#FC5A5A"/>
<path d="M16.9891 17.8376L15.2921 19.5347C14.7264 20.1004 13.8779 19.2519 14.4435 18.6862L16.1406 16.9891L14.4762 15.3247C13.9105 14.759 14.759 13.9105 15.3247 14.4762L16.9891 16.1406L18.6862 14.4435C19.2519 13.8779 20.1004 14.7264 19.5347 15.2921L17.8376 16.9891L19.5021 18.6535C20.0678 19.2192 19.2192 20.0678 18.6535 19.5021L16.9891 17.8376Z" fill="white"/>
</g>
<defs>
<clipPath id="clip0_1432_2736">
<rect width="24" height="24" fill="white"/>
</clipPath>
</defs>
</svg>
