<svg width="25" height="25" viewBox="0 0 25 25" fill="none" xmlns="http://www.w3.org/2000/svg">
<g clip-path="url(#clip0_2205_159627)">
<path opacity="0.2" d="M10.2695 16.5481C13.3761 16.5481 15.8945 14.0297 15.8945 10.9231C15.8945 7.81654 13.3761 5.29814 10.2695 5.29814C7.16293 5.29814 4.64453 7.81654 4.64453 10.9231C4.64453 14.0297 7.16293 16.5481 10.2695 16.5481Z" fill="#454551"/>
<path d="M10.2695 16.5481C13.3761 16.5481 15.8945 14.0297 15.8945 10.9231C15.8945 7.81654 13.3761 5.29814 10.2695 5.29814C7.16293 5.29814 4.64453 7.81654 4.64453 10.9231C4.64453 14.0297 7.16293 16.5481 10.2695 16.5481Z" stroke="#454551" stroke-width="1.5" stroke-linecap="round" stroke-linejoin="round"/>
<path d="M2.39453 20.2981C4.32109 18.006 7.04078 16.5481 10.2695 16.5481C13.4983 16.5481 16.218 18.006 18.1445 20.2981" stroke="#454551" stroke-width="1.5" stroke-linecap="round" stroke-linejoin="round"/>
<path d="M18.8945 7.24252C19.3895 8.40648 19.6446 9.65832 19.6446 10.9231C19.6446 12.188 19.3895 13.4398 18.8945 14.6038" stroke="#454551" stroke-width="1.5" stroke-linecap="round" stroke-linejoin="round"/>
<path d="M21.6475 6.04814C22.3056 7.58915 22.6449 9.24747 22.6449 10.9231C22.6449 12.5988 22.3056 14.2571 21.6475 15.7981" stroke="#454551" stroke-width="1.5" stroke-linecap="round" stroke-linejoin="round"/>
</g>
<defs>
<clipPath id="clip0_2205_159627">
<rect width="24" height="24" fill="white" transform="translate(0.144531 0.798141)"/>
</clipPath>
</defs>
</svg>
