<svg width="18" height="19" viewBox="0 0 18 19" fill="none" xmlns="http://www.w3.org/2000/svg">
<g id="Group 45492">
<path id="Union" fill-rule="evenodd" clip-rule="evenodd" d="M8.99935 0.855469C4.24343 0.855469 0.353516 4.74538 0.353516 9.5013C0.353516 14.2572 4.24343 18.1471 8.99935 18.1471C13.7553 18.1471 17.6452 14.2572 17.6452 9.5013C17.6452 4.74538 13.7553 0.855469 8.99935 0.855469ZM2.02018 9.5013C2.02018 5.61139 5.10944 2.52214 8.99935 2.52214C12.8893 2.52214 15.9785 5.61139 15.9785 9.5013C15.9785 13.3912 12.8893 16.4805 8.99935 16.4805C5.10944 16.4805 2.02018 13.3912 2.02018 9.5013Z" fill="#4B4AD5"/>
<path id="Vector" d="M10.625 6.375H7.375C6.54657 6.375 5.875 7.04657 5.875 7.875V11.125C5.875 11.9534 6.54657 12.625 7.375 12.625H10.625C11.4534 12.625 12.125 11.9534 12.125 11.125V7.875C12.125 7.04657 11.4534 6.375 10.625 6.375Z" fill="#4B4AD5"/>
</g>
</svg>
