<svg width="24" height="24" viewBox="0 0 24 24" fill="none" xmlns="http://www.w3.org/2000/svg">
<path d="M15.6 6.54464L17.776 4.91264C17.296 2.15264 14.896 0.0566406 12 0.0566406C9.14399 0.0566406 6.75999 2.10464 6.23999 4.80864L8.51999 6.54464H15.6Z" fill="#A461D8" fill-opacity="0.45"/>
<path d="M8.39185 10.537V7.47297L6.14385 5.79297V5.92097C6.13585 7.79297 7.02385 9.46497 8.39185 10.537Z" fill="#A461D8" fill-opacity="0.45"/>
<path d="M15.616 10.5369C16.984 9.46486 17.872 7.79286 17.872 5.92086C17.872 5.90486 17.872 5.88886 17.872 5.88086L15.616 7.60086V10.5369Z" fill="#A461D8" fill-opacity="0.45"/>
<path d="M22.5679 20.7847C22.1279 18.1207 20.6959 15.2087 18.6719 13.2487C18.7119 13.2087 18.7359 13.1527 18.7359 13.0887V11.2887C18.6959 9.8887 17.7519 9.5127 17.1839 9.5127C17.0479 9.5207 16.9359 9.6327 16.9359 9.7687V11.9127C16.5919 11.7047 16.2319 11.5287 15.8639 11.3847C14.8799 12.3767 13.2319 12.7367 11.9999 12.7367C10.7599 12.7367 9.11987 12.3687 8.12787 11.3767C4.71987 12.6887 2.14387 16.8647 1.44787 20.5367C1.23987 21.6407 2.02387 22.5607 3.10387 22.8887C5.27187 23.5607 8.69587 23.9447 12.0079 23.9447C16.3999 23.9447 19.1679 23.5287 21.1279 22.8487C22.0559 22.5287 22.7359 21.7527 22.5679 20.7847ZM18.4879 20.7287H17.0959C16.8719 20.7287 16.6879 20.5447 16.6879 20.3207C16.6879 20.0967 16.8719 19.9127 17.0959 19.9127H19.0239C19.1679 19.9127 19.2799 19.8007 19.2799 19.6567C19.2799 19.5127 19.1679 19.4007 19.0239 19.4007H17.0959C16.8719 19.4007 16.6879 19.2167 16.6879 18.9927C16.6879 18.7687 16.8719 18.5847 17.0959 18.5847H19.0239C19.1679 18.5847 19.2799 18.4727 19.2799 18.3287C19.2799 18.1847 19.1679 18.0727 19.0239 18.0727H17.0959C16.8719 18.0727 16.6879 17.8887 16.6879 17.6647C16.6879 17.4407 16.8719 17.2567 17.0959 17.2567H19.0239C19.1679 17.2567 19.2799 17.1447 19.2799 17.0007C19.2799 16.8567 19.1679 16.7447 19.0239 16.7447H17.0959C16.8719 16.7447 16.6879 16.5607 16.6879 16.3367C16.6879 16.1127 16.8719 15.9287 17.0959 15.9287H18.4879H19.0319C19.0879 15.9287 20.4879 15.9607 20.4879 17.3847C20.4879 17.6327 20.4959 17.8807 20.5039 18.1287C20.5359 19.0567 20.5679 19.9287 20.1359 20.3847C19.9039 20.6247 19.5439 20.7367 19.0319 20.7367H18.4879V20.7287ZM17.3279 22.1767V21.2327H18.2319V22.1767C18.2319 22.2967 18.1359 22.3847 18.0239 22.3847H17.5439C17.4239 22.3847 17.3279 22.2887 17.3279 22.1767ZM18.2319 15.4167H17.3279V14.5287H18.2319V15.4167ZM17.4479 10.0567C17.7519 10.1367 18.2079 10.4087 18.2239 11.2967V12.8327H18.0319C17.9599 12.8327 17.8879 12.8647 17.8399 12.9207C17.7919 12.9767 17.7679 13.0567 17.7839 13.1287C17.7999 13.2487 17.8799 13.6647 18.0639 14.0167H17.4399V10.0567H17.4479Z" fill="#A461D8"/>
</svg>
