<svg width="24" height="24" viewBox="0 0 24 24" fill="none" xmlns="http://www.w3.org/2000/svg">
<g id="Symptoms">
<path id="Shape" fill-rule="evenodd" clip-rule="evenodd" d="M13 2H11V6.08296C10.0882 6.23592 9.24622 6.59451 8.52323 7.10942L5.63602 4.2222L4.22181 5.63642L7.10909 8.5237C6.59436 9.24658 6.23589 10.0884 6.08296 11H2V13H6.08296C6.23589 13.9116 6.59437 14.7534 7.10911 15.4763L4.22171 18.3637L5.63593 19.7779L8.52327 16.8906C9.24625 17.4055 10.0883 17.7641 11 17.917V22H13V17.917C13.9116 17.7641 14.7535 17.4056 15.4764 16.8908L18.3641 19.7785L19.7783 18.3643L16.8907 15.4766C17.4055 14.7537 17.7641 13.9117 17.917 13H22V11H17.917C17.7641 10.0883 17.4055 9.24625 16.8906 8.52327L19.778 5.63589L18.3638 4.22168L15.4763 7.10911C14.7534 6.59437 13.9116 6.23589 13 6.08296V2Z" fill="#A461D8" fill-opacity="0.25"/>
<path id="Shape_2" fill-rule="evenodd" clip-rule="evenodd" d="M19.7782 7.05025C20.1688 6.65972 20.1688 6.02656 19.7782 5.63603L18.364 4.22182C17.9735 3.83129 17.3403 3.8313 16.9498 4.22182C16.5593 4.61234 16.5593 5.24551 16.9498 5.63603L18.364 7.05025C18.7546 7.44077 19.3877 7.44077 19.7782 7.05025ZM14.0002 3.00037C14.0002 2.44808 13.5525 2.00037 13.0002 2.00037H11.0002C10.448 2.00037 10.0002 2.44808 10.0002 3.00037C10.0002 3.55265 10.448 4.00037 11.0002 4.00037L13.0002 4.00037C13.5525 4.00037 14.0002 3.55265 14.0002 3.00037ZM21.0002 14.0004C21.5525 14.0004 22.0002 13.5527 22.0002 13.0004V11.0004C22.0002 10.4481 21.5525 10.0004 21.0002 10.0004C20.448 10.0004 20.0002 10.4481 20.0002 11.0004V13.0004C20.0002 13.5527 20.448 14.0004 21.0002 14.0004ZM3.00024 14.0004C3.55253 14.0004 4.00024 13.5527 4.00025 13.0004V11.0004C4.00025 10.4481 3.55253 10.0004 3.00025 10.0004C2.44796 10.0004 2.00025 10.4481 2.00025 11.0004L2.00024 13.0004C2.00024 13.5527 2.44796 14.0004 3.00024 14.0004ZM13.0002 20.0004C13.5525 20.0004 14.0002 20.4481 14.0002 21.0004C14.0002 21.5527 13.5525 22.0004 13.0002 22.0004H11.0002C10.448 22.0004 10.0002 21.5527 10.0002 21.0004C10.0002 20.4481 10.448 20.0004 11.0002 20.0004H13.0002ZM5.63631 7.05107C5.24578 7.4416 4.61262 7.4416 4.22209 7.05107C3.83157 6.66055 3.83157 6.02738 4.22209 5.63686L5.63631 4.22264C6.02683 3.83212 6.66 3.83212 7.05052 4.22265C7.44105 4.61317 7.44104 5.24634 7.05052 5.63686L5.63631 7.05107ZM16.9501 19.7786C17.3406 20.1691 17.9738 20.1691 18.3643 19.7786L19.7785 18.3644C20.1691 17.9739 20.1691 17.3407 19.7785 16.9502C19.388 16.5597 18.7549 16.5597 18.3643 16.9502L16.9501 18.3644C16.5596 18.7549 16.5596 19.3881 16.9501 19.7786ZM7.05046 18.3645C7.44099 18.7551 7.44099 19.3882 7.05046 19.7788C6.65994 20.1693 6.02677 20.1693 5.63625 19.7788L4.22203 18.3645C3.83151 17.974 3.83151 17.3409 4.22203 16.9503C4.61256 16.5598 5.24572 16.5598 5.63625 16.9503L7.05046 18.3645Z" fill="#A461D8"/>
</g>
</svg>
