<svg width="24" height="24" viewBox="0 0 24 24" fill="none" xmlns="http://www.w3.org/2000/svg">
<path fill-rule="evenodd" clip-rule="evenodd" d="M13 2H11V6.08296C10.0882 6.23592 9.24622 6.59451 8.52323 7.10942L5.63602 4.2222L4.22181 5.63642L7.10909 8.5237C6.59436 9.24658 6.23589 10.0884 6.08296 11H2V13H6.08296C6.23589 13.9116 6.59437 14.7534 7.10911 15.4763L4.22171 18.3637L5.63593 19.7779L8.52327 16.8906C9.24625 17.4055 10.0883 17.7641 11 17.917V22H13V17.917C13.9116 17.7641 14.7535 17.4056 15.4764 16.8908L18.3641 19.7785L19.7783 18.3643L16.8907 15.4766C17.4055 14.7537 17.7641 13.9117 17.917 13H22V11H17.917C17.7641 10.0883 17.4055 9.24625 16.8906 8.52327L19.778 5.63589L18.3638 4.22168L15.4763 7.10911C14.7534 6.59437 13.9116 6.23589 13 6.08296V2Z" fill="#EDDFF7"/>
<path fill-rule="evenodd" clip-rule="evenodd" d="M19.778 7.05037C20.1685 6.65984 20.1685 6.02668 19.778 5.63616L18.3638 4.22194C17.9733 3.83142 17.3401 3.83142 16.9496 4.22194C16.5591 4.61247 16.559 5.24563 16.9496 5.63616L18.3638 7.05037C18.7543 7.44089 19.3875 7.44089 19.778 7.05037ZM14 3.00049C14 2.4482 13.5523 2.00049 13 2.00049H11C10.4477 2.00049 10 2.4482 10 3.00049C10 3.55277 10.4477 4.00049 11 4.00049L13 4.00049C13.5523 4.00049 14 3.55277 14 3.00049ZM21 14.0005C21.5523 14.0005 22 13.5528 22 13.0005V11.0005C22 10.4482 21.5523 10.0005 21 10.0005C20.4477 10.0005 20 10.4482 20 11.0005V13.0005C20 13.5528 20.4477 14.0005 21 14.0005ZM3 14.0005C3.55229 14.0005 4 13.5528 4 13.0005V11.0005C4 10.4482 3.55229 10.0005 3 10.0005C2.44772 10.0005 2 10.4482 2 11.0005L2 13.0005C2 13.5528 2.44772 14.0005 3 14.0005ZM13 20.0005C13.5523 20.0005 14 20.4482 14 21.0005C14 21.5528 13.5523 22.0005 13 22.0005H11C10.4477 22.0005 10 21.5528 10 21.0005C10 20.4482 10.4477 20.0005 11 20.0005H13ZM5.63606 7.05119C5.24554 7.44172 4.61237 7.44172 4.22185 7.05119C3.83133 6.66067 3.83133 6.0275 4.22185 5.63698L5.63606 4.22277C6.02659 3.83224 6.65975 3.83224 7.05028 4.22277C7.4408 4.61329 7.4408 5.24646 7.05028 5.63698L5.63606 7.05119ZM16.9499 19.7787C17.3404 20.1693 17.9736 20.1693 18.3641 19.7787L19.7783 18.3645C20.1688 17.974 20.1688 17.3408 19.7783 16.9503C19.3878 16.5598 18.7546 16.5598 18.3641 16.9503L16.9499 18.3645C16.5594 18.755 16.5594 19.3882 16.9499 19.7787ZM7.05022 18.3647C7.44074 18.7552 7.44074 19.3884 7.05022 19.7789C6.65969 20.1694 6.02653 20.1694 5.636 19.7789L4.22179 18.3647C3.83127 17.9741 3.83127 17.341 4.22179 16.9505C4.61231 16.5599 5.24548 16.5599 5.636 16.9505L7.05022 18.3647Z" fill="#A461D8"/>
</svg>
