<svg width="24" height="25" viewBox="0 0 24 25" fill="none" xmlns="http://www.w3.org/2000/svg">
<path fill-rule="evenodd" clip-rule="evenodd" d="M13 2.79816H11V6.88111C10.0882 7.03408 9.24622 7.39267 8.52323 7.90757L5.63602 5.02036L4.22181 6.43457L7.10909 9.32185C6.59436 10.0447 6.23589 10.8866 6.08296 11.7982H2V13.7982H6.08296C6.23589 14.7097 6.59437 15.5516 7.10911 16.2745L4.22171 19.1619L5.63593 20.5761L8.52327 17.6888C9.24625 18.2037 10.0883 18.5622 11 18.7152V22.7982H13V18.7152C13.9116 18.5623 14.7535 18.2037 15.4764 17.689L18.3641 20.5766L19.7783 19.1624L16.8907 16.2748C17.4055 15.5518 17.7641 14.7099 17.917 13.7982H22V11.7982H17.917C17.7641 10.8864 17.4055 10.0444 16.8906 9.32143L19.778 6.43405L18.3638 5.01984L15.4763 7.90727C14.7534 7.39253 13.9116 7.03405 13 6.88112V2.79816Z" fill="#B7DFB9"/>
<path fill-rule="evenodd" clip-rule="evenodd" d="M19.7782 7.84843C20.1688 7.45791 20.1688 6.82474 19.7782 6.43422L18.364 5.02001C17.9735 4.62948 17.3403 4.62948 16.9498 5.02001C16.5593 5.41053 16.5593 6.0437 16.9498 6.43422L18.364 7.84843C18.7546 8.23896 19.3877 8.23896 19.7782 7.84843ZM14.0002 3.79855C14.0002 3.24627 13.5525 2.79855 13.0002 2.79855H11.0002C10.448 2.79855 10.0002 3.24627 10.0002 3.79855C10.0002 4.35084 10.448 4.79855 11.0002 4.79855L13.0002 4.79855C13.5525 4.79855 14.0002 4.35084 14.0002 3.79855ZM21.0002 14.7986C21.5525 14.7986 22.0002 14.3508 22.0002 13.7986V11.7986C22.0002 11.2463 21.5525 10.7986 21.0002 10.7986C20.448 10.7986 20.0002 11.2463 20.0002 11.7986V13.7986C20.0002 14.3508 20.448 14.7986 21.0002 14.7986ZM3.00024 14.7986C3.55253 14.7986 4.00024 14.3508 4.00025 13.7986V11.7986C4.00025 11.2463 3.55253 10.7986 3.00025 10.7986C2.44796 10.7986 2.00025 11.2463 2.00025 11.7986L2.00024 13.7986C2.00024 14.3508 2.44796 14.7986 3.00024 14.7986ZM13.0002 20.7986C13.5525 20.7986 14.0002 21.2463 14.0002 21.7986C14.0002 22.3508 13.5525 22.7986 13.0002 22.7986H11.0002C10.448 22.7986 10.0002 22.3508 10.0002 21.7986C10.0002 21.2463 10.448 20.7986 11.0002 20.7986H13.0002ZM5.63631 7.84926C5.24578 8.23978 4.61262 8.23978 4.22209 7.84926C3.83157 7.45873 3.83157 6.82557 4.22209 6.43505L5.63631 5.02083C6.02683 4.63031 6.66 4.63031 7.05052 5.02083C7.44105 5.41136 7.44104 6.04452 7.05052 6.43505L5.63631 7.84926ZM16.9501 20.5768C17.3406 20.9673 17.9738 20.9673 18.3643 20.5768L19.7785 19.1626C20.1691 18.7721 20.1691 18.1389 19.7785 17.7484C19.388 17.3578 18.7549 17.3578 18.3643 17.7484L16.9501 19.1626C16.5596 19.5531 16.5596 20.1863 16.9501 20.5768ZM7.05046 19.1627C7.44099 19.5533 7.44099 20.1864 7.05046 20.577C6.65994 20.9675 6.02677 20.9675 5.63625 20.577L4.22203 19.1627C3.83151 18.7722 3.83151 18.139 4.22203 17.7485C4.61256 17.358 5.24572 17.358 5.63625 17.7485L7.05046 19.1627Z" fill="#3D8C40"/>
</svg>
