<svg width="32" height="32" viewBox="0 0 32 32" fill="none" xmlns="http://www.w3.org/2000/svg">
<path d="M0 8C0 3.58172 3.58172 0 8 0H24C28.4183 0 32 3.58172 32 8V32H8C3.58172 32 0 28.4183 0 24V8Z" fill="#22003C"/>
<path d="M23.9888 22.022C18.6451 22.022 13.6513 24.1485 11.8224 25.2117C10.3512 25.9408 9.77808 24.9079 9.67543 24.3004C9.67543 19.1968 7.44887 14.4274 6.33559 12.6807C5.76306 11.587 6.57415 10.8579 7.05126 10.6301C13.54 10.2656 17.8658 8.19985 19.2176 7.21256C20.9352 6.66575 21.5237 7.74418 21.6032 8.35175C21.7941 13.273 24.0683 18.3007 25.1816 20.1993C25.7541 21.4752 24.6249 21.9461 23.9888 22.022Z" stroke="#7742FE" stroke-width="1.2"/>
<path d="M16.8413 25.8209C13.4253 22.1247 8.69282 20.0938 6.75359 19.5404C5.28506 19.0108 5.66675 17.923 6.04117 17.4453C9.73739 14.0293 11.7682 9.29684 12.3216 7.35761C12.7477 6.22958 13.7942 6.30261 14.2642 6.48013C18.6763 10.7244 22.9377 12.3339 24.5169 12.6081C26.0109 13.4302 25.6061 14.5591 25.2169 15.0207C21.7747 18.4468 19.5873 23.3851 18.9239 25.4259C18.3658 26.676 17.303 26.2101 16.8413 25.8209Z" stroke="#7742FE" stroke-width="1.2"/>
</svg>
