<svg width="77" height="77" viewBox="0 0 77 77" fill="none" xmlns="http://www.w3.org/2000/svg">
<g id="Sketch-annotation-element-stroke-icon-line-crown-shadow">
<path id="Vector" fill-rule="evenodd" clip-rule="evenodd" d="M49.0877 60.4863C50.9658 53.2251 52.6255 45.8268 54.2191 38.5024C50.4381 40.232 47.1781 42.3925 43.7831 44.7996C41.9103 41.7044 38.0201 37.5824 35.1763 35.3726C31.888 38.6383 29.511 41.6325 26.9042 45.3589C24.0512 43.0892 21.191 41.3118 17.8506 39.8164C18.974 46.7573 20.5494 53.5798 22.5126 60.3302C26.4458 58.986 29.0384 59.0899 32.5589 58.986C38.6086 58.8069 43.1017 59.3534 49.0877 60.4863Z" stroke="url(#paint0_linear_612_80376)" stroke-width="4.27778" stroke-miterlimit="1.5" stroke-linecap="round" stroke-linejoin="round"/>
<path id="Vector_2" d="M2.58008 36.7554C4.39334 37.43 6.18794 38.1724 8.01394 38.8107" stroke="url(#paint1_linear_612_80376)" stroke-width="4.27778" stroke-miterlimit="1.5" stroke-linecap="round" stroke-linejoin="round"/>
<path id="Vector_3" d="M20.1973 16.4526C20.9583 18.4638 21.8736 20.4089 22.6633 22.4069" stroke="url(#paint2_linear_612_80376)" stroke-width="4.27778" stroke-miterlimit="1.5" stroke-linecap="round" stroke-linejoin="round"/>
<path id="Vector_4" d="M44.1924 22.1993C45.7142 19.6975 46.9772 17.0496 48.4923 14.5444" stroke="url(#paint3_linear_612_80376)" stroke-width="4.27778" stroke-miterlimit="1.5" stroke-linecap="round" stroke-linejoin="round"/>
<path id="Vector_5" d="M66.1738 38.568C68.8231 37.3913 71.5373 36.2348 74.0735 34.8247" stroke="url(#paint4_linear_612_80376)" stroke-width="4.27778" stroke-miterlimit="1.5" stroke-linecap="round" stroke-linejoin="round"/>
</g>
<defs>
<linearGradient id="paint0_linear_612_80376" x1="36.0348" y1="35.3726" x2="36.0348" y2="60.4863" gradientUnits="userSpaceOnUse">
<stop stop-color="#5D39D0"/>
<stop offset="1" stop-color="#A41BF0"/>
</linearGradient>
<linearGradient id="paint1_linear_612_80376" x1="5.29701" y1="36.7554" x2="5.29701" y2="38.8107" gradientUnits="userSpaceOnUse">
<stop stop-color="#5D39D0"/>
<stop offset="1" stop-color="#A41BF0"/>
</linearGradient>
<linearGradient id="paint2_linear_612_80376" x1="21.4303" y1="16.4526" x2="21.4303" y2="22.4069" gradientUnits="userSpaceOnUse">
<stop stop-color="#5D39D0"/>
<stop offset="1" stop-color="#A41BF0"/>
</linearGradient>
<linearGradient id="paint3_linear_612_80376" x1="46.3424" y1="14.5444" x2="46.3424" y2="22.1993" gradientUnits="userSpaceOnUse">
<stop stop-color="#5D39D0"/>
<stop offset="1" stop-color="#A41BF0"/>
</linearGradient>
<linearGradient id="paint4_linear_612_80376" x1="70.1237" y1="34.8247" x2="70.1237" y2="38.568" gradientUnits="userSpaceOnUse">
<stop stop-color="#5D39D0"/>
<stop offset="1" stop-color="#A41BF0"/>
</linearGradient>
</defs>
</svg>
