<svg xmlns="http://www.w3.org/2000/svg" width="301" height="376" viewBox="0 0 301 376">
  <g id="Frame_42285" data-name="Frame 42285" transform="translate(-8 -6)">
    <g id="Group_44609" data-name="Group 44609">
      <rect id="Rectangle_22715" data-name="Rectangle 22715" width="301" height="376" rx="20" transform="translate(8 6)" fill="#171725"/>
    </g>
    <path id="Path_76366" data-name="Path 76366" d="M24.2,36V24.88h1.968l3.9,8.72,3.888-8.72h1.952V36H34.088V28.384L30.7,36H29.432l-3.408-7.616V36Zm22.193-8.816V36H44.569V34.944a3.282,3.282,0,0,1-2.608,1.184,3.445,3.445,0,0,1-3.632-3.76V27.184h1.808V32.1c0,1.616.88,2.448,2.208,2.448A2.137,2.137,0,0,0,44.569,32.1V27.184ZM48.9,36V24.16h1.824V36Zm4.607-2.448v-4.88h-1.04V27.184h1.04V24.992h1.84v2.192h2.144v1.488H55.347v4.88c0,.656.256.928,1.024.928h1.12V36h-1.44C54.483,36,53.507,35.344,53.507,33.552ZM59.272,36V27.184H61.1V36Zm.928-9.984a1.168,1.168,0,1,1,1.152-1.168A1.154,1.154,0,0,1,60.2,26.016Zm5.215,2.464a3.847,3.847,0,0,1,3.072-1.44,4.184,4.184,0,0,1,4.144,4.512c0,2.72-1.824,4.592-4.144,4.592a3.986,3.986,0,0,1-3.072-1.424v5.472H63.591V27.184h1.824Zm5.36,3.072a2.708,2.708,0,0,0-2.688-2.928,2.743,2.743,0,0,0-2.672,2.96,2.748,2.748,0,0,0,2.672,2.976A2.78,2.78,0,0,0,70.775,31.552ZM74.534,36V24.16h1.824V36Zm8.031-7.424A2.4,2.4,0,0,0,80.149,30.8h4.88A2.289,2.289,0,0,0,82.565,28.576Zm4.128,4.8a4.028,4.028,0,0,1-4.048,2.768,4.277,4.277,0,0,1-4.4-4.56,4.222,4.222,0,0,1,4.4-4.544,4.111,4.111,0,0,1,4.288,4.336,5.627,5.627,0,0,1-.064.9H80.133a2.425,2.425,0,0,0,2.512,2.336,2.134,2.134,0,0,0,2.08-1.232ZM94.8,36l-2.752-8.816H93.9l1.84,7.088,1.872-7.088h1.9l1.792,7.056,1.824-7.056h1.792L102.188,36h-1.92l-1.776-6.512L96.716,36Zm10.984-4.448a4.2,4.2,0,0,1,4.16-4.512A3.753,3.753,0,0,1,113,28.464v-1.28h1.84V36H113V34.688a3.8,3.8,0,0,1-3.088,1.456C107.62,36.144,105.78,34.272,105.78,31.552Zm7.216.032a2.734,2.734,0,0,0-2.672-2.96,2.7,2.7,0,0,0-2.672,2.928,2.778,2.778,0,0,0,2.672,3.008A2.739,2.739,0,0,0,113,31.584ZM120.8,33.9l2.576-6.72h1.888l-5.408,12.96h-1.888l1.792-4.288-3.472-8.672h2.032Zm12.517-.368c0,1.488-1.3,2.608-3.376,2.608-2.112,0-3.6-1.248-3.68-2.848h1.888a1.608,1.608,0,0,0,1.76,1.312c1.056,0,1.616-.448,1.616-1.056,0-1.728-5.12-.736-5.12-3.968,0-1.408,1.312-2.544,3.392-2.544,2,0,3.312,1.072,3.408,2.832h-1.824a1.458,1.458,0,0,0-1.648-1.3c-.976,0-1.488.4-1.488.992C128.248,31.344,133.224,30.352,133.32,33.536Zm6.615.016v-4.88H138.9V27.184h1.04V24.992h1.84v2.192h2.144v1.488h-2.144v4.88c0,.656.256.928,1.024.928h1.12V36h-1.44C140.911,36,139.935,35.344,139.935,33.552ZM154.1,31.584a4.416,4.416,0,0,1-4.576,4.56,4.3,4.3,0,0,1-4.416-4.56,4.5,4.5,0,1,1,8.992,0Zm-7.136,0c0,2,1.184,2.976,2.56,2.976a2.716,2.716,0,0,0,2.7-2.976,2.668,2.668,0,0,0-2.656-2.96C148.2,28.624,146.964,29.584,146.964,31.584Zm17.007-3.008a2.4,2.4,0,0,0-2.416,2.224h4.88A2.289,2.289,0,0,0,163.971,28.576Zm4.128,4.8a4.028,4.028,0,0,1-4.048,2.768,4.277,4.277,0,0,1-4.4-4.56,4.222,4.222,0,0,1,4.4-4.544,4.111,4.111,0,0,1,4.288,4.336,5.626,5.626,0,0,1-.064.9h-6.736a2.425,2.425,0,0,0,2.512,2.336,2.134,2.134,0,0,0,2.08-1.232ZM176.49,36V31.072c0-1.616-.88-2.448-2.208-2.448a2.137,2.137,0,0,0-2.224,2.448V36h-1.824V27.184h1.824v1.008a3.392,3.392,0,0,1,2.624-1.152A3.433,3.433,0,0,1,178.3,30.8V36Zm4.523-2.448v-4.88h-1.04V27.184h1.04V24.992h1.84v2.192H185v1.488h-2.144v4.88c0,.656.256.928,1.024.928H185V36h-1.44C181.989,36,181.013,35.344,181.013,33.552Zm9.477-4.976a2.4,2.4,0,0,0-2.416,2.224h4.88A2.289,2.289,0,0,0,190.49,28.576Zm4.128,4.8a4.028,4.028,0,0,1-4.048,2.768,4.277,4.277,0,0,1-4.4-4.56,4.222,4.222,0,0,1,4.4-4.544,4.111,4.111,0,0,1,4.288,4.336,5.628,5.628,0,0,1-.064.9h-6.736a2.425,2.425,0,0,0,2.512,2.336,2.134,2.134,0,0,0,2.08-1.232Zm3.959-2.016V36h-1.824V27.184h1.824v1.28a2.872,2.872,0,0,1,2.64-1.424v1.888h-.464C199.409,28.928,198.577,29.488,198.577,31.36Zm12.305-6.48c3.568,0,5.9,2.16,5.9,5.6,0,3.424-2.336,5.52-5.9,5.52H207.25V24.88Zm-1.808,9.632h1.808a3.658,3.658,0,0,0,4.032-4.032c0-2.544-1.408-4.112-4.032-4.112h-1.808Zm18.02-2.928a4.416,4.416,0,0,1-4.576,4.56,4.3,4.3,0,0,1-4.416-4.56,4.5,4.5,0,1,1,8.992,0Zm-7.136,0c0,2,1.184,2.976,2.56,2.976a2.716,2.716,0,0,0,2.7-2.976,2.668,2.668,0,0,0-2.656-2.96C221.19,28.624,219.958,29.584,219.958,31.584Zm15.615,1.952c0,1.488-1.3,2.608-3.376,2.608-2.112,0-3.6-1.248-3.68-2.848H230.4a1.608,1.608,0,0,0,1.76,1.312c1.056,0,1.616-.448,1.616-1.056,0-1.728-5.12-.736-5.12-3.968,0-1.408,1.312-2.544,3.392-2.544,2,0,3.312,1.072,3.408,2.832h-1.824a1.458,1.458,0,0,0-1.648-1.3c-.976,0-1.488.4-1.488.992C230.5,31.344,235.477,30.352,235.573,33.536Zm5.783-4.96A2.4,2.4,0,0,0,238.94,30.8h4.88A2.289,2.289,0,0,0,241.356,28.576Zm4.128,4.8a4.028,4.028,0,0,1-4.048,2.768,4.277,4.277,0,0,1-4.4-4.56,4.222,4.222,0,0,1,4.4-4.544,4.111,4.111,0,0,1,4.288,4.336,5.628,5.628,0,0,1-.064.9h-6.736a2.425,2.425,0,0,0,2.512,2.336,2.134,2.134,0,0,0,2.08-1.232Z" fill="#fff"/>
    <path id="Path_76367" data-name="Path 76367" d="M26.507,73.765l1.983-7.718h1.039l-.116,1.989L27.293,76h-1.08Zm-1.483-7.718L26.63,73.7l.143,2.3H25.625l-2.3-9.953Zm6.754,7.636,1.586-7.636h1.709L32.769,76H31.62Zm-1.846-7.636,1.962,7.738L32.181,76H31.1l-2.085-7.964-.109-1.989ZM38.043,68.6V76H36.389V68.6ZM36.28,66.662a.843.843,0,0,1,.246-.622,1.078,1.078,0,0,1,1.388,0,.832.832,0,0,1,.253.622.823.823,0,0,1-.253.615,1.1,1.1,0,0,1-1.388,0A.834.834,0,0,1,36.28,66.662ZM43.339,68.6v1.2h-4.17V68.6Zm-2.967-1.812h1.647v7.164a1.167,1.167,0,0,0,.1.526.512.512,0,0,0,.28.239,1.276,1.276,0,0,0,.417.062,2.532,2.532,0,0,0,.328-.021q.157-.021.253-.041l.007,1.258a4.2,4.2,0,0,1-.479.109,3.515,3.515,0,0,1-.615.048,2.412,2.412,0,0,1-1-.2,1.479,1.479,0,0,1-.684-.663,2.574,2.574,0,0,1-.246-1.217ZM46.337,65.5V76H44.7V65.5Zm-.287,6.528-.533-.007a4.825,4.825,0,0,1,.212-1.415,3.628,3.628,0,0,1,.588-1.128,2.618,2.618,0,0,1,2.1-1.012,3.016,3.016,0,0,1,.984.15,1.88,1.88,0,0,1,.766.485,2.082,2.082,0,0,1,.485.861,4.2,4.2,0,0,1,.171,1.285V76H49.167V71.235a1.914,1.914,0,0,0-.157-.848.912.912,0,0,0-.444-.451,1.625,1.625,0,0,0-.718-.144,1.68,1.68,0,0,0-.786.178,1.64,1.64,0,0,0-.56.485,2.235,2.235,0,0,0-.342.711A3.28,3.28,0,0,0,46.05,72.028Zm12.785,1.736,1.982-7.718h1.039l-.116,1.989L59.621,76h-1.08Zm-1.483-7.718L58.958,73.7,59.1,76H57.953l-2.3-9.953Zm6.754,7.636,1.586-7.636H67.4L65.1,76H63.948ZM62.26,66.047l1.962,7.738L64.509,76h-1.08l-2.085-7.964-.109-1.989Zm7.975-.547V76H68.594V65.5Zm-.287,6.528-.533-.007a4.818,4.818,0,0,1,.212-1.415,3.626,3.626,0,0,1,.588-1.128,2.618,2.618,0,0,1,2.1-1.012,3.016,3.016,0,0,1,.984.15,1.88,1.88,0,0,1,.766.485,2.08,2.08,0,0,1,.485.861,4.2,4.2,0,0,1,.171,1.285V76H73.065V71.235a1.914,1.914,0,0,0-.157-.848.912.912,0,0,0-.444-.451,1.625,1.625,0,0,0-.718-.144,1.679,1.679,0,0,0-.786.178,1.641,1.641,0,0,0-.561.485,2.237,2.237,0,0,0-.342.711A3.28,3.28,0,0,0,69.948,72.028Zm6.225.355v-.157a4.579,4.579,0,0,1,.232-1.483,3.523,3.523,0,0,1,.67-1.2,3.024,3.024,0,0,1,1.08-.793,3.8,3.8,0,0,1,2.9,0,3.01,3.01,0,0,1,1.087.793,3.463,3.463,0,0,1,.677,1.2,4.582,4.582,0,0,1,.232,1.483v.157a4.582,4.582,0,0,1-.232,1.483,3.549,3.549,0,0,1-.677,1.2,3.136,3.136,0,0,1-1.08.793,3.541,3.541,0,0,1-1.442.28,3.607,3.607,0,0,1-1.456-.28,3.137,3.137,0,0,1-1.08-.793,3.549,3.549,0,0,1-.677-1.2A4.579,4.579,0,0,1,76.173,72.384Zm1.647-.157v.157a4.183,4.183,0,0,0,.1.943,2.4,2.4,0,0,0,.321.779,1.588,1.588,0,0,0,.561.526,1.639,1.639,0,0,0,.813.191,1.572,1.572,0,0,0,.793-.191,1.587,1.587,0,0,0,.561-.526,2.4,2.4,0,0,0,.321-.779,3.936,3.936,0,0,0,.109-.943v-.157a3.822,3.822,0,0,0-.109-.93,2.39,2.39,0,0,0-.328-.786,1.568,1.568,0,0,0-.561-.533,1.543,1.543,0,0,0-.8-.2,1.54,1.54,0,0,0-1.36.731,2.48,2.48,0,0,0-.321.786A4.062,4.062,0,0,0,77.82,72.227ZM86.294,65.5V76H84.64V65.5ZM91.46,76.137a3.944,3.944,0,0,1-1.483-.267,3.275,3.275,0,0,1-1.121-.759,3.361,3.361,0,0,1-.7-1.142,4,4,0,0,1-.246-1.415v-.274a4.626,4.626,0,0,1,.253-1.572,3.568,3.568,0,0,1,.7-1.2,3.025,3.025,0,0,1,1.066-.772,3.317,3.317,0,0,1,1.333-.267,3.366,3.366,0,0,1,1.388.267,2.608,2.608,0,0,1,.984.752,3.121,3.121,0,0,1,.588,1.142,5.091,5.091,0,0,1,.2,1.463v.7H88.7V71.611h4.088v-.13a2.312,2.312,0,0,0-.178-.834,1.417,1.417,0,0,0-.485-.629,1.453,1.453,0,0,0-.875-.239,1.486,1.486,0,0,0-.731.178,1.448,1.448,0,0,0-.526.5,2.624,2.624,0,0,0-.328.793,4.451,4.451,0,0,0-.109,1.032v.274a3.019,3.019,0,0,0,.13.9,2.156,2.156,0,0,0,.4.718,1.882,1.882,0,0,0,.629.485,1.98,1.98,0,0,0,.841.171,2.282,2.282,0,0,0,1.06-.239,2.429,2.429,0,0,0,.807-.677l.868.841a3.385,3.385,0,0,1-.622.67,3.117,3.117,0,0,1-.937.513A3.727,3.727,0,0,1,91.46,76.137Zm15.991-10.09V76h-1.716l-4.464-7.13V76H99.555V66.047h1.716l4.477,7.144V66.047Zm6.43,8.21V68.6h1.654V76h-1.559Zm.232-1.538.554-.014a5.452,5.452,0,0,1-.164,1.374A3.2,3.2,0,0,1,114,75.166a2.37,2.37,0,0,1-.875.718,2.964,2.964,0,0,1-1.278.253,3,3,0,0,1-.992-.157,2.038,2.038,0,0,1-.779-.485,2.217,2.217,0,0,1-.5-.854,3.962,3.962,0,0,1-.178-1.258V68.6h1.648V73.4a2.091,2.091,0,0,0,.1.677,1.152,1.152,0,0,0,.26.431.928.928,0,0,0,.383.232,1.554,1.554,0,0,0,.465.068,1.951,1.951,0,0,0,1.107-.273,1.509,1.509,0,0,0,.581-.752A2.975,2.975,0,0,0,114.113,72.719Zm4.858-2.611V76h-1.648V68.6h1.552Zm-.267,1.921-.56-.007a5.01,5.01,0,0,1,.191-1.415,3.409,3.409,0,0,1,.561-1.128,2.459,2.459,0,0,1,.916-.745,2.912,2.912,0,0,1,1.278-.267,2.7,2.7,0,0,1,.923.15,1.831,1.831,0,0,1,.731.458,2.027,2.027,0,0,1,.479.807,3.644,3.644,0,0,1,.171,1.189V76h-1.648V71.215a1.811,1.811,0,0,0-.164-.848.908.908,0,0,0-.458-.437,1.869,1.869,0,0,0-1.5.041,1.5,1.5,0,0,0-.526.485,2.171,2.171,0,0,0-.3.711A3.711,3.711,0,0,0,118.7,72.028Zm4.587-.437-.772.171A4.245,4.245,0,0,1,122.7,70.5a3.222,3.222,0,0,1,.554-1.053,2.6,2.6,0,0,1,.909-.718,2.823,2.823,0,0,1,1.238-.26,3.019,3.019,0,0,1,1.011.157,1.857,1.857,0,0,1,.766.479,2.129,2.129,0,0,1,.478.854,4.192,4.192,0,0,1,.164,1.258V76h-1.654V71.208A1.878,1.878,0,0,0,126,70.34a.851.851,0,0,0-.451-.424,1.821,1.821,0,0,0-.7-.123,1.525,1.525,0,0,0-.677.144,1.344,1.344,0,0,0-.485.39,1.732,1.732,0,0,0-.3.567A2.425,2.425,0,0,0,123.291,71.591Zm6.335-6.091h1.647v8.921L131.116,76h-1.49Zm6.473,6.733v.144a5.842,5.842,0,0,1-.184,1.511,3.492,3.492,0,0,1-.547,1.189,2.538,2.538,0,0,1-.9.786,2.671,2.671,0,0,1-1.237.273,2.632,2.632,0,0,1-1.2-.26,2.386,2.386,0,0,1-.861-.738A4.085,4.085,0,0,1,130.61,74a7.543,7.543,0,0,1-.3-1.463v-.458a7.4,7.4,0,0,1,.3-1.463,4.083,4.083,0,0,1,.554-1.142,2.381,2.381,0,0,1,.854-.745,2.615,2.615,0,0,1,1.2-.26,2.733,2.733,0,0,1,1.251.273,2.458,2.458,0,0,1,.91.779,3.5,3.5,0,0,1,.54,1.189A5.9,5.9,0,0,1,136.1,72.233Zm-1.647.144v-.144a5.14,5.14,0,0,0-.082-.937,2.458,2.458,0,0,0-.274-.779,1.364,1.364,0,0,0-.506-.526,1.444,1.444,0,0,0-.786-.2,1.732,1.732,0,0,0-.752.15,1.511,1.511,0,0,0-.526.41,2.036,2.036,0,0,0-.335.6,3.369,3.369,0,0,0-.157.738v1.237a3.109,3.109,0,0,0,.26.943,1.747,1.747,0,0,0,.574.684,1.647,1.647,0,0,0,.95.253,1.5,1.5,0,0,0,.772-.185,1.346,1.346,0,0,0,.5-.513,2.458,2.458,0,0,0,.274-.779A4.9,4.9,0,0,0,134.452,72.377Zm6.4,3.76a3.945,3.945,0,0,1-1.483-.267,3.28,3.28,0,0,1-1.121-.759,3.367,3.367,0,0,1-.7-1.142,4,4,0,0,1-.246-1.415v-.274a4.617,4.617,0,0,1,.253-1.572,3.554,3.554,0,0,1,.7-1.2,3.026,3.026,0,0,1,1.066-.772,3.318,3.318,0,0,1,1.333-.267,3.368,3.368,0,0,1,1.388.267,2.6,2.6,0,0,1,.984.752,3.1,3.1,0,0,1,.588,1.142,5.1,5.1,0,0,1,.2,1.463v.7H138.1V71.611h4.088v-.13a2.34,2.34,0,0,0-.178-.834,1.418,1.418,0,0,0-.486-.629,1.45,1.45,0,0,0-.875-.239,1.484,1.484,0,0,0-.731.178,1.441,1.441,0,0,0-.526.5,2.622,2.622,0,0,0-.329.793,4.507,4.507,0,0,0-.109,1.032v.274a3.006,3.006,0,0,0,.13.9,2.156,2.156,0,0,0,.4.718,1.891,1.891,0,0,0,.629.485,1.982,1.982,0,0,0,.841.171,2.283,2.283,0,0,0,1.06-.239,2.416,2.416,0,0,0,.806-.677l.869.841a3.383,3.383,0,0,1-.623.67,3.112,3.112,0,0,1-.936.513A3.728,3.728,0,0,1,140.854,76.137Zm6-6.125V76h-1.648V68.6h1.573Zm2.263-1.456-.014,1.531a3.232,3.232,0,0,0-.328-.041q-.171-.014-.342-.014a2.071,2.071,0,0,0-.745.123,1.406,1.406,0,0,0-.54.342,1.5,1.5,0,0,0-.328.533,2.379,2.379,0,0,0-.137.7l-.376.027a5.771,5.771,0,0,1,.137-1.292,3.533,3.533,0,0,1,.41-1.046,2.1,2.1,0,0,1,.7-.7,1.874,1.874,0,0,1,.978-.253,2.042,2.042,0,0,1,.321.027A1.406,1.406,0,0,1,149.117,68.556ZM154.4,74a.826.826,0,0,0-.123-.444,1.052,1.052,0,0,0-.471-.369,4.588,4.588,0,0,0-1.012-.3,8.715,8.715,0,0,1-1.08-.308,3.415,3.415,0,0,1-.834-.444,1.857,1.857,0,0,1-.54-.615,1.7,1.7,0,0,1-.192-.82,1.9,1.9,0,0,1,.2-.854,2.162,2.162,0,0,1,.567-.711,2.769,2.769,0,0,1,.9-.485,3.75,3.75,0,0,1,1.19-.178,3.692,3.692,0,0,1,1.593.314,2.4,2.4,0,0,1,1.025.841,2.077,2.077,0,0,1,.356,1.189h-1.648a1.094,1.094,0,0,0-.588-.964,1.5,1.5,0,0,0-.738-.164,1.6,1.6,0,0,0-.7.137.958.958,0,0,0-.41.342.869.869,0,0,0-.13.465.809.809,0,0,0,.068.335.786.786,0,0,0,.246.267,2.027,2.027,0,0,0,.465.219,6.705,6.705,0,0,0,.752.2,6.874,6.874,0,0,1,1.456.458,2.322,2.322,0,0,1,.943.711,1.752,1.752,0,0,1,.329,1.094,1.94,1.94,0,0,1-.212.9,2.054,2.054,0,0,1-.6.7,3.018,3.018,0,0,1-.95.458,4.285,4.285,0,0,1-1.231.164,3.715,3.715,0,0,1-1.7-.356,2.706,2.706,0,0,1-1.059-.923,2.186,2.186,0,0,1-.356-1.176h1.593a1.236,1.236,0,0,0,.253.731,1.357,1.357,0,0,0,.574.39,2.259,2.259,0,0,0,.718.116,2.081,2.081,0,0,0,.745-.116,1.069,1.069,0,0,0,.458-.328A.782.782,0,0,0,154.4,74Z" fill="#fff"/>
    <path id="Path_76368" data-name="Path 76368" d="M26.507,278.765l1.983-7.718h1.039l-.116,1.989L27.293,281h-1.08Zm-1.483-7.718L26.63,278.7l.143,2.3H25.625l-2.3-9.953Zm6.754,7.636,1.586-7.636h1.709L32.769,281H31.62Zm-1.846-7.636,1.962,7.738L32.181,281H31.1l-2.085-7.964-.109-1.989Zm8.112,2.557V281H36.389v-7.4Zm-1.764-1.942a.842.842,0,0,1,.246-.622,1.078,1.078,0,0,1,1.388,0,.883.883,0,0,1,0,1.237,1.1,1.1,0,0,1-1.388,0A.834.834,0,0,1,36.28,271.662Zm7.059,1.942v1.2h-4.17v-1.2Zm-2.967-1.812h1.647v7.164a1.164,1.164,0,0,0,.1.526.511.511,0,0,0,.28.24,1.277,1.277,0,0,0,.417.061,2.664,2.664,0,0,0,.328-.02c.1-.014.189-.028.253-.041l.007,1.257a4.011,4.011,0,0,1-.479.11,3.5,3.5,0,0,1-.615.048,2.4,2.4,0,0,1-1-.2,1.472,1.472,0,0,1-.684-.663,2.572,2.572,0,0,1-.246-1.216Zm5.965-1.292V281H44.7V270.5Zm-.287,6.528-.533-.007a4.826,4.826,0,0,1,.212-1.415,3.633,3.633,0,0,1,.588-1.127,2.612,2.612,0,0,1,2.1-1.012,3.024,3.024,0,0,1,.984.15,1.872,1.872,0,0,1,.766.486,2.072,2.072,0,0,1,.485.861,4.2,4.2,0,0,1,.171,1.285V281H49.167v-4.765a1.91,1.91,0,0,0-.157-.847.909.909,0,0,0-.444-.451,1.62,1.62,0,0,0-.718-.144,1.673,1.673,0,0,0-.786.178,1.635,1.635,0,0,0-.56.485,2.235,2.235,0,0,0-.342.711A3.28,3.28,0,0,0,46.05,277.028ZM59.231,281H57.105l.014-1.36h2.112a2.782,2.782,0,0,0,1.545-.4,2.455,2.455,0,0,0,.943-1.155,4.538,4.538,0,0,0,.321-1.791v-.54a5.031,5.031,0,0,0-.185-1.429,2.809,2.809,0,0,0-.533-1.046,2.238,2.238,0,0,0-.861-.642,2.92,2.92,0,0,0-1.169-.219H57.064v-1.367h2.229a4.755,4.755,0,0,1,1.812.335,3.973,3.973,0,0,1,1.415.95,4.22,4.22,0,0,1,.923,1.49,5.563,5.563,0,0,1,.321,1.942v.526a5.553,5.553,0,0,1-.321,1.941,4.224,4.224,0,0,1-.923,1.491,4.135,4.135,0,0,1-1.436.95A4.982,4.982,0,0,1,59.231,281Zm-1.176-9.953V281H56.34v-9.953Zm10.627,10.09a3.94,3.94,0,0,1-1.483-.267,3.265,3.265,0,0,1-1.121-.759,3.362,3.362,0,0,1-.7-1.141,4,4,0,0,1-.246-1.415v-.274a4.622,4.622,0,0,1,.253-1.572,3.576,3.576,0,0,1,.7-1.2,3.032,3.032,0,0,1,1.066-.773,3.328,3.328,0,0,1,1.333-.266,3.378,3.378,0,0,1,1.388.266,2.617,2.617,0,0,1,.984.752,3.122,3.122,0,0,1,.588,1.142,5.093,5.093,0,0,1,.2,1.463v.7H65.928v-1.183h4.088v-.13a2.315,2.315,0,0,0-.178-.834,1.416,1.416,0,0,0-.485-.628,1.45,1.45,0,0,0-.875-.24,1.491,1.491,0,0,0-.731.178,1.445,1.445,0,0,0-.526.5,2.629,2.629,0,0,0-.328.793,4.452,4.452,0,0,0-.109,1.032v.274a3.02,3.02,0,0,0,.13.9,2.16,2.16,0,0,0,.4.718,1.875,1.875,0,0,0,.629.485,1.979,1.979,0,0,0,.841.171,2.288,2.288,0,0,0,1.06-.239,2.43,2.43,0,0,0,.807-.677l.868.841a3.391,3.391,0,0,1-.622.67,3.124,3.124,0,0,1-.937.512A3.7,3.7,0,0,1,68.683,281.137Zm7.367-1.313a1.624,1.624,0,0,0,.725-.157,1.372,1.372,0,0,0,.526-.451,1.235,1.235,0,0,0,.226-.663h1.552a2.31,2.31,0,0,1-.424,1.3,2.946,2.946,0,0,1-1.087.937,3.272,3.272,0,0,1-1.5.342,3.533,3.533,0,0,1-1.477-.287,2.919,2.919,0,0,1-1.046-.807,3.549,3.549,0,0,1-.629-1.183,4.872,4.872,0,0,1-.205-1.435v-.239a4.879,4.879,0,0,1,.205-1.436,3.53,3.53,0,0,1,.629-1.189,2.847,2.847,0,0,1,1.046-.8,3.438,3.438,0,0,1,1.47-.294,3.277,3.277,0,0,1,1.559.355,2.632,2.632,0,0,1,1.053.978,2.762,2.762,0,0,1,.4,1.449H77.526a1.651,1.651,0,0,0-.205-.738,1.348,1.348,0,0,0-.506-.533,1.435,1.435,0,0,0-.772-.2,1.542,1.542,0,0,0-.827.205,1.389,1.389,0,0,0-.513.547,2.672,2.672,0,0,0-.267.773,5.035,5.035,0,0,0-.075.882v.239a5.155,5.155,0,0,0,.075.888,2.527,2.527,0,0,0,.26.773,1.518,1.518,0,0,0,.52.54A1.593,1.593,0,0,0,76.05,279.824Zm6.157-6.22V281H80.552v-7.4Zm-1.764-1.942a.842.842,0,0,1,.246-.622,1.078,1.078,0,0,1,1.388,0,.883.883,0,0,1,0,1.237,1.1,1.1,0,0,1-1.388,0A.834.834,0,0,1,80.443,271.662Zm5.316,3.445V281H84.111v-7.4h1.552Zm-.267,1.921-.561-.007a4.99,4.99,0,0,1,.191-1.415,3.4,3.4,0,0,1,.56-1.127,2.47,2.47,0,0,1,.916-.746,2.924,2.924,0,0,1,1.278-.266,2.71,2.71,0,0,1,.923.15,1.839,1.839,0,0,1,.731.458,2.028,2.028,0,0,1,.479.807,3.642,3.642,0,0,1,.171,1.189V281H88.534v-4.785a1.82,1.82,0,0,0-.164-.848.906.906,0,0,0-.458-.437,1.66,1.66,0,0,0-.7-.137,1.638,1.638,0,0,0-.793.178,1.488,1.488,0,0,0-.526.485,2.173,2.173,0,0,0-.3.711A3.723,3.723,0,0,0,85.492,277.028Zm4.587-.437-.772.171a4.248,4.248,0,0,1,.185-1.265,3.228,3.228,0,0,1,.554-1.053,2.6,2.6,0,0,1,.909-.717,2.81,2.81,0,0,1,1.237-.26,3.019,3.019,0,0,1,1.012.157,1.85,1.85,0,0,1,.766.479,2.119,2.119,0,0,1,.479.854,4.212,4.212,0,0,1,.164,1.258V281H92.957v-4.792a1.871,1.871,0,0,0-.164-.868.849.849,0,0,0-.451-.424,1.82,1.82,0,0,0-.7-.123,1.52,1.52,0,0,0-.677.144,1.346,1.346,0,0,0-.485.389,1.73,1.73,0,0,0-.3.568A2.428,2.428,0,0,0,90.079,276.591Zm10.5,2.926v-3.528a1.519,1.519,0,0,0-.143-.683,1.007,1.007,0,0,0-.438-.445,1.506,1.506,0,0,0-.725-.157,1.643,1.643,0,0,0-.7.137,1.126,1.126,0,0,0-.458.369.89.89,0,0,0-.164.526H96.311a1.823,1.823,0,0,1,.212-.847,2.258,2.258,0,0,1,.615-.732,3.076,3.076,0,0,1,.964-.506,4.011,4.011,0,0,1,1.258-.184,3.659,3.659,0,0,1,1.477.28,2.239,2.239,0,0,1,1.018.848A2.47,2.47,0,0,1,102.23,276v3.288a5.424,5.424,0,0,0,.069.909,2.931,2.931,0,0,0,.212.691V281h-1.689a2.914,2.914,0,0,1-.184-.677A5.53,5.53,0,0,1,100.576,279.517Zm.239-3.015.014,1.019H99.646a3.3,3.3,0,0,0-.807.088,1.669,1.669,0,0,0-.581.246,1.073,1.073,0,0,0-.349.4,1.159,1.159,0,0,0-.116.526,1.092,1.092,0,0,0,.137.54.954.954,0,0,0,.4.376,1.4,1.4,0,0,0,.643.137,1.792,1.792,0,0,0,1.483-.718,1.121,1.121,0,0,0,.233-.581l.533.732a2.478,2.478,0,0,1-.281.6,2.891,2.891,0,0,1-.519.615,2.574,2.574,0,0,1-1.771.657,2.828,2.828,0,0,1-1.292-.287,2.293,2.293,0,0,1-.889-.787,2.034,2.034,0,0,1-.321-1.127,2.359,2.359,0,0,1,.219-1.04,2.037,2.037,0,0,1,.656-.765,3.181,3.181,0,0,1,1.066-.465,5.723,5.723,0,0,1,1.436-.164Zm5-6V281h-1.655V270.5Zm13.55.547V281h-1.715l-4.464-7.13V281h-1.716v-9.953h1.716l4.477,7.143v-7.143Zm6.43,8.21V273.6h1.655V281h-1.559Zm.233-1.538.554-.014a5.449,5.449,0,0,1-.164,1.374,3.193,3.193,0,0,1-.506,1.087,2.373,2.373,0,0,1-.875.718,3.283,3.283,0,0,1-2.27.1,2.017,2.017,0,0,1-.779-.485,2.2,2.2,0,0,1-.5-.854,3.938,3.938,0,0,1-.178-1.258V273.6h1.648V278.4a2.061,2.061,0,0,0,.1.676,1.149,1.149,0,0,0,.26.431.918.918,0,0,0,.383.232,1.538,1.538,0,0,0,.465.069,1.945,1.945,0,0,0,1.107-.274,1.508,1.508,0,0,0,.581-.752A2.97,2.97,0,0,0,126.03,277.719Zm4.858-2.612V281H129.24v-7.4h1.552Zm-.267,1.921-.56-.007a4.976,4.976,0,0,1,.191-1.415,3.412,3.412,0,0,1,.56-1.127,2.477,2.477,0,0,1,.917-.746,2.922,2.922,0,0,1,1.278-.266,2.712,2.712,0,0,1,.923.15,1.841,1.841,0,0,1,.731.458,2.032,2.032,0,0,1,.479.807,3.639,3.639,0,0,1,.171,1.189V281h-1.648v-4.785a1.825,1.825,0,0,0-.164-.848.9.9,0,0,0-.458-.437,1.662,1.662,0,0,0-.7-.137,1.638,1.638,0,0,0-.793.178,1.482,1.482,0,0,0-.526.485,2.172,2.172,0,0,0-.3.711A3.712,3.712,0,0,0,130.621,277.028Zm4.587-.437-.772.171a4.248,4.248,0,0,1,.184-1.265,3.227,3.227,0,0,1,.554-1.053,2.6,2.6,0,0,1,.909-.717,2.808,2.808,0,0,1,1.237-.26,3.017,3.017,0,0,1,1.012.157,1.852,1.852,0,0,1,.766.479,2.121,2.121,0,0,1,.478.854,4.192,4.192,0,0,1,.164,1.258V281h-1.654v-4.792a1.876,1.876,0,0,0-.164-.868.85.85,0,0,0-.451-.424,1.821,1.821,0,0,0-.7-.123,1.518,1.518,0,0,0-.677.144,1.35,1.35,0,0,0-.486.389,1.725,1.725,0,0,0-.3.568A2.421,2.421,0,0,0,135.208,276.591Zm6.334-6.091h1.648v8.921L143.033,281h-1.491Zm6.474,6.733v.144a5.846,5.846,0,0,1-.185,1.511,3.474,3.474,0,0,1-.546,1.189,2.542,2.542,0,0,1-.9.786,2.665,2.665,0,0,1-1.237.274,2.633,2.633,0,0,1-1.2-.26,2.4,2.4,0,0,1-.862-.738,4.114,4.114,0,0,1-.553-1.142,7.474,7.474,0,0,1-.3-1.463v-.458a7.337,7.337,0,0,1,.3-1.463,4.107,4.107,0,0,1,.553-1.141,2.387,2.387,0,0,1,.855-.745,2.605,2.605,0,0,1,1.2-.26,2.737,2.737,0,0,1,1.251.273,2.448,2.448,0,0,1,.909.78,3.454,3.454,0,0,1,.54,1.189A5.893,5.893,0,0,1,148.016,277.233Zm-1.647.144v-.144a5.144,5.144,0,0,0-.082-.936,2.455,2.455,0,0,0-.274-.779,1.371,1.371,0,0,0-.506-.527,1.446,1.446,0,0,0-.786-.2,1.733,1.733,0,0,0-.752.15,1.513,1.513,0,0,0-.526.411,2.007,2.007,0,0,0-.335.6,3.316,3.316,0,0,0-.157.738v1.238a3.141,3.141,0,0,0,.259.943,1.753,1.753,0,0,0,.575.684,1.649,1.649,0,0,0,.95.253,1.5,1.5,0,0,0,.772-.185,1.345,1.345,0,0,0,.5-.513,2.455,2.455,0,0,0,.274-.779A4.894,4.894,0,0,0,146.369,277.377Zm6.4,3.76a3.937,3.937,0,0,1-1.483-.267,3.261,3.261,0,0,1-1.121-.759,3.349,3.349,0,0,1-.7-1.141,4,4,0,0,1-.246-1.415v-.274a4.612,4.612,0,0,1,.253-1.572,3.561,3.561,0,0,1,.7-1.2,3.026,3.026,0,0,1,1.066-.773,3.329,3.329,0,0,1,1.333-.266,3.38,3.38,0,0,1,1.388.266,2.622,2.622,0,0,1,.984.752,3.134,3.134,0,0,1,.588,1.142,5.1,5.1,0,0,1,.2,1.463v.7h-5.715v-1.183H154.1v-.13a2.321,2.321,0,0,0-.177-.834,1.417,1.417,0,0,0-.486-.628,1.45,1.45,0,0,0-.875-.24,1.49,1.49,0,0,0-.731.178,1.45,1.45,0,0,0-.527.5,2.65,2.65,0,0,0-.328.793,4.447,4.447,0,0,0-.109,1.032v.274a3.007,3.007,0,0,0,.13.9,2.16,2.16,0,0,0,.4.718,1.874,1.874,0,0,0,.629.485,1.981,1.981,0,0,0,.841.171,2.292,2.292,0,0,0,1.06-.239,2.439,2.439,0,0,0,.806-.677l.868.841a3.352,3.352,0,0,1-.622.67,3.12,3.12,0,0,1-.936.512A3.708,3.708,0,0,1,152.771,281.137Zm6-6.125V281h-1.648v-7.4H158.7Zm2.262-1.456-.013,1.531a3.3,3.3,0,0,0-.328-.041c-.114-.009-.228-.014-.342-.014a2.074,2.074,0,0,0-.745.123,1.4,1.4,0,0,0-.54.342,1.493,1.493,0,0,0-.328.533,2.354,2.354,0,0,0-.137.7l-.376.028a5.709,5.709,0,0,1,.137-1.292,3.5,3.5,0,0,1,.41-1.046,2.1,2.1,0,0,1,.7-.7,1.868,1.868,0,0,1,.978-.253,2.067,2.067,0,0,1,.321.027A1.332,1.332,0,0,1,161.033,273.556ZM166.315,279a.824.824,0,0,0-.123-.444,1.045,1.045,0,0,0-.472-.369,4.533,4.533,0,0,0-1.011-.3,8.7,8.7,0,0,1-1.08-.308,3.416,3.416,0,0,1-.834-.444,1.869,1.869,0,0,1-.541-.615,1.713,1.713,0,0,1-.191-.821,1.915,1.915,0,0,1,.2-.854,2.163,2.163,0,0,1,.568-.711,2.75,2.75,0,0,1,.9-.485,3.736,3.736,0,0,1,1.19-.178,3.7,3.7,0,0,1,1.592.314,2.4,2.4,0,0,1,1.026.841,2.076,2.076,0,0,1,.355,1.19H166.24a1.044,1.044,0,0,0-.151-.547,1.032,1.032,0,0,0-.437-.417,1.493,1.493,0,0,0-.738-.164,1.6,1.6,0,0,0-.7.136.972.972,0,0,0-.411.342.876.876,0,0,0-.129.465.656.656,0,0,0,.314.6,2.034,2.034,0,0,0,.465.218,6.523,6.523,0,0,0,.752.2,6.833,6.833,0,0,1,1.456.458,2.331,2.331,0,0,1,.943.71,1.754,1.754,0,0,1,.328,1.094,1.932,1.932,0,0,1-.212.9,2.053,2.053,0,0,1-.6.7,3.031,3.031,0,0,1-.95.458,4.3,4.3,0,0,1-1.231.164,3.715,3.715,0,0,1-1.7-.356,2.71,2.71,0,0,1-1.06-.923,2.183,2.183,0,0,1-.355-1.175h1.593a1.228,1.228,0,0,0,.253.731,1.355,1.355,0,0,0,.574.39,2.267,2.267,0,0,0,.718.116,2.092,2.092,0,0,0,.745-.116,1.081,1.081,0,0,0,.458-.328A.784.784,0,0,0,166.315,279Z" fill="#fff"/>
    <path id="Path_76369" data-name="Path 76369" d="M17,299a10,10,0,0,1,10-10H158v83H27a10,10,0,0,1-10-10Z" fill="#fafafb"/>
    <rect id="Rectangle_22716" data-name="Rectangle 22716" width="109.75" height="29" transform="translate(32.5 327.5)" fill="#fff" stroke="#e2e2ea" stroke-width="1"/>
    <path id="Path_76370" data-name="Path 76370" d="M46.276,341.23v1.518a8.316,8.316,0,0,1-.219,2.064,3.593,3.593,0,0,1-.629,1.354,2.392,2.392,0,0,1-.991.745,3.516,3.516,0,0,1-1.3.226,3.713,3.713,0,0,1-1.06-.144,2.515,2.515,0,0,1-.875-.458,2.771,2.771,0,0,1-.656-.834,4.471,4.471,0,0,1-.417-1.244,8.966,8.966,0,0,1-.144-1.709V341.23a8.152,8.152,0,0,1,.219-2.05,3.517,3.517,0,0,1,.636-1.326,2.311,2.311,0,0,1,.984-.725,3.659,3.659,0,0,1,1.3-.219,3.739,3.739,0,0,1,1.066.144,2.409,2.409,0,0,1,.875.444,2.469,2.469,0,0,1,.649.807,4.264,4.264,0,0,1,.417,1.223A8.859,8.859,0,0,1,46.276,341.23ZM45,342.953v-1.934a7.435,7.435,0,0,0-.082-1.176,3.692,3.692,0,0,0-.226-.875,1.724,1.724,0,0,0-.383-.588,1.341,1.341,0,0,0-.526-.328,1.889,1.889,0,0,0-.663-.11,1.793,1.793,0,0,0-.8.171,1.44,1.44,0,0,0-.588.527,2.834,2.834,0,0,0-.355.95,7.1,7.1,0,0,0-.123,1.429v1.934a8.243,8.243,0,0,0,.075,1.183,3.9,3.9,0,0,0,.239.888,2.044,2.044,0,0,0,.383.609,1.429,1.429,0,0,0,.52.355,1.925,1.925,0,0,0,.663.11,1.774,1.774,0,0,0,.813-.178,1.468,1.468,0,0,0,.581-.554,2.884,2.884,0,0,0,.355-.977A7.689,7.689,0,0,0,45,342.953Zm3.156,3.377a.775.775,0,0,1,.2-.54.756.756,0,0,1,.588-.226.734.734,0,0,1,.581.226.76.76,0,0,1,.205.54.729.729,0,0,1-.786.752.719.719,0,0,1-.786-.752Zm5.234-4.067L52.383,342l.5-4.956h5.106v1.169H53.955l-.3,2.707a3.71,3.71,0,0,1,.69-.294,3.165,3.165,0,0,1,.971-.137,3.066,3.066,0,0,1,1.237.239,2.544,2.544,0,0,1,.93.67,2.981,2.981,0,0,1,.595,1.053,4.328,4.328,0,0,1,.205,1.374,4.189,4.189,0,0,1-.2,1.319A2.961,2.961,0,0,1,57.5,346.2a2.618,2.618,0,0,1-.984.691,3.58,3.58,0,0,1-1.388.246,3.918,3.918,0,0,1-1.142-.164,2.938,2.938,0,0,1-.957-.513,2.781,2.781,0,0,1-.684-.861,3.464,3.464,0,0,1-.328-1.217h1.2a2.352,2.352,0,0,0,.328.943,1.608,1.608,0,0,0,.642.581,2.156,2.156,0,0,0,.937.192,1.924,1.924,0,0,0,.8-.158,1.581,1.581,0,0,0,.588-.451,2.017,2.017,0,0,0,.362-.711,3.141,3.141,0,0,0,.13-.936,2.837,2.837,0,0,0-.13-.875,2,2,0,0,0-.39-.7,1.7,1.7,0,0,0-.622-.465,2,2,0,0,0-.848-.171,2.144,2.144,0,0,0-.964.171A3.688,3.688,0,0,0,53.394,342.263Zm9.144-.014v1.039H59.2v-1.039Zm7.449-1.019v1.518a8.321,8.321,0,0,1-.219,2.064,3.594,3.594,0,0,1-.629,1.354,2.393,2.393,0,0,1-.991.745,3.516,3.516,0,0,1-1.3.226,3.713,3.713,0,0,1-1.06-.144,2.515,2.515,0,0,1-.875-.458,2.772,2.772,0,0,1-.656-.834,4.471,4.471,0,0,1-.417-1.244,8.967,8.967,0,0,1-.144-1.709V341.23a8.157,8.157,0,0,1,.219-2.05,3.519,3.519,0,0,1,.636-1.326,2.311,2.311,0,0,1,.984-.725,3.659,3.659,0,0,1,1.3-.219,3.739,3.739,0,0,1,1.066.144,2.409,2.409,0,0,1,.875.444,2.47,2.47,0,0,1,.649.807,4.264,4.264,0,0,1,.417,1.223A8.86,8.86,0,0,1,69.987,341.23Zm-1.271,1.723v-1.934a7.423,7.423,0,0,0-.082-1.176,3.683,3.683,0,0,0-.226-.875,1.722,1.722,0,0,0-.383-.588,1.34,1.34,0,0,0-.526-.328,1.889,1.889,0,0,0-.663-.11,1.794,1.794,0,0,0-.8.171,1.44,1.44,0,0,0-.588.527,2.83,2.83,0,0,0-.355.95,7.1,7.1,0,0,0-.123,1.429v1.934a8.242,8.242,0,0,0,.075,1.183,3.9,3.9,0,0,0,.239.888,2.042,2.042,0,0,0,.383.609,1.431,1.431,0,0,0,.519.355,1.926,1.926,0,0,0,.663.11,1.775,1.775,0,0,0,.813-.178,1.468,1.468,0,0,0,.581-.554,2.882,2.882,0,0,0,.355-.977A7.68,7.68,0,0,0,68.715,342.953Zm3.156,3.377a.775.775,0,0,1,.2-.54.756.756,0,0,1,.588-.226.734.734,0,0,1,.581.226.76.76,0,0,1,.205.54.729.729,0,0,1-.786.752.719.719,0,0,1-.786-.752Zm5.234-4.067L76.093,342l.5-4.956H81.7v1.169H77.665l-.3,2.707a3.711,3.711,0,0,1,.69-.294,3.164,3.164,0,0,1,.971-.137,3.066,3.066,0,0,1,1.237.239,2.544,2.544,0,0,1,.93.67,2.981,2.981,0,0,1,.595,1.053,4.328,4.328,0,0,1,.205,1.374,4.189,4.189,0,0,1-.2,1.319,2.962,2.962,0,0,1-.581,1.053,2.618,2.618,0,0,1-.984.691,3.58,3.58,0,0,1-1.388.246,3.919,3.919,0,0,1-1.142-.164,2.937,2.937,0,0,1-.957-.513,2.78,2.78,0,0,1-.684-.861,3.46,3.46,0,0,1-.328-1.217h1.2a2.352,2.352,0,0,0,.328.943,1.609,1.609,0,0,0,.643.581,2.156,2.156,0,0,0,.937.192,1.924,1.924,0,0,0,.8-.158,1.581,1.581,0,0,0,.588-.451,2.015,2.015,0,0,0,.362-.711,3.141,3.141,0,0,0,.13-.936,2.837,2.837,0,0,0-.13-.875,2,2,0,0,0-.39-.7,1.7,1.7,0,0,0-.622-.465,2,2,0,0,0-.848-.171,2.144,2.144,0,0,0-.964.171A3.684,3.684,0,0,0,77.1,342.263Zm9.144-.014v1.039H82.913v-1.039ZM93.7,341.23v1.518a8.321,8.321,0,0,1-.219,2.064,3.593,3.593,0,0,1-.629,1.354,2.392,2.392,0,0,1-.991.745,3.516,3.516,0,0,1-1.3.226,3.713,3.713,0,0,1-1.06-.144,2.515,2.515,0,0,1-.875-.458,2.773,2.773,0,0,1-.656-.834,4.474,4.474,0,0,1-.417-1.244,8.958,8.958,0,0,1-.144-1.709V341.23a8.157,8.157,0,0,1,.219-2.05,3.519,3.519,0,0,1,.636-1.326,2.311,2.311,0,0,1,.984-.725,3.659,3.659,0,0,1,1.3-.219,3.739,3.739,0,0,1,1.066.144,2.409,2.409,0,0,1,.875.444,2.469,2.469,0,0,1,.649.807,4.264,4.264,0,0,1,.417,1.223A8.86,8.86,0,0,1,93.7,341.23Zm-1.271,1.723v-1.934a7.423,7.423,0,0,0-.082-1.176,3.688,3.688,0,0,0-.226-.875,1.723,1.723,0,0,0-.383-.588,1.34,1.34,0,0,0-.526-.328,1.889,1.889,0,0,0-.663-.11,1.793,1.793,0,0,0-.8.171,1.44,1.44,0,0,0-.588.527,2.832,2.832,0,0,0-.355.95,7.1,7.1,0,0,0-.123,1.429v1.934a8.229,8.229,0,0,0,.075,1.183,3.9,3.9,0,0,0,.239.888,2.046,2.046,0,0,0,.383.609,1.43,1.43,0,0,0,.52.355,1.925,1.925,0,0,0,.663.11,1.774,1.774,0,0,0,.813-.178,1.468,1.468,0,0,0,.581-.554,2.884,2.884,0,0,0,.355-.977A7.689,7.689,0,0,0,92.426,342.953Zm3.156,3.377a.775.775,0,0,1,.2-.54.756.756,0,0,1,.588-.226.734.734,0,0,1,.581.226.76.76,0,0,1,.205.54.729.729,0,0,1-.786.752.719.719,0,0,1-.786-.752Zm5.233-4.067L99.8,342l.5-4.956h5.106v1.169h-4.033l-.3,2.707a3.708,3.708,0,0,1,.691-.294,3.16,3.16,0,0,1,.97-.137,3.068,3.068,0,0,1,1.238.239,2.545,2.545,0,0,1,.929.67,2.982,2.982,0,0,1,.6,1.053,4.319,4.319,0,0,1,.205,1.374,4.2,4.2,0,0,1-.2,1.319,2.964,2.964,0,0,1-.581,1.053,2.618,2.618,0,0,1-.985.691,3.573,3.573,0,0,1-1.387.246,3.921,3.921,0,0,1-1.142-.164,2.947,2.947,0,0,1-.957-.513,2.781,2.781,0,0,1-.684-.861,3.464,3.464,0,0,1-.328-1.217h1.2a2.343,2.343,0,0,0,.328.943,1.609,1.609,0,0,0,.642.581,2.157,2.157,0,0,0,.937.192,1.926,1.926,0,0,0,.8-.158,1.578,1.578,0,0,0,.587-.451,2.008,2.008,0,0,0,.363-.711,3.161,3.161,0,0,0,.13-.936,2.856,2.856,0,0,0-.13-.875,2.007,2.007,0,0,0-.39-.7,1.7,1.7,0,0,0-.622-.465,2,2,0,0,0-.848-.171,2.14,2.14,0,0,0-.963.171A3.668,3.668,0,0,0,100.815,342.263Z" fill="#454551"/>
    <path id="Path_76371" data-name="Path 76371" d="M35.346,317H33.523l.012-1.166h1.811a2.381,2.381,0,0,0,1.324-.346,2.1,2.1,0,0,0,.809-.99,3.891,3.891,0,0,0,.275-1.535V312.5a4.316,4.316,0,0,0-.158-1.225,2.4,2.4,0,0,0-.457-.9,1.916,1.916,0,0,0-.738-.551,2.506,2.506,0,0,0-1-.187h-1.91v-1.172H35.4a4.059,4.059,0,0,1,1.553.287,3.406,3.406,0,0,1,1.213.814,3.627,3.627,0,0,1,.791,1.278,4.763,4.763,0,0,1,.275,1.664v.451a4.767,4.767,0,0,1-.275,1.664,3.614,3.614,0,0,1-.791,1.277,3.55,3.55,0,0,1-1.23.815A4.284,4.284,0,0,1,35.346,317Zm-1.008-8.531V317H32.867v-8.531Zm9.123,8.648a3.389,3.389,0,0,1-1.271-.228,2.81,2.81,0,0,1-.961-.651,2.878,2.878,0,0,1-.6-.978,3.43,3.43,0,0,1-.211-1.213v-.235a3.961,3.961,0,0,1,.217-1.347,3.052,3.052,0,0,1,.6-1.031,2.605,2.605,0,0,1,.914-.663,2.848,2.848,0,0,1,1.143-.228,2.891,2.891,0,0,1,1.189.228,2.247,2.247,0,0,1,.844.645,2.673,2.673,0,0,1,.5.979,4.354,4.354,0,0,1,.17,1.253v.6H41.1v-1.014h3.5v-.111a1.986,1.986,0,0,0-.152-.715,1.215,1.215,0,0,0-.416-.539,1.244,1.244,0,0,0-.75-.2,1.279,1.279,0,0,0-.627.152,1.248,1.248,0,0,0-.451.428,2.255,2.255,0,0,0-.281.68,3.809,3.809,0,0,0-.094.884v.235a2.587,2.587,0,0,0,.111.773,1.85,1.85,0,0,0,.34.616,1.627,1.627,0,0,0,.539.416,1.706,1.706,0,0,0,.721.146,1.953,1.953,0,0,0,.908-.2,2.085,2.085,0,0,0,.691-.58l.744.721a2.915,2.915,0,0,1-.533.574,2.655,2.655,0,0,1-.8.439A3.175,3.175,0,0,1,43.461,317.117Zm6.328-1.125a1.392,1.392,0,0,0,.621-.135,1.169,1.169,0,0,0,.451-.386,1.057,1.057,0,0,0,.193-.569h1.33a1.978,1.978,0,0,1-.363,1.119,2.519,2.519,0,0,1-.932.8,2.8,2.8,0,0,1-1.283.293,3.024,3.024,0,0,1-1.266-.246,2.5,2.5,0,0,1-.9-.691,3.043,3.043,0,0,1-.539-1.014,4.186,4.186,0,0,1-.176-1.23v-.206a4.186,4.186,0,0,1,.176-1.23,3.034,3.034,0,0,1,.539-1.02,2.454,2.454,0,0,1,.9-.685,2.947,2.947,0,0,1,1.26-.252,2.81,2.81,0,0,1,1.336.3,2.244,2.244,0,0,1,.9.838,2.364,2.364,0,0,1,.346,1.242h-1.33a1.413,1.413,0,0,0-.176-.633,1.162,1.162,0,0,0-.434-.457,1.239,1.239,0,0,0-.662-.17,1.317,1.317,0,0,0-.709.176,1.18,1.18,0,0,0-.439.468,2.3,2.3,0,0,0-.229.663,4.322,4.322,0,0,0-.064.755v.206a4.425,4.425,0,0,0,.064.761,2.166,2.166,0,0,0,.223.662,1.291,1.291,0,0,0,.445.463A1.357,1.357,0,0,0,49.79,315.992Zm5.291-5.332V317H53.663v-6.34ZM53.569,309a.722.722,0,0,1,.211-.533.923.923,0,0,1,1.189,0,.712.712,0,0,1,.217.533.7.7,0,0,1-.217.527.944.944,0,0,1-1.189,0A.713.713,0,0,1,53.569,309Zm4.571,2.953V317H56.728v-6.34h1.33Zm-.229,1.647-.481-.006a4.272,4.272,0,0,1,.164-1.213,2.92,2.92,0,0,1,.481-.967,2.121,2.121,0,0,1,.785-.639,2.5,2.5,0,0,1,1.1-.228,2.316,2.316,0,0,1,.791.129,1.574,1.574,0,0,1,.627.392,1.741,1.741,0,0,1,.41.692,3.124,3.124,0,0,1,.146,1.019V317H60.519v-4.1a1.558,1.558,0,0,0-.141-.726.777.777,0,0,0-.393-.375,1.423,1.423,0,0,0-.6-.117,1.4,1.4,0,0,0-.68.152,1.28,1.28,0,0,0-.451.416,1.868,1.868,0,0,0-.258.609A3.2,3.2,0,0,0,57.912,313.6Zm3.932-.375-.662.146a3.636,3.636,0,0,1,.158-1.084,2.758,2.758,0,0,1,.475-.9,2.218,2.218,0,0,1,.779-.615,2.41,2.41,0,0,1,1.061-.223,2.587,2.587,0,0,1,.867.135,1.583,1.583,0,0,1,.656.41,1.823,1.823,0,0,1,.41.732,3.615,3.615,0,0,1,.141,1.078V317H64.31v-4.107a1.607,1.607,0,0,0-.141-.745.733.733,0,0,0-.387-.363,1.565,1.565,0,0,0-.6-.105,1.306,1.306,0,0,0-.58.123,1.145,1.145,0,0,0-.416.334,1.476,1.476,0,0,0-.258.486A2.089,2.089,0,0,0,61.843,313.221Zm9.012,2.508V312.7a1.3,1.3,0,0,0-.123-.586.863.863,0,0,0-.375-.381,1.281,1.281,0,0,0-.621-.134,1.408,1.408,0,0,0-.6.117.962.962,0,0,0-.393.316.763.763,0,0,0-.141.451H67.2a1.561,1.561,0,0,1,.182-.726,1.929,1.929,0,0,1,.527-.627,2.638,2.638,0,0,1,.826-.434,3.451,3.451,0,0,1,1.078-.158,3.142,3.142,0,0,1,1.266.24,1.926,1.926,0,0,1,.873.727,2.119,2.119,0,0,1,.322,1.207v2.818a4.691,4.691,0,0,0,.059.779,2.51,2.51,0,0,0,.182.592V317H71.066a2.5,2.5,0,0,1-.158-.58A4.729,4.729,0,0,1,70.855,315.729Zm.205-2.584.012.873H70.059a2.8,2.8,0,0,0-.691.076,1.419,1.419,0,0,0-.5.211.909.909,0,0,0-.3.34.992.992,0,0,0-.1.451.939.939,0,0,0,.117.463.824.824,0,0,0,.34.322,1.2,1.2,0,0,0,.551.117,1.539,1.539,0,0,0,1.271-.615.958.958,0,0,0,.2-.5l.457.627a2.131,2.131,0,0,1-.24.515,2.492,2.492,0,0,1-.445.528,2.206,2.206,0,0,1-1.518.562,2.42,2.42,0,0,1-1.107-.246,1.964,1.964,0,0,1-.762-.674,1.746,1.746,0,0,1-.275-.967,2.018,2.018,0,0,1,.188-.89,1.737,1.737,0,0,1,.563-.656,2.721,2.721,0,0,1,.914-.4,4.879,4.879,0,0,1,1.23-.14Zm4.3-5.145v9H73.944v-9Zm6.458,7.594,1.465-4.934h.9l-.246,1.477L82.464,317h-.809Zm-.861-4.934,1.143,4.957L82.195,317h-.9l-1.717-6.34Zm4.6,4.9,1.107-4.9h1.377L86.331,317h-.9Zm-1.219-4.9,1.447,4.875L85.968,317h-.809l-1.494-4.869-.246-1.471Zm6.276,0V317H89.2v-6.34ZM89.1,309a.722.722,0,0,1,.211-.533.923.923,0,0,1,1.189,0,.712.712,0,0,1,.217.533.7.7,0,0,1-.217.527.944.944,0,0,1-1.189,0A.713.713,0,0,1,89.1,309Zm6.065,1.664v1.031H91.594V310.66Zm-2.543-1.553h1.412v6.141a1,1,0,0,0,.082.451.436.436,0,0,0,.24.2,1.1,1.1,0,0,0,.357.053,2.123,2.123,0,0,0,.281-.018c.09-.011.162-.023.217-.035l.006,1.078a3.356,3.356,0,0,1-.41.094,2.948,2.948,0,0,1-.527.041,2.055,2.055,0,0,1-.861-.17,1.265,1.265,0,0,1-.586-.568,2.207,2.207,0,0,1-.211-1.043ZM97.752,308v9H96.346v-9Zm-.246,5.6-.457-.006a4.13,4.13,0,0,1,.182-1.213,3.117,3.117,0,0,1,.5-.967,2.24,2.24,0,0,1,1.8-.867,2.582,2.582,0,0,1,.843.129,1.611,1.611,0,0,1,.657.416,1.786,1.786,0,0,1,.416.738,3.623,3.623,0,0,1,.146,1.1V317h-1.418v-4.084a1.64,1.64,0,0,0-.135-.727.78.78,0,0,0-.381-.386,1.393,1.393,0,0,0-.615-.123,1.435,1.435,0,0,0-.674.152,1.408,1.408,0,0,0-.48.416,1.924,1.924,0,0,0-.293.609A2.818,2.818,0,0,0,97.506,313.6Zm14.485-1.565V313.2h-4.529v-1.166Zm-4.166-3.562V317h-1.47v-8.531Zm5.3,0V317h-1.465v-8.531Zm3.551,7.84,1.723-5.649h1.512l-2.543,7.307a5.082,5.082,0,0,1-.229.51,2.276,2.276,0,0,1-.369.521,1.629,1.629,0,0,1-.556.4,1.874,1.874,0,0,1-.809.159,1.8,1.8,0,0,1-.363-.036c-.114-.019-.221-.041-.323-.064l-.005-1.078.14.012c.059,0,.106.005.141.005a1.679,1.679,0,0,0,.586-.088.81.81,0,0,0,.381-.269,1.6,1.6,0,0,0,.257-.5Zm-.972-5.649,1.506,4.746.252,1.489-.979.251-2.3-6.486Zm6.533,1.219v7.559h-1.412V310.66h1.3Zm4.131,1.892v.124a4.77,4.77,0,0,1-.164,1.283,3.128,3.128,0,0,1-.474,1.025,2.184,2.184,0,0,1-.768.674,2.236,2.236,0,0,1-1.055.24,2.338,2.338,0,0,1-1.037-.217,2.114,2.114,0,0,1-.744-.627,3.389,3.389,0,0,1-.492-.949,6.106,6.106,0,0,1-.258-1.207v-.474a6.494,6.494,0,0,1,.258-1.266,3.441,3.441,0,0,1,.492-.979,2.1,2.1,0,0,1,.744-.632,2.235,2.235,0,0,1,1.026-.223,2.316,2.316,0,0,1,1.06.234,2.131,2.131,0,0,1,.779.657,2.918,2.918,0,0,1,.475,1.019A5.127,5.127,0,0,1,126.365,313.771Zm-1.412.124v-.124a3.793,3.793,0,0,0-.082-.814,2.135,2.135,0,0,0-.258-.668,1.256,1.256,0,0,0-.451-.445,1.221,1.221,0,0,0-.65-.164,1.484,1.484,0,0,0-.645.129,1.243,1.243,0,0,0-.451.345,1.637,1.637,0,0,0-.281.522,3.06,3.06,0,0,0-.141.638v1.137a2.868,2.868,0,0,0,.24.774,1.415,1.415,0,0,0,.481.562,1.457,1.457,0,0,0,.808.205,1.225,1.225,0,0,0,.651-.164,1.275,1.275,0,0,0,.439-.451,2.21,2.21,0,0,0,.258-.674A3.809,3.809,0,0,0,124.953,313.895ZM129.061,308v9h-1.406v-9Zm-.246,5.6-.457-.006a4.14,4.14,0,0,1,.181-1.213,3.156,3.156,0,0,1,.5-.967,2.244,2.244,0,0,1,1.8-.867,2.584,2.584,0,0,1,.844.129,1.6,1.6,0,0,1,.656.416,1.775,1.775,0,0,1,.416.738,3.59,3.59,0,0,1,.147,1.1V317h-1.418v-4.084a1.64,1.64,0,0,0-.135-.727.782.782,0,0,0-.381-.386,1.393,1.393,0,0,0-.615-.123,1.434,1.434,0,0,0-.674.152,1.4,1.4,0,0,0-.48.416,1.913,1.913,0,0,0-.293.609A2.8,2.8,0,0,0,128.815,313.6Zm8.414,3.521a3.389,3.389,0,0,1-1.271-.228,2.8,2.8,0,0,1-.961-.651,2.88,2.88,0,0,1-.6-.978,3.444,3.444,0,0,1-.211-1.213v-.235a3.973,3.973,0,0,1,.217-1.347,3.056,3.056,0,0,1,.6-1.031,2.6,2.6,0,0,1,.914-.663,2.844,2.844,0,0,1,1.142-.228,2.894,2.894,0,0,1,1.19.228,2.25,2.25,0,0,1,.844.645,2.674,2.674,0,0,1,.5.979,4.33,4.33,0,0,1,.17,1.253v.6h-4.9v-1.014h3.5v-.111a2,2,0,0,0-.152-.715,1.219,1.219,0,0,0-.416-.539,1.246,1.246,0,0,0-.75-.2,1.276,1.276,0,0,0-.627.152,1.247,1.247,0,0,0-.452.428,2.273,2.273,0,0,0-.281.68,3.836,3.836,0,0,0-.094.884v.235a2.561,2.561,0,0,0,.112.773,1.836,1.836,0,0,0,.34.616,1.623,1.623,0,0,0,.539.416,1.705,1.705,0,0,0,.72.146,1.957,1.957,0,0,0,.909-.2,2.086,2.086,0,0,0,.691-.58l.744.721a2.916,2.916,0,0,1-.533.574,2.653,2.653,0,0,1-.8.439A3.174,3.174,0,0,1,137.229,317.117Zm5.139-5.1V317h-1.412v-6.34h1.33Zm-.252,1.582-.457-.006a4.128,4.128,0,0,1,.188-1.236,3.036,3.036,0,0,1,.516-.967,2.26,2.26,0,0,1,.8-.621,2.345,2.345,0,0,1,1.032-.223,2.494,2.494,0,0,1,.826.129,1.5,1.5,0,0,1,.638.4,1.827,1.827,0,0,1,.411.733,3.7,3.7,0,0,1,.14,1.1V317h-1.418v-4.1a1.613,1.613,0,0,0-.134-.72.753.753,0,0,0-.381-.381,1.431,1.431,0,0,0-.616-.117,1.359,1.359,0,0,0-.65.152,1.47,1.47,0,0,0-.486.416,2.013,2.013,0,0,0-.3.609A2.534,2.534,0,0,0,142.116,313.6Z" fill="#171725"/>
    <path id="Path_76372" data-name="Path 76372" d="M158,289H289a10,10,0,0,1,10,10v63a10,10,0,0,1-10,10H158Z" fill="#f1f1f5"/>
    <path id="Path_76373" data-name="Path 76373" d="M176.346,317h-1.823l.012-1.166h1.811a2.383,2.383,0,0,0,1.324-.346,2.1,2.1,0,0,0,.809-.99,3.9,3.9,0,0,0,.275-1.535V312.5a4.334,4.334,0,0,0-.158-1.225,2.409,2.409,0,0,0-.457-.9,1.924,1.924,0,0,0-.739-.551,2.505,2.505,0,0,0-1-.187h-1.91v-1.172h1.91a4.059,4.059,0,0,1,1.553.287,3.4,3.4,0,0,1,1.213.814,3.629,3.629,0,0,1,.791,1.278,4.753,4.753,0,0,1,.275,1.664v.451a4.757,4.757,0,0,1-.275,1.664,3.616,3.616,0,0,1-.791,1.277,3.556,3.556,0,0,1-1.23.815A4.286,4.286,0,0,1,176.346,317Zm-1.008-8.531V317h-1.471v-8.531Zm9.123,8.648a3.389,3.389,0,0,1-1.271-.228,2.814,2.814,0,0,1-.961-.651,2.88,2.88,0,0,1-.6-.978,3.444,3.444,0,0,1-.211-1.213v-.235a3.973,3.973,0,0,1,.217-1.347,3.056,3.056,0,0,1,.6-1.031,2.6,2.6,0,0,1,.914-.663,2.844,2.844,0,0,1,1.142-.228,2.891,2.891,0,0,1,1.19.228,2.25,2.25,0,0,1,.844.645,2.692,2.692,0,0,1,.5.979,4.365,4.365,0,0,1,.169,1.253v.6h-4.9v-1.014h3.5v-.111a2,2,0,0,0-.152-.715,1.219,1.219,0,0,0-.416-.539,1.246,1.246,0,0,0-.75-.2,1.276,1.276,0,0,0-.627.152,1.255,1.255,0,0,0-.452.428,2.273,2.273,0,0,0-.281.68,3.836,3.836,0,0,0-.094.884v.235a2.593,2.593,0,0,0,.112.773,1.836,1.836,0,0,0,.34.616,1.623,1.623,0,0,0,.539.416,1.705,1.705,0,0,0,.72.146,1.957,1.957,0,0,0,.909-.2,2.086,2.086,0,0,0,.691-.58l.744.721a2.917,2.917,0,0,1-.533.574,2.653,2.653,0,0,1-.8.439A3.174,3.174,0,0,1,184.461,317.117Zm6.329-1.125a1.4,1.4,0,0,0,.621-.135,1.17,1.17,0,0,0,.451-.386,1.052,1.052,0,0,0,.193-.569h1.331a1.975,1.975,0,0,1-.364,1.119,2.519,2.519,0,0,1-.931.8,2.8,2.8,0,0,1-1.284.293,3.021,3.021,0,0,1-1.265-.246,2.5,2.5,0,0,1-.9-.691,3.046,3.046,0,0,1-.539-1.014,4.189,4.189,0,0,1-.176-1.23v-.206a4.189,4.189,0,0,1,.176-1.23,3.037,3.037,0,0,1,.539-1.02,2.456,2.456,0,0,1,.9-.685,2.945,2.945,0,0,1,1.26-.252,2.807,2.807,0,0,1,1.335.3,2.246,2.246,0,0,1,.9.838,2.372,2.372,0,0,1,.346,1.242h-1.331a1.409,1.409,0,0,0-.175-.633,1.162,1.162,0,0,0-.434-.457,1.239,1.239,0,0,0-.662-.17,1.317,1.317,0,0,0-.709.176,1.172,1.172,0,0,0-.439.468,2.286,2.286,0,0,0-.229.663,4.313,4.313,0,0,0-.064.755v.206a4.415,4.415,0,0,0,.064.761,2.153,2.153,0,0,0,.223.662,1.282,1.282,0,0,0,.445.463A1.357,1.357,0,0,0,190.79,315.992Zm5.291-5.332V317h-1.418v-6.34ZM194.57,309a.724.724,0,0,1,.21-.533.807.807,0,0,1,.6-.217.8.8,0,0,1,.592.217.715.715,0,0,1,.217.533.706.706,0,0,1-.217.527.812.812,0,0,1-.592.211.821.821,0,0,1-.6-.211A.715.715,0,0,1,194.57,309Zm4.57,2.953V317h-1.412v-6.34h1.33Zm-.228,1.647-.481-.006a4.286,4.286,0,0,1,.164-1.213,2.932,2.932,0,0,1,.481-.967,2.118,2.118,0,0,1,.785-.639,2.5,2.5,0,0,1,1.1-.228,2.319,2.319,0,0,1,.791.129,1.577,1.577,0,0,1,.627.392,1.751,1.751,0,0,1,.41.692,3.14,3.14,0,0,1,.146,1.019V317h-1.412v-4.1a1.569,1.569,0,0,0-.14-.726.779.779,0,0,0-.393-.375,1.424,1.424,0,0,0-.6-.117,1.4,1.4,0,0,0-.679.152,1.276,1.276,0,0,0-.451.416,1.837,1.837,0,0,0-.258.609A3.181,3.181,0,0,0,198.912,313.6Zm3.931-.375-.662.146a3.652,3.652,0,0,1,.158-1.084,2.774,2.774,0,0,1,.475-.9,2.223,2.223,0,0,1,.779-.615,2.412,2.412,0,0,1,1.061-.223,2.587,2.587,0,0,1,.867.135,1.578,1.578,0,0,1,.656.41,1.81,1.81,0,0,1,.41.732,3.6,3.6,0,0,1,.141,1.078V317H205.31v-4.107a1.619,1.619,0,0,0-.14-.745.734.734,0,0,0-.387-.363,1.566,1.566,0,0,0-.6-.105,1.308,1.308,0,0,0-.58.123,1.143,1.143,0,0,0-.416.334,1.49,1.49,0,0,0-.258.486A2.114,2.114,0,0,0,202.843,313.221Zm9.012,2.508V312.7a1.3,1.3,0,0,0-.123-.586.863.863,0,0,0-.375-.381,1.28,1.28,0,0,0-.621-.134,1.407,1.407,0,0,0-.6.117.966.966,0,0,0-.393.316.762.762,0,0,0-.141.451H208.2a1.562,1.562,0,0,1,.182-.726,1.933,1.933,0,0,1,.527-.627,2.645,2.645,0,0,1,.826-.434,3.455,3.455,0,0,1,1.078-.158,3.142,3.142,0,0,1,1.266.24,1.926,1.926,0,0,1,.873.727,2.118,2.118,0,0,1,.322,1.207v2.818a4.688,4.688,0,0,0,.059.779,2.519,2.519,0,0,0,.182.592V317h-1.448a2.52,2.52,0,0,1-.158-.58A4.759,4.759,0,0,1,211.855,315.729Zm.206-2.584.011.873h-1.013a2.806,2.806,0,0,0-.692.076,1.421,1.421,0,0,0-.5.211.913.913,0,0,0-.3.34,1,1,0,0,0-.1.451.94.94,0,0,0,.117.463.821.821,0,0,0,.34.322,1.2,1.2,0,0,0,.551.117,1.541,1.541,0,0,0,1.271-.615.959.959,0,0,0,.2-.5l.457.627a2.149,2.149,0,0,1-.24.515,2.5,2.5,0,0,1-.445.528,2.209,2.209,0,0,1-1.518.562,2.417,2.417,0,0,1-1.107-.246,1.962,1.962,0,0,1-.762-.674,1.742,1.742,0,0,1-.275-.967,2.018,2.018,0,0,1,.187-.89,1.731,1.731,0,0,1,.563-.656,2.716,2.716,0,0,1,.914-.4,4.873,4.873,0,0,1,1.23-.14Zm4.3-5.145v9h-1.418v-9Zm6.458,7.594,1.464-4.934h.9l-.246,1.477L223.464,317h-.809Zm-.862-4.934,1.143,4.957L223.2,317h-.9l-1.717-6.34Zm4.6,4.9,1.107-4.9h1.377L227.331,317h-.9Zm-1.219-4.9,1.447,4.875.182,1.465h-.809l-1.494-4.869-.246-1.471Zm6.276,0V317H230.2v-6.34ZM230.1,309a.721.721,0,0,1,.211-.533.807.807,0,0,1,.6-.217.8.8,0,0,1,.592.217.714.714,0,0,1,.216.533.705.705,0,0,1-.216.527.812.812,0,0,1-.592.211.821.821,0,0,1-.6-.211A.712.712,0,0,1,230.1,309Zm6.065,1.664v1.031h-3.574V310.66Zm-2.543-1.553h1.412v6.141a1,1,0,0,0,.082.451.439.439,0,0,0,.24.2,1.1,1.1,0,0,0,.358.053,2.13,2.13,0,0,0,.281-.018c.09-.011.162-.023.217-.035l.006,1.078a3.356,3.356,0,0,1-.41.094,2.963,2.963,0,0,1-.528.041,2.055,2.055,0,0,1-.861-.17,1.267,1.267,0,0,1-.586-.568,2.2,2.2,0,0,1-.211-1.043ZM238.752,308v9h-1.406v-9Zm-.246,5.6-.457-.006a4.14,4.14,0,0,1,.182-1.213,3.113,3.113,0,0,1,.5-.967,2.24,2.24,0,0,1,1.8-.867,2.582,2.582,0,0,1,.843.129,1.611,1.611,0,0,1,.657.416,1.786,1.786,0,0,1,.416.738,3.623,3.623,0,0,1,.146,1.1V317h-1.418v-4.084a1.64,1.64,0,0,0-.135-.727.782.782,0,0,0-.381-.386,1.39,1.39,0,0,0-.615-.123,1.437,1.437,0,0,0-.674.152,1.411,1.411,0,0,0-.48.416,1.913,1.913,0,0,0-.293.609A2.8,2.8,0,0,0,238.506,313.6Zm13.337,1.207a1.25,1.25,0,0,0-.082-.469.919.919,0,0,0-.275-.375,2.277,2.277,0,0,0-.563-.328,7.307,7.307,0,0,0-.914-.334,10.244,10.244,0,0,1-1.125-.416,4.277,4.277,0,0,1-.891-.539,2.3,2.3,0,0,1-.591-.709,1.982,1.982,0,0,1-.211-.932,2.076,2.076,0,0,1,.216-.949,2.228,2.228,0,0,1,.627-.738,3.021,3.021,0,0,1,.967-.487,4.077,4.077,0,0,1,1.231-.175,3.546,3.546,0,0,1,1.634.351,2.614,2.614,0,0,1,1.061.943,2.4,2.4,0,0,1,.375,1.307h-1.459a1.491,1.491,0,0,0-.182-.744,1.231,1.231,0,0,0-.539-.516,1.945,1.945,0,0,0-.908-.187,2.089,2.089,0,0,0-.867.158,1.16,1.16,0,0,0-.516.428,1.119,1.119,0,0,0-.17.609.881.881,0,0,0,.112.44,1.21,1.21,0,0,0,.34.363,2.941,2.941,0,0,0,.574.31,7.168,7.168,0,0,0,.814.282,8.106,8.106,0,0,1,1.237.468,3.56,3.56,0,0,1,.878.575,2.118,2.118,0,0,1,.528.732,2.291,2.291,0,0,1,.176.92,2.154,2.154,0,0,1-.217.973,2.108,2.108,0,0,1-.621.732,2.973,2.973,0,0,1-.961.463,4.758,4.758,0,0,1-2.455-.006,3.551,3.551,0,0,1-1.078-.5,2.557,2.557,0,0,1-.774-.844,2.386,2.386,0,0,1-.287-1.189H248.4a1.639,1.639,0,0,0,.14.709,1.312,1.312,0,0,0,.4.48,1.822,1.822,0,0,0,.6.27,3.024,3.024,0,0,0,.739.088,2.21,2.21,0,0,0,.861-.147,1.13,1.13,0,0,0,.527-.41A1.075,1.075,0,0,0,251.843,314.8ZM256,311.879v7.559h-1.412V310.66h1.3Zm4.131,1.892v.124a4.769,4.769,0,0,1-.165,1.283,3.127,3.127,0,0,1-.474,1.025,2.184,2.184,0,0,1-.768.674,2.232,2.232,0,0,1-1.054.24,2.339,2.339,0,0,1-1.038-.217,2.123,2.123,0,0,1-.744-.627,3.389,3.389,0,0,1-.492-.949,6.105,6.105,0,0,1-.258-1.207v-.474a6.493,6.493,0,0,1,.258-1.266,3.441,3.441,0,0,1,.492-.979,2.106,2.106,0,0,1,.744-.632,2.235,2.235,0,0,1,1.026-.223,2.316,2.316,0,0,1,1.06.234,2.134,2.134,0,0,1,.78.657,2.917,2.917,0,0,1,.474,1.019A5.082,5.082,0,0,1,260.129,313.771Zm-1.413.124v-.124a3.793,3.793,0,0,0-.082-.814,2.111,2.111,0,0,0-.257-.668,1.266,1.266,0,0,0-.452-.445,1.219,1.219,0,0,0-.65-.164,1.484,1.484,0,0,0-.645.129,1.243,1.243,0,0,0-.451.345,1.638,1.638,0,0,0-.281.522,3.193,3.193,0,0,0-.141.638v1.137a2.835,2.835,0,0,0,.241.774,1.405,1.405,0,0,0,.48.562,1.46,1.46,0,0,0,.809.205,1.221,1.221,0,0,0,.65-.164,1.286,1.286,0,0,0,.44-.451,2.185,2.185,0,0,0,.257-.674A3.81,3.81,0,0,0,258.716,313.895ZM265,315.729V312.7a1.3,1.3,0,0,0-.123-.586.863.863,0,0,0-.375-.381,1.28,1.28,0,0,0-.621-.134,1.408,1.408,0,0,0-.6.117.956.956,0,0,0-.392.316.762.762,0,0,0-.141.451h-1.406a1.561,1.561,0,0,1,.181-.726,1.924,1.924,0,0,1,.528-.627,2.623,2.623,0,0,1,.826-.434,3.446,3.446,0,0,1,1.078-.158,3.145,3.145,0,0,1,1.266.24,1.926,1.926,0,0,1,.873.727,2.125,2.125,0,0,1,.322,1.207v2.818a4.694,4.694,0,0,0,.058.779,2.521,2.521,0,0,0,.182.592V317h-1.447a2.471,2.471,0,0,1-.158-.58A4.621,4.621,0,0,1,265,315.729Zm.205-2.584.012.873h-1.014a2.8,2.8,0,0,0-.691.076,1.4,1.4,0,0,0-.5.211.9.9,0,0,0-.3.34.985.985,0,0,0-.1.451.94.94,0,0,0,.117.463.827.827,0,0,0,.34.322,1.2,1.2,0,0,0,.551.117,1.537,1.537,0,0,0,1.271-.615.961.961,0,0,0,.2-.5l.457.627a2.116,2.116,0,0,1-.241.515,2.469,2.469,0,0,1-.445.528,2.2,2.2,0,0,1-1.517.562,2.422,2.422,0,0,1-1.108-.246,1.969,1.969,0,0,1-.762-.674,1.751,1.751,0,0,1-.275-.967,2.018,2.018,0,0,1,.188-.89,1.729,1.729,0,0,1,.562-.656,2.724,2.724,0,0,1,.914-.4,4.882,4.882,0,0,1,1.231-.14Zm5.379,2.847a1.389,1.389,0,0,0,.621-.135,1.173,1.173,0,0,0,.452-.386,1.06,1.06,0,0,0,.193-.569h1.33a1.982,1.982,0,0,1-.363,1.119,2.523,2.523,0,0,1-.932.8,2.8,2.8,0,0,1-1.283.293,3.026,3.026,0,0,1-1.266-.246,2.5,2.5,0,0,1-.9-.691,3.028,3.028,0,0,1-.539-1.014,4.156,4.156,0,0,1-.176-1.23v-.206a4.156,4.156,0,0,1,.176-1.23,3.019,3.019,0,0,1,.539-1.02,2.453,2.453,0,0,1,.9-.685,2.952,2.952,0,0,1,1.26-.252,2.811,2.811,0,0,1,1.336.3,2.238,2.238,0,0,1,.9.838,2.363,2.363,0,0,1,.346,1.242h-1.33a1.41,1.41,0,0,0-.176-.633,1.16,1.16,0,0,0-.433-.457,1.243,1.243,0,0,0-.663-.17,1.319,1.319,0,0,0-.709.176,1.179,1.179,0,0,0-.439.468,2.318,2.318,0,0,0-.229.663,4.313,4.313,0,0,0-.064.755v.206a4.415,4.415,0,0,0,.064.761,2.18,2.18,0,0,0,.223.662,1.291,1.291,0,0,0,.445.463A1.359,1.359,0,0,0,270.588,315.992Zm6.575,1.125a3.391,3.391,0,0,1-1.272-.228,2.814,2.814,0,0,1-.961-.651,2.894,2.894,0,0,1-.6-.978,3.421,3.421,0,0,1-.211-1.213v-.235a3.948,3.948,0,0,1,.217-1.347,3.053,3.053,0,0,1,.6-1.031,2.611,2.611,0,0,1,.914-.663,2.852,2.852,0,0,1,1.143-.228,2.886,2.886,0,0,1,1.189.228,2.242,2.242,0,0,1,.844.645,2.661,2.661,0,0,1,.5.979,4.364,4.364,0,0,1,.17,1.253v.6h-4.9v-1.014h3.5v-.111a1.962,1.962,0,0,0-.152-.715,1.212,1.212,0,0,0-.416-.539,1.242,1.242,0,0,0-.75-.2,1.282,1.282,0,0,0-.627.152,1.244,1.244,0,0,0-.451.428,2.248,2.248,0,0,0-.281.68,3.782,3.782,0,0,0-.094.884v.235a2.594,2.594,0,0,0,.111.773,1.854,1.854,0,0,0,.34.616,1.633,1.633,0,0,0,.539.416,1.707,1.707,0,0,0,.721.146,1.953,1.953,0,0,0,.908-.2,2.09,2.09,0,0,0,.692-.58l.744.721a2.924,2.924,0,0,1-.534.574,2.647,2.647,0,0,1-.8.439A3.178,3.178,0,0,1,277.163,317.117Z" fill="#171725"/>
    <rect id="Rectangle_22717" data-name="Rectangle 22717" width="109.75" height="29" transform="translate(173.5 327.5)" fill="#fff" stroke="#e2e2ea" stroke-width="1"/>
    <path id="Path_76374" data-name="Path 76374" d="M187.276,341.23v1.518a8.362,8.362,0,0,1-.218,2.064,3.6,3.6,0,0,1-.629,1.354,2.4,2.4,0,0,1-.991.745,3.518,3.518,0,0,1-1.3.226,3.717,3.717,0,0,1-1.06-.144,2.522,2.522,0,0,1-.875-.458,2.77,2.77,0,0,1-.656-.834,4.491,4.491,0,0,1-.417-1.244,8.94,8.94,0,0,1-.144-1.709V341.23a8.147,8.147,0,0,1,.219-2.05,3.5,3.5,0,0,1,.636-1.326,2.306,2.306,0,0,1,.984-.725,3.661,3.661,0,0,1,1.3-.219,3.735,3.735,0,0,1,1.066.144,2.4,2.4,0,0,1,.875.444,2.464,2.464,0,0,1,.65.807,4.283,4.283,0,0,1,.417,1.223A8.838,8.838,0,0,1,187.276,341.23Zm-1.271,1.723v-1.934a7.389,7.389,0,0,0-.082-1.176,3.644,3.644,0,0,0-.226-.875,1.719,1.719,0,0,0-.383-.588,1.333,1.333,0,0,0-.526-.328,1.889,1.889,0,0,0-.663-.11,1.8,1.8,0,0,0-.8.171,1.446,1.446,0,0,0-.588.527,2.83,2.83,0,0,0-.355.95,7.1,7.1,0,0,0-.123,1.429v1.934a8.259,8.259,0,0,0,.075,1.183,3.9,3.9,0,0,0,.239.888,2.054,2.054,0,0,0,.383.609,1.428,1.428,0,0,0,.52.355,1.921,1.921,0,0,0,.663.11,1.771,1.771,0,0,0,.813-.178,1.465,1.465,0,0,0,.581-.554,2.884,2.884,0,0,0,.356-.977A7.725,7.725,0,0,0,186.005,342.953Zm3.156,3.377a.776.776,0,0,1,.2-.54.755.755,0,0,1,.588-.226.734.734,0,0,1,.581.226.763.763,0,0,1,.205.54.753.753,0,0,1-.205.533.744.744,0,0,1-.581.219.719.719,0,0,1-.786-.752Zm5.233-4.067-1.011-.26.5-4.956h5.106v1.169h-4.033l-.3,2.707a3.708,3.708,0,0,1,.691-.294,3.16,3.16,0,0,1,.97-.137,3.068,3.068,0,0,1,1.238.239,2.545,2.545,0,0,1,.929.67,2.981,2.981,0,0,1,.6,1.053,4.319,4.319,0,0,1,.205,1.374,4.2,4.2,0,0,1-.2,1.319,2.979,2.979,0,0,1-.581,1.053,2.618,2.618,0,0,1-.985.691,3.577,3.577,0,0,1-1.387.246,3.922,3.922,0,0,1-1.142-.164,2.947,2.947,0,0,1-.957-.513,2.785,2.785,0,0,1-.684-.861,3.474,3.474,0,0,1-.328-1.217h1.2a2.343,2.343,0,0,0,.329.943,1.609,1.609,0,0,0,.642.581,2.157,2.157,0,0,0,.937.192,1.921,1.921,0,0,0,.8-.158,1.573,1.573,0,0,0,.588-.451,2.008,2.008,0,0,0,.363-.711,3.161,3.161,0,0,0,.13-.936,2.856,2.856,0,0,0-.13-.875,2.007,2.007,0,0,0-.39-.7,1.7,1.7,0,0,0-.622-.465,2,2,0,0,0-.848-.171,2.145,2.145,0,0,0-.964.171A3.7,3.7,0,0,0,194.394,342.263Zm16.2-1.033v1.518a8.314,8.314,0,0,1-.218,2.064,3.6,3.6,0,0,1-.629,1.354,2.4,2.4,0,0,1-.991.745,3.518,3.518,0,0,1-1.3.226,3.717,3.717,0,0,1-1.06-.144,2.522,2.522,0,0,1-.875-.458,2.77,2.77,0,0,1-.656-.834,4.49,4.49,0,0,1-.417-1.244,8.938,8.938,0,0,1-.144-1.709V341.23a8.146,8.146,0,0,1,.219-2.05,3.519,3.519,0,0,1,.636-1.326,2.306,2.306,0,0,1,.984-.725,3.665,3.665,0,0,1,1.3-.219,3.735,3.735,0,0,1,1.066.144,2.4,2.4,0,0,1,.875.444,2.464,2.464,0,0,1,.65.807,4.283,4.283,0,0,1,.417,1.223A8.84,8.84,0,0,1,210.59,341.23Zm-1.271,1.723v-1.934a7.387,7.387,0,0,0-.082-1.176,3.644,3.644,0,0,0-.226-.875,1.731,1.731,0,0,0-.382-.588,1.344,1.344,0,0,0-.527-.328,1.889,1.889,0,0,0-.663-.11,1.8,1.8,0,0,0-.8.171,1.446,1.446,0,0,0-.588.527,2.83,2.83,0,0,0-.355.95,7.1,7.1,0,0,0-.123,1.429v1.934a8.261,8.261,0,0,0,.075,1.183,3.9,3.9,0,0,0,.239.888,2.054,2.054,0,0,0,.383.609,1.437,1.437,0,0,0,.52.355,1.921,1.921,0,0,0,.663.11,1.771,1.771,0,0,0,.813-.178,1.465,1.465,0,0,0,.581-.554,2.884,2.884,0,0,0,.356-.977A7.725,7.725,0,0,0,209.319,342.953Zm3.156,3.377a.776.776,0,0,1,.2-.54.757.757,0,0,1,.588-.226.734.734,0,0,1,.581.226.759.759,0,0,1,.205.54.728.728,0,0,1-.786.752.719.719,0,0,1-.786-.752Zm5.233-4.067L216.7,342l.5-4.956H222.3v1.169h-4.033l-.3,2.707a3.708,3.708,0,0,1,.691-.294,3.16,3.16,0,0,1,.97-.137,3.068,3.068,0,0,1,1.238.239,2.545,2.545,0,0,1,.929.67,2.982,2.982,0,0,1,.6,1.053,4.319,4.319,0,0,1,.2,1.374,4.2,4.2,0,0,1-.2,1.319,2.963,2.963,0,0,1-.581,1.053,2.618,2.618,0,0,1-.985.691,3.577,3.577,0,0,1-1.387.246,3.922,3.922,0,0,1-1.142-.164,2.947,2.947,0,0,1-.957-.513,2.785,2.785,0,0,1-.684-.861,3.475,3.475,0,0,1-.328-1.217h1.2a2.359,2.359,0,0,0,.329.943,1.609,1.609,0,0,0,.642.581,2.157,2.157,0,0,0,.937.192,1.926,1.926,0,0,0,.8-.158,1.578,1.578,0,0,0,.587-.451,2.008,2.008,0,0,0,.363-.711,3.161,3.161,0,0,0,.13-.936,2.856,2.856,0,0,0-.13-.875,2.007,2.007,0,0,0-.39-.7,1.7,1.7,0,0,0-.622-.465,2,2,0,0,0-.848-.171,2.148,2.148,0,0,0-.964.171A3.7,3.7,0,0,0,217.708,342.263Zm16.2-1.033v1.518a8.315,8.315,0,0,1-.218,2.064,3.6,3.6,0,0,1-.629,1.354,2.4,2.4,0,0,1-.991.745,3.518,3.518,0,0,1-1.3.226,3.717,3.717,0,0,1-1.06-.144,2.522,2.522,0,0,1-.875-.458,2.77,2.77,0,0,1-.656-.834,4.491,4.491,0,0,1-.417-1.244,8.939,8.939,0,0,1-.144-1.709V341.23a8.147,8.147,0,0,1,.219-2.05,3.519,3.519,0,0,1,.636-1.326,2.306,2.306,0,0,1,.984-.725,3.665,3.665,0,0,1,1.3-.219,3.747,3.747,0,0,1,1.067.144,2.416,2.416,0,0,1,.875.444,2.474,2.474,0,0,1,.649.807,4.283,4.283,0,0,1,.417,1.223A8.84,8.84,0,0,1,233.9,341.23Zm-1.271,1.723v-1.934a7.387,7.387,0,0,0-.082-1.176,3.644,3.644,0,0,0-.226-.875,1.716,1.716,0,0,0-.382-.588,1.344,1.344,0,0,0-.527-.328,1.889,1.889,0,0,0-.663-.11,1.8,1.8,0,0,0-.8.171,1.446,1.446,0,0,0-.588.527,2.83,2.83,0,0,0-.355.95,7.1,7.1,0,0,0-.123,1.429v1.934a8.259,8.259,0,0,0,.075,1.183,3.955,3.955,0,0,0,.239.888,2.054,2.054,0,0,0,.383.609,1.437,1.437,0,0,0,.52.355,1.921,1.921,0,0,0,.663.11,1.771,1.771,0,0,0,.813-.178,1.465,1.465,0,0,0,.581-.554,2.884,2.884,0,0,0,.356-.977A7.725,7.725,0,0,0,232.633,342.953Zm3.156,3.377a.776.776,0,0,1,.2-.54.757.757,0,0,1,.588-.226.734.734,0,0,1,.581.226.759.759,0,0,1,.2.54.728.728,0,0,1-.786.752.719.719,0,0,1-.786-.752Zm5.233-4.067-1.011-.26.5-4.956h5.106v1.169h-4.033l-.3,2.707a3.738,3.738,0,0,1,.691-.294,3.16,3.16,0,0,1,.97-.137,3.068,3.068,0,0,1,1.238.239,2.545,2.545,0,0,1,.929.67,2.982,2.982,0,0,1,.6,1.053,4.319,4.319,0,0,1,.205,1.374,4.2,4.2,0,0,1-.2,1.319,2.963,2.963,0,0,1-.581,1.053,2.618,2.618,0,0,1-.985.691,3.573,3.573,0,0,1-1.387.246,3.922,3.922,0,0,1-1.142-.164,2.947,2.947,0,0,1-.957-.513,2.768,2.768,0,0,1-.683-.861,3.453,3.453,0,0,1-.329-1.217h1.2a2.343,2.343,0,0,0,.328.943,1.609,1.609,0,0,0,.642.581,2.157,2.157,0,0,0,.937.192,1.926,1.926,0,0,0,.8-.158,1.578,1.578,0,0,0,.587-.451,2.008,2.008,0,0,0,.363-.711,3.161,3.161,0,0,0,.13-.936,2.856,2.856,0,0,0-.13-.875,2.007,2.007,0,0,0-.39-.7,1.693,1.693,0,0,0-.622-.465,2,2,0,0,0-.848-.171,2.14,2.14,0,0,0-.963.171A3.667,3.667,0,0,0,241.022,342.263Z" fill="#454551"/>
    <rect id="Rectangle_22718" data-name="Rectangle 22718" width="4" height="14" transform="translate(200 335)" fill="#eddff7"/>
    <rect id="Rectangle_22719" data-name="Rectangle 22719" width="4" height="14" transform="translate(223 335)" fill="#eddff7"/>
    <path id="Path_76375" data-name="Path 76375" d="M17,94A10,10,0,0,1,27,84H158v82H17Z" fill="#fafafb"/>
    <rect id="Rectangle_22720" data-name="Rectangle 22720" width="109.75" height="29" transform="translate(32.5 121.5)" fill="#fff" stroke="#e2e2ea" stroke-width="1"/>
    <path id="Path_76376" data-name="Path 76376" d="M44.185,130.992V141H42.92v-8.429l-2.55.93v-1.142l3.616-1.367Zm10.067,4.238v1.518a8.316,8.316,0,0,1-.219,2.064,3.593,3.593,0,0,1-.629,1.354,2.392,2.392,0,0,1-.991.745,3.516,3.516,0,0,1-1.3.226,3.712,3.712,0,0,1-1.06-.144,2.514,2.514,0,0,1-.875-.458,2.771,2.771,0,0,1-.656-.834,4.471,4.471,0,0,1-.417-1.244,8.966,8.966,0,0,1-.144-1.709V135.23a8.152,8.152,0,0,1,.219-2.05,3.517,3.517,0,0,1,.636-1.326,2.311,2.311,0,0,1,.984-.725,3.659,3.659,0,0,1,1.3-.219,3.738,3.738,0,0,1,1.066.144,2.408,2.408,0,0,1,.875.444,2.468,2.468,0,0,1,.649.807,4.264,4.264,0,0,1,.417,1.223A8.859,8.859,0,0,1,54.251,135.23Zm-1.271,1.723v-1.934a7.435,7.435,0,0,0-.082-1.176,3.692,3.692,0,0,0-.226-.875,1.724,1.724,0,0,0-.383-.588,1.341,1.341,0,0,0-.526-.328,1.889,1.889,0,0,0-.663-.11,1.793,1.793,0,0,0-.8.171,1.44,1.44,0,0,0-.588.527,2.834,2.834,0,0,0-.355.95,7.1,7.1,0,0,0-.123,1.429v1.934a8.243,8.243,0,0,0,.075,1.183,3.9,3.9,0,0,0,.239.888,2.044,2.044,0,0,0,.383.609,1.429,1.429,0,0,0,.52.355,1.925,1.925,0,0,0,.663.11,1.774,1.774,0,0,0,.813-.178,1.468,1.468,0,0,0,.581-.554,2.884,2.884,0,0,0,.355-.977A7.689,7.689,0,0,0,52.98,136.953Zm7.155-5.961V141H58.87v-8.429l-2.55.93v-1.142l3.616-1.367Z" fill="#454551"/>
    <path id="Path_76377" data-name="Path 76377" d="M35.006,109.084l1.7-6.615H37.6l-.1,1.705L35.68,111h-.926Zm-1.271-6.615,1.377,6.562L35.234,111H34.25l-1.975-8.531Zm5.789,6.545,1.359-6.545h1.465L40.373,111h-.984Zm-1.582-6.545,1.682,6.633.246,1.9h-.926l-1.787-6.826-.094-1.705Zm6.967,2.191V111H43.491v-6.34ZM43.4,103a.723.723,0,0,1,.211-.533.924.924,0,0,1,1.189,0,.712.712,0,0,1,.217.533.7.7,0,0,1-.217.527.811.811,0,0,1-.592.211.819.819,0,0,1-.6-.211A.714.714,0,0,1,43.4,103Zm6.065,1.664v1.031H45.888V104.66Zm-2.543-1.553h1.412v6.141a1,1,0,0,0,.082.451.436.436,0,0,0,.24.205,1.1,1.1,0,0,0,.357.053,2.125,2.125,0,0,0,.281-.018c.09-.011.162-.023.217-.035l.006,1.078a3.365,3.365,0,0,1-.41.094,2.949,2.949,0,0,1-.527.041,2.056,2.056,0,0,1-.861-.17,1.265,1.265,0,0,1-.586-.568,2.207,2.207,0,0,1-.211-1.043ZM52.046,102v9H50.64v-9Zm-.246,5.6-.457-.006a4.13,4.13,0,0,1,.182-1.213,3.12,3.12,0,0,1,.5-.967,2.241,2.241,0,0,1,1.8-.867,2.584,2.584,0,0,1,.844.129,1.606,1.606,0,0,1,.656.416,1.778,1.778,0,0,1,.416.738,3.6,3.6,0,0,1,.146,1.1V111H54.472v-4.084a1.641,1.641,0,0,0-.135-.727.782.782,0,0,0-.381-.386,1.393,1.393,0,0,0-.615-.123,1.434,1.434,0,0,0-.674.152,1.408,1.408,0,0,0-.48.416,1.926,1.926,0,0,0-.293.609A2.817,2.817,0,0,0,51.8,107.6Zm5.35.3v-.134a3.931,3.931,0,0,1,.2-1.272,3.023,3.023,0,0,1,.574-1.025,2.59,2.59,0,0,1,.926-.68,3.259,3.259,0,0,1,2.484,0,2.578,2.578,0,0,1,.932.68,2.971,2.971,0,0,1,.58,1.025,3.931,3.931,0,0,1,.2,1.272v.134a3.931,3.931,0,0,1-.2,1.272,3.047,3.047,0,0,1-.58,1.025,2.689,2.689,0,0,1-.926.68,3.038,3.038,0,0,1-1.236.24,3.1,3.1,0,0,1-1.248-.24,2.688,2.688,0,0,1-.926-.68,3.047,3.047,0,0,1-.58-1.025A3.931,3.931,0,0,1,57.15,107.9Zm1.412-.134v.134a3.586,3.586,0,0,0,.088.809,2.051,2.051,0,0,0,.275.668,1.361,1.361,0,0,0,.48.451,1.4,1.4,0,0,0,.7.164,1.341,1.341,0,0,0,.68-.164,1.362,1.362,0,0,0,.481-.451,2.051,2.051,0,0,0,.275-.668,3.372,3.372,0,0,0,.094-.809v-.134a3.273,3.273,0,0,0-.094-.8,2.045,2.045,0,0,0-.281-.674,1.344,1.344,0,0,0-.48-.457,1.325,1.325,0,0,0-.686-.17,1.32,1.32,0,0,0-1.166.627,2.123,2.123,0,0,0-.275.674A3.48,3.48,0,0,0,58.562,107.766Zm9.581,1.74V104.66h1.418V111H68.225Zm.2-1.318.475-.012a4.665,4.665,0,0,1-.141,1.178,2.727,2.727,0,0,1-.434.931,2.02,2.02,0,0,1-.75.615,2.531,2.531,0,0,1-1.1.217,2.563,2.563,0,0,1-.85-.135,1.726,1.726,0,0,1-.668-.416,1.885,1.885,0,0,1-.428-.732,3.383,3.383,0,0,1-.152-1.078v-4.1h1.412v4.108a1.776,1.776,0,0,0,.082.58.986.986,0,0,0,.223.369.789.789,0,0,0,.328.2,1.33,1.33,0,0,0,.4.059,1.674,1.674,0,0,0,.949-.235,1.3,1.3,0,0,0,.5-.644A2.566,2.566,0,0,0,68.342,108.188Zm5.672-3.528v1.031H70.44V104.66Zm-2.543-1.553h1.412v6.141a1,1,0,0,0,.082.451.436.436,0,0,0,.24.205,1.1,1.1,0,0,0,.357.053,2.124,2.124,0,0,0,.281-.018c.09-.011.162-.023.217-.035l.006,1.078a3.361,3.361,0,0,1-.41.094,2.949,2.949,0,0,1-.527.041,2.056,2.056,0,0,1-.861-.17,1.265,1.265,0,0,1-.586-.568,2.207,2.207,0,0,1-.211-1.043Zm11.45,5.7a1.258,1.258,0,0,0-.082-.469.912.912,0,0,0-.275-.375,2.266,2.266,0,0,0-.562-.328,7.324,7.324,0,0,0-.914-.334,10.21,10.21,0,0,1-1.125-.416,4.276,4.276,0,0,1-.891-.539,2.312,2.312,0,0,1-.592-.709,1.987,1.987,0,0,1-.211-.932,2.07,2.07,0,0,1,.217-.949,2.217,2.217,0,0,1,.627-.738,3.013,3.013,0,0,1,.967-.487,4.078,4.078,0,0,1,1.23-.175,3.547,3.547,0,0,1,1.635.351,2.613,2.613,0,0,1,1.061.943,2.4,2.4,0,0,1,.375,1.307H82.921a1.491,1.491,0,0,0-.182-.744,1.231,1.231,0,0,0-.539-.516,1.946,1.946,0,0,0-.908-.187,2.093,2.093,0,0,0-.867.158,1.158,1.158,0,0,0-.516.428,1.117,1.117,0,0,0-.17.609.889.889,0,0,0,.111.44,1.221,1.221,0,0,0,.34.363,2.974,2.974,0,0,0,.574.31,7.178,7.178,0,0,0,.814.282,8.087,8.087,0,0,1,1.236.468,3.561,3.561,0,0,1,.879.575,2.127,2.127,0,0,1,.527.732,2.287,2.287,0,0,1,.176.92,2.147,2.147,0,0,1-.217.973,2.1,2.1,0,0,1-.621.732,2.97,2.97,0,0,1-.961.463,4.759,4.759,0,0,1-2.455-.006,3.56,3.56,0,0,1-1.078-.5,2.569,2.569,0,0,1-.773-.844,2.382,2.382,0,0,1-.287-1.189h1.471a1.628,1.628,0,0,0,.141.709,1.308,1.308,0,0,0,.4.48,1.828,1.828,0,0,0,.6.27,3.015,3.015,0,0,0,.738.088,2.208,2.208,0,0,0,.861-.147,1.13,1.13,0,0,0,.527-.41A1.073,1.073,0,0,0,82.921,108.8Zm4.155-2.924v7.559H85.664V104.66h1.3Zm4.131,1.892v.124a4.794,4.794,0,0,1-.164,1.283,3.141,3.141,0,0,1-.475,1.025,2.186,2.186,0,0,1-.768.674,2.236,2.236,0,0,1-1.055.24,2.337,2.337,0,0,1-1.037-.217,2.115,2.115,0,0,1-.744-.627,3.384,3.384,0,0,1-.492-.949,6.077,6.077,0,0,1-.258-1.207v-.474a6.464,6.464,0,0,1,.258-1.266,3.436,3.436,0,0,1,.492-.979,2.1,2.1,0,0,1,.744-.632,2.233,2.233,0,0,1,1.025-.223,2.319,2.319,0,0,1,1.061.234,2.134,2.134,0,0,1,.779.657,2.925,2.925,0,0,1,.475,1.019A5.1,5.1,0,0,1,91.207,107.771Zm-1.412.124v-.124a3.812,3.812,0,0,0-.082-.814,2.122,2.122,0,0,0-.258-.668,1.261,1.261,0,0,0-.451-.445,1.222,1.222,0,0,0-.65-.164,1.481,1.481,0,0,0-.645.129,1.238,1.238,0,0,0-.451.345,1.643,1.643,0,0,0-.281.522,3.124,3.124,0,0,0-.141.638v1.137a2.854,2.854,0,0,0,.24.774,1.408,1.408,0,0,0,.48.562,1.458,1.458,0,0,0,.809.2,1.222,1.222,0,0,0,.65-.164,1.281,1.281,0,0,0,.439-.451,2.2,2.2,0,0,0,.258-.674A3.829,3.829,0,0,0,89.795,107.895Zm6.287,1.834v-3.024a1.3,1.3,0,0,0-.123-.586.863.863,0,0,0-.375-.381,1.281,1.281,0,0,0-.621-.134,1.408,1.408,0,0,0-.6.117.963.963,0,0,0-.392.316.763.763,0,0,0-.141.451H92.426a1.561,1.561,0,0,1,.182-.726,1.93,1.93,0,0,1,.527-.627,2.636,2.636,0,0,1,.826-.434,3.451,3.451,0,0,1,1.078-.158,3.142,3.142,0,0,1,1.266.24,1.925,1.925,0,0,1,.873.727,2.118,2.118,0,0,1,.322,1.207v2.818a4.68,4.68,0,0,0,.059.779,2.515,2.515,0,0,0,.182.592V111H96.293a2.5,2.5,0,0,1-.158-.58A4.73,4.73,0,0,1,96.082,109.729Zm.205-2.584.012.873H95.285a2.8,2.8,0,0,0-.691.076,1.417,1.417,0,0,0-.5.211.909.909,0,0,0-.3.34.992.992,0,0,0-.1.451.938.938,0,0,0,.117.463.824.824,0,0,0,.34.322,1.2,1.2,0,0,0,.551.117,1.54,1.54,0,0,0,1.271-.615.958.958,0,0,0,.2-.5l.457.627a2.134,2.134,0,0,1-.24.515,2.492,2.492,0,0,1-.445.528,2.206,2.206,0,0,1-1.518.562,2.419,2.419,0,0,1-1.107-.246,1.963,1.963,0,0,1-.762-.674,1.747,1.747,0,0,1-.275-.967,2.018,2.018,0,0,1,.188-.89,1.737,1.737,0,0,1,.563-.656,2.721,2.721,0,0,1,.914-.4,4.88,4.88,0,0,1,1.23-.14Zm5.379,2.847a1.389,1.389,0,0,0,.621-.135,1.173,1.173,0,0,0,.452-.386,1.06,1.06,0,0,0,.193-.569h1.33a1.982,1.982,0,0,1-.363,1.119,2.523,2.523,0,0,1-.932.8,2.8,2.8,0,0,1-1.283.293,3.029,3.029,0,0,1-1.266-.246,2.5,2.5,0,0,1-.9-.691,3.043,3.043,0,0,1-.539-1.014,4.182,4.182,0,0,1-.176-1.23v-.206a4.182,4.182,0,0,1,.176-1.23,3.034,3.034,0,0,1,.539-1.02,2.456,2.456,0,0,1,.9-.685,2.952,2.952,0,0,1,1.26-.252,2.811,2.811,0,0,1,1.336.305,2.237,2.237,0,0,1,.9.838,2.363,2.363,0,0,1,.346,1.242h-1.33a1.41,1.41,0,0,0-.176-.633,1.16,1.16,0,0,0-.433-.457,1.242,1.242,0,0,0-.662-.17,1.314,1.314,0,0,0-.709.176,1.181,1.181,0,0,0-.44.468,2.286,2.286,0,0,0-.228.663,4.312,4.312,0,0,0-.065.755v.206a4.415,4.415,0,0,0,.065.761,2.179,2.179,0,0,0,.222.662,1.293,1.293,0,0,0,.446.463A1.353,1.353,0,0,0,101.666,109.992Zm6.575,1.125a3.381,3.381,0,0,1-1.271-.228,2.8,2.8,0,0,1-.961-.651,2.88,2.88,0,0,1-.6-.978,3.421,3.421,0,0,1-.211-1.213v-.235a3.948,3.948,0,0,1,.217-1.347,3.054,3.054,0,0,1,.6-1.031,2.606,2.606,0,0,1,.915-.663,2.844,2.844,0,0,1,1.142-.228,2.894,2.894,0,0,1,1.19.228,2.246,2.246,0,0,1,.843.645,2.661,2.661,0,0,1,.5.979,4.364,4.364,0,0,1,.17,1.253v.6h-4.9v-1.014h3.5v-.111a1.984,1.984,0,0,0-.153-.715,1.212,1.212,0,0,0-.416-.539,1.242,1.242,0,0,0-.75-.205,1.282,1.282,0,0,0-.627.152,1.252,1.252,0,0,0-.451.428,2.247,2.247,0,0,0-.281.68,3.781,3.781,0,0,0-.094.884v.235a2.593,2.593,0,0,0,.111.773,1.872,1.872,0,0,0,.34.616,1.633,1.633,0,0,0,.539.416,1.71,1.71,0,0,0,.721.146,1.949,1.949,0,0,0,.908-.205,2.09,2.09,0,0,0,.692-.58l.744.721a2.948,2.948,0,0,1-.533.574,2.666,2.666,0,0,1-.8.439A3.179,3.179,0,0,1,108.241,111.117Z" fill="#171725"/>
    <path id="Path_76378" data-name="Path 76378" d="M17,166H158v72a10,10,0,0,1-10,10H27a10,10,0,0,1-10-10Z" fill="#e2e2ea"/>
    <rect id="Rectangle_22721" data-name="Rectangle 22721" width="109.75" height="29" transform="translate(32.5 203.5)" fill="#fff" stroke="#e2e2ea" stroke-width="1"/>
    <path id="Path_76379" data-name="Path 76379" d="M44.185,212.992V223H42.92v-8.429l-2.55.93v-1.142l3.616-1.367Zm6.587,5.257v1.039H47.436v-1.039Zm7.449-1.019v1.518A8.321,8.321,0,0,1,58,220.812a3.594,3.594,0,0,1-.629,1.354,2.393,2.393,0,0,1-.991.745,3.516,3.516,0,0,1-1.3.226,3.712,3.712,0,0,1-1.06-.144,2.515,2.515,0,0,1-.875-.458,2.773,2.773,0,0,1-.656-.834,4.471,4.471,0,0,1-.417-1.244,8.966,8.966,0,0,1-.144-1.709V217.23a8.157,8.157,0,0,1,.219-2.05,3.519,3.519,0,0,1,.636-1.326,2.311,2.311,0,0,1,.984-.725,3.659,3.659,0,0,1,1.3-.219,3.737,3.737,0,0,1,1.066.144,2.408,2.408,0,0,1,.875.444,2.469,2.469,0,0,1,.649.807,4.267,4.267,0,0,1,.417,1.223A8.86,8.86,0,0,1,58.221,217.23Zm-1.271,1.723v-1.934a7.423,7.423,0,0,0-.082-1.176,3.682,3.682,0,0,0-.226-.875,1.724,1.724,0,0,0-.383-.588,1.341,1.341,0,0,0-.526-.328,1.889,1.889,0,0,0-.663-.11,1.794,1.794,0,0,0-.8.171,1.441,1.441,0,0,0-.588.527,2.832,2.832,0,0,0-.355.95,7.088,7.088,0,0,0-.123,1.429v1.934a8.243,8.243,0,0,0,.075,1.183,3.9,3.9,0,0,0,.239.888,2.042,2.042,0,0,0,.383.609,1.431,1.431,0,0,0,.52.355,1.926,1.926,0,0,0,.663.11,1.775,1.775,0,0,0,.813-.178,1.468,1.468,0,0,0,.581-.554,2.884,2.884,0,0,0,.356-.977A7.68,7.68,0,0,0,56.949,218.953Zm5.767-.7v1.039H59.38v-1.039Zm5.357-5.257V223H66.808v-8.429l-2.55.93v-1.142l3.616-1.367Z" fill="#454551"/>
    <path id="Path_76380" data-name="Path 76380" d="M35.006,191.084l1.7-6.615H37.6l-.1,1.705L35.68,193h-.926Zm-1.271-6.615,1.377,6.562L35.234,193H34.25l-1.975-8.531Zm5.789,6.545,1.359-6.545h1.465L40.373,193h-.984Zm-1.582-6.545,1.682,6.633.246,1.9h-.926l-1.787-6.826-.094-1.705Zm6.967,2.191V193H43.491v-6.34ZM43.4,185a.723.723,0,0,1,.211-.533.924.924,0,0,1,1.189,0,.713.713,0,0,1,.217.533.7.7,0,0,1-.217.527.811.811,0,0,1-.592.211.819.819,0,0,1-.6-.211A.714.714,0,0,1,43.4,185Zm6.065,1.664v1.031H45.888V186.66Zm-2.543-1.553h1.412v6.141a1,1,0,0,0,.082.451.436.436,0,0,0,.24.205,1.1,1.1,0,0,0,.357.053,2.122,2.122,0,0,0,.281-.018c.09-.011.162-.023.217-.035l.006,1.078a3.365,3.365,0,0,1-.41.094,2.949,2.949,0,0,1-.527.041,2.056,2.056,0,0,1-.861-.17,1.265,1.265,0,0,1-.586-.568,2.207,2.207,0,0,1-.211-1.043ZM52.046,184v9H50.64v-9Zm-.246,5.6-.457-.006a4.13,4.13,0,0,1,.182-1.213,3.12,3.12,0,0,1,.5-.967,2.241,2.241,0,0,1,1.8-.867,2.584,2.584,0,0,1,.844.129,1.606,1.606,0,0,1,.656.416,1.778,1.778,0,0,1,.416.738,3.6,3.6,0,0,1,.146,1.1V193H54.472v-4.084a1.641,1.641,0,0,0-.135-.727.782.782,0,0,0-.381-.386,1.393,1.393,0,0,0-.615-.123,1.434,1.434,0,0,0-.674.152,1.408,1.408,0,0,0-.48.416,1.925,1.925,0,0,0-.293.609A2.818,2.818,0,0,0,51.8,189.6Zm14.485-1.565V189.2H61.756v-1.166Zm-4.166-3.562V193H60.648v-8.531Zm5.3,0V193H65.951v-8.531Zm3.551,7.84,1.723-5.649H74.2l-2.543,7.307a5.047,5.047,0,0,1-.229.51,2.321,2.321,0,0,1-.369.521,1.629,1.629,0,0,1-.557.4,1.869,1.869,0,0,1-.809.159,1.806,1.806,0,0,1-.363-.036c-.113-.019-.221-.041-.322-.064L69,194.383l.141.012c.059,0,.105,0,.141,0a1.674,1.674,0,0,0,.586-.088.806.806,0,0,0,.381-.269,1.6,1.6,0,0,0,.258-.5Zm-.973-5.649,1.506,4.746.252,1.489-.978.251-2.3-6.486Zm6.534,1.219v7.559H75.116V186.66h1.3Zm4.131,1.892v.124a4.794,4.794,0,0,1-.164,1.283,3.137,3.137,0,0,1-.475,1.025,2.185,2.185,0,0,1-.768.674,2.235,2.235,0,0,1-1.055.24,2.337,2.337,0,0,1-1.037-.217,2.116,2.116,0,0,1-.744-.627,3.386,3.386,0,0,1-.492-.949,6.084,6.084,0,0,1-.258-1.207v-.474a6.471,6.471,0,0,1,.258-1.266,3.439,3.439,0,0,1,.492-.979,2.1,2.1,0,0,1,.744-.632,2.233,2.233,0,0,1,1.025-.223,2.319,2.319,0,0,1,1.061.234,2.135,2.135,0,0,1,.779.657,2.928,2.928,0,0,1,.475,1.019A5.1,5.1,0,0,1,80.659,189.771Zm-1.412.124v-.124a3.812,3.812,0,0,0-.082-.814,2.12,2.12,0,0,0-.258-.668,1.261,1.261,0,0,0-.451-.445,1.222,1.222,0,0,0-.65-.164,1.481,1.481,0,0,0-.645.129,1.238,1.238,0,0,0-.451.345,1.643,1.643,0,0,0-.281.522,3.118,3.118,0,0,0-.141.638v1.137a2.855,2.855,0,0,0,.24.774,1.409,1.409,0,0,0,.48.562,1.459,1.459,0,0,0,.809.205,1.222,1.222,0,0,0,.65-.164,1.28,1.28,0,0,0,.439-.451,2.194,2.194,0,0,0,.258-.674A3.829,3.829,0,0,0,79.247,189.9Zm4.108-5.9v9H81.948v-9Zm-.246,5.6-.457-.006a4.13,4.13,0,0,1,.182-1.213,3.12,3.12,0,0,1,.5-.967,2.241,2.241,0,0,1,1.8-.867,2.584,2.584,0,0,1,.844.129,1.606,1.606,0,0,1,.656.416,1.778,1.778,0,0,1,.416.738,3.6,3.6,0,0,1,.146,1.1V193H85.781v-4.084a1.643,1.643,0,0,0-.135-.727.782.782,0,0,0-.381-.386,1.393,1.393,0,0,0-.615-.123,1.434,1.434,0,0,0-.674.152,1.408,1.408,0,0,0-.48.416,1.923,1.923,0,0,0-.293.609A2.818,2.818,0,0,0,83.109,189.6Zm8.414,3.521a3.388,3.388,0,0,1-1.271-.228,2.811,2.811,0,0,1-.961-.651,2.877,2.877,0,0,1-.6-.978,3.43,3.43,0,0,1-.211-1.213v-.235a3.958,3.958,0,0,1,.217-1.347,3.05,3.05,0,0,1,.6-1.031,2.6,2.6,0,0,1,.914-.663,2.849,2.849,0,0,1,1.143-.228,2.891,2.891,0,0,1,1.189.228,2.247,2.247,0,0,1,.844.645,2.671,2.671,0,0,1,.5.979,4.354,4.354,0,0,1,.17,1.253v.6h-4.9v-1.014h3.5v-.111a1.986,1.986,0,0,0-.152-.715,1.215,1.215,0,0,0-.416-.539,1.244,1.244,0,0,0-.75-.205,1.279,1.279,0,0,0-.627.152,1.248,1.248,0,0,0-.451.428,2.255,2.255,0,0,0-.281.68,3.809,3.809,0,0,0-.094.884v.235a2.586,2.586,0,0,0,.111.773,1.848,1.848,0,0,0,.34.616,1.629,1.629,0,0,0,.539.416,1.706,1.706,0,0,0,.721.146,1.953,1.953,0,0,0,.908-.205,2.085,2.085,0,0,0,.691-.58l.744.721a2.916,2.916,0,0,1-.533.574,2.656,2.656,0,0,1-.8.439A3.176,3.176,0,0,1,91.523,193.117Zm5.139-5.1V193H95.25v-6.34h1.33ZM96.41,189.6l-.457-.006a4.122,4.122,0,0,1,.188-1.236,3.042,3.042,0,0,1,.516-.967,2.264,2.264,0,0,1,.8-.621,2.341,2.341,0,0,1,1.031-.223,2.492,2.492,0,0,1,.826.129,1.507,1.507,0,0,1,.639.4,1.816,1.816,0,0,1,.41.733,3.664,3.664,0,0,1,.141,1.1V193H99.082v-4.1a1.6,1.6,0,0,0-.135-.72.752.752,0,0,0-.381-.381,1.43,1.43,0,0,0-.615-.117,1.361,1.361,0,0,0-.65.152,1.465,1.465,0,0,0-.486.416,2.019,2.019,0,0,0-.3.609A2.524,2.524,0,0,0,96.41,189.6Z" fill="#171725"/>
    <path id="Path_76381" data-name="Path 76381" d="M158,84H289a10,10,0,0,1,10,10v62a10,10,0,0,1-10,10H158Z" fill="#f1f1f5"/>
    <path id="Path_76382" data-name="Path 76382" d="M176.006,109.084l1.7-6.615h.891l-.1,1.705L176.68,111h-.926Zm-1.272-6.615,1.377,6.562.123,1.969h-.984l-1.975-8.531Zm5.789,6.545,1.36-6.545h1.465L181.373,111h-.984Zm-1.582-6.545,1.682,6.633.246,1.9h-.926l-1.787-6.826-.094-1.705Zm6.968,2.191V111h-1.418v-6.34ZM184.4,103a.721.721,0,0,1,.211-.533.923.923,0,0,1,1.189,0,.711.711,0,0,1,.217.533.7.7,0,0,1-.217.527.943.943,0,0,1-1.189,0A.712.712,0,0,1,184.4,103Zm6.065,1.664v1.031h-3.575V104.66Zm-2.543-1.553h1.412v6.141a1,1,0,0,0,.082.451.436.436,0,0,0,.24.205,1.1,1.1,0,0,0,.358.053,2.13,2.13,0,0,0,.281-.018c.09-.011.162-.023.217-.035l.005,1.078a3.319,3.319,0,0,1-.41.094,2.945,2.945,0,0,1-.527.041,2.055,2.055,0,0,1-.861-.17,1.262,1.262,0,0,1-.586-.568,2.2,2.2,0,0,1-.211-1.043ZM193.046,102v9H191.64v-9Zm-.246,5.6-.457-.006a4.107,4.107,0,0,1,.182-1.213,3.113,3.113,0,0,1,.5-.967,2.24,2.24,0,0,1,1.8-.867,2.584,2.584,0,0,1,.844.129,1.6,1.6,0,0,1,.656.416,1.765,1.765,0,0,1,.416.738,3.59,3.59,0,0,1,.147,1.1V111h-1.418v-4.084a1.64,1.64,0,0,0-.135-.727.782.782,0,0,0-.381-.386,1.393,1.393,0,0,0-.615-.123,1.434,1.434,0,0,0-.674.152,1.411,1.411,0,0,0-.48.416,1.913,1.913,0,0,0-.293.609A2.8,2.8,0,0,0,192.8,107.6Zm13.337,1.207a1.27,1.27,0,0,0-.082-.469.913.913,0,0,0-.276-.375,2.27,2.27,0,0,0-.562-.328,7.31,7.31,0,0,0-.914-.334,10.091,10.091,0,0,1-1.125-.416,4.277,4.277,0,0,1-.891-.539,2.317,2.317,0,0,1-.592-.709,1.994,1.994,0,0,1-.211-.932,2.077,2.077,0,0,1,.217-.949,2.228,2.228,0,0,1,.627-.738,3.021,3.021,0,0,1,.967-.487,4.075,4.075,0,0,1,1.23-.175,3.547,3.547,0,0,1,1.635.351,2.614,2.614,0,0,1,1.061.943,2.4,2.4,0,0,1,.375,1.307h-1.459a1.491,1.491,0,0,0-.182-.744,1.231,1.231,0,0,0-.539-.516,1.945,1.945,0,0,0-.908-.187,2.089,2.089,0,0,0-.867.158,1.155,1.155,0,0,0-.516.428,1.119,1.119,0,0,0-.17.609.891.891,0,0,0,.111.44,1.236,1.236,0,0,0,.34.363,3,3,0,0,0,.574.31,7.189,7.189,0,0,0,.815.282,8.051,8.051,0,0,1,1.236.468,3.549,3.549,0,0,1,.879.575,2.131,2.131,0,0,1,.528.732,2.291,2.291,0,0,1,.175.92,2.141,2.141,0,0,1-.217.973,2.087,2.087,0,0,1-.621.732,2.963,2.963,0,0,1-.961.463,4.758,4.758,0,0,1-2.455-.006,3.563,3.563,0,0,1-1.078-.5,2.565,2.565,0,0,1-.773-.844,2.376,2.376,0,0,1-.287-1.189h1.47a1.624,1.624,0,0,0,.141.709,1.309,1.309,0,0,0,.4.48,1.827,1.827,0,0,0,.6.27,3.015,3.015,0,0,0,.738.088,2.212,2.212,0,0,0,.862-.147,1.13,1.13,0,0,0,.527-.41A1.075,1.075,0,0,0,206.137,108.8Zm4.154-2.924v7.559h-1.412V104.66h1.3Zm4.131,1.892v.124a4.77,4.77,0,0,1-.164,1.283,3.128,3.128,0,0,1-.474,1.025,2.184,2.184,0,0,1-.768.674,2.236,2.236,0,0,1-1.055.24,2.338,2.338,0,0,1-1.037-.217,2.114,2.114,0,0,1-.744-.627,3.389,3.389,0,0,1-.492-.949,6.106,6.106,0,0,1-.258-1.207v-.474a6.494,6.494,0,0,1,.258-1.266,3.442,3.442,0,0,1,.492-.979,2.1,2.1,0,0,1,.744-.632,2.235,2.235,0,0,1,1.026-.223,2.316,2.316,0,0,1,1.06.234,2.123,2.123,0,0,1,.779.657,2.918,2.918,0,0,1,.475,1.019A5.084,5.084,0,0,1,214.422,107.771Zm-1.412.124v-.124a3.792,3.792,0,0,0-.082-.814,2.134,2.134,0,0,0-.258-.668,1.256,1.256,0,0,0-.451-.445,1.221,1.221,0,0,0-.65-.164,1.484,1.484,0,0,0-.645.129,1.242,1.242,0,0,0-.451.345,1.637,1.637,0,0,0-.281.522,3.124,3.124,0,0,0-.141.638v1.137a2.868,2.868,0,0,0,.24.774,1.415,1.415,0,0,0,.481.562,1.457,1.457,0,0,0,.808.2,1.225,1.225,0,0,0,.651-.164,1.275,1.275,0,0,0,.439-.451,2.21,2.21,0,0,0,.258-.674A3.809,3.809,0,0,0,213.01,107.895Zm6.288,1.834v-3.024a1.3,1.3,0,0,0-.123-.586.863.863,0,0,0-.375-.381,1.28,1.28,0,0,0-.621-.134,1.408,1.408,0,0,0-.6.117.966.966,0,0,0-.393.316.768.768,0,0,0-.14.451h-1.407a1.562,1.562,0,0,1,.182-.726,1.933,1.933,0,0,1,.527-.627,2.64,2.64,0,0,1,.827-.434,3.446,3.446,0,0,1,1.078-.158,3.14,3.14,0,0,1,1.265.24,1.926,1.926,0,0,1,.873.727,2.118,2.118,0,0,1,.323,1.207v2.818a4.7,4.7,0,0,0,.058.779,2.52,2.52,0,0,0,.182.592V111h-1.447a2.466,2.466,0,0,1-.159-.58A4.753,4.753,0,0,1,219.3,109.729Zm.205-2.584.011.873H218.5a2.812,2.812,0,0,0-.692.076,1.421,1.421,0,0,0-.5.211.91.91,0,0,0-.3.34.984.984,0,0,0-.1.451.94.94,0,0,0,.117.463.821.821,0,0,0,.34.322,1.2,1.2,0,0,0,.551.117,1.537,1.537,0,0,0,1.271-.615.951.951,0,0,0,.2-.5l.457.627a2.111,2.111,0,0,1-.24.515,2.5,2.5,0,0,1-.445.528,2.2,2.2,0,0,1-1.518.562,2.417,2.417,0,0,1-1.107-.246,1.969,1.969,0,0,1-.762-.674,1.751,1.751,0,0,1-.275-.967,2.018,2.018,0,0,1,.187-.89,1.74,1.74,0,0,1,.563-.656,2.716,2.716,0,0,1,.914-.4,4.873,4.873,0,0,1,1.23-.14Zm5.379,2.847a1.392,1.392,0,0,0,.621-.135,1.163,1.163,0,0,0,.451-.386,1.061,1.061,0,0,0,.194-.569h1.33a1.975,1.975,0,0,1-.364,1.119,2.511,2.511,0,0,1-.931.8,2.8,2.8,0,0,1-1.283.293,3.023,3.023,0,0,1-1.266-.246,2.513,2.513,0,0,1-.9-.691,3.065,3.065,0,0,1-.539-1.014,4.189,4.189,0,0,1-.175-1.23v-.206a4.189,4.189,0,0,1,.175-1.23,3.055,3.055,0,0,1,.539-1.02,2.465,2.465,0,0,1,.9-.685,2.945,2.945,0,0,1,1.26-.252,2.811,2.811,0,0,1,1.336.305,2.25,2.25,0,0,1,.9.838,2.363,2.363,0,0,1,.346,1.242h-1.33a1.423,1.423,0,0,0-.176-.633,1.162,1.162,0,0,0-.434-.457,1.237,1.237,0,0,0-.662-.17,1.319,1.319,0,0,0-.709.176,1.179,1.179,0,0,0-.439.468,2.287,2.287,0,0,0-.229.663,4.313,4.313,0,0,0-.064.755v.206a4.416,4.416,0,0,0,.064.761,2.153,2.153,0,0,0,.223.662,1.29,1.29,0,0,0,.445.463A1.359,1.359,0,0,0,224.882,109.992Zm6.575,1.125a3.39,3.39,0,0,1-1.272-.228,2.814,2.814,0,0,1-.961-.651,2.878,2.878,0,0,1-.6-.978,3.421,3.421,0,0,1-.211-1.213v-.235a3.948,3.948,0,0,1,.217-1.347,3.037,3.037,0,0,1,.6-1.031,2.611,2.611,0,0,1,.914-.663,2.852,2.852,0,0,1,1.143-.228,2.889,2.889,0,0,1,1.189.228,2.25,2.25,0,0,1,.844.645,2.691,2.691,0,0,1,.5.979,4.365,4.365,0,0,1,.17,1.253v.6h-4.9v-1.014h3.5v-.111a1.983,1.983,0,0,0-.152-.715,1.219,1.219,0,0,0-.416-.539,1.246,1.246,0,0,0-.75-.205,1.279,1.279,0,0,0-.627.152,1.244,1.244,0,0,0-.451.428,2.274,2.274,0,0,0-.282.68,3.838,3.838,0,0,0-.093.884v.235a2.593,2.593,0,0,0,.111.773,1.836,1.836,0,0,0,.34.616,1.623,1.623,0,0,0,.539.416,1.707,1.707,0,0,0,.721.146,1.952,1.952,0,0,0,.908-.205,2.077,2.077,0,0,0,.691-.58l.744.721a2.888,2.888,0,0,1-.533.574,2.653,2.653,0,0,1-.8.439A3.169,3.169,0,0,1,231.457,111.117Z" fill="#171725"/>
    <rect id="Rectangle_22722" data-name="Rectangle 22722" width="109.75" height="29" transform="translate(173.5 121.5)" fill="#fff" stroke="#e2e2ea" stroke-width="1"/>
    <path id="Path_76383" data-name="Path 76383" d="M185.185,130.992V141H183.92v-8.429l-2.55.93v-1.142l3.616-1.367Zm13.639,4.238v1.518a8.309,8.309,0,0,1-.219,2.064,3.587,3.587,0,0,1-.629,1.354,2.385,2.385,0,0,1-.991.745,3.518,3.518,0,0,1-1.3.226,3.709,3.709,0,0,1-1.059-.144,2.512,2.512,0,0,1-.875-.458,2.771,2.771,0,0,1-.656-.834,4.426,4.426,0,0,1-.417-1.244,8.939,8.939,0,0,1-.144-1.709V135.23a8.147,8.147,0,0,1,.219-2.05,3.518,3.518,0,0,1,.635-1.326,2.315,2.315,0,0,1,.985-.725,3.657,3.657,0,0,1,1.3-.219,3.739,3.739,0,0,1,1.066.144,2.408,2.408,0,0,1,.875.444,2.461,2.461,0,0,1,.649.807,4.222,4.222,0,0,1,.417,1.223A8.832,8.832,0,0,1,198.824,135.23Zm-1.271,1.723v-1.934a7.507,7.507,0,0,0-.082-1.176,3.739,3.739,0,0,0-.226-.875,1.718,1.718,0,0,0-.383-.588,1.34,1.34,0,0,0-.526-.328,1.889,1.889,0,0,0-.663-.11,1.792,1.792,0,0,0-.8.171,1.433,1.433,0,0,0-.588.527,2.851,2.851,0,0,0-.356.95,7.1,7.1,0,0,0-.123,1.429v1.934a8.248,8.248,0,0,0,.076,1.183,3.853,3.853,0,0,0,.239.888,2.034,2.034,0,0,0,.383.609,1.425,1.425,0,0,0,.519.355,1.929,1.929,0,0,0,.663.11,1.778,1.778,0,0,0,.814-.178,1.471,1.471,0,0,0,.581-.554,2.884,2.884,0,0,0,.355-.977A7.632,7.632,0,0,0,197.553,136.953Zm10.727-5.961V141h-1.265v-8.429l-2.55.93v-1.142l3.617-1.367Z" fill="#454551"/>
    <rect id="Rectangle_22723" data-name="Rectangle 22723" width="4" height="14" transform="translate(187 129)" fill="#eddff7"/>
    <rect id="Rectangle_22724" data-name="Rectangle 22724" width="4" height="14" transform="translate(200 129)" fill="#eddff7"/>
  </g>
</svg>
