<svg width="317" height="310" viewBox="0 0 317 310" fill="none" xmlns="http://www.w3.org/2000/svg">
<g filter="url(#filter0_d_6388_47707)">
<rect x="8" y="6" width="301" height="294" rx="20" fill="#171725"/>
</g>
<path d="M24.2 36V24.88H26.168L30.072 33.6L33.96 24.88H35.912V36H34.088V28.384L30.696 36H29.432L26.024 28.384V36H24.2ZM46.3934 27.184V36H44.5694V34.944C43.9934 35.696 43.0014 36.128 41.9614 36.128C39.8974 36.128 38.3294 34.832 38.3294 32.368V27.184H40.1374V32.096C40.1374 33.712 41.0174 34.544 42.3454 34.544C43.6894 34.544 44.5694 33.712 44.5694 32.096V27.184H46.3934ZM48.9 36V24.16H50.724V36H48.9ZM53.5067 33.552V28.672H52.4667V27.184H53.5067V24.992H55.3467V27.184H57.4907V28.672H55.3467V33.552C55.3467 34.208 55.6027 34.48 56.3707 34.48H57.4907V36H56.0507C54.4827 36 53.5067 35.344 53.5067 33.552ZM59.2719 36V27.184H61.0959V36H59.2719ZM60.1999 26.016C59.5439 26.016 59.0319 25.504 59.0319 24.848C59.0319 24.192 59.5439 23.68 60.1999 23.68C60.8399 23.68 61.3519 24.192 61.3519 24.848C61.3519 25.504 60.8399 26.016 60.1999 26.016ZM65.4146 28.48C65.9746 27.744 67.0466 27.04 68.4866 27.04C70.8066 27.04 72.6306 28.832 72.6306 31.552C72.6306 34.272 70.8066 36.144 68.4866 36.144C67.0306 36.144 65.9906 35.408 65.4146 34.72V40.192H63.5906V27.184H65.4146V28.48ZM70.7746 31.552C70.7746 29.648 69.4626 28.624 68.0866 28.624C66.7266 28.624 65.4146 29.696 65.4146 31.584C65.4146 33.488 66.7266 34.56 68.0866 34.56C69.4626 34.56 70.7746 33.456 70.7746 31.552ZM74.5344 36V24.16H76.3584V36H74.5344ZM82.5651 28.576C81.3331 28.576 80.3411 29.408 80.1491 30.8H85.0291C84.9971 29.44 83.9251 28.576 82.5651 28.576ZM86.6931 33.376C86.1971 34.912 84.8051 36.144 82.6451 36.144C80.1171 36.144 78.2451 34.352 78.2451 31.584C78.2451 28.816 80.0371 27.04 82.6451 27.04C85.1571 27.04 86.9331 28.784 86.9331 31.376C86.9331 31.68 86.9171 31.968 86.8691 32.272H80.1331C80.2611 33.728 81.3011 34.608 82.6451 34.608C83.7651 34.608 84.3891 34.064 84.7251 33.376H86.6931ZM94.7964 36L92.0444 27.184H93.9004L95.7404 34.272L97.6124 27.184H99.5164L101.308 34.24L103.132 27.184H104.924L102.188 36H100.268L98.4924 29.488L96.7164 36H94.7964ZM105.78 31.552C105.78 28.832 107.62 27.04 109.94 27.04C111.428 27.04 112.452 27.744 112.996 28.464V27.184H114.836V36H112.996V34.688C112.436 35.44 111.38 36.144 109.908 36.144C107.62 36.144 105.78 34.272 105.78 31.552ZM112.996 31.584C112.996 29.696 111.7 28.624 110.324 28.624C108.964 28.624 107.652 29.648 107.652 31.552C107.652 33.456 108.964 34.56 110.324 34.56C111.7 34.56 112.996 33.488 112.996 31.584ZM120.803 33.904L123.379 27.184H125.267L119.859 40.144H117.971L119.763 35.856L116.291 27.184H118.323L120.803 33.904ZM133.32 33.536C133.32 35.024 132.024 36.144 129.944 36.144C127.832 36.144 126.344 34.896 126.264 33.296H128.152C128.216 34.016 128.904 34.608 129.912 34.608C130.968 34.608 131.528 34.16 131.528 33.552C131.528 31.824 126.408 32.816 126.408 29.584C126.408 28.176 127.72 27.04 129.8 27.04C131.8 27.04 133.112 28.112 133.208 29.872H131.384C131.32 29.104 130.728 28.576 129.736 28.576C128.76 28.576 128.248 28.976 128.248 29.568C128.248 31.344 133.224 30.352 133.32 33.536ZM139.935 33.552V28.672H138.895V27.184H139.935V24.992H141.775V27.184H143.919V28.672H141.775V33.552C141.775 34.208 142.031 34.48 142.799 34.48H143.919V36H142.479C140.911 36 139.935 35.344 139.935 33.552ZM154.1 31.584C154.1 34.352 152.052 36.144 149.524 36.144C147.012 36.144 145.108 34.352 145.108 31.584C145.108 28.816 147.092 27.04 149.604 27.04C152.116 27.04 154.1 28.816 154.1 31.584ZM146.964 31.584C146.964 33.584 148.148 34.56 149.524 34.56C150.884 34.56 152.228 33.584 152.228 31.584C152.228 29.584 150.932 28.624 149.572 28.624C148.196 28.624 146.964 29.584 146.964 31.584ZM163.971 28.576C162.739 28.576 161.747 29.408 161.555 30.8H166.435C166.403 29.44 165.331 28.576 163.971 28.576ZM168.099 33.376C167.603 34.912 166.211 36.144 164.051 36.144C161.523 36.144 159.651 34.352 159.651 31.584C159.651 28.816 161.443 27.04 164.051 27.04C166.563 27.04 168.339 28.784 168.339 31.376C168.339 31.68 168.323 31.968 168.275 32.272H161.539C161.667 33.728 162.707 34.608 164.051 34.608C165.171 34.608 165.795 34.064 166.131 33.376H168.099ZM176.49 36V31.072C176.49 29.456 175.61 28.624 174.282 28.624C172.938 28.624 172.058 29.456 172.058 31.072V36H170.234V27.184H172.058V28.192C172.65 27.472 173.626 27.04 174.682 27.04C176.746 27.04 178.298 28.336 178.298 30.8V36H176.49ZM181.013 33.552V28.672H179.973V27.184H181.013V24.992H182.853V27.184H184.997V28.672H182.853V33.552C182.853 34.208 183.109 34.48 183.877 34.48H184.997V36H183.557C181.989 36 181.013 35.344 181.013 33.552ZM190.49 28.576C189.258 28.576 188.266 29.408 188.074 30.8H192.954C192.922 29.44 191.85 28.576 190.49 28.576ZM194.618 33.376C194.122 34.912 192.73 36.144 190.57 36.144C188.042 36.144 186.17 34.352 186.17 31.584C186.17 28.816 187.962 27.04 190.57 27.04C193.082 27.04 194.858 28.784 194.858 31.376C194.858 31.68 194.842 31.968 194.794 32.272H188.058C188.186 33.728 189.226 34.608 190.57 34.608C191.69 34.608 192.314 34.064 192.65 33.376H194.618ZM198.577 31.36V36H196.753V27.184H198.577V28.464C199.089 27.584 199.969 27.04 201.217 27.04V28.928H200.753C199.409 28.928 198.577 29.488 198.577 31.36ZM210.882 24.88C214.45 24.88 216.786 27.04 216.786 30.48C216.786 33.904 214.45 36 210.882 36H207.25V24.88H210.882ZM209.074 34.512H210.882C213.506 34.512 214.914 33.008 214.914 30.48C214.914 27.936 213.506 26.368 210.882 26.368H209.074V34.512ZM227.094 31.584C227.094 34.352 225.046 36.144 222.518 36.144C220.006 36.144 218.102 34.352 218.102 31.584C218.102 28.816 220.086 27.04 222.598 27.04C225.11 27.04 227.094 28.816 227.094 31.584ZM219.958 31.584C219.958 33.584 221.142 34.56 222.518 34.56C223.878 34.56 225.222 33.584 225.222 31.584C225.222 29.584 223.926 28.624 222.566 28.624C221.19 28.624 219.958 29.584 219.958 31.584ZM235.573 33.536C235.573 35.024 234.277 36.144 232.197 36.144C230.085 36.144 228.597 34.896 228.517 33.296H230.405C230.469 34.016 231.157 34.608 232.165 34.608C233.221 34.608 233.781 34.16 233.781 33.552C233.781 31.824 228.661 32.816 228.661 29.584C228.661 28.176 229.973 27.04 232.053 27.04C234.053 27.04 235.365 28.112 235.461 29.872H233.637C233.573 29.104 232.981 28.576 231.989 28.576C231.013 28.576 230.501 28.976 230.501 29.568C230.501 31.344 235.477 30.352 235.573 33.536ZM241.356 28.576C240.124 28.576 239.132 29.408 238.94 30.8H243.82C243.788 29.44 242.716 28.576 241.356 28.576ZM245.484 33.376C244.988 34.912 243.596 36.144 241.436 36.144C238.908 36.144 237.036 34.352 237.036 31.584C237.036 28.816 238.828 27.04 241.436 27.04C243.948 27.04 245.724 28.784 245.724 31.376C245.724 31.68 245.708 31.968 245.66 32.272H238.924C239.052 33.728 240.092 34.608 241.436 34.608C242.556 34.608 243.18 34.064 243.516 33.376H245.484Z" fill="white"/>
<path d="M26.5068 73.7646L28.4893 66.0469H29.5283L29.4121 68.0361L27.293 76H26.2129L26.5068 73.7646ZM25.0234 66.0469L26.6299 73.7031L26.7734 76H25.625L23.3213 66.0469H25.0234ZM31.7773 73.6826L33.3633 66.0469H35.0723L32.7686 76H31.6201L31.7773 73.6826ZM29.9316 66.0469L31.8936 73.7852L32.1807 76H31.1006L29.0156 68.0361L28.9062 66.0469H29.9316ZM38.0434 68.6035V76H36.3891V68.6035H38.0434ZM36.2797 66.6621C36.2797 66.4115 36.3617 66.2041 36.5258 66.04C36.6944 65.8714 36.9268 65.7871 37.223 65.7871C37.5147 65.7871 37.7449 65.8714 37.9135 66.04C38.0821 66.2041 38.1664 66.4115 38.1664 66.6621C38.1664 66.9082 38.0821 67.1133 37.9135 67.2773C37.7449 67.4414 37.5147 67.5234 37.223 67.5234C36.9268 67.5234 36.6944 67.4414 36.5258 67.2773C36.3617 67.1133 36.2797 66.9082 36.2797 66.6621ZM43.3387 68.6035V69.8066H39.1688V68.6035H43.3387ZM40.3719 66.792H42.0193V73.9561C42.0193 74.1839 42.0512 74.3594 42.115 74.4824C42.1834 74.6009 42.2768 74.6807 42.3953 74.7217C42.5138 74.7627 42.6528 74.7832 42.8123 74.7832C42.9262 74.7832 43.0356 74.7764 43.1404 74.7627C43.2452 74.749 43.3296 74.7354 43.3934 74.7217L43.4002 75.9795C43.2635 76.0205 43.104 76.057 42.9217 76.0889C42.7439 76.1208 42.5389 76.1367 42.3064 76.1367C41.9282 76.1367 41.5932 76.0706 41.3016 75.9385C41.0099 75.8018 40.782 75.5807 40.618 75.2754C40.4539 74.9701 40.3719 74.5645 40.3719 74.0586V66.792ZM46.3371 65.5V76H44.6965V65.5H46.3371ZM46.05 72.0283L45.5168 72.0215C45.5214 71.5111 45.592 71.0394 45.7287 70.6064C45.87 70.1735 46.0659 69.7975 46.3166 69.4785C46.5718 69.1549 46.8771 68.9066 47.2326 68.7334C47.5881 68.5557 47.9823 68.4668 48.4152 68.4668C48.7798 68.4668 49.1079 68.5169 49.3996 68.6172C49.6958 68.7174 49.951 68.8792 50.1652 69.1025C50.3794 69.3213 50.5412 69.6084 50.6506 69.9639C50.7645 70.3148 50.8215 70.7432 50.8215 71.249V76H49.1672V71.2354C49.1672 70.8799 49.1148 70.5973 49.01 70.3877C48.9097 70.1781 48.7616 70.0277 48.5656 69.9365C48.3697 69.8408 48.1304 69.793 47.8479 69.793C47.5516 69.793 47.2896 69.8522 47.0617 69.9707C46.8384 70.0892 46.6516 70.251 46.5012 70.4561C46.3508 70.6611 46.2368 70.8981 46.1594 71.167C46.0865 71.4359 46.05 71.723 46.05 72.0283ZM58.835 73.7646L60.8174 66.0469H61.8564L61.7402 68.0361L59.6211 76H58.541L58.835 73.7646ZM57.3516 66.0469L58.958 73.7031L59.1016 76H57.9531L55.6494 66.0469H57.3516ZM64.1055 73.6826L65.6914 66.0469H67.4004L65.0967 76H63.9482L64.1055 73.6826ZM62.2598 66.0469L64.2217 73.7852L64.5088 76H63.4287L61.3438 68.0361L61.2344 66.0469H62.2598ZM70.2348 65.5V76H68.5941V65.5H70.2348ZM69.9477 72.0283L69.4145 72.0215C69.419 71.5111 69.4896 71.0394 69.6264 70.6064C69.7676 70.1735 69.9636 69.7975 70.2143 69.4785C70.4695 69.1549 70.7748 68.9066 71.1303 68.7334C71.4857 68.5557 71.8799 68.4668 72.3129 68.4668C72.6775 68.4668 73.0056 68.5169 73.2973 68.6172C73.5935 68.7174 73.8487 68.8792 74.0629 69.1025C74.2771 69.3213 74.4389 69.6084 74.5482 69.9639C74.6622 70.3148 74.7191 70.7432 74.7191 71.249V76H73.0648V71.2354C73.0648 70.8799 73.0124 70.5973 72.9076 70.3877C72.8074 70.1781 72.6592 70.0277 72.4633 69.9365C72.2673 69.8408 72.0281 69.793 71.7455 69.793C71.4493 69.793 71.1872 69.8522 70.9594 69.9707C70.7361 70.0892 70.5492 70.251 70.3988 70.4561C70.2484 70.6611 70.1345 70.8981 70.057 71.167C69.9841 71.4359 69.9477 71.723 69.9477 72.0283ZM76.1727 72.3838V72.2266C76.1727 71.6934 76.2501 71.1989 76.4051 70.7432C76.56 70.2829 76.7833 69.8841 77.075 69.5469C77.3712 69.2051 77.7313 68.9408 78.1551 68.7539C78.5835 68.5625 79.0665 68.4668 79.6043 68.4668C80.1466 68.4668 80.6297 68.5625 81.0535 68.7539C81.4819 68.9408 81.8442 69.2051 82.1404 69.5469C82.4367 69.8841 82.6622 70.2829 82.8172 70.7432C82.9721 71.1989 83.0496 71.6934 83.0496 72.2266V72.3838C83.0496 72.917 82.9721 73.4115 82.8172 73.8672C82.6622 74.3229 82.4367 74.7217 82.1404 75.0635C81.8442 75.4007 81.4842 75.665 81.0604 75.8564C80.6365 76.0433 80.1557 76.1367 79.618 76.1367C79.0757 76.1367 78.5903 76.0433 78.1619 75.8564C77.7381 75.665 77.3781 75.4007 77.0818 75.0635C76.7856 74.7217 76.56 74.3229 76.4051 73.8672C76.2501 73.4115 76.1727 72.917 76.1727 72.3838ZM77.8201 72.2266V72.3838C77.8201 72.7165 77.8543 73.0309 77.9227 73.3271C77.991 73.6234 78.0981 73.8831 78.2439 74.1064C78.3898 74.3298 78.5766 74.5052 78.8045 74.6328C79.0324 74.7604 79.3035 74.8242 79.618 74.8242C79.9233 74.8242 80.1876 74.7604 80.4109 74.6328C80.6388 74.5052 80.8257 74.3298 80.9715 74.1064C81.1173 73.8831 81.2244 73.6234 81.2928 73.3271C81.3657 73.0309 81.4021 72.7165 81.4021 72.3838V72.2266C81.4021 71.8984 81.3657 71.5885 81.2928 71.2969C81.2244 71.0007 81.115 70.7386 80.9646 70.5107C80.8188 70.2829 80.632 70.1051 80.4041 69.9775C80.1808 69.8454 79.9142 69.7793 79.6043 69.7793C79.2944 69.7793 79.0255 69.8454 78.7977 69.9775C78.5743 70.1051 78.3898 70.2829 78.2439 70.5107C78.0981 70.7386 77.991 71.0007 77.9227 71.2969C77.8543 71.5885 77.8201 71.8984 77.8201 72.2266ZM86.2941 65.5V76H84.6398V65.5H86.2941ZM91.4596 76.1367C90.9127 76.1367 90.4182 76.0479 89.9762 75.8701C89.5387 75.6878 89.165 75.4349 88.8551 75.1113C88.5497 74.7878 88.315 74.4072 88.151 73.9697C87.9869 73.5322 87.9049 73.0605 87.9049 72.5547V72.2812C87.9049 71.7025 87.9892 71.1784 88.1578 70.709C88.3264 70.2396 88.5611 69.8385 88.8619 69.5059C89.1627 69.1686 89.5182 68.9111 89.9283 68.7334C90.3385 68.5557 90.7828 68.4668 91.2613 68.4668C91.79 68.4668 92.2525 68.5557 92.649 68.7334C93.0455 68.9111 93.3736 69.1618 93.6334 69.4854C93.8977 69.8044 94.0937 70.1849 94.2213 70.627C94.3535 71.069 94.4195 71.5566 94.4195 72.0898V72.7939H88.7047V71.6113H92.7926V71.4814C92.7835 71.1852 92.7242 70.9072 92.6148 70.6475C92.51 70.3877 92.3482 70.1781 92.1295 70.0186C91.9107 69.859 91.6191 69.7793 91.2545 69.7793C90.9811 69.7793 90.7372 69.8385 90.523 69.957C90.3134 70.071 90.138 70.2373 89.9967 70.4561C89.8554 70.6748 89.746 70.9391 89.6686 71.249C89.5956 71.5544 89.5592 71.8984 89.5592 72.2812V72.5547C89.5592 72.8783 89.6025 73.179 89.6891 73.457C89.7802 73.7305 89.9124 73.9697 90.0855 74.1748C90.2587 74.3799 90.4684 74.5417 90.7145 74.6602C90.9605 74.7741 91.2408 74.8311 91.5553 74.8311C91.9518 74.8311 92.3049 74.7513 92.6148 74.5918C92.9247 74.4323 93.1936 74.2067 93.4215 73.915L94.2896 74.7559C94.1301 74.9883 93.9228 75.2116 93.6676 75.4258C93.4124 75.6354 93.1002 75.8063 92.7311 75.9385C92.3665 76.0706 91.9426 76.1367 91.4596 76.1367ZM107.451 66.0469V76H105.735L101.271 68.8701V76H99.5551V66.0469H101.271L105.748 73.1904V66.0469H107.451ZM113.881 74.2568V68.6035H115.535V76H113.976L113.881 74.2568ZM114.113 72.7188L114.667 72.7051C114.667 73.2018 114.612 73.6598 114.503 74.0791C114.393 74.4938 114.225 74.8561 113.997 75.166C113.769 75.4714 113.477 75.7106 113.122 75.8838C112.766 76.0524 112.34 76.1367 111.844 76.1367C111.484 76.1367 111.153 76.0843 110.852 75.9795C110.552 75.8747 110.292 75.7129 110.073 75.4941C109.859 75.2754 109.693 74.9906 109.574 74.6396C109.456 74.2887 109.396 73.8695 109.396 73.3818V68.6035H111.044V73.3955C111.044 73.6644 111.076 73.89 111.139 74.0723C111.203 74.25 111.29 74.3936 111.399 74.5029C111.509 74.6123 111.636 74.6898 111.782 74.7354C111.928 74.7809 112.083 74.8037 112.247 74.8037C112.716 74.8037 113.085 74.7126 113.354 74.5303C113.628 74.3434 113.821 74.0928 113.935 73.7783C114.054 73.4639 114.113 73.1107 114.113 72.7188ZM118.971 70.1074V76H117.323V68.6035H118.875L118.971 70.1074ZM118.704 72.0283L118.144 72.0215C118.144 71.5111 118.208 71.0394 118.335 70.6064C118.463 70.1735 118.65 69.7975 118.896 69.4785C119.142 69.1549 119.447 68.9066 119.812 68.7334C120.181 68.5557 120.607 68.4668 121.09 68.4668C121.427 68.4668 121.735 68.5169 122.013 68.6172C122.295 68.7129 122.539 68.8656 122.744 69.0752C122.954 69.2848 123.113 69.5537 123.223 69.8818C123.337 70.21 123.394 70.6064 123.394 71.0713V76H121.746V71.2148C121.746 70.8548 121.692 70.5723 121.582 70.3672C121.477 70.1621 121.325 70.0163 121.124 69.9297C120.928 69.8385 120.694 69.793 120.42 69.793C120.11 69.793 119.846 69.8522 119.627 69.9707C119.413 70.0892 119.238 70.251 119.101 70.4561C118.964 70.6611 118.864 70.8981 118.8 71.167C118.736 71.4359 118.704 71.723 118.704 72.0283ZM123.291 71.5908L122.519 71.7617C122.519 71.3151 122.58 70.8936 122.703 70.4971C122.831 70.096 123.015 69.7451 123.257 69.4443C123.503 69.139 123.806 68.8997 124.166 68.7266C124.526 68.5534 124.939 68.4668 125.404 68.4668C125.782 68.4668 126.119 68.5192 126.415 68.624C126.716 68.7243 126.971 68.8838 127.181 69.1025C127.39 69.3213 127.55 69.6061 127.659 69.957C127.769 70.3034 127.823 70.7227 127.823 71.2148V76H126.169V71.208C126.169 70.8343 126.114 70.5449 126.005 70.3398C125.9 70.1348 125.75 69.9935 125.554 69.916C125.358 69.834 125.123 69.793 124.85 69.793C124.595 69.793 124.369 69.8408 124.173 69.9365C123.982 70.0277 123.82 70.1576 123.688 70.3262C123.556 70.4902 123.455 70.6794 123.387 70.8936C123.323 71.1077 123.291 71.3402 123.291 71.5908ZM129.626 65.5H131.273V74.4209L131.116 76H129.626V65.5ZM136.099 72.2334V72.377C136.099 72.9238 136.038 73.4274 135.915 73.8877C135.796 74.3434 135.614 74.7399 135.368 75.0771C135.126 75.4144 134.825 75.6764 134.465 75.8633C134.11 76.0456 133.698 76.1367 133.228 76.1367C132.768 76.1367 132.367 76.0501 132.025 75.877C131.683 75.7038 131.396 75.4577 131.164 75.1387C130.936 74.8197 130.751 74.4391 130.61 73.9971C130.469 73.555 130.368 73.0674 130.309 72.5342V72.0762C130.368 71.5384 130.469 71.0508 130.61 70.6133C130.751 70.1712 130.936 69.7907 131.164 69.4717C131.396 69.1481 131.681 68.8997 132.018 68.7266C132.36 68.5534 132.759 68.4668 133.214 68.4668C133.688 68.4668 134.105 68.5579 134.465 68.7402C134.83 68.9225 135.133 69.1823 135.375 69.5195C135.616 69.8522 135.796 70.2487 135.915 70.709C136.038 71.1693 136.099 71.6774 136.099 72.2334ZM134.452 72.377V72.2334C134.452 71.9007 134.424 71.5885 134.37 71.2969C134.315 71.0007 134.224 70.7409 134.096 70.5176C133.973 70.2943 133.805 70.1188 133.59 69.9912C133.381 69.859 133.119 69.793 132.804 69.793C132.513 69.793 132.262 69.8431 132.052 69.9434C131.843 70.0436 131.667 70.1803 131.526 70.3535C131.385 70.5267 131.273 70.7272 131.191 70.9551C131.114 71.1829 131.061 71.429 131.034 71.6934V72.9307C131.075 73.2725 131.161 73.5869 131.294 73.874C131.43 74.1566 131.622 74.3844 131.868 74.5576C132.114 74.7262 132.431 74.8105 132.818 74.8105C133.123 74.8105 133.381 74.749 133.59 74.626C133.8 74.5029 133.966 74.332 134.089 74.1133C134.217 73.89 134.308 73.6302 134.363 73.334C134.422 73.0378 134.452 72.7188 134.452 72.377ZM140.854 76.1367C140.308 76.1367 139.813 76.0479 139.371 75.8701C138.934 75.6878 138.56 75.4349 138.25 75.1113C137.945 74.7878 137.71 74.4072 137.546 73.9697C137.382 73.5322 137.3 73.0605 137.3 72.5547V72.2812C137.3 71.7025 137.384 71.1784 137.553 70.709C137.721 70.2396 137.956 69.8385 138.257 69.5059C138.558 69.1686 138.913 68.9111 139.323 68.7334C139.733 68.5557 140.178 68.4668 140.656 68.4668C141.185 68.4668 141.647 68.5557 142.044 68.7334C142.44 68.9111 142.769 69.1618 143.028 69.4854C143.293 69.8044 143.489 70.1849 143.616 70.627C143.748 71.069 143.814 71.5566 143.814 72.0898V72.7939H138.1V71.6113H142.188V71.4814C142.178 71.1852 142.119 70.9072 142.01 70.6475C141.905 70.3877 141.743 70.1781 141.524 70.0186C141.306 69.859 141.014 69.7793 140.649 69.7793C140.376 69.7793 140.132 69.8385 139.918 69.957C139.708 70.071 139.533 70.2373 139.392 70.4561C139.25 70.6748 139.141 70.9391 139.063 71.249C138.991 71.5544 138.954 71.8984 138.954 72.2812V72.5547C138.954 72.8783 138.997 73.179 139.084 73.457C139.175 73.7305 139.307 73.9697 139.48 74.1748C139.654 74.3799 139.863 74.5417 140.109 74.6602C140.355 74.7741 140.636 74.8311 140.95 74.8311C141.347 74.8311 141.7 74.7513 142.01 74.5918C142.32 74.4323 142.589 74.2067 142.816 73.915L143.685 74.7559C143.525 74.9883 143.318 75.2116 143.062 75.4258C142.807 75.6354 142.495 75.8063 142.126 75.9385C141.761 76.0706 141.338 76.1367 140.854 76.1367ZM146.854 70.0117V76H145.206V68.6035H146.779L146.854 70.0117ZM149.117 68.5557L149.103 70.0869C149.003 70.0687 148.893 70.055 148.775 70.0459C148.661 70.0368 148.547 70.0322 148.433 70.0322C148.15 70.0322 147.902 70.0732 147.688 70.1553C147.474 70.2327 147.294 70.3467 147.148 70.4971C147.007 70.6429 146.897 70.8206 146.82 71.0303C146.742 71.2399 146.697 71.4746 146.683 71.7344L146.307 71.7617C146.307 71.2969 146.353 70.8662 146.444 70.4697C146.535 70.0732 146.672 69.7246 146.854 69.4238C147.041 69.123 147.273 68.8883 147.551 68.7197C147.834 68.5511 148.16 68.4668 148.529 68.4668C148.629 68.4668 148.736 68.4759 148.85 68.4941C148.968 68.5124 149.057 68.5329 149.117 68.5557ZM154.398 73.9971C154.398 73.833 154.357 73.6849 154.275 73.5527C154.193 73.416 154.036 73.293 153.804 73.1836C153.576 73.0742 153.238 72.974 152.792 72.8828C152.4 72.7962 152.04 72.6937 151.712 72.5752C151.388 72.4521 151.11 72.304 150.878 72.1309C150.645 71.9577 150.465 71.7526 150.338 71.5156C150.21 71.2786 150.146 71.0052 150.146 70.6953C150.146 70.3945 150.212 70.1097 150.345 69.8408C150.477 69.5719 150.666 69.335 150.912 69.1299C151.158 68.9248 151.457 68.763 151.807 68.6445C152.163 68.526 152.559 68.4668 152.997 68.4668C153.617 68.4668 154.148 68.5716 154.59 68.7812C155.036 68.9863 155.378 69.2666 155.615 69.6221C155.852 69.973 155.971 70.3695 155.971 70.8115H154.323C154.323 70.6156 154.273 70.4333 154.173 70.2646C154.077 70.0915 153.931 69.9525 153.735 69.8477C153.539 69.7383 153.293 69.6836 152.997 69.6836C152.714 69.6836 152.48 69.7292 152.293 69.8203C152.11 69.9069 151.974 70.0208 151.883 70.1621C151.796 70.3034 151.753 70.4583 151.753 70.627C151.753 70.75 151.776 70.8617 151.821 70.9619C151.871 71.0576 151.953 71.1465 152.067 71.2285C152.181 71.306 152.336 71.3789 152.532 71.4473C152.733 71.5156 152.983 71.5817 153.284 71.6455C153.849 71.764 154.334 71.9167 154.74 72.1035C155.15 72.2858 155.465 72.5228 155.683 72.8145C155.902 73.1016 156.012 73.4661 156.012 73.9082C156.012 74.2363 155.941 74.5371 155.8 74.8105C155.663 75.0794 155.462 75.3141 155.198 75.5146C154.934 75.7106 154.617 75.8633 154.248 75.9727C153.883 76.082 153.473 76.1367 153.017 76.1367C152.347 76.1367 151.78 76.0182 151.315 75.7812C150.85 75.5397 150.497 75.2321 150.256 74.8584C150.019 74.4801 149.9 74.0882 149.9 73.6826H151.493C151.511 73.988 151.596 74.2318 151.746 74.4141C151.901 74.5918 152.092 74.7217 152.32 74.8037C152.553 74.8812 152.792 74.9199 153.038 74.9199C153.334 74.9199 153.582 74.8812 153.783 74.8037C153.984 74.7217 154.136 74.6123 154.241 74.4756C154.346 74.3343 154.398 74.1748 154.398 73.9971Z" fill="white"/>
<path d="M26.5068 196.765L28.4893 189.047H29.5283L29.4121 191.036L27.293 199H26.2129L26.5068 196.765ZM25.0234 189.047L26.6299 196.703L26.7734 199H25.625L23.3213 189.047H25.0234ZM31.7773 196.683L33.3633 189.047H35.0723L32.7686 199H31.6201L31.7773 196.683ZM29.9316 189.047L31.8936 196.785L32.1807 199H31.1006L29.0156 191.036L28.9062 189.047H29.9316ZM38.0434 191.604V199H36.3891V191.604H38.0434ZM36.2797 189.662C36.2797 189.411 36.3617 189.204 36.5258 189.04C36.6944 188.871 36.9268 188.787 37.223 188.787C37.5147 188.787 37.7449 188.871 37.9135 189.04C38.0821 189.204 38.1664 189.411 38.1664 189.662C38.1664 189.908 38.0821 190.113 37.9135 190.277C37.7449 190.441 37.5147 190.523 37.223 190.523C36.9268 190.523 36.6944 190.441 36.5258 190.277C36.3617 190.113 36.2797 189.908 36.2797 189.662ZM43.3387 191.604V192.807H39.1688V191.604H43.3387ZM40.3719 189.792H42.0193V196.956C42.0193 197.184 42.0512 197.359 42.115 197.482C42.1834 197.601 42.2768 197.681 42.3953 197.722C42.5138 197.763 42.6528 197.783 42.8123 197.783C42.9262 197.783 43.0356 197.776 43.1404 197.763C43.2452 197.749 43.3296 197.735 43.3934 197.722L43.4002 198.979C43.2635 199.021 43.104 199.057 42.9217 199.089C42.7439 199.121 42.5389 199.137 42.3064 199.137C41.9282 199.137 41.5932 199.071 41.3016 198.938C41.0099 198.802 40.782 198.581 40.618 198.275C40.4539 197.97 40.3719 197.564 40.3719 197.059V189.792ZM46.3371 188.5V199H44.6965V188.5H46.3371ZM46.05 195.028L45.5168 195.021C45.5214 194.511 45.592 194.039 45.7287 193.606C45.87 193.174 46.0659 192.798 46.3166 192.479C46.5718 192.155 46.8771 191.907 47.2326 191.733C47.5881 191.556 47.9823 191.467 48.4152 191.467C48.7798 191.467 49.1079 191.517 49.3996 191.617C49.6958 191.717 49.951 191.879 50.1652 192.103C50.3794 192.321 50.5412 192.608 50.6506 192.964C50.7645 193.315 50.8215 193.743 50.8215 194.249V199H49.1672V194.235C49.1672 193.88 49.1148 193.597 49.01 193.388C48.9097 193.178 48.7616 193.028 48.5656 192.937C48.3697 192.841 48.1304 192.793 47.8479 192.793C47.5516 192.793 47.2896 192.852 47.0617 192.971C46.8384 193.089 46.6516 193.251 46.5012 193.456C46.3508 193.661 46.2368 193.898 46.1594 194.167C46.0865 194.436 46.05 194.723 46.05 195.028ZM59.2314 199H57.1055L57.1191 197.64H59.2314C59.8467 197.64 60.3617 197.505 60.7764 197.236C61.1956 196.967 61.5101 196.582 61.7197 196.081C61.9339 195.58 62.041 194.983 62.041 194.29V193.75C62.041 193.212 61.9795 192.736 61.8564 192.321C61.738 191.907 61.5602 191.558 61.3232 191.275C61.0908 190.993 60.8037 190.779 60.4619 190.633C60.1247 190.487 59.735 190.414 59.293 190.414H57.0645V189.047H59.293C59.9538 189.047 60.5576 189.159 61.1045 189.382C61.6514 189.601 62.123 189.917 62.5195 190.332C62.9206 190.747 63.2282 191.243 63.4424 191.822C63.6566 192.401 63.7637 193.048 63.7637 193.764V194.29C63.7637 195.006 63.6566 195.653 63.4424 196.231C63.2282 196.81 62.9206 197.307 62.5195 197.722C62.1185 198.132 61.64 198.449 61.084 198.672C60.5326 198.891 59.915 199 59.2314 199ZM58.0557 189.047V199H56.3398V189.047H58.0557ZM68.683 199.137C68.1361 199.137 67.6417 199.048 67.1996 198.87C66.7621 198.688 66.3884 198.435 66.0785 198.111C65.7732 197.788 65.5385 197.407 65.3744 196.97C65.2104 196.532 65.1283 196.061 65.1283 195.555V195.281C65.1283 194.702 65.2126 194.178 65.3812 193.709C65.5499 193.24 65.7846 192.839 66.0854 192.506C66.3861 192.169 66.7416 191.911 67.1518 191.733C67.5619 191.556 68.0062 191.467 68.4848 191.467C69.0134 191.467 69.476 191.556 69.8725 191.733C70.2689 191.911 70.5971 192.162 70.8568 192.485C71.1212 192.804 71.3171 193.185 71.4447 193.627C71.5769 194.069 71.643 194.557 71.643 195.09V195.794H65.9281V194.611H70.016V194.481C70.0069 194.185 69.9477 193.907 69.8383 193.647C69.7335 193.388 69.5717 193.178 69.3529 193.019C69.1342 192.859 68.8425 192.779 68.4779 192.779C68.2045 192.779 67.9607 192.839 67.7465 192.957C67.5368 193.071 67.3614 193.237 67.2201 193.456C67.0788 193.675 66.9695 193.939 66.892 194.249C66.8191 194.554 66.7826 194.898 66.7826 195.281V195.555C66.7826 195.878 66.8259 196.179 66.9125 196.457C67.0036 196.73 67.1358 196.97 67.309 197.175C67.4822 197.38 67.6918 197.542 67.9379 197.66C68.184 197.774 68.4643 197.831 68.7787 197.831C69.1752 197.831 69.5284 197.751 69.8383 197.592C70.1482 197.432 70.4171 197.207 70.6449 196.915L71.5131 197.756C71.3536 197.988 71.1462 198.212 70.891 198.426C70.6358 198.635 70.3236 198.806 69.9545 198.938C69.5899 199.071 69.1661 199.137 68.683 199.137ZM76.0496 197.824C76.3185 197.824 76.56 197.772 76.7742 197.667C76.993 197.558 77.1684 197.407 77.3006 197.216C77.4373 197.024 77.5125 196.803 77.5262 196.553H79.0779C79.0688 197.031 78.9275 197.466 78.6541 197.858C78.3807 198.25 78.0184 198.562 77.5672 198.795C77.116 199.023 76.617 199.137 76.0701 199.137C75.505 199.137 75.0128 199.041 74.5936 198.85C74.1743 198.654 73.8257 198.385 73.5477 198.043C73.2697 197.701 73.06 197.307 72.9188 196.86C72.782 196.414 72.7137 195.935 72.7137 195.425V195.186C72.7137 194.675 72.782 194.197 72.9188 193.75C73.06 193.299 73.2697 192.902 73.5477 192.561C73.8257 192.219 74.1743 191.952 74.5936 191.761C75.0128 191.565 75.5027 191.467 76.0633 191.467C76.6557 191.467 77.1753 191.585 77.6219 191.822C78.0685 192.055 78.4194 192.381 78.6746 192.8C78.9344 193.215 79.0688 193.698 79.0779 194.249H77.5262C77.5125 193.976 77.4441 193.729 77.3211 193.511C77.2026 193.287 77.034 193.11 76.8152 192.978C76.601 192.845 76.3436 192.779 76.0428 192.779C75.7101 192.779 75.4344 192.848 75.2156 192.984C74.9969 193.117 74.826 193.299 74.7029 193.531C74.5799 193.759 74.491 194.017 74.4363 194.304C74.3862 194.586 74.3611 194.88 74.3611 195.186V195.425C74.3611 195.73 74.3862 196.026 74.4363 196.313C74.4865 196.601 74.573 196.858 74.6961 197.086C74.8237 197.309 74.9969 197.489 75.2156 197.626C75.4344 197.758 75.7124 197.824 76.0496 197.824ZM82.2062 191.604V199H80.552V191.604H82.2062ZM80.4426 189.662C80.4426 189.411 80.5246 189.204 80.6887 189.04C80.8573 188.871 81.0897 188.787 81.3859 188.787C81.6776 188.787 81.9077 188.871 82.0764 189.04C82.245 189.204 82.3293 189.411 82.3293 189.662C82.3293 189.908 82.245 190.113 82.0764 190.277C81.9077 190.441 81.6776 190.523 81.3859 190.523C81.0897 190.523 80.8573 190.441 80.6887 190.277C80.5246 190.113 80.4426 189.908 80.4426 189.662ZM85.7584 193.107V199H84.1109V191.604H85.6627L85.7584 193.107ZM85.4918 195.028L84.9313 195.021C84.9313 194.511 84.9951 194.039 85.1227 193.606C85.2503 193.174 85.4371 192.798 85.6832 192.479C85.9293 192.155 86.2346 191.907 86.5992 191.733C86.9684 191.556 87.3945 191.467 87.8775 191.467C88.2148 191.467 88.5224 191.517 88.8004 191.617C89.0829 191.713 89.3268 191.866 89.5318 192.075C89.7415 192.285 89.901 192.554 90.0104 192.882C90.1243 193.21 90.1813 193.606 90.1813 194.071V199H88.5338V194.215C88.5338 193.855 88.4791 193.572 88.3697 193.367C88.2649 193.162 88.1122 193.016 87.9117 192.93C87.7158 192.839 87.4811 192.793 87.2076 192.793C86.8977 192.793 86.6334 192.852 86.4146 192.971C86.2005 193.089 86.025 193.251 85.8883 193.456C85.7516 193.661 85.6513 193.898 85.5875 194.167C85.5237 194.436 85.4918 194.723 85.4918 195.028ZM90.0787 194.591L89.3063 194.762C89.3063 194.315 89.3678 193.894 89.4908 193.497C89.6184 193.096 89.803 192.745 90.0445 192.444C90.2906 192.139 90.5937 191.9 90.9537 191.727C91.3137 191.553 91.7262 191.467 92.191 191.467C92.5693 191.467 92.9065 191.519 93.2027 191.624C93.5035 191.724 93.7587 191.884 93.9684 192.103C94.178 192.321 94.3375 192.606 94.4469 192.957C94.5563 193.303 94.6109 193.723 94.6109 194.215V199H92.9566V194.208C92.9566 193.834 92.902 193.545 92.7926 193.34C92.6878 193.135 92.5374 192.993 92.3414 192.916C92.1454 192.834 91.9107 192.793 91.6373 192.793C91.3821 192.793 91.1565 192.841 90.9605 192.937C90.7691 193.028 90.6074 193.158 90.4752 193.326C90.343 193.49 90.2428 193.679 90.1744 193.894C90.1106 194.108 90.0787 194.34 90.0787 194.591ZM100.576 197.517V193.989C100.576 193.725 100.528 193.497 100.433 193.306C100.337 193.114 100.191 192.966 99.9951 192.861C99.8037 192.757 99.5622 192.704 99.2705 192.704C99.0016 192.704 98.7692 192.75 98.5732 192.841C98.3773 192.932 98.2246 193.055 98.1152 193.21C98.0059 193.365 97.9512 193.54 97.9512 193.736H96.3105C96.3105 193.445 96.3812 193.162 96.5225 192.889C96.6637 192.615 96.8688 192.371 97.1377 192.157C97.4066 191.943 97.7279 191.774 98.1016 191.651C98.4753 191.528 98.8945 191.467 99.3594 191.467C99.9154 191.467 100.408 191.56 100.836 191.747C101.269 191.934 101.608 192.216 101.854 192.595C102.105 192.968 102.23 193.438 102.23 194.003V197.291C102.23 197.628 102.253 197.931 102.299 198.2C102.349 198.465 102.42 198.695 102.511 198.891V199H100.822C100.745 198.822 100.683 198.597 100.638 198.323C100.597 198.045 100.576 197.776 100.576 197.517ZM100.815 194.502L100.829 195.521H99.6465C99.3411 195.521 99.0723 195.55 98.8398 195.609C98.6074 195.664 98.4137 195.746 98.2588 195.855C98.1038 195.965 97.9876 196.097 97.9102 196.252C97.8327 196.407 97.7939 196.582 97.7939 196.778C97.7939 196.974 97.8395 197.154 97.9307 197.318C98.0218 197.478 98.154 197.603 98.3271 197.694C98.5049 197.785 98.7191 197.831 98.9697 197.831C99.307 197.831 99.6009 197.763 99.8516 197.626C100.107 197.485 100.307 197.314 100.453 197.113C100.599 196.908 100.676 196.715 100.686 196.532L101.219 197.264C101.164 197.451 101.071 197.651 100.938 197.865C100.806 198.079 100.633 198.285 100.419 198.48C100.209 198.672 99.9564 198.829 99.6602 198.952C99.3685 199.075 99.0312 199.137 98.6484 199.137C98.1654 199.137 97.7347 199.041 97.3564 198.85C96.9782 198.654 96.682 198.392 96.4678 198.063C96.2536 197.731 96.1465 197.355 96.1465 196.936C96.1465 196.544 96.2194 196.197 96.3652 195.896C96.5156 195.591 96.7344 195.336 97.0215 195.131C97.3132 194.926 97.6686 194.771 98.0879 194.666C98.5072 194.557 98.9857 194.502 99.5234 194.502H100.815ZM105.817 188.5V199H104.162V188.5H105.817ZM119.367 189.047V199H117.652L113.188 191.87V199H111.472V189.047H113.188L117.665 196.19V189.047H119.367ZM125.797 197.257V191.604H127.452V199H125.893L125.797 197.257ZM126.03 195.719L126.584 195.705C126.584 196.202 126.529 196.66 126.42 197.079C126.31 197.494 126.142 197.856 125.914 198.166C125.686 198.471 125.394 198.711 125.039 198.884C124.683 199.052 124.257 199.137 123.76 199.137C123.4 199.137 123.07 199.084 122.769 198.979C122.468 198.875 122.209 198.713 121.99 198.494C121.776 198.275 121.609 197.991 121.491 197.64C121.372 197.289 121.313 196.869 121.313 196.382V191.604H122.961V196.396C122.961 196.664 122.992 196.89 123.056 197.072C123.12 197.25 123.207 197.394 123.316 197.503C123.425 197.612 123.553 197.69 123.699 197.735C123.845 197.781 124 197.804 124.164 197.804C124.633 197.804 125.002 197.713 125.271 197.53C125.545 197.343 125.738 197.093 125.852 196.778C125.971 196.464 126.03 196.111 126.03 195.719ZM130.888 193.107V199H129.24V191.604H130.792L130.888 193.107ZM130.621 195.028L130.061 195.021C130.061 194.511 130.124 194.039 130.252 193.606C130.38 193.174 130.566 192.798 130.812 192.479C131.059 192.155 131.364 191.907 131.729 191.733C132.098 191.556 132.524 191.467 133.007 191.467C133.344 191.467 133.652 191.517 133.93 191.617C134.212 191.713 134.456 191.866 134.661 192.075C134.871 192.285 135.03 192.554 135.14 192.882C135.254 193.21 135.311 193.606 135.311 194.071V199H133.663V194.215C133.663 193.855 133.608 193.572 133.499 193.367C133.394 193.162 133.242 193.016 133.041 192.93C132.845 192.839 132.61 192.793 132.337 192.793C132.027 192.793 131.763 192.852 131.544 192.971C131.33 193.089 131.154 193.251 131.018 193.456C130.881 193.661 130.781 193.898 130.717 194.167C130.653 194.436 130.621 194.723 130.621 195.028ZM135.208 194.591L134.436 194.762C134.436 194.315 134.497 193.894 134.62 193.497C134.748 193.096 134.932 192.745 135.174 192.444C135.42 192.139 135.723 191.9 136.083 191.727C136.443 191.553 136.855 191.467 137.32 191.467C137.699 191.467 138.036 191.519 138.332 191.624C138.633 191.724 138.888 191.884 139.098 192.103C139.307 192.321 139.467 192.606 139.576 192.957C139.686 193.303 139.74 193.723 139.74 194.215V199H138.086V194.208C138.086 193.834 138.031 193.545 137.922 193.34C137.817 193.135 137.667 192.993 137.471 192.916C137.275 192.834 137.04 192.793 136.767 192.793C136.511 192.793 136.286 192.841 136.09 192.937C135.898 193.028 135.737 193.158 135.604 193.326C135.472 193.49 135.372 193.679 135.304 193.894C135.24 194.108 135.208 194.34 135.208 194.591ZM141.542 188.5H143.19V197.421L143.033 199H141.542V188.5ZM148.016 195.233V195.377C148.016 195.924 147.954 196.427 147.831 196.888C147.713 197.343 147.531 197.74 147.285 198.077C147.043 198.414 146.742 198.676 146.382 198.863C146.027 199.046 145.614 199.137 145.145 199.137C144.685 199.137 144.284 199.05 143.942 198.877C143.6 198.704 143.313 198.458 143.08 198.139C142.853 197.82 142.668 197.439 142.527 196.997C142.385 196.555 142.285 196.067 142.226 195.534V195.076C142.285 194.538 142.385 194.051 142.527 193.613C142.668 193.171 142.853 192.791 143.08 192.472C143.313 192.148 143.598 191.9 143.935 191.727C144.277 191.553 144.676 191.467 145.131 191.467C145.605 191.467 146.022 191.558 146.382 191.74C146.747 191.923 147.05 192.182 147.291 192.52C147.533 192.852 147.713 193.249 147.831 193.709C147.954 194.169 148.016 194.677 148.016 195.233ZM146.369 195.377V195.233C146.369 194.901 146.341 194.589 146.287 194.297C146.232 194.001 146.141 193.741 146.013 193.518C145.89 193.294 145.721 193.119 145.507 192.991C145.298 192.859 145.036 192.793 144.721 192.793C144.429 192.793 144.179 192.843 143.969 192.943C143.76 193.044 143.584 193.18 143.443 193.354C143.301 193.527 143.19 193.727 143.108 193.955C143.03 194.183 142.978 194.429 142.951 194.693V195.931C142.992 196.272 143.078 196.587 143.21 196.874C143.347 197.157 143.538 197.384 143.785 197.558C144.031 197.726 144.347 197.811 144.735 197.811C145.04 197.811 145.298 197.749 145.507 197.626C145.717 197.503 145.883 197.332 146.006 197.113C146.134 196.89 146.225 196.63 146.28 196.334C146.339 196.038 146.369 195.719 146.369 195.377ZM152.771 199.137C152.224 199.137 151.73 199.048 151.288 198.87C150.85 198.688 150.477 198.435 150.167 198.111C149.861 197.788 149.627 197.407 149.463 196.97C149.299 196.532 149.217 196.061 149.217 195.555V195.281C149.217 194.702 149.301 194.178 149.47 193.709C149.638 193.24 149.873 192.839 150.174 192.506C150.474 192.169 150.83 191.911 151.24 191.733C151.65 191.556 152.095 191.467 152.573 191.467C153.102 191.467 153.564 191.556 153.961 191.733C154.357 191.911 154.685 192.162 154.945 192.485C155.209 192.804 155.405 193.185 155.533 193.627C155.665 194.069 155.731 194.557 155.731 195.09V195.794H150.016V194.611H154.104V194.481C154.095 194.185 154.036 193.907 153.927 193.647C153.822 193.388 153.66 193.178 153.441 193.019C153.222 192.859 152.931 192.779 152.566 192.779C152.293 192.779 152.049 192.839 151.835 192.957C151.625 193.071 151.45 193.237 151.308 193.456C151.167 193.675 151.058 193.939 150.98 194.249C150.907 194.554 150.871 194.898 150.871 195.281V195.555C150.871 195.878 150.914 196.179 151.001 196.457C151.092 196.73 151.224 196.97 151.397 197.175C151.57 197.38 151.78 197.542 152.026 197.66C152.272 197.774 152.553 197.831 152.867 197.831C153.263 197.831 153.617 197.751 153.927 197.592C154.236 197.432 154.505 197.207 154.733 196.915L155.601 197.756C155.442 197.988 155.235 198.212 154.979 198.426C154.724 198.635 154.412 198.806 154.043 198.938C153.678 199.071 153.254 199.137 152.771 199.137ZM158.771 193.012V199H157.123V191.604H158.696L158.771 193.012ZM161.033 191.556L161.02 193.087C160.919 193.069 160.81 193.055 160.692 193.046C160.578 193.037 160.464 193.032 160.35 193.032C160.067 193.032 159.819 193.073 159.605 193.155C159.39 193.233 159.21 193.347 159.065 193.497C158.923 193.643 158.814 193.821 158.737 194.03C158.659 194.24 158.613 194.475 158.6 194.734L158.224 194.762C158.224 194.297 158.269 193.866 158.361 193.47C158.452 193.073 158.588 192.725 158.771 192.424C158.958 192.123 159.19 191.888 159.468 191.72C159.751 191.551 160.076 191.467 160.446 191.467C160.546 191.467 160.653 191.476 160.767 191.494C160.885 191.512 160.974 191.533 161.033 191.556ZM166.315 196.997C166.315 196.833 166.274 196.685 166.192 196.553C166.11 196.416 165.953 196.293 165.72 196.184C165.492 196.074 165.155 195.974 164.709 195.883C164.317 195.796 163.957 195.694 163.629 195.575C163.305 195.452 163.027 195.304 162.795 195.131C162.562 194.958 162.382 194.753 162.254 194.516C162.127 194.279 162.063 194.005 162.063 193.695C162.063 193.395 162.129 193.11 162.261 192.841C162.393 192.572 162.583 192.335 162.829 192.13C163.075 191.925 163.373 191.763 163.724 191.645C164.08 191.526 164.476 191.467 164.914 191.467C165.533 191.467 166.064 191.572 166.506 191.781C166.953 191.986 167.295 192.267 167.532 192.622C167.769 192.973 167.887 193.369 167.887 193.812H166.24C166.24 193.616 166.19 193.433 166.089 193.265C165.994 193.091 165.848 192.952 165.652 192.848C165.456 192.738 165.21 192.684 164.914 192.684C164.631 192.684 164.396 192.729 164.21 192.82C164.027 192.907 163.891 193.021 163.799 193.162C163.713 193.303 163.67 193.458 163.67 193.627C163.67 193.75 163.692 193.862 163.738 193.962C163.788 194.058 163.87 194.146 163.984 194.229C164.098 194.306 164.253 194.379 164.449 194.447C164.649 194.516 164.9 194.582 165.201 194.646C165.766 194.764 166.251 194.917 166.657 195.104C167.067 195.286 167.381 195.523 167.6 195.814C167.819 196.102 167.928 196.466 167.928 196.908C167.928 197.236 167.858 197.537 167.716 197.811C167.58 198.079 167.379 198.314 167.115 198.515C166.851 198.711 166.534 198.863 166.165 198.973C165.8 199.082 165.39 199.137 164.934 199.137C164.264 199.137 163.697 199.018 163.232 198.781C162.767 198.54 162.414 198.232 162.172 197.858C161.935 197.48 161.817 197.088 161.817 196.683H163.41C163.428 196.988 163.512 197.232 163.663 197.414C163.818 197.592 164.009 197.722 164.237 197.804C164.469 197.881 164.709 197.92 164.955 197.92C165.251 197.92 165.499 197.881 165.7 197.804C165.9 197.722 166.053 197.612 166.158 197.476C166.263 197.334 166.315 197.175 166.315 196.997Z" fill="white"/>
<path d="M17 217C17 211.477 21.4772 207 27 207H148C153.523 207 158 211.477 158 217V280C158 285.523 153.523 290 148 290H27C21.4771 290 17 285.523 17 280V217Z" fill="#FAFAFB"/>
<rect x="32.5" y="245.5" width="109.75" height="29" fill="white" stroke="#E2E2EA"/>
<path d="M46.2764 259.23V260.748C46.2764 261.564 46.2035 262.252 46.0576 262.812C45.9118 263.373 45.7021 263.824 45.4287 264.166C45.1553 264.508 44.8249 264.756 44.4375 264.911C44.0547 265.062 43.6217 265.137 43.1387 265.137C42.7559 265.137 42.4027 265.089 42.0791 264.993C41.7555 264.897 41.4639 264.745 41.2041 264.535C40.9489 264.321 40.7301 264.043 40.5479 263.701C40.3656 263.359 40.2266 262.945 40.1309 262.457C40.0352 261.969 39.9873 261.4 39.9873 260.748V259.23C39.9873 258.415 40.0602 257.731 40.2061 257.18C40.3564 256.628 40.5684 256.186 40.8418 255.854C41.1152 255.516 41.4434 255.275 41.8262 255.129C42.2135 254.983 42.6465 254.91 43.125 254.91C43.5124 254.91 43.8678 254.958 44.1914 255.054C44.5195 255.145 44.8112 255.293 45.0664 255.498C45.3216 255.699 45.5381 255.967 45.7158 256.305C45.8981 256.637 46.0371 257.045 46.1328 257.528C46.2285 258.011 46.2764 258.579 46.2764 259.23ZM45.0049 260.953V259.019C45.0049 258.572 44.9775 258.18 44.9229 257.843C44.8727 257.501 44.7975 257.209 44.6973 256.968C44.597 256.726 44.4694 256.53 44.3145 256.38C44.1641 256.229 43.9886 256.12 43.7881 256.052C43.5921 255.979 43.3711 255.942 43.125 255.942C42.8242 255.942 42.5576 255.999 42.3252 256.113C42.0928 256.223 41.8968 256.398 41.7373 256.64C41.5824 256.881 41.4639 257.198 41.3818 257.59C41.2998 257.982 41.2588 258.458 41.2588 259.019V260.953C41.2588 261.4 41.2839 261.794 41.334 262.136C41.3887 262.478 41.4684 262.774 41.5732 263.024C41.6781 263.271 41.8057 263.473 41.9561 263.633C42.1064 263.792 42.2796 263.911 42.4756 263.988C42.6761 264.061 42.8971 264.098 43.1387 264.098C43.4486 264.098 43.7197 264.038 43.9521 263.92C44.1846 263.801 44.3783 263.617 44.5332 263.366C44.6927 263.111 44.8112 262.785 44.8887 262.389C44.9661 261.988 45.0049 261.509 45.0049 260.953ZM48.1605 264.33C48.1605 264.116 48.2266 263.936 48.3588 263.79C48.4955 263.64 48.6915 263.564 48.9467 263.564C49.2019 263.564 49.3956 263.64 49.5277 263.79C49.6645 263.936 49.7328 264.116 49.7328 264.33C49.7328 264.54 49.6645 264.717 49.5277 264.863C49.3956 265.009 49.2019 265.082 48.9467 265.082C48.6915 265.082 48.4955 265.009 48.3588 264.863C48.2266 264.717 48.1605 264.54 48.1605 264.33ZM53.3943 260.263L52.3826 260.003L52.8816 255.047H57.9881V256.216H53.9549L53.6541 258.923C53.8364 258.818 54.0665 258.72 54.3445 258.629C54.6271 258.538 54.9507 258.492 55.3152 258.492C55.7755 258.492 56.188 258.572 56.5525 258.731C56.9171 258.886 57.227 259.11 57.4822 259.401C57.742 259.693 57.9402 260.044 58.077 260.454C58.2137 260.864 58.282 261.322 58.282 261.828C58.282 262.307 58.216 262.746 58.0838 263.147C57.9562 263.549 57.7625 263.899 57.5027 264.2C57.243 264.496 56.9148 264.727 56.5184 264.891C56.1264 265.055 55.6639 265.137 55.1307 265.137C54.7296 265.137 54.3491 265.082 53.9891 264.973C53.6336 264.859 53.3146 264.688 53.032 264.46C52.754 264.228 52.5262 263.94 52.3484 263.599C52.1753 263.252 52.0659 262.847 52.0203 262.382H53.2234C53.2781 262.756 53.3875 263.07 53.5516 263.325C53.7156 263.58 53.9298 263.774 54.1941 263.906C54.463 264.034 54.7752 264.098 55.1307 264.098C55.4314 264.098 55.698 264.045 55.9305 263.94C56.1629 263.836 56.3589 263.685 56.5184 263.489C56.6779 263.293 56.7986 263.056 56.8807 262.778C56.9673 262.5 57.0105 262.188 57.0105 261.842C57.0105 261.527 56.9673 261.236 56.8807 260.967C56.7941 260.698 56.6642 260.463 56.491 260.263C56.3224 260.062 56.115 259.907 55.8689 259.798C55.6229 259.684 55.3403 259.627 55.0213 259.627C54.5975 259.627 54.2762 259.684 54.0574 259.798C53.8432 259.912 53.6222 260.067 53.3943 260.263ZM62.5383 260.249V261.288H59.2023V260.249H62.5383ZM69.9869 259.23V260.748C69.9869 261.564 69.914 262.252 69.7682 262.812C69.6223 263.373 69.4127 263.824 69.1393 264.166C68.8658 264.508 68.5354 264.756 68.148 264.911C67.7652 265.062 67.3323 265.137 66.8492 265.137C66.4664 265.137 66.1132 265.089 65.7896 264.993C65.4661 264.897 65.1744 264.745 64.9146 264.535C64.6594 264.321 64.4407 264.043 64.2584 263.701C64.0761 263.359 63.9371 262.945 63.8414 262.457C63.7457 261.969 63.6979 261.4 63.6979 260.748V259.23C63.6979 258.415 63.7708 257.731 63.9166 257.18C64.067 256.628 64.2789 256.186 64.5523 255.854C64.8258 255.516 65.1539 255.275 65.5367 255.129C65.9241 254.983 66.357 254.91 66.8355 254.91C67.2229 254.91 67.5784 254.958 67.902 255.054C68.2301 255.145 68.5217 255.293 68.777 255.498C69.0322 255.699 69.2486 255.967 69.4264 256.305C69.6087 256.637 69.7477 257.045 69.8434 257.528C69.9391 258.011 69.9869 258.579 69.9869 259.23ZM68.7154 260.953V259.019C68.7154 258.572 68.6881 258.18 68.6334 257.843C68.5833 257.501 68.5081 257.209 68.4078 256.968C68.3076 256.726 68.1799 256.53 68.025 256.38C67.8746 256.229 67.6992 256.12 67.4986 256.052C67.3027 255.979 67.0816 255.942 66.8355 255.942C66.5348 255.942 66.2682 255.999 66.0357 256.113C65.8033 256.223 65.6074 256.398 65.4479 256.64C65.2929 256.881 65.1744 257.198 65.0924 257.59C65.0104 257.982 64.9693 258.458 64.9693 259.019V260.953C64.9693 261.4 64.9944 261.794 65.0445 262.136C65.0992 262.478 65.179 262.774 65.2838 263.024C65.3886 263.271 65.5162 263.473 65.6666 263.633C65.817 263.792 65.9902 263.911 66.1861 263.988C66.3867 264.061 66.6077 264.098 66.8492 264.098C67.1591 264.098 67.4303 264.038 67.6627 263.92C67.8951 263.801 68.0888 263.617 68.2437 263.366C68.4033 263.111 68.5217 262.785 68.5992 262.389C68.6767 261.988 68.7154 261.509 68.7154 260.953ZM71.8711 264.33C71.8711 264.116 71.9372 263.936 72.0693 263.79C72.2061 263.64 72.402 263.564 72.6572 263.564C72.9124 263.564 73.1061 263.64 73.2383 263.79C73.375 263.936 73.4434 264.116 73.4434 264.33C73.4434 264.54 73.375 264.717 73.2383 264.863C73.1061 265.009 72.9124 265.082 72.6572 265.082C72.402 265.082 72.2061 265.009 72.0693 264.863C71.9372 264.717 71.8711 264.54 71.8711 264.33ZM77.1049 260.263L76.0932 260.003L76.5922 255.047H81.6986V256.216H77.6654L77.3646 258.923C77.5469 258.818 77.7771 258.72 78.0551 258.629C78.3376 258.538 78.6612 258.492 79.0258 258.492C79.4861 258.492 79.8985 258.572 80.2631 258.731C80.6277 258.886 80.9376 259.11 81.1928 259.401C81.4525 259.693 81.6508 260.044 81.7875 260.454C81.9242 260.864 81.9926 261.322 81.9926 261.828C81.9926 262.307 81.9265 262.746 81.7943 263.147C81.6667 263.549 81.473 263.899 81.2133 264.2C80.9535 264.496 80.6254 264.727 80.2289 264.891C79.837 265.055 79.3744 265.137 78.8412 265.137C78.4402 265.137 78.0596 265.082 77.6996 264.973C77.3441 264.859 77.0251 264.688 76.7426 264.46C76.4646 264.228 76.2367 263.94 76.059 263.599C75.8858 263.252 75.7764 262.847 75.7309 262.382H76.934C76.9887 262.756 77.098 263.07 77.2621 263.325C77.4262 263.58 77.6404 263.774 77.9047 263.906C78.1736 264.034 78.4857 264.098 78.8412 264.098C79.142 264.098 79.4086 264.045 79.641 263.94C79.8734 263.836 80.0694 263.685 80.2289 263.489C80.3884 263.293 80.5092 263.056 80.5912 262.778C80.6778 262.5 80.7211 262.188 80.7211 261.842C80.7211 261.527 80.6778 261.236 80.5912 260.967C80.5046 260.698 80.3747 260.463 80.2016 260.263C80.0329 260.062 79.8256 259.907 79.5795 259.798C79.3334 259.684 79.0508 259.627 78.7318 259.627C78.308 259.627 77.9867 259.684 77.768 259.798C77.5538 259.912 77.3327 260.067 77.1049 260.263ZM86.2488 260.249V261.288H82.9129V260.249H86.2488ZM93.6975 259.23V260.748C93.6975 261.564 93.6245 262.252 93.4787 262.812C93.3329 263.373 93.1232 263.824 92.8498 264.166C92.5764 264.508 92.246 264.756 91.8586 264.911C91.4758 265.062 91.0428 265.137 90.5598 265.137C90.177 265.137 89.8238 265.089 89.5002 264.993C89.1766 264.897 88.885 264.745 88.6252 264.535C88.37 264.321 88.1512 264.043 87.9689 263.701C87.7867 263.359 87.6477 262.945 87.552 262.457C87.4562 261.969 87.4084 261.4 87.4084 260.748V259.23C87.4084 258.415 87.4813 257.731 87.6271 257.18C87.7775 256.628 87.9895 256.186 88.2629 255.854C88.5363 255.516 88.8645 255.275 89.2473 255.129C89.6346 254.983 90.0676 254.91 90.5461 254.91C90.9335 254.91 91.2889 254.958 91.6125 255.054C91.9406 255.145 92.2323 255.293 92.4875 255.498C92.7427 255.699 92.9592 255.967 93.1369 256.305C93.3192 256.637 93.4582 257.045 93.5539 257.528C93.6496 258.011 93.6975 258.579 93.6975 259.23ZM92.426 260.953V259.019C92.426 258.572 92.3986 258.18 92.3439 257.843C92.2938 257.501 92.2186 257.209 92.1184 256.968C92.0181 256.726 91.8905 256.53 91.7355 256.38C91.5852 256.229 91.4097 256.12 91.2092 256.052C91.0132 255.979 90.7922 255.942 90.5461 255.942C90.2453 255.942 89.9787 255.999 89.7463 256.113C89.5139 256.223 89.3179 256.398 89.1584 256.64C89.0034 256.881 88.885 257.198 88.8029 257.59C88.7209 257.982 88.6799 258.458 88.6799 259.019V260.953C88.6799 261.4 88.7049 261.794 88.7551 262.136C88.8098 262.478 88.8895 262.774 88.9943 263.024C89.0992 263.271 89.2268 263.473 89.3771 263.633C89.5275 263.792 89.7007 263.911 89.8967 263.988C90.0972 264.061 90.3182 264.098 90.5598 264.098C90.8697 264.098 91.1408 264.038 91.3732 263.92C91.6057 263.801 91.7993 263.617 91.9543 263.366C92.1138 263.111 92.2323 262.785 92.3098 262.389C92.3872 261.988 92.426 261.509 92.426 260.953ZM95.5816 264.33C95.5816 264.116 95.6477 263.936 95.7799 263.79C95.9166 263.64 96.1126 263.564 96.3678 263.564C96.623 263.564 96.8167 263.64 96.9488 263.79C97.0855 263.936 97.1539 264.116 97.1539 264.33C97.1539 264.54 97.0855 264.717 96.9488 264.863C96.8167 265.009 96.623 265.082 96.3678 265.082C96.1126 265.082 95.9166 265.009 95.7799 264.863C95.6477 264.717 95.5816 264.54 95.5816 264.33ZM100.815 260.263L99.8037 260.003L100.303 255.047H105.409V256.216H101.376L101.075 258.923C101.257 258.818 101.488 258.72 101.766 258.629C102.048 258.538 102.372 258.492 102.736 258.492C103.197 258.492 103.609 258.572 103.974 258.731C104.338 258.886 104.648 259.11 104.903 259.401C105.163 259.693 105.361 260.044 105.498 260.454C105.635 260.864 105.703 261.322 105.703 261.828C105.703 262.307 105.637 262.746 105.505 263.147C105.377 263.549 105.184 263.899 104.924 264.2C104.664 264.496 104.336 264.727 103.939 264.891C103.548 265.055 103.085 265.137 102.552 265.137C102.151 265.137 101.77 265.082 101.41 264.973C101.055 264.859 100.736 264.688 100.453 264.46C100.175 264.228 99.9473 263.94 99.7695 263.599C99.5964 263.252 99.487 262.847 99.4414 262.382H100.645C100.699 262.756 100.809 263.07 100.973 263.325C101.137 263.58 101.351 263.774 101.615 263.906C101.884 264.034 102.196 264.098 102.552 264.098C102.853 264.098 103.119 264.045 103.352 263.94C103.584 263.836 103.78 263.685 103.939 263.489C104.099 263.293 104.22 263.056 104.302 262.778C104.388 262.5 104.432 262.188 104.432 261.842C104.432 261.527 104.388 261.236 104.302 260.967C104.215 260.698 104.085 260.463 103.912 260.263C103.743 260.062 103.536 259.907 103.29 259.798C103.044 259.684 102.761 259.627 102.442 259.627C102.019 259.627 101.697 259.684 101.479 259.798C101.264 259.912 101.043 260.067 100.815 260.263Z" fill="#454551"/>
<path d="M35.3457 235H33.5234L33.5352 233.834H35.3457C35.873 233.834 36.3145 233.719 36.6699 233.488C37.0293 233.258 37.2988 232.928 37.4785 232.498C37.6621 232.068 37.7539 231.557 37.7539 230.963V230.5C37.7539 230.039 37.7012 229.631 37.5957 229.275C37.4941 228.92 37.3418 228.621 37.1387 228.379C36.9395 228.137 36.6934 227.953 36.4004 227.828C36.1113 227.703 35.7773 227.641 35.3984 227.641H33.4883V226.469H35.3984C35.9648 226.469 36.4824 226.564 36.9512 226.756C37.4199 226.943 37.8242 227.215 38.1641 227.57C38.5078 227.926 38.7715 228.352 38.9551 228.848C39.1387 229.344 39.2305 229.898 39.2305 230.512V230.963C39.2305 231.576 39.1387 232.131 38.9551 232.627C38.7715 233.123 38.5078 233.549 38.1641 233.904C37.8203 234.256 37.4102 234.527 36.9336 234.719C36.4609 234.906 35.9316 235 35.3457 235ZM34.3379 226.469V235H32.8672V226.469H34.3379ZM43.4613 235.117C42.9926 235.117 42.5687 235.041 42.1898 234.889C41.8148 234.732 41.4945 234.516 41.2289 234.238C40.9672 233.961 40.766 233.635 40.6254 233.26C40.4848 232.885 40.4145 232.48 40.4145 232.047V231.812C40.4145 231.316 40.4867 230.867 40.6312 230.465C40.7758 230.062 40.977 229.719 41.2348 229.434C41.4926 229.145 41.7973 228.924 42.1488 228.771C42.5004 228.619 42.8812 228.543 43.2914 228.543C43.7445 228.543 44.141 228.619 44.4809 228.771C44.8207 228.924 45.102 229.139 45.3246 229.416C45.5512 229.689 45.7191 230.016 45.8285 230.395C45.9418 230.773 45.9984 231.191 45.9984 231.648V232.252H41.1V231.238H44.6039V231.127C44.5961 230.873 44.5453 230.635 44.4516 230.412C44.3617 230.189 44.223 230.01 44.0355 229.873C43.848 229.736 43.598 229.668 43.2855 229.668C43.0512 229.668 42.8422 229.719 42.6586 229.82C42.4789 229.918 42.3285 230.061 42.2074 230.248C42.0863 230.436 41.9926 230.662 41.9262 230.928C41.8637 231.189 41.8324 231.484 41.8324 231.812V232.047C41.8324 232.324 41.8695 232.582 41.9437 232.82C42.0219 233.055 42.1352 233.26 42.2836 233.436C42.432 233.611 42.6117 233.75 42.8227 233.852C43.0336 233.949 43.2738 233.998 43.5434 233.998C43.8832 233.998 44.1859 233.93 44.4516 233.793C44.7172 233.656 44.9477 233.463 45.143 233.213L45.8871 233.934C45.7504 234.133 45.5727 234.324 45.3539 234.508C45.1352 234.688 44.8676 234.834 44.5512 234.947C44.2387 235.061 43.8754 235.117 43.4613 235.117ZM49.7898 233.992C50.0203 233.992 50.2273 233.947 50.4109 233.857C50.5984 233.764 50.7488 233.635 50.8621 233.471C50.9793 233.307 51.0437 233.117 51.0555 232.902H52.3855C52.3777 233.312 52.2566 233.686 52.0223 234.021C51.7879 234.357 51.4773 234.625 51.0906 234.824C50.7039 235.02 50.2762 235.117 49.8074 235.117C49.323 235.117 48.9012 235.035 48.5418 234.871C48.1824 234.703 47.8836 234.473 47.6453 234.18C47.407 233.887 47.2273 233.549 47.1062 233.166C46.9891 232.783 46.9305 232.373 46.9305 231.936V231.73C46.9305 231.293 46.9891 230.883 47.1062 230.5C47.2273 230.113 47.407 229.773 47.6453 229.48C47.8836 229.188 48.1824 228.959 48.5418 228.795C48.9012 228.627 49.3211 228.543 49.8016 228.543C50.3094 228.543 50.7547 228.645 51.1375 228.848C51.5203 229.047 51.8211 229.326 52.0398 229.686C52.2625 230.041 52.3777 230.455 52.3855 230.928H51.0555C51.0437 230.693 50.9852 230.482 50.8797 230.295C50.7781 230.104 50.6336 229.951 50.4461 229.838C50.2625 229.725 50.0418 229.668 49.784 229.668C49.4988 229.668 49.2625 229.727 49.075 229.844C48.8875 229.957 48.741 230.113 48.6355 230.312C48.5301 230.508 48.4539 230.729 48.407 230.975C48.3641 231.217 48.3426 231.469 48.3426 231.73V231.936C48.3426 232.197 48.3641 232.451 48.407 232.697C48.45 232.943 48.5242 233.164 48.6297 233.359C48.7391 233.551 48.8875 233.705 49.075 233.822C49.2625 233.936 49.5008 233.992 49.7898 233.992ZM55.0812 228.66V235H53.6633V228.66H55.0812ZM53.5695 226.996C53.5695 226.781 53.6398 226.604 53.7805 226.463C53.925 226.318 54.1242 226.246 54.3781 226.246C54.6281 226.246 54.8254 226.318 54.9699 226.463C55.1145 226.604 55.1867 226.781 55.1867 226.996C55.1867 227.207 55.1145 227.383 54.9699 227.523C54.8254 227.664 54.6281 227.734 54.3781 227.734C54.1242 227.734 53.925 227.664 53.7805 227.523C53.6398 227.383 53.5695 227.207 53.5695 226.996ZM58.1402 229.949V235H56.7281V228.66H58.0582L58.1402 229.949ZM57.9117 231.596L57.4312 231.59C57.4312 231.152 57.4859 230.748 57.5953 230.377C57.7047 230.006 57.8648 229.684 58.0758 229.41C58.2867 229.133 58.5484 228.92 58.8609 228.771C59.1773 228.619 59.5426 228.543 59.9566 228.543C60.2457 228.543 60.5094 228.586 60.7477 228.672C60.9898 228.754 61.1988 228.885 61.3746 229.064C61.5543 229.244 61.691 229.475 61.7848 229.756C61.8824 230.037 61.9312 230.377 61.9312 230.775V235H60.5191V230.898C60.5191 230.59 60.4723 230.348 60.3785 230.172C60.2887 229.996 60.1578 229.871 59.9859 229.797C59.818 229.719 59.6168 229.68 59.3824 229.68C59.1168 229.68 58.8902 229.73 58.7027 229.832C58.5191 229.934 58.3687 230.072 58.2516 230.248C58.1344 230.424 58.0484 230.627 57.9937 230.857C57.9391 231.088 57.9117 231.334 57.9117 231.596ZM61.8434 231.221L61.1812 231.367C61.1812 230.984 61.234 230.623 61.3395 230.283C61.4488 229.939 61.607 229.639 61.8141 229.381C62.025 229.119 62.2848 228.914 62.5934 228.766C62.902 228.617 63.2555 228.543 63.6539 228.543C63.9781 228.543 64.2672 228.588 64.5211 228.678C64.7789 228.764 64.9977 228.9 65.1773 229.088C65.357 229.275 65.4937 229.52 65.5875 229.82C65.6812 230.117 65.7281 230.477 65.7281 230.898V235H64.3102V230.893C64.3102 230.572 64.2633 230.324 64.1695 230.148C64.0797 229.973 63.9508 229.852 63.7828 229.785C63.6148 229.715 63.4137 229.68 63.1793 229.68C62.9605 229.68 62.7672 229.721 62.5992 229.803C62.4352 229.881 62.2965 229.992 62.1832 230.137C62.0699 230.277 61.984 230.439 61.9254 230.623C61.8707 230.807 61.8434 231.006 61.8434 231.221ZM70.8555 233.729V230.705C70.8555 230.479 70.8145 230.283 70.7324 230.119C70.6504 229.955 70.5254 229.828 70.3574 229.738C70.1934 229.648 69.9863 229.604 69.7363 229.604C69.5059 229.604 69.3066 229.643 69.1387 229.721C68.9707 229.799 68.8398 229.904 68.7461 230.037C68.6523 230.17 68.6055 230.32 68.6055 230.488H67.1992C67.1992 230.238 67.2598 229.996 67.3809 229.762C67.502 229.527 67.6777 229.318 67.9082 229.135C68.1387 228.951 68.4141 228.807 68.7344 228.701C69.0547 228.596 69.4141 228.543 69.8125 228.543C70.2891 228.543 70.7109 228.623 71.0781 228.783C71.4492 228.943 71.7402 229.186 71.9512 229.51C72.166 229.83 72.2734 230.232 72.2734 230.717V233.535C72.2734 233.824 72.293 234.084 72.332 234.314C72.375 234.541 72.4355 234.738 72.5137 234.906V235H71.0664C71 234.848 70.9473 234.654 70.9082 234.42C70.873 234.182 70.8555 233.951 70.8555 233.729ZM71.0605 231.145L71.0723 232.018H70.0586C69.7969 232.018 69.5664 232.043 69.3672 232.094C69.168 232.141 69.002 232.211 68.8691 232.305C68.7363 232.398 68.6367 232.512 68.5703 232.645C68.5039 232.777 68.4707 232.928 68.4707 233.096C68.4707 233.264 68.5098 233.418 68.5879 233.559C68.666 233.695 68.7793 233.803 68.9277 233.881C69.0801 233.959 69.2637 233.998 69.4785 233.998C69.7676 233.998 70.0195 233.939 70.2344 233.822C70.4531 233.701 70.625 233.555 70.75 233.383C70.875 233.207 70.9414 233.041 70.9492 232.885L71.4062 233.512C71.3594 233.672 71.2793 233.844 71.166 234.027C71.0527 234.211 70.9043 234.387 70.7207 234.555C70.541 234.719 70.3242 234.854 70.0703 234.959C69.8203 235.064 69.5312 235.117 69.2031 235.117C68.7891 235.117 68.4199 235.035 68.0957 234.871C67.7715 234.703 67.5176 234.479 67.334 234.197C67.1504 233.912 67.0586 233.59 67.0586 233.23C67.0586 232.895 67.1211 232.598 67.2461 232.34C67.375 232.078 67.5625 231.859 67.8086 231.684C68.0586 231.508 68.3633 231.375 68.7227 231.285C69.082 231.191 69.4922 231.145 69.9531 231.145H71.0605ZM75.3617 226V235H73.9437V226H75.3617ZM81.8195 233.594L83.2844 228.66H84.1867L83.9406 230.137L82.4641 235H81.6555L81.8195 233.594ZM80.9582 228.66L82.1008 233.617L82.1945 235H81.2922L79.5754 228.66H80.9582ZM85.5578 233.559L86.6652 228.66H88.0422L86.3312 235H85.4289L85.5578 233.559ZM84.3391 228.66L85.7863 233.535L85.968 235H85.1594L83.6652 230.131L83.4191 228.66H84.3391ZM90.6148 228.66V235H89.1969V228.66H90.6148ZM89.1031 226.996C89.1031 226.781 89.1734 226.604 89.3141 226.463C89.4586 226.318 89.6578 226.246 89.9117 226.246C90.1617 226.246 90.359 226.318 90.5035 226.463C90.648 226.604 90.7203 226.781 90.7203 226.996C90.7203 227.207 90.648 227.383 90.5035 227.523C90.359 227.664 90.1617 227.734 89.9117 227.734C89.6578 227.734 89.4586 227.664 89.3141 227.523C89.1734 227.383 89.1031 227.207 89.1031 226.996ZM95.168 228.66V229.691H91.5938V228.66H95.168ZM92.625 227.107H94.0371V233.248C94.0371 233.443 94.0645 233.594 94.1191 233.699C94.1777 233.801 94.2578 233.869 94.3594 233.904C94.4609 233.939 94.5801 233.957 94.7168 233.957C94.8145 233.957 94.9082 233.951 94.998 233.939C95.0879 233.928 95.1602 233.916 95.2148 233.904L95.2207 234.982C95.1035 235.018 94.9668 235.049 94.8105 235.076C94.6582 235.104 94.4824 235.117 94.2832 235.117C93.959 235.117 93.6719 235.061 93.4219 234.947C93.1719 234.83 92.9766 234.641 92.8359 234.379C92.6953 234.117 92.625 233.77 92.625 233.336V227.107ZM97.7523 226V235H96.3461V226H97.7523ZM97.5062 231.596L97.0492 231.59C97.0531 231.152 97.1137 230.748 97.2309 230.377C97.352 230.006 97.5199 229.684 97.7348 229.41C97.9535 229.133 98.2152 228.92 98.5199 228.771C98.8246 228.619 99.1625 228.543 99.5336 228.543C99.8461 228.543 100.127 228.586 100.377 228.672C100.631 228.758 100.85 228.896 101.034 229.088C101.217 229.275 101.356 229.521 101.45 229.826C101.547 230.127 101.596 230.494 101.596 230.928V235H100.178V230.916C100.178 230.611 100.133 230.369 100.043 230.189C99.9574 230.01 99.8305 229.881 99.6625 229.803C99.4945 229.721 99.2895 229.68 99.0473 229.68C98.7934 229.68 98.5687 229.73 98.3734 229.832C98.182 229.934 98.0219 230.072 97.893 230.248C97.7641 230.424 97.6664 230.627 97.6 230.857C97.5375 231.088 97.5062 231.334 97.5062 231.596ZM111.991 230.031V231.197H107.462V230.031H111.991ZM107.825 226.469V235H106.355V226.469H107.825ZM113.122 226.469V235H111.657V226.469H113.122ZM116.673 234.309L118.396 228.66H119.908L117.365 235.967C117.306 236.123 117.23 236.293 117.136 236.477C117.043 236.66 116.92 236.834 116.767 236.998C116.619 237.166 116.433 237.301 116.211 237.402C115.988 237.508 115.718 237.561 115.402 237.561C115.277 237.561 115.156 237.549 115.039 237.525C114.925 237.506 114.818 237.484 114.716 237.461L114.711 236.383C114.75 236.387 114.796 236.391 114.851 236.395C114.91 236.398 114.957 236.4 114.992 236.4C115.226 236.4 115.421 236.371 115.578 236.312C115.734 236.258 115.861 236.168 115.959 236.043C116.06 235.918 116.146 235.75 116.216 235.539L116.673 234.309ZM115.701 228.66L117.207 233.406L117.459 234.895L116.48 235.146L114.177 228.66H115.701ZM122.234 229.879V237.438H120.822V228.66H122.123L122.234 229.879ZM126.365 231.771V231.895C126.365 232.355 126.311 232.783 126.201 233.178C126.096 233.568 125.938 233.91 125.727 234.203C125.52 234.492 125.264 234.717 124.959 234.877C124.654 235.037 124.303 235.117 123.904 235.117C123.51 235.117 123.164 235.045 122.867 234.9C122.574 234.752 122.326 234.543 122.123 234.273C121.92 234.004 121.756 233.688 121.631 233.324C121.51 232.957 121.424 232.555 121.373 232.117V231.643C121.424 231.178 121.51 230.756 121.631 230.377C121.756 229.998 121.92 229.672 122.123 229.398C122.326 229.125 122.574 228.914 122.867 228.766C123.16 228.617 123.502 228.543 123.893 228.543C124.291 228.543 124.645 228.621 124.953 228.777C125.262 228.93 125.521 229.148 125.732 229.434C125.943 229.715 126.102 230.055 126.207 230.453C126.312 230.848 126.365 231.287 126.365 231.771ZM124.953 231.895V231.771C124.953 231.479 124.926 231.207 124.871 230.957C124.816 230.703 124.73 230.48 124.613 230.289C124.496 230.098 124.346 229.949 124.162 229.844C123.982 229.734 123.766 229.68 123.512 229.68C123.262 229.68 123.047 229.723 122.867 229.809C122.688 229.891 122.537 230.006 122.416 230.154C122.295 230.303 122.201 230.477 122.135 230.676C122.068 230.871 122.021 231.084 121.994 231.314V232.451C122.041 232.732 122.121 232.99 122.234 233.225C122.348 233.459 122.508 233.646 122.715 233.787C122.926 233.924 123.195 233.992 123.523 233.992C123.777 233.992 123.994 233.938 124.174 233.828C124.354 233.719 124.5 233.568 124.613 233.377C124.73 233.182 124.816 232.957 124.871 232.703C124.926 232.449 124.953 232.18 124.953 231.895ZM129.061 226V235H127.655V226H129.061ZM128.815 231.596L128.358 231.59C128.362 231.152 128.422 230.748 128.539 230.377C128.661 230.006 128.829 229.684 129.043 229.41C129.262 229.133 129.524 228.92 129.829 228.771C130.133 228.619 130.471 228.543 130.842 228.543C131.155 228.543 131.436 228.586 131.686 228.672C131.94 228.758 132.159 228.896 132.342 229.088C132.526 229.275 132.664 229.521 132.758 229.826C132.856 230.127 132.905 230.494 132.905 230.928V235H131.487V230.916C131.487 230.611 131.442 230.369 131.352 230.189C131.266 230.01 131.139 229.881 130.971 229.803C130.803 229.721 130.598 229.68 130.356 229.68C130.102 229.68 129.877 229.73 129.682 229.832C129.491 229.934 129.33 230.072 129.202 230.248C129.073 230.424 128.975 230.627 128.909 230.857C128.846 231.088 128.815 231.334 128.815 231.596ZM137.229 235.117C136.761 235.117 136.337 235.041 135.958 234.889C135.583 234.732 135.262 234.516 134.997 234.238C134.735 233.961 134.534 233.635 134.393 233.26C134.253 232.885 134.182 232.48 134.182 232.047V231.812C134.182 231.316 134.255 230.867 134.399 230.465C134.544 230.062 134.745 229.719 135.003 229.434C135.261 229.145 135.565 228.924 135.917 228.771C136.268 228.619 136.649 228.543 137.059 228.543C137.512 228.543 137.909 228.619 138.249 228.771C138.589 228.924 138.87 229.139 139.093 229.416C139.319 229.689 139.487 230.016 139.596 230.395C139.71 230.773 139.766 231.191 139.766 231.648V232.252H134.868V231.238H138.372V231.127C138.364 230.873 138.313 230.635 138.22 230.412C138.13 230.189 137.991 230.01 137.804 229.873C137.616 229.736 137.366 229.668 137.054 229.668C136.819 229.668 136.61 229.719 136.427 229.82C136.247 229.918 136.096 230.061 135.975 230.248C135.854 230.436 135.761 230.662 135.694 230.928C135.632 231.189 135.6 231.484 135.6 231.812V232.047C135.6 232.324 135.637 232.582 135.712 232.82C135.79 233.055 135.903 233.26 136.052 233.436C136.2 233.611 136.38 233.75 136.591 233.852C136.802 233.949 137.042 233.998 137.311 233.998C137.651 233.998 137.954 233.93 138.22 233.793C138.485 233.656 138.716 233.463 138.911 233.213L139.655 233.934C139.518 234.133 139.341 234.324 139.122 234.508C138.903 234.688 138.636 234.834 138.319 234.947C138.007 235.061 137.643 235.117 137.229 235.117ZM142.368 230.014V235H140.956V228.66H142.286L142.368 230.014ZM142.116 231.596L141.659 231.59C141.663 231.141 141.726 230.729 141.847 230.354C141.972 229.979 142.144 229.656 142.363 229.387C142.585 229.117 142.851 228.91 143.159 228.766C143.468 228.617 143.812 228.543 144.191 228.543C144.495 228.543 144.771 228.586 145.017 228.672C145.267 228.754 145.48 228.889 145.655 229.076C145.835 229.264 145.972 229.508 146.066 229.809C146.159 230.105 146.206 230.471 146.206 230.904V235H144.788V230.898C144.788 230.594 144.743 230.354 144.654 230.178C144.568 229.998 144.441 229.871 144.273 229.797C144.109 229.719 143.904 229.68 143.657 229.68C143.415 229.68 143.198 229.73 143.007 229.832C142.816 229.934 142.654 230.072 142.521 230.248C142.392 230.424 142.292 230.627 142.222 230.857C142.152 231.088 142.116 231.334 142.116 231.596Z" fill="#171725"/>
<path d="M17 94C17 88.4772 21.4772 84 27 84H158V166H17V94Z" fill="#FAFAFB"/>
<rect x="32.5" y="121.5" width="109.75" height="29" fill="white" stroke="#E2E2EA"/>
<path d="M44.1846 130.992V141H42.9199V132.571L40.3701 133.501V132.359L43.9863 130.992H44.1846ZM54.2514 135.23V136.748C54.2514 137.564 54.1785 138.252 54.0326 138.812C53.8868 139.373 53.6771 139.824 53.4037 140.166C53.1303 140.508 52.7999 140.756 52.4125 140.911C52.0297 141.062 51.5967 141.137 51.1137 141.137C50.7309 141.137 50.3777 141.089 50.0541 140.993C49.7305 140.897 49.4389 140.745 49.1791 140.535C48.9239 140.321 48.7051 140.043 48.5229 139.701C48.3406 139.359 48.2016 138.945 48.1059 138.457C48.0102 137.969 47.9623 137.4 47.9623 136.748V135.23C47.9623 134.415 48.0352 133.731 48.1811 133.18C48.3314 132.628 48.5434 132.186 48.8168 131.854C49.0902 131.516 49.4184 131.275 49.8012 131.129C50.1885 130.983 50.6215 130.91 51.1 130.91C51.4874 130.91 51.8428 130.958 52.1664 131.054C52.4945 131.145 52.7862 131.293 53.0414 131.498C53.2966 131.699 53.5131 131.967 53.6908 132.305C53.8731 132.637 54.0121 133.045 54.1078 133.528C54.2035 134.011 54.2514 134.579 54.2514 135.23ZM52.9799 136.953V135.019C52.9799 134.572 52.9525 134.18 52.8979 133.843C52.8477 133.501 52.7725 133.209 52.6723 132.968C52.572 132.726 52.4444 132.53 52.2895 132.38C52.1391 132.229 51.9636 132.12 51.7631 132.052C51.5671 131.979 51.3461 131.942 51.1 131.942C50.7992 131.942 50.5326 131.999 50.3002 132.113C50.0678 132.223 49.8718 132.398 49.7123 132.64C49.5574 132.881 49.4389 133.198 49.3568 133.59C49.2748 133.982 49.2338 134.458 49.2338 135.019V136.953C49.2338 137.4 49.2589 137.794 49.309 138.136C49.3637 138.478 49.4434 138.774 49.5482 139.024C49.6531 139.271 49.7807 139.473 49.9311 139.633C50.0814 139.792 50.2546 139.911 50.4506 139.988C50.6511 140.061 50.8721 140.098 51.1137 140.098C51.4236 140.098 51.6947 140.038 51.9271 139.92C52.1596 139.801 52.3533 139.617 52.5082 139.366C52.6677 139.111 52.7862 138.785 52.8637 138.389C52.9411 137.988 52.9799 137.509 52.9799 136.953ZM60.1346 130.992V141H58.8699V132.571L56.3201 133.501V132.359L59.9363 130.992H60.1346Z" fill="#454551"/>
<path d="M35.0059 109.084L36.7051 102.469H37.5957L37.4961 104.174L35.6797 111H34.7539L35.0059 109.084ZM33.7344 102.469L35.1113 109.031L35.2344 111H34.25L32.2754 102.469H33.7344ZM39.5234 109.014L40.8828 102.469H42.3477L40.373 111H39.3887L39.5234 109.014ZM37.9414 102.469L39.623 109.102L39.8691 111H38.9434L37.1562 104.174L37.0625 102.469H37.9414ZM44.9086 104.66V111H43.4906V104.66H44.9086ZM43.3969 102.996C43.3969 102.781 43.4672 102.604 43.6078 102.463C43.7523 102.318 43.9516 102.246 44.2055 102.246C44.4555 102.246 44.6527 102.318 44.7973 102.463C44.9418 102.604 45.0141 102.781 45.0141 102.996C45.0141 103.207 44.9418 103.383 44.7973 103.523C44.6527 103.664 44.4555 103.734 44.2055 103.734C43.9516 103.734 43.7523 103.664 43.6078 103.523C43.4672 103.383 43.3969 103.207 43.3969 102.996ZM49.4617 104.66V105.691H45.8875V104.66H49.4617ZM46.9187 103.107H48.3309V109.248C48.3309 109.443 48.3582 109.594 48.4129 109.699C48.4715 109.801 48.5516 109.869 48.6531 109.904C48.7547 109.939 48.8738 109.957 49.0105 109.957C49.1082 109.957 49.202 109.951 49.2918 109.939C49.3816 109.928 49.4539 109.916 49.5086 109.904L49.5145 110.982C49.3973 111.018 49.2605 111.049 49.1043 111.076C48.952 111.104 48.7762 111.117 48.577 111.117C48.2527 111.117 47.9656 111.061 47.7156 110.947C47.4656 110.83 47.2703 110.641 47.1297 110.379C46.9891 110.117 46.9187 109.77 46.9187 109.336V103.107ZM52.0461 102V111H50.6398V102H52.0461ZM51.8 107.596L51.343 107.59C51.3469 107.152 51.4074 106.748 51.5246 106.377C51.6457 106.006 51.8137 105.684 52.0285 105.41C52.2473 105.133 52.509 104.92 52.8137 104.771C53.1184 104.619 53.4562 104.543 53.8273 104.543C54.1398 104.543 54.4211 104.586 54.6711 104.672C54.925 104.758 55.1437 104.896 55.3273 105.088C55.5109 105.275 55.6496 105.521 55.7434 105.826C55.841 106.127 55.8898 106.494 55.8898 106.928V111H54.4719V106.916C54.4719 106.611 54.427 106.369 54.3371 106.189C54.2512 106.01 54.1242 105.881 53.9562 105.803C53.7883 105.721 53.5832 105.68 53.341 105.68C53.0871 105.68 52.8625 105.73 52.6672 105.832C52.4758 105.934 52.3156 106.072 52.1867 106.248C52.0578 106.424 51.9602 106.627 51.8937 106.857C51.8312 107.088 51.8 107.334 51.8 107.596ZM57.15 107.9V107.766C57.15 107.309 57.2164 106.885 57.3492 106.494C57.482 106.1 57.6734 105.758 57.9234 105.469C58.1773 105.176 58.4859 104.949 58.8492 104.789C59.2164 104.625 59.6305 104.543 60.0914 104.543C60.5562 104.543 60.9703 104.625 61.3336 104.789C61.7008 104.949 62.0113 105.176 62.2652 105.469C62.5191 105.758 62.7125 106.1 62.8453 106.494C62.9781 106.885 63.0445 107.309 63.0445 107.766V107.9C63.0445 108.357 62.9781 108.781 62.8453 109.172C62.7125 109.562 62.5191 109.904 62.2652 110.197C62.0113 110.486 61.7027 110.713 61.3395 110.877C60.9762 111.037 60.5641 111.117 60.1031 111.117C59.6383 111.117 59.2223 111.037 58.8551 110.877C58.4918 110.713 58.1832 110.486 57.9293 110.197C57.6754 109.904 57.482 109.562 57.3492 109.172C57.2164 108.781 57.15 108.357 57.15 107.9ZM58.5621 107.766V107.9C58.5621 108.186 58.5914 108.455 58.65 108.709C58.7086 108.963 58.8004 109.186 58.9254 109.377C59.0504 109.568 59.2105 109.719 59.4059 109.828C59.6012 109.938 59.8336 109.992 60.1031 109.992C60.3648 109.992 60.5914 109.938 60.7828 109.828C60.9781 109.719 61.1383 109.568 61.2633 109.377C61.3883 109.186 61.4801 108.963 61.5387 108.709C61.6012 108.455 61.6324 108.186 61.6324 107.9V107.766C61.6324 107.484 61.6012 107.219 61.5387 106.969C61.4801 106.715 61.3863 106.49 61.2574 106.295C61.1324 106.1 60.9723 105.947 60.777 105.838C60.5855 105.725 60.357 105.668 60.0914 105.668C59.8258 105.668 59.5953 105.725 59.4 105.838C59.2086 105.947 59.0504 106.1 58.9254 106.295C58.8004 106.49 58.7086 106.715 58.65 106.969C58.5914 107.219 58.5621 107.484 58.5621 107.766ZM68.1426 109.506V104.66H69.5605V111H68.2246L68.1426 109.506ZM68.3418 108.188L68.8164 108.176C68.8164 108.602 68.7695 108.994 68.6758 109.354C68.582 109.709 68.4375 110.02 68.2422 110.285C68.0469 110.547 67.7969 110.752 67.4922 110.9C67.1875 111.045 66.8223 111.117 66.3965 111.117C66.0879 111.117 65.8047 111.072 65.5469 110.982C65.2891 110.893 65.0664 110.754 64.8789 110.566C64.6953 110.379 64.5527 110.135 64.4512 109.834C64.3496 109.533 64.2988 109.174 64.2988 108.756V104.66H65.7109V108.768C65.7109 108.998 65.7383 109.191 65.793 109.348C65.8477 109.5 65.9219 109.623 66.0156 109.717C66.1094 109.811 66.2188 109.877 66.3438 109.916C66.4688 109.955 66.6016 109.975 66.7422 109.975C67.1445 109.975 67.4609 109.896 67.6914 109.74C67.9258 109.58 68.0918 109.365 68.1895 109.096C68.291 108.826 68.3418 108.523 68.3418 108.188ZM74.0141 104.66V105.691H70.4398V104.66H74.0141ZM71.4711 103.107H72.8832V109.248C72.8832 109.443 72.9105 109.594 72.9652 109.699C73.0238 109.801 73.1039 109.869 73.2055 109.904C73.307 109.939 73.4262 109.957 73.5629 109.957C73.6605 109.957 73.7543 109.951 73.8441 109.939C73.934 109.928 74.0062 109.916 74.0609 109.904L74.0668 110.982C73.9496 111.018 73.8129 111.049 73.6566 111.076C73.5043 111.104 73.3285 111.117 73.1293 111.117C72.8051 111.117 72.518 111.061 72.268 110.947C72.018 110.83 71.8227 110.641 71.682 110.379C71.5414 110.117 71.4711 109.77 71.4711 109.336V103.107ZM82.9211 108.803C82.9211 108.627 82.8937 108.471 82.8391 108.334C82.7883 108.197 82.6965 108.072 82.5637 107.959C82.4309 107.846 82.2434 107.736 82.0012 107.631C81.7629 107.521 81.4582 107.41 81.0871 107.297C80.6809 107.172 80.3059 107.033 79.9621 106.881C79.6223 106.725 79.3254 106.545 79.0715 106.342C78.8176 106.135 78.6203 105.898 78.4797 105.633C78.3391 105.363 78.2687 105.053 78.2687 104.701C78.2687 104.354 78.341 104.037 78.4855 103.752C78.634 103.467 78.843 103.221 79.1125 103.014C79.3859 102.803 79.7082 102.641 80.0793 102.527C80.4504 102.41 80.8605 102.352 81.3098 102.352C81.9426 102.352 82.4875 102.469 82.9445 102.703C83.4055 102.938 83.759 103.252 84.0051 103.646C84.2551 104.041 84.3801 104.477 84.3801 104.953H82.9211C82.9211 104.672 82.8605 104.424 82.7395 104.209C82.6223 103.99 82.4426 103.818 82.2004 103.693C81.9621 103.568 81.6594 103.506 81.2922 103.506C80.9445 103.506 80.6555 103.559 80.425 103.664C80.1945 103.77 80.0227 103.912 79.9094 104.092C79.7961 104.271 79.7395 104.475 79.7395 104.701C79.7395 104.861 79.7766 105.008 79.8508 105.141C79.925 105.27 80.0383 105.391 80.1906 105.504C80.343 105.613 80.5344 105.717 80.7648 105.814C80.9953 105.912 81.2668 106.006 81.5793 106.096C82.052 106.236 82.4641 106.393 82.8156 106.564C83.1672 106.732 83.4602 106.924 83.6945 107.139C83.9289 107.354 84.1047 107.598 84.2219 107.871C84.3391 108.141 84.3977 108.447 84.3977 108.791C84.3977 109.15 84.3254 109.475 84.1809 109.764C84.0363 110.049 83.8293 110.293 83.5598 110.496C83.2941 110.695 82.9738 110.85 82.5988 110.959C82.2277 111.064 81.8137 111.117 81.3566 111.117C80.9465 111.117 80.5422 111.062 80.1437 110.953C79.7492 110.844 79.3898 110.678 79.0656 110.455C78.7414 110.229 78.4836 109.947 78.2922 109.611C78.1008 109.271 78.0051 108.875 78.0051 108.422H79.4758C79.4758 108.699 79.5227 108.936 79.6164 109.131C79.7141 109.326 79.8488 109.486 80.0207 109.611C80.1926 109.732 80.3918 109.822 80.6184 109.881C80.8488 109.939 81.0949 109.969 81.3566 109.969C81.7004 109.969 81.9875 109.92 82.218 109.822C82.4523 109.725 82.6281 109.588 82.7453 109.412C82.8625 109.236 82.9211 109.033 82.9211 108.803ZM87.0758 105.879V113.438H85.6637V104.66H86.9645L87.0758 105.879ZM91.2066 107.771V107.895C91.2066 108.355 91.152 108.783 91.0426 109.178C90.9371 109.568 90.7789 109.91 90.568 110.203C90.3609 110.492 90.1051 110.717 89.8004 110.877C89.4957 111.037 89.1441 111.117 88.7457 111.117C88.3512 111.117 88.0055 111.045 87.7086 110.9C87.4156 110.752 87.1676 110.543 86.9645 110.273C86.7613 110.004 86.5973 109.688 86.4723 109.324C86.3512 108.957 86.2652 108.555 86.2145 108.117V107.643C86.2652 107.178 86.3512 106.756 86.4723 106.377C86.5973 105.998 86.7613 105.672 86.9645 105.398C87.1676 105.125 87.4156 104.914 87.7086 104.766C88.0016 104.617 88.3434 104.543 88.734 104.543C89.1324 104.543 89.4859 104.621 89.7945 104.777C90.1031 104.93 90.3629 105.148 90.5738 105.434C90.7848 105.715 90.943 106.055 91.0484 106.453C91.1539 106.848 91.2066 107.287 91.2066 107.771ZM89.7945 107.895V107.771C89.7945 107.479 89.7672 107.207 89.7125 106.957C89.6578 106.703 89.5719 106.48 89.4547 106.289C89.3375 106.098 89.1871 105.949 89.0035 105.844C88.8238 105.734 88.607 105.68 88.3531 105.68C88.1031 105.68 87.8883 105.723 87.7086 105.809C87.5289 105.891 87.3785 106.006 87.2574 106.154C87.1363 106.303 87.0426 106.477 86.9762 106.676C86.9098 106.871 86.8629 107.084 86.8355 107.314V108.451C86.8824 108.732 86.9625 108.99 87.0758 109.225C87.1891 109.459 87.3492 109.646 87.5563 109.787C87.7672 109.924 88.0367 109.992 88.3648 109.992C88.6188 109.992 88.8355 109.938 89.0152 109.828C89.1949 109.719 89.3414 109.568 89.4547 109.377C89.5719 109.182 89.6578 108.957 89.7125 108.703C89.7672 108.449 89.7945 108.18 89.7945 107.895ZM96.082 109.729V106.705C96.082 106.479 96.041 106.283 95.959 106.119C95.877 105.955 95.752 105.828 95.584 105.738C95.4199 105.648 95.2129 105.604 94.9629 105.604C94.7324 105.604 94.5332 105.643 94.3652 105.721C94.1973 105.799 94.0664 105.904 93.9727 106.037C93.8789 106.17 93.832 106.32 93.832 106.488H92.4258C92.4258 106.238 92.4863 105.996 92.6074 105.762C92.7285 105.527 92.9043 105.318 93.1348 105.135C93.3652 104.951 93.6406 104.807 93.9609 104.701C94.2812 104.596 94.6406 104.543 95.0391 104.543C95.5156 104.543 95.9375 104.623 96.3047 104.783C96.6758 104.943 96.9668 105.186 97.1777 105.51C97.3926 105.83 97.5 106.232 97.5 106.717V109.535C97.5 109.824 97.5195 110.084 97.5586 110.314C97.6016 110.541 97.6621 110.738 97.7402 110.906V111H96.293C96.2266 110.848 96.1738 110.654 96.1348 110.42C96.0996 110.182 96.082 109.951 96.082 109.729ZM96.2871 107.145L96.2988 108.018H95.2852C95.0234 108.018 94.793 108.043 94.5938 108.094C94.3945 108.141 94.2285 108.211 94.0957 108.305C93.9629 108.398 93.8633 108.512 93.7969 108.645C93.7305 108.777 93.6973 108.928 93.6973 109.096C93.6973 109.264 93.7363 109.418 93.8145 109.559C93.8926 109.695 94.0059 109.803 94.1543 109.881C94.3066 109.959 94.4902 109.998 94.7051 109.998C94.9941 109.998 95.2461 109.939 95.4609 109.822C95.6797 109.701 95.8516 109.555 95.9766 109.383C96.1016 109.207 96.168 109.041 96.1758 108.885L96.6328 109.512C96.5859 109.672 96.5059 109.844 96.3926 110.027C96.2793 110.211 96.1309 110.387 95.9473 110.555C95.7676 110.719 95.5508 110.854 95.2969 110.959C95.0469 111.064 94.7578 111.117 94.4297 111.117C94.0156 111.117 93.6465 111.035 93.3223 110.871C92.998 110.703 92.7441 110.479 92.5605 110.197C92.377 109.912 92.2852 109.59 92.2852 109.23C92.2852 108.895 92.3477 108.598 92.4727 108.34C92.6016 108.078 92.7891 107.859 93.0352 107.684C93.2852 107.508 93.5898 107.375 93.9492 107.285C94.3086 107.191 94.7188 107.145 95.1797 107.145H96.2871ZM101.666 109.992C101.897 109.992 102.104 109.947 102.287 109.857C102.475 109.764 102.625 109.635 102.739 109.471C102.856 109.307 102.92 109.117 102.932 108.902H104.262C104.254 109.312 104.133 109.686 103.899 110.021C103.664 110.357 103.354 110.625 102.967 110.824C102.58 111.02 102.153 111.117 101.684 111.117C101.2 111.117 100.778 111.035 100.418 110.871C100.059 110.703 99.7602 110.473 99.5219 110.18C99.2836 109.887 99.1039 109.549 98.9828 109.166C98.8656 108.783 98.807 108.373 98.807 107.936V107.73C98.807 107.293 98.8656 106.883 98.9828 106.5C99.1039 106.113 99.2836 105.773 99.5219 105.48C99.7602 105.188 100.059 104.959 100.418 104.795C100.778 104.627 101.198 104.543 101.678 104.543C102.186 104.543 102.631 104.645 103.014 104.848C103.397 105.047 103.698 105.326 103.916 105.686C104.139 106.041 104.254 106.455 104.262 106.928H102.932C102.92 106.693 102.862 106.482 102.756 106.295C102.655 106.104 102.51 105.951 102.323 105.838C102.139 105.725 101.918 105.668 101.661 105.668C101.375 105.668 101.139 105.727 100.952 105.844C100.764 105.957 100.618 106.113 100.512 106.312C100.407 106.508 100.33 106.729 100.284 106.975C100.241 107.217 100.219 107.469 100.219 107.73V107.936C100.219 108.197 100.241 108.451 100.284 108.697C100.327 108.943 100.401 109.164 100.506 109.359C100.616 109.551 100.764 109.705 100.952 109.822C101.139 109.936 101.377 109.992 101.666 109.992ZM108.241 111.117C107.772 111.117 107.348 111.041 106.97 110.889C106.595 110.732 106.274 110.516 106.009 110.238C105.747 109.961 105.546 109.635 105.405 109.26C105.264 108.885 105.194 108.48 105.194 108.047V107.812C105.194 107.316 105.266 106.867 105.411 106.465C105.555 106.062 105.757 105.719 106.014 105.434C106.272 105.145 106.577 104.924 106.929 104.771C107.28 104.619 107.661 104.543 108.071 104.543C108.524 104.543 108.921 104.619 109.261 104.771C109.6 104.924 109.882 105.139 110.104 105.416C110.331 105.689 110.499 106.016 110.608 106.395C110.721 106.773 110.778 107.191 110.778 107.648V108.252H105.88V107.238H109.384V107.127C109.376 106.873 109.325 106.635 109.231 106.412C109.141 106.189 109.003 106.01 108.815 105.873C108.628 105.736 108.378 105.668 108.065 105.668C107.831 105.668 107.622 105.719 107.438 105.82C107.259 105.918 107.108 106.061 106.987 106.248C106.866 106.436 106.772 106.662 106.706 106.928C106.643 107.189 106.612 107.484 106.612 107.812V108.047C106.612 108.324 106.649 108.582 106.723 108.82C106.802 109.055 106.915 109.26 107.063 109.436C107.212 109.611 107.391 109.75 107.602 109.852C107.813 109.949 108.054 109.998 108.323 109.998C108.663 109.998 108.966 109.93 109.231 109.793C109.497 109.656 109.727 109.463 109.923 109.213L110.667 109.934C110.53 110.133 110.352 110.324 110.134 110.508C109.915 110.688 109.647 110.834 109.331 110.947C109.018 111.061 108.655 111.117 108.241 111.117Z" fill="#171725"/>
<path d="M158 84H289C294.523 84 299 88.4772 299 94V156C299 161.523 294.523 166 289 166H158V84Z" fill="#F1F1F5"/>
<rect x="173.5" y="121.5" width="109.75" height="29" fill="white" stroke="#E2E2EA"/>
<path d="M185.185 130.992V141H183.92V132.571L181.37 133.501V132.359L184.986 130.992H185.185ZM191.772 136.249V137.288H188.436V136.249H191.772ZM199.221 135.23V136.748C199.221 137.564 199.148 138.252 199.002 138.812C198.856 139.373 198.646 139.824 198.373 140.166C198.099 140.508 197.769 140.756 197.382 140.911C196.999 141.062 196.566 141.137 196.083 141.137C195.7 141.137 195.347 141.089 195.023 140.993C194.7 140.897 194.408 140.745 194.148 140.535C193.893 140.321 193.674 140.043 193.492 139.701C193.31 139.359 193.171 138.945 193.075 138.457C192.979 137.969 192.931 137.4 192.931 136.748V135.23C192.931 134.415 193.004 133.731 193.15 133.18C193.301 132.628 193.512 132.186 193.786 131.854C194.059 131.516 194.387 131.275 194.77 131.129C195.158 130.983 195.591 130.91 196.069 130.91C196.457 130.91 196.812 130.958 197.136 131.054C197.464 131.145 197.755 131.293 198.011 131.498C198.266 131.699 198.482 131.967 198.66 132.305C198.842 132.637 198.981 133.045 199.077 133.528C199.173 134.011 199.221 134.579 199.221 135.23ZM197.949 136.953V135.019C197.949 134.572 197.922 134.18 197.867 133.843C197.817 133.501 197.742 133.209 197.641 132.968C197.541 132.726 197.414 132.53 197.259 132.38C197.108 132.229 196.933 132.12 196.732 132.052C196.536 131.979 196.315 131.942 196.069 131.942C195.768 131.942 195.502 131.999 195.269 132.113C195.037 132.223 194.841 132.398 194.681 132.64C194.526 132.881 194.408 133.198 194.326 133.59C194.244 133.982 194.203 134.458 194.203 135.019V136.953C194.203 137.4 194.228 137.794 194.278 138.136C194.333 138.478 194.413 138.774 194.517 139.024C194.622 139.271 194.75 139.473 194.9 139.633C195.051 139.792 195.224 139.911 195.42 139.988C195.62 140.061 195.841 140.098 196.083 140.098C196.393 140.098 196.664 140.038 196.896 139.92C197.129 139.801 197.322 139.617 197.477 139.366C197.637 139.111 197.755 138.785 197.833 138.389C197.91 137.988 197.949 137.509 197.949 136.953ZM203.716 136.249V137.288H200.38V136.249H203.716ZM209.073 130.992V141H207.808V132.571L205.258 133.501V132.359L208.875 130.992H209.073Z" fill="#454551"/>
<path d="M176.006 109.084L177.705 102.469H178.596L178.496 104.174L176.68 111H175.754L176.006 109.084ZM174.734 102.469L176.111 109.031L176.234 111H175.25L173.275 102.469H174.734ZM180.523 109.014L181.883 102.469H183.348L181.373 111H180.389L180.523 109.014ZM178.941 102.469L180.623 109.102L180.869 111H179.943L178.156 104.174L178.062 102.469H178.941ZM185.909 104.66V111H184.491V104.66H185.909ZM184.397 102.996C184.397 102.781 184.467 102.604 184.608 102.463C184.752 102.318 184.952 102.246 185.205 102.246C185.455 102.246 185.653 102.318 185.797 102.463C185.942 102.604 186.014 102.781 186.014 102.996C186.014 103.207 185.942 103.383 185.797 103.523C185.653 103.664 185.455 103.734 185.205 103.734C184.952 103.734 184.752 103.664 184.608 103.523C184.467 103.383 184.397 103.207 184.397 102.996ZM190.462 104.66V105.691H186.887V104.66H190.462ZM187.919 103.107H189.331V109.248C189.331 109.443 189.358 109.594 189.413 109.699C189.471 109.801 189.552 109.869 189.653 109.904C189.755 109.939 189.874 109.957 190.011 109.957C190.108 109.957 190.202 109.951 190.292 109.939C190.382 109.928 190.454 109.916 190.509 109.904L190.514 110.982C190.397 111.018 190.261 111.049 190.104 111.076C189.952 111.104 189.776 111.117 189.577 111.117C189.253 111.117 188.966 111.061 188.716 110.947C188.466 110.83 188.27 110.641 188.13 110.379C187.989 110.117 187.919 109.77 187.919 109.336V103.107ZM193.046 102V111H191.64V102H193.046ZM192.8 107.596L192.343 107.59C192.347 107.152 192.407 106.748 192.525 106.377C192.646 106.006 192.814 105.684 193.029 105.41C193.247 105.133 193.509 104.92 193.814 104.771C194.118 104.619 194.456 104.543 194.827 104.543C195.14 104.543 195.421 104.586 195.671 104.672C195.925 104.758 196.144 104.896 196.327 105.088C196.511 105.275 196.65 105.521 196.743 105.826C196.841 106.127 196.89 106.494 196.89 106.928V111H195.472V106.916C195.472 106.611 195.427 106.369 195.337 106.189C195.251 106.01 195.124 105.881 194.956 105.803C194.788 105.721 194.583 105.68 194.341 105.68C194.087 105.68 193.862 105.73 193.667 105.832C193.476 105.934 193.316 106.072 193.187 106.248C193.058 106.424 192.96 106.627 192.894 106.857C192.831 107.088 192.8 107.334 192.8 107.596ZM207.285 106.031V107.197H202.756V106.031H207.285ZM203.119 102.469V111H201.648V102.469H203.119ZM208.416 102.469V111H206.951V102.469H208.416ZM211.967 110.309L213.69 104.66H215.202L212.659 111.967C212.6 112.123 212.524 112.293 212.43 112.477C212.336 112.66 212.213 112.834 212.061 112.998C211.912 113.166 211.727 113.301 211.504 113.402C211.282 113.508 211.012 113.561 210.696 113.561C210.571 113.561 210.45 113.549 210.332 113.525C210.219 113.506 210.112 113.484 210.01 113.461L210.004 112.383C210.043 112.387 210.09 112.391 210.145 112.395C210.204 112.398 210.25 112.4 210.286 112.4C210.52 112.4 210.715 112.371 210.871 112.312C211.028 112.258 211.155 112.168 211.252 112.043C211.354 111.918 211.44 111.75 211.51 111.539L211.967 110.309ZM210.995 104.66L212.5 109.406L212.752 110.895L211.774 111.146L209.471 104.66H210.995ZM217.528 105.879V113.438H216.116V104.66H217.417L217.528 105.879ZM221.659 107.771V107.895C221.659 108.355 221.604 108.783 221.495 109.178C221.389 109.568 221.231 109.91 221.02 110.203C220.813 110.492 220.557 110.717 220.253 110.877C219.948 111.037 219.596 111.117 219.198 111.117C218.804 111.117 218.458 111.045 218.161 110.9C217.868 110.752 217.62 110.543 217.417 110.273C217.214 110.004 217.05 109.688 216.925 109.324C216.804 108.957 216.718 108.555 216.667 108.117V107.643C216.718 107.178 216.804 106.756 216.925 106.377C217.05 105.998 217.214 105.672 217.417 105.398C217.62 105.125 217.868 104.914 218.161 104.766C218.454 104.617 218.796 104.543 219.186 104.543C219.585 104.543 219.938 104.621 220.247 104.777C220.555 104.93 220.815 105.148 221.026 105.434C221.237 105.715 221.395 106.055 221.501 106.453C221.606 106.848 221.659 107.287 221.659 107.771ZM220.247 107.895V107.771C220.247 107.479 220.22 107.207 220.165 106.957C220.11 106.703 220.024 106.48 219.907 106.289C219.79 106.098 219.639 105.949 219.456 105.844C219.276 105.734 219.059 105.68 218.805 105.68C218.555 105.68 218.341 105.723 218.161 105.809C217.981 105.891 217.831 106.006 217.71 106.154C217.589 106.303 217.495 106.477 217.429 106.676C217.362 106.871 217.315 107.084 217.288 107.314V108.451C217.335 108.732 217.415 108.99 217.528 109.225C217.641 109.459 217.802 109.646 218.009 109.787C218.22 109.924 218.489 109.992 218.817 109.992C219.071 109.992 219.288 109.938 219.468 109.828C219.647 109.719 219.794 109.568 219.907 109.377C220.024 109.182 220.11 108.957 220.165 108.703C220.22 108.449 220.247 108.18 220.247 107.895ZM224.355 102V111H222.948V102H224.355ZM224.109 107.596L223.652 107.59C223.655 107.152 223.716 106.748 223.833 106.377C223.954 106.006 224.122 105.684 224.337 105.41C224.556 105.133 224.818 104.92 225.122 104.771C225.427 104.619 225.765 104.543 226.136 104.543C226.448 104.543 226.73 104.586 226.98 104.672C227.234 104.758 227.452 104.896 227.636 105.088C227.82 105.275 227.958 105.521 228.052 105.826C228.15 106.127 228.198 106.494 228.198 106.928V111H226.78V106.916C226.78 106.611 226.736 106.369 226.646 106.189C226.56 106.01 226.433 105.881 226.265 105.803C226.097 105.721 225.892 105.68 225.65 105.68C225.396 105.68 225.171 105.73 224.976 105.832C224.784 105.934 224.624 106.072 224.495 106.248C224.366 106.424 224.269 106.627 224.202 106.857C224.14 107.088 224.109 107.334 224.109 107.596ZM232.523 111.117C232.054 111.117 231.63 111.041 231.252 110.889C230.877 110.732 230.556 110.516 230.291 110.238C230.029 109.961 229.828 109.635 229.687 109.26C229.546 108.885 229.476 108.48 229.476 108.047V107.812C229.476 107.316 229.548 106.867 229.693 106.465C229.838 106.062 230.039 105.719 230.296 105.434C230.554 105.145 230.859 104.924 231.211 104.771C231.562 104.619 231.943 104.543 232.353 104.543C232.806 104.543 233.203 104.619 233.543 104.771C233.882 104.924 234.164 105.139 234.386 105.416C234.613 105.689 234.781 106.016 234.89 106.395C235.004 106.773 235.06 107.191 235.06 107.648V108.252H230.162V107.238H233.666V107.127C233.658 106.873 233.607 106.635 233.513 106.412C233.423 106.189 233.285 106.01 233.097 105.873C232.91 105.736 232.66 105.668 232.347 105.668C232.113 105.668 231.904 105.719 231.72 105.82C231.541 105.918 231.39 106.061 231.269 106.248C231.148 106.436 231.054 106.662 230.988 106.928C230.925 107.189 230.894 107.484 230.894 107.812V108.047C230.894 108.324 230.931 108.582 231.005 108.82C231.084 109.055 231.197 109.26 231.345 109.436C231.494 109.611 231.673 109.75 231.884 109.852C232.095 109.949 232.336 109.998 232.605 109.998C232.945 109.998 233.248 109.93 233.513 109.793C233.779 109.656 234.009 109.463 234.205 109.213L234.949 109.934C234.812 110.133 234.634 110.324 234.416 110.508C234.197 110.688 233.929 110.834 233.613 110.947C233.3 111.061 232.937 111.117 232.523 111.117ZM237.662 106.014V111H236.25V104.66H237.58L237.662 106.014ZM237.41 107.596L236.953 107.59C236.957 107.141 237.02 106.729 237.141 106.354C237.266 105.979 237.438 105.656 237.656 105.387C237.879 105.117 238.145 104.91 238.453 104.766C238.762 104.617 239.105 104.543 239.484 104.543C239.789 104.543 240.064 104.586 240.311 104.672C240.561 104.754 240.773 104.889 240.949 105.076C241.129 105.264 241.266 105.508 241.359 105.809C241.453 106.105 241.5 106.471 241.5 106.904V111H240.082V106.898C240.082 106.594 240.037 106.354 239.947 106.178C239.861 105.998 239.734 105.871 239.566 105.797C239.402 105.719 239.197 105.68 238.951 105.68C238.709 105.68 238.492 105.73 238.301 105.832C238.109 105.934 237.947 106.072 237.814 106.248C237.686 106.424 237.586 106.627 237.516 106.857C237.445 107.088 237.41 107.334 237.41 107.596Z" fill="#171725"/>
<defs>
<filter id="filter0_d_6388_47707" x="0" y="0" width="317" height="310" filterUnits="userSpaceOnUse" color-interpolation-filters="sRGB">
<feFlood flood-opacity="0" result="BackgroundImageFix"/>
<feColorMatrix in="SourceAlpha" type="matrix" values="0 0 0 0 0 0 0 0 0 0 0 0 0 0 0 0 0 0 127 0" result="hardAlpha"/>
<feOffset dy="2"/>
<feGaussianBlur stdDeviation="4"/>
<feComposite in2="hardAlpha" operator="out"/>
<feColorMatrix type="matrix" values="0 0 0 0 0 0 0 0 0 0 0 0 0 0 0 0 0 0 0.2 0"/>
<feBlend mode="normal" in2="BackgroundImageFix" result="effect1_dropShadow_6388_47707"/>
<feBlend mode="normal" in="SourceGraphic" in2="effect1_dropShadow_6388_47707" result="shape"/>
</filter>
</defs>
</svg>
