<svg width="26" height="26" viewBox="0 0 26 26" fill="none" xmlns="http://www.w3.org/2000/svg">
<g id="Medical Box Icon - Free Download Healthcare &#38; Medical Icons _ IconScout-29 1">
<g id="Group">
<g id="Group 45588">
<path id="Vector" d="M11.8356 7.16764H14.1683V3.66862H17.6673V1.33594H8.33659V3.66862H11.8356V7.16764ZM17.6673 8.33398H8.33659C7.71792 8.33398 7.1246 8.57975 6.68713 9.01721C6.24967 9.45467 6.00391 10.048 6.00391 10.6667V21.1637C6.00391 21.7824 6.24967 22.3757 6.68713 22.8132C7.1246 23.2507 7.71792 23.4964 8.33659 23.4964V24.6628H10.6693V23.4964H15.3346V24.6628H17.6673V23.4964C18.286 23.4964 18.8793 23.2507 19.3168 22.8132C19.7542 22.3757 20 21.7824 20 21.1637V10.6667C20 10.048 19.7542 9.45467 19.3168 9.01721C18.8793 8.57975 18.286 8.33398 17.6673 8.33398ZM17.6673 12.9993V15.332H16.501V12.9993H8.33659V11.833H17.6673V12.9993Z" fill="#BA7DE9"/>
</g>
</g>
</g>
</svg>
