<svg width="42" height="37" viewBox="0 0 42 37" fill="none" xmlns="http://www.w3.org/2000/svg">
<g id="Frame 1410087467">
<path id="Vector" d="M6.16288 26.7413C-3.15795 14.6955 -1.76456 3.20717 9.38326 0.389355C12.7895 -0.477613 17.1558 0.513212 19.5711 2.68096L20.8098 3.79563L22.6368 2.71175C33.1962 -3.6672 46.2018 8.09989 40.6898 19.0308C35.6732 28.9709 19.3544 39.6541 16.0101 35.195C15.0191 33.8636 15.5145 33.6777 18.1467 34.328C20.6549 34.9473 32.2361 24.6666 35.116 19.2477C38.5841 12.7447 37.903 9.21456 32.36 4.75565C30.0686 2.92866 26.5075 3.73359 23.7205 6.76831C21.5219 9.12172 19.2305 9.30762 17.3415 6.33494C11.9846 -2.02588 3.18999 4.60078 5.69827 15.0981C6.75112 19.4334 7.89703 21.6011 12.2631 27.3606C15.236 31.2623 15.3286 31.4482 14.3378 31.9746C12.4488 32.9964 9.50712 31.1076 6.16288 26.7413Z" fill="url(#paint0_linear_612_80218)"/>
<path id="Vector_2" d="M29.6745 7.15471C28.0635 6.85881 29.4113 5.05068 30.9235 5.57663C32.1728 6.03696 33.9153 6.79319 34.6057 8.73257C35.3619 10.7708 33.8494 12.7433 32.9946 12.5133C32.2386 12.3159 32.0086 11.4611 32.1071 9.71884C32.2057 7.97635 31.2853 7.45039 29.6745 7.15471Z" fill="url(#paint1_linear_612_80218)"/>
<path id="Vector_3" d="M33.3563 17.5753C31.2193 18.0686 29.6085 16.4576 30.5619 15.3727C31.2852 14.5838 34.0137 14.5179 34.8027 15.3071C35.4601 15.9975 35.033 17.1809 33.3563 17.5753Z" fill="url(#paint2_linear_612_80218)"/>
</g>
<defs>
<linearGradient id="paint0_linear_612_80218" x1="21" y1="0.0766602" x2="21" y2="36.2375" gradientUnits="userSpaceOnUse">
<stop stop-color="#4544C5"/>
<stop offset="1" stop-color="#A41BF0"/>
</linearGradient>
<linearGradient id="paint1_linear_612_80218" x1="31.8782" y1="5.48129" x2="31.8782" y2="12.5316" gradientUnits="userSpaceOnUse">
<stop stop-color="#4544C5"/>
<stop offset="1" stop-color="#A41BF0"/>
</linearGradient>
<linearGradient id="paint2_linear_612_80218" x1="32.6892" y1="14.7471" x2="32.6892" y2="17.6668" gradientUnits="userSpaceOnUse">
<stop stop-color="#4544C5"/>
<stop offset="1" stop-color="#A41BF0"/>
</linearGradient>
</defs>
</svg>
