<svg width="31" height="30" viewBox="0 0 31 30" fill="none" xmlns="http://www.w3.org/2000/svg">
<path d="M3.73827 6.9455C11.2657 6.9455 18.3002 3.94757 20.8766 2.4486C22.949 1.42072 23.7563 2.87688 23.9009 3.73345C23.9009 10.9285 27.0374 17.6524 28.6056 20.115C29.4121 21.6568 28.2696 22.6847 27.5975 23.0059C18.457 23.5198 12.3634 26.4321 10.4592 27.824C8.03965 28.5949 7.21074 27.0745 7.09872 26.218C6.82989 19.2799 3.62626 12.1919 2.05805 9.51517C1.25154 7.7164 2.84215 7.05258 3.73827 6.9455Z" stroke="white" stroke-opacity="0.4" stroke-width="1.4"/>
<path d="M13.8064 1.58885C18.6185 6.79982 25.2849 9.66295 28.0166 10.4431C30.0853 11.1898 29.5476 12.7234 29.0202 13.3968C23.8134 18.2127 20.9527 24.8846 20.1731 27.6186C19.573 29.2089 18.0988 29.1059 17.4367 28.8556C11.2216 22.872 5.21867 20.6029 2.99409 20.2163C0.889511 19.0574 1.45984 17.4659 2.00808 16.815C6.857 11.985 9.93826 5.02293 10.8728 2.14567C11.6589 0.383368 13.1561 1.04017 13.8064 1.58885Z" stroke="white" stroke-opacity="0.4" stroke-width="1.4"/>
<g clip-path="url(#clip0_604_25313)">
<path d="M12.8745 14.4932V10.9932C12.8745 10.297 13.1511 9.62929 13.6434 9.13701C14.1356 8.64473 14.8033 8.36816 15.4995 8.36816C16.1957 8.36816 16.8634 8.64473 17.3557 9.13701C17.8479 9.62929 18.1245 10.297 18.1245 10.9932V14.4932C18.1245 15.1894 17.8479 15.857 17.3557 16.3493C16.8634 16.8416 16.1957 17.1182 15.4995 17.1182C14.8033 17.1182 14.1356 16.8416 13.6434 16.3493C13.1511 15.857 12.8745 15.1894 12.8745 14.4932ZM19.8745 14.4932C19.8745 14.3771 19.8284 14.2659 19.7464 14.1838C19.6643 14.1018 19.553 14.0557 19.437 14.0557C19.321 14.0557 19.2097 14.1018 19.1277 14.1838C19.0456 14.2659 18.9995 14.3771 18.9995 14.4932C18.9995 15.4214 18.6308 16.3117 17.9744 16.968C17.318 17.6244 16.4278 17.9932 15.4995 17.9932C14.5713 17.9932 13.681 17.6244 13.0246 16.968C12.3683 16.3117 11.9995 15.4214 11.9995 14.4932C11.9995 14.3771 11.9534 14.2659 11.8714 14.1838C11.7893 14.1018 11.678 14.0557 11.562 14.0557C11.446 14.0557 11.3347 14.1018 11.2527 14.1838C11.1706 14.2659 11.1245 14.3771 11.1245 14.4932C11.1258 15.5774 11.5292 16.6226 12.2565 17.4266C12.9838 18.2307 13.9834 18.7365 15.062 18.8463V20.6182C15.062 20.7342 15.1081 20.8455 15.1902 20.9275C15.2722 21.0096 15.3835 21.0557 15.4995 21.0557C15.6155 21.0557 15.7268 21.0096 15.8089 20.9275C15.8909 20.8455 15.937 20.7342 15.937 20.6182V18.8463C17.0156 18.7365 18.0153 18.2307 18.7426 17.4266C19.4699 16.6226 19.8732 15.5774 19.8745 14.4932Z" fill="white"/>
</g>
<defs>
<clipPath id="clip0_604_25313">
<rect width="14" height="14" fill="white" transform="translate(8.5 7.5)"/>
</clipPath>
</defs>
</svg>
