<svg width="121" height="120" viewBox="0 0 121 120" fill="none" xmlns="http://www.w3.org/2000/svg">
<path d="M119.384 64.7987C120.902 61.7932 120.902 58.2048 119.384 55.1992L117.813 52.0869C117.47 51.4084 117.351 50.6529 117.467 49.9016L117.999 46.4561C118.514 43.1289 117.405 39.7159 115.033 37.3266L112.577 34.8521C112.041 34.3126 111.694 33.6309 111.572 32.8805L111.014 29.439C110.481 26.1525 108.413 23.277 105.471 21.725L102.45 19.9428C102.391 19.9084 102.332 19.8756 102.271 19.8447C101.595 19.4972 101.055 18.9563 100.707 18.2802L99.1126 15.1798C97.6093 12.256 94.5438 10.0939 91.1123 9.53723L87.671 8.97919C86.9207 8.85736 86.2389 8.51017 85.6994 7.97485L83.225 5.51847C80.8356 3.14666 77.4233 2.03853 74.0957 2.55207L70.6502 3.08458C69.8984 3.20078 69.1431 3.08106 68.4646 2.73855L65.3523 1.16726C62.347 -0.349908 58.7586 -0.350142 55.7533 1.16726L52.6407 2.73855C51.9625 3.08083 51.2072 3.20031 50.4554 3.08481L47.0099 2.5523C43.682 2.0376 40.2698 3.14689 37.8804 5.5187L35.4058 7.97461C34.8665 8.51017 34.1847 8.85736 33.4343 8.97919L29.9926 9.53723C26.5614 10.0939 23.4959 12.2558 21.9925 15.1798L20.3983 18.2802C20.0506 18.9561 19.5097 19.4972 18.8336 19.8447L15.7329 21.4391C12.8092 22.9425 10.647 26.008 10.0906 29.4392L9.53234 32.8809C9.41075 33.6313 9.06332 34.3128 8.52777 34.8524L6.07209 37.3268C3.70028 39.7162 2.59145 43.1289 3.10569 46.4561L3.63843 49.9018C3.75463 50.6529 3.63492 51.4084 3.29217 52.0869L1.72089 55.1992C0.203715 58.2045 0.203715 61.7929 1.72089 64.7984L3.29217 67.9108C3.63468 68.5893 3.7544 69.3448 3.63843 70.0961L3.10569 73.5418C2.59145 76.869 3.70052 80.2817 6.07209 82.6711L8.52824 85.1458C9.06379 85.6853 9.41122 86.3668 9.53281 87.1174L10.0911 90.5587C10.6475 93.9901 12.8096 97.0556 15.7334 98.559L18.8338 100.153C19.5099 100.501 20.0509 101.042 20.3985 101.718L21.9928 104.819C23.4963 107.742 26.5618 109.904 29.9931 110.461L33.4346 111.019C34.1849 111.141 34.8667 111.488 35.406 112.024L37.8806 114.48C40.2705 116.852 43.683 117.96 47.0099 117.446L50.4556 116.913C51.2065 116.797 51.9625 116.917 52.6407 117.26L55.7533 118.831C57.256 119.589 58.9043 119.969 60.5527 119.969C62.2013 119.969 63.8496 119.589 65.3523 118.831L68.4646 117.26C69.1431 116.917 69.8991 116.798 70.65 116.913L74.0955 117.446C77.4226 117.96 80.8353 116.851 83.225 114.479L85.6994 112.023C86.2387 111.488 86.9204 111.141 87.671 111.019L91.1123 110.46C94.3987 109.927 97.2745 107.859 98.8266 104.917L100.609 101.896C100.643 101.837 100.676 101.778 100.707 101.717C101.054 101.042 101.595 100.501 102.271 100.153L105.372 98.5588C108.366 97.0193 110.475 94.1162 111.014 90.7927L111.572 87.3515C111.694 86.6011 112.041 85.9193 112.577 85.3798C112.614 85.3423 115.094 82.6088 115.094 82.6088C117.424 80.2225 118.509 76.84 117.999 73.5418L117.467 70.0964C117.351 69.345 117.47 68.5893 117.813 67.9108L119.384 64.7987Z" fill="url(#paint0_linear_419_77819)"/>
<rect x="16.9936" y="16.4408" width="87.1177" height="87.1177" rx="43.5589" fill="#FFEBA6"/>
<rect x="16.9936" y="16.4408" width="87.1177" height="87.1177" rx="43.5589" stroke="white" stroke-width="1.00273"/>
<path d="M70.0409 59.5742L60.225 47.3047L50.4091 59.5742L35.8975 51.0383L42.5756 77.341C42.5756 79.9343 49.6174 82.0358 60.225 82.0358C70.833 82.0358 77.8743 79.9343 77.8743 77.341L84.5522 51.0383L70.0409 59.5742Z" fill="#FDC00F"/>
<path d="M56.8811 79.7183C50.3651 78.5331 43.8501 64.1103 39.8465 53.3435L35.8926 51.0176L42.5708 77.3203C42.5708 79.9136 49.6125 82.0151 60.2201 82.0151C66.2758 82.0151 71.1625 81.3277 74.2474 80.2583C68.6724 80.4996 61.5486 80.5666 56.8811 79.7183Z" fill="#F99615"/>
<path d="M70.0409 59.5742L60.225 47.3047L50.4091 59.5742L35.8975 51.0383L49.9405 62.5678L60.702 51.1204L69.2881 62.5678L80.7363 55.4191L75.1189 79.9512C76.8942 79.205 77.8743 78.3078 77.8743 77.341L84.5522 51.0383L70.0409 59.5742Z" fill="#FFCC4D"/>
<path d="M37.3088 55.8766C39.6798 55.8766 41.6019 53.9547 41.6019 51.5838C41.6019 49.213 39.6798 47.291 37.3088 47.291C34.9377 47.291 33.0156 49.213 33.0156 51.5838C33.0156 53.9547 34.9377 55.8766 37.3088 55.8766Z" fill="#FDC00F"/>
<path d="M36.3558 49.7673C38.1906 49.7673 39.7461 50.9252 40.3598 52.5461C40.5424 52.1333 40.6487 51.6787 40.6487 51.1981C40.6487 49.3541 39.1534 47.8594 37.3095 47.8594C35.7279 47.8594 34.4084 48.9633 34.0645 50.4411C34.7288 50.0197 35.5104 49.7673 36.3558 49.7673Z" fill="#FFCC4D"/>
<path d="M37.3086 53.9657C35.2663 53.9657 33.5651 52.5372 33.1304 50.627C33.0605 50.935 33.0156 51.2521 33.0156 51.5808C33.0156 53.9519 34.9375 55.8735 37.3086 55.8735C39.6795 55.8735 41.6017 53.9517 41.6017 51.5808C41.6017 51.2521 41.5569 50.9348 41.4869 50.627C41.0518 52.5372 39.3508 53.9657 37.3086 53.9657Z" fill="#F99615"/>
<path d="M60.1826 52.0618C62.5536 52.0618 64.4756 50.14 64.4756 47.7692C64.4756 45.3984 62.5536 43.4766 60.1826 43.4766C57.8117 43.4766 55.8896 45.3984 55.8896 47.7692C55.8896 50.14 57.8117 52.0618 60.1826 52.0618Z" fill="#FDC00F"/>
<path d="M59.224 45.9665C61.0592 45.9665 62.6141 47.1243 63.2279 48.7455C63.4109 48.3327 63.5171 47.8779 63.5171 47.3973C63.5171 45.5533 62.0214 44.0586 60.1778 44.0586C58.596 44.0586 57.2764 45.1624 56.9326 46.6404C57.5972 46.2188 58.3786 45.9665 59.224 45.9665Z" fill="#FFCC4D"/>
<path d="M60.1825 50.1511C58.1403 50.1511 56.4393 48.7227 56.004 46.8125C55.9342 47.1204 55.8896 47.4375 55.8896 47.7664C55.8896 50.1371 57.8114 52.059 60.1825 52.059C62.5535 52.059 64.4756 50.137 64.4756 47.7664C64.4756 47.4374 64.4306 47.1202 64.361 46.8125C63.9259 48.7227 62.2247 50.1511 60.1825 50.1511Z" fill="#F99615"/>
<path d="M82.1593 55.8766C84.5304 55.8766 86.4525 53.9547 86.4525 51.5838C86.4525 49.213 84.5304 47.291 82.1593 47.291C79.7883 47.291 77.8662 49.213 77.8662 51.5838C77.8662 53.9547 79.7883 55.8766 82.1593 55.8766Z" fill="#FDC00F"/>
<path d="M81.2 49.781C83.0354 49.781 84.5904 50.9389 85.2045 52.5598C85.3873 52.147 85.4934 51.6924 85.4934 51.2118C85.4934 49.3677 83.998 47.873 82.1542 47.873C80.5723 47.873 79.253 48.977 78.9092 50.4548C79.5736 50.0334 80.3549 49.781 81.2 49.781Z" fill="#FFCC4D"/>
<path d="M82.1593 53.9657C80.1173 53.9657 78.416 52.5372 77.981 50.627C77.9111 50.935 77.8662 51.2521 77.8662 51.5808C77.8662 53.9519 79.7884 55.8735 82.1593 55.8735C84.5303 55.8735 86.4523 53.9517 86.4523 51.5808C86.4523 51.2521 86.4078 50.9348 86.3375 50.627C85.9028 52.5372 84.2017 53.9657 82.1593 53.9657Z" fill="#F99615"/>
<path d="M77.7258 70.2383C74.8449 72.1441 67.5727 73.766 58.9908 74.2144C51.7764 74.5914 45.4035 74.0446 41.7441 72.9125C44.0209 74.7441 51.2816 76.0854 59.8939 76.0854C70.329 76.0854 78.788 74.1181 78.788 71.6905C78.788 71.1817 78.4117 70.6938 77.7258 70.2383Z" fill="#FFCC4D"/>
<path d="M41.6045 73.541L42.1732 75.7786C45.6434 77.5653 52.4222 78.7792 60.2174 78.7792C68.0128 78.7792 74.7918 77.5653 78.2619 75.7786L78.8299 73.541C75.587 75.5057 68.4802 76.8713 60.2174 76.8713C51.9547 76.8713 44.8479 75.5057 41.6045 73.541Z" fill="#FFCC4D"/>
<path d="M41.2988 72.3906L41.8756 74.6625C45.2432 76.5381 52.1757 77.828 60.2039 77.828C68.2322 77.828 75.1646 76.5381 78.5325 74.6625L79.1094 72.3906C76.0263 74.4612 68.7409 75.9202 60.2039 75.9202C51.6668 75.9202 44.3813 74.4612 41.2988 72.3906Z" fill="#F99615"/>
<defs>
<linearGradient id="paint0_linear_419_77819" x1="60.5527" y1="119.969" x2="60.5527" y2="0.0293827" gradientUnits="userSpaceOnUse">
<stop stop-color="#FD5900"/>
<stop offset="1" stop-color="#FFDE00"/>
</linearGradient>
</defs>
</svg>
