<svg xmlns="http://www.w3.org/2000/svg" width="33" height="34" viewBox="0 0 33 34" fill="none">
  <path d="M16.697 15.2799C16.6736 15.2489 16.6438 15.2237 16.6097 15.2064C16.5755 15.1892 16.5381 15.1802 16.5002 15.1802C16.4622 15.1802 16.4248 15.1892 16.3907 15.2064C16.3565 15.2237 16.3267 15.2489 16.3033 15.2799L12.8033 19.8852C12.7744 19.9235 12.7565 19.9695 12.7516 20.0179C12.7467 20.0663 12.755 20.1152 12.7755 20.1589C12.7961 20.2026 12.828 20.2395 12.8678 20.2652C12.9075 20.2909 12.9534 20.3045 13.0002 20.3044H15.3095V28.1824C15.3095 28.3254 15.422 28.4424 15.5595 28.4424H17.4345C17.572 28.4424 17.6845 28.3254 17.6845 28.1824V20.3077H20.0002C20.2095 20.3077 20.3252 20.0574 20.197 19.8884L16.697 15.2799Z" fill="#4B4AD5"/>
  <path d="M25.8563 12.2807C24.425 8.35474 20.7781 5.56299 16.5063 5.56299C12.2344 5.56299 8.5875 8.35149 7.15625 12.2775C4.47813 13.0087 2.5 15.547 2.5 18.563C2.5 22.1542 5.29687 25.063 8.74687 25.063H10C10.1375 25.063 10.25 24.946 10.25 24.803V22.853C10.25 22.71 10.1375 22.593 10 22.593H8.74687C7.69375 22.593 6.70312 22.1575 5.96562 21.3677C5.23125 20.5812 4.84063 19.5217 4.875 18.4232C4.90313 17.5652 5.18437 16.7592 5.69375 16.08C6.21562 15.3877 6.94688 14.884 7.75938 14.6597L8.94375 14.338L9.37813 13.1485C9.64688 12.4075 10.0219 11.7152 10.4937 11.088C10.9596 10.4663 11.5114 9.91978 12.1313 9.46624C13.4156 8.52699 14.9281 8.02974 16.5063 8.02974C18.0844 8.02974 19.5969 8.52699 20.8813 9.46624C21.5031 9.92124 22.0531 10.4672 22.5187 11.088C22.9906 11.7152 23.3656 12.4107 23.6344 13.1485L24.0656 14.3347L25.2469 14.6597C26.9406 15.1342 28.125 16.7365 28.125 18.563C28.125 19.6387 27.7219 20.6527 26.9906 21.4132C26.632 21.7884 26.2054 22.0858 25.7355 22.2883C25.2656 22.4908 24.7618 22.5944 24.2531 22.593H23C22.8625 22.593 22.75 22.71 22.75 22.853V24.803C22.75 24.946 22.8625 25.063 23 25.063H24.2531C27.7031 25.063 30.5 22.1542 30.5 18.563C30.5 15.5502 28.5281 13.0152 25.8563 12.2807Z" fill="#4B4AD5"/>
</svg>