<svg width="24" height="25" viewBox="0 0 24 25" fill="none" xmlns="http://www.w3.org/2000/svg">
<g id="Vaccination">
<path id="Shape" d="M4.91426 17.8117L5.14989 18.9899L6.32877 19.2257L4.70711 20.8473C4.31658 21.2378 3.68342 21.2378 3.29289 20.8473C2.90237 20.4568 2.90237 19.8236 3.29289 19.4331L4.91426 17.8117Z" fill="#A461D8"/>
<path id="Shape_2" opacity="0.2" d="M11.7066 4.43303C11.3161 4.04251 10.6829 4.04251 10.2924 4.43303C9.90188 4.82355 9.90188 5.45672 10.2924 5.84724L10.5854 6.1402L5.80634 10.9192C4.62422 12.1013 4.11111 13.796 4.43897 15.4353L5.14989 18.9899L8.70444 19.7008C10.3437 20.0287 12.0384 19.5155 13.2206 18.3334L17.9996 13.5544L18.2924 13.8472C18.6829 14.2378 19.3161 14.2378 19.7066 13.8472C20.0971 13.4567 20.0971 12.8236 19.7066 12.433L11.7066 4.43303Z" fill="#A461D8"/>
<path id="Shape_3" fill-rule="evenodd" clip-rule="evenodd" d="M13.7071 12.433C13.3166 12.0425 12.6834 12.0425 12.2929 12.433C11.9024 12.8236 11.9024 13.4567 12.2929 13.8472L13.2929 14.8472C13.6834 15.2378 14.3166 15.2378 14.7071 14.8472C15.0976 14.4567 15.0976 13.8236 14.7071 13.433L13.7071 12.433ZM11.2071 14.933C10.8166 14.5425 10.1834 14.5425 9.79289 14.933C9.40237 15.3236 9.40237 15.9567 9.79289 16.3472L10.7929 17.3472C11.1834 17.7378 11.8166 17.7378 12.2071 17.3472C12.5976 16.9567 12.5976 16.3236 12.2071 15.933L11.2071 14.933Z" fill="#A461D8"/>
<path id="Shape_4" d="M15.2931 3.43303C15.6837 3.04251 16.3168 3.04251 16.7074 3.43303L20.7074 7.43303C21.0979 7.82355 21.0979 8.45672 20.7074 8.84724C20.3168 9.23777 19.6837 9.23777 19.2931 8.84724L18.0002 7.55435L16.4142 9.14038L15 7.72617L16.586 6.14014L15.2931 4.84724C14.9026 4.45672 14.9026 3.82355 15.2931 3.43303Z" fill="#A461D8"/>
</g>
</svg>
