<svg xmlns="http://www.w3.org/2000/svg" width="734" height="652" viewBox="0 0 734 652" fill="none">
  <path opacity="0.5" d="M-221.003 -207V-15.1628L-156.597 -78.5295V-207H-155.415L-155.616 -206.802V-79.4994L-91.2102 -142.866V-207H-90.2294V-142.866L-25.8233 -79.4994V-207H367.489V-142.866L431.895 -79.4994V-207H433.077L497.282 -143.831V-207H498.263V-142.866L562.669 -79.4994V-207H955.5V-13.5175H760.516L824.922 49.8492H955.5V51.0121L955.299 50.8142H825.908L890.314 114.181H955.5V115.146H890.314L825.908 178.513H955.5V179.478H825.908L890.314 242.844H955.5V243.809H891.295L955.5 306.983V308.146H825.908L890.314 371.513H955.5V950.995H562.678V823.495L498.272 886.861V950.995H497.292V886.861L432.885 823.495V950.797L433.086 950.995H431.905V822.53L367.499 759.163V951H-25.8134V886.866L-26.0146 886.668L-25.8134 886.47V823.499L-90.2196 886.866V951H-91.2003V887.831L-155.405 951H-156.587V823.499L-220.993 886.866V951H-221.484V371.518H-26.5L-90.906 308.151H-221.479V306.988L-221.278 307.186H-91.887L-156.293 243.819H-221.479V242.854H-156.293L-91.887 179.487H-221.479V178.522H-91.887L-156.293 115.156H-221.479V114.191H-157.274L-221.479 51.0217V49.8589H-91.887L-156.293 -13.5079H-221.479V-207H-220.988H-221.003ZM-90.7148 -141.983L-155.611 -78.1339V-14.4825H-25.8134V-78.1339L-90.71 -141.983H-90.7148ZM-156.592 -77.1689L-220.307 -14.4825H-156.592V-77.1689ZM236.023 886.186L300.43 822.819H171.039L106.633 886.186H236.023ZM496.595 757.518L432.189 694.151H301.817L237.411 757.518H496.595ZM628.762 886.186H758.153L693.746 822.819H564.356L628.762 886.186ZM889.623 500.866L825.217 437.499V564.802L889.623 628.169V500.866ZM760.521 372.482L824.236 435.169V372.482H760.521ZM758.844 243.134V114.866L694.438 51.4994V307.47L758.844 370.837V243.534L758.643 243.337L758.844 243.139V243.134ZM564.351 -78.8142H693.742L758.148 -142.181H628.757L564.351 -78.8142ZM301.41 -142.181H172.02L236.426 -78.8142H365.816L301.41 -142.181ZM-25.1268 436.819L-89.5328 500.186H39.8579L104.264 436.819H-25.1268ZM40.7504 500.668L105.647 564.518H170.342V436.814H105.647L40.7504 500.664V500.668ZM-24.8424 822.534V885.505L104.259 758.487H-24.8424V822.139L-24.6413 822.337L-24.8424 822.534ZM236.019 757.518L300.915 693.668L236.019 629.819H171.323V757.522H236.019V757.518ZM301.812 693.186H431.203L366.797 629.819H237.406L301.812 693.186ZM824.515 821.854L888.921 758.487H629.738L694.144 821.854H824.515ZM759.82 630.499V757.518H888.921L759.82 630.499ZM366.513 -77.1689L302.798 -14.4825H366.513V-77.1689ZM105.652 -77.8492L41.2458 -14.4825H300.43L236.023 -77.8492H105.652ZM-24.8376 114.866V243.134L39.5685 306.501V50.5296L-24.8376 -12.8372V114.466L-24.6364 114.663L-24.8376 114.861V114.866ZM235.043 628.849L171.328 566.163V628.849H235.043ZM496.595 628.849L432.189 565.482H366.513H172.02L236.426 628.849H366.51H496.595ZM628.065 757.518V694.831L564.351 757.518H628.065ZM563.659 758.483V821.169L627.374 758.483H563.659ZM629.046 757.518H758.844V693.866L693.948 630.017L629.051 693.866V757.518H629.046ZM628.065 114.866L563.659 51.4994V178.518V306.501L628.065 243.134V114.866ZM497.777 -13.3197L497.576 -13.5175H301.817L237.411 49.8492H497.581L561.987 -13.5175H497.983L497.782 -13.3197H497.777ZM104.955 370.832V243.53L40.5493 180.163V307.466L104.955 370.832ZM694.433 629.129L758.839 692.496V437.49L694.433 500.856V629.124V629.129ZM695.125 372.478L758.839 435.164V372.478H695.125ZM758.633 436.327L694.428 373.158V499.496L758.633 436.327ZM562.669 371.513V244.495L498.263 307.861V436.129L562.669 499.496V371.513ZM498.954 49.8444H562.669V-12.842L498.954 49.8444ZM562.669 50.8094H497.973L433.077 114.659L497.973 178.508H562.669V50.8046V50.8094ZM105.931 243.129L170.337 306.496V114.861L170.136 114.663L170.337 114.466V51.4946L105.931 114.861V243.129ZM105.931 370.832L170.136 307.663L105.931 244.495V370.832ZM171.318 563.832L235.724 500.466V244.495L171.519 307.663L171.318 307.861V371.513V563.828V563.832ZM432.179 115.146H301.808L237.402 178.513H301.401L301.602 178.315L301.803 178.513H367.479H496.58L432.174 115.146H432.179ZM236.705 370.832L301.111 307.466V180.163L236.705 243.53V370.832ZM431.89 243.53L367.484 180.163V243.129L367.685 243.327L367.484 243.525V371.99V436.124L431.89 499.491V243.52V243.53ZM368.175 179.478L431.89 242.164V179.478H368.175ZM367.484 437.495V564.513H496.585L367.484 437.495ZM366.503 179.478H302.788L366.503 242.164V179.478ZM302.097 180.158V306.496L366.302 243.327L302.097 180.158ZM300.42 179.478H236.421L236.22 179.676L236.019 179.478H171.323V306.496L300.425 179.478H300.42ZM235.033 178.513L171.318 115.826V178.513H235.033ZM236.22 178.315L300.425 115.146H172.015L236.22 178.315ZM432.876 179.478V243.129L497.772 306.978L562.669 243.129V179.478H432.871H432.876ZM497.282 307.861L432.876 244.495V371.797L497.282 435.164V307.861ZM432.876 373.158V500.461L497.282 563.828V436.525L432.876 373.158ZM498.263 563.828L562.468 500.659L498.263 437.49V563.828ZM498.954 564.508H562.669V501.821L498.954 564.508ZM366.503 371.99V244.49L302.097 307.856V436.124L366.503 499.491V371.99ZM301.116 308.822L236.71 372.188V499.491L301.116 436.124V308.822ZM171.318 -13.5271V113.491L300.42 -13.5271H171.318ZM172.01 114.176H301.401L365.807 50.8094H236.416L172.01 114.176ZM367.195 50.8094L302.788 114.176H432.179L496.585 50.8094H367.195ZM366.503 500.861L301.607 437.012L236.71 500.861V564.513H366.508V500.861H366.503ZM235.724 501.826L172.01 564.513H235.724V501.826ZM170.337 308.826L106.623 371.513H170.337V308.826ZM40.5396 178.793L104.946 242.159V114.856L40.5396 51.4897V178.793ZM105.436 113.978L170.333 50.1291V-13.5223H40.5347V50.1291L105.431 113.978H105.436ZM563.645 49.1641L627.359 -13.5223H563.645V49.1641ZM628.051 -12.8372L563.846 50.3317L628.051 113.501V-12.8372ZM693.438 629.129V501.826L629.031 565.193V692.496L693.438 629.129ZM629.031 563.832L693.438 500.466V373.163L629.031 436.53V563.832ZM692.746 372.478H563.645V499.496L692.746 372.478ZM497.968 565.478L497.767 565.676L497.566 565.478H433.567L562.669 692.496V565.478H497.973H497.968ZM104.249 371.513L-24.8523 244.495V371.513H104.249ZM39.5538 49.1641V-13.5223H-24.1607L39.5538 49.1641ZM301.597 -14.6852L365.802 -77.854H237.392L301.597 -14.6852ZM627.354 -14.4873L563.64 -77.1737V-14.4873H627.354ZM628.536 -14.6852L692.741 -77.854H564.331L628.536 -14.6852ZM629.718 -13.5223L758.819 113.496V-13.5223H629.718ZM629.026 -12.842V114.461L693.433 177.828V50.5247L629.026 -12.842ZM693.433 179.193L629.026 115.826V243.129L693.433 306.496V179.193ZM628.536 244.007L563.64 307.856V371.508H693.438V307.856L628.541 244.007H628.536ZM694.413 371.508H758.128L694.413 308.822V371.508ZM628.536 758.671L564.331 821.84H692.741L628.536 758.671ZM628.046 693.456V437.49L563.841 500.659L563.64 500.856V565.473V693.456L563.841 693.654L563.64 693.852V756.823L628.046 693.456ZM561.962 693.171L497.556 629.805H368.166L432.572 693.171H561.962ZM433.552 694.136L497.757 757.305L561.962 694.136H433.552ZM170.323 757.503V630.485L41.2213 757.503H170.323ZM169.631 629.8H40.2404L-24.1657 693.167H105.225L169.631 629.8ZM169.631 628.835L105.426 565.666L41.2213 628.835H169.631ZM170.323 628.154V565.468H106.608L170.323 628.154ZM170.323 435.835V373.148L106.608 435.835H170.323ZM-24.8376 -143.151H38.8771L-24.8376 -205.837V-143.151ZM-24.8376 -142.186V-14.4825H39.8579L104.754 -78.3317L39.8579 -142.181H-24.8376V-142.186ZM105.652 -78.819H235.043L170.637 -142.186H41.2458L105.652 -78.819ZM562.678 -14.4873V-77.1737L498.964 -14.4873H562.678ZM759.535 -142.186L695.129 -78.819H824.52L888.926 -142.186H759.535ZM824.52 -77.854H694.149L629.743 -14.4873H888.926L824.52 -77.854ZM759.825 373.163V436.134L760.026 436.332L759.825 436.53V629.129L824.231 692.496V436.525L759.825 373.158V373.163ZM825.212 566.163V693.466L889.618 756.832V629.53L825.212 566.163ZM890.599 756.832L954.809 693.668L890.604 630.499V756.837L890.599 756.832ZM825.413 822.332L890.309 886.181H955.01V758.478H890.314L825.418 822.327L825.413 822.332ZM824.515 822.814H695.125L759.531 886.181H888.926L824.52 822.814H824.515ZM562.674 694.831L498.959 757.518H562.674V694.831ZM366.508 759.163L302.793 821.849H366.508V759.163ZM365.816 758.483H171.323H105.647L41.2408 821.849H301.405L365.811 758.483H365.816ZM169.651 822.814H40.2601L-24.146 886.181H105.245L169.651 822.814ZM-24.146 887.146L40.059 950.315L104.264 887.146H-24.146ZM-90.9208 757.513L-90.7197 757.315L-90.5187 757.513H39.853L104.259 694.146H-155.911L-220.317 757.513H-90.9258H-90.9208ZM-25.5339 693.181L38.8721 629.814H-90.5187L-154.925 693.181H-25.5339ZM-90.5187 628.849H39.853L104.259 565.482H-154.925L-90.5187 628.849ZM104.259 564.518L39.853 501.151H-90.5187L-154.925 564.518H104.264H104.259ZM-91.9065 501.151H-220.317L-156.112 564.32L-91.9065 501.151ZM-90.9258 500.186L-26.5197 436.819H-155.911L-220.317 500.186H-90.9258ZM105.24 435.854L169.646 372.487H105.642L105.441 372.685L105.24 372.487H-90.5187L-154.925 435.854H105.24ZM40.2551 -143.146H300.425L236.023 -206.518H-24.146L40.2601 -143.151L40.2551 -143.146ZM237.411 -206.518L366.513 -79.4994V-206.518H237.411ZM367.494 -78.5344L367.695 -78.3365L367.494 -78.1387V-14.4873H496.595L367.494 -141.505V-78.5344ZM432.88 -205.837V-78.5344L497.287 -15.1677V-142.466L432.88 -205.837ZM498.267 -141.505V-15.1677L562.472 -78.3365L498.267 -141.505ZM563.659 -206.518V-79.4994L692.761 -206.518H563.659ZM694.149 -206.518L629.743 -143.151H889.907L954.318 -206.518H694.154H694.149ZM891.295 -143.151H955.01V-205.837L891.295 -143.151ZM955.01 -142.186H890.314L825.418 -78.3365L890.314 -14.4873H955.01V-142.186ZM759.825 -12.8372V49.8492H823.539L759.825 -12.8372ZM824.52 50.8142H759.825V178.518H824.52L824.721 178.32L889.417 114.668L824.52 50.8191V50.8142ZM759.825 179.483V242.169L823.539 179.483H759.825ZM824.721 179.68L760.516 242.849H888.926L824.721 179.68ZM954.318 307.186L889.912 243.819H760.521L824.927 307.186H954.318ZM759.825 244.499V371.518H888.926L759.825 244.499ZM825.212 372.482V436.134L890.108 499.983L955.01 436.134V372.482H825.212ZM955.01 437.499L890.604 500.866V629.134L955.01 692.501V437.495V437.499ZM891.295 757.518H955.01V694.831L891.295 757.518ZM955.01 887.151H891.295L955.01 949.837V887.151ZM889.907 887.151H629.743L694.149 950.517H954.318L889.912 887.151H889.907ZM692.761 950.517L563.659 823.499V950.517H692.761ZM497.777 885.983L562.472 822.332L562.674 822.134V758.483H497.978L497.777 758.68L497.576 758.483H432.88V822.134L497.777 885.983ZM431.9 758.483H368.185L431.9 821.169V758.483ZM366.513 822.814H301.817L236.921 886.663L301.817 950.513H366.513V822.809V822.814ZM300.43 950.517L236.023 887.151H105.652L41.2458 950.517H300.434H300.43ZM38.8771 950.517L-24.8376 887.831V950.517H38.8771ZM-25.8183 758.483H-89.5328L-25.8183 821.169V758.483ZM-26.0194 822.332L-90.2245 759.163V885.501L-26.0194 822.332ZM-155.611 949.832L-91.2053 886.466V759.163L-155.611 822.53V949.832ZM-220.998 885.501L-91.8967 758.483H-220.998V885.501ZM-220.998 756.837L-157.284 694.151H-220.998V756.837ZM-156.303 693.186L-91.4064 629.336L-156.303 565.487H-220.998V693.191H-156.303V693.186ZM-220.998 564.518H-157.284L-220.998 501.831V564.518ZM-91.8967 372.482H-220.998V499.501L-91.8967 372.482ZM-25.8134 370.832V308.146H-89.528L-25.8134 370.832ZM-90.5088 307.181H-25.8134V179.478H-90.5088L-90.71 179.676L-155.405 243.327L-90.5088 307.176V307.181ZM-25.8134 178.513V115.826L-89.528 178.513H-25.8134ZM-90.71 178.315L-26.505 115.146H-154.915L-90.71 178.315ZM-220.302 50.8142L-155.896 114.181H-26.505L-90.911 50.8142H-220.302ZM-25.8085 113.501V-13.5175H-154.91L-25.8085 113.501Z" fill="url(#paint0_radial_612_79970)"/>
  <defs>
    <radialGradient id="paint0_radial_612_79970" cx="0" cy="0" r="1" gradientUnits="userSpaceOnUse" gradientTransform="translate(384.433 372) rotate(180) scale(458.427 475.317)">
      <stop stop-color="white" stop-opacity="0.7"/>
      <stop offset="0.21" stop-color="white" stop-opacity="0.9"/>
      <stop offset="0.43" stop-color="white"/>
      <stop offset="1" stop-color="white" stop-opacity="0"/>
    </radialGradient>
  </defs>
</svg>