<svg width="24" height="24" viewBox="0 0 24 24" fill="none" xmlns="http://www.w3.org/2000/svg">
<path opacity="0.35" d="M21.0002 18V8C21.0002 5.79086 19.2094 4 17.0002 4H8.00024H7.00024C4.79111 4 3.00024 5.79086 3.00024 8V18C3.00024 20.2091 4.79111 22 7.00024 22H17.0002C19.2094 22 21.0002 20.2091 21.0002 18Z" fill="#4B4AD5"/>
<path d="M8.00024 4C8.00024 2.89543 8.89567 2 10.0002 2H14.0002C15.1048 2 16.0002 2.89543 16.0002 4C16.0002 5.10457 15.1048 6 14.0002 6H10.0002C8.89567 6 8.00024 5.10457 8.00024 4Z" fill="#4B4AD5"/>
<g clip-path="url(#clip0_8971_144667)">
<path d="M12 11.75V14L13.875 15.125" stroke="#4B4AD5" stroke-linecap="round" stroke-linejoin="round"/>
<path d="M9.16309 13.0791H7.28809V11.2041" stroke="#4B4AD5" stroke-width="0.75" stroke-linecap="round" stroke-linejoin="round"/>
<path d="M9.16887 17.0002C9.75854 17.5566 10.4991 17.9269 11.298 18.0649C12.097 18.2028 12.9188 18.1022 13.661 17.7758C14.4031 17.4493 15.0325 16.9114 15.4707 16.2292C15.9088 15.547 16.1362 14.7509 16.1244 13.9402C16.1127 13.1295 15.8623 12.3403 15.4046 11.6711C14.9468 11.002 14.3021 10.4825 13.5508 10.1777C12.7995 9.87284 11.9751 9.79615 11.1805 9.9572C10.3859 10.1182 9.65639 10.5099 9.08309 11.0831C8.53137 11.6419 8.07575 12.1688 7.50012 12.8752" stroke="#4B4AD5" stroke-linecap="round" stroke-linejoin="round"/>
</g>
<defs>
<clipPath id="clip0_8971_144667">
<rect width="12" height="12" fill="white" transform="translate(6 8)"/>
</clipPath>
</defs>
</svg>
