<svg width="45" height="45" viewBox="0 0 45 45" fill="none" xmlns="http://www.w3.org/2000/svg">
<path opacity="0.4" d="M39.6985 16.2294C37.6498 7.21479 29.7863 3.15625 22.879 3.15625C22.879 3.15625 22.879 3.15625 22.8595 3.15625C15.9717 3.15625 8.08879 7.19527 6.04001 16.2099C3.75708 26.2782 9.92294 34.805 15.5034 40.1709C17.5717 42.1611 20.2254 43.1562 22.879 43.1562C25.5327 43.1562 28.1863 42.1611 30.2351 40.1709C35.8156 34.805 41.9815 26.2977 39.6985 16.2294Z" fill="#EAE4F4"/>
<path d="M22.8802 26.0056C26.2748 26.0056 29.0266 23.2538 29.0266 19.8592C29.0266 16.4647 26.2748 13.7129 22.8802 13.7129C19.4857 13.7129 16.7339 16.4647 16.7339 19.8592C16.7339 23.2538 19.4857 26.0056 22.8802 26.0056Z" fill="#EAE4F4"/>
</svg>
