<svg width="45" height="45" viewBox="0 0 45 45" fill="none" xmlns="http://www.w3.org/2000/svg">
<path opacity="0.4" d="M2.80078 18.7117C2.80078 15.0297 5.78558 12.0449 9.46751 12.0449H36.1344C39.8164 12.0449 42.8012 15.0297 42.8012 18.7117V36.4896C42.8012 40.1715 39.8164 43.1563 36.1344 43.1563H9.46751C5.78558 43.1563 2.80078 40.1715 2.80078 36.4896V18.7117Z" fill="#EAE4F4"/>
<path opacity="0.4" fill-rule="evenodd" clip-rule="evenodd" d="M18.3572 7.60074C17.1299 7.60074 16.1349 8.59567 16.1349 9.82298V12.0452H11.6904V9.82298C11.6904 6.14105 14.6752 3.15625 18.3572 3.15625H27.2461C30.9281 3.15625 33.9129 6.14105 33.9129 9.82298V12.0452H29.4684V9.82298C29.4684 8.59567 28.4734 7.60074 27.2461 7.60074H18.3572Z" fill="#EAE4F4"/>
<path fill-rule="evenodd" clip-rule="evenodd" d="M22.801 20.9336C21.5737 20.9336 20.5788 21.9285 20.5788 23.1558V25.3781H18.3565C17.1292 25.3781 16.1343 26.373 16.1343 27.6003C16.1343 28.8276 17.1292 29.8226 18.3565 29.8226H20.5788V32.0448C20.5788 33.2721 21.5737 34.2671 22.801 34.2671C24.0283 34.2671 25.0233 33.2721 25.0233 32.0448V29.8226H27.2455C28.4728 29.8226 29.4677 28.8276 29.4677 27.6003C29.4677 26.373 28.4728 25.3781 27.2455 25.3781L25.0233 25.3781V23.1558C25.0233 21.9285 24.0283 20.9336 22.801 20.9336Z" fill="#EAE4F4"/>
</svg>
