<svg width="45" height="45" viewBox="0 0 45 45" fill="none" xmlns="http://www.w3.org/2000/svg">
<path d="M31.6208 7.39445V4.3872C31.6208 3.59683 30.9654 2.94141 30.175 2.94141C29.3846 2.94141 28.7292 3.59683 28.7292 4.3872V7.27879H16.199V4.3872C16.199 3.59683 15.5436 2.94141 14.7532 2.94141C13.9628 2.94141 13.3074 3.59683 13.3074 4.3872V7.39445C8.10255 7.87638 5.57725 10.98 5.1917 15.5873C5.15315 16.1463 5.6158 16.609 6.15556 16.609H38.7726C39.3317 16.609 39.7943 16.127 39.7365 15.5873C39.351 10.98 36.8257 7.87638 31.6208 7.39445Z" fill="#EAE4F4"/>
<path opacity="0.4" d="M37.8846 19.5C38.9449 19.5 39.8123 20.3675 39.8123 21.4277V33.3025C39.8123 39.0857 36.9207 42.9411 30.1737 42.9411H14.7519C8.00487 42.9411 5.11328 39.0857 5.11328 33.3025V21.4277C5.11328 20.3675 5.98076 19.5 7.04101 19.5H37.8846Z" fill="#EAE4F4"/>
<path d="M14.2132 28.4564C13.9749 28.4564 13.7365 28.4014 13.5165 28.3097C13.2965 28.218 13.0949 28.0897 12.9116 27.9247C12.7466 27.7413 12.6182 27.5397 12.5265 27.3197C12.4349 27.0997 12.3799 26.8614 12.3799 26.623C12.3799 26.3847 12.4349 26.1463 12.5265 25.9263C12.6182 25.7063 12.7466 25.5047 12.9116 25.3214C13.0949 25.1564 13.2965 25.028 13.5165 24.9363C13.9565 24.753 14.4699 24.753 14.9099 24.9363C15.1299 25.028 15.3315 25.1564 15.5149 25.3214C15.6799 25.5047 15.8082 25.7063 15.8999 25.9263C15.9916 26.1463 16.0465 26.3847 16.0465 26.623C16.0465 26.8614 15.9916 27.0997 15.8999 27.3197C15.8082 27.5397 15.6799 27.7413 15.5149 27.9247C15.3315 28.0897 15.1299 28.218 14.9099 28.3097C14.6899 28.4014 14.4515 28.4564 14.2132 28.4564Z" fill="#EAE4F4"/>
<path d="M20.6297 28.4564C20.3914 28.4564 20.153 28.4015 19.933 28.3098C19.713 28.2181 19.5114 28.0897 19.3281 27.9247C18.9981 27.5764 18.7964 27.0998 18.7964 26.6231C18.7964 26.1464 18.9981 25.6698 19.3281 25.3214C19.5114 25.1564 19.713 25.0281 19.933 24.9364C20.373 24.7347 20.8864 24.7347 21.3264 24.9364C21.5464 25.0281 21.748 25.1564 21.9314 25.3214C22.2614 25.6698 22.4631 26.1464 22.4631 26.6231C22.4631 27.0998 22.2614 27.5764 21.9314 27.9247C21.748 28.0897 21.5464 28.2181 21.3264 28.3098C21.1064 28.4015 20.8681 28.4564 20.6297 28.4564Z" fill="#EAE4F4"/>
<path d="M14.2132 34.8743C13.9749 34.8743 13.7365 34.8193 13.5165 34.7277C13.2965 34.636 13.0949 34.5076 12.9116 34.3426C12.5816 33.9943 12.3799 33.5177 12.3799 33.041C12.3799 32.5643 12.5816 32.0877 12.9116 31.7393C13.0949 31.5743 13.2965 31.446 13.5165 31.3543C13.9565 31.171 14.4699 31.171 14.9099 31.3543C15.1299 31.446 15.3315 31.5743 15.5149 31.7393C15.8449 32.0877 16.0465 32.5643 16.0465 33.041C16.0465 33.5177 15.8449 33.9943 15.5149 34.3426C15.3315 34.5076 15.1299 34.636 14.9099 34.7277C14.6899 34.8193 14.4515 34.8743 14.2132 34.8743Z" fill="#EAE4F4"/>
</svg>
