<svg width="45" height="45" viewBox="0 0 45 45" fill="none" xmlns="http://www.w3.org/2000/svg">
<path opacity="0.4" d="M39.3975 19.3214H33.6175C28.8775 19.3214 25.0175 15.4614 25.0175 10.7214V4.94141C25.0175 3.84141 24.1175 2.94141 23.0175 2.94141H14.5375C8.37746 2.94141 3.39746 6.94141 3.39746 14.0814V31.8014C3.39746 38.9414 8.37746 42.9414 14.5375 42.9414H30.2575C36.4175 42.9414 41.3975 38.9414 41.3975 31.8014V21.3214C41.3975 20.2214 40.4975 19.3214 39.3975 19.3214Z" fill="#EAE4F4"/>
<path d="M29.9954 3.36237C29.1754 2.54237 27.7554 3.10237 27.7554 4.24237V11.2224C27.7554 14.1424 30.2354 16.5624 33.2554 16.5624C35.1554 16.5824 37.7954 16.5824 40.0554 16.5824C41.1954 16.5824 41.7954 15.2424 40.9954 14.4424C38.1154 11.5424 32.9554 6.32237 29.9954 3.36237Z" fill="#EAE4F4"/>
<path d="M25.397 26.4414H13.397C12.577 26.4414 11.897 25.7614 11.897 24.9414C11.897 24.1214 12.577 23.4414 13.397 23.4414H25.397C26.217 23.4414 26.897 24.1214 26.897 24.9414C26.897 25.7614 26.217 26.4414 25.397 26.4414Z" fill="#EAE4F4"/>
<path d="M21.397 34.4414H13.397C12.577 34.4414 11.897 33.7614 11.897 32.9414C11.897 32.1214 12.577 31.4414 13.397 31.4414H21.397C22.217 31.4414 22.897 32.1214 22.897 32.9414C22.897 33.7614 22.217 34.4414 21.397 34.4414Z" fill="#EAE4F4"/>
</svg>
