<svg width="25" height="25" viewBox="0 0 25 25" fill="none" xmlns="http://www.w3.org/2000/svg">
<g clip-path="url(#clip0_5189_371196)">
<path opacity="0.35" fill-rule="evenodd" clip-rule="evenodd" d="M20.3748 7.66927L16.0142 2.66583C15.9197 2.56961 15.8117 2.47339 15.6767 2.43216C15.5687 2.36343 15.4202 2.33594 15.2852 2.33594H7.42804C7.10403 2.33594 6.78003 2.39092 6.46952 2.51463C6.15901 2.63834 5.88901 2.83078 5.65951 3.05071C5.43 3.28439 5.241 3.55931 5.106 3.86171C4.98449 4.17786 4.91699 4.50776 4.91699 4.83766V19.8342C4.91699 20.1641 4.98449 20.494 5.1195 20.8102C5.241 21.1126 5.43 21.3875 5.67301 21.6212C5.90251 21.8548 6.18602 22.0473 6.48302 22.1572C6.78003 22.2672 7.11753 22.3359 7.44154 22.3359H18.1337C18.4577 22.3359 18.7817 22.281 19.0922 22.1572C19.4028 22.0335 19.6728 21.8411 19.9023 21.6212C20.1318 21.3875 20.3208 21.1126 20.4558 20.8102C20.5773 20.494 20.6583 20.1641 20.6583 19.8342V8.34281C20.6313 8.08164 20.5503 7.84796 20.3748 7.66927ZM15.4337 8.34281C15.2312 8.32906 15.0422 8.2191 14.9072 8.0679C14.7857 7.90295 14.7047 7.71051 14.7317 7.50432V4.34281L18.4172 8.34281H15.4337Z" fill="#A461D8"/>
<path fill-rule="evenodd" clip-rule="evenodd" d="M18.417 8.34375H15.447C15.2445 8.33 15.0555 8.22004 14.9205 8.06884C14.7989 7.90389 14.7179 7.71145 14.7449 7.50526V4.34375L18.417 8.34375Z" fill="#A461D8"/>
<path d="M13.2599 14.1705C14.3805 13.8956 15.069 12.7547 14.8125 11.6138C14.5425 10.4729 13.4219 9.7719 12.3014 10.0331C11.1809 10.308 10.4924 11.4489 10.7489 12.5898C11.0054 13.7307 12.1394 14.4317 13.2599 14.1705Z" fill="#A461D8"/>
<path d="M15.3931 14.5014C15.2446 14.4052 15.0691 14.3639 14.8801 14.3502C14.6236 14.3502 14.3671 14.4601 14.1781 14.6388C13.7866 14.9962 13.4896 15.2437 12.7741 15.2437C12.072 15.2437 11.748 14.9825 11.3835 14.6388C11.208 14.4739 11.0055 14.3639 10.776 14.3502C10.56 14.3364 10.344 14.3777 10.1685 14.5014C9.6285 14.845 8.52148 15.8897 8.52148 18.7763C8.52148 18.8863 8.52148 18.9962 8.52148 19.1062C8.53498 19.3399 8.72399 19.5323 8.95349 19.5323H10.695H11.937H13.5571H14.7586H16.5946C16.8241 19.5323 17.0266 19.3399 17.0266 19.1062C17.0266 18.9962 17.0266 18.8863 17.0266 18.7763C17.0401 15.8897 15.9331 14.845 15.3931 14.5014ZM15.7441 17.9103H14.8801V18.79H13.7731V17.9103H12.9091V16.7832H13.7731V15.9034H14.8801V16.7832H15.7441V17.9103Z" fill="#A461D8"/>
</g>
<defs>
<clipPath id="clip0_5189_371196">
<rect width="15.7143" height="20" fill="white" transform="translate(4.91699 2.33594)"/>
</clipPath>
</defs>
</svg>
