<svg width="24" height="25" viewBox="0 0 24 25" fill="none" xmlns="http://www.w3.org/2000/svg">
<path opacity="0.35" fill-rule="evenodd" clip-rule="evenodd" d="M13 2.20312H11V6.28609C10.0882 6.43904 9.24622 6.79764 8.52323 7.31254L5.63602 4.42532L4.22181 5.83954L7.10909 8.72682C6.59436 9.4497 6.23589 10.2915 6.08296 11.2031H2V13.2031H6.08296C6.23589 14.1147 6.59437 14.9565 7.10911 15.6794L4.22171 18.5668L5.63593 19.981L8.52327 17.0937C9.24625 17.6086 10.0883 17.9672 11 18.1201V22.2031H13V18.1201C13.9116 17.9672 14.7535 17.6087 15.4764 17.0939L18.3641 19.9816L19.7783 18.5674L16.8907 15.6797C17.4055 14.9568 17.7641 14.1148 17.917 13.2031H22V11.2031H17.917C17.7641 10.2914 17.4055 9.44937 16.8906 8.72639L19.778 5.83902L18.3638 4.42481L15.4763 7.31223C14.7534 6.79749 13.9116 6.43901 13 6.28609V2.20312Z" fill="#A461D8"/>
<path fill-rule="evenodd" clip-rule="evenodd" d="M19.778 7.25301C20.1685 6.86247 20.1685 6.22931 19.778 5.83879L18.3638 4.42458C17.9733 4.03406 17.3401 4.03406 16.9496 4.42458C16.5591 4.8151 16.559 5.44827 16.9496 5.83879L18.3638 7.25301C18.7543 7.64353 19.3875 7.64353 19.778 7.25301ZM14 3.20312C14 2.65083 13.5523 2.20312 13 2.20312H11C10.4477 2.20312 10 2.65083 10 3.20312C10 3.7554 10.4477 4.20313 11 4.20313H13C13.5523 4.20313 14 3.7554 14 3.20312ZM21 14.2031C21.5523 14.2031 22 13.7554 22 13.2031V11.2031C22 10.6508 21.5523 10.2031 21 10.2031C20.4477 10.2031 20 10.6508 20 11.2031V13.2031C20 13.7554 20.4477 14.2031 21 14.2031ZM3 14.2031C3.55229 14.2031 4 13.7554 4 13.2031V11.2031C4 10.6508 3.55229 10.2031 3 10.2031C2.44772 10.2031 2 10.6508 2 11.2031V13.2031C2 13.7554 2.44772 14.2031 3 14.2031ZM13 20.2031C13.5523 20.2031 14 20.6508 14 21.2031C14 21.7554 13.5523 22.2031 13 22.2031H11C10.4477 22.2031 10 21.7554 10 21.2031C10 20.6508 10.4477 20.2031 11 20.2031H13ZM5.63606 7.25383C5.24554 7.64436 4.61237 7.64436 4.22185 7.25383C3.83133 6.86331 3.83133 6.23013 4.22185 5.83962L5.63606 4.42541C6.02659 4.03488 6.65975 4.03488 7.05028 4.42541C7.4408 4.81593 7.4408 5.4491 7.05028 5.83962L5.63606 7.25383ZM16.9499 19.9813C17.3404 20.3719 17.9736 20.3719 18.3641 19.9813L19.7783 18.5671C20.1688 18.1766 20.1688 17.5434 19.7783 17.1529C19.3878 16.7624 18.7546 16.7624 18.3641 17.1529L16.9499 18.5671C16.5594 18.9576 16.5594 19.5908 16.9499 19.9813ZM7.05022 18.5673C7.44074 18.9578 7.44074 19.591 7.05022 19.9815C6.65969 20.372 6.02653 20.372 5.636 19.9815L4.22179 18.5673C3.83127 18.1767 3.83127 17.5436 4.22179 17.1531C4.61231 16.7625 5.24548 16.7625 5.636 17.1531L7.05022 18.5673Z" fill="#A461D8"/>
</svg>
