<svg width="25" height="25" viewBox="0 0 25 25" fill="none" xmlns="http://www.w3.org/2000/svg">
<path d="M9.0885 13.4648H7.8285C7.57647 13.4648 7.45046 13.4648 7.3542 13.5139C7.26953 13.557 7.20069 13.6259 7.15754 13.7105C7.1085 13.8068 7.1085 13.9328 7.1085 14.1848V15.8948C7.1085 16.1469 7.1085 16.2729 7.05945 16.3691C7.01631 16.4538 6.94746 16.5227 6.86279 16.5658C6.76653 16.6148 6.64051 16.6148 6.3885 16.6148H4.6785C4.42647 16.6148 4.30046 16.6148 4.2042 16.6639C4.11953 16.707 4.05069 16.7759 4.00754 16.8605C3.9585 16.9568 3.9585 17.0828 3.9585 17.3348V18.5948C3.9585 18.8469 3.9585 18.9729 4.00754 19.0691C4.05069 19.1538 4.11953 19.2227 4.2042 19.2658C4.30046 19.3148 4.42647 19.3148 4.6785 19.3148H6.3885C6.64052 19.3148 6.76653 19.3148 6.86279 19.3639C6.94746 19.407 7.01631 19.4759 7.05945 19.5605C7.1085 19.6568 7.1085 19.7828 7.1085 20.0348V21.7448C7.1085 21.9969 7.1085 22.1229 7.15754 22.2191C7.20069 22.3038 7.26953 22.3727 7.3542 22.4158C7.45046 22.4648 7.57647 22.4648 7.8285 22.4648H9.0885C9.34052 22.4648 9.46653 22.4648 9.56279 22.4158C9.64746 22.3727 9.71631 22.3038 9.75945 22.2191C9.8085 22.1229 9.8085 21.9969 9.8085 21.7448V20.0348C9.8085 19.7828 9.8085 19.6568 9.85754 19.5605C9.90069 19.4759 9.96953 19.407 10.0542 19.3639C10.1505 19.3148 10.2765 19.3148 10.5285 19.3148H12.2385C12.4905 19.3148 12.6165 19.3148 12.7128 19.2658C12.7975 19.2227 12.8663 19.1538 12.9094 19.0691C12.9585 18.9729 12.9585 18.8469 12.9585 18.5948V17.3348C12.9585 17.0828 12.9585 16.9568 12.9094 16.8605C12.8663 16.7759 12.7975 16.707 12.7128 16.6639C12.6165 16.6148 12.4905 16.6148 12.2385 16.6148H10.5285C10.2765 16.6148 10.1505 16.6148 10.0542 16.5658C9.96953 16.5227 9.90069 16.4538 9.85754 16.3691C9.8085 16.2729 9.8085 16.1469 9.8085 15.8948V14.1848C9.8085 13.9328 9.8085 13.8068 9.75945 13.7105C9.71631 13.6259 9.64746 13.557 9.56279 13.5139C9.46653 13.4648 9.34052 13.4648 9.0885 13.4648Z" fill="#A461D8"/>
<path opacity="0.35" d="M7.49263 4.34825C7.82046 4.16466 8.20078 4.06918 8.70913 4.01953C8.73776 5.23739 9.73384 6.21573 10.9585 6.21573H15.9585C17.1831 6.21573 18.1792 5.23739 18.2079 4.01953C18.7162 4.06918 19.0965 4.16466 19.4244 4.34825C19.9071 4.61858 20.3056 5.01715 20.576 5.49987C20.9585 6.18289 20.9585 7.09384 20.9585 8.91573V17.5157C20.9585 19.3376 20.9585 20.2486 20.576 20.9316C20.3056 21.4143 19.9071 21.8129 19.4244 22.0832C18.7413 22.4657 17.8304 22.4657 16.0085 22.4657H10.9431C10.9774 22.3382 10.9912 22.225 10.9982 22.139C11.0085 22.0133 11.0084 21.8732 11.0083 21.7688L11.0083 20.5157L12.2614 20.5158C12.3658 20.5158 12.5059 20.5159 12.6316 20.5056C12.7808 20.4934 13.0119 20.461 13.2574 20.3359C13.5679 20.1777 13.8203 19.9253 13.9785 19.6148C14.1036 19.3693 14.136 19.1383 14.1482 18.989C14.1585 18.8633 14.1584 18.7232 14.1583 18.6188V17.3127C14.1584 17.2082 14.1585 17.0682 14.1482 16.9425C14.136 16.7932 14.1036 16.5621 13.9785 16.3167C13.8203 16.0062 13.5679 15.7538 13.2574 15.5956C13.0119 15.4705 12.7808 15.4381 12.6316 15.4259C12.5059 15.4156 12.3658 15.4157 12.2614 15.4157L11.0083 15.4157L11.0083 14.1627C11.0084 14.0582 11.0085 13.9182 10.9982 13.7925C10.986 13.6432 10.9536 13.4121 10.8285 13.1667C10.6703 12.8562 10.4179 12.6038 10.1074 12.4456C9.86191 12.3205 9.63085 12.2881 9.4816 12.2759C9.35587 12.2656 9.21581 12.2657 9.11139 12.2657H7.80525C7.70083 12.2657 7.56077 12.2656 7.43504 12.2759C7.2858 12.2881 7.05473 12.3205 6.80924 12.4456C6.49877 12.6038 6.24635 12.8562 6.08816 13.1667C6.02354 13.2935 5.98365 13.4164 5.9585 13.5263V8.91573C5.9585 7.09384 5.9585 6.18289 6.34101 5.49987C6.61135 5.01715 7.00991 4.61858 7.49263 4.34825Z" fill="#A461D8"/>
<path d="M10.9585 2.46484H15.9585C16.7869 2.46484 17.4585 3.13642 17.4585 3.96484L17.4585 3.97618C17.4524 4.79939 16.7831 5.46484 15.9585 5.46484H10.9585C10.1339 5.46484 9.46463 4.79939 9.45854 3.97618L9.4585 3.96484C9.4585 3.13642 10.1301 2.46484 10.9585 2.46484Z" fill="#A461D8"/>
</svg>
