<svg width="45" height="45" viewBox="0 0 45 45" fill="none" xmlns="http://www.w3.org/2000/svg">
<path opacity="0.4" d="M31.4146 2.84375H14.4546C8.93457 2.84375 6.93457 4.84375 6.93457 10.4637V35.2238C6.93457 40.8438 8.93457 42.8438 14.4546 42.8438H31.3946C36.9346 42.8438 38.9346 40.8438 38.9346 35.2238V10.4637C38.9346 4.84375 36.9346 2.84375 31.4146 2.84375Z" fill="#EAE4F4"/>
<path d="M26.9346 11.3438H18.9346C18.1146 11.3438 17.4346 10.6637 17.4346 9.84375C17.4346 9.02375 18.1146 8.34375 18.9346 8.34375H26.9346C27.7546 8.34375 28.4346 9.02375 28.4346 9.84375C28.4346 10.6637 27.7546 11.3438 26.9346 11.3438Z" fill="#EAE4F4"/>
<path d="M22.9331 37.4434C24.8661 37.4434 26.4331 35.8764 26.4331 33.9434C26.4331 32.0104 24.8661 30.4434 22.9331 30.4434C21.0001 30.4434 19.4331 32.0104 19.4331 33.9434C19.4331 35.8764 21.0001 37.4434 22.9331 37.4434Z" fill="#EAE4F4"/>
</svg>
