<svg width="25" height="25" viewBox="0 0 25 25" fill="none" xmlns="http://www.w3.org/2000/svg">
<path d="M22.625 12.918H20.145C19.708 12.917 19.2827 13.0593 18.9341 13.3229C18.5856 13.5866 18.333 13.9572 18.215 14.378L15.865 22.738C15.8499 22.7899 15.8183 22.8355 15.775 22.868C15.7317 22.9004 15.6791 22.918 15.625 22.918C15.5709 22.918 15.5183 22.9004 15.475 22.868C15.4317 22.8355 15.4001 22.7899 15.385 22.738L9.865 3.09797C9.84985 3.04604 9.81827 3.00042 9.775 2.96797C9.73173 2.93551 9.67909 2.91797 9.625 2.91797C9.57091 2.91797 9.51827 2.93551 9.475 2.96797C9.43173 3.00042 9.40015 3.04604 9.385 3.09797L7.035 11.458C6.91746 11.8771 6.66638 12.2465 6.31986 12.51C5.97335 12.7735 5.55032 12.9167 5.115 12.918H2.625" stroke="#A461D8" stroke-width="2" stroke-linecap="round" stroke-linejoin="round"/>
</svg>
