<svg width="24" height="25" viewBox="0 0 24 25" fill="none" xmlns="http://www.w3.org/2000/svg">
<path d="M22 12.7656H19.52C19.083 12.7647 18.6577 12.9069 18.3091 13.1706C17.9606 13.4343 17.708 13.8048 17.59 14.2256L15.24 22.5856C15.2249 22.6376 15.1933 22.6832 15.15 22.7156C15.1067 22.7481 15.0541 22.7656 15 22.7656C14.9459 22.7656 14.8933 22.7481 14.85 22.7156C14.8067 22.6832 14.7751 22.6376 14.76 22.5856L9.24 2.94563C9.22485 2.8937 9.19327 2.84808 9.15 2.81562C9.10673 2.78317 9.05409 2.76562 9 2.76562C8.94591 2.76562 8.89327 2.78317 8.85 2.81562C8.80673 2.84808 8.77515 2.8937 8.76 2.94563L6.41 11.3056C6.29246 11.7248 6.04138 12.0941 5.69486 12.3576C5.34835 12.6211 4.92532 12.7644 4.49 12.7656H2" stroke="#A461D8" stroke-width="2.25" stroke-linecap="round" stroke-linejoin="round"/>
</svg>
