<svg width="24" height="25" viewBox="0 0 24 25" fill="none" xmlns="http://www.w3.org/2000/svg">
<path d="M22 12.8008H19.52C19.083 12.7998 18.6577 12.9421 18.3091 13.2057C17.9606 13.4694 17.708 13.84 17.59 14.2608L15.24 22.6208C15.2249 22.6727 15.1933 22.7183 15.15 22.7508C15.1067 22.7832 15.0541 22.8008 15 22.8008C14.9459 22.8008 14.8933 22.7832 14.85 22.7508C14.8067 22.7183 14.7751 22.6727 14.76 22.6208L9.24 2.98078C9.22485 2.92885 9.19327 2.88324 9.15 2.85078C9.10673 2.81833 9.05409 2.80078 9 2.80078C8.94591 2.80078 8.89327 2.81833 8.85 2.85078C8.80673 2.88324 8.77515 2.92885 8.76 2.98078L6.41 11.3408C6.29246 11.7599 6.04138 12.1293 5.69486 12.3928C5.34835 12.6563 4.92532 12.7995 4.49 12.8008H2" stroke="#581C87" stroke-width="2.25" stroke-linecap="round" stroke-linejoin="round"/>
</svg>
