<svg width="24" height="25" viewBox="0 0 24 25" fill="none" xmlns="http://www.w3.org/2000/svg">
<path d="M21.9995 12.332H19.5195C19.0825 12.3311 18.6572 12.4733 18.3086 12.737C17.9601 13.0007 17.7075 13.3712 17.5895 13.792L15.2395 22.152C15.2244 22.204 15.1928 22.2496 15.1495 22.282C15.1062 22.3145 15.0536 22.332 14.9995 22.332C14.9454 22.332 14.8928 22.3145 14.8495 22.282C14.8062 22.2496 14.7747 22.204 14.7595 22.152L9.23951 2.51203C9.22437 2.4601 9.19279 2.41449 9.14951 2.38203C9.10624 2.34958 9.0536 2.33203 8.99951 2.33203C8.94542 2.33203 8.89279 2.34958 8.84951 2.38203C8.80624 2.41449 8.77466 2.4601 8.75951 2.51203L6.40951 10.872C6.29198 11.2912 6.04089 11.6605 5.69438 11.924C5.34786 12.1875 4.92483 12.3308 4.48951 12.332H1.99951" stroke="white" stroke-width="2.25" stroke-linecap="round" stroke-linejoin="round"/>
</svg>
