<svg width="24" height="25" viewBox="0 0 24 25" fill="none" xmlns="http://www.w3.org/2000/svg">
<path opacity="0.35" fill-rule="evenodd" clip-rule="evenodd" d="M17.25 11.5156C16.1454 11.5156 15.25 12.4111 15.25 13.5156V19.0156C15.25 21.5009 13.2353 23.5156 10.75 23.5156C8.26472 23.5156 6.25 21.5009 6.25 19.0156V13.7656C6.25 13.3514 6.58579 13.0156 7 13.0156C7.41421 13.0156 7.75 13.3514 7.75 13.7656V19.0156C7.75 20.6725 9.09315 22.0156 10.75 22.0156C12.4069 22.0156 13.75 20.6725 13.75 19.0156V13.5156C13.75 11.5826 15.317 10.0156 17.25 10.0156C19.183 10.0156 20.75 11.5826 20.75 13.5156V14.7656C20.75 15.1798 20.4142 15.5156 20 15.5156C19.5858 15.5156 19.25 15.1798 19.25 14.7656V13.5156C19.25 12.4111 18.3546 11.5156 17.25 11.5156Z" fill="#A461D8"/>
<path d="M22 16.7656C22 17.8702 21.1046 18.7656 20 18.7656C18.8954 18.7656 18 17.8702 18 16.7656C18 15.6611 18.8954 14.7656 20 14.7656C21.1046 14.7656 22 15.6611 22 16.7656Z" fill="#A461D8"/>
<path d="M3.25 4.76758C2.94668 4.99565 2.75 5.35788 2.75 5.7666V8.7666C2.75 11.1138 4.65279 13.0166 7 13.0166C9.34721 13.0166 11.25 11.1138 11.25 8.7666V5.7666C11.25 5.3576 11.0527 4.99562 10.749 4.76758L10.75 4.7666V3.12305C11.9039 3.44976 12.75 4.5081 12.75 5.7666V8.7666C12.75 11.9422 10.1756 14.5166 7 14.5166C3.82436 14.5166 1.25 11.9422 1.25 8.7666V5.7666C1.25 4.5081 2.09614 3.44976 3.25 3.12305V4.76758Z" fill="#A461D8"/>
<path opacity="0.35" fill-rule="evenodd" clip-rule="evenodd" d="M10 2.01562C10.4142 2.01562 10.75 2.35141 10.75 2.76562V4.76562C10.75 5.17984 10.4142 5.51562 10 5.51562C9.58579 5.51562 9.25 5.17984 9.25 4.76562V2.76562C9.25 2.35141 9.58579 2.01562 10 2.01562Z" fill="#A461D8"/>
<path opacity="0.35" fill-rule="evenodd" clip-rule="evenodd" d="M4 2.01562C4.41421 2.01562 4.75 2.35141 4.75 2.76562V4.76562C4.75 5.17984 4.41421 5.51562 4 5.51562C3.58579 5.51562 3.25 5.17984 3.25 4.76562V2.76562C3.25 2.35141 3.58579 2.01562 4 2.01562Z" fill="#A461D8"/>
</svg>
