<svg width="24" height="25" viewBox="0 0 24 25" fill="none" xmlns="http://www.w3.org/2000/svg">
<path opacity="0.35" fill-rule="evenodd" clip-rule="evenodd" d="M17.25 11.0801C16.1454 11.0801 15.25 11.9755 15.25 13.0801V18.5801C15.25 21.0654 13.2353 23.0801 10.75 23.0801C8.26472 23.0801 6.25 21.0654 6.25 18.5801V13.3301C6.25 12.9159 6.58579 12.5801 7 12.5801C7.41421 12.5801 7.75 12.9159 7.75 13.3301V18.5801C7.75 20.2369 9.09315 21.5801 10.75 21.5801C12.4069 21.5801 13.75 20.2369 13.75 18.5801V13.0801C13.75 11.1471 15.317 9.58008 17.25 9.58008C19.183 9.58008 20.75 11.1471 20.75 13.0801V14.3301C20.75 14.7443 20.4142 15.0801 20 15.0801C19.5858 15.0801 19.25 14.7443 19.25 14.3301V13.0801C19.25 11.9755 18.3546 11.0801 17.25 11.0801Z" fill="white"/>
<path d="M22 16.3301C22 17.4346 21.1046 18.3301 20 18.3301C18.8954 18.3301 18 17.4346 18 16.3301C18 15.2255 18.8954 14.3301 20 14.3301C21.1046 14.3301 22 15.2255 22 16.3301Z" fill="white"/>
<path d="M3.25 4.33203C2.94668 4.56011 2.75 4.92233 2.75 5.33105V8.33105C2.75 10.6783 4.65279 12.5811 7 12.5811C9.34721 12.5811 11.25 10.6783 11.25 8.33105V5.33105C11.25 4.92205 11.0527 4.56008 10.749 4.33203L10.75 4.33105V2.6875C11.9039 3.01422 12.75 4.07256 12.75 5.33105V8.33105C12.75 11.5067 10.1756 14.0811 7 14.0811C3.82436 14.0811 1.25 11.5067 1.25 8.33105V5.33105C1.25 4.07256 2.09614 3.01422 3.25 2.6875V4.33203Z" fill="white"/>
<path opacity="0.35" fill-rule="evenodd" clip-rule="evenodd" d="M10 1.58008C10.4142 1.58008 10.75 1.91586 10.75 2.33008V4.33008C10.75 4.74429 10.4142 5.08008 10 5.08008C9.58579 5.08008 9.25 4.74429 9.25 4.33008V2.33008C9.25 1.91586 9.58579 1.58008 10 1.58008Z" fill="white"/>
<path opacity="0.35" fill-rule="evenodd" clip-rule="evenodd" d="M4 1.58008C4.41421 1.58008 4.75 1.91586 4.75 2.33008V4.33008C4.75 4.74429 4.41421 5.08008 4 5.08008C3.58579 5.08008 3.25 4.74429 3.25 4.33008V2.33008C3.25 1.91586 3.58579 1.58008 4 1.58008Z" fill="white"/>
</svg>
