<svg width="25" height="25" viewBox="0 0 25 25" fill="none" xmlns="http://www.w3.org/2000/svg">
<path d="M11.125 2.91797V4.91797" stroke="#A461D8" stroke-width="2" stroke-linecap="round" stroke-linejoin="round"/>
<path d="M5.125 2.91797V4.91797" stroke="#A461D8" stroke-width="2" stroke-linecap="round" stroke-linejoin="round"/>
<path d="M5.125 3.91602H4.125C3.59457 3.91602 3.08586 4.12673 2.71079 4.5018C2.33571 4.87687 2.125 5.38558 2.125 5.91602V9.91602C2.125 11.5073 2.75714 13.0334 3.88236 14.1587C5.00758 15.2839 6.5337 15.916 8.125 15.916C9.7163 15.916 11.2424 15.2839 12.3676 14.1587C13.4929 13.0334 14.125 11.5073 14.125 9.91602V5.91602C14.125 5.38558 13.9143 4.87687 13.5392 4.5018C13.1641 4.12673 12.6554 3.91602 12.125 3.91602H11.125" stroke="#A461D8" stroke-width="2" stroke-linecap="round" stroke-linejoin="round"/>
<path d="M8.125 15.916C8.125 17.5073 8.75714 19.0334 9.88236 20.1587C11.0076 21.2839 12.5337 21.916 14.125 21.916C15.7163 21.916 17.2424 21.2839 18.3676 20.1587C19.4929 19.0334 20.125 17.5073 20.125 15.916V12.916" stroke="#A461D8" stroke-width="2" stroke-linecap="round" stroke-linejoin="round"/>
<path d="M20.1245 12.918C21.2291 12.918 22.1245 12.0225 22.1245 10.918C22.1245 9.8134 21.2291 8.91797 20.1245 8.91797C19.0199 8.91797 18.1245 9.8134 18.1245 10.918C18.1245 12.0225 19.0199 12.918 20.1245 12.918Z" stroke="#A461D8" stroke-width="2" stroke-linecap="round" stroke-linejoin="round"/>
</svg>
