<svg width="24" height="25" viewBox="0 0 24 25" fill="none" xmlns="http://www.w3.org/2000/svg">
<path opacity="0.35" fill-rule="evenodd" clip-rule="evenodd" d="M17.25 11.5508C16.1454 11.5508 15.25 12.4462 15.25 13.5508V19.0508C15.25 21.5361 13.2353 23.5508 10.75 23.5508C8.26472 23.5508 6.25 21.5361 6.25 19.0508V13.8008C6.25 13.3866 6.58579 13.0508 7 13.0508C7.41421 13.0508 7.75 13.3866 7.75 13.8008V19.0508C7.75 20.7076 9.09315 22.0508 10.75 22.0508C12.4069 22.0508 13.75 20.7076 13.75 19.0508V13.5508C13.75 11.6178 15.317 10.0508 17.25 10.0508C19.183 10.0508 20.75 11.6178 20.75 13.5508V14.8008C20.75 15.215 20.4142 15.5508 20 15.5508C19.5858 15.5508 19.25 15.215 19.25 14.8008V13.5508C19.25 12.4462 18.3546 11.5508 17.25 11.5508Z" fill="#581C87"/>
<path d="M22 16.8008C22 17.9054 21.1046 18.8008 20 18.8008C18.8954 18.8008 18 17.9054 18 16.8008C18 15.6962 18.8954 14.8008 20 14.8008C21.1046 14.8008 22 15.6962 22 16.8008Z" fill="#581C87"/>
<path d="M3.25 4.80273C2.94668 5.03081 2.75 5.39303 2.75 5.80176V8.80176C2.75 11.149 4.65279 13.0518 7 13.0518C9.34721 13.0518 11.25 11.149 11.25 8.80176V5.80176C11.25 5.39275 11.0527 5.03078 10.749 4.80273L10.75 4.80176V3.1582C11.9039 3.48492 12.75 4.54326 12.75 5.80176V8.80176C12.75 11.9774 10.1756 14.5518 7 14.5518C3.82436 14.5518 1.25 11.9774 1.25 8.80176V5.80176C1.25 4.54326 2.09614 3.48492 3.25 3.1582V4.80273Z" fill="#581C87"/>
<path opacity="0.35" fill-rule="evenodd" clip-rule="evenodd" d="M10 2.05078C10.4142 2.05078 10.75 2.38657 10.75 2.80078V4.80078C10.75 5.21499 10.4142 5.55078 10 5.55078C9.58579 5.55078 9.25 5.21499 9.25 4.80078V2.80078C9.25 2.38657 9.58579 2.05078 10 2.05078Z" fill="#581C87"/>
<path opacity="0.35" fill-rule="evenodd" clip-rule="evenodd" d="M4 2.05078C4.41421 2.05078 4.75 2.38657 4.75 2.80078V4.80078C4.75 5.21499 4.41421 5.55078 4 5.55078C3.58579 5.55078 3.25 5.21499 3.25 4.80078V2.80078C3.25 2.38657 3.58579 2.05078 4 2.05078Z" fill="#581C87"/>
</svg>
