<svg width="25" height="25" viewBox="0 0 25 25" fill="none" xmlns="http://www.w3.org/2000/svg">
<path opacity="0.35" fill-rule="evenodd" clip-rule="evenodd" d="M12.917 22.6719C18.4398 22.6719 22.917 18.1947 22.917 12.6719C22.917 7.14903 18.4398 2.67188 12.917 2.67188C7.39414 2.67188 2.91699 7.14903 2.91699 12.6719C2.91699 18.1947 7.39414 22.6719 12.917 22.6719Z" fill="#A461D8"/>
<path d="M15.2099 7.96477C15.6004 7.57424 16.2336 7.57424 16.6241 7.96477C17.0146 8.35529 17.0146 8.98846 16.6241 9.37898L13.6241 12.379C13.2336 12.7695 12.6004 12.7695 12.2099 12.379C11.8194 11.9885 11.8194 11.3553 12.2099 10.9648L15.2099 7.96477Z" fill="#A461D8"/>
<path d="M7.20989 10.9648C7.60041 10.5742 8.23357 10.5742 8.6241 10.9648L9.6241 11.9648C10.0146 12.3553 10.0146 12.9885 9.6241 13.379C9.23357 13.7695 8.60041 13.7695 8.20989 13.379L7.20989 12.379C6.81936 11.9885 6.81936 11.3553 7.20989 10.9648Z" fill="#A461D8"/>
<path d="M10.917 9.67188C11.4693 9.67188 11.917 9.22416 11.917 8.67188C11.917 8.11959 11.4693 7.67188 10.917 7.67188C10.3647 7.67188 9.91699 8.11959 9.91699 8.67188C9.91699 9.22416 10.3647 9.67188 10.917 9.67188Z" fill="#A461D8"/>
<path d="M10.917 16.6719C10.917 17.2242 10.4693 17.6719 9.91699 17.6719C9.36471 17.6719 8.91699 17.2242 8.91699 16.6719C8.91699 16.1196 9.36471 15.6719 9.91699 15.6719C10.4693 15.6719 10.917 16.1196 10.917 16.6719Z" fill="#A461D8"/>
<path d="M18.917 12.1719C18.917 11.6196 18.4693 11.1719 17.917 11.1719C17.3647 11.1719 16.917 11.6196 16.917 12.1719V12.6719C16.917 13.2242 16.4693 13.6719 15.917 13.6719C14.2601 13.6719 12.917 15.015 12.917 16.6719V17.1719C12.917 17.7242 13.3647 18.1719 13.917 18.1719C14.4693 18.1719 14.917 17.7242 14.917 17.1719V16.6719C14.917 16.1196 15.3647 15.6719 15.917 15.6719C17.5738 15.6719 18.917 14.3287 18.917 12.6719V12.1719Z" fill="#A461D8"/>
</svg>
