<svg width="25" height="25" viewBox="0 0 25 25" fill="none" xmlns="http://www.w3.org/2000/svg">
<g clip-path="url(#clip0_5189_371370)">
<g clip-path="url(#clip1_5189_371370)">
<path d="M4.9585 10.9062C4.9585 8.91713 5.74867 7.00947 7.1552 5.60295C8.56172 4.19643 10.4694 3.40625 12.4585 3.40625C14.4476 3.40625 16.3553 4.19643 17.7618 5.60295C19.1683 7.00947 19.9585 8.91713 19.9585 10.9062" stroke="#A461D8" stroke-width="1.5" stroke-linecap="round" stroke-linejoin="round"/>
<path d="M8.61719 10.9062C8.96298 9.2122 9.88346 7.68966 11.2228 6.59629C12.5622 5.50293 14.2382 4.9059 15.9672 4.90625C16.2368 4.90639 16.5063 4.92079 16.7744 4.94938" stroke="#A461D8" stroke-width="1.5" stroke-linecap="round" stroke-linejoin="round"/>
<path d="M12.8418 10.9059C13.3303 9.78838 14.0836 8.80666 15.0365 8.0455C15.9895 7.28434 17.1134 6.76663 18.3112 6.53711" stroke="#A461D8" stroke-width="1.5" stroke-linecap="round" stroke-linejoin="round"/>
</g>
<path opacity="0.4" d="M20.6738 10.1562H21.4585C21.6574 10.1562 21.8482 10.2352 21.9888 10.3758C22.1295 10.5165 22.2085 10.7073 22.2085 10.9062C22.2052 12.6898 21.7143 14.4386 20.789 15.9634C19.8637 17.4882 18.5391 18.731 16.9585 19.5574V19.9062C16.9585 20.304 16.8005 20.6855 16.5192 20.9668C16.2379 21.2481 15.8563 21.4062 15.4585 21.4062H9.4585C9.06067 21.4062 8.67914 21.2481 8.39784 20.9668C8.11653 20.6855 7.9585 20.304 7.9585 19.9062V19.5574C6.37789 18.731 5.0533 17.4882 4.12797 15.9634C3.20265 14.4386 2.71179 12.6898 2.7085 10.9062C2.7085 10.7073 2.78751 10.5165 2.92817 10.3758C3.06882 10.2352 3.25958 10.1562 3.4585 10.1562H5.75162H8.27068L9.84287 10.1543H12.6085L14.3447 10.1562H20.6738Z" fill="#A461D8"/>
</g>
<defs>
<clipPath id="clip0_5189_371370">
<rect width="24" height="24" fill="white" transform="translate(0.458496 0.40625)"/>
</clipPath>
<clipPath id="clip1_5189_371370">
<rect width="17" height="8" fill="white" transform="translate(3.5166 2.30664)"/>
</clipPath>
</defs>
</svg>
