<svg width="24" height="25" viewBox="0 0 24 25" fill="none" xmlns="http://www.w3.org/2000/svg">
<path opacity="0.4" d="M20 9.05078V18.8008C20 21.8008 18.21 22.8008 16 22.8008H8C5.79 22.8008 4 21.8008 4 18.8008V9.05078C4 5.80078 5.79 5.05078 8 5.05078C8 5.67078 8.24997 6.23078 8.65997 6.64078C9.06997 7.05078 9.63 7.30078 10.25 7.30078H13.75C14.99 7.30078 16 6.29078 16 5.05078C18.21 5.05078 20 5.80078 20 9.05078Z" fill="#581C87"/>
<path d="M16 5.05078C16 6.29078 14.99 7.30078 13.75 7.30078H10.25C9.63 7.30078 9.06997 7.05078 8.65997 6.64078C8.24997 6.23078 8 5.67078 8 5.05078C8 3.81078 9.01 2.80078 10.25 2.80078H13.75C14.37 2.80078 14.93 3.05078 15.34 3.46078C15.75 3.87078 16 4.43078 16 5.05078Z" fill="#581C87"/>
<path d="M12 14.5508H8C7.59 14.5508 7.25 14.2108 7.25 13.8008C7.25 13.3908 7.59 13.0508 8 13.0508H12C12.41 13.0508 12.75 13.3908 12.75 13.8008C12.75 14.2108 12.41 14.5508 12 14.5508Z" fill="#581C87"/>
<path d="M16 18.5508H8C7.59 18.5508 7.25 18.2108 7.25 17.8008C7.25 17.3908 7.59 17.0508 8 17.0508H16C16.41 17.0508 16.75 17.3908 16.75 17.8008C16.75 18.2108 16.41 18.5508 16 18.5508Z" fill="#581C87"/>
</svg>
