<svg width="24" height="25" viewBox="0 0 24 25" fill="none" xmlns="http://www.w3.org/2000/svg">
<path d="M16.459 3.7465L16 4.20313L15.541 3.7465C14.2734 2.48554 12.2183 2.48554 10.9507 3.7465C9.68311 5.00745 9.68311 7.05186 10.9507 8.31281L15.0819 12.4225C15.589 12.9269 16.411 12.9269 16.9181 12.4225L21.0493 8.31281C22.3169 7.05186 22.3169 5.00745 21.0493 3.7465C19.7817 2.48554 17.7266 2.48554 16.459 3.7465Z" fill="#581C87"/>
<path opacity="0.35" d="M4 10.8008H2V19.8008L6.31083 21.9562C7.42168 22.5116 8.64658 22.8008 9.88854 22.8008H18C19.1046 22.8008 20 21.9054 20 20.8008C20 19.6962 19.1046 18.8008 18 18.8008H16.4164C15.4849 18.8008 14.5663 18.5839 13.7331 18.1673L11.0191 16.4468C11.1111 16.3253 11.19 16.1907 11.2528 16.0442C11.6664 15.0792 11.2241 13.9613 10.2622 13.5405L4 10.8008Z" fill="#581C87"/>
</svg>
