<svg width="24" height="25" viewBox="0 0 24 25" fill="none" xmlns="http://www.w3.org/2000/svg">
<path d="M16.459 3.27579L16 3.73242L15.541 3.27579C14.2734 2.01484 12.2183 2.01484 10.9507 3.27579C9.68311 4.53675 9.68311 6.58116 10.9507 7.84211L15.0819 11.9518C15.589 12.4562 16.411 12.4562 16.9181 11.9518L21.0493 7.84211C22.3169 6.58115 22.3169 4.53675 21.0493 3.27579C19.7817 2.01484 17.7266 2.01484 16.459 3.27579Z" fill="white"/>
<path opacity="0.35" d="M4 10.3301H2V19.3301L6.31083 21.4855C7.42168 22.0409 8.64658 22.3301 9.88854 22.3301H18C19.1046 22.3301 20 21.4346 20 20.3301C20 19.2255 19.1046 18.3301 18 18.3301H16.4164C15.4849 18.3301 14.5663 18.1132 13.7331 17.6966L11.0191 15.9761C11.1111 15.8546 11.19 15.72 11.2528 15.5735C11.6664 14.6085 11.2241 13.4906 10.2622 13.0698L4 10.3301Z" fill="white"/>
</svg>
