<svg width="25" height="25" viewBox="0 0 25 25" fill="none" xmlns="http://www.w3.org/2000/svg">
<path d="M20.624 9.16602V18.916C20.624 21.916 18.834 22.916 16.624 22.916H8.62402C6.41402 22.916 4.62402 21.916 4.62402 18.916V9.16602C4.62402 5.91602 6.41402 5.16602 8.62402 5.16602C8.62402 5.78602 8.874 6.34601 9.284 6.75601C9.694 7.16601 10.254 7.41602 10.874 7.41602H14.374C15.614 7.41602 16.624 6.40602 16.624 5.16602C18.834 5.16602 20.624 5.91602 20.624 9.16602Z" stroke="#A461D8" stroke-width="2" stroke-linecap="round" stroke-linejoin="round"/>
<path d="M16.624 5.16602C16.624 6.40602 15.614 7.41602 14.374 7.41602H10.874C10.254 7.41602 9.694 7.16601 9.284 6.75601C8.874 6.34601 8.62402 5.78602 8.62402 5.16602C8.62402 3.92602 9.63402 2.91602 10.874 2.91602H14.374C14.994 2.91602 15.5541 3.16602 15.9641 3.57602C16.3741 3.98602 16.624 4.54602 16.624 5.16602Z" stroke="#A461D8" stroke-width="2" stroke-linecap="round" stroke-linejoin="round"/>
<path d="M8.62402 13.916H12.624" stroke="#A461D8" stroke-width="2" stroke-linecap="round" stroke-linejoin="round"/>
<path d="M8.62402 17.916H16.624" stroke="#A461D8" stroke-width="2" stroke-linecap="round" stroke-linejoin="round"/>
</svg>
