<svg width="24" height="25" viewBox="0 0 24 25" fill="none" xmlns="http://www.w3.org/2000/svg">
<path d="M16.459 3.71134L16 4.16797L15.541 3.71134C14.2734 2.45039 12.2183 2.45039 10.9507 3.71134C9.68311 4.97229 9.68311 7.0167 10.9507 8.27766L15.0819 12.3873C15.589 12.8917 16.411 12.8917 16.9181 12.3873L21.0493 8.27766C22.3169 7.0167 22.3169 4.97229 21.0493 3.71134C19.7817 2.45039 17.7266 2.45039 16.459 3.71134Z" fill="#A461D8"/>
<path opacity="0.35" d="M4 10.7656H2V19.7656L6.31083 21.921C7.42168 22.4765 8.64658 22.7656 9.88854 22.7656H18C19.1046 22.7656 20 21.8702 20 20.7656C20 19.6611 19.1046 18.7656 18 18.7656H16.4164C15.4849 18.7656 14.5663 18.5488 13.7331 18.1322L11.0191 16.4117C11.1111 16.2901 11.19 16.1555 11.2528 16.009C11.6664 15.0441 11.2241 13.9262 10.2622 13.5054L4 10.7656Z" fill="#A461D8"/>
</svg>
