<svg width="24" height="25" viewBox="0 0 24 25" fill="none" xmlns="http://www.w3.org/2000/svg">
<path opacity="0.4" d="M20 9.01562V18.7656C20 21.7656 18.21 22.7656 16 22.7656H8C5.79 22.7656 4 21.7656 4 18.7656V9.01562C4 5.76562 5.79 5.01562 8 5.01562C8 5.63563 8.24997 6.19562 8.65997 6.60562C9.06997 7.01562 9.63 7.26562 10.25 7.26562H13.75C14.99 7.26562 16 6.25563 16 5.01562C18.21 5.01562 20 5.76562 20 9.01562Z" fill="#A461D8"/>
<path d="M16 5.01562C16 6.25563 14.99 7.26562 13.75 7.26562H10.25C9.63 7.26562 9.06997 7.01562 8.65997 6.60562C8.24997 6.19562 8 5.63562 8 5.01562C8 3.77562 9.01 2.76562 10.25 2.76562H13.75C14.37 2.76562 14.93 3.01563 15.34 3.42563C15.75 3.83563 16 4.39562 16 5.01562Z" fill="#A461D8"/>
<path d="M12 14.5156H8C7.59 14.5156 7.25 14.1756 7.25 13.7656C7.25 13.3556 7.59 13.0156 8 13.0156H12C12.41 13.0156 12.75 13.3556 12.75 13.7656C12.75 14.1756 12.41 14.5156 12 14.5156Z" fill="#A461D8"/>
<path d="M16 18.5156H8C7.59 18.5156 7.25 18.1756 7.25 17.7656C7.25 17.3556 7.59 17.0156 8 17.0156H16C16.41 17.0156 16.75 17.3556 16.75 17.7656C16.75 18.1756 16.41 18.5156 16 18.5156Z" fill="#A461D8"/>
</svg>
