<svg width="24" height="25" viewBox="0 0 24 25" fill="none" xmlns="http://www.w3.org/2000/svg">
<path opacity="0.35" fill-rule="evenodd" clip-rule="evenodd" d="M22 9.30083C22 9.30082 22 9.30085 22 9.30083C22 5.98712 19.3137 3.30078 16 3.30078C14.4633 3.30078 13.0615 3.87849 12 4.82857C10.9385 3.87849 9.53671 3.30078 8 3.30078C4.68629 3.30078 2 5.98707 2 9.30078C2 9.30075 2 9.30081 2 9.30078C2 16.6519 8.67146 20.1069 11.116 21.1262C11.6855 21.3636 12.3145 21.3636 12.884 21.1262C15.3285 20.1069 22 16.652 22 9.30083Z" fill="#A461D8"/>
<path d="M21.8271 11.3008H17.1594L15.9191 8.40686C15.7615 8.03918 15.4 7.80078 15 7.80078C14.5999 7.80078 14.2384 8.03918 14.0808 8.40686L12 13.2622L11.4191 11.9069C11.2615 11.5392 10.9 11.3008 10.5 11.3008H2.17285C2.29865 12.01 2.48905 12.676 2.73068 13.3008H9.84056L11.0808 16.1947C11.2384 16.5624 11.5999 16.8008 12 16.8008C12.4 16.8008 12.7615 16.5624 12.9191 16.1947L15 11.3394L15.5808 12.6947C15.7384 13.0624 16.0999 13.3008 16.5 13.3008H21.2692C21.5109 12.676 21.7013 12.01 21.8271 11.3008Z" fill="#A461D8"/>
</svg>
