<svg width="25" height="25" viewBox="0 0 25 25" fill="none" xmlns="http://www.w3.org/2000/svg">
<path d="M9.09424 22.916H15.0942C20.0942 22.916 22.0942 20.916 22.0942 15.916V9.91602C22.0942 4.91602 20.0942 2.91602 15.0942 2.91602H9.09424C4.09424 2.91602 2.09424 4.91602 2.09424 9.91602V15.916C2.09424 20.916 4.09424 22.916 9.09424 22.916Z" stroke="#A461D8" stroke-width="2" stroke-linecap="round" stroke-linejoin="round"/>
<path d="M2.09424 13.6161L8.09424 13.5961C8.84424 13.5961 9.68424 14.1661 9.96424 14.8661L11.1042 17.7461C11.3642 18.3961 11.7742 18.3961 12.0342 17.7461L14.3242 11.9361C14.5442 11.3761 14.9542 11.3561 15.2342 11.8861L16.2742 13.8561C16.5842 14.4461 17.3842 14.9261 18.0442 14.9261H22.1042" stroke="#A461D8" stroke-width="2" stroke-linecap="round" stroke-linejoin="round"/>
</svg>
