<svg width="24" height="25" viewBox="0 0 24 25" fill="none" xmlns="http://www.w3.org/2000/svg">
<path opacity="0.4" d="M20 8.58008V18.3301C20 21.3301 18.21 22.3301 16 22.3301H8C5.79 22.3301 4 21.3301 4 18.3301V8.58008C4 5.33008 5.79 4.58008 8 4.58008C8 5.20008 8.24997 5.76007 8.65997 6.17007C9.06997 6.58007 9.63 6.83008 10.25 6.83008H13.75C14.99 6.83008 16 5.82008 16 4.58008C18.21 4.58008 20 5.33008 20 8.58008Z" fill="white"/>
<path d="M16 4.58008C16 5.82008 14.99 6.83008 13.75 6.83008H10.25C9.63 6.83008 9.06997 6.58007 8.65997 6.17007C8.24997 5.76007 8 5.20008 8 4.58008C8 3.34008 9.01 2.33008 10.25 2.33008H13.75C14.37 2.33008 14.93 2.58008 15.34 2.99008C15.75 3.40008 16 3.96008 16 4.58008Z" fill="white"/>
<path d="M12 14.0801H8C7.59 14.0801 7.25 13.7401 7.25 13.3301C7.25 12.9201 7.59 12.5801 8 12.5801H12C12.41 12.5801 12.75 12.9201 12.75 13.3301C12.75 13.7401 12.41 14.0801 12 14.0801Z" fill="white"/>
<path d="M16 18.0801H8C7.59 18.0801 7.25 17.7401 7.25 17.3301C7.25 16.9201 7.59 16.5801 8 16.5801H16C16.41 16.5801 16.75 16.9201 16.75 17.3301C16.75 17.7401 16.41 18.0801 16 18.0801Z" fill="white"/>
</svg>
