<svg width="24" height="24" viewBox="0 0 24 24" fill="none" xmlns="http://www.w3.org/2000/svg">
<path opacity="0.4" d="M14.2002 2.59961H16.7998C18.2733 2.59961 19.4089 3.05825 20.1738 3.82422C20.9386 4.59009 21.3943 5.72524 21.3896 7.19824V16.7998C21.3896 18.2732 20.9323 19.4094 20.166 20.1758C19.3997 20.9421 18.2635 21.4004 16.79 21.4004H14.2002C12.7267 21.4004 11.5905 20.9421 10.8242 20.1748C10.058 19.4074 9.59962 18.2689 9.59961 16.79V7.2002C9.59961 5.72673 10.0579 4.59057 10.8242 3.82422C11.5906 3.05786 12.7267 2.59961 14.2002 2.59961Z" fill="#4B4AD5" stroke="#4B4AD5" stroke-width="1.2"/>
<path d="M6.10352 8.49463C6.13592 8.4947 6.16913 8.50657 6.19824 8.53662L6.20898 8.54834L6.21973 8.55908C6.22392 8.56301 6.23169 8.57092 6.23828 8.5874C6.24523 8.6049 6.24901 8.62724 6.24902 8.6499C6.24902 8.671 6.24563 8.68964 6.23926 8.70557C6.23306 8.72095 6.22261 8.7378 6.20508 8.75537L4.13477 10.8257L3.11133 11.8501H15.249C15.2852 11.8501 15.3227 11.8652 15.3535 11.896C15.3843 11.9268 15.3994 11.9643 15.3994 12.0005C15.3993 12.0365 15.3842 12.0743 15.3535 12.105C15.3228 12.1354 15.285 12.1499 15.249 12.1499H3.11133L4.13477 13.1743L6.20508 15.2446C6.23084 15.2705 6.24707 15.3071 6.24707 15.3501C6.24705 15.3931 6.23087 15.4298 6.20508 15.4556C6.17928 15.4814 6.14256 15.4975 6.09961 15.4976C6.05665 15.4976 6.01997 15.4813 5.99414 15.4556L2.64355 12.106C2.61782 12.0802 2.60168 12.0433 2.60156 12.0005C2.60156 11.9575 2.61772 11.9199 2.64355 11.894L5.99414 8.54443C6.03099 8.50765 6.0706 8.49463 6.10352 8.49463Z" fill="#4B4AD5" stroke="#4B4AD5" stroke-width="1.2"/>
</svg>
