<svg width="24" height="25" viewBox="0 0 24 25" fill="none" xmlns="http://www.w3.org/2000/svg">
<path opacity="0.35" d="M6 15.3008C6 15.4508 5.84418 15.5525 5.71176 15.482C3.50323 14.3046 2 11.9782 2 9.30078C2 5.43479 5.13401 2.30078 9 2.30078C11.6775 2.30078 14.0038 3.80401 15.1812 6.01254C15.2518 6.14497 15.1501 6.30078 15 6.30078C10.0294 6.30078 6 10.3302 6 15.3008Z" fill="#A461D8"/>
<path d="M20.6064 11.1084C21.4817 12.277 22 13.7284 22 15.3008C22 19.1668 18.866 22.3008 15 22.3008C13.4276 22.3008 11.9762 21.7825 10.8076 20.9072L20.6064 11.1084ZM15 8.30078C16.5724 8.30078 18.0238 8.81908 19.1924 9.69434L9.39355 19.4922C8.51858 18.3237 8 16.8729 8 15.3008C8 11.4348 11.134 8.30078 15 8.30078Z" fill="#A461D8"/>
</svg>
