<svg width="25" height="25" viewBox="0 0 25 25" fill="none" xmlns="http://www.w3.org/2000/svg">
<path opacity="0.4" d="M12.3066 14.6163L9.0366 17.8862C8.6766 17.5662 8.3266 17.2362 7.9866 16.8962C6.9566 15.8562 6.0266 14.7663 5.1966 13.6263C4.3766 12.4862 3.7166 11.3463 3.2366 10.2163C2.7566 9.07625 2.5166 7.98625 2.5166 6.94625C2.5166 6.26625 2.6366 5.61625 2.8766 5.01625C3.1166 4.40625 3.4966 3.84625 4.0266 3.34625C4.6666 2.71625 5.3666 2.40625 6.1066 2.40625C6.3866 2.40625 6.6666 2.46625 6.9166 2.58625C7.1766 2.70625 7.4066 2.88625 7.5866 3.14625L9.9066 6.41625C10.0866 6.66625 10.2166 6.89625 10.3066 7.11625C10.3966 7.32625 10.4466 7.53625 10.4466 7.72625C10.4466 7.96625 10.3766 8.20625 10.2366 8.43625C10.1066 8.66625 9.9166 8.90625 9.6766 9.14625L8.9166 9.93625C8.8066 10.0462 8.7566 10.1763 8.7566 10.3363C8.7566 10.4163 8.7666 10.4862 8.7866 10.5662C8.8166 10.6462 8.8466 10.7062 8.8666 10.7662C9.0466 11.0962 9.3566 11.5263 9.7966 12.0463C10.2466 12.5662 10.7266 13.0963 11.2466 13.6263C11.6066 13.9763 11.9566 14.3162 12.3066 14.6163Z" fill="#A461D8"/>
<path d="M22.4867 18.7353C22.4867 19.0153 22.4367 19.3053 22.3367 19.5853C22.3067 19.6653 22.2767 19.7453 22.2367 19.8253C22.0667 20.1853 21.8467 20.5253 21.5567 20.8453C21.0667 21.3853 20.5267 21.7753 19.9167 22.0253C19.9067 22.0253 19.8967 22.0353 19.8867 22.0353C19.2967 22.2753 18.6567 22.4053 17.9667 22.4053C16.9467 22.4053 15.8567 22.1653 14.7067 21.6753C13.5567 21.1853 12.4067 20.5253 11.2667 19.6953C10.8767 19.4053 10.4867 19.1153 10.1167 18.8053L13.3867 15.5353C13.6667 15.7453 13.9167 15.9053 14.1267 16.0153C14.1767 16.0353 14.2367 16.0653 14.3067 16.0953C14.3867 16.1253 14.4667 16.1353 14.5567 16.1353C14.7267 16.1353 14.8567 16.0753 14.9667 15.9653L15.7267 15.2153C15.9767 14.9653 16.2167 14.7753 16.4467 14.6553C16.6767 14.5153 16.9067 14.4453 17.1567 14.4453C17.3467 14.4453 17.5467 14.4853 17.7667 14.5753C17.9867 14.6653 18.2167 14.7953 18.4667 14.9653L21.7767 17.3153C22.0367 17.4953 22.2167 17.7053 22.3267 17.9553C22.4267 18.2053 22.4867 18.4553 22.4867 18.7353Z" fill="#A461D8"/>
</svg>
