<svg width="25" height="25" viewBox="0 0 25 25" fill="none" xmlns="http://www.w3.org/2000/svg">
<path d="M9.05432 13.9492H7.79432C7.54229 13.9492 7.41628 13.9492 7.32002 13.9983C7.23535 14.0414 7.16651 14.1103 7.12336 14.1949C7.07432 14.2912 7.07432 14.4172 7.07432 14.6692V16.3792C7.07432 16.6312 7.07432 16.7573 7.02527 16.8535C6.98213 16.9382 6.91329 17.007 6.82861 17.0502C6.73235 17.0992 6.60633 17.0992 6.35432 17.0992H4.64432C4.39229 17.0992 4.26628 17.0992 4.17002 17.1483C4.08535 17.1914 4.01651 17.2603 3.97336 17.3449C3.92432 17.4412 3.92432 17.5672 3.92432 17.8192V19.0792C3.92432 19.3312 3.92432 19.4573 3.97336 19.5535C4.01651 19.6382 4.08535 19.707 4.17002 19.7502C4.26628 19.7992 4.39229 19.7992 4.64432 19.7992H6.35432C6.60634 19.7992 6.73235 19.7992 6.82861 19.8483C6.91329 19.8914 6.98213 19.9602 7.02527 20.0449C7.07432 20.1412 7.07432 20.2672 7.07432 20.5192V22.2292C7.07432 22.4812 7.07432 22.6073 7.12336 22.7035C7.16651 22.7882 7.23535 22.857 7.32002 22.9002C7.41628 22.9492 7.54229 22.9492 7.79432 22.9492H9.05432C9.30634 22.9492 9.43235 22.9492 9.52861 22.9002C9.61329 22.857 9.68213 22.7882 9.72527 22.7035C9.77432 22.6073 9.77432 22.4812 9.77432 22.2292V20.5192C9.77432 20.2672 9.77432 20.1412 9.82336 20.0449C9.86651 19.9602 9.93535 19.8914 10.02 19.8483C10.1163 19.7992 10.2423 19.7992 10.4943 19.7992H12.2043C12.4563 19.7992 12.5824 19.7992 12.6786 19.7502C12.7633 19.707 12.8321 19.6382 12.8753 19.5535C12.9243 19.4573 12.9243 19.3312 12.9243 19.0792V17.8192C12.9243 17.5672 12.9243 17.4412 12.8753 17.3449C12.8321 17.2603 12.7633 17.1914 12.6786 17.1483C12.5824 17.0992 12.4563 17.0992 12.2043 17.0992H10.4943C10.2423 17.0992 10.1163 17.0992 10.02 17.0502C9.93535 17.007 9.86651 16.9382 9.82336 16.8535C9.77432 16.7573 9.77432 16.6312 9.77432 16.3792V14.6692C9.77432 14.4172 9.77432 14.2912 9.72527 14.1949C9.68213 14.1103 9.61329 14.0414 9.52861 13.9983C9.43235 13.9492 9.30634 13.9492 9.05432 13.9492Z" fill="#A461D8"/>
<path opacity="0.35" d="M7.45845 4.83262C7.78628 4.64903 8.1666 4.55356 8.67495 4.50391C8.70358 5.72176 9.69967 6.70011 10.9243 6.70011H15.9243C17.149 6.70011 18.145 5.72176 18.1737 4.50391C18.682 4.55356 19.0624 4.64903 19.3902 4.83262C19.8729 5.10296 20.2715 5.50152 20.5418 5.98424C20.9243 6.66727 20.9243 7.57822 20.9243 9.40011V18.0001C20.9243 19.822 20.9243 20.7329 20.5418 21.416C20.2715 21.8987 19.8729 22.2973 19.3902 22.5676C18.7072 22.9501 17.7962 22.9501 15.9743 22.9501H10.9089C10.9432 22.8226 10.957 22.7094 10.964 22.6234C10.9743 22.4977 10.9742 22.3576 10.9741 22.2532L10.9741 21.0001L12.2272 21.0001C12.3316 21.0002 12.4717 21.0003 12.5974 20.99C12.7467 20.9778 12.9777 20.9454 13.2232 20.8203C13.5337 20.6621 13.7861 20.4097 13.9443 20.0992C14.0694 19.8537 14.1018 19.6226 14.114 19.4734C14.1243 19.3477 14.1242 19.2076 14.1242 19.1032V17.797C14.1242 17.6926 14.1243 17.5526 14.114 17.4268C14.1018 17.2776 14.0694 17.0465 13.9443 16.801C13.7861 16.4906 13.5337 16.2381 13.2232 16.08C12.9777 15.9549 12.7467 15.9224 12.5974 15.9102C12.4717 15.9 12.3316 15.9 12.2272 15.9001L10.9741 15.9001L10.9741 14.647C10.9742 14.5426 10.9743 14.4026 10.964 14.2768C10.9518 14.1276 10.9194 13.8965 10.7943 13.651C10.6361 13.3406 10.3837 13.0881 10.0732 12.93C9.82773 12.8049 9.59667 12.7724 9.44742 12.7602C9.32169 12.75 9.18163 12.75 9.07721 12.7501H7.77107C7.66665 12.75 7.52659 12.75 7.40086 12.7602C7.25162 12.7724 7.02055 12.8049 6.77506 12.93C6.46459 13.0881 6.21217 13.3406 6.05398 13.651C5.98936 13.7778 5.94947 13.9008 5.92432 14.0106V9.40011C5.92432 7.57822 5.92432 6.66727 6.30683 5.98424C6.57717 5.50152 6.97573 5.10296 7.45845 4.83262Z" fill="#A461D8"/>
<path d="M10.9243 2.94922H15.9243C16.7527 2.94922 17.4243 3.62079 17.4243 4.44922L17.4243 4.46056C17.4182 5.28376 16.749 5.94922 15.9243 5.94922H10.9243C10.0997 5.94922 9.43045 5.28376 9.42436 4.46056L9.42432 4.44922C9.42432 3.62079 10.0959 2.94922 10.9243 2.94922Z" fill="#A461D8"/>
</svg>
