<svg width="24" height="25" viewBox="0 0 24 25" fill="none" xmlns="http://www.w3.org/2000/svg">
<path d="M16.7497 4.36078V2.80078C16.7497 2.39078 16.4097 2.05078 15.9997 2.05078C15.5897 2.05078 15.2497 2.39078 15.2497 2.80078V4.30078H8.74973V2.80078C8.74973 2.39078 8.40973 2.05078 7.99973 2.05078C7.58973 2.05078 7.24973 2.39078 7.24973 2.80078V4.36078C4.54973 4.61078 3.23974 6.22078 3.03974 8.61078C3.01974 8.90078 3.25974 9.14078 3.53974 9.14078H20.4597C20.7497 9.14078 20.9897 8.89078 20.9597 8.61078C20.7597 6.22078 19.4497 4.61078 16.7497 4.36078Z" fill="#581C87"/>
<path opacity="0.4" d="M19.9995 10.6406C20.5495 10.6406 20.9995 11.0906 20.9995 11.6406V17.8006C20.9995 20.8006 19.4995 22.8006 15.9995 22.8006H7.99951C4.49951 22.8006 2.99951 20.8006 2.99951 17.8006V11.6406C2.99951 11.0906 3.44951 10.6406 3.99951 10.6406H19.9995Z" fill="#581C87"/>
<path d="M8.49951 15.8017C8.36951 15.8017 8.23951 15.7717 8.11951 15.7217C7.99951 15.6717 7.88952 15.6016 7.78952 15.5116C7.69952 15.4116 7.6295 15.3017 7.5795 15.1817C7.5295 15.0617 7.49951 14.9317 7.49951 14.8017C7.49951 14.6717 7.5295 14.5416 7.5795 14.4216C7.6295 14.3016 7.69952 14.1917 7.78952 14.0917C7.88952 14.0017 7.99951 13.9316 8.11951 13.8816C8.35951 13.7816 8.63952 13.7816 8.87952 13.8816C8.99952 13.9316 9.1095 14.0017 9.2095 14.0917C9.2995 14.1917 9.36953 14.3016 9.41953 14.4216C9.46953 14.5416 9.49951 14.6717 9.49951 14.8017C9.49951 14.9317 9.46953 15.0617 9.41953 15.1817C9.36953 15.3017 9.2995 15.4116 9.2095 15.5116C9.1095 15.6016 8.99952 15.6717 8.87952 15.7217C8.75952 15.7717 8.62951 15.8017 8.49951 15.8017Z" fill="#581C87"/>
<path d="M11.9995 15.8013C11.8695 15.8013 11.7395 15.7714 11.6195 15.7214C11.4995 15.6714 11.3895 15.6013 11.2895 15.5113C11.1095 15.3213 10.9995 15.0613 10.9995 14.8013C10.9995 14.5413 11.1095 14.2814 11.2895 14.0914C11.3895 14.0014 11.4995 13.9313 11.6195 13.8813C11.8595 13.7713 12.1395 13.7713 12.3795 13.8813C12.4995 13.9313 12.6095 14.0014 12.7095 14.0914C12.8895 14.2814 12.9995 14.5413 12.9995 14.8013C12.9995 15.0613 12.8895 15.3213 12.7095 15.5113C12.6095 15.6013 12.4995 15.6714 12.3795 15.7214C12.2595 15.7714 12.1295 15.8013 11.9995 15.8013Z" fill="#581C87"/>
<path d="M8.49951 19.3017C8.36951 19.3017 8.23951 19.2717 8.11951 19.2217C7.99951 19.1717 7.88952 19.1016 7.78952 19.0116C7.60952 18.8216 7.49951 18.5617 7.49951 18.3017C7.49951 18.0417 7.60952 17.7817 7.78952 17.5917C7.88952 17.5017 7.99951 17.4316 8.11951 17.3816C8.35951 17.2816 8.63952 17.2816 8.87952 17.3816C8.99952 17.4316 9.1095 17.5017 9.2095 17.5917C9.3895 17.7817 9.49951 18.0417 9.49951 18.3017C9.49951 18.5617 9.3895 18.8216 9.2095 19.0116C9.1095 19.1016 8.99952 19.1717 8.87952 19.2217C8.75952 19.2717 8.62951 19.3017 8.49951 19.3017Z" fill="#581C87"/>
</svg>
