<svg width="24" height="25" viewBox="0 0 24 25" fill="none" xmlns="http://www.w3.org/2000/svg">
<path d="M16.7497 3.89008V2.33008C16.7497 1.92008 16.4097 1.58008 15.9997 1.58008C15.5897 1.58008 15.2497 1.92008 15.2497 2.33008V3.83008H8.74973V2.33008C8.74973 1.92008 8.40973 1.58008 7.99973 1.58008C7.58973 1.58008 7.24973 1.92008 7.24973 2.33008V3.89008C4.54973 4.14008 3.23974 5.75008 3.03974 8.14008C3.01974 8.43008 3.25974 8.67007 3.53974 8.67007H20.4597C20.7497 8.67007 20.9897 8.42008 20.9597 8.14008C20.7597 5.75008 19.4497 4.14008 16.7497 3.89008Z" fill="white"/>
<path opacity="0.4" d="M19.9995 10.1699C20.5495 10.1699 20.9995 10.6199 20.9995 11.1699V17.3299C20.9995 20.3299 19.4995 22.3299 15.9995 22.3299H7.99951C4.49951 22.3299 2.99951 20.3299 2.99951 17.3299V11.1699C2.99951 10.6199 3.44951 10.1699 3.99951 10.1699H19.9995Z" fill="white"/>
<path d="M8.49951 15.331C8.36951 15.331 8.23951 15.301 8.11951 15.251C7.99951 15.201 7.88952 15.1309 7.78952 15.0409C7.69952 14.9409 7.6295 14.831 7.5795 14.711C7.5295 14.591 7.49951 14.461 7.49951 14.331C7.49951 14.201 7.5295 14.0709 7.5795 13.9509C7.6295 13.8309 7.69952 13.721 7.78952 13.621C7.88952 13.531 7.99951 13.4609 8.11951 13.4109C8.35951 13.3109 8.63952 13.3109 8.87952 13.4109C8.99952 13.4609 9.1095 13.531 9.2095 13.621C9.2995 13.721 9.36953 13.8309 9.41953 13.9509C9.46953 14.0709 9.49951 14.201 9.49951 14.331C9.49951 14.461 9.46953 14.591 9.41953 14.711C9.36953 14.831 9.2995 14.9409 9.2095 15.0409C9.1095 15.1309 8.99952 15.201 8.87952 15.251C8.75952 15.301 8.62951 15.331 8.49951 15.331Z" fill="white"/>
<path d="M11.9995 15.3306C11.8695 15.3306 11.7395 15.3007 11.6195 15.2507C11.4995 15.2007 11.3895 15.1306 11.2895 15.0406C11.1095 14.8506 10.9995 14.5906 10.9995 14.3306C10.9995 14.0706 11.1095 13.8106 11.2895 13.6206C11.3895 13.5306 11.4995 13.4606 11.6195 13.4106C11.8595 13.3006 12.1395 13.3006 12.3795 13.4106C12.4995 13.4606 12.6095 13.5306 12.7095 13.6206C12.8895 13.8106 12.9995 14.0706 12.9995 14.3306C12.9995 14.5906 12.8895 14.8506 12.7095 15.0406C12.6095 15.1306 12.4995 15.2007 12.3795 15.2507C12.2595 15.3007 12.1295 15.3306 11.9995 15.3306Z" fill="white"/>
<path d="M8.49951 18.831C8.36951 18.831 8.23951 18.801 8.11951 18.751C7.99951 18.701 7.88952 18.6309 7.78952 18.5409C7.60952 18.3509 7.49951 18.091 7.49951 17.831C7.49951 17.571 7.60952 17.311 7.78952 17.121C7.88952 17.031 7.99951 16.9609 8.11951 16.9109C8.35951 16.8109 8.63952 16.8109 8.87952 16.9109C8.99952 16.9609 9.1095 17.031 9.2095 17.121C9.3895 17.311 9.49951 17.571 9.49951 17.831C9.49951 18.091 9.3895 18.3509 9.2095 18.5409C9.1095 18.6309 8.99952 18.701 8.87952 18.751C8.75952 18.801 8.62951 18.831 8.49951 18.831Z" fill="white"/>
</svg>
