<svg width="24" height="25" viewBox="0 0 24 25" fill="none" xmlns="http://www.w3.org/2000/svg">
<path d="M16.7497 4.32562V2.76562C16.7497 2.35563 16.4097 2.01562 15.9997 2.01562C15.5897 2.01562 15.2497 2.35563 15.2497 2.76562V4.26562H8.74973V2.76562C8.74973 2.35563 8.40973 2.01562 7.99973 2.01562C7.58973 2.01562 7.24973 2.35563 7.24973 2.76562V4.32562C4.54973 4.57562 3.23974 6.18562 3.03974 8.57562C3.01974 8.86562 3.25974 9.10562 3.53974 9.10562H20.4597C20.7497 9.10562 20.9897 8.85562 20.9597 8.57562C20.7597 6.18562 19.4497 4.57562 16.7497 4.32562Z" fill="#A461D8"/>
<path opacity="0.4" d="M19.9995 10.6055C20.5495 10.6055 20.9995 11.0555 20.9995 11.6055V17.7655C20.9995 20.7655 19.4995 22.7655 15.9995 22.7655H7.99951C4.49951 22.7655 2.99951 20.7655 2.99951 17.7655V11.6055C2.99951 11.0555 3.44951 10.6055 3.99951 10.6055H19.9995Z" fill="#A461D8"/>
<path d="M8.49951 15.7665C8.36951 15.7665 8.23951 15.7365 8.11951 15.6865C7.99951 15.6365 7.88952 15.5665 7.78952 15.4765C7.69952 15.3765 7.6295 15.2665 7.5795 15.1465C7.5295 15.0265 7.49951 14.8965 7.49951 14.7665C7.49951 14.6365 7.5295 14.5065 7.5795 14.3865C7.6295 14.2665 7.69952 14.1565 7.78952 14.0565C7.88952 13.9665 7.99951 13.8965 8.11951 13.8465C8.35951 13.7465 8.63952 13.7465 8.87952 13.8465C8.99952 13.8965 9.1095 13.9665 9.2095 14.0565C9.2995 14.1565 9.36953 14.2665 9.41953 14.3865C9.46953 14.5065 9.49951 14.6365 9.49951 14.7665C9.49951 14.8965 9.46953 15.0265 9.41953 15.1465C9.36953 15.2665 9.2995 15.3765 9.2095 15.4765C9.1095 15.5665 8.99952 15.6365 8.87952 15.6865C8.75952 15.7365 8.62951 15.7665 8.49951 15.7665Z" fill="#A461D8"/>
<path d="M11.9995 15.7662C11.8695 15.7662 11.7395 15.7362 11.6195 15.6862C11.4995 15.6362 11.3895 15.5662 11.2895 15.4762C11.1095 15.2862 10.9995 15.0262 10.9995 14.7662C10.9995 14.5062 11.1095 14.2462 11.2895 14.0562C11.3895 13.9662 11.4995 13.8962 11.6195 13.8462C11.8595 13.7362 12.1395 13.7362 12.3795 13.8462C12.4995 13.8962 12.6095 13.9662 12.7095 14.0562C12.8895 14.2462 12.9995 14.5062 12.9995 14.7662C12.9995 15.0262 12.8895 15.2862 12.7095 15.4762C12.6095 15.5662 12.4995 15.6362 12.3795 15.6862C12.2595 15.7362 12.1295 15.7662 11.9995 15.7662Z" fill="#A461D8"/>
<path d="M8.49951 19.2665C8.36951 19.2665 8.23951 19.2365 8.11951 19.1865C7.99951 19.1365 7.88952 19.0665 7.78952 18.9765C7.60952 18.7865 7.49951 18.5265 7.49951 18.2665C7.49951 18.0065 7.60952 17.7465 7.78952 17.5565C7.88952 17.4665 7.99951 17.3965 8.11951 17.3465C8.35951 17.2465 8.63952 17.2465 8.87952 17.3465C8.99952 17.3965 9.1095 17.4665 9.2095 17.5565C9.3895 17.7465 9.49951 18.0065 9.49951 18.2665C9.49951 18.5265 9.3895 18.7865 9.2095 18.9765C9.1095 19.0665 8.99952 19.1365 8.87952 19.1865C8.75952 19.2365 8.62951 19.2665 8.49951 19.2665Z" fill="#A461D8"/>
</svg>
