<svg width="25" height="25" viewBox="0 0 25 25" fill="none" xmlns="http://www.w3.org/2000/svg">
<path d="M16.5831 3.86173L16.124 4.31836L15.665 3.86173C14.3974 2.60078 12.3423 2.60078 11.0747 3.86173C9.80713 5.12268 9.80713 7.16709 11.0747 8.42805L15.206 12.5377C15.713 13.0421 16.5351 13.0421 17.0421 12.5377L21.1733 8.42805C22.4409 7.16709 22.4409 5.12268 21.1733 3.86173C19.9058 2.60078 17.8506 2.60078 16.5831 3.86173Z" stroke="#A461D8" stroke-width="2" stroke-linejoin="round"/>
<path d="M2.12402 10.916H4.12402L10.3863 13.6557C11.3481 14.0766 11.7904 15.1945 11.3768 16.1594C10.9611 17.1296 9.83758 17.579 8.86745 17.1632L7.12402 16.416" stroke="#A461D8" stroke-width="2" stroke-linecap="round" stroke-linejoin="round"/>
<path d="M2.57124 19.0216C2.07726 18.7746 1.47659 18.9748 1.2296 19.4688C0.982607 19.9628 1.18283 20.5635 1.67681 20.8104L2.12402 19.916L2.57124 19.0216ZM11.5712 16.0216L10.6768 15.5744L9.78238 17.3632L10.6768 17.8104L11.124 16.916L11.5712 16.0216ZM13.8571 18.2826L13.4099 19.177L13.8571 18.2826ZM16.5404 18.916V19.916H18.124V18.916V17.916H16.5404V18.916ZM18.124 22.916V21.916H10.0126V22.916V23.916H18.124V22.916ZM6.43486 22.0714L6.88207 21.177L2.57124 19.0216L2.12402 19.916L1.67681 20.8104L5.98764 22.9659L6.43486 22.0714ZM13.8571 18.2826L14.3044 17.3882L11.5712 16.0216L11.124 16.916L10.6768 17.8104L13.4099 19.177L13.8571 18.2826ZM10.0126 22.916V21.916C8.92585 21.916 7.85406 21.663 6.88207 21.177L6.43486 22.0714L5.98764 22.9659C7.23734 23.5907 8.61536 23.916 10.0126 23.916V22.916ZM20.124 20.916H19.124C19.124 21.4683 18.6763 21.916 18.124 21.916V22.916V23.916C19.7809 23.916 21.124 22.5729 21.124 20.916H20.124ZM18.124 18.916V19.916C18.6763 19.916 19.124 20.3637 19.124 20.916H20.124H21.124C21.124 19.2592 19.7809 17.916 18.124 17.916V18.916ZM16.5404 18.916V17.916C15.7642 17.916 14.9986 17.7353 14.3044 17.3882L13.8571 18.2826L13.4099 19.177C14.3819 19.663 15.4537 19.916 16.5404 19.916V18.916Z" fill="#A461D8"/>
</svg>
