<svg width="24" height="25" viewBox="0 0 24 25" fill="none" xmlns="http://www.w3.org/2000/svg">
<path opacity="0.35" d="M16.19 2.33008H7.81C4.17 2.33008 2 4.50008 2 8.14008V16.5201C2 20.1601 4.17 22.3301 7.81 22.3301H16.19C19.83 22.3301 22 20.1601 22 16.5201V8.14008C22 4.50008 19.83 2.33008 16.19 2.33008Z" fill="white"/>
<path d="M18.3096 9.19922C18.3096 9.60922 17.9796 9.94922 17.5596 9.94922H12.3096C11.8996 9.94922 11.5596 9.60922 11.5596 9.19922C11.5596 8.78922 11.8996 8.44922 12.3096 8.44922H17.5596C17.9796 8.44922 18.3096 8.78922 18.3096 9.19922Z" fill="white"/>
<path d="M9.96957 8.23062L7.71957 10.4806C7.56957 10.6306 7.37957 10.7006 7.18957 10.7006C6.99957 10.7006 6.79957 10.6306 6.65957 10.4806L5.90957 9.73062C5.60957 9.44062 5.60957 8.96063 5.90957 8.67063C6.19957 8.38063 6.66957 8.38063 6.96957 8.67063L7.18957 8.89062L8.90957 7.17063C9.19957 6.88063 9.66957 6.88063 9.96957 7.17063C10.2596 7.46062 10.2596 7.94062 9.96957 8.23062Z" fill="white"/>
<path d="M18.3096 16.1992C18.3096 16.6092 17.9796 16.9492 17.5596 16.9492H12.3096C11.8996 16.9492 11.5596 16.6092 11.5596 16.1992C11.5596 15.7892 11.8996 15.4492 12.3096 15.4492H17.5596C17.9796 15.4492 18.3096 15.7892 18.3096 16.1992Z" fill="white"/>
<path d="M9.96957 15.2306L7.71957 17.4806C7.56957 17.6306 7.37957 17.7006 7.18957 17.7006C6.99957 17.7006 6.79957 17.6306 6.65957 17.4806L5.90957 16.7306C5.60957 16.4406 5.60957 15.9606 5.90957 15.6706C6.19957 15.3806 6.66957 15.3806 6.96957 15.6706L7.18957 15.8906L8.90957 14.1706C9.19957 13.8806 9.66957 13.8806 9.96957 14.1706C10.2596 14.4606 10.2596 14.9406 9.96957 15.2306Z" fill="white"/>
</svg>
