<svg width="24" height="25" viewBox="0 0 24 25" fill="none" xmlns="http://www.w3.org/2000/svg">
<path opacity="0.35" d="M16.19 2.76562H7.81C4.17 2.76562 2 4.93563 2 8.57563V16.9556C2 20.5956 4.17 22.7656 7.81 22.7656H16.19C19.83 22.7656 22 20.5956 22 16.9556V8.57563C22 4.93563 19.83 2.76562 16.19 2.76562Z" fill="#A461D8"/>
<path d="M18.3096 9.63672C18.3096 10.0467 17.9796 10.3867 17.5596 10.3867H12.3096C11.8996 10.3867 11.5596 10.0467 11.5596 9.63672C11.5596 9.22672 11.8996 8.88672 12.3096 8.88672H17.5596C17.9796 8.88672 18.3096 9.22672 18.3096 9.63672Z" fill="#A461D8"/>
<path d="M9.96957 8.66617L7.71957 10.9162C7.56957 11.0662 7.37957 11.1362 7.18957 11.1362C6.99957 11.1362 6.79957 11.0662 6.65957 10.9162L5.90957 10.1662C5.60957 9.87617 5.60957 9.39617 5.90957 9.10617C6.19957 8.81617 6.66957 8.81617 6.96957 9.10617L7.18957 9.32617L8.90957 7.60617C9.19957 7.31617 9.66957 7.31617 9.96957 7.60617C10.2596 7.89617 10.2596 8.37617 9.96957 8.66617Z" fill="#A461D8"/>
<path d="M18.3096 16.6367C18.3096 17.0467 17.9796 17.3867 17.5596 17.3867H12.3096C11.8996 17.3867 11.5596 17.0467 11.5596 16.6367C11.5596 16.2267 11.8996 15.8867 12.3096 15.8867H17.5596C17.9796 15.8867 18.3096 16.2267 18.3096 16.6367Z" fill="#A461D8"/>
<path d="M9.96957 15.6662L7.71957 17.9162C7.56957 18.0662 7.37957 18.1362 7.18957 18.1362C6.99957 18.1362 6.79957 18.0662 6.65957 17.9162L5.90957 17.1662C5.60957 16.8762 5.60957 16.3962 5.90957 16.1062C6.19957 15.8162 6.66957 15.8162 6.96957 16.1062L7.18957 16.3262L8.90957 14.6062C9.19957 14.3162 9.66957 14.3162 9.96957 14.6062C10.2596 14.8962 10.2596 15.3762 9.96957 15.6662Z" fill="#A461D8"/>
</svg>
