<svg width="24" height="25" viewBox="0 0 24 25" fill="none" xmlns="http://www.w3.org/2000/svg">
<path opacity="0.35" d="M16.19 2.80078H7.81C4.17 2.80078 2 4.97078 2 8.61078V16.9908C2 20.6308 4.17 22.8008 7.81 22.8008H16.19C19.83 22.8008 22 20.6308 22 16.9908V8.61078C22 4.97078 19.83 2.80078 16.19 2.80078Z" fill="#581C87"/>
<path d="M18.3096 9.67188C18.3096 10.0819 17.9796 10.4219 17.5596 10.4219H12.3096C11.8996 10.4219 11.5596 10.0819 11.5596 9.67188C11.5596 9.26188 11.8996 8.92188 12.3096 8.92188H17.5596C17.9796 8.92188 18.3096 9.26188 18.3096 9.67188Z" fill="#581C87"/>
<path d="M9.96957 8.70133L7.71957 10.9513C7.56957 11.1013 7.37957 11.1713 7.18957 11.1713C6.99957 11.1713 6.79957 11.1013 6.65957 10.9513L5.90957 10.2013C5.60957 9.91133 5.60957 9.43133 5.90957 9.14133C6.19957 8.85133 6.66957 8.85133 6.96957 9.14133L7.18957 9.36133L8.90957 7.64133C9.19957 7.35133 9.66957 7.35133 9.96957 7.64133C10.2596 7.93133 10.2596 8.41133 9.96957 8.70133Z" fill="#581C87"/>
<path d="M18.3096 16.6719C18.3096 17.0819 17.9796 17.4219 17.5596 17.4219H12.3096C11.8996 17.4219 11.5596 17.0819 11.5596 16.6719C11.5596 16.2619 11.8996 15.9219 12.3096 15.9219H17.5596C17.9796 15.9219 18.3096 16.2619 18.3096 16.6719Z" fill="#581C87"/>
<path d="M9.96957 15.7013L7.71957 17.9513C7.56957 18.1013 7.37957 18.1713 7.18957 18.1713C6.99957 18.1713 6.79957 18.1013 6.65957 17.9513L5.90957 17.2013C5.60957 16.9113 5.60957 16.4313 5.90957 16.1413C6.19957 15.8513 6.66957 15.8513 6.96957 16.1413L7.18957 16.3613L8.90957 14.6413C9.19957 14.3513 9.66957 14.3513 9.96957 14.6413C10.2596 14.9313 10.2596 15.4113 9.96957 15.7013Z" fill="#581C87"/>
</svg>
