<svg width="24" height="25" viewBox="0 0 24 25" fill="none" xmlns="http://www.w3.org/2000/svg">
<path opacity="0.35" d="M20.5 10.3931H17.61C15.24 10.3931 13.31 8.46312 13.31 6.09312V3.20312C13.31 2.65312 12.86 2.20312 12.31 2.20312H8.07C4.99 2.20312 2.5 4.20313 2.5 7.77313V16.6331C2.5 20.2031 4.99 22.2031 8.07 22.2031H15.93C19.01 22.2031 21.5 20.2031 21.5 16.6331V11.3931C21.5 10.8431 21.05 10.3931 20.5 10.3931Z" fill="#A461D8"/>
<path d="M15.7997 2.41361C15.3897 2.00361 14.6797 2.28361 14.6797 2.85361V6.34361C14.6797 7.80361 15.9197 9.01361 17.4297 9.01361C18.3797 9.02361 19.6997 9.02361 20.8297 9.02361C21.3997 9.02361 21.6997 8.35361 21.2997 7.95361C19.8597 6.50361 17.2797 3.89361 15.7997 2.41361Z" fill="#A461D8"/>
</svg>
