<svg width="25" height="25" viewBox="0 0 25 25" fill="none" xmlns="http://www.w3.org/2000/svg">
<path opacity="0.4" d="M21.4878 7.40625V17.4062C21.4878 20.4062 19.9878 22.4062 16.4878 22.4062H8.48779C4.98779 22.4062 3.48779 20.4062 3.48779 17.4062V7.40625C3.48779 4.40625 4.98779 2.40625 8.48779 2.40625H16.4878C19.9878 2.40625 21.4878 4.40625 21.4878 7.40625Z" fill="#A461D8"/>
<path d="M18.9878 9.65625H16.9878C15.4678 9.65625 14.2378 8.42625 14.2378 6.90625V4.90625C14.2378 4.49625 14.5778 4.15625 14.9878 4.15625C15.3978 4.15625 15.7378 4.49625 15.7378 4.90625V6.90625C15.7378 7.59625 16.2978 8.15625 16.9878 8.15625H18.9878C19.3978 8.15625 19.7378 8.49625 19.7378 8.90625C19.7378 9.31625 19.3978 9.65625 18.9878 9.65625Z" fill="#A461D8"/>
<path d="M12.4878 14.1562H8.48779C8.07779 14.1562 7.73779 13.8162 7.73779 13.4062C7.73779 12.9963 8.07779 12.6562 8.48779 12.6562H12.4878C12.8978 12.6562 13.2378 12.9963 13.2378 13.4062C13.2378 13.8162 12.8978 14.1562 12.4878 14.1562Z" fill="#A461D8"/>
<path d="M16.4878 18.1562H8.48779C8.07779 18.1562 7.73779 17.8162 7.73779 17.4062C7.73779 16.9963 8.07779 16.6562 8.48779 16.6562H16.4878C16.8978 16.6562 17.2378 16.9963 17.2378 17.4062C17.2378 17.8162 16.8978 18.1562 16.4878 18.1562Z" fill="#A461D8"/>
</svg>
