<svg width="25" height="25" viewBox="0 0 25 25" fill="none" xmlns="http://www.w3.org/2000/svg">
<path opacity="0.35" d="M21.917 7.33594V17.3359C21.917 20.3359 20.417 22.3359 16.917 22.3359H8.91699C5.41699 22.3359 3.91699 20.3359 3.91699 17.3359V7.33594C3.91699 4.33594 5.41699 2.33594 8.91699 2.33594H16.917C20.417 2.33594 21.917 4.33594 21.917 7.33594Z" fill="#A461D8"/>
<path d="M19.417 9.58594H17.417C15.897 9.58594 14.667 8.35594 14.667 6.83594V4.83594C14.667 4.42594 15.007 4.08594 15.417 4.08594C15.827 4.08594 16.167 4.42594 16.167 4.83594V6.83594C16.167 7.52594 16.727 8.08594 17.417 8.08594H19.417C19.827 8.08594 20.167 8.42594 20.167 8.83594C20.167 9.24594 19.827 9.58594 19.417 9.58594Z" fill="#A461D8"/>
<path d="M12.917 14.0859H8.91699C8.50699 14.0859 8.16699 13.7459 8.16699 13.3359C8.16699 12.9259 8.50699 12.5859 8.91699 12.5859H12.917C13.327 12.5859 13.667 12.9259 13.667 13.3359C13.667 13.7459 13.327 14.0859 12.917 14.0859Z" fill="#A461D8"/>
<path d="M16.917 18.0859H8.91699C8.50699 18.0859 8.16699 17.7459 8.16699 17.3359C8.16699 16.9259 8.50699 16.5859 8.91699 16.5859H16.917C17.327 16.5859 17.667 16.9259 17.667 17.3359C17.667 17.7459 17.327 18.0859 16.917 18.0859Z" fill="#A461D8"/>
</svg>
