<svg width="24" height="25" viewBox="0 0 24 25" fill="none" xmlns="http://www.w3.org/2000/svg">
<path opacity="0.4" d="M22 8.61078V14.8008H17.92C17.25 14.8008 16.46 14.3208 16.15 13.7308L15.11 11.7608C14.83 11.2308 14.43 11.2608 14.21 11.8108L11.91 17.6208C11.66 18.2708 11.24 18.2708 10.98 17.6208L9.84 14.7408C9.57 14.0408 8.73 13.4708 7.98 13.4708L2 13.5008V8.61078C2 4.97078 4.17 2.80078 7.81 2.80078H16.19C19.83 2.80078 22 4.97078 22 8.61078Z" fill="#581C87"/>
<path d="M22 16.9895V14.7995H17.92C17.25 14.7995 16.46 14.3195 16.15 13.7295L15.11 11.7595C14.83 11.2295 14.43 11.2595 14.21 11.8095L11.91 17.6195C11.66 18.2695 11.24 18.2695 10.98 17.6195L9.84 14.7395C9.57 14.0395 8.73 13.4695 7.98 13.4695L2 13.4995V16.9895C2 20.5695 4.1 22.7295 7.63 22.7895C7.74 22.7995 7.86 22.7995 7.97 22.7995H15.97C16.12 22.7995 16.27 22.7995 16.41 22.7895C19.92 22.7095 22 20.5595 22 16.9895Z" fill="#581C87"/>
<path d="M2.00021 13.5V16.81C1.98021 16.49 1.97021 16.15 1.97021 15.8V13.5H2.00021Z" fill="#581C87"/>
</svg>
