<svg width="24" height="25" viewBox="0 0 24 25" fill="none" xmlns="http://www.w3.org/2000/svg">
<path opacity="0.4" d="M22 8.57562V14.7656H17.92C17.25 14.7656 16.46 14.2856 16.15 13.6956L15.11 11.7256C14.83 11.1956 14.43 11.2256 14.21 11.7756L11.91 17.5856C11.66 18.2356 11.24 18.2356 10.98 17.5856L9.84 14.7056C9.57 14.0056 8.73 13.4356 7.98 13.4356L2 13.4656V8.57562C2 4.93562 4.17 2.76562 7.81 2.76562H16.19C19.83 2.76562 22 4.93562 22 8.57562Z" fill="#A461D8"/>
<path d="M22 16.9543V14.7643H17.92C17.25 14.7643 16.46 14.2843 16.15 13.6943L15.11 11.7243C14.83 11.1943 14.43 11.2243 14.21 11.7743L11.91 17.5843C11.66 18.2343 11.24 18.2343 10.98 17.5843L9.84 14.7043C9.57 14.0043 8.73 13.4343 7.98 13.4343L2 13.4643V16.9543C2 20.5343 4.1 22.6943 7.63 22.7543C7.74 22.7643 7.86 22.7643 7.97 22.7643H15.97C16.12 22.7643 16.27 22.7643 16.41 22.7543C19.92 22.6743 22 20.5243 22 16.9543Z" fill="#A461D8"/>
<path d="M2.00021 13.4648V16.7748C1.98021 16.4548 1.97021 16.1148 1.97021 15.7648V13.4648H2.00021Z" fill="#A461D8"/>
</svg>
