<svg width="24" height="25" viewBox="0 0 24 25" fill="none" xmlns="http://www.w3.org/2000/svg">
<path opacity="0.4" d="M22 8.14008V14.3301H17.92C17.25 14.3301 16.46 13.8501 16.15 13.2601L15.11 11.2901C14.83 10.7601 14.43 10.7901 14.21 11.3401L11.91 17.1501C11.66 17.8001 11.24 17.8001 10.98 17.1501L9.84 14.2701C9.57 13.5701 8.73 13.0001 7.98 13.0001L2 13.0301V8.14008C2 4.50008 4.17 2.33008 7.81 2.33008H16.19C19.83 2.33008 22 4.50008 22 8.14008Z" fill="white"/>
<path d="M22 16.5207V14.3307H17.92C17.25 14.3307 16.46 13.8507 16.15 13.2607L15.11 11.2907C14.83 10.7607 14.43 10.7907 14.21 11.3407L11.91 17.1507C11.66 17.8007 11.24 17.8007 10.98 17.1507L9.84 14.2707C9.57 13.5707 8.73 13.0007 7.98 13.0007L2 13.0307V16.5207C2 20.1007 4.1 22.2607 7.63 22.3207C7.74 22.3307 7.86 22.3307 7.97 22.3307H15.97C16.12 22.3307 16.27 22.3307 16.41 22.3207C19.92 22.2407 22 20.0907 22 16.5207Z" fill="white"/>
<path d="M2.00021 13.0293V16.3393C1.98021 16.0193 1.97021 15.6793 1.97021 15.3293V13.0293H2.00021Z" fill="white"/>
</svg>
