<svg width="24" height="25" viewBox="0 0 24 25" fill="none" xmlns="http://www.w3.org/2000/svg">
<path opacity="0.35" d="M20 8.45312V18.2031C20 21.2031 18.21 22.2031 16 22.2031H8C5.79 22.2031 4 21.2031 4 18.2031V8.45312C4 5.20312 5.79 4.45312 8 4.45312C8 5.07313 8.24997 5.63312 8.65997 6.04312C9.06997 6.45312 9.63 6.70312 10.25 6.70312H13.75C14.99 6.70312 16 5.69313 16 4.45312C18.21 4.45312 20 5.20312 20 8.45312Z" fill="#A461D8"/>
<path d="M16 4.45312C16 5.69313 14.99 6.70312 13.75 6.70312H10.25C9.63 6.70312 9.06997 6.45312 8.65997 6.04312C8.24997 5.63312 8 5.07312 8 4.45312C8 3.21312 9.01 2.20312 10.25 2.20312H13.75C14.37 2.20312 14.93 2.45313 15.34 2.86313C15.75 3.27313 16 3.83312 16 4.45312Z" fill="#A461D8"/>
<path d="M12 13.9531H8C7.59 13.9531 7.25 13.6131 7.25 13.2031C7.25 12.7931 7.59 12.4531 8 12.4531H12C12.41 12.4531 12.75 12.7931 12.75 13.2031C12.75 13.6131 12.41 13.9531 12 13.9531Z" fill="#A461D8"/>
<path d="M16 17.9531H8C7.59 17.9531 7.25 17.6131 7.25 17.2031C7.25 16.7931 7.59 16.4531 8 16.4531H16C16.41 16.4531 16.75 16.7931 16.75 17.2031C16.75 17.6131 16.41 17.9531 16 17.9531Z" fill="#A461D8"/>
</svg>
