<svg width="24" height="25" viewBox="0 0 24 25" fill="none" xmlns="http://www.w3.org/2000/svg">
<path opacity="0.4" d="M7.37 22.3301H16.62C19.31 22.3301 21.49 20.1501 21.49 17.4601V8.70008C21.49 6.01008 19.31 3.83008 16.62 3.83008H7.37C4.68 3.83008 2.5 6.01008 2.5 8.70008V17.4501C2.5 20.1501 4.68 22.3301 7.37 22.3301Z" fill="white"/>
<path d="M8.29004 6.62008C7.87004 6.62008 7.54004 6.28008 7.54004 5.87008V3.08008C7.54004 2.67008 7.87004 2.33008 8.29004 2.33008C8.71004 2.33008 9.04004 2.67008 9.04004 3.08008V5.86008C9.04004 6.28008 8.71004 6.62008 8.29004 6.62008Z" fill="white"/>
<path d="M15.71 6.62008C15.29 6.62008 14.96 6.28008 14.96 5.87008V3.08008C14.96 2.66008 15.3 2.33008 15.71 2.33008C16.13 2.33008 16.46 2.67008 16.46 3.08008V5.86008C16.46 6.28008 16.13 6.62008 15.71 6.62008Z" fill="white"/>
<path d="M14.7799 14.041H7.35986C6.93986 14.041 6.60986 13.701 6.60986 13.291C6.60986 12.881 6.94986 12.541 7.35986 12.541H14.7799C15.1999 12.541 15.5299 12.881 15.5299 13.291C15.5299 13.701 15.1999 14.041 14.7799 14.041Z" fill="white"/>
<path d="M11.9999 17.75H7.35986C6.93986 17.75 6.60986 17.41 6.60986 17C6.60986 16.58 6.94986 16.25 7.35986 16.25H11.9999C12.4199 16.25 12.7499 16.59 12.7499 17C12.7499 17.41 12.4199 17.75 11.9999 17.75Z" fill="white"/>
</svg>
