<svg width="45" height="45" viewBox="0 0 45 45" fill="none" xmlns="http://www.w3.org/2000/svg">
<path opacity="0.4" d="M16.9052 2.84375C11.6652 2.84375 7.40527 7.10372 7.40527 12.3437C7.40527 17.4836 11.4252 21.6436 16.6652 21.8236C16.8252 21.8036 16.9852 21.8036 17.1052 21.8236C17.1452 21.8236 17.1652 21.8236 17.2052 21.8236C17.2252 21.8236 17.2252 21.8236 17.2452 21.8236C22.3652 21.6436 26.3851 17.4836 26.4051 12.3437C26.4051 7.10372 22.1452 2.84375 16.9052 2.84375Z" fill="#EAE4F4"/>
<path d="M27.0679 27.1435C21.488 23.4235 12.3881 23.4235 6.7681 27.1435C4.22811 28.8435 2.82812 31.1435 2.82812 33.6034C2.82812 36.0634 4.22811 38.3434 6.7481 40.0234C9.54807 41.9034 13.228 42.8434 16.908 42.8434C20.588 42.8434 24.268 41.9034 27.0679 40.0234C29.5879 38.3234 30.9879 36.0434 30.9879 33.5634C30.9679 31.1035 29.5879 28.8235 27.0679 27.1435Z" fill="#EAE4F4"/>
<path opacity="0.4" d="M38.8854 13.5239C39.2054 17.4039 36.4454 20.8038 32.6255 21.2638C32.6055 21.2638 32.6054 21.2638 32.5854 21.2638H32.5254C32.4054 21.2638 32.2855 21.2638 32.1855 21.3038C30.2455 21.4038 28.4655 20.7838 27.1255 19.6439C29.1855 17.8039 30.3655 15.0439 30.1255 12.0439C29.9855 10.4239 29.4255 8.94394 28.5855 7.68394C29.3455 7.30395 30.2255 7.06395 31.1255 6.98395C35.0454 6.64395 38.5454 9.56393 38.8854 13.5239Z" fill="#EAE4F4"/>
<path d="M42.8871 32.0225C42.7271 33.9625 41.4871 35.6425 39.4071 36.7825C37.4071 37.8825 34.8871 38.4025 32.3872 38.3425C33.8272 37.0425 34.6671 35.4225 34.8271 33.7025C35.0271 31.2225 33.8472 28.8426 31.4872 26.9426C30.1472 25.8826 28.5872 25.0426 26.8872 24.4226C31.3072 23.1426 36.8671 24.0026 40.2871 26.7626C42.1271 28.2426 43.0671 30.1025 42.8871 32.0225Z" fill="#EAE4F4"/>
</svg>
