<svg width="45" height="45" viewBox="0 0 45 45" fill="none" xmlns="http://www.w3.org/2000/svg">
<g clip-path="url(#clip0_5665_151471)">
<path opacity="0.4" fill-rule="evenodd" clip-rule="evenodd" d="M37.5259 13.6081L28.8048 3.6012C28.6158 3.40876 28.3997 3.21632 28.1297 3.13385C27.9137 2.99639 27.6167 2.94141 27.3467 2.94141H11.6324C10.9844 2.94141 10.3364 3.05137 9.71541 3.29879C9.0944 3.54622 8.55439 3.9311 8.09538 4.37096C7.63637 4.83831 7.25836 5.38814 6.98836 5.99295C6.74535 6.62526 6.61035 7.28505 6.61035 7.94484V37.938C6.61035 38.5978 6.74535 39.2576 7.01536 39.8899C7.25836 40.4947 7.63637 41.0445 8.12238 41.5119C8.58139 41.9792 9.1484 42.3641 9.74241 42.584C10.3364 42.8039 11.0114 42.9414 11.6594 42.9414H33.0438C33.6918 42.9414 34.3399 42.8314 34.9609 42.584C35.5819 42.3366 36.1219 41.9517 36.5809 41.5119C37.0399 41.0445 37.4179 40.4947 37.6879 39.8899C37.9309 39.2576 38.0929 38.5978 38.0929 37.938V14.9552C38.0389 14.4328 37.8769 13.9655 37.5259 13.6081ZM27.6437 14.9552C27.2387 14.9277 26.8607 14.7077 26.5907 14.4053C26.3477 14.0754 26.1857 13.6905 26.2397 13.2782V6.95515L33.6108 14.9552H27.6437Z" fill="#EAE4F4"/>
<path fill-rule="evenodd" clip-rule="evenodd" d="M33.6075 14.9551H27.6674C27.2624 14.9276 26.8843 14.7077 26.6143 14.4053C26.3713 14.0754 26.2093 13.6905 26.2633 13.2781V6.95508L33.6075 14.9551Z" fill="#EAE4F4"/>
<path d="M23.2967 26.6106C25.5378 26.0607 26.9148 23.779 26.4018 21.4972C25.8618 19.2154 23.6207 17.8133 21.3797 18.3357C19.1386 18.8855 17.7616 21.1673 18.2746 23.4491C18.7876 25.7309 21.0557 27.1329 23.2967 26.6106Z" fill="#EAE4F4"/>
<path d="M27.5645 27.2703C27.2675 27.0779 26.9165 26.9954 26.5385 26.9679C26.0255 26.9679 25.5125 27.1879 25.1345 27.5453C24.3515 28.26 23.7575 28.7549 22.3264 28.7549C20.9224 28.7549 20.2744 28.2325 19.5454 27.5453C19.1944 27.2154 18.7894 26.9954 18.3304 26.9679C17.8984 26.9405 17.4664 27.0229 17.1153 27.2703C16.0353 27.9576 13.8213 30.047 13.8213 35.8202C13.8213 36.0401 13.8213 36.26 13.8213 36.48C13.8483 36.9473 14.2263 37.3322 14.6853 37.3322H18.1684H20.6524H23.8925H26.2955H29.9676C30.4266 37.3322 30.8316 36.9473 30.8316 36.48C30.8316 36.26 30.8316 36.0401 30.8316 35.8202C30.8586 30.047 28.6446 27.9576 27.5645 27.2703ZM28.2666 34.0882H26.5385V35.8477H24.3245V34.0882H22.5964V31.8339H24.3245V30.0745H26.5385V31.8339H28.2666V34.0882Z" fill="#EAE4F4"/>
</g>
<defs>
<clipPath id="clip0_5665_151471">
<rect width="31.4286" height="40" fill="white" transform="translate(6.6123 2.94141)"/>
</clipPath>
</defs>
</svg>
