<svg width="24" height="25" viewBox="0 0 24 25" fill="none" xmlns="http://www.w3.org/2000/svg">
<path opacity="0.4" d="M7.37 22.8008H16.62C19.31 22.8008 21.49 20.6208 21.49 17.9308V9.17078C21.49 6.48078 19.31 4.30078 16.62 4.30078H7.37C4.68 4.30078 2.5 6.48078 2.5 9.17078V17.9208C2.5 20.6208 4.68 22.8008 7.37 22.8008Z" fill="#581C87"/>
<path d="M8.29004 7.09078C7.87004 7.09078 7.54004 6.75078 7.54004 6.34078V3.55078C7.54004 3.14078 7.87004 2.80078 8.29004 2.80078C8.71004 2.80078 9.04004 3.14078 9.04004 3.55078V6.33078C9.04004 6.75078 8.71004 7.09078 8.29004 7.09078Z" fill="#581C87"/>
<path d="M15.71 7.09078C15.29 7.09078 14.96 6.75078 14.96 6.34078V3.55078C14.96 3.13078 15.3 2.80078 15.71 2.80078C16.13 2.80078 16.46 3.14078 16.46 3.55078V6.33078C16.46 6.75078 16.13 7.09078 15.71 7.09078Z" fill="#581C87"/>
<path d="M14.7799 14.5117H7.35986C6.93986 14.5117 6.60986 14.1717 6.60986 13.7617C6.60986 13.3517 6.94986 13.0117 7.35986 13.0117H14.7799C15.1999 13.0117 15.5299 13.3517 15.5299 13.7617C15.5299 14.1717 15.1999 14.5117 14.7799 14.5117Z" fill="#581C87"/>
<path d="M11.9999 18.2207H7.35986C6.93986 18.2207 6.60986 17.8807 6.60986 17.4707C6.60986 17.0507 6.94986 16.7207 7.35986 16.7207H11.9999C12.4199 16.7207 12.7499 17.0607 12.7499 17.4707C12.7499 17.8807 12.4199 18.2207 11.9999 18.2207Z" fill="#581C87"/>
</svg>
