<svg width="24" height="25" viewBox="0 0 24 25" fill="none" xmlns="http://www.w3.org/2000/svg">
<path d="M16.2498 17.6637C17.2874 17.6637 18.1286 16.8226 18.1286 15.785C18.1286 14.7474 17.2874 13.9062 16.2498 13.9062C15.2122 13.9062 14.3711 14.7474 14.3711 15.785C14.3711 16.8226 15.2122 17.6637 16.2498 17.6637Z" fill="#A461D8"/>
<path d="M17.4991 18.5888C16.6407 18.5269 15.8598 18.527 14.9995 18.5892C13.8221 18.6744 12.8973 19.6017 12.7035 20.766C12.5884 21.4571 13.0727 22.1076 13.7701 22.1733C15.5518 22.3409 16.952 22.3429 18.7308 22.1747C19.428 22.1087 19.9114 21.458 19.7964 20.7671C19.6024 19.602 18.6772 18.6738 17.4991 18.5888Z" fill="#A461D8"/>
<path opacity="0.35" fill-rule="evenodd" clip-rule="evenodd" d="M16.7846 3.90039C16.7326 5.29071 15.5893 6.40172 14.1864 6.40172H9.18643C7.78355 6.40172 6.64024 5.29072 6.58828 3.90042C6.24713 3.95675 5.96885 4.04524 5.72066 4.18423C5.23794 4.45457 4.83937 4.85313 4.56904 5.33586C4.18652 6.01888 4.18652 6.92983 4.18652 8.75172V19.3017C4.18652 20.9586 5.52967 22.3017 7.18652 22.3017H11.8851C11.561 21.8074 11.4162 21.1936 11.5199 20.5707C11.7345 19.2824 12.5902 18.152 13.8021 17.6542C13.4063 17.1363 13.1713 16.489 13.1713 15.7868C13.1713 14.0864 14.5497 12.708 16.25 12.708C17.6271 12.708 18.793 13.6121 19.1865 14.8591V8.75172C19.1865 6.92983 19.1865 6.01888 18.804 5.33586C18.5337 4.85313 18.1351 4.45457 17.6524 4.18423C17.4042 4.04521 17.1258 3.95672 16.7846 3.90039ZM7.68652 8.55172C7.27231 8.55172 6.93652 8.88751 6.93652 9.30172C6.93652 9.71593 7.27231 10.0517 7.68652 10.0517H15.6865C16.1007 10.0517 16.4365 9.71593 16.4365 9.30172C16.4365 8.88751 16.1007 8.55172 15.6865 8.55172H7.68652ZM7.68652 12.0517C7.27231 12.0517 6.93652 12.3875 6.93652 12.8017C6.93652 13.2159 7.27231 13.5517 7.68652 13.5517H12.0892C12.5035 13.5517 12.8392 13.2159 12.8392 12.8017C12.8392 12.3875 12.5035 12.0517 12.0892 12.0517H7.68652ZM7.68652 15.5517C7.27231 15.5517 6.93652 15.8875 6.93652 16.3017C6.93652 16.7159 7.27231 17.0517 7.68652 17.0517H11.066C11.4803 17.0517 11.816 16.7159 11.816 16.3017C11.816 15.8875 11.4803 15.5517 11.066 15.5517H7.68652Z" fill="#A461D8"/>
<path d="M14.1865 2.30078H9.18652C8.3581 2.30078 7.68652 2.97235 7.68652 3.80078L7.68657 3.81212C7.69266 4.63533 8.36188 5.30078 9.18652 5.30078H14.1865C15.0112 5.30078 15.6804 4.63533 15.6865 3.81212L15.6865 3.80078C15.6865 2.97235 15.015 2.30078 14.1865 2.30078Z" fill="#A461D8"/>
</svg>
