<svg width="24" height="25" viewBox="0 0 24 25" fill="none" xmlns="http://www.w3.org/2000/svg">
<path opacity="0.4" d="M7.37 22.7656H16.62C19.31 22.7656 21.49 20.5856 21.49 17.8956V9.13562C21.49 6.44562 19.31 4.26562 16.62 4.26562H7.37C4.68 4.26563 2.5 6.44562 2.5 9.13562V17.8856C2.5 20.5856 4.68 22.7656 7.37 22.7656Z" fill="#A461D8"/>
<path d="M8.29004 7.05562C7.87004 7.05562 7.54004 6.71563 7.54004 6.30562V3.51562C7.54004 3.10563 7.87004 2.76562 8.29004 2.76562C8.71004 2.76562 9.04004 3.10563 9.04004 3.51562V6.29563C9.04004 6.71563 8.71004 7.05562 8.29004 7.05562Z" fill="#A461D8"/>
<path d="M15.71 7.05562C15.29 7.05562 14.96 6.71563 14.96 6.30562V3.51562C14.96 3.09563 15.3 2.76562 15.71 2.76562C16.13 2.76562 16.46 3.10563 16.46 3.51562V6.29563C16.46 6.71563 16.13 7.05562 15.71 7.05562Z" fill="#A461D8"/>
<path d="M14.7799 14.4766H7.35986C6.93986 14.4766 6.60986 14.1366 6.60986 13.7266C6.60986 13.3166 6.94986 12.9766 7.35986 12.9766H14.7799C15.1999 12.9766 15.5299 13.3166 15.5299 13.7266C15.5299 14.1366 15.1999 14.4766 14.7799 14.4766Z" fill="#A461D8"/>
<path d="M11.9999 18.1855H7.35986C6.93986 18.1855 6.60986 17.8455 6.60986 17.4355C6.60986 17.0155 6.94986 16.6855 7.35986 16.6855H11.9999C12.4199 16.6855 12.7499 17.0255 12.7499 17.4355C12.7499 17.8455 12.4199 18.1855 11.9999 18.1855Z" fill="#A461D8"/>
</svg>
