<svg width="25" height="25" viewBox="0 0 25 25" fill="none" xmlns="http://www.w3.org/2000/svg">
<path d="M8.37354 6.91602V5.91602C8.37354 4.25916 9.71668 2.91602 11.3735 2.91602H13.3735C15.0304 2.91602 16.3735 4.25916 16.3735 5.91602V6.91602M6.37353 22.916H18.3735C20.5827 22.916 22.3735 21.1252 22.3735 18.916V10.916C22.3735 8.70688 20.5827 6.91602 18.3735 6.91602H6.37354C4.1644 6.91602 2.37354 8.70688 2.37354 10.916V18.916C2.37354 21.1252 4.1644 22.916 6.37353 22.916Z" stroke="#A461D8" stroke-width="2" stroke-linecap="round"/>
<path d="M12.9335 10.9062H11.8135C11.5895 10.9062 11.4775 10.9062 11.3919 10.9498C11.3167 10.9882 11.2555 11.0494 11.2171 11.1247C11.1735 11.2102 11.1735 11.3222 11.1735 11.5463V13.0662C11.1735 13.2903 11.1735 13.4023 11.1299 13.4878C11.0916 13.5631 11.0304 13.6243 10.9551 13.6627C10.8696 13.7063 10.7576 13.7063 10.5335 13.7063H9.01354C8.78951 13.7063 8.6775 13.7063 8.59194 13.7498C8.51667 13.7882 8.45548 13.8494 8.41713 13.9247C8.37354 14.0102 8.37354 14.1222 8.37354 14.3463V15.4662C8.37354 15.6903 8.37354 15.8023 8.41713 15.8878C8.45548 15.9631 8.51667 16.0243 8.59194 16.0627C8.6775 16.1062 8.78951 16.1062 9.01354 16.1062H10.5335C10.7576 16.1062 10.8696 16.1062 10.9551 16.1498C11.0304 16.1882 11.0916 16.2494 11.1299 16.3247C11.1735 16.4102 11.1735 16.5222 11.1735 16.7463V18.2662C11.1735 18.4903 11.1735 18.6023 11.2171 18.6878C11.2555 18.7631 11.3167 18.8243 11.3919 18.8627C11.4775 18.9062 11.5895 18.9062 11.8135 18.9062H12.9335C13.1576 18.9062 13.2696 18.9062 13.3551 18.8627C13.4304 18.8243 13.4916 18.7631 13.5299 18.6878C13.5735 18.6023 13.5735 18.4903 13.5735 18.2662V16.7463C13.5735 16.5222 13.5735 16.4102 13.6171 16.3247C13.6555 16.2494 13.7167 16.1882 13.7919 16.1498C13.8775 16.1062 13.9895 16.1062 14.2135 16.1062H15.7335C15.9576 16.1062 16.0696 16.1062 16.1551 16.0627C16.2304 16.0243 16.2916 15.9631 16.3299 15.8878C16.3735 15.8023 16.3735 15.6903 16.3735 15.4662V14.3463C16.3735 14.1222 16.3735 14.0102 16.3299 13.9247C16.2916 13.8494 16.2304 13.7882 16.1551 13.7498C16.0696 13.7063 15.9576 13.7063 15.7335 13.7063H14.2135C13.9895 13.7063 13.8775 13.7063 13.7919 13.6627C13.7167 13.6243 13.6555 13.5631 13.6171 13.4878C13.5735 13.4023 13.5735 13.2903 13.5735 13.0662V11.5463C13.5735 11.3222 13.5735 11.2102 13.5299 11.1247C13.4916 11.0494 13.4304 10.9882 13.3551 10.9498C13.2696 10.9062 13.1576 10.9062 12.9335 10.9062Z" fill="#A461D8"/>
</svg>
