<svg width="24" height="25" viewBox="0 0 24 25" fill="none" xmlns="http://www.w3.org/2000/svg">
<path fill-rule="evenodd" clip-rule="evenodd" d="M11 3.51562C9.75736 3.51562 8.75 4.52298 8.75 5.76562V7.76562C8.75 8.17984 8.41421 8.51562 8 8.51562C7.58579 8.51562 7.25 8.17984 7.25 7.76562V5.76562C7.25 3.69456 8.92893 2.01562 11 2.01562H13C15.0711 2.01562 16.75 3.69456 16.75 5.76562V7.76562C16.75 8.17984 16.4142 8.51562 16 8.51562C15.5858 8.51562 15.25 8.17984 15.25 7.76562V5.76562C15.25 4.52298 14.2426 3.51562 13 3.51562H11Z" fill="#A461D8"/>
<path opacity="0.35" d="M2 10.7656C2 8.55649 3.79086 6.76562 6 6.76562H18C20.2091 6.76562 22 8.55649 22 10.7656V18.7656C22 20.9748 20.2091 22.7656 18 22.7656H6C3.79086 22.7656 2 20.9748 2 18.7656V10.7656Z" fill="#A461D8"/>
<path d="M12.56 10.7656H11.44C11.216 10.7656 11.104 10.7656 11.0184 10.8092C10.9431 10.8476 10.8819 10.9088 10.8436 10.984C10.8 11.0696 10.8 11.1816 10.8 11.4056V12.9256C10.8 13.1496 10.8 13.2617 10.7564 13.3472C10.7181 13.4225 10.6569 13.4837 10.5816 13.522C10.496 13.5656 10.384 13.5656 10.16 13.5656H8.64C8.41598 13.5656 8.30397 13.5656 8.2184 13.6092C8.14314 13.6476 8.08195 13.7088 8.0436 13.784C8 13.8696 8 13.9816 8 14.2056V15.3256C8 15.5496 8 15.6617 8.0436 15.7472C8.08195 15.8225 8.14314 15.8837 8.2184 15.922C8.30397 15.9656 8.41598 15.9656 8.64 15.9656H10.16C10.384 15.9656 10.496 15.9656 10.5816 16.0092C10.6569 16.0476 10.7181 16.1088 10.7564 16.184C10.8 16.2696 10.8 16.3816 10.8 16.6056V18.1256C10.8 18.3496 10.8 18.4617 10.8436 18.5472C10.8819 18.6225 10.9431 18.6837 11.0184 18.722C11.104 18.7656 11.216 18.7656 11.44 18.7656H12.56C12.784 18.7656 12.896 18.7656 12.9816 18.722C13.0569 18.6837 13.1181 18.6225 13.1564 18.5472C13.2 18.4617 13.2 18.3496 13.2 18.1256V16.6056C13.2 16.3816 13.2 16.2696 13.2436 16.184C13.2819 16.1088 13.3431 16.0476 13.4184 16.0092C13.504 15.9656 13.616 15.9656 13.84 15.9656H15.36C15.584 15.9656 15.696 15.9656 15.7816 15.922C15.8569 15.8837 15.9181 15.8225 15.9564 15.7472C16 15.6617 16 15.5496 16 15.3256V14.2056C16 13.9816 16 13.8696 15.9564 13.784C15.9181 13.7088 15.8569 13.6476 15.7816 13.6092C15.696 13.5656 15.584 13.5656 15.36 13.5656H13.84C13.616 13.5656 13.504 13.5656 13.4184 13.522C13.3431 13.4837 13.2819 13.4225 13.2436 13.3472C13.2 13.2617 13.2 13.1496 13.2 12.9256V11.4056C13.2 11.1816 13.2 11.0696 13.1564 10.984C13.1181 10.9088 13.0569 10.8476 12.9816 10.8092C12.896 10.7656 12.784 10.7656 12.56 10.7656Z" fill="#A461D8"/>
</svg>
