<svg width="24" height="25" viewBox="0 0 24 25" fill="none" xmlns="http://www.w3.org/2000/svg">
<path fill-rule="evenodd" clip-rule="evenodd" d="M11 3.55078C9.75736 3.55078 8.75 4.55814 8.75 5.80078V7.80078C8.75 8.21499 8.41421 8.55078 8 8.55078C7.58579 8.55078 7.25 8.21499 7.25 7.80078V5.80078C7.25 3.72971 8.92893 2.05078 11 2.05078H13C15.0711 2.05078 16.75 3.72971 16.75 5.80078V7.80078C16.75 8.21499 16.4142 8.55078 16 8.55078C15.5858 8.55078 15.25 8.21499 15.25 7.80078V5.80078C15.25 4.55814 14.2426 3.55078 13 3.55078H11Z" fill="#581C87"/>
<path opacity="0.35" d="M2 10.8008C2 8.59164 3.79086 6.80078 6 6.80078H18C20.2091 6.80078 22 8.59164 22 10.8008V18.8008C22 21.0099 20.2091 22.8008 18 22.8008H6C3.79086 22.8008 2 21.0099 2 18.8008V10.8008Z" fill="#581C87"/>
<path d="M12.56 10.8008H11.44C11.216 10.8008 11.104 10.8008 11.0184 10.8444C10.9431 10.8827 10.8819 10.9439 10.8436 11.0192C10.8 11.1047 10.8 11.2168 10.8 11.4408V12.9608C10.8 13.1848 10.8 13.2968 10.7564 13.3824C10.7181 13.4576 10.6569 13.5188 10.5816 13.5572C10.496 13.6008 10.384 13.6008 10.16 13.6008H8.64C8.41598 13.6008 8.30397 13.6008 8.2184 13.6444C8.14314 13.6827 8.08195 13.7439 8.0436 13.8192C8 13.9047 8 14.0168 8 14.2408V15.3608C8 15.5848 8 15.6968 8.0436 15.7824C8.08195 15.8576 8.14314 15.9188 8.2184 15.9572C8.30397 16.0008 8.41598 16.0008 8.64 16.0008H10.16C10.384 16.0008 10.496 16.0008 10.5816 16.0444C10.6569 16.0827 10.7181 16.1439 10.7564 16.2192C10.8 16.3047 10.8 16.4168 10.8 16.6408V18.1608C10.8 18.3848 10.8 18.4968 10.8436 18.5824C10.8819 18.6576 10.9431 18.7188 11.0184 18.7572C11.104 18.8008 11.216 18.8008 11.44 18.8008H12.56C12.784 18.8008 12.896 18.8008 12.9816 18.7572C13.0569 18.7188 13.1181 18.6576 13.1564 18.5824C13.2 18.4968 13.2 18.3848 13.2 18.1608V16.6408C13.2 16.4168 13.2 16.3047 13.2436 16.2192C13.2819 16.1439 13.3431 16.0827 13.4184 16.0444C13.504 16.0008 13.616 16.0008 13.84 16.0008H15.36C15.584 16.0008 15.696 16.0008 15.7816 15.9572C15.8569 15.9188 15.9181 15.8576 15.9564 15.7824C16 15.6968 16 15.5848 16 15.3608V14.2408C16 14.0168 16 13.9047 15.9564 13.8192C15.9181 13.7439 15.8569 13.6827 15.7816 13.6444C15.696 13.6008 15.584 13.6008 15.36 13.6008H13.84C13.616 13.6008 13.504 13.6008 13.4184 13.5572C13.3431 13.5188 13.2819 13.4576 13.2436 13.3824C13.2 13.2968 13.2 13.1848 13.2 12.9608V11.4408C13.2 11.2168 13.2 11.1047 13.1564 11.0192C13.1181 10.9439 13.0569 10.8827 12.9816 10.8444C12.896 10.8008 12.784 10.8008 12.56 10.8008Z" fill="#581C87"/>
</svg>
