<svg width="25" height="25" viewBox="0 0 25 25" fill="none" xmlns="http://www.w3.org/2000/svg">
<path opacity="0.4" d="M18.1533 5.65625C16.4433 5.65625 14.4033 6.30625 14.4033 9.40625V15.4062C14.4033 18.5063 16.4433 19.1562 18.1533 19.1562C19.8633 19.1562 21.9033 18.5063 21.9033 15.4062V9.40625C21.9033 6.30625 19.8633 5.65625 18.1533 5.65625Z" fill="#A461D8"/>
<path opacity="0.4" d="M7.79297 5.65625C6.08297 5.65625 4.04297 6.30625 4.04297 9.40625V15.4062C4.04297 18.5063 6.08297 19.1562 7.79297 19.1562C9.50297 19.1562 11.543 18.5063 11.543 15.4062V9.40625C11.543 6.30625 9.50297 5.65625 7.79297 5.65625Z" fill="#A461D8"/>
<path d="M14.403 11.6562H11.543V13.1562H14.403V11.6562Z" fill="#A461D8"/>
<path d="M23.4731 15.6562C23.0631 15.6562 22.7231 15.3162 22.7231 14.9062V9.90625C22.7231 9.49625 23.0631 9.15625 23.4731 9.15625C23.8831 9.15625 24.2231 9.49625 24.2231 9.90625V14.9062C24.2231 15.3162 23.8831 15.6562 23.4731 15.6562Z" fill="#A461D8"/>
<path d="M2.47314 15.6562C2.06314 15.6562 1.72314 15.3162 1.72314 14.9062V9.90625C1.72314 9.49625 2.06314 9.15625 2.47314 9.15625C2.88314 9.15625 3.22314 9.49625 3.22314 9.90625V14.9062C3.22314 15.3162 2.88314 15.6562 2.47314 15.6562Z" fill="#A461D8"/>
</svg>
