<svg width="24" height="25" viewBox="0 0 24 25" fill="none" xmlns="http://www.w3.org/2000/svg">
<path fill-rule="evenodd" clip-rule="evenodd" d="M11 3.08008C9.75736 3.08008 8.75 4.08744 8.75 5.33008V7.33008C8.75 7.74429 8.41421 8.08008 8 8.08008C7.58579 8.08008 7.25 7.74429 7.25 7.33008V5.33008C7.25 3.25901 8.92893 1.58008 11 1.58008H13C15.0711 1.58008 16.75 3.25901 16.75 5.33008V7.33008C16.75 7.74429 16.4142 8.08008 16 8.08008C15.5858 8.08008 15.25 7.74429 15.25 7.33008V5.33008C15.25 4.08744 14.2426 3.08008 13 3.08008H11Z" fill="white"/>
<path opacity="0.35" d="M2 10.3301C2 8.12094 3.79086 6.33008 6 6.33008H18C20.2091 6.33008 22 8.12094 22 10.3301V18.3301C22 20.5392 20.2091 22.3301 18 22.3301H6C3.79086 22.3301 2 20.5392 2 18.3301V10.3301Z" fill="white"/>
<path d="M12.56 10.3301H11.44C11.216 10.3301 11.104 10.3301 11.0184 10.3737C10.9431 10.412 10.8819 10.4732 10.8436 10.5485C10.8 10.634 10.8 10.7461 10.8 10.9701V12.4901C10.8 12.7141 10.8 12.8261 10.7564 12.9117C10.7181 12.9869 10.6569 13.0481 10.5816 13.0865C10.496 13.1301 10.384 13.1301 10.16 13.1301H8.64C8.41598 13.1301 8.30397 13.1301 8.2184 13.1737C8.14314 13.212 8.08195 13.2732 8.0436 13.3485C8 13.434 8 13.5461 8 13.7701V14.8901C8 15.1141 8 15.2261 8.0436 15.3117C8.08195 15.3869 8.14314 15.4481 8.2184 15.4865C8.30397 15.5301 8.41598 15.5301 8.64 15.5301H10.16C10.384 15.5301 10.496 15.5301 10.5816 15.5737C10.6569 15.612 10.7181 15.6732 10.7564 15.7485C10.8 15.834 10.8 15.9461 10.8 16.1701V17.6901C10.8 17.9141 10.8 18.0261 10.8436 18.1117C10.8819 18.1869 10.9431 18.2481 11.0184 18.2865C11.104 18.3301 11.216 18.3301 11.44 18.3301H12.56C12.784 18.3301 12.896 18.3301 12.9816 18.2865C13.0569 18.2481 13.1181 18.1869 13.1564 18.1117C13.2 18.0261 13.2 17.9141 13.2 17.6901V16.1701C13.2 15.9461 13.2 15.834 13.2436 15.7485C13.2819 15.6732 13.3431 15.612 13.4184 15.5737C13.504 15.5301 13.616 15.5301 13.84 15.5301H15.36C15.584 15.5301 15.696 15.5301 15.7816 15.4865C15.8569 15.4481 15.9181 15.3869 15.9564 15.3117C16 15.2261 16 15.1141 16 14.8901V13.7701C16 13.5461 16 13.434 15.9564 13.3485C15.9181 13.2732 15.8569 13.212 15.7816 13.1737C15.696 13.1301 15.584 13.1301 15.36 13.1301H13.84C13.616 13.1301 13.504 13.1301 13.4184 13.0865C13.3431 13.0481 13.2819 12.9869 13.2436 12.9117C13.2 12.8261 13.2 12.7141 13.2 12.4901V10.9701C13.2 10.7461 13.2 10.634 13.1564 10.5485C13.1181 10.4732 13.0569 10.412 12.9816 10.3737C12.896 10.3301 12.784 10.3301 12.56 10.3301Z" fill="white"/>
</svg>
