<svg width="24" height="25" viewBox="0 0 24 25" fill="none" xmlns="http://www.w3.org/2000/svg">
<path opacity="0.4" d="M20.5 10.9908H17.61C15.24 10.9908 13.31 9.06078 13.31 6.69078V3.80078C13.31 3.25078 12.86 2.80078 12.31 2.80078H8.07C4.99 2.80078 2.5 4.80078 2.5 8.37078V17.2308C2.5 20.8008 4.99 22.8008 8.07 22.8008H15.93C19.01 22.8008 21.5 20.8008 21.5 17.2308V11.9908C21.5 11.4408 21.05 10.9908 20.5 10.9908Z" fill="#581C87"/>
<path d="M15.8002 3.01126C15.3902 2.60126 14.6802 2.88126 14.6802 3.45126V6.94126C14.6802 8.40126 15.9202 9.61126 17.4302 9.61126C18.3802 9.62126 19.7002 9.62126 20.8302 9.62126C21.4002 9.62126 21.7002 8.95126 21.3002 8.55126C19.8602 7.10126 17.2802 4.49126 15.8002 3.01126Z" fill="#581C87"/>
<path d="M11.1602 13.5317C10.5702 13.3417 9.9402 13.4517 9.5002 13.8017C9.0402 13.4517 8.4302 13.3417 7.8502 13.5317C6.5802 13.9417 6.1802 15.3917 6.5302 16.5017C7.0702 18.2017 8.8602 19.0717 9.5102 19.0717C10.1402 19.0717 11.9602 18.1717 12.4902 16.5017C12.8302 15.3917 12.4302 13.9417 11.1602 13.5317Z" fill="#581C87"/>
</svg>
