<svg width="24" height="25" viewBox="0 0 24 25" fill="none" xmlns="http://www.w3.org/2000/svg">
<path opacity="0.4" d="M20.5 10.9556H17.61C15.24 10.9556 13.31 9.02562 13.31 6.65562V3.76562C13.31 3.21562 12.86 2.76562 12.31 2.76562H8.07C4.99 2.76562 2.5 4.76563 2.5 8.33563V17.1956C2.5 20.7656 4.99 22.7656 8.07 22.7656H15.93C19.01 22.7656 21.5 20.7656 21.5 17.1956V11.9556C21.5 11.4056 21.05 10.9556 20.5 10.9556Z" fill="#A461D8"/>
<path d="M15.8002 2.97611C15.3902 2.56611 14.6802 2.84611 14.6802 3.41611V6.90611C14.6802 8.36611 15.9202 9.57611 17.4302 9.57611C18.3802 9.58611 19.7002 9.58611 20.8302 9.58611C21.4002 9.58611 21.7002 8.91611 21.3002 8.51611C19.8602 7.06611 17.2802 4.45611 15.8002 2.97611Z" fill="#A461D8"/>
<path d="M11.1602 13.4965C10.5702 13.3065 9.9402 13.4165 9.5002 13.7665C9.0402 13.4165 8.4302 13.3065 7.8502 13.4965C6.5802 13.9065 6.1802 15.3565 6.5302 16.4665C7.0702 18.1665 8.8602 19.0365 9.5102 19.0365C10.1402 19.0365 11.9602 18.1365 12.4902 16.4665C12.8302 15.3565 12.4302 13.9065 11.1602 13.4965Z" fill="#A461D8"/>
</svg>
