<svg width="24" height="25" viewBox="0 0 24 25" fill="none" xmlns="http://www.w3.org/2000/svg">
<path opacity="0.4" d="M20.5 10.5201H17.61C15.24 10.5201 13.31 8.59008 13.31 6.22008V3.33008C13.31 2.78008 12.86 2.33008 12.31 2.33008H8.07C4.99 2.33008 2.5 4.33008 2.5 7.90008V16.7601C2.5 20.3301 4.99 22.3301 8.07 22.3301H15.93C19.01 22.3301 21.5 20.3301 21.5 16.7601V11.5201C21.5 10.9701 21.05 10.5201 20.5 10.5201Z" fill="white"/>
<path d="M15.8002 2.54056C15.3902 2.13056 14.6802 2.41056 14.6802 2.98056V6.47056C14.6802 7.93056 15.9202 9.14056 17.4302 9.14056C18.3802 9.15056 19.7002 9.15056 20.8302 9.15056C21.4002 9.15056 21.7002 8.48056 21.3002 8.08056C19.8602 6.63056 17.2802 4.02056 15.8002 2.54056Z" fill="white"/>
<path d="M11.1602 13.061C10.5702 12.871 9.9402 12.981 9.5002 13.331C9.0402 12.981 8.4302 12.871 7.8502 13.061C6.5802 13.471 6.1802 14.921 6.5302 16.031C7.0702 17.731 8.8602 18.601 9.5102 18.601C10.1402 18.601 11.9602 17.701 12.4902 16.031C12.8302 14.921 12.4302 13.471 11.1602 13.061Z" fill="white"/>
</svg>
