<svg width="44" height="45" viewBox="0 0 44 45" fill="none" xmlns="http://www.w3.org/2000/svg">
<g clip-path="url(#clip0_5665_151481)">
<path d="M23.6231 20.7857C28.5656 19.619 31.6264 14.6664 30.4596 9.72395C29.2928 4.78146 24.3403 1.72063 19.3979 2.88739C14.4554 4.05415 11.3946 9.00668 12.5613 13.9492C13.7281 18.8917 18.6806 21.9525 23.6231 20.7857Z" fill="#EAE4F4"/>
<path opacity="0.4" d="M33.0465 22.2304C32.371 21.8178 31.5919 21.6117 30.8013 21.5949C29.6484 21.5705 28.5384 22.0511 27.6863 22.828C25.9864 24.3779 24.6255 25.4535 21.5095 25.4535C18.392 25.4535 16.9777 24.3474 15.3575 22.8409C14.6129 22.1484 13.6688 21.6717 12.6542 21.6047C11.7169 21.5428 10.772 21.7419 9.97245 22.2304C7.56611 23.6999 2.70605 28.2223 2.70605 40.7787C2.70605 41.2738 2.71377 41.7515 2.72754 42.2154C2.75838 43.2557 3.61792 44.0792 4.65866 44.0792H12.3143H17.7891H24.9536H30.2402H38.3602C39.4009 44.0792 40.2604 43.2558 40.2914 42.2155C40.3051 41.7516 40.3129 41.2739 40.3129 40.7787C40.3129 28.2223 35.4528 23.6999 33.0465 22.2304ZM32.2074 36.028H29.8899V38.3455H26.9102V36.028H24.5926V33.0483H26.9102V30.7307H29.8899V33.0483H32.2074V36.028Z" fill="#EAE4F4"/>
</g>
<defs>
<clipPath id="clip0_5665_151481">
<rect width="44" height="44" fill="white" transform="translate(0 0.15625)"/>
</clipPath>
</defs>
</svg>
