<svg width="24" height="25" viewBox="0 0 24 25" fill="none" xmlns="http://www.w3.org/2000/svg">
<path opacity="0.35" fill-rule="evenodd" clip-rule="evenodd" d="M12 22.1992C17.5228 22.1992 22 17.7221 22 12.1992C22 6.67637 17.5228 2.19922 12 2.19922C6.47715 2.19922 2 6.67637 2 12.1992C2 17.7221 6.47715 22.1992 12 22.1992Z" fill="#A461D8"/>
<path d="M14.2929 7.49211C14.6834 7.10159 15.3166 7.10159 15.7071 7.49211C16.0976 7.88264 16.0976 8.5158 15.7071 8.90633L12.7071 11.9063C12.3166 12.2969 11.6834 12.2969 11.2929 11.9063C10.9024 11.5158 10.9024 10.8826 11.2929 10.4921L14.2929 7.49211Z" fill="#A461D8"/>
<path d="M6.29289 10.4921C6.68342 10.1016 7.31658 10.1016 7.70711 10.4921L8.70711 11.4921C9.09763 11.8826 9.09763 12.5158 8.70711 12.9063C8.31658 13.2968 7.68342 13.2968 7.29289 12.9063L6.29289 11.9063C5.90237 11.5158 5.90237 10.8826 6.29289 10.4921Z" fill="#A461D8"/>
<path d="M10 9.19922C10.5523 9.19922 11 8.7515 11 8.19922C11 7.64693 10.5523 7.19922 10 7.19922C9.44772 7.19922 9 7.64693 9 8.19922C9 8.7515 9.44772 9.19922 10 9.19922Z" fill="#A461D8"/>
<path d="M10 16.1992C10 16.7515 9.55228 17.1992 9 17.1992C8.44772 17.1992 8 16.7515 8 16.1992C8 15.6469 8.44772 15.1992 9 15.1992C9.55228 15.1992 10 15.6469 10 16.1992Z" fill="#A461D8"/>
<path d="M18 11.6992C18 11.1469 17.5523 10.6992 17 10.6992C16.4477 10.6992 16 11.1469 16 11.6992V12.1992C16 12.7515 15.5523 13.1992 15 13.1992C13.3431 13.1992 12 14.5424 12 16.1992V16.6992C12 17.2515 12.4477 17.6992 13 17.6992C13.5523 17.6992 14 17.2515 14 16.6992V16.1992C14 15.6469 14.4477 15.1992 15 15.1992C16.6569 15.1992 18 13.8561 18 12.1992V11.6992Z" fill="#A461D8"/>
</svg>
