<svg width="25" height="25" viewBox="0 0 25 25" fill="none" xmlns="http://www.w3.org/2000/svg">
<path opacity="0.35" d="M21.4585 18.3008V8.30078C21.4585 6.09164 19.6676 4.30078 17.4585 4.30078H8.4585H7.4585C5.24936 4.30078 3.4585 6.09164 3.4585 8.30078V18.3008C3.4585 20.5099 5.24936 22.3008 7.4585 22.3008H17.4585C19.6676 22.3008 21.4585 20.5099 21.4585 18.3008Z" fill="#A461D8"/>
<path d="M8.4585 4.30078C8.4585 3.19621 9.35393 2.30078 10.4585 2.30078H14.4585C15.5631 2.30078 16.4585 3.19621 16.4585 4.30078C16.4585 5.40535 15.5631 6.30078 14.4585 6.30078H10.4585C9.35393 6.30078 8.4585 5.40535 8.4585 4.30078Z" fill="#A461D8"/>
<path fill-rule="evenodd" clip-rule="evenodd" d="M11.5786 10.5605C11.8166 10.5991 12.0215 10.7497 12.1293 10.9654L13.664 14.0347L14.9282 12.7705C15.0688 12.6298 15.2596 12.5508 15.4585 12.5508H17.4585C17.8727 12.5508 18.2085 12.8866 18.2085 13.3008C18.2085 13.715 17.8727 14.0508 17.4585 14.0508H15.7692L13.9888 15.8311C13.8184 16.0016 13.5763 16.0797 13.3384 16.0411C13.1004 16.0025 12.8955 15.8518 12.7877 15.6362L11.253 12.5669L9.98883 13.8311C9.84817 13.9718 9.65741 14.0508 9.4585 14.0508H7.4585C7.04428 14.0508 6.7085 13.715 6.7085 13.3008C6.7085 12.8866 7.04428 12.5508 7.4585 12.5508H9.14784L10.9282 10.7705C11.0986 10.6 11.3407 10.5219 11.5786 10.5605Z" fill="#A461D8"/>
</svg>
