<svg width="24" height="25" viewBox="0 0 24 25" fill="none" xmlns="http://www.w3.org/2000/svg">
<path opacity="0.4" d="M22 8.00922V14.1992H17.92C17.25 14.1992 16.46 13.7192 16.15 13.1292L15.11 11.1592C14.83 10.6292 14.43 10.6592 14.21 11.2092L11.91 17.0192C11.66 17.6692 11.24 17.6692 10.98 17.0192L9.84 14.1392C9.57 13.4392 8.73 12.8692 7.98 12.8692L2 12.8992V8.00922C2 4.36922 4.17 2.19922 7.81 2.19922H16.19C19.83 2.19922 22 4.36922 22 8.00922Z" fill="#A461D8"/>
<path d="M22 16.3879V14.1979H17.92C17.25 14.1979 16.46 13.7179 16.15 13.1279L15.11 11.1579C14.83 10.6279 14.43 10.6579 14.21 11.2079L11.91 17.0179C11.66 17.6679 11.24 17.6679 10.98 17.0179L9.84 14.1379C9.57 13.4379 8.73 12.8679 7.98 12.8679L2 12.8979V16.3879C2 19.9679 4.1 22.1279 7.63 22.1879C7.74 22.1979 7.86 22.1979 7.97 22.1979H15.97C16.12 22.1979 16.27 22.1979 16.41 22.1879C19.92 22.1079 22 19.9579 22 16.3879Z" fill="#A461D8"/>
<path d="M2.00021 12.8984V16.2084C1.98021 15.8884 1.97021 15.5484 1.97021 15.1984V12.8984H2.00021Z" fill="#A461D8"/>
</svg>
