<svg width="17" height="25" viewBox="0 0 17 25" fill="none" xmlns="http://www.w3.org/2000/svg">
<path opacity="0.4" d="M1.83887 0.797852C1.83887 0.521709 1.61501 0.297852 1.33887 0.297852C1.06272 0.297852 0.838867 0.521709 0.838867 0.797852H1.33887H1.83887ZM1.33887 20.75H0.838867V21.25H1.33887V20.75ZM16.3545 21.1036C16.5498 20.9083 16.5498 20.5917 16.3545 20.3964L13.1725 17.2145C12.9773 17.0192 12.6607 17.0192 12.4654 17.2145C12.2702 17.4097 12.2702 17.7263 12.4654 17.9216L15.2939 20.75L12.4654 23.5784C12.2702 23.7737 12.2702 24.0903 12.4654 24.2855C12.6607 24.4808 12.9773 24.4808 13.1725 24.2855L16.3545 21.1036ZM1.33887 0.797852H0.838867V20.75H1.33887H1.83887V0.797852H1.33887ZM1.33887 20.75V21.25H16.001V20.75V20.25H1.33887V20.75Z" fill="#A461D8"/>
</svg>
