<svg width="25" height="25" viewBox="0 0 25 25" fill="none" xmlns="http://www.w3.org/2000/svg">
<path opacity="0.35" d="M6.69434 15.4648C6.69434 15.6149 6.53852 15.7166 6.40609 15.646C4.19757 14.4687 2.69434 12.1423 2.69434 9.46484C2.69434 5.59885 5.82834 2.46484 9.69434 2.46484C12.3718 2.46484 14.6982 3.96807 15.8755 6.1766C15.9461 6.30903 15.8444 6.46484 15.6943 6.46484C10.7238 6.46484 6.69434 10.4943 6.69434 15.4648Z" fill="#A461D8"/>
<path d="M21.3008 11.2725C22.176 12.4411 22.6943 13.8925 22.6943 15.4648C22.6943 19.3308 19.5603 22.4648 15.6943 22.4648C14.122 22.4648 12.6706 21.9465 11.502 21.0713L21.3008 11.2725ZM15.6943 8.46484C17.2667 8.46484 18.7181 8.98314 19.8867 9.8584L10.0879 19.6562C9.21291 18.4878 8.69434 17.0369 8.69434 15.4648C8.69434 11.5989 11.8283 8.46484 15.6943 8.46484Z" fill="#A461D8"/>
</svg>
