<svg width="25" height="25" viewBox="0 0 25 25" fill="none" xmlns="http://www.w3.org/2000/svg">
<path opacity="0.35" fill-rule="evenodd" clip-rule="evenodd" d="M22.1777 9.94927C22.1777 9.94926 22.1777 9.94929 22.1777 9.94927C22.1777 6.63556 19.4914 3.94922 16.1777 3.94922C14.641 3.94922 13.2392 4.52693 12.1777 5.47701C11.1162 4.52693 9.71444 3.94922 8.17773 3.94922C4.86402 3.94922 2.17773 6.63551 2.17773 9.94922C2.17773 9.94919 2.17773 9.94925 2.17773 9.94922C2.17773 17.3003 8.84919 20.7553 11.2937 21.7746C11.8632 22.012 12.4922 22.012 13.0617 21.7746C15.5062 20.7553 22.1777 17.3004 22.1777 9.94927Z" fill="#A461D8"/>
<path d="M22.0048 11.9492H17.3371L16.0968 9.0553C15.9392 8.68762 15.5777 8.44922 15.1777 8.44922C14.7776 8.44922 14.4161 8.68762 14.2585 9.0553L12.1777 13.9106L11.5968 12.5553C11.4392 12.1876 11.0777 11.9492 10.6777 11.9492H2.35059C2.47639 12.6584 2.66679 13.3244 2.90842 13.9492H10.0183L11.2585 16.8431C11.4161 17.2108 11.7776 17.4492 12.1777 17.4492C12.5777 17.4492 12.9392 17.2108 13.0968 16.8431L15.1777 11.9878L15.7585 13.3431C15.9161 13.7108 16.2776 13.9492 16.6777 13.9492H21.4469C21.6886 13.3244 21.879 12.6584 22.0048 11.9492Z" fill="#A461D8"/>
</svg>
