<svg width="24" height="24" viewBox="0 0 24 24" fill="none" xmlns="http://www.w3.org/2000/svg">
<g clip-path="url(#clip0_wardNavPc)">
<path d="M4.75 17V19C4.75 19.41 4.41 19.75 4 19.75C3.59 19.75 3.25 19.41 3.25 19V17H4.75Z" fill="#4B4AD5"/>
<path d="M20.75 17V19C20.75 19.41 20.41 19.75 20 19.75C19.59 19.75 19.25 19.41 19.25 19V17H20.75Z" fill="#4B4AD5"/>
<path d="M14.9097 9.00006H9.07969C8.66969 9.00006 8.30969 9.23006 8.14969 9.61006C7.93969 10.1901 7.93969 10.8201 8.14969 11.4001C8.29969 11.7701 8.66969 12.0201 9.06969 12.0101H14.9097C15.3097 12.0101 15.6797 11.7801 15.8297 11.4001C16.0397 10.8201 16.0397 10.1901 15.8297 9.61006C15.6797 9.23006 15.3097 8.99006 14.8997 9.00006H14.9097Z" fill="#4B4AD5"/>
<g opacity="0.4">
<path d="M22 7V16C22 16.55 21.55 17 21 17H3C2.45 17 2 16.55 2 16V7C2 5.9 2.9 5 4 5H20C21.1 5 22 5.9 22 7Z" fill="#4B4AD5"/>
</g>
<path d="M22 11.25H2V12.75H22V11.25Z" fill="#4B4AD5"/>
</g>
<defs>
<clipPath id="clip0_wardNavPc">
<rect width="24" height="24" fill="none"/>
</clipPath>
</defs>
</svg>
