<svg width="22" height="22" viewBox="0 0 22 22" fill="none" xmlns="http://www.w3.org/2000/svg">
<path d="M15 8C15 11.87 11.87 15 8 15C7.68 15 7.37 14.98 7.07 14.93C3.64 14.48 1 11.55 1 8C1 4.13 4.13 1 8 1C11.55 1 14.48 3.64 14.93 7.07C14.98 7.37 15 7.68 15 8Z" fill="#B6B6B6" stroke="#A2A2A8" stroke-width="1.8" stroke-linecap="round" stroke-linejoin="round"/>
<path d="M21.0003 14.0003C21.0003 17.8703 17.8703 21.0003 14.0003 21.0003C10.4503 21.0003 7.52031 18.3603 7.07031 14.9303C7.37031 14.9803 7.68031 15.0003 8.00031 15.0003C11.8703 15.0003 15.0003 11.8703 15.0003 8.00031C15.0003 7.68031 14.9803 7.37031 14.9303 7.07031C18.3603 7.52031 21.0003 10.4503 21.0003 14.0003Z" stroke="#A2A2A8" stroke-width="1.8" stroke-linecap="round" stroke-linejoin="round"/>
<path d="M13.1484 13.1201L14.4584 14.4101" stroke="#A2A2A8" stroke-width="1.8" stroke-linecap="round" stroke-linejoin="round"/>
<path d="M16 11L15 10" stroke="#A2A2A8" stroke-width="1.8" stroke-linecap="round" stroke-linejoin="round"/>
<path d="M11 16L10 15" stroke="#A2A2A8" stroke-width="1.8" stroke-linecap="round" stroke-linejoin="round"/>
</svg>
