<svg width="44" height="45" viewBox="0 0 44 45" fill="none" xmlns="http://www.w3.org/2000/svg">
<path d="M41.2771 39.9512H2.72218C1.9318 39.9512 1.27637 40.6066 1.27637 41.397C1.27637 42.1874 1.9318 42.8428 2.72218 42.8428H41.2771C42.0674 42.8428 42.7229 42.1874 42.7229 41.397C42.7229 40.6066 42.0674 39.9512 41.2771 39.9512Z" fill="#EAE4F4"/>
<path opacity="0.4" d="M31.6393 2.84375H12.3619C6.57862 2.84375 4.65088 6.29441 4.65088 10.5547V41.3986H39.3503V10.5547C39.3503 6.29441 37.4225 2.84375 31.6393 2.84375Z" fill="#EAE4F4"/>
<path d="M25.9724 27.9043H18.0108C17.0276 27.9043 16.1987 28.714 16.1987 29.7164V41.3985H27.7652V29.7164C27.7845 28.714 26.9748 27.9043 25.9724 27.9043Z" fill="#EAE4F4"/>
<path d="M26.8194 13.9287H23.4458V10.5552C23.4458 9.76481 22.7904 9.10938 22 9.10938C21.2097 9.10938 20.5542 9.76481 20.5542 10.5552V13.9287H17.1807C16.3903 13.9287 15.7349 14.5842 15.7349 15.3745C15.7349 16.1649 16.3903 16.8204 17.1807 16.8204H20.5542V20.1939C20.5542 20.9843 21.2097 21.6397 22 21.6397C22.7904 21.6397 23.4458 20.9843 23.4458 20.1939V16.8204H26.8194C27.6098 16.8204 28.2652 16.1649 28.2652 15.3745C28.2652 14.5842 27.6098 13.9287 26.8194 13.9287Z" fill="#EAE4F4"/>
</svg>
