<svg width="24" height="25" viewBox="0 0 24 25" fill="none" xmlns="http://www.w3.org/2000/svg">
<g clip-path="url(#clip0_5189_371378)">
<g clip-path="url(#clip1_5189_371378)">
<path opacity="0.35" d="M12.0024 2.40625C6.50244 2.40625 2.00244 6.85569 2.00244 12.2939C2.00244 14.4362 2.66911 16.4137 3.83577 18.0617V23.3351C3.83577 24.3239 5.00244 24.8182 5.75244 24.0767L8.33577 21.5224C9.50244 21.9343 10.7524 22.1815 12.0024 22.1815C17.5024 22.1815 22.0024 17.7321 22.0024 12.2939C22.0024 6.85569 17.5024 2.40625 12.0024 2.40625Z" fill="#A461D8"/>
<path d="M15.9193 11.3047H12.9193V8.33837C12.9193 7.84399 12.5026 7.34961 11.9193 7.34961C11.3359 7.34961 10.9193 7.76159 10.9193 8.33837V11.3047H8.08594C7.58594 11.3047 7.08594 11.7167 7.08594 12.2934C7.08594 12.7878 7.5026 13.2822 8.08594 13.2822H11.0859V16.2485C11.0859 16.7429 11.5026 17.2372 12.0859 17.2372C12.6693 17.2372 13.0859 16.8253 13.0859 16.2485V13.2822H16.0859C16.5859 13.2822 17.0859 12.8702 17.0859 12.2934C16.9193 11.7167 16.5026 11.3047 15.9193 11.3047Z" fill="#A461D8"/>
</g>
</g>
<defs>
<clipPath id="clip0_5189_371378">
<rect width="24" height="24" fill="white" transform="translate(0.00244141 0.40625)"/>
</clipPath>
<clipPath id="clip1_5189_371378">
<rect width="20" height="22" fill="white" transform="translate(2.00244 2.40625)"/>
</clipPath>
</defs>
</svg>
