<svg width="25" height="24" viewBox="0 0 25 24" fill="none" xmlns="http://www.w3.org/2000/svg">
<path opacity="0.35" d="M21.3765 10.19H18.4865C16.1165 10.19 14.1865 8.26 14.1865 5.89V3C14.1865 2.45 13.7365 2 13.1865 2H8.94646C5.86646 2 3.37646 4 3.37646 7.57V16.43C3.37646 20 5.86646 22 8.94646 22H16.8065C19.8865 22 22.3765 20 22.3765 16.43V11.19C22.3765 10.64 21.9265 10.19 21.3765 10.19Z" fill="#A461D8"/>
<path d="M16.6762 2.21048C16.2662 1.80048 15.5562 2.08048 15.5562 2.65048V6.14048C15.5562 7.60048 16.7962 8.81048 18.3062 8.81048C19.2562 8.82048 20.5762 8.82048 21.7062 8.82048C22.2762 8.82048 22.5762 8.15048 22.1762 7.75048C20.7362 6.30048 18.1562 3.69048 16.6762 2.21048Z" fill="#A461D8"/>
<path d="M14.3765 13.75H8.37646C7.96646 13.75 7.62646 13.41 7.62646 13C7.62646 12.59 7.96646 12.25 8.37646 12.25H14.3765C14.7865 12.25 15.1265 12.59 15.1265 13C15.1265 13.41 14.7865 13.75 14.3765 13.75Z" fill="#A461D8"/>
<path d="M12.3765 17.75H8.37646C7.96646 17.75 7.62646 17.41 7.62646 17C7.62646 16.59 7.96646 16.25 8.37646 16.25H12.3765C12.7865 16.25 13.1265 16.59 13.1265 17C13.1265 17.41 12.7865 17.75 12.3765 17.75Z" fill="#A461D8"/>
</svg>
