<svg width="25" height="24" viewBox="0 0 25 24" fill="none" xmlns="http://www.w3.org/2000/svg">
<path fill-rule="evenodd" clip-rule="evenodd" d="M11.8765 2.75C10.6338 2.75 9.62646 3.75736 9.62646 5V7C9.62646 7.41421 9.29068 7.75 8.87646 7.75C8.46225 7.75 8.12646 7.41421 8.12646 7V5C8.12646 2.92893 9.8054 1.25 11.8765 1.25H13.8765C15.9475 1.25 17.6265 2.92893 17.6265 5V7C17.6265 7.41421 17.2907 7.75 16.8765 7.75C16.4623 7.75 16.1265 7.41421 16.1265 7V5C16.1265 3.75736 15.1191 2.75 13.8765 2.75H11.8765Z" fill="#A461D8"/>
<path opacity="0.35" d="M2.87646 10C2.87646 7.79086 4.66733 6 6.87646 6H18.8765C21.0856 6 22.8765 7.79086 22.8765 10V18C22.8765 20.2091 21.0856 22 18.8765 22H6.87646C4.66733 22 2.87646 20.2091 2.87646 18V10Z" fill="#A461D8"/>
<path d="M13.4365 10H12.3165C12.0924 10 11.9804 10 11.8949 10.0436C11.8196 10.0819 11.7584 10.1431 11.7201 10.2184C11.6765 10.304 11.6765 10.416 11.6765 10.64V12.16C11.6765 12.384 11.6765 12.496 11.6329 12.5816C11.5945 12.6569 11.5333 12.7181 11.4581 12.7564C11.3725 12.8 11.2605 12.8 11.0365 12.8H9.51646C9.29244 12.8 9.18043 12.8 9.09487 12.8436C9.0196 12.8819 8.95841 12.9431 8.92006 13.0184C8.87646 13.104 8.87646 13.216 8.87646 13.44V14.56C8.87646 14.784 8.87646 14.896 8.92006 14.9816C8.95841 15.0569 9.0196 15.1181 9.09487 15.1564C9.18043 15.2 9.29244 15.2 9.51647 15.2H11.0365C11.2605 15.2 11.3725 15.2 11.4581 15.2436C11.5333 15.2819 11.5945 15.3431 11.6329 15.4184C11.6765 15.504 11.6765 15.616 11.6765 15.84V17.36C11.6765 17.584 11.6765 17.696 11.7201 17.7816C11.7584 17.8569 11.8196 17.9181 11.8949 17.9564C11.9804 18 12.0924 18 12.3165 18H13.4365C13.6605 18 13.7725 18 13.8581 17.9564C13.9333 17.9181 13.9945 17.8569 14.0329 17.7816C14.0765 17.696 14.0765 17.584 14.0765 17.36V15.84C14.0765 15.616 14.0765 15.504 14.1201 15.4184C14.1584 15.3431 14.2196 15.2819 14.2949 15.2436C14.3804 15.2 14.4924 15.2 14.7165 15.2H16.2365C16.4605 15.2 16.5725 15.2 16.6581 15.1564C16.7333 15.1181 16.7945 15.0569 16.8329 14.9816C16.8765 14.896 16.8765 14.784 16.8765 14.56V13.44C16.8765 13.216 16.8765 13.104 16.8329 13.0184C16.7945 12.9431 16.7333 12.8819 16.6581 12.8436C16.5725 12.8 16.4605 12.8 16.2365 12.8H14.7165C14.4924 12.8 14.3804 12.8 14.2949 12.7564C14.2196 12.7181 14.1584 12.6569 14.1201 12.5816C14.0765 12.496 14.0765 12.384 14.0765 12.16V10.64C14.0765 10.416 14.0765 10.304 14.0329 10.2184C13.9945 10.1431 13.9333 10.0819 13.8581 10.0436C13.7725 10 13.6605 10 13.4365 10Z" fill="#A461D8"/>
</svg>
