<svg width="25" height="24" viewBox="0 0 25 24" fill="none" xmlns="http://www.w3.org/2000/svg">
<path d="M16.7219 22.0002H9.04193C4.85193 22.0002 4.02194 19.4702 5.38193 16.3902L6.82193 13.1202C6.82193 13.1202 9.88193 13.0002 12.8819 14.0002C15.8819 15.0002 18.7119 13.1102 18.7119 13.1102L18.9019 12.9902L20.3919 16.4002C21.7319 19.4802 20.8519 22.0002 16.7219 22.0002Z" fill="#A461D8"/>
<path opacity="0.35" d="M18.9023 12.992L18.7123 13.112C18.7123 13.112 15.8823 15.002 12.8823 14.002C9.88227 13.002 6.82227 13.122 6.82227 13.122L9.62227 6.74195H9.32227C8.67227 6.74195 8.07227 6.48195 7.64227 6.05195C7.21227 5.62195 6.95227 5.02195 6.95227 4.37195C6.95227 3.07195 8.01227 2.00195 9.32227 2.00195H16.4323C17.0923 2.00195 17.6823 2.27195 18.1123 2.70195C18.6723 3.26195 18.9623 4.08195 18.7423 4.95195C18.4823 6.03195 17.4423 6.74195 16.3223 6.74195H16.1623L18.9023 12.992Z" fill="#A461D8"/>
</svg>
