<svg width="25" height="24" viewBox="0 0 25 24" fill="none" xmlns="http://www.w3.org/2000/svg">
<path opacity="0.35" d="M6.87646 15C6.87646 15.1501 6.72065 15.2518 6.58822 15.1812C4.37969 14.0038 2.87646 11.6775 2.87646 9C2.87646 5.13401 6.01047 2 9.87646 2C12.5539 2 14.8803 3.50323 16.0576 5.71176C16.1282 5.84418 16.0265 6 15.8765 6C10.9059 6 6.87646 10.0294 6.87646 15Z" fill="#A461D8"/>
<path d="M21.4829 10.8076C22.3582 11.9762 22.8765 13.4276 22.8765 15C22.8765 18.866 19.7425 22 15.8765 22C14.3041 22 12.8527 21.4817 11.6841 20.6064L21.4829 10.8076ZM15.8765 8C17.4488 8 18.9002 8.51829 20.0688 9.39355L10.27 19.1914C9.39504 18.0229 8.87646 16.5721 8.87646 15C8.87646 11.134 12.0105 8 15.8765 8Z" fill="#A461D8"/>
</svg>
