<svg width="25" height="24" viewBox="0 0 25 24" fill="none" xmlns="http://www.w3.org/2000/svg">
<path opacity="0.35" fill-rule="evenodd" clip-rule="evenodd" d="M22.8765 9.00005C22.8765 9.00004 22.8765 9.00007 22.8765 9.00005C22.8765 5.68634 20.1902 3 16.8765 3C15.3398 3 13.938 3.57771 12.8765 4.52779C11.815 3.57771 10.4132 3 8.87646 3C5.56275 3 2.87646 5.68629 2.87646 9C2.87646 8.99997 2.87646 9.00003 2.87646 9C2.87646 16.3511 9.54792 19.8061 11.9925 20.8254C12.562 21.0628 13.191 21.0628 13.7605 20.8254C16.205 19.8061 22.8765 16.3512 22.8765 9.00005Z" fill="#A461D8"/>
<path d="M22.7036 11H18.0359L16.7956 8.10608C16.638 7.7384 16.2765 7.5 15.8765 7.5C15.4764 7.5 15.1149 7.7384 14.9573 8.10608L12.8765 12.9614L12.2956 11.6061C12.138 11.2384 11.7765 11 11.3765 11H3.04932C3.17512 11.7092 3.36552 12.3752 3.60715 13H10.717L11.9573 15.8939C12.1149 16.2616 12.4764 16.5 12.8765 16.5C13.2765 16.5 13.638 16.2616 13.7956 15.8939L15.8765 11.0386L16.4573 12.3939C16.6149 12.7616 16.9764 13 17.3765 13H22.1457C22.3874 12.3752 22.5778 11.7092 22.7036 11Z" fill="#A461D8"/>
</svg>
