<svg width="25" height="25" viewBox="0 0 25 25" fill="none" xmlns="http://www.w3.org/2000/svg">
<path opacity="0.35" d="M21.6362 7.19922V17.1992C21.6362 20.1992 20.1362 22.1992 16.6362 22.1992H8.63623C5.13623 22.1992 3.63623 20.1992 3.63623 17.1992V7.19922C3.63623 4.19922 5.13623 2.19922 8.63623 2.19922H16.6362C20.1362 2.19922 21.6362 4.19922 21.6362 7.19922Z" fill="#A461D8"/>
<path d="M19.1362 9.44922H17.1362C15.6162 9.44922 14.3862 8.21922 14.3862 6.69922V4.69922C14.3862 4.28922 14.7262 3.94922 15.1362 3.94922C15.5462 3.94922 15.8862 4.28922 15.8862 4.69922V6.69922C15.8862 7.38922 16.4462 7.94922 17.1362 7.94922H19.1362C19.5462 7.94922 19.8862 8.28922 19.8862 8.69922C19.8862 9.10922 19.5462 9.44922 19.1362 9.44922Z" fill="#A461D8"/>
<path d="M12.6362 13.9492H8.63623C8.22623 13.9492 7.88623 13.6092 7.88623 13.1992C7.88623 12.7892 8.22623 12.4492 8.63623 12.4492H12.6362C13.0462 12.4492 13.3862 12.7892 13.3862 13.1992C13.3862 13.6092 13.0462 13.9492 12.6362 13.9492Z" fill="#A461D8"/>
<path d="M16.6362 17.9492H8.63623C8.22623 17.9492 7.88623 17.6092 7.88623 17.1992C7.88623 16.7892 8.22623 16.4492 8.63623 16.4492H16.6362C17.0462 16.4492 17.3862 16.7892 17.3862 17.1992C17.3862 17.6092 17.0462 17.9492 16.6362 17.9492Z" fill="#A461D8"/>
</svg>
