<svg width="25" height="24" viewBox="0 0 25 24" fill="none" xmlns="http://www.w3.org/2000/svg">
<path opacity="0.35" d="M21 10.19H18.11C15.74 10.19 13.81 8.26 13.81 5.89V3C13.81 2.45 13.36 2 12.81 2H8.57C5.49 2 3 4 3 7.57V16.43C3 20 5.49 22 8.57 22H16.43C19.51 22 22 20 22 16.43V11.19C22 10.64 21.55 10.19 21 10.19Z" fill="#A461D8"/>
<path d="M16.2997 2.21048C15.8897 1.80048 15.1797 2.08048 15.1797 2.65048V6.14048C15.1797 7.60048 16.4197 8.81048 17.9297 8.81048C18.8797 8.82048 20.1997 8.82048 21.3297 8.82048C21.8997 8.82048 22.1997 8.15048 21.7997 7.75048C20.3597 6.30048 17.7797 3.69048 16.2997 2.21048Z" fill="#A461D8"/>
</svg>
