<svg width="25" height="25" viewBox="0 0 25 25" fill="none" xmlns="http://www.w3.org/2000/svg">
<path opacity="0.35" fill-rule="evenodd" clip-rule="evenodd" d="M11.1362 2.90234C11.4124 2.90234 11.6362 3.1262 11.6362 3.40234V7.90232C11.6362 10.6637 13.8748 12.9023 16.6362 12.9023H20.1362C20.4124 12.9023 20.6362 13.1262 20.6362 13.4023V19.9023C20.6362 21.5592 19.2931 22.9023 17.6362 22.9023H7.63623C5.97938 22.9023 4.63623 21.5592 4.63623 19.9023V5.90234C4.63623 4.24549 5.97938 2.90234 7.63623 2.90234H11.1362Z" fill="#A461D8"/>
<path d="M14.2329 3.5735L20.131 10.3339C20.1979 10.4091 20.2587 10.4889 20.3129 10.5724C20.4099 10.7215 20.2909 10.9022 20.113 10.9022H16.6362C14.9794 10.9022 13.6362 9.55909 13.6362 7.90223V3.52067C13.6362 3.3346 13.8316 3.21732 13.9776 3.33264C14.0689 3.40476 14.1544 3.48523 14.2329 3.5735Z" fill="#A461D8"/>
<path d="M11.8862 13.4023H13.3862C13.6624 13.4023 13.8862 13.6262 13.8862 13.9023V15.6523C13.8862 15.7904 13.9982 15.9023 14.1362 15.9023L15.8862 15.9023C16.1624 15.9023 16.3862 16.1262 16.3862 16.4023V17.9023C16.3862 18.1785 16.1624 18.4023 15.8862 18.4023H14.1362C13.9982 18.4023 13.8862 18.5143 13.8862 18.6523V20.4023C13.8862 20.6785 13.6624 20.9023 13.3862 20.9023H11.8862C11.6101 20.9023 11.3862 20.6785 11.3862 20.4023V18.6523C11.3862 18.5143 11.2743 18.4023 11.1362 18.4023H9.38623C9.11009 18.4023 8.88623 18.1785 8.88623 17.9023V16.4023C8.88623 16.1262 9.11009 15.9023 9.38623 15.9023L11.1362 15.9023C11.2743 15.9023 11.3862 15.7904 11.3862 15.6523V13.9023C11.3862 13.6262 11.6101 13.4023 11.8862 13.4023Z" fill="#A461D8"/>
</svg>
