<svg width="25" height="24" viewBox="0 0 25 24" fill="none" xmlns="http://www.w3.org/2000/svg">
<path opacity="0.35" fill-rule="evenodd" clip-rule="evenodd" d="M12.1362 22C17.6591 22 22.1362 17.5228 22.1362 12C22.1362 6.47715 17.6591 2 12.1362 2C6.61338 2 2.13623 6.47715 2.13623 12C2.13623 17.5228 6.61338 22 12.1362 22Z" fill="#A461D8"/>
<path d="M14.4291 7.29289C14.8196 6.90237 15.4528 6.90237 15.8433 7.29289C16.2339 7.68342 16.2339 8.31658 15.8433 8.70711L12.8433 11.7071C12.4528 12.0976 11.8196 12.0976 11.4291 11.7071C11.0386 11.3166 11.0386 10.6834 11.4291 10.2929L14.4291 7.29289Z" fill="#A461D8"/>
<path d="M6.42912 10.2929C6.81965 9.90237 7.45281 9.90237 7.84334 10.2929L8.84334 11.2929C9.23386 11.6834 9.23386 12.3166 8.84334 12.7071C8.45281 13.0976 7.81965 13.0976 7.42912 12.7071L6.42912 11.7071C6.0386 11.3166 6.0386 10.6834 6.42912 10.2929Z" fill="#A461D8"/>
<path d="M10.1362 9C10.6885 9 11.1362 8.55228 11.1362 8C11.1362 7.44772 10.6885 7 10.1362 7C9.58395 7 9.13623 7.44772 9.13623 8C9.13623 8.55228 9.58395 9 10.1362 9Z" fill="#A461D8"/>
<path d="M10.1362 16C10.1362 16.5523 9.68852 17 9.13623 17C8.58395 17 8.13623 16.5523 8.13623 16C8.13623 15.4477 8.58395 15 9.13623 15C9.68852 15 10.1362 15.4477 10.1362 16Z" fill="#A461D8"/>
<path d="M18.1362 11.5C18.1362 10.9477 17.6885 10.5 17.1362 10.5C16.5839 10.5 16.1362 10.9477 16.1362 11.5V12C16.1362 12.5523 15.6885 13 15.1362 13C13.4794 13 12.1362 14.3431 12.1362 16V16.5C12.1362 17.0523 12.5839 17.5 13.1362 17.5C13.6885 17.5 14.1362 17.0523 14.1362 16.5V16C14.1362 15.4477 14.5839 15 15.1362 15C16.7931 15 18.1362 13.6569 18.1362 12V11.5Z" fill="#A461D8"/>
</svg>
