<svg width="24" height="25" viewBox="0 0 24 25" fill="none" xmlns="http://www.w3.org/2000/svg">
<path d="M7.42535 12.6612C7.6348 12.8883 7.83725 13.0938 8.04235 13.2839L7.39863 14.1478C7.15115 14.48 7.21978 14.9499 7.55193 15.1974C7.88408 15.4448 8.35397 15.3762 8.60146 15.0441L9.23231 14.1974C9.46207 14.3423 9.70581 14.4816 9.97122 14.6223C10.4148 14.8574 10.871 14.7129 11.135 14.5798C11.4314 14.4303 11.7059 14.1924 11.931 13.9149C12.6594 13.0169 13.2662 12.2453 13.8566 11.4526C14.4051 10.7162 14.937 9.96473 15.5377 9.07991C15.737 8.78628 15.8842 8.45785 15.9433 8.13409C15.996 7.84524 16.0064 7.37894 15.6766 7.01945C14.8613 6.13081 14.1824 5.60844 13.1137 5.0456C12.6764 4.81529 12.2269 4.95312 11.9633 5.08409C11.6692 5.23027 11.3971 5.46375 11.1733 5.73682C9.74825 7.4762 8.821 8.75467 7.57192 10.5813C7.3696 10.8771 7.21963 11.2086 7.15855 11.5349C7.10432 11.8247 7.09027 12.2979 7.42535 12.6612Z" fill="#A461D8"/>
<g opacity="0.35">
<path d="M14.6781 3.05835C14.35 2.80549 13.8791 2.86646 13.6262 3.19453C13.3734 3.52261 13.4343 3.99355 13.7624 4.24641L16.2198 6.14046C16.5479 6.39332 17.0188 6.33235 17.2717 6.00427C17.5246 5.6762 17.4636 5.20526 17.1355 4.95239L14.6781 3.05835Z" fill="#A461D8"/>
<path d="M2.75 21.4024C2.33579 21.4024 2 21.7382 2 22.1524C2 22.5666 2.33579 22.9024 2.75 22.9024H21.25C21.6642 22.9024 22 22.5666 22 22.1524C22 21.7382 21.6642 21.4024 21.25 21.4024H18.6532C18.9934 20.9195 19.3866 20.3197 19.7587 19.6536C20.2324 18.8057 20.6849 17.8274 20.9429 16.8305C21.1994 15.8389 21.2799 14.765 20.9295 13.7709C20.381 12.2146 18.8386 11.0462 17.541 10.2817C17.1987 10.08 16.8601 9.89888 16.5411 9.73932L16.5307 9.75476C15.922 10.6514 15.3799 11.4174 14.8192 12.1703C14.7263 12.2949 14.6331 12.419 14.5392 12.543C15.3634 13.0651 16.1424 13.7099 16.4691 14.3579C16.7416 14.8982 16.7588 15.5821 16.5453 16.3904C16.3324 17.196 15.9099 18.0456 15.4179 18.8385C14.9291 19.6263 14.3909 20.3278 13.9724 20.8345C13.7759 21.0723 13.6073 21.2655 13.4847 21.4024H2.75Z" fill="#A461D8"/>
</g>
<path d="M4.80566 18.7891C4.39145 18.7891 4.05566 19.1248 4.05566 19.5391C4.05566 19.9533 4.39145 20.2891 4.80566 20.2891H8.91678C9.33099 20.2891 9.66678 19.9533 9.66678 19.5391C9.66678 19.1248 9.33099 18.7891 8.91678 18.7891H4.80566Z" fill="#A461D8"/>
</svg>
