<svg width="25" height="25" viewBox="0 0 25 25" fill="none" xmlns="http://www.w3.org/2000/svg">
<path opacity="0.4" d="M21.1362 10.69H18.2462C15.8762 10.69 13.9462 8.76 13.9462 6.39V3.5C13.9462 2.95 13.4962 2.5 12.9462 2.5H8.70623C5.62623 2.5 3.13623 4.5 3.13623 8.07V16.93C3.13623 20.5 5.62623 22.5 8.70623 22.5H16.5662C19.6462 22.5 22.1362 20.5 22.1362 16.93V11.69C22.1362 11.14 21.6862 10.69 21.1362 10.69Z" fill="#A461D8"/>
<path d="M16.4359 2.71048C16.0259 2.30048 15.3159 2.58048 15.3159 3.15048V6.64048C15.3159 8.10048 16.5559 9.31048 18.0659 9.31048C19.0159 9.32048 20.3359 9.32048 21.4659 9.32048C22.0359 9.32048 22.3359 8.65048 21.9359 8.25048C20.4959 6.80048 17.9159 4.19048 16.4359 2.71048Z" fill="#A461D8"/>
<path d="M14.1362 14.25H8.13623C7.72623 14.25 7.38623 13.91 7.38623 13.5C7.38623 13.09 7.72623 12.75 8.13623 12.75H14.1362C14.5462 12.75 14.8862 13.09 14.8862 13.5C14.8862 13.91 14.5462 14.25 14.1362 14.25Z" fill="#A461D8"/>
<path d="M12.1362 18.25H8.13623C7.72623 18.25 7.38623 17.91 7.38623 17.5C7.38623 17.09 7.72623 16.75 8.13623 16.75H12.1362C12.5462 16.75 12.8862 17.09 12.8862 17.5C12.8862 17.91 12.5462 18.25 12.1362 18.25Z" fill="#A461D8"/>
</svg>
