<svg width="25" height="25" viewBox="0 0 25 25" fill="none" xmlns="http://www.w3.org/2000/svg">
<path opacity="0.4" d="M21.1362 10.9908H18.2462C15.8762 10.9908 13.9462 9.06078 13.9462 6.69078V3.80078C13.9462 3.25078 13.4962 2.80078 12.9462 2.80078H8.70623C5.62623 2.80078 3.13623 4.80078 3.13623 8.37078V17.2308C3.13623 20.8008 5.62623 22.8008 8.70623 22.8008H16.5662C19.6462 22.8008 22.1362 20.8008 22.1362 17.2308V11.9908C22.1362 11.4408 21.6862 10.9908 21.1362 10.9908Z" fill="#581C87"/>
<path d="M16.4359 3.01126C16.0259 2.60126 15.3159 2.88126 15.3159 3.45126V6.94126C15.3159 8.40126 16.5559 9.61126 18.0659 9.61126C19.0159 9.62126 20.3359 9.62126 21.4659 9.62126C22.0359 9.62126 22.3359 8.95126 21.9359 8.55126C20.4959 7.10126 17.9159 4.49126 16.4359 3.01126Z" fill="#581C87"/>
<path d="M14.1362 14.5508H8.13623C7.72623 14.5508 7.38623 14.2108 7.38623 13.8008C7.38623 13.3908 7.72623 13.0508 8.13623 13.0508H14.1362C14.5462 13.0508 14.8862 13.3908 14.8862 13.8008C14.8862 14.2108 14.5462 14.5508 14.1362 14.5508Z" fill="#581C87"/>
<path d="M12.1362 18.5508H8.13623C7.72623 18.5508 7.38623 18.2108 7.38623 17.8008C7.38623 17.3908 7.72623 17.0508 8.13623 17.0508H12.1362C12.5462 17.0508 12.8862 17.3908 12.8862 17.8008C12.8862 18.2108 12.5462 18.5508 12.1362 18.5508Z" fill="#581C87"/>
</svg>
