<svg width="25" height="24" viewBox="0 0 25 24" fill="none" xmlns="http://www.w3.org/2000/svg">
<path d="M14.6362 10.75H8.63623C8.22623 10.75 7.88623 10.41 7.88623 10C7.88623 9.59 8.22623 9.25 8.63623 9.25H14.6362C15.0462 9.25 15.3862 9.59 15.3862 10C15.3862 10.41 15.0462 10.75 14.6362 10.75Z" fill="#A461D8"/>
<path d="M11.6362 13.75H8.63623C8.22623 13.75 7.88623 13.41 7.88623 13C7.88623 12.59 8.22623 12.25 8.63623 12.25H11.6362C12.0462 12.25 12.3862 12.59 12.3862 13C12.3862 13.41 12.0462 13.75 11.6362 13.75Z" fill="#A461D8"/>
<path opacity="0.4" d="M11.6362 21C16.8829 21 21.1362 16.7467 21.1362 11.5C21.1362 6.25329 16.8829 2 11.6362 2C6.38953 2 2.13623 6.25329 2.13623 11.5C2.13623 16.7467 6.38953 21 11.6362 21Z" fill="#A461D8"/>
<path d="M21.4363 22.0005C21.2563 22.0005 21.0763 21.9305 20.9463 21.8005L19.0863 19.9405C18.8163 19.6705 18.8163 19.2305 19.0863 18.9505C19.3563 18.6805 19.7963 18.6805 20.0763 18.9505L21.9363 20.8105C22.2063 21.0805 22.2063 21.5205 21.9363 21.8005C21.7963 21.9305 21.6163 22.0005 21.4363 22.0005Z" fill="#A461D8"/>
</svg>
