<svg width="25" height="25" viewBox="0 0 25 25" fill="none" xmlns="http://www.w3.org/2000/svg">
<path opacity="0.4" d="M20.1362 9.05078V18.8008C20.1362 21.8008 18.3462 22.8008 16.1362 22.8008H8.13623C5.92623 22.8008 4.13623 21.8008 4.13623 18.8008V9.05078C4.13623 5.80078 5.92623 5.05078 8.13623 5.05078C8.13623 5.67078 8.3862 6.23078 8.7962 6.64078C9.2062 7.05078 9.76623 7.30078 10.3862 7.30078H13.8862C15.1262 7.30078 16.1362 6.29078 16.1362 5.05078C18.3462 5.05078 20.1362 5.80078 20.1362 9.05078Z" fill="#581C87"/>
<path d="M16.1362 5.05078C16.1362 6.29078 15.1262 7.30078 13.8862 7.30078H10.3862C9.76623 7.30078 9.2062 7.05078 8.7962 6.64078C8.3862 6.23078 8.13623 5.67078 8.13623 5.05078C8.13623 3.81078 9.14623 2.80078 10.3862 2.80078H13.8862C14.5062 2.80078 15.0663 3.05078 15.4763 3.46078C15.8863 3.87078 16.1362 4.43078 16.1362 5.05078Z" fill="#581C87"/>
<path d="M12.1362 14.5508H8.13623C7.72623 14.5508 7.38623 14.2108 7.38623 13.8008C7.38623 13.3908 7.72623 13.0508 8.13623 13.0508H12.1362C12.5462 13.0508 12.8862 13.3908 12.8862 13.8008C12.8862 14.2108 12.5462 14.5508 12.1362 14.5508Z" fill="#581C87"/>
<path d="M16.1362 18.5508H8.13623C7.72623 18.5508 7.38623 18.2108 7.38623 17.8008C7.38623 17.3908 7.72623 17.0508 8.13623 17.0508H16.1362C16.5462 17.0508 16.8862 17.3908 16.8862 17.8008C16.8862 18.2108 16.5462 18.5508 16.1362 18.5508Z" fill="#581C87"/>
</svg>
