<svg width="25" height="25" viewBox="0 0 25 25" fill="none" xmlns="http://www.w3.org/2000/svg">
<path opacity="0.4" d="M20.1362 8.75V18.5C20.1362 21.5 18.3462 22.5 16.1362 22.5H8.13623C5.92623 22.5 4.13623 21.5 4.13623 18.5V8.75C4.13623 5.5 5.92623 4.75 8.13623 4.75C8.13623 5.37 8.3862 5.93 8.7962 6.34C9.2062 6.75 9.76623 7 10.3862 7H13.8862C15.1262 7 16.1362 5.99 16.1362 4.75C18.3462 4.75 20.1362 5.5 20.1362 8.75Z" fill="white"/>
<path d="M16.1362 4.75C16.1362 5.99 15.1262 7 13.8862 7H10.3862C9.76623 7 9.2062 6.75 8.7962 6.34C8.3862 5.93 8.13623 5.37 8.13623 4.75C8.13623 3.51 9.14623 2.5 10.3862 2.5H13.8862C14.5062 2.5 15.0663 2.75 15.4763 3.16C15.8863 3.57 16.1362 4.13 16.1362 4.75Z" fill="white"/>
<path d="M12.1362 14.25H8.13623C7.72623 14.25 7.38623 13.91 7.38623 13.5C7.38623 13.09 7.72623 12.75 8.13623 12.75H12.1362C12.5462 12.75 12.8862 13.09 12.8862 13.5C12.8862 13.91 12.5462 14.25 12.1362 14.25Z" fill="white"/>
<path d="M16.1362 18.25H8.13623C7.72623 18.25 7.38623 17.91 7.38623 17.5C7.38623 17.09 7.72623 16.75 8.13623 16.75H16.1362C16.5462 16.75 16.8862 17.09 16.8862 17.5C16.8862 17.91 16.5462 18.25 16.1362 18.25Z" fill="white"/>
</svg>
