<svg width="25" height="25" viewBox="0 0 25 25" fill="none" xmlns="http://www.w3.org/2000/svg">
<path opacity="0.4" d="M19.6362 7.55019H12.6362L10.0062 4.37019C9.91318 4.25547 9.79587 4.1628 9.66273 4.09882C9.52959 4.03485 9.38394 4.00116 9.23623 4.00019H4.63623C3.98284 3.99216 3.35289 4.24338 2.88433 4.69883C2.41576 5.15427 2.14676 5.77683 2.13623 6.43019V18.5702C2.14676 19.2235 2.41576 19.8461 2.88433 20.3015C3.35289 20.757 3.98284 21.0082 4.63623 21.0002H19.6362C20.2896 21.0082 20.9196 20.757 21.3881 20.3015C21.8567 19.8461 22.1257 19.2235 22.1362 18.5702V9.98019C22.1257 9.32683 21.8567 8.70427 21.3881 8.24883C20.9196 7.79338 20.2896 7.54217 19.6362 7.55019ZM14.1362 15.5002H13.1362V16.5002C13.1362 16.7654 13.0309 17.0198 12.8433 17.2073C12.6558 17.3948 12.4014 17.5002 12.1362 17.5002C11.871 17.5002 11.6167 17.3948 11.4291 17.2073C11.2416 17.0198 11.1362 16.7654 11.1362 16.5002V15.5002H10.1362C9.87101 15.5002 9.61666 15.3948 9.42912 15.2073C9.24159 15.0198 9.13623 14.7654 9.13623 14.5002C9.13623 14.235 9.24159 13.9806 9.42912 13.7931C9.61666 13.6055 9.87101 13.5002 10.1362 13.5002H11.1362V12.5002C11.1362 12.235 11.2416 11.9806 11.4291 11.7931C11.6167 11.6055 11.871 11.5002 12.1362 11.5002C12.4014 11.5002 12.6558 11.6055 12.8433 11.7931C13.0309 11.9806 13.1362 12.235 13.1362 12.5002V13.5002H14.1362C14.4014 13.5002 14.6558 13.6055 14.8433 13.7931C15.0309 13.9806 15.1362 14.235 15.1362 14.5002C15.1362 14.7654 15.0309 15.0198 14.8433 15.2073C14.6558 15.3948 14.4014 15.5002 14.1362 15.5002Z" fill="white"/>
<path d="M2.13623 6.5C2.13623 5.11929 3.25552 4 4.63623 4H9.27066C9.57208 4 9.85742 4.13596 10.0473 4.37005L12.5861 7.50001H2.13623V6.5Z" fill="white"/>
<path d="M14.1362 15.498H13.1362V16.498C13.1362 16.7633 13.0309 17.0176 12.8433 17.2052C12.6558 17.3927 12.4014 17.498 12.1362 17.498C11.871 17.498 11.6167 17.3927 11.4291 17.2052C11.2416 17.0176 11.1362 16.7633 11.1362 16.498V15.498H10.1362C9.87101 15.498 9.61666 15.3927 9.42912 15.2052C9.24159 15.0176 9.13623 14.7633 9.13623 14.498C9.13623 14.2328 9.24159 13.9785 9.42912 13.7909C9.61666 13.6034 9.87101 13.498 10.1362 13.498H11.1362V12.498C11.1362 12.2328 11.2416 11.9785 11.4291 11.7909C11.6167 11.6034 11.871 11.498 12.1362 11.498C12.4014 11.498 12.6558 11.6034 12.8433 11.7909C13.0309 11.9785 13.1362 12.2328 13.1362 12.498V13.498H14.1362C14.4014 13.498 14.6558 13.6034 14.8433 13.7909C15.0309 13.9785 15.1362 14.2328 15.1362 14.498C15.1362 14.7633 15.0309 15.0176 14.8433 15.2052C14.6558 15.3927 14.4014 15.498 14.1362 15.498Z" fill="white"/>
</svg>
