<svg width="25" height="25" viewBox="0 0 25 25" fill="none" xmlns="http://www.w3.org/2000/svg">
<path opacity="0.4" d="M19.6362 7.85097H12.6362L10.0062 4.67097C9.91318 4.55625 9.79587 4.46358 9.66273 4.39961C9.52959 4.33563 9.38394 4.30194 9.23623 4.30097H4.63623C3.98284 4.29295 3.35289 4.54416 2.88433 4.99961C2.41576 5.45505 2.14676 6.07761 2.13623 6.73097V18.871C2.14676 19.5243 2.41576 20.1469 2.88433 20.6023C3.35289 21.0578 3.98284 21.309 4.63623 21.301H19.6362C20.2896 21.309 20.9196 21.0578 21.3881 20.6023C21.8567 20.1469 22.1257 19.5243 22.1362 18.871V10.281C22.1257 9.62761 21.8567 9.00505 21.3881 8.54961C20.9196 8.09416 20.2896 7.84295 19.6362 7.85097ZM14.1362 15.801H13.1362V16.801C13.1362 17.0662 13.0309 17.3205 12.8433 17.5081C12.6558 17.6956 12.4014 17.801 12.1362 17.801C11.871 17.801 11.6167 17.6956 11.4291 17.5081C11.2416 17.3205 11.1362 17.0662 11.1362 16.801V15.801H10.1362C9.87101 15.801 9.61666 15.6956 9.42912 15.5081C9.24159 15.3205 9.13623 15.0662 9.13623 14.801C9.13623 14.5358 9.24159 14.2814 9.42912 14.0939C9.61666 13.9063 9.87101 13.801 10.1362 13.801H11.1362V12.801C11.1362 12.5358 11.2416 12.2814 11.4291 12.0939C11.6167 11.9063 11.871 11.801 12.1362 11.801C12.4014 11.801 12.6558 11.9063 12.8433 12.0939C13.0309 12.2814 13.1362 12.5358 13.1362 12.801V13.801H14.1362C14.4014 13.801 14.6558 13.9063 14.8433 14.0939C15.0309 14.2814 15.1362 14.5358 15.1362 14.801C15.1362 15.0662 15.0309 15.3205 14.8433 15.5081C14.6558 15.6956 14.4014 15.801 14.1362 15.801Z" fill="#581C87"/>
<path d="M2.13623 6.80078C2.13623 5.42007 3.25552 4.30078 4.63623 4.30078H9.27066C9.57208 4.30078 9.85742 4.43674 10.0473 4.67084L12.5861 7.80079H2.13623V6.80078Z" fill="#581C87"/>
<path d="M14.1362 15.7988H13.1362V16.7988C13.1362 17.064 13.0309 17.3184 12.8433 17.5059C12.6558 17.6935 12.4014 17.7988 12.1362 17.7988C11.871 17.7988 11.6167 17.6935 11.4291 17.5059C11.2416 17.3184 11.1362 17.064 11.1362 16.7988V15.7988H10.1362C9.87101 15.7988 9.61666 15.6935 9.42912 15.5059C9.24159 15.3184 9.13623 15.064 9.13623 14.7988C9.13623 14.5336 9.24159 14.2793 9.42912 14.0917C9.61666 13.9042 9.87101 13.7988 10.1362 13.7988H11.1362V12.7988C11.1362 12.5336 11.2416 12.2793 11.4291 12.0917C11.6167 11.9042 11.871 11.7988 12.1362 11.7988C12.4014 11.7988 12.6558 11.9042 12.8433 12.0917C13.0309 12.2793 13.1362 12.5336 13.1362 12.7988V13.7988H14.1362C14.4014 13.7988 14.6558 13.9042 14.8433 14.0917C15.0309 14.2793 15.1362 14.5336 15.1362 14.7988C15.1362 15.064 15.0309 15.3184 14.8433 15.5059C14.6558 15.6935 14.4014 15.7988 14.1362 15.7988Z" fill="#581C87"/>
</svg>
