<svg width="24" height="25" viewBox="0 0 24 25" fill="none" xmlns="http://www.w3.org/2000/svg">
<path opacity="0.4" d="M21.6602 11.3428L20.6802 15.5228C19.8402 19.1328 18.1802 20.5928 15.0602 20.2928C14.5602 20.2528 14.0202 20.1628 13.4402 20.0228L11.7602 19.6228C7.59018 18.6328 6.30018 16.5728 7.28018 12.3928L8.26018 8.20284C8.46018 7.35284 8.70018 6.61284 9.00018 6.00284C10.1702 3.58284 12.1602 2.93284 15.5002 3.72284L17.1702 4.11284C21.3602 5.09284 22.6402 7.16284 21.6602 11.3428Z" fill="#A461D8"/>
<path d="M15.0603 20.292C14.4403 20.712 13.6603 21.062 12.7103 21.372L11.1303 21.892C7.16034 23.172 5.07034 22.102 3.78034 18.132L2.50034 14.182C1.22034 10.212 2.28034 8.11195 6.25034 6.83195L7.83034 6.31195C8.24034 6.18195 8.63034 6.07195 9.00034 6.00195C8.70034 6.61195 8.46034 7.35195 8.26034 8.20195L7.28034 12.392C6.30034 16.572 7.59034 18.632 11.7603 19.622L13.4403 20.022C14.0203 20.162 14.5603 20.252 15.0603 20.292Z" fill="#A461D8"/>
<path d="M17.4904 11.4121C17.4304 11.4121 17.3704 11.4021 17.3004 11.3921L12.4504 10.1621C12.0504 10.0621 11.8104 9.65212 11.9104 9.25212C12.0104 8.85212 12.4204 8.61212 12.8204 8.71212L17.6704 9.94212C18.0704 10.0421 18.3104 10.4521 18.2104 10.8521C18.1304 11.1821 17.8204 11.4121 17.4904 11.4121Z" fill="#A461D8"/>
<path d="M14.5601 14.7932C14.5001 14.7932 14.4401 14.7832 14.3701 14.7732L11.4601 14.0332C11.0601 13.9332 10.8201 13.5232 10.9201 13.1232C11.0201 12.7232 11.4301 12.4832 11.8301 12.5832L14.7401 13.3232C15.1401 13.4232 15.3801 13.8332 15.2801 14.2332C15.2001 14.5732 14.9001 14.7932 14.5601 14.7932Z" fill="#A461D8"/>
</svg>
