<svg width="25" height="25" viewBox="0 0 25 25" fill="none" xmlns="http://www.w3.org/2000/svg">
<path opacity="0.35" d="M21.1362 18.5V8.5C21.1362 6.29086 19.3454 4.5 17.1362 4.5H8.13623H7.13623C4.92709 4.5 3.13623 6.29086 3.13623 8.5V18.5C3.13623 20.7091 4.92709 22.5 7.13623 22.5H17.1362C19.3454 22.5 21.1362 20.7091 21.1362 18.5Z" fill="#A461D8"/>
<path d="M8.13623 4.5C8.13623 3.39543 9.03166 2.5 10.1362 2.5H14.1362C15.2408 2.5 16.1362 3.39543 16.1362 4.5C16.1362 5.60457 15.2408 6.5 14.1362 6.5H10.1362C9.03166 6.5 8.13623 5.60457 8.13623 4.5Z" fill="#A461D8"/>
<path fill-rule="evenodd" clip-rule="evenodd" d="M11.2564 10.7597C11.4943 10.7983 11.6992 10.949 11.8071 11.1646L13.3417 14.2339L14.6059 12.9697C14.7466 12.829 14.9373 12.75 15.1362 12.75H17.1362C17.5504 12.75 17.8862 13.0858 17.8862 13.5C17.8862 13.9142 17.5504 14.25 17.1362 14.25H15.4469L13.6666 16.0303C13.4961 16.2008 13.2541 16.2789 13.0161 16.2403C12.7781 16.2017 12.5732 16.0511 12.4654 15.8354L10.9308 12.7661L9.66656 14.0303C9.52591 14.171 9.33514 14.25 9.13623 14.25H7.13623C6.72202 14.25 6.38623 13.9142 6.38623 13.5C6.38623 13.0858 6.72202 12.75 7.13623 12.75H8.82557L10.6059 10.9697C10.7764 10.7992 11.0184 10.7211 11.2564 10.7597Z" fill="#A461D8"/>
</svg>
