<svg width="25" height="25" viewBox="0 0 25 25" fill="none" xmlns="http://www.w3.org/2000/svg">
<path opacity="0.4" d="M9.63623 2.80078C7.01623 2.80078 4.88623 4.93078 4.88623 7.55078C4.88623 10.1208 6.89623 12.2008 9.51623 12.2908C9.59623 12.2808 9.67623 12.2808 9.73623 12.2908C9.75623 12.2908 9.76623 12.2908 9.78623 12.2908C9.79623 12.2908 9.79623 12.2908 9.80623 12.2908C12.3662 12.2008 14.3762 10.1208 14.3862 7.55078C14.3862 4.93078 12.2562 2.80078 9.63623 2.80078Z" fill="#581C87"/>
<path d="M14.7162 14.9516C11.9262 13.0916 7.37619 13.0916 4.56619 14.9516C3.29619 15.8016 2.59619 16.9516 2.59619 18.1816C2.59619 19.4116 3.29619 20.5516 4.55619 21.3916C5.95619 22.3316 7.79619 22.8016 9.63619 22.8016C11.4762 22.8016 13.3162 22.3316 14.7162 21.3916C15.9762 20.5416 16.6762 19.4016 16.6762 18.1616C16.6662 16.9316 15.9762 15.7916 14.7162 14.9516Z" fill="#581C87"/>
<path opacity="0.4" d="M20.6261 8.14088C20.7861 10.0809 19.4061 11.7809 17.4961 12.0109C17.4861 12.0109 17.4861 12.0109 17.4761 12.0109H17.4461C17.3861 12.0109 17.3261 12.0109 17.2761 12.0309C16.3061 12.0809 15.4161 11.7709 14.7461 11.2009C15.7761 10.2809 16.3661 8.90088 16.2461 7.40088C16.1761 6.59088 15.8961 5.85088 15.4761 5.22088C15.8561 5.03088 16.2961 4.91088 16.7461 4.87088C18.7061 4.70088 20.4561 6.16088 20.6261 8.14088Z" fill="#581C87"/>
<path d="M22.6265 17.3912C22.5465 18.3612 21.9265 19.2012 20.8865 19.7712C19.8865 20.3212 18.6265 20.5812 17.3765 20.5512C18.0965 19.9012 18.5165 19.0912 18.5965 18.2312C18.6965 16.9912 18.1065 15.8012 16.9265 14.8512C16.2565 14.3212 15.4765 13.9012 14.6265 13.5912C16.8365 12.9512 19.6165 13.3812 21.3265 14.7612C22.2465 15.5012 22.7165 16.4312 22.6265 17.3912Z" fill="#581C87"/>
</svg>
