<svg width="25" height="25" viewBox="0 0 25 25" fill="none" xmlns="http://www.w3.org/2000/svg">
<path opacity="0.4" d="M9.63623 2.5C7.01623 2.5 4.88623 4.63 4.88623 7.25C4.88623 9.82 6.89623 11.9 9.51623 11.99C9.59623 11.98 9.67623 11.98 9.73623 11.99C9.75623 11.99 9.76623 11.99 9.78623 11.99C9.79623 11.99 9.79623 11.99 9.80623 11.99C12.3662 11.9 14.3762 9.82 14.3862 7.25C14.3862 4.63 12.2562 2.5 9.63623 2.5Z" fill="#A461D8"/>
<path d="M14.7162 14.6509C11.9262 12.7909 7.37619 12.7909 4.56619 14.6509C3.29619 15.5009 2.59619 16.6509 2.59619 17.8809C2.59619 19.1109 3.29619 20.2509 4.55619 21.0909C5.95619 22.0309 7.79619 22.5009 9.63619 22.5009C11.4762 22.5009 13.3162 22.0309 14.7162 21.0909C15.9762 20.2409 16.6762 19.1009 16.6762 17.8609C16.6662 16.6309 15.9762 15.4909 14.7162 14.6509Z" fill="#A461D8"/>
<path opacity="0.4" d="M20.6261 7.8401C20.7861 9.7801 19.4061 11.4801 17.4961 11.7101C17.4861 11.7101 17.4861 11.7101 17.4761 11.7101H17.4461C17.3861 11.7101 17.3261 11.7101 17.2761 11.7301C16.3061 11.7801 15.4161 11.4701 14.7461 10.9001C15.7761 9.9801 16.3661 8.6001 16.2461 7.1001C16.1761 6.2901 15.8961 5.5501 15.4761 4.9201C15.8561 4.7301 16.2961 4.6101 16.7461 4.5701C18.7061 4.4001 20.4561 5.8601 20.6261 7.8401Z" fill="#A461D8"/>
<path d="M22.6265 17.0904C22.5465 18.0604 21.9265 18.9004 20.8865 19.4704C19.8865 20.0204 18.6265 20.2804 17.3765 20.2504C18.0965 19.6004 18.5165 18.7904 18.5965 17.9304C18.6965 16.6904 18.1065 15.5004 16.9265 14.5504C16.2565 14.0204 15.4765 13.6004 14.6265 13.2904C16.8365 12.6504 19.6165 13.0804 21.3265 14.4604C22.2465 15.2004 22.7165 16.1304 22.6265 17.0904Z" fill="#A461D8"/>
</svg>
