<svg width="25" height="25" viewBox="0 0 25 25" fill="none" xmlns="http://www.w3.org/2000/svg">
<path opacity="0.35" d="M21.1362 18.8008V8.80078C21.1362 6.59164 19.3454 4.80078 17.1362 4.80078H8.13623H7.13623C4.92709 4.80078 3.13623 6.59164 3.13623 8.80078V18.8008C3.13623 21.0099 4.92709 22.8008 7.13623 22.8008H17.1362C19.3454 22.8008 21.1362 21.0099 21.1362 18.8008Z" fill="#581C87"/>
<path d="M8.13623 4.80078C8.13623 3.69621 9.03166 2.80078 10.1362 2.80078H14.1362C15.2408 2.80078 16.1362 3.69621 16.1362 4.80078C16.1362 5.90535 15.2408 6.80078 14.1362 6.80078H10.1362C9.03166 6.80078 8.13623 5.90535 8.13623 4.80078Z" fill="#581C87"/>
<path fill-rule="evenodd" clip-rule="evenodd" d="M11.2564 11.0605C11.4943 11.0991 11.6992 11.2497 11.8071 11.4654L13.3417 14.5347L14.6059 13.2705C14.7466 13.1298 14.9373 13.0508 15.1362 13.0508H17.1362C17.5504 13.0508 17.8862 13.3866 17.8862 13.8008C17.8862 14.215 17.5504 14.5508 17.1362 14.5508H15.4469L13.6666 16.3311C13.4961 16.5016 13.2541 16.5797 13.0161 16.5411C12.7781 16.5025 12.5732 16.3518 12.4654 16.1362L10.9308 13.0669L9.66656 14.3311C9.52591 14.4718 9.33514 14.5508 9.13623 14.5508H7.13623C6.72202 14.5508 6.38623 14.215 6.38623 13.8008C6.38623 13.3866 6.72202 13.0508 7.13623 13.0508H8.82557L10.6059 11.2705C10.7764 11.1 11.0184 11.0219 11.2564 11.0605Z" fill="#581C87"/>
</svg>
