<svg width="20" height="21" viewBox="0 0 20 21" fill="none" xmlns="http://www.w3.org/2000/svg">
<path d="M1.66669 8.46126V6.37793C1.66669 4.30293 3.34169 2.62793 5.41669 2.62793H7.50002" stroke="#4B4AD5" stroke-width="1.5" stroke-linecap="round" stroke-linejoin="round"/>
<path d="M12.5 2.62793H14.5833C16.6583 2.62793 18.3333 4.30293 18.3333 6.37793V8.46126" stroke="#4B4AD5" stroke-width="1.5" stroke-linecap="round" stroke-linejoin="round"/>
<path d="M18.3333 14.2939V15.5439C18.3333 17.6189 16.6583 19.2939 14.5833 19.2939H13.3333" stroke="#4B4AD5" stroke-width="1.5" stroke-linecap="round" stroke-linejoin="round"/>
<path d="M7.50002 19.2943H5.41669C3.34169 19.2943 1.66669 17.6193 1.66669 15.5443V13.4609" stroke="#4B4AD5" stroke-width="1.5" stroke-linecap="round" stroke-linejoin="round"/>
<path d="M14.1666 8.87793V13.0446C14.1666 14.7113 13.3333 15.5446 11.6666 15.5446H8.33331C6.66665 15.5446 5.83331 14.7113 5.83331 13.0446V8.87793C5.83331 7.21126 6.66665 6.37793 8.33331 6.37793H11.6666C13.3333 6.37793 14.1666 7.21126 14.1666 8.87793Z" stroke="#4B4AD5" stroke-width="1.5" stroke-linecap="round" stroke-linejoin="round"/>
<path d="M15.8334 10.9609H4.16669" stroke="#4B4AD5" stroke-width="1.5" stroke-linecap="round" stroke-linejoin="round"/>
</svg>
