<svg width="43" height="42" viewBox="0 0 43 42" fill="none" xmlns="http://www.w3.org/2000/svg">
<g filter="url(#filter0_d_726_56514)">
<path d="M5.5 13C5.5 7.47715 9.97715 3 15.5 3H27.5C33.0228 3 37.5 7.47715 37.5 13V25C37.5 30.5228 33.0228 35 27.5 35H15.5C9.97715 35 5.5 30.5228 5.5 25V13Z" fill="white" shape-rendering="crispEdges"/>
<path opacity="0.4" d="M21.5 19C24.2614 19 26.5 16.7614 26.5 14C26.5 11.2386 24.2614 9 21.5 9C18.7386 9 16.5 11.2386 16.5 14C16.5 16.7614 18.7386 19 21.5 19Z" fill="#A461D8"/>
<path d="M21.5 21.5C16.49 21.5 12.41 24.86 12.41 29C12.41 29.28 12.63 29.5 12.91 29.5H30.09C30.37 29.5 30.59 29.28 30.59 29C30.59 24.86 26.51 21.5 21.5 21.5Z" fill="#A461D8"/>
</g>
<defs>
<filter id="filter0_d_726_56514" x="0.5" y="0" width="42" height="42" filterUnits="userSpaceOnUse" color-interpolation-filters="sRGB">
<feFlood flood-opacity="0" result="BackgroundImageFix"/>
<feColorMatrix in="SourceAlpha" type="matrix" values="0 0 0 0 0 0 0 0 0 0 0 0 0 0 0 0 0 0 127 0" result="hardAlpha"/>
<feOffset dy="2"/>
<feGaussianBlur stdDeviation="2.5"/>
<feComposite in2="hardAlpha" operator="out"/>
<feColorMatrix type="matrix" values="0 0 0 0 0.289653 0 0 0 0 0.179688 0 0 0 0 0.375 0 0 0 0.16 0"/>
<feBlend mode="normal" in2="BackgroundImageFix" result="effect1_dropShadow_726_56514"/>
<feBlend mode="normal" in="SourceGraphic" in2="effect1_dropShadow_726_56514" result="shape"/>
</filter>
</defs>
</svg>
