<svg width="24" height="24" viewBox="0 0 24 24" fill="none" xmlns="http://www.w3.org/2000/svg">
<g clip-path="url(#clip0_8279_84177)">
<path d="M20.25 6.75H3V4.5C3 4.30109 2.92098 4.11032 2.78033 3.96967C2.63968 3.82902 2.44891 3.75 2.25 3.75C2.05109 3.75 1.86032 3.82902 1.71967 3.96967C1.57902 4.11032 1.5 4.30109 1.5 4.5V19.5C1.5 19.6989 1.57902 19.8897 1.71967 20.0303C1.86032 20.171 2.05109 20.25 2.25 20.25C2.44891 20.25 2.63968 20.171 2.78033 20.0303C2.92098 19.8897 3 19.6989 3 19.5V16.5H22.5V19.5C22.5 19.6989 22.579 19.8897 22.7197 20.0303C22.8603 20.171 23.0511 20.25 23.25 20.25C23.4489 20.25 23.6397 20.171 23.7803 20.0303C23.921 19.8897 24 19.6989 24 19.5V10.5C24 9.50544 23.6049 8.55161 22.9016 7.84835C22.1984 7.14509 21.2446 6.75 20.25 6.75ZM3 8.25H9.75V15H3V8.25Z" fill="#4B4AD5"/>
</g>
<defs>
<clipPath id="clip0_8279_84177">
<rect width="24" height="24" fill="white"/>
</clipPath>
</defs>
</svg>
