<svg width="20" height="20" viewBox="0 0 20 20" fill="none" xmlns="http://www.w3.org/2000/svg">
<path d="M14.1663 3.0553C14.5497 3.0553 14.8605 3.36626 14.8607 3.74963V4.44495H15.556C16.7063 4.44518 17.6389 5.37754 17.639 6.52795V13.4723C17.6389 15.7734 15.7731 17.6393 13.472 17.6393H6.52765C4.22658 17.6392 2.36074 15.7734 2.36066 13.4723V6.52795C2.3607 5.3774 3.29408 4.44496 4.44464 4.44495H5.83331V3.74963C5.8335 3.36631 6.14429 3.05537 6.52765 3.0553C6.91106 3.0553 7.22179 3.36626 7.22198 3.74963V4.44495H13.472V3.74963C13.4722 3.36637 13.7831 3.05547 14.1663 3.0553ZM3.75031 10.0006V13.4723C3.75039 15.0063 4.99365 16.2496 6.52765 16.2496H13.472C15.0061 16.2496 16.2502 15.0063 16.2503 13.4723V10.0006H3.75031ZM4.44464 5.83362C4.06112 5.83363 3.75031 6.14443 3.75031 6.52795V8.61096H16.2503V6.52795C16.2503 6.14456 15.9393 5.83384 15.556 5.83362H14.8607L14.847 5.97327C14.7822 6.28972 14.5019 6.52795 14.1663 6.52795C13.8309 6.52781 13.5514 6.28959 13.4866 5.97327L13.472 5.83362H7.22198L7.20831 5.97327C7.14358 6.28974 6.86326 6.52795 6.52765 6.52795C6.19208 6.52789 5.91169 6.28972 5.84698 5.97327L5.83331 5.83362H4.44464Z" fill="#454551"/>
</svg>
