<svg width="32" height="32" viewBox="0 0 32 32" fill="none" xmlns="http://www.w3.org/2000/svg">
<path d="M22.3333 4.7465V2.6665C22.3333 2.11984 21.88 1.6665 21.3333 1.6665C20.7866 1.6665 20.3333 2.11984 20.3333 2.6665V4.6665H11.6666V2.6665C11.6666 2.11984 11.2133 1.6665 10.6666 1.6665C10.12 1.6665 9.66664 2.11984 9.66664 2.6665V4.7465C6.06664 5.07983 4.31998 7.2265 4.05331 10.4132C4.02665 10.7998 4.34665 11.1198 4.71998 11.1198H27.28C27.6666 11.1198 27.9866 10.7865 27.9466 10.4132C27.68 7.2265 25.9333 5.07983 22.3333 4.7465Z" fill="#581C87"/>
<path opacity="0.4" d="M26.6667 13.1196C27.4 13.1196 28 13.7196 28 14.453V22.6663C28 26.6663 26 29.333 21.3333 29.333H10.6667C6 29.333 4 26.6663 4 22.6663V14.453C4 13.7196 4.6 13.1196 5.33333 13.1196H26.6667Z" fill="#581C87"/>
<path d="M11.3333 19.9999C11.16 19.9999 10.9867 19.9599 10.8267 19.8932C10.6667 19.8265 10.52 19.7332 10.3867 19.6132C10.2667 19.4799 10.1733 19.3332 10.1066 19.1732C10.04 19.0132 10 18.8399 10 18.6665C10 18.4932 10.04 18.3199 10.1066 18.1599C10.1733 17.9999 10.2667 17.8532 10.3867 17.7199C10.52 17.5999 10.6667 17.5065 10.8267 17.4398C11.1467 17.3065 11.52 17.3065 11.84 17.4398C12 17.5065 12.1467 17.5999 12.28 17.7199C12.4 17.8532 12.4934 17.9999 12.56 18.1599C12.6267 18.3199 12.6667 18.4932 12.6667 18.6665C12.6667 18.8399 12.6267 19.0132 12.56 19.1732C12.4934 19.3332 12.4 19.4799 12.28 19.6132C12.1467 19.7332 12 19.8265 11.84 19.8932C11.68 19.9599 11.5067 19.9999 11.3333 19.9999Z" fill="#581C87"/>
<path d="M16.0003 20.0001C15.827 20.0001 15.6537 19.9601 15.4937 19.8934C15.3337 19.8268 15.187 19.7334 15.0537 19.6134C14.8137 19.3601 14.667 19.0134 14.667 18.6668C14.667 18.3201 14.8137 17.9734 15.0537 17.7201C15.187 17.6001 15.3337 17.5067 15.4937 17.4401C15.8137 17.2934 16.187 17.2934 16.507 17.4401C16.667 17.5067 16.8136 17.6001 16.947 17.7201C17.187 17.9734 17.3337 18.3201 17.3337 18.6668C17.3337 19.0134 17.187 19.3601 16.947 19.6134C16.8136 19.7334 16.667 19.8268 16.507 19.8934C16.347 19.9601 16.1737 20.0001 16.0003 20.0001Z" fill="#581C87"/>
<path d="M11.3333 24.6664C11.16 24.6664 10.9867 24.6264 10.8267 24.5597C10.6667 24.4931 10.52 24.3997 10.3867 24.2797C10.1467 24.0264 10 23.6797 10 23.333C10 22.9864 10.1467 22.6397 10.3867 22.3864C10.52 22.2664 10.6667 22.173 10.8267 22.1063C11.1467 21.973 11.52 21.973 11.84 22.1063C12 22.173 12.1467 22.2664 12.28 22.3864C12.52 22.6397 12.6667 22.9864 12.6667 23.333C12.6667 23.6797 12.52 24.0264 12.28 24.2797C12.1467 24.3997 12 24.4931 11.84 24.5597C11.68 24.6264 11.5067 24.6664 11.3333 24.6664Z" fill="#581C87"/>
</svg>
