<svg width="20" height="20" viewBox="0 0 20 20" fill="none" xmlns="http://www.w3.org/2000/svg">
<path d="M10.2229 16.0943L11.25 17.0834L12.277 16.1018L12.305 16.0749C15.9373 12.5831 18.3333 10.2798 18.3333 7.45462C18.3333 5.14672 16.6191 3.33337 14.4375 3.33337C13.205 3.33337 12.022 3.94032 11.25 4.89945C10.4779 3.94032 9.29496 3.33337 8.06246 3.33337C5.88079 3.33337 4.16663 5.14672 4.16663 7.45462C4.16663 8.33671 4.40018 9.16787 4.83201 10H7.39607L9.30579 6.92445L10.661 10.5385L12.241 8.95837H15V10.2084H12.7589L10.1722 12.795L9.02746 9.74229L8.09128 11.25H5.62006C6.68148 12.6971 8.27166 14.2225 10.2139 16.0856L10.2229 16.0943Z" fill="#4B4AD5"/>
<path opacity="0.4" fill-rule="evenodd" clip-rule="evenodd" d="M5.83329 11.25H1.66663V10H4.99996L5.83329 11.25Z" fill="#4B4AD5"/>
</svg>
