<svg width="20" height="20" viewBox="0 0 1024 1024" fill="none" xmlns="http://www.w3.org/2000/svg">
  <path
    fill="#A2A2A8"
    transform="translate(0, 1024) scale(1, -1)"
    d="M521.387 734.211c107.925 0 195.486-86.113 195.486-192.43 0-21.93-17.997-39.709-40.192-39.709-22.199 0-40.196 17.779-40.196 39.709 0 62.376-51.49 113.014-115.098 113.014-22.199 0-40.192 17.777-40.192 39.708s17.993 39.708 40.192 39.708zM782.874 427.593c24.431 41.698 38.409 90.078 38.409 141.679 0 156.924-129.276 284.062-288.661 284.062-159.382 0-288.661-127.139-288.661-284.062 0-52.211 14.312-101.128 39.283-143.159l-86.915-234.859c-4.816-13.013-5.633-27.119-2.349-40.546 9.205-37.632 47.651-60.621 85.871-51.341l44.925 10.906 29.090-39.108c7.606-10.227 17.897-18.206 29.775-23.091 36.213-14.895 77.971 2.044 93.271 37.828l56.422 131.968 56.422-131.968c15.3-35.785 57.058-52.723 93.274-37.828 11.874 4.885 22.165 12.864 29.773 23.091l29.090 39.108 44.924-10.906c38.221-9.28 76.668 13.709 85.871 51.341 3.285 13.427 2.466 27.533-2.347 40.546l-87.467 236.339zM589.355 290.692l68.143-159.386 51.072 68.659 80.247-19.482-65.092 175.885c-37.419-32.55-83.486-55.697-134.37-65.677zM277.85 180.484l64.744 174.955c37.551-32.341 83.692-55.258 134.611-64.998l-68.036-159.134-51.072 68.659-80.247-19.482zM532.621 364.625c-115.067 0-208.274 91.661-208.274 204.646 0 112.983 93.207 204.647 208.274 204.647s208.277-91.664 208.277-204.647c0-112.985-93.21-204.646-208.277-204.646z"
  />
</svg>
