<svg width="20" height="20" viewBox="0 0 20 20" fill="none" xmlns="http://www.w3.org/2000/svg">
<path d="M10 4.16671C10.4603 4.16671 10.8334 4.5398 10.8334 5.00004V9.59247L14.2617 12.2589C14.6249 12.5415 14.6904 13.065 14.4078 13.4283C14.1253 13.7916 13.6017 13.8571 13.2384 13.5745L9.48842 10.6578C9.28543 10.5 9.16671 10.2572 9.16671 10V5.00004C9.16671 4.5398 9.5398 4.16671 10 4.16671Z" fill="#454551"/>
<path fill-rule="evenodd" clip-rule="evenodd" d="M10 0.833374C15.0626 0.833374 19.1667 4.93743 19.1667 10C19.1667 15.0626 15.0626 19.1667 10 19.1667C4.93743 19.1667 0.833374 15.0626 0.833374 10C0.833374 4.93743 4.93743 0.833374 10 0.833374ZM10 2.50004C5.8579 2.50004 2.50004 5.8579 2.50004 10C2.50004 14.1422 5.8579 17.5 10 17.5C14.1422 17.5 17.5 14.1422 17.5 10C17.5 5.8579 14.1422 2.50004 10 2.50004Z" fill="#454551"/>
</svg>
