<svg width="28" height="28" viewBox="0 0 28 28" fill="none" xmlns="http://www.w3.org/2000/svg">
<path d="M6.1792 6.17441C6.63501 5.71933 7.3733 5.71977 7.82861 6.17538L13.9966 12.3492L20.1528 6.2037C20.6088 5.74843 21.3479 5.74873 21.8032 6.20468C22.2584 6.66064 22.2572 7.39984 21.8013 7.85507L15.646 14.0006L21.8032 20.1627C22.2585 20.6185 22.258 21.3567 21.8022 21.8121C21.3465 22.2674 20.6083 22.2676 20.1528 21.8121L13.9946 15.649L7.82471 21.8111C7.36876 22.2664 6.62959 22.2661 6.17432 21.8102C5.71906 21.3542 5.71939 20.615 6.17529 20.1598L12.3452 13.9977L6.17822 7.8248C5.72282 7.36898 5.72338 6.62981 6.1792 6.17441Z" fill="#FC5A5A"/>
</svg>
