<svg width="25" height="28" viewBox="0 0 25 28" fill="none" xmlns="http://www.w3.org/2000/svg">
<g opacity="0.08" clip-path="url(#clip0_1684_115423)">
<rect x="9.92993" y="18.6069" width="8.4176" height="7.21509" fill="#B89ECE"/>
<path d="M8.87472 13.3672C12.0355 12.6211 13.993 9.45384 13.2468 6.29303C12.5006 3.13221 9.33341 1.17475 6.17261 1.92092C3.0118 2.66709 1.05435 5.83432 1.80052 8.99513C2.54669 12.1559 5.71392 14.1134 8.87472 13.3672Z" fill="#B89ECE"/>
<path d="M14.9033 14.2949C14.4713 14.0294 13.9731 13.8968 13.4674 13.886C12.7301 13.8703 12.0203 14.1796 11.4753 14.6794C10.3882 15.6767 9.51793 16.3688 7.52516 16.3688C5.53144 16.3688 4.62701 15.6571 3.59086 14.6877C3.11464 14.2421 2.51089 13.9354 1.862 13.8923C1.26259 13.8525 0.658337 13.9806 0.147002 14.2949C-1.3919 15.2404 -4.5 18.1503 -4.5 26.2296C-4.5 26.5482 -4.49507 26.8556 -4.48626 27.1541C-4.46654 27.8234 -3.91684 28.3533 -3.25127 28.3533H1.64468H5.14592H9.72775H13.1086H18.3015C18.9671 28.3533 19.5168 27.8235 19.5365 27.1542C19.5453 26.8556 19.5503 26.5483 19.5503 26.2296C19.5503 18.1503 16.4422 15.2404 14.9033 14.2949ZM14.3667 23.1728H12.8846V24.664H10.979V23.1728H9.49689V21.2556H10.979V19.7644H12.8846V21.2556H14.3667V23.1728Z" fill="#581C87"/>
</g>
<defs>
<clipPath id="clip0_1684_115423">
<rect width="28.8604" height="28.8604" fill="white" transform="translate(-4.5 0.569824)"/>
</clipPath>
</defs>
</svg>
