<svg width="17" height="20" viewBox="0 0 17 20" fill="none" xmlns="http://www.w3.org/2000/svg">
<path d="M16.24 5.32994L11.8 0.329936C11.7065 0.226343 11.5924 0.143465 11.4649 0.0866313C11.3375 0.0297973 11.1995 0.000265665 11.06 -6.41645e-05H3.06C2.72775 -0.00402726 2.39797 0.0574959 2.0895 0.180992C1.78103 0.304488 1.4999 0.487539 1.26218 0.71969C1.02446 0.951841 0.834794 1.22855 0.704018 1.534C0.573242 1.83946 0.503916 2.16768 0.5 2.49994V17.4999C0.503916 17.8322 0.573242 18.1604 0.704018 18.4659C0.834794 18.7713 1.02446 19.048 1.26218 19.2802C1.4999 19.5123 1.78103 19.6954 2.0895 19.8189C2.39797 19.9424 2.72775 20.0039 3.06 19.9999H13.94C14.2723 20.0039 14.602 19.9424 14.9105 19.8189C15.219 19.6954 15.5001 19.5123 15.7378 19.2802C15.9755 19.048 16.1652 18.7713 16.296 18.4659C16.4268 18.1604 16.4961 17.8322 16.5 17.4999V5.99994C16.4994 5.7521 16.4067 5.51333 16.24 5.32994ZM5.5 9.99994H8.5C8.76522 9.99994 9.01957 10.1053 9.20711 10.2928C9.39464 10.4804 9.5 10.7347 9.5 10.9999C9.5 11.2652 9.39464 11.5195 9.20711 11.707C9.01957 11.8946 8.76522 11.9999 8.5 11.9999H5.5C5.23478 11.9999 4.98043 11.8946 4.79289 11.707C4.60536 11.5195 4.5 11.2652 4.5 10.9999C4.5 10.7347 4.60536 10.4804 4.79289 10.2928C4.98043 10.1053 5.23478 9.99994 5.5 9.99994ZM11.5 15.9999H5.5C5.23478 15.9999 4.98043 15.8946 4.79289 15.707C4.60536 15.5195 4.5 15.2652 4.5 14.9999C4.5 14.7347 4.60536 14.4804 4.79289 14.2928C4.98043 14.1053 5.23478 13.9999 5.5 13.9999H11.5C11.7652 13.9999 12.0196 14.1053 12.2071 14.2928C12.3946 14.4804 12.5 14.7347 12.5 14.9999C12.5 15.2652 12.3946 15.5195 12.2071 15.707C12.0196 15.8946 11.7652 15.9999 11.5 15.9999ZM11.21 5.99994C11.0038 5.97963 10.8139 5.87917 10.6811 5.72019C10.5483 5.5612 10.4833 5.35641 10.5 5.14994V1.99994L14.24 5.99994H11.21Z" fill="#EDDFF7"/>
</svg>
