<svg width="19" height="18" viewBox="0 0 19 18" fill="none" xmlns="http://www.w3.org/2000/svg">
<rect x="9.9064" y="11.25" width="5.25" height="4.5" fill="#B6BBC2"/>
<path d="M10.7491 7.98165C12.7204 7.51627 13.9413 5.54089 13.4759 3.56951C13.0105 1.59813 11.0351 0.377281 9.06378 0.84266C7.09241 1.30804 5.87156 3.28342 6.33694 5.2548C6.80232 7.22618 8.7777 8.44703 10.7491 7.98165Z" fill="#B6BBC2"/>
<path d="M14.5081 8.55812C14.2387 8.39356 13.9279 8.31135 13.6126 8.30466C13.1527 8.29491 12.71 8.48663 12.3701 8.79651C11.6921 9.41469 11.1493 9.8437 9.90641 9.8437C8.66294 9.8437 8.09885 9.40255 7.45261 8.80163C7.1556 8.52543 6.77905 8.33529 6.37434 8.30857C6.00049 8.28389 5.62362 8.36329 5.3047 8.55812C4.3449 9.14427 2.4064 10.9481 2.4064 15.9564C2.4064 16.1539 2.40948 16.3444 2.41497 16.5294C2.42727 16.9444 2.77011 17.2728 3.18523 17.2728H6.23879H8.4225H11.2802H13.3888H16.6276C17.0427 17.2728 17.3855 16.9444 17.3978 16.5295C17.4033 16.3444 17.4064 16.1539 17.4064 15.9564C17.4064 10.9481 15.4679 9.14427 14.5081 8.55812ZM14.1734 14.0615H13.249V14.9859H12.0606V14.0615H11.1362V12.873H12.0606V11.9486H13.249V12.873H14.1734V14.0615Z" fill="#5A6774"/>
</svg>
