<svg width="17" height="21" viewBox="0 0 17 21" fill="none" xmlns="http://www.w3.org/2000/svg">
<path d="M16.24 5.87803L11.8 0.878031C11.7065 0.774439 11.5924 0.691561 11.4649 0.634727C11.3375 0.577893 11.1995 0.548361 11.06 0.548032H3.06C2.72775 0.544068 2.39797 0.605592 2.0895 0.729088C1.78103 0.852584 1.4999 1.03563 1.26218 1.26779C1.02446 1.49994 0.834794 1.77664 0.704018 2.0821C0.573242 2.38755 0.503916 2.71578 0.5 3.04803V18.048C0.503916 18.3803 0.573242 18.7085 0.704018 19.014C0.834794 19.3194 1.02446 19.5961 1.26218 19.8283C1.4999 20.0604 1.78103 20.2435 2.0895 20.367C2.39797 20.4905 2.72775 20.552 3.06 20.548H13.94C14.2723 20.552 14.602 20.4905 14.9105 20.367C15.219 20.2435 15.5001 20.0604 15.7378 19.8283C15.9755 19.5961 16.1652 19.3194 16.296 19.014C16.4268 18.7085 16.4961 18.3803 16.5 18.048V6.54803C16.4994 6.3002 16.4067 6.06143 16.24 5.87803ZM5.5 10.548H8.5C8.76522 10.548 9.01957 10.6534 9.20711 10.8409C9.39464 11.0285 9.5 11.2828 9.5 11.548C9.5 11.8132 9.39464 12.0676 9.20711 12.2551C9.01957 12.4427 8.76522 12.548 8.5 12.548H5.5C5.23478 12.548 4.98043 12.4427 4.79289 12.2551C4.60536 12.0676 4.5 11.8132 4.5 11.548C4.5 11.2828 4.60536 11.0285 4.79289 10.8409C4.98043 10.6534 5.23478 10.548 5.5 10.548ZM11.5 16.548H5.5C5.23478 16.548 4.98043 16.4427 4.79289 16.2551C4.60536 16.0676 4.5 15.8132 4.5 15.548C4.5 15.2828 4.60536 15.0285 4.79289 14.8409C4.98043 14.6534 5.23478 14.548 5.5 14.548H11.5C11.7652 14.548 12.0196 14.6534 12.2071 14.8409C12.3946 15.0285 12.5 15.2828 12.5 15.548C12.5 15.8132 12.3946 16.0676 12.2071 16.2551C12.0196 16.4427 11.7652 16.548 11.5 16.548ZM11.21 6.54803C11.0038 6.52773 10.8139 6.42727 10.6811 6.26828C10.5483 6.10929 10.4833 5.90451 10.5 5.69803V2.54803L14.24 6.54803H11.21Z" fill="#BAA2CE"/>
</svg>
