<svg width="24" height="24" viewBox="0 0 24 24" fill="none" xmlns="http://www.w3.org/2000/svg">
<g clip-path="url(#clip0_1407_73409)">
<path fill-rule="evenodd" clip-rule="evenodd" d="M4 15.875C4.62132 15.875 5.125 16.3787 5.125 17V19C5.125 19.2321 5.21719 19.4546 5.38128 19.6187C5.54538 19.7828 5.76794 19.875 6 19.875H18C18.2321 19.875 18.4546 19.7828 18.6187 19.6187C18.7828 19.4546 18.875 19.2321 18.875 19V17C18.875 16.3787 19.3787 15.875 20 15.875C20.6213 15.875 21.125 16.3787 21.125 17V19C21.125 19.8288 20.7958 20.6237 20.2097 21.2097C19.6237 21.7958 18.8288 22.125 18 22.125H6C5.1712 22.125 4.37634 21.7958 3.79029 21.2097C3.20424 20.6237 2.875 19.8288 2.875 19V17C2.875 16.3787 3.37868 15.875 4 15.875Z" fill="#4B4AD5"/>
<path fill-rule="evenodd" clip-rule="evenodd" d="M11.2045 16.7955C11.6438 17.2348 12.3562 17.2348 12.7955 16.7955L17.7955 11.7955C18.2348 11.3562 18.2348 10.6438 17.7955 10.2045C17.3562 9.76516 16.6438 9.76516 16.2045 10.2045L12 14.409L7.7955 10.2045C7.35616 9.76516 6.64384 9.76516 6.2045 10.2045C5.76517 10.6438 5.76517 11.3562 6.2045 11.7955L11.2045 16.7955Z" fill="#4B4AD5"/>
<path fill-rule="evenodd" clip-rule="evenodd" d="M12 17.125C12.6213 17.125 13.125 16.6213 13.125 16V4C13.125 3.37868 12.6213 2.875 12 2.875C11.3787 2.875 10.875 3.37868 10.875 4V16C10.875 16.6213 11.3787 17.125 12 17.125Z" fill="#4B4AD5"/>
</g>
<defs>
<clipPath id="clip0_1407_73409">
<rect width="24" height="24" fill="white"/>
</clipPath>
</defs>
</svg>
