<svg width="27" height="26" viewBox="0 0 27 26" fill="none" xmlns="http://www.w3.org/2000/svg">
<path d="M12.2493 2.31934H10.1132C4.77285 2.31934 2.63672 4.45546 2.63672 9.79579V16.2042C2.63672 21.5445 4.77285 23.6806 10.1132 23.6806H16.5216C21.8619 23.6806 23.998 21.5445 23.998 16.2042V14.068" stroke="#4B4AD5" stroke-width="1.6021" stroke-linecap="round" stroke-linejoin="round"/>
<path d="M17.6323 3.40854L9.21597 11.8249C8.89555 12.1453 8.57513 12.7755 8.51105 13.2347L8.05178 16.4496C7.88089 17.6138 8.7033 18.4255 9.86749 18.2653L13.0824 17.806C13.531 17.742 14.1611 17.4215 14.4922 17.1011L22.9086 8.68477C24.3611 7.23221 25.0447 5.54466 22.9086 3.40854C20.7724 1.27241 19.0849 1.95597 17.6323 3.40854Z" stroke="#4B4AD5" stroke-width="1.6021" stroke-miterlimit="10" stroke-linecap="round" stroke-linejoin="round"/>
<path d="M16.4258 4.61523C17.1414 7.16791 19.1387 9.16519 21.702 9.89147" stroke="#292D32" stroke-width="1.6021" stroke-miterlimit="10" stroke-linecap="round" stroke-linejoin="round"/>
</svg>
