<svg width="25" height="25" viewBox="0 0 25 25" fill="none" xmlns="http://www.w3.org/2000/svg">
<rect x="8.5" y="10.5" width="9" height="8" fill="#581C87"/>
<path d="M20 7.55019H13L10.37 4.37019C10.2769 4.25547 10.1596 4.1628 10.0265 4.09882C9.89336 4.03485 9.74771 4.00116 9.6 4.00019H5C4.34661 3.99216 3.71666 4.24338 3.2481 4.69883C2.77953 5.15427 2.51053 5.77683 2.5 6.43019V18.5702C2.51053 19.2235 2.77953 19.8461 3.2481 20.3015C3.71666 20.757 4.34661 21.0082 5 21.0002H20C20.6534 21.0082 21.2833 20.757 21.7519 20.3015C22.2205 19.8461 22.4895 19.2235 22.5 18.5702V9.98019C22.4895 9.32683 22.2205 8.70427 21.7519 8.24883C21.2833 7.79338 20.6534 7.54217 20 7.55019ZM14.5 15.5002H13.5V16.5002C13.5 16.7654 13.3946 17.0198 13.2071 17.2073C13.0196 17.3948 12.7652 17.5002 12.5 17.5002C12.2348 17.5002 11.9804 17.3948 11.7929 17.2073C11.6054 17.0198 11.5 16.7654 11.5 16.5002V15.5002H10.5C10.2348 15.5002 9.98043 15.3948 9.79289 15.2073C9.60536 15.0198 9.5 14.7654 9.5 14.5002C9.5 14.235 9.60536 13.9806 9.79289 13.7931C9.98043 13.6055 10.2348 13.5002 10.5 13.5002H11.5V12.5002C11.5 12.235 11.6054 11.9806 11.7929 11.7931C11.9804 11.6055 12.2348 11.5002 12.5 11.5002C12.7652 11.5002 13.0196 11.6055 13.2071 11.7931C13.3946 11.9806 13.5 12.235 13.5 12.5002V13.5002H14.5C14.7652 13.5002 15.0196 13.6055 15.2071 13.7931C15.3946 13.9806 15.5 14.235 15.5 14.5002C15.5 14.7654 15.3946 15.0198 15.2071 15.2073C15.0196 15.3948 14.7652 15.5002 14.5 15.5002Z" fill="#BAA2CE"/>
<path d="M2.5 6.5C2.5 5.11929 3.61929 4 5 4H9.63443C9.93585 4 10.2212 4.13596 10.4111 4.37005L12.9498 7.50001H2.5V6.5Z" fill="#581C87"/>
</svg>
