<svg width="166" height="166" viewBox="0 0 166 166" fill="none" xmlns="http://www.w3.org/2000/svg">
<g clip-path="url(#clip0_473_34256)">
<path d="M148.959 30.6738H20.2478C18.5114 30.6749 16.8463 31.3652 15.6184 32.5931C14.3906 33.8209 13.7003 35.486 13.6992 37.2224V155.316C13.7003 157.053 14.3906 158.718 15.6184 159.946C16.8463 161.174 18.5114 161.864 20.2478 161.865H148.959C150.696 161.864 152.361 161.174 153.589 159.946C154.817 158.718 155.508 157.053 155.509 155.316V37.2224C155.508 35.4858 154.817 33.8207 153.589 32.5928C152.361 31.3649 150.696 30.6747 148.959 30.6738Z" fill="#C6C6C6"/>
<path d="M140.486 120.828H28.7224C25.106 120.828 22.1738 117.896 22.1738 114.279V9.93728C22.1738 6.3208 25.106 3.38867 28.7224 3.38867H140.486C144.103 3.38867 147.035 6.3208 147.035 9.93728V114.279C147.035 117.896 144.103 120.828 140.486 120.828Z" fill="#F9F9F9"/>
<path d="M24.2471 116.352V12.0106C24.2471 8.39412 27.1793 5.46199 30.7958 5.46199H142.56C143.837 5.46199 145.024 5.83324 146.031 6.46552C144.874 4.61941 142.826 3.38867 140.486 3.38867H28.7224C25.106 3.38867 22.1738 6.3208 22.1738 9.93728V114.279C22.1738 116.62 23.4046 118.667 25.2507 119.825C24.6184 118.818 24.2471 117.63 24.2471 116.353V116.352Z" fill="url(#paint0_linear_473_34256)"/>
<path d="M126.735 25.4346H42.4746V30.2365H126.735V25.4346ZM126.735 43.7699H42.4746V48.5718H126.735V43.7699ZM126.735 62.1092H42.4746V66.9111H126.735V62.1092ZM126.735 80.4445H42.4746V85.2471H126.735V80.4445Z" fill="white"/>
<path d="M52.5156 64.9453L73.6891 86.1194H52.5156V64.9453Z" fill="url(#paint1_linear_473_34256)"/>
<path d="M155.509 87.8659V39.1483L147.035 30.6738V87.8653H155.509V87.8659Z" fill="#C6C6C6"/>
<path d="M165.434 92.2727L156.305 156.901C155.848 160.132 153.083 162.534 149.82 162.534H19.3878C16.125 162.534 13.3599 160.132 12.9034 156.901L0.565591 69.5723C0.00905368 65.6299 3.06832 62.1074 7.04996 62.1074H47.3302C50.593 62.1074 53.3582 64.5087 53.8146 67.7391L55.4315 79.1755C55.8879 82.4065 58.653 84.8078 61.9158 84.8078H158.951C162.932 84.8078 165.992 88.3303 165.435 92.2727H165.434Z" fill="url(#paint2_linear_473_34256)"/>
<path d="M133.087 133.707H36.1227C35.5912 133.706 35.078 133.512 34.6793 133.161C34.2806 132.81 34.0237 132.325 33.9567 131.798L32.7435 122.192C32.705 121.885 32.7322 121.573 32.8235 121.277C32.9147 120.981 33.0678 120.708 33.2726 120.476C33.4774 120.244 33.7293 120.058 34.0115 119.93C34.2937 119.803 34.5998 119.737 34.9095 119.736H134.3C134.609 119.737 134.915 119.803 135.198 119.93C135.48 120.058 135.732 120.244 135.937 120.476C136.141 120.708 136.295 120.981 136.386 121.277C136.477 121.573 136.504 121.885 136.466 122.192L135.253 131.798C135.186 132.325 134.929 132.81 134.53 133.161C134.131 133.512 133.618 133.706 133.087 133.707Z" fill="#D5D5D5"/>
</g>
<defs>
<linearGradient id="paint0_linear_473_34256" x1="88.4443" y1="65.9413" x2="5.6265" y2="-16.8773" gradientUnits="userSpaceOnUse">
<stop stop-color="white"/>
</linearGradient>
<linearGradient id="paint1_linear_473_34256" x1="66.5048" y1="89.5168" x2="40.9115" y2="63.9242" gradientUnits="userSpaceOnUse">
<stop stop-color="#C2CECE" stop-opacity="0"/>
<stop offset="0.179" stop-color="#AFBCBC" stop-opacity="0.179"/>
<stop offset="1" stop-color="#5B6A6A"/>
</linearGradient>
<linearGradient id="paint2_linear_473_34256" x1="83" y1="62.1074" x2="83" y2="162.534" gradientUnits="userSpaceOnUse">
<stop stop-color="#EEF0F4"/>
<stop offset="0.927" stop-color="#E4E4E4"/>
</linearGradient>
<clipPath id="clip0_473_34256">
<rect width="165" height="165" fill="white" transform="translate(0.5 0.460938)"/>
</clipPath>
</defs>
</svg>
