<svg width="43" height="42" viewBox="0 0 43 42" fill="none" xmlns="http://www.w3.org/2000/svg">
<g filter="url(#filter0_d_726_56522)">
<path d="M4.5 13C4.5 7.47715 8.97715 3 14.5 3H26.5C32.0228 3 36.5 7.47715 36.5 13V25C36.5 30.5228 32.0228 35 26.5 35H14.5C8.97715 35 4.5 30.5228 4.5 25V13Z" fill="#BA7DE9" shape-rendering="crispEdges"/>
<path d="M14.5 11L23.5 10L25.5 12.5L27.5 15.5L26.5 28H14.5V11Z" fill="#A461D8"/>
<path d="M28.24 14.3299L23.8 9.32994C23.7065 9.22634 23.5924 9.14347 23.4649 9.08663C23.3375 9.0298 23.1995 9.00027 23.06 8.99994H15.06C14.7277 8.99597 14.398 9.0575 14.0895 9.18099C13.781 9.30449 13.4999 9.48754 13.2622 9.71969C13.0245 9.95184 12.8348 10.2285 12.704 10.534C12.5732 10.8395 12.5039 11.1677 12.5 11.4999V26.4999C12.5039 26.8322 12.5732 27.1604 12.704 27.4659C12.8348 27.7713 13.0245 28.048 13.2622 28.2802C13.4999 28.5123 13.781 28.6954 14.0895 28.8189C14.398 28.9424 14.7277 29.0039 15.06 28.9999H25.94C26.2723 29.0039 26.602 28.9424 26.9105 28.8189C27.219 28.6954 27.5001 28.5123 27.7378 28.2802C27.9755 28.048 28.1652 27.7713 28.296 27.4659C28.4268 27.1604 28.4961 26.8322 28.5 26.4999V14.9999C28.4994 14.7521 28.4067 14.5133 28.24 14.3299ZM17.5 18.9999H20.5C20.7652 18.9999 21.0196 19.1053 21.2071 19.2928C21.3946 19.4804 21.5 19.7347 21.5 19.9999C21.5 20.2652 21.3946 20.5195 21.2071 20.707C21.0196 20.8946 20.7652 20.9999 20.5 20.9999H17.5C17.2348 20.9999 16.9804 20.8946 16.7929 20.707C16.6054 20.5195 16.5 20.2652 16.5 19.9999C16.5 19.7347 16.6054 19.4804 16.7929 19.2928C16.9804 19.1053 17.2348 18.9999 17.5 18.9999ZM23.5 24.9999H17.5C17.2348 24.9999 16.9804 24.8946 16.7929 24.707C16.6054 24.5195 16.5 24.2652 16.5 23.9999C16.5 23.7347 16.6054 23.4804 16.7929 23.2928C16.9804 23.1053 17.2348 22.9999 17.5 22.9999H23.5C23.7652 22.9999 24.0196 23.1053 24.2071 23.2928C24.3946 23.4804 24.5 23.7347 24.5 23.9999C24.5 24.2652 24.3946 24.5195 24.2071 24.707C24.0196 24.8946 23.7652 24.9999 23.5 24.9999ZM23.21 14.9999C23.0038 14.9796 22.8139 14.8792 22.6811 14.7202C22.5483 14.5612 22.4833 14.3564 22.5 14.1499V10.9999L26.24 14.9999H23.21Z" fill="white"/>
</g>
<defs>
<filter id="filter0_d_726_56522" x="0.5" y="0" width="42" height="42" filterUnits="userSpaceOnUse" color-interpolation-filters="sRGB">
<feFlood flood-opacity="0" result="BackgroundImageFix"/>
<feColorMatrix in="SourceAlpha" type="matrix" values="0 0 0 0 0 0 0 0 0 0 0 0 0 0 0 0 0 0 127 0" result="hardAlpha"/>
<feOffset dx="1" dy="2"/>
<feGaussianBlur stdDeviation="2.5"/>
<feComposite in2="hardAlpha" operator="out"/>
<feColorMatrix type="matrix" values="0 0 0 0 0.289653 0 0 0 0 0.179688 0 0 0 0 0.375 0 0 0 0.1 0"/>
<feBlend mode="normal" in2="BackgroundImageFix" result="effect1_dropShadow_726_56522"/>
<feBlend mode="normal" in="SourceGraphic" in2="effect1_dropShadow_726_56522" result="shape"/>
</filter>
</defs>
</svg>
