<svg width="20" height="20" viewBox="0 0 20 20" fill="none" xmlns="http://www.w3.org/2000/svg">
<path d="M6.79995 18.3334C3.31662 18.3334 2.61662 16.2251 3.74995 13.6584L7.29162 5.61675H7.04162C6.49995 5.61675 5.99995 5.40008 5.64162 5.04175C5.27495 4.68342 5.05828 4.18341 5.05828 3.64175C5.05828 2.55841 5.94162 1.66675 7.03328 1.66675H12.9583C13.5083 1.66675 13.9999 1.89175 14.3583 2.25008C14.8249 2.71675 15.0583 3.40008 14.8833 4.12508C14.6583 5.02508 13.7916 5.61675 12.8666 5.61675H12.7333L16.2499 13.6667C17.3749 16.2334 16.6416 18.3334 13.1916 18.3334H6.79995Z" stroke="#454551" stroke-width="1.5" stroke-linecap="round" stroke-linejoin="round"/>
<path d="M4.94995 10.9334C4.94995 10.9334 7.49995 10.8334 9.99995 11.6667C12.5 12.5001 14.8583 10.925 14.8583 10.925" stroke="#454551" stroke-width="1.5" stroke-linecap="round" stroke-linejoin="round"/>
</svg>
