<svg width="246" height="70" viewBox="0 0 246 70" fill="none" xmlns="http://www.w3.org/2000/svg">
<path opacity="0.5" d="M0.151768 -64.1289V-3.57292L20.4824 -23.5755V-64.1289H20.8555L20.792 -64.0665V-23.8816L41.1226 -43.8842V-64.1289H41.4323V-43.8842L61.7629 -23.8816V-64.1289H185.917V-43.8842L206.248 -23.8816V-64.1289H206.621L226.888 -44.1888V-64.1289H227.198V-43.8842L247.528 -23.8816V-64.1289H371.531V-3.05355H309.982L330.312 16.949H371.531V17.3161L371.467 17.2536H330.623L350.954 37.2562H371.531V37.5608H350.954L330.623 57.5634H371.531V57.868H330.623L350.954 77.8705H371.531V78.1752H351.264L371.531 98.1168V98.4839H330.623L350.954 118.486H371.531V301.408H247.531V261.161L227.201 281.163V301.408H226.891V281.163L206.56 261.161V301.345L206.624 301.408H206.251V260.856L185.92 240.853V301.409H61.766V281.165L61.7025 281.102L61.766 281.04V261.162L41.4354 281.165V301.409H41.1257V281.469L20.8586 301.409H20.4855V261.162L0.154867 281.165V301.409H6.16858e-05V118.488H61.5493L41.2186 98.4854H0.00161126V98.1183L0.065068 98.1808H40.909L20.5784 78.1782H0.00161126V77.8736H20.5784L40.909 57.871H0.00161126V57.5664H40.909L20.5784 37.5639H0.00161126V37.2592H20.2688L0.00161126 17.3191V16.9521H40.909L20.5784 -3.0505H0.00161126V-64.1289H0.156417H0.151768ZM41.279 -43.6055L20.7936 -23.4506V-3.35816H61.766V-23.4506L41.2805 -43.6055H41.279ZM20.484 -23.146L0.37158 -3.35816H20.484V-23.146ZM144.418 280.95L164.749 260.947H123.905L103.574 280.95H144.418ZM226.671 240.334L206.341 220.331H165.187L144.856 240.334H226.671ZM268.391 280.95H309.235L288.905 260.947H248.061L268.391 280.95ZM350.736 159.319L330.405 139.316V179.501L350.736 199.503V159.319ZM309.983 118.793L330.095 138.58V118.793H309.983ZM309.454 77.9619V37.4725L289.123 17.4699V98.2706L309.454 118.273V78.0883L309.39 78.0259L309.454 77.9634V77.9619ZM248.059 -23.6653H288.903L309.234 -43.6679H268.39L248.059 -23.6653ZM165.059 -43.6679H124.215L144.545 -23.6653H185.389L165.059 -43.6679ZM61.9827 139.101L41.6521 159.104H82.496L102.827 139.101H61.9827ZM82.7778 159.256L103.263 179.411H123.685V139.1H103.263L82.7778 159.255V159.256ZM62.0725 260.857V280.735L102.825 240.64H62.0725V260.733L62.136 260.795L62.0725 260.857ZM144.417 240.334L164.902 220.179L144.417 200.024H123.995V240.336H144.417V240.334ZM165.186 220.027H206.029L185.699 200.024H144.855L165.186 220.027ZM330.184 260.643L350.514 240.64H268.699L289.03 260.643H330.184ZM309.762 200.239V240.334H350.514L309.762 200.239ZM185.609 -23.146L165.497 -3.35816H185.609V-23.146ZM103.265 -23.3607L82.9341 -3.35816H164.749L144.418 -23.3607H103.265ZM62.0741 37.4725V77.9619L82.4047 97.9645V17.1638L62.0741 -2.83879V37.3461L62.1375 37.4085L62.0741 37.4709V37.4725ZM144.109 199.718L123.996 179.93V199.718H144.109ZM226.671 199.718L206.341 179.716H185.609H124.215L144.545 199.718H226.671ZM268.172 240.334V220.546L248.059 240.334H268.172ZM247.841 240.639V260.426L267.953 240.639H247.841ZM268.481 240.334H309.454V220.242L288.968 200.087L268.483 220.242V240.334H268.481ZM268.172 37.4725L247.841 17.4699V57.5649V97.9645L268.172 77.9619V37.4725ZM227.044 -2.9911L226.981 -3.05355H165.187L144.856 16.949H226.982L247.313 -3.05355H227.109L227.046 -2.9911H227.044ZM103.045 118.272V78.0868L82.7143 58.0843V98.2691L103.045 118.272ZM289.121 199.807L309.452 219.809V139.313L289.121 159.316V199.805V199.807ZM289.34 118.791L309.452 138.579V118.791H289.34ZM309.387 138.946L289.12 119.006V158.886L309.387 138.946ZM247.528 118.486V78.3914L227.198 98.394V138.883L247.528 158.886V118.486ZM227.416 16.9475H247.528V-2.84032L227.416 16.9475ZM247.528 17.2521H227.106L206.621 37.407L227.106 57.5618H247.528V17.2506V17.2521ZM103.353 77.9604L123.684 97.963V37.4709L123.62 37.4085L123.684 37.3461V17.4684L103.353 37.4709V77.9604ZM103.353 118.272L123.62 98.3316L103.353 78.3914V118.272ZM123.993 179.195L144.324 159.192V78.3914L124.057 98.3316L123.993 98.394V118.486V179.193V179.195ZM206.338 37.5608H165.184L144.853 57.5634H165.055L165.119 57.5009L165.182 57.5634H185.914H226.667L206.336 37.5608H206.338ZM144.634 118.272L164.964 98.2691V58.0843L144.634 78.0868V118.272ZM206.246 78.0868L185.916 58.0843V77.9604L185.979 78.0229L185.916 78.0853V118.637V138.882L206.246 158.884V78.0838V78.0868ZM186.134 57.868L206.246 77.6558V57.868H186.134ZM185.916 139.314V179.409H226.668L185.916 139.314ZM185.606 57.868H165.494L185.606 77.6558V57.868ZM165.275 58.0827V97.963L185.542 78.0229L165.275 58.0827ZM164.746 57.868H144.544L144.48 57.9304L144.417 57.868H123.995V97.963L164.747 57.868H164.746ZM144.106 57.5634L123.993 37.7756V57.5634H144.106ZM144.48 57.5009L164.747 37.5608H124.213L144.48 57.5009ZM206.557 57.868V77.9604L227.043 98.1153L247.528 77.9604V57.868H206.556H206.557ZM226.888 98.394L206.557 78.3914V118.576L226.888 138.579V98.394ZM206.557 119.006V159.191L226.888 179.193V139.008L206.557 119.006ZM227.198 179.193L247.465 159.253L227.198 139.313V179.193ZM227.416 179.408H247.528V159.62L227.416 179.408ZM185.606 118.637V78.3899L165.275 98.3925V138.882L185.606 158.884V118.637ZM164.966 98.6971L144.635 118.7V158.884L164.966 138.882V98.6971ZM123.993 -3.05659V37.0384L164.746 -3.05659H123.993ZM124.212 37.2547H165.055L185.386 17.2521H144.542L124.212 37.2547ZM185.824 17.2521L165.494 37.2547H206.338L226.668 17.2521H185.824ZM185.606 159.317L165.121 139.162L144.635 159.317V179.409H185.608V159.317H185.606ZM144.324 159.622L124.212 179.409H144.324V159.622ZM123.684 98.6986L103.571 118.486H123.684V98.6986ZM82.7112 57.6517L103.042 77.6543V37.4694L82.7112 17.4669V57.6517ZM103.197 37.1922L123.682 17.0373V-3.05507H82.7097V17.0373L103.195 37.1922H103.197ZM247.836 16.7327L267.949 -3.05507H247.836V16.7327ZM268.167 -2.83879L247.9 17.1013L268.167 37.0414V-2.83879ZM288.807 199.807V159.622L268.477 179.624V219.809L288.807 199.807ZM268.477 179.195L288.807 159.192V119.007L268.477 139.01V179.195ZM288.589 118.791H247.836V158.886L288.589 118.791ZM227.105 179.714L227.041 179.777L226.978 179.714H206.776L247.528 219.809V179.714H227.106H227.105ZM102.822 118.486L62.0694 78.3914V118.486H102.822ZM82.4001 16.7327V-3.05507H62.2877L82.4001 16.7327ZM165.117 -3.42213L185.385 -23.3622H144.85L165.117 -3.42213ZM267.947 -3.35969L247.835 -23.1475V-3.35969H267.947ZM268.32 -3.42213L288.587 -23.3622H248.053L268.32 -3.42213ZM268.693 -3.05507L309.446 37.0399V-3.05507H268.693ZM268.475 -2.84032V37.3445L288.806 57.3471V17.1622L268.475 -2.84032ZM288.806 57.7781L268.475 37.7756V77.9604L288.806 97.963V57.7781ZM268.32 78.2376L247.835 98.3925V118.485H288.807V98.3925L268.322 78.2376H268.32ZM289.115 118.485H309.228L289.115 98.6971V118.485ZM268.32 240.698L248.053 260.638H288.587L268.32 240.698ZM268.165 220.112V139.313L247.898 159.253L247.835 159.316V179.713V220.112L247.898 220.175L247.835 220.237V240.115L268.165 220.112ZM247.305 220.022L226.975 200.02H186.131L206.461 220.022H247.305ZM206.771 220.327L227.038 240.267L247.305 220.327H206.771ZM123.679 240.329V200.234L82.9264 240.329H123.679ZM123.461 200.018H82.6168L62.2862 220.021H103.13L123.461 200.018ZM123.461 199.714L103.194 179.773L82.9264 199.714H123.461ZM123.679 199.499V179.711H103.567L123.679 199.499ZM123.679 138.791V119.003L103.567 138.791H123.679ZM62.0741 -43.974H82.1864L62.0741 -63.7618V-43.974ZM62.0741 -43.6694V-3.35816H82.496L102.981 -23.513L82.496 -43.6679H62.0741V-43.6694ZM103.265 -23.6669H144.109L123.778 -43.6694H82.9341L103.265 -23.6669ZM247.531 -3.35969V-23.1475L227.419 -3.35969H247.531ZM309.672 -43.6694L289.341 -23.6669H330.185L350.516 -43.6694H309.672ZM330.185 -23.3622H289.032L268.701 -3.35969H350.516L330.185 -23.3622ZM309.763 119.007V138.885L309.827 138.947L309.763 139.01V199.807L330.094 219.809V139.008L309.763 119.006V119.007ZM330.404 179.93V220.115L350.734 240.118V199.933L330.404 179.93ZM351.044 240.118L371.312 220.179L351.045 200.239V240.119L351.044 240.118ZM330.467 260.794L350.952 280.948H371.376V240.637H350.954L330.469 260.792L330.467 260.794ZM330.184 260.946H289.34L309.67 280.948H350.516L330.185 260.946H330.184ZM247.53 220.546L227.417 240.334H247.53V220.546ZM185.608 240.853L165.495 260.641H185.608V240.853ZM185.389 240.639H123.995H103.263L82.9326 260.641H165.057L185.388 240.639H185.389ZM123.467 260.946H82.623L62.2923 280.948H103.136L123.467 260.946ZM62.2923 281.253L82.5595 301.193L102.827 281.253H62.2923ZM41.214 240.333L41.2775 240.27L41.3409 240.333H82.4945L102.825 220.33H20.6991L0.368481 240.333H41.2124H41.214ZM61.8542 220.025L82.1849 200.023H41.3409L21.0103 220.025H61.8542ZM41.3409 199.718H82.4945L102.825 179.716H21.0103L41.3409 199.718ZM102.825 179.411L82.4945 159.408H41.3409L21.0103 179.411H102.827H102.825ZM40.9028 159.408H0.368481L20.6357 179.349L40.9028 159.408ZM41.2124 159.104L61.5431 139.101H20.6991L0.368481 159.104H41.2124ZM103.135 138.797L123.465 118.794H103.262L103.198 118.857L103.135 118.794H41.3409L21.0103 138.797H103.135ZM82.6214 -43.9725H164.747L144.418 -63.9766H62.2923L82.623 -43.974L82.6214 -43.9725ZM144.856 -63.9766L185.609 -23.8816V-63.9766H144.856ZM185.919 -23.577L185.982 -23.5146L185.919 -23.4521V-3.35969H226.671L185.919 -43.4547V-23.577ZM206.559 -63.7618V-23.577L226.89 -3.57444V-43.7578L206.559 -63.7618ZM227.199 -43.4547V-3.57444L247.466 -23.5146L227.199 -43.4547ZM247.841 -63.9766V-23.8816L288.594 -63.9766H247.841ZM289.032 -63.9766L268.701 -43.974H350.825L371.158 -63.9766H289.033H289.032ZM351.264 -43.974H371.376V-63.7618L351.264 -43.974ZM371.376 -43.6694H350.954L330.469 -23.5146L350.954 -3.35969H371.376V-43.6694ZM309.763 -2.83879V16.949H329.876L309.763 -2.83879ZM330.185 17.2536H309.763V57.5649H330.185L330.249 57.5024L350.671 37.41L330.185 17.2552V17.2536ZM309.763 57.8695V77.6573L329.876 57.8695H309.763ZM330.249 57.9319L309.982 77.8721H350.516L330.249 57.9319ZM371.158 98.1808L350.827 78.1782H309.983L330.314 98.1808H371.158ZM309.763 78.393V118.488H350.516L309.763 78.393ZM330.404 118.793V138.885L350.889 159.04L371.376 138.885V118.793H330.404ZM371.376 139.316L351.045 159.319V199.808L371.376 219.811V139.314V139.316ZM351.264 240.334H371.376V220.546L351.264 240.334ZM371.376 281.255H351.264L371.376 301.042V281.255ZM350.825 281.255H268.701L289.032 301.257H371.158L350.827 281.255H350.825ZM288.594 301.257L247.841 261.162V301.257H288.594ZM227.044 280.886L247.466 260.794L247.53 260.731V240.639H227.108L227.044 240.701L226.981 240.639H206.559V260.731L227.044 280.886ZM206.249 240.639H186.137L206.249 260.426V240.639ZM185.609 260.946H165.187L144.702 281.101L165.187 301.256H185.609V260.944V260.946ZM164.749 301.257L144.418 281.255H103.265L82.9341 301.257H164.751H164.749ZM82.1864 301.257L62.0741 281.469V301.257H82.1864ZM61.7645 240.639H41.6521L61.7645 260.426V240.639ZM61.701 260.794L41.4338 240.853V280.734L61.701 260.794ZM20.7936 301.041L41.1242 281.038V240.853L20.7936 260.856V301.041ZM0.153318 280.734L40.9059 240.639H0.153318V280.734ZM0.153318 240.119L20.2657 220.331H0.153318V240.119ZM20.5753 220.027L41.0607 199.872L20.5753 179.717H0.153318V220.028H20.5753V220.027ZM0.153318 179.411H20.2657L0.153318 159.623V179.411ZM40.9059 118.793H0.153318V158.888L40.9059 118.793ZM61.766 118.272V98.4839H41.6537L61.766 118.272ZM41.344 98.1792H61.766V57.868H41.344L41.2805 57.9304L20.8586 78.0229L41.344 98.1777V98.1792ZM61.766 57.5634V37.7756L41.6537 57.5634H61.766ZM41.2805 57.5009L61.5477 37.5608H21.0134L41.2805 57.5009ZM0.37313 17.2536L20.7038 37.2562H61.5477L41.2171 17.2536H0.37313ZM61.7676 37.0414V-3.05355H21.0149L61.7676 37.0414Z" fill="url(#paint0_radial_8279_83176)"/>
<defs>
<radialGradient id="paint0_radial_8279_83176" cx="0" cy="0" r="1" gradientUnits="userSpaceOnUse" gradientTransform="translate(191.266 118.64) rotate(180) scale(144.709 142.373)">
<stop stop-color="white" stop-opacity="0.7"/>
<stop offset="0.21" stop-color="white" stop-opacity="0.9"/>
<stop offset="0.43" stop-color="white"/>
<stop offset="1" stop-color="white" stop-opacity="0"/>
</radialGradient>
</defs>
</svg>
