<svg width="20" height="20" viewBox="0 0 20 20" fill="none" xmlns="http://www.w3.org/2000/svg">
<path d="M7.47506 18.3334H12.4751C16.6417 18.3334 18.3084 16.6667 18.3084 12.5001V7.50008C18.3084 3.33341 16.6417 1.66675 12.4751 1.66675H7.47506C3.30839 1.66675 1.64172 3.33341 1.64172 7.50008V12.5001C1.64172 16.6667 3.30839 18.3334 7.47506 18.3334Z" stroke="#454551" stroke-width="1.5" stroke-linecap="round" stroke-linejoin="round"/>
<path d="M1.64172 10.5833L6.64172 10.5667C7.26672 10.5667 7.96672 11.0417 8.20006 11.625L9.15006 14.025C9.36672 14.5667 9.70839 14.5667 9.92506 14.025L11.8334 9.18334C12.0167 8.71668 12.3584 8.70001 12.5917 9.14168L13.4584 10.7833C13.7167 11.275 14.3834 11.675 14.9334 11.675H18.3167" stroke="#454551" stroke-width="1.5" stroke-linecap="round" stroke-linejoin="round"/>
</svg>
