<svg width="19" height="18" viewBox="0 0 19 18" fill="none" xmlns="http://www.w3.org/2000/svg">
<path d="M16.7693 15.9375H1.76935C1.46185 15.9375 1.20685 16.1925 1.20685 16.5C1.20685 16.8075 1.46185 17.0625 1.76935 17.0625H16.7693C17.0768 17.0625 17.3318 16.8075 17.3318 16.5C17.3318 16.1925 17.0768 15.9375 16.7693 15.9375Z" fill="#5A6774"/>
<path opacity="0.4" d="M13.0193 1.5H5.51935C3.26935 1.5 2.51935 2.8425 2.51935 4.5V16.5H16.0193V4.5C16.0193 2.8425 15.2693 1.5 13.0193 1.5Z" fill="#5A6774"/>
<path d="M10.8143 11.25H7.71683C7.33433 11.25 7.01184 11.565 7.01184 11.955V16.5H11.5118V11.955C11.5193 11.565 11.2043 11.25 10.8143 11.25Z" fill="#5A6774"/>
<path d="M11.1443 5.8125H9.83185V4.5C9.83185 4.1925 9.57685 3.9375 9.26935 3.9375C8.96185 3.9375 8.70685 4.1925 8.70685 4.5V5.8125H7.39435C7.08685 5.8125 6.83185 6.0675 6.83185 6.375C6.83185 6.6825 7.08685 6.9375 7.39435 6.9375H8.70685V8.25C8.70685 8.5575 8.96185 8.8125 9.26935 8.8125C9.57685 8.8125 9.83185 8.5575 9.83185 8.25V6.9375H11.1443C11.4518 6.9375 11.7068 6.6825 11.7068 6.375C11.7068 6.0675 11.4518 5.8125 11.1443 5.8125Z" fill="#5A6774"/>
</svg>
