<svg width="17" height="17" viewBox="0 0 17 17" fill="none" xmlns="http://www.w3.org/2000/svg">
<path d="M8.50004 15.1666C4.81814 15.1666 1.83337 12.1818 1.83337 8.49992C1.83337 4.81802 4.81814 1.83325 8.50004 1.83325C12.1819 1.83325 15.1667 4.81802 15.1667 8.49992C15.1667 12.1818 12.1819 15.1666 8.50004 15.1666ZM8.50004 13.8333C11.4456 13.8333 13.8334 11.4455 13.8334 8.49992C13.8334 5.5544 11.4456 3.16659 8.50004 3.16659C5.55452 3.16659 3.16671 5.5544 3.16671 8.49992C3.16671 11.4455 5.55452 13.8333 8.50004 13.8333ZM7.83338 5.16659H9.16671V6.49992H7.83338V5.16659ZM7.83338 7.83325H9.16671V11.8333H7.83338V7.83325Z" fill="#A2A2A8"/>
</svg>
