<svg width="42" height="42" viewBox="0 0 42 42" fill="none" xmlns="http://www.w3.org/2000/svg">
<rect width="41.5411" height="41.5411" rx="20.7706" fill="white" fill-opacity="0.5"/>
<path d="M27.2003 18.1699C26.8481 18.1699 26.5682 18.4499 26.5682 18.8021V20.2289C26.5682 23.4258 23.9674 26.0266 20.7705 26.0266C17.5736 26.0266 14.9728 23.4258 14.9728 20.2289V18.793C14.9728 18.4408 14.6928 18.1609 14.3406 18.1609C13.9884 18.1609 13.7085 18.4408 13.7085 18.793V20.2199C13.7085 23.8954 16.5351 26.9206 20.1383 27.2458V29.1693C20.1383 29.5215 20.4183 29.8014 20.7705 29.8014C21.1227 29.8014 21.4026 29.5215 21.4026 29.1693V27.2458C24.9968 26.9297 27.8325 23.8954 27.8325 20.2199V18.793C27.8235 18.4499 27.5435 18.1699 27.2003 18.1699Z" fill="#ED8A00"/>
<path d="M20.7704 11.74C18.5669 11.74 16.7788 13.5281 16.7788 15.7316V20.3553C16.7788 22.5587 18.5669 24.3468 20.7704 24.3468C22.9739 24.3468 24.7619 22.5587 24.7619 20.3553V15.7316C24.7619 13.5281 22.9739 11.74 20.7704 11.74ZM21.9534 18.0163C21.8902 18.2511 21.6825 18.4046 21.4477 18.4046C21.4025 18.4046 21.3574 18.3956 21.3122 18.3866C20.96 18.2872 20.5898 18.2872 20.2376 18.3866C19.9486 18.4678 19.6686 18.2963 19.5964 18.0163C19.5151 17.7364 19.6867 17.4474 19.9666 17.3751C20.4994 17.2306 21.0594 17.2306 21.5922 17.3751C21.8631 17.4474 22.0256 17.7364 21.9534 18.0163ZM22.432 16.2644C22.3507 16.4811 22.1521 16.6075 21.9353 16.6075C21.8721 16.6075 21.8179 16.5985 21.7547 16.5804C21.1226 16.3456 20.4182 16.3456 19.786 16.5804C19.5151 16.6798 19.2081 16.5353 19.1087 16.2644C19.0094 15.9934 19.1539 15.6864 19.4248 15.5961C20.2917 15.28 21.249 15.28 22.1159 15.5961C22.3869 15.6954 22.5314 15.9934 22.432 16.2644Z" fill="#ED8A00"/>
</svg>
