<svg width="16" height="16" viewBox="0 0 16 16" fill="none" xmlns="http://www.w3.org/2000/svg">
<path d="M14.4036 2.29224H0.966218C0.890804 2.29224 0.829102 2.35394 0.829102 2.42935V3.52629C0.829102 3.6017 0.890804 3.6634 0.966218 3.6634H14.4036C14.4791 3.6634 14.5408 3.6017 14.5408 3.52629V2.42935C14.5408 2.35394 14.4791 2.29224 14.4036 2.29224ZM14.4036 12.9873H0.966218C0.890804 12.9873 0.829102 13.049 0.829102 13.1244V14.2214C0.829102 14.2968 0.890804 14.3585 0.966218 14.3585H14.4036C14.4791 14.3585 14.5408 14.2968 14.5408 14.2214V13.1244C14.5408 13.049 14.4791 12.9873 14.4036 12.9873ZM14.4036 7.63978H0.966218C0.890804 7.63978 0.829102 7.70149 0.829102 7.7769V8.87383C0.829102 8.94925 0.890804 9.01095 0.966218 9.01095H14.4036C14.4791 9.01095 14.5408 8.94925 14.5408 8.87383V7.7769C14.5408 7.70149 14.4791 7.63978 14.4036 7.63978Z" fill="#A2A2A8"/>
</svg>
