<svg width="20" height="20" viewBox="0 0 20 20" fill="none" xmlns="http://www.w3.org/2000/svg">
<path d="M16.6667 6.87508V15.0001C16.6667 17.5001 15.175 18.3334 13.3334 18.3334H6.66671C4.82504 18.3334 3.33337 17.5001 3.33337 15.0001V6.87508C3.33337 4.16675 4.82504 3.54175 6.66671 3.54175C6.66671 4.05841 6.87502 4.52508 7.21668 4.86675C7.55835 5.20841 8.02504 5.41675 8.54171 5.41675H11.4584C12.4917 5.41675 13.3334 4.57508 13.3334 3.54175C15.175 3.54175 16.6667 4.16675 16.6667 6.87508Z" stroke="#454551" stroke-width="1.5" stroke-linecap="round" stroke-linejoin="round"/>
<path d="M13.3333 3.54175C13.3333 4.57508 12.4916 5.41675 11.4583 5.41675H8.54163C8.02496 5.41675 7.55827 5.20841 7.2166 4.86674C6.87494 4.52508 6.66663 4.05841 6.66663 3.54175C6.66663 2.50841 7.50829 1.66675 8.54163 1.66675H11.4583C11.975 1.66675 12.4416 1.87508 12.7833 2.21675C13.125 2.55842 13.3333 3.02508 13.3333 3.54175Z" stroke="#454551" stroke-width="1.5" stroke-linecap="round" stroke-linejoin="round"/>
<path d="M6.66663 10.8333H9.99996" stroke="#454551" stroke-width="1.5" stroke-linecap="round" stroke-linejoin="round"/>
<path d="M6.66663 14.1667H13.3333" stroke="#454551" stroke-width="1.5" stroke-linecap="round" stroke-linejoin="round"/>
</svg>
