<svg width="29" height="28" viewBox="0 0 29 28" fill="none" xmlns="http://www.w3.org/2000/svg">
<path d="M11.8359 14H20.5026" stroke="#171725" stroke-width="1.33333" stroke-linecap="round" stroke-linejoin="round"/>
<path d="M11.8359 18H20.5026" stroke="#171725" stroke-width="1.33333" stroke-linecap="round" stroke-linejoin="round"/>
<path d="M11.8359 10H20.5026" stroke="#171725" stroke-width="1.33333" stroke-linecap="round" stroke-linejoin="round"/>
<path d="M9.13844 9.18148V13.5342H8.27923V10.172L7.247 10.5001V9.8229L9.04595 9.18148H9.13844Z" fill="#171725"/>
<path d="M10.0155 18.2868V18.958H7.04413V18.3852L8.44928 16.8786C8.59049 16.7215 8.70187 16.5833 8.78342 16.4639C8.86496 16.3426 8.92363 16.2342 8.95943 16.1387C8.99722 16.0413 9.01612 15.9488 9.01612 15.8613C9.01612 15.73 8.99424 15.6177 8.95048 15.5242C8.90673 15.4287 8.84209 15.3551 8.75657 15.3034C8.67303 15.2517 8.56961 15.2258 8.4463 15.2258C8.31503 15.2258 8.20167 15.2577 8.1062 15.3213C8.01272 15.385 7.94112 15.4735 7.8914 15.5868C7.84366 15.7002 7.8198 15.8285 7.8198 15.9717H6.95761C6.95761 15.7131 7.01927 15.4764 7.14258 15.2616C7.26589 15.0449 7.43992 14.8728 7.66466 14.7455C7.88941 14.6162 8.15592 14.5516 8.4642 14.5516C8.7685 14.5516 9.02507 14.6013 9.2339 14.7008C9.44473 14.7982 9.60384 14.9394 9.71124 15.1244C9.82063 15.3074 9.87532 15.5262 9.87532 15.7807C9.87532 15.9239 9.85245 16.0642 9.8067 16.2014C9.76096 16.3366 9.69533 16.4719 9.6098 16.6071C9.52627 16.7404 9.42484 16.8756 9.3055 17.0129C9.18617 17.1501 9.05391 17.2923 8.90872 17.4395L8.15393 18.2868H10.0155Z" fill="#171725"/>
</svg>
