<svg width="32" height="32" viewBox="0 0 32 32" fill="none" xmlns="http://www.w3.org/2000/svg">
<path opacity="0.4" d="M29.3334 10.4132V18.6665H23.8934C23.0001 18.6665 21.9467 18.0265 21.5334 17.2398L20.1467 14.6132C19.7734 13.9065 19.2401 13.9465 18.9467 14.6798L15.8801 22.4265C15.5467 23.2932 14.9867 23.2932 14.6401 22.4265L13.1201 18.5865C12.7601 17.6532 11.6401 16.8932 10.6401 16.8932L2.66675 16.9332V10.4132C2.66675 5.55984 5.56008 2.6665 10.4134 2.6665H21.5868C26.4401 2.6665 29.3334 5.55984 29.3334 10.4132Z" fill="#581C87"/>
<path d="M29.3334 21.5867V18.6667H23.8934C23.0001 18.6667 21.9467 18.0267 21.5334 17.24L20.1467 14.6134C19.7734 13.9067 19.2401 13.9467 18.9467 14.68L15.8801 22.4267C15.5467 23.2934 14.9867 23.2934 14.6401 22.4267L13.1201 18.5867C12.7601 17.6534 11.6401 16.8934 10.6401 16.8934L2.66675 16.9334V21.5867C2.66675 26.36 5.46675 29.24 10.1734 29.32C10.3201 29.3334 10.4801 29.3334 10.6267 29.3334H21.2934C21.4934 29.3334 21.6934 29.3334 21.8801 29.32C26.5601 29.2134 29.3334 26.3467 29.3334 21.5867Z" fill="#581C87"/>
<path d="M2.66671 16.9336V21.3469C2.64004 20.9203 2.62671 20.4669 2.62671 20.0003V16.9336H2.66671Z" fill="#581C87"/>
</svg>
