<svg width="43" height="42" viewBox="0 0 43 42" fill="none" xmlns="http://www.w3.org/2000/svg">
<g filter="url(#filter0_d_726_56518)">
<path d="M4.5 13C4.5 7.47715 8.97715 3 14.5 3H26.5C32.0228 3 36.5 7.47715 36.5 13V25C36.5 30.5228 32.0228 35 26.5 35H14.5C8.97715 35 4.5 30.5228 4.5 25V13Z" fill="#BA7DE9" shape-rendering="crispEdges"/>
<path d="M15.5 10C13.8431 10 12.5 11.3431 12.5 13V26C12.5 27.6569 13.8431 29 15.5 29H25.5C27.1569 29 28.5 27.6569 28.5 26V13C28.5 11.3431 27.1569 10 25.5 10H15.5Z" fill="white"/>
<path fill-rule="evenodd" clip-rule="evenodd" d="M17.5 18C16.9477 18 16.5 18.4477 16.5 19C16.5 19.5523 16.9477 20 17.5 20H23.5C24.0523 20 24.5 19.5523 24.5 19C24.5 18.4477 24.0523 18 23.5 18H17.5ZM17.5 22C16.9477 22 16.5 22.4477 16.5 23C16.5 23.5523 16.9477 24 17.5 24H21.5C22.0523 24 22.5 23.5523 22.5 23C22.5 22.4477 22.0523 22 21.5 22H17.5Z" fill="#A461D8"/>
<path d="M17.5 10C17.5 9.44772 17.9477 9 18.5 9H22.5C23.0523 9 23.5 9.44772 23.5 10V11C23.5 11.5523 23.0523 12 22.5 12H18.5C17.9477 12 17.5 11.5523 17.5 11V10Z" fill="#A461D8"/>
</g>
<defs>
<filter id="filter0_d_726_56518" x="0.5" y="0" width="42" height="42" filterUnits="userSpaceOnUse" color-interpolation-filters="sRGB">
<feFlood flood-opacity="0" result="BackgroundImageFix"/>
<feColorMatrix in="SourceAlpha" type="matrix" values="0 0 0 0 0 0 0 0 0 0 0 0 0 0 0 0 0 0 127 0" result="hardAlpha"/>
<feOffset dx="1" dy="2"/>
<feGaussianBlur stdDeviation="2.5"/>
<feComposite in2="hardAlpha" operator="out"/>
<feColorMatrix type="matrix" values="0 0 0 0 0.289653 0 0 0 0 0.179688 0 0 0 0 0.375 0 0 0 0.1 0"/>
<feBlend mode="normal" in2="BackgroundImageFix" result="effect1_dropShadow_726_56518"/>
<feBlend mode="normal" in="SourceGraphic" in2="effect1_dropShadow_726_56518" result="shape"/>
</filter>
</defs>
</svg>
