<svg width="21" height="21" viewBox="0 0 21 21" fill="none" xmlns="http://www.w3.org/2000/svg">
<path fill-rule="evenodd" clip-rule="evenodd" d="M11.3333 9.6276H17.1667C17.6269 9.6276 18 10.0007 18 10.4609C18 10.9212 17.6269 11.2943 17.1667 11.2943H11.3333V17.1276C11.3333 17.5878 10.9602 17.9609 10.5 17.9609C10.0398 17.9609 9.66667 17.5878 9.66667 17.1276V11.2943H3.83333C3.3731 11.2943 3 10.9212 3 10.4609C3 10.0007 3.3731 9.6276 3.83333 9.6276H9.66667V3.79427C9.66667 3.33403 10.0398 2.96094 10.5 2.96094C10.9602 2.96094 11.3333 3.33403 11.3333 3.79427V9.6276Z" fill="white"/>
</svg>
