<svg width="25" height="25" viewBox="0 0 25 25" fill="none" xmlns="http://www.w3.org/2000/svg">
<path d="M7.5 3.5C5.84315 3.5 4.5 4.84315 4.5 6.5V19.5C4.5 21.1569 5.84315 22.5 7.5 22.5H17.5C19.1569 22.5 20.5 21.1569 20.5 19.5V6.5C20.5 4.84315 19.1569 3.5 17.5 3.5H7.5Z" fill="#BAA2CE"/>
<path fill-rule="evenodd" clip-rule="evenodd" d="M9.5 11.5C8.94772 11.5 8.5 11.9477 8.5 12.5C8.5 13.0523 8.94772 13.5 9.5 13.5H15.5C16.0523 13.5 16.5 13.0523 16.5 12.5C16.5 11.9477 16.0523 11.5 15.5 11.5H9.5ZM9.5 15.5C8.94772 15.5 8.5 15.9477 8.5 16.5C8.5 17.0523 8.94772 17.5 9.5 17.5H13.5C14.0523 17.5 14.5 17.0523 14.5 16.5C14.5 15.9477 14.0523 15.5 13.5 15.5H9.5Z" fill="#581C87"/>
<path d="M9.5 3.5C9.5 2.94772 9.94772 2.5 10.5 2.5H14.5C15.0523 2.5 15.5 2.94772 15.5 3.5V4.5C15.5 5.05228 15.0523 5.5 14.5 5.5H10.5C9.94772 5.5 9.5 5.05228 9.5 4.5V3.5Z" fill="#581C87"/>
</svg>
