<svg width="25" height="24" viewBox="0 0 25 24" fill="none" xmlns="http://www.w3.org/2000/svg">
<path fill-rule="evenodd" clip-rule="evenodd" d="M12.5435 15.6316C14.5651 15.6316 16.2039 14.0057 16.2039 12C16.2039 9.99433 14.5651 8.36842 12.5435 8.36842C10.5218 8.36842 8.88299 9.99433 8.88299 12C8.88299 14.0057 10.5218 15.6316 12.5435 15.6316ZM12.5435 13.6316C11.6352 13.6316 10.8989 12.9011 10.8989 12C10.8989 11.0989 11.6352 10.3684 12.5435 10.3684C13.4517 10.3684 14.188 11.0989 14.188 12C14.188 12.9011 13.4517 13.6316 12.5435 13.6316Z" fill="#454551"/>
<path fill-rule="evenodd" clip-rule="evenodd" d="M9.63775 3.33907C9.92703 1.97584 11.1393 1 12.5435 1C13.9476 1 15.1599 1.97584 15.4492 3.33907L15.5055 3.60457C16.5622 3.97101 17.5424 4.53018 18.3932 5.2566L18.6509 5.17298C19.9855 4.73991 21.4434 5.29353 22.1455 6.5C22.8476 7.70647 22.6019 9.23593 21.5566 10.1661L21.3547 10.3457C21.5634 11.4399 21.5614 12.5617 21.353 13.6528L21.5566 13.8339C22.6019 14.7641 22.8476 16.2935 22.1455 17.5C21.4434 18.7065 19.9855 19.2601 18.6509 18.827L18.3924 18.7431C17.9711 19.1021 17.5145 19.4234 17.0262 19.7031C16.5379 19.9827 16.0291 20.2144 15.5052 20.3969L15.4492 20.6609C15.1599 22.0242 13.9476 23 12.5435 23C11.1393 23 9.92703 22.0242 9.63775 20.6609L9.58141 20.3954C8.52474 20.029 7.54453 19.4698 6.69376 18.7434L6.43606 18.827C5.10144 19.2601 3.64349 18.7065 2.9414 17.5C2.2393 16.2935 2.48501 14.7641 3.53035 13.8339L3.73219 13.6543C3.52348 12.5601 3.52548 11.4383 3.73394 10.3472L3.53035 10.1661C2.48501 9.23593 2.2393 7.70647 2.9414 6.5C3.64349 5.29353 5.10144 4.73991 6.43606 5.17298L6.69456 5.25686C7.11582 4.89792 7.57245 4.5766 8.06071 4.29693C8.54897 4.01726 9.05777 3.78559 9.58172 3.60311L9.63775 3.33907ZM12.5435 3C12.0926 3 11.7033 3.31335 11.6104 3.75109L11.4328 4.58834C11.3549 4.95506 11.077 5.24784 10.7126 5.34682C10.1426 5.50169 9.59123 5.72966 9.06867 6.02898C8.5461 6.3283 8.07143 6.68802 7.65121 7.10038C7.38265 7.36392 6.98809 7.45636 6.62906 7.33986L5.80938 7.07388C5.38083 6.93482 4.91267 7.1126 4.68723 7.5C4.46178 7.8874 4.54068 8.37852 4.87634 8.6772L5.51999 9.24993C5.80135 9.50029 5.9179 9.88578 5.82187 10.2484C5.51802 11.396 5.5148 12.6029 5.82002 13.7524C5.91637 14.1152 5.79987 14.501 5.51832 14.7516L4.87634 15.3228C4.54068 15.6215 4.46178 16.1126 4.68723 16.5C4.91267 16.8874 5.38083 17.0652 5.80938 16.9261L6.62901 16.6602C6.98848 16.5435 7.38351 16.6363 7.65207 16.9005C8.50284 17.7375 9.55799 18.3382 10.7116 18.6509C11.0762 18.7497 11.3544 19.0426 11.4323 19.4095L11.6104 20.2489C11.7033 20.6867 12.0926 21 12.5435 21C12.9944 21 13.3836 20.6867 13.4765 20.2489L13.6542 19.4117C13.732 19.0449 14.01 18.7522 14.3743 18.6532C14.9444 18.4983 15.4957 18.2703 16.0182 17.971C16.5408 17.6717 17.0155 17.312 17.4357 16.8996C17.7043 16.6361 18.0988 16.5436 18.4579 16.6601L19.2775 16.9261C19.7061 17.0652 20.1742 16.8874 20.3997 16.5C20.6251 16.1126 20.5462 15.6215 20.2106 15.3228L19.5669 14.7501C19.2856 14.4997 19.169 14.1142 19.265 13.7516C19.5689 12.604 19.5721 11.3971 19.2669 10.2476C19.1705 9.88479 19.287 9.49897 19.5686 9.24844L20.2106 8.6772C20.5462 8.37852 20.6251 7.8874 20.3997 7.5C20.1742 7.1126 19.7061 6.93482 19.2775 7.07388L18.4579 7.33984C18.0984 7.45649 17.7034 7.36367 17.4348 7.09947C16.5841 6.2625 15.5289 5.6618 14.3753 5.3491C14.0107 5.25027 13.7325 4.95739 13.6546 4.59046L13.4765 3.75109C13.3836 3.31335 12.9944 3 12.5435 3Z" fill="#454551"/>
</svg>
