<svg width="34" height="37" viewBox="0 0 34 37" fill="none" xmlns="http://www.w3.org/2000/svg">
<path d="M33.3503 18.0989C33.3515 18.5602 33.2257 19.0134 32.9858 19.4117C32.7459 19.81 32.4007 20.1389 31.9859 20.3643L3.97827 35.9007C3.57635 36.1217 3.1226 36.2388 2.66061 36.2405C2.23494 36.2383 1.816 36.1373 1.43875 35.946C1.0615 35.7547 0.736892 35.4786 0.492027 35.1408C0.247163 34.803 0.089145 34.4132 0.0311653 34.0041C-0.0268145 33.595 0.0169261 33.1783 0.158735 32.7889L4.66211 19.8514C4.70612 19.7249 4.78937 19.6147 4.90045 19.5359C5.01152 19.4571 5.145 19.4135 5.28258 19.4112H17.3383C17.5212 19.4116 17.7023 19.3755 17.8702 19.3052C18.0381 19.2348 18.1894 19.1317 18.3145 19.0022C18.4396 18.8728 18.536 18.7198 18.5976 18.5527C18.6592 18.3856 18.6847 18.208 18.6726 18.0309C18.6424 17.698 18.4836 17.3885 18.2281 17.1643C17.9727 16.9402 17.6393 16.8179 17.2949 16.8221H5.28591C5.14633 16.8221 5.01026 16.7796 4.89686 16.7007C4.78346 16.6217 4.69844 16.5102 4.65377 16.3819L0.150395 3.44603C-0.0288484 2.9502 -0.0483554 2.4132 0.0944644 1.90635C0.237284 1.39951 0.53567 0.946825 0.949985 0.60843C1.3643 0.270034 1.87493 0.0619474 2.41404 0.011814C2.95316 -0.0383194 3.49523 0.0718731 3.96826 0.327753L31.9893 15.8447C32.4017 16.0696 32.7451 16.3969 32.9843 16.793C33.2235 17.1891 33.3498 17.6398 33.3503 18.0989Z" fill="white"/>
</svg>
