<svg width="43" height="42" viewBox="0 0 43 42" fill="none" xmlns="http://www.w3.org/2000/svg">
<g filter="url(#filter0_d_726_56526)">
<path d="M4.5 13C4.5 7.47715 8.97715 3 14.5 3H26.5C32.0228 3 36.5 7.47715 36.5 13V25C36.5 30.5228 32.0228 35 26.5 35H14.5C8.97715 35 4.5 30.5228 4.5 25V13Z" fill="#BA7DE9" shape-rendering="crispEdges"/>
<path d="M8.5 17C8.5 11.4772 12.9772 7 18.5 7H22.5C28.0228 7 32.5 11.4772 32.5 17V21C32.5 26.5228 28.0228 31 22.5 31H18.5C12.9772 31 8.5 26.5228 8.5 21V17Z" fill="#BA7DE9"/>
<rect x="16.5" y="17" width="9" height="8" fill="#A461D8"/>
<path d="M28 14.0499H21L18.37 10.8699C18.2769 10.7552 18.1596 10.6626 18.0265 10.5986C17.8934 10.5346 17.7477 10.5009 17.6 10.4999H13C12.3466 10.4919 11.7167 10.7431 11.2481 11.1986C10.7795 11.654 10.5105 12.2766 10.5 12.9299V25.0699C10.5105 25.7233 10.7795 26.3459 11.2481 26.8013C11.7167 27.2568 12.3466 27.508 13 27.4999H28C28.6534 27.508 29.2833 27.2568 29.7519 26.8013C30.2205 26.3459 30.4895 25.7233 30.5 25.0699V16.4799C30.4895 15.8266 30.2205 15.204 29.7519 14.7486C29.2833 14.2931 28.6534 14.0419 28 14.0499ZM22.5 21.9999H21.5V22.9999C21.5 23.2652 21.3946 23.5195 21.2071 23.707C21.0196 23.8946 20.7652 23.9999 20.5 23.9999C20.2348 23.9999 19.9804 23.8946 19.7929 23.707C19.6054 23.5195 19.5 23.2652 19.5 22.9999V21.9999H18.5C18.2348 21.9999 17.9804 21.8946 17.7929 21.707C17.6054 21.5195 17.5 21.2652 17.5 20.9999C17.5 20.7347 17.6054 20.4804 17.7929 20.2928C17.9804 20.1053 18.2348 19.9999 18.5 19.9999H19.5V18.9999C19.5 18.7347 19.6054 18.4804 19.7929 18.2928C19.9804 18.1053 20.2348 17.9999 20.5 17.9999C20.7652 17.9999 21.0196 18.1053 21.2071 18.2928C21.3946 18.4804 21.5 18.7347 21.5 18.9999V19.9999H22.5C22.7652 19.9999 23.0196 20.1053 23.2071 20.2928C23.3946 20.4804 23.5 20.7347 23.5 20.9999C23.5 21.2652 23.3946 21.5195 23.2071 21.707C23.0196 21.8946 22.7652 21.9999 22.5 21.9999Z" fill="white"/>
<path d="M10.5 13C10.5 11.6193 11.6193 10.5 13 10.5H17.6344C17.9358 10.5 18.2212 10.636 18.4111 10.8701L20.9498 14H10.5V13Z" fill="#A461D8"/>
</g>
<defs>
<filter id="filter0_d_726_56526" x="0.5" y="0" width="42" height="42" filterUnits="userSpaceOnUse" color-interpolation-filters="sRGB">
<feFlood flood-opacity="0" result="BackgroundImageFix"/>
<feColorMatrix in="SourceAlpha" type="matrix" values="0 0 0 0 0 0 0 0 0 0 0 0 0 0 0 0 0 0 127 0" result="hardAlpha"/>
<feOffset dx="1" dy="2"/>
<feGaussianBlur stdDeviation="2.5"/>
<feComposite in2="hardAlpha" operator="out"/>
<feColorMatrix type="matrix" values="0 0 0 0 0.289653 0 0 0 0 0.179688 0 0 0 0 0.375 0 0 0 0.1 0"/>
<feBlend mode="normal" in2="BackgroundImageFix" result="effect1_dropShadow_726_56526"/>
<feBlend mode="normal" in="SourceGraphic" in2="effect1_dropShadow_726_56526" result="shape"/>
</filter>
</defs>
</svg>
