<svg width="20" height="20" viewBox="0 0 20 20" fill="none" xmlns="http://www.w3.org/2000/svg">
<path d="M7.63338 9.05841C7.55005 9.05008 7.45005 9.05008 7.35838 9.05841C5.37505 8.99175 3.80005 7.36675 3.80005 5.36675C3.80005 3.32508 5.45005 1.66675 7.50005 1.66675C9.54172 1.66675 11.2 3.32508 11.2 5.36675C11.1917 7.36675 9.61671 8.99175 7.63338 9.05841Z" stroke="#454551" stroke-width="1.5" stroke-linecap="round" stroke-linejoin="round"/>
<path d="M13.675 3.33325C15.2916 3.33325 16.5917 4.64159 16.5917 6.24992C16.5917 7.82492 15.3417 9.10825 13.7833 9.16659C13.7167 9.15825 13.6417 9.15825 13.5667 9.16659" stroke="#454551" stroke-width="1.5" stroke-linecap="round" stroke-linejoin="round"/>
<path d="M3.46672 12.1333C1.45006 13.4833 1.45006 15.6833 3.46672 17.0249C5.75839 18.5583 9.51672 18.5583 11.8084 17.0249C13.8251 15.6749 13.8251 13.4749 11.8084 12.1333C9.52506 10.6083 5.76672 10.6083 3.46672 12.1333Z" stroke="#454551" stroke-width="1.5" stroke-linecap="round" stroke-linejoin="round"/>
<path d="M15.2833 16.6667C15.8833 16.5417 16.45 16.3001 16.9167 15.9417C18.2167 14.9667 18.2167 13.3584 16.9167 12.3834C16.4583 12.0334 15.9 11.8001 15.3083 11.6667" stroke="#454551" stroke-width="1.5" stroke-linecap="round" stroke-linejoin="round"/>
</svg>
