<svg width="25" height="25" viewBox="0 0 25 25" fill="none" xmlns="http://www.w3.org/2000/svg">
<path fill-rule="evenodd" clip-rule="evenodd" d="M22.5 9.16412C22.5 9.1641 22.5 9.16408 22.5 9.16406C22.5 5.85035 19.8137 3.16406 16.5 3.16406C14.9633 3.16406 13.5615 3.74177 12.5 4.69185C11.4385 3.74177 10.0367 3.16406 8.5 3.16406C5.18629 3.16406 2.5 5.85035 2.5 9.16406C2.5 9.16409 2.5 9.16412 2.5 9.16415C2.5 16.5152 9.17146 19.9702 11.616 20.9894C12.1855 21.2269 12.8145 21.2269 13.384 20.9894C15.8285 19.9702 22.5 16.5152 22.5 9.16412Z" fill="#BAA2CE"/>
<path d="M22.3261 11.1641H17.6584L16.4181 8.27014C16.2605 7.90246 15.899 7.66406 15.499 7.66406C15.099 7.66406 14.7374 7.90246 14.5798 8.27014L12.499 13.1255L11.9181 11.7701C11.7605 11.4025 11.399 11.1641 10.999 11.1641H2.67188C2.79767 11.8732 2.98808 12.5393 3.2297 13.1641H10.3396L11.5798 16.058C11.7374 16.4257 12.099 16.6641 12.499 16.6641C12.899 16.6641 13.2605 16.4257 13.4181 16.058L15.499 11.2027L16.0798 12.558C16.2374 12.9257 16.599 13.1641 16.999 13.1641H21.7683C22.0099 12.5393 22.2003 11.8732 22.3261 11.1641Z" fill="#581C87"/>
</svg>
