<svg width="24" height="24" viewBox="0 0 24 24" fill="none" xmlns="http://www.w3.org/2000/svg">
<g clip-path="url(#clip0_3674_12374)">
<g filter="url(#filter0_f_3674_12374)">
<path d="M7.46943 18.9258L7.77557 19.1068C9.06134 19.8684 10.5356 20.2713 12.039 20.2719H12.0422C16.6591 20.2719 20.4166 16.5225 20.4185 11.9141C20.4193 9.6809 19.5489 7.58087 17.9674 6.00117C17.1917 5.22211 16.2689 4.60434 15.2524 4.18363C14.2359 3.76292 13.1459 3.54762 12.0455 3.5502C7.42492 3.5502 3.66731 7.29925 3.66567 11.9074C3.66339 13.4809 4.10736 15.023 4.94624 16.3553L5.14553 16.6714L4.29917 19.7553L7.46943 18.9258ZM1.87939 22.1445L3.30926 16.9339C2.42743 15.409 1.9635 13.679 1.96404 11.9067C1.96637 6.36223 6.48706 1.85156 12.0423 1.85156C14.7381 1.85293 17.2684 2.9 19.1714 4.80071C21.0744 6.70141 22.1214 9.22784 22.1204 11.9148C22.118 17.4588 17.5966 21.9703 12.0422 21.9703H12.0378C10.3512 21.9696 8.69398 21.5473 7.22192 20.7462L1.87939 22.1445Z" fill="#B3B3B3" fill-opacity="0.5"/>
</g>
<path d="M1.77588 22.0429L3.20575 16.8323C2.32239 15.3037 1.85839 13.5697 1.86053 11.8051C1.86286 6.26066 6.38354 1.75 11.9388 1.75C14.6346 1.75137 17.1649 2.79844 19.0679 4.69914C20.9708 6.59984 22.0179 9.12628 22.0169 11.8132C22.0144 17.3573 17.4931 21.8688 11.9387 21.8688H11.9343C10.2477 21.8681 8.59046 21.4458 7.11841 20.6446L1.77588 22.0429Z" fill="#A1A1E9"/>
<path d="M11.9418 3.44534C7.32127 3.44534 3.56366 7.19438 3.56202 11.8025C3.55974 13.3761 4.00371 14.9181 4.84259 16.2504L5.04189 16.5666L4.19552 19.6506L7.36592 18.8209L7.67206 19.0019C8.95783 19.7635 10.4321 20.1663 11.9355 20.1671H11.9387C16.5556 20.1671 20.3132 16.4176 20.315 11.8092C20.3185 10.7108 20.1037 9.62264 19.6829 8.60768C19.2622 7.59272 18.6439 6.67114 17.8639 5.8963C17.0882 5.11722 16.1653 4.49944 15.1488 4.07873C14.1323 3.65802 13.0423 3.44274 11.9418 3.44534Z" fill="url(#paint0_linear_3674_12374)"/>
<path fill-rule="evenodd" clip-rule="evenodd" d="M9.4201 7.60414C9.23135 7.18566 9.03274 7.17719 8.85344 7.16994L8.37074 7.16406C8.20281 7.16406 7.92996 7.22695 7.6993 7.4785C7.46863 7.73005 6.81787 8.33801 6.81787 9.57456C6.81787 10.8111 7.72025 12.006 7.846 12.1739C7.97174 12.3417 9.58803 14.9602 12.1477 15.9676C14.2747 16.8048 14.7076 16.6383 15.1694 16.5965C15.6313 16.5546 16.6593 15.9885 16.869 15.4016C17.0787 14.8147 17.0789 14.3119 17.016 14.2068C16.9531 14.1016 16.7852 14.0392 16.5331 13.9134C16.2811 13.7876 15.0433 13.1796 14.8125 13.0957C14.5817 13.0118 14.4139 12.9701 14.2458 13.2216C14.0778 13.4732 13.5957 14.039 13.4488 14.2068C13.3018 14.3745 13.1551 14.3956 12.9031 14.2699C12.651 14.1443 11.8402 13.8788 10.878 13.0226C10.1295 12.3564 9.62419 11.5336 9.47708 11.2822C9.32997 11.0308 9.46147 10.8946 9.58776 10.7694C9.70076 10.6568 9.83951 10.4759 9.96567 10.3292C10.0918 10.1825 10.1333 10.0777 10.2172 9.91019C10.301 9.74272 10.2592 9.59562 10.1962 9.46998C10.1332 9.34434 9.64391 8.10122 9.4201 7.60414Z" fill="white"/>
</g>
<defs>
<filter id="filter0_f_3674_12374" x="-0.180605" y="-0.208437" width="24.3612" height="24.4091" filterUnits="userSpaceOnUse" color-interpolation-filters="sRGB">
<feFlood flood-opacity="0" result="BackgroundImageFix"/>
<feBlend mode="normal" in="SourceGraphic" in2="BackgroundImageFix" result="shape"/>
<feGaussianBlur stdDeviation="1.03" result="effect1_foregroundBlur_3674_12374"/>
</filter>
<linearGradient id="paint0_linear_3674_12374" x1="11.768" y1="4.4488" x2="11.8526" y2="18.7386" gradientUnits="userSpaceOnUse">
<stop stop-color="#4B4AD5"/>
<stop offset="1" stop-color="#4B4AD5"/>
</linearGradient>
<clipPath id="clip0_3674_12374">
<rect width="24" height="24" fill="white"/>
</clipPath>
</defs>
</svg>
