<svg width="25" height="24" viewBox="0 0 25 24" fill="none" xmlns="http://www.w3.org/2000/svg">
<path opacity="0.35" d="M21.1614 10.19H18.2714C15.9014 10.19 13.9714 8.26 13.9714 5.89V3C13.9714 2.45 13.5214 2 12.9714 2H8.73138C5.65138 2 3.16138 4 3.16138 7.57V16.43C3.16138 20 5.65138 22 8.73138 22H16.5914C19.6714 22 22.1614 20 22.1614 16.43V11.19C22.1614 10.64 21.7114 10.19 21.1614 10.19Z" fill="#A461D8"/>
<path d="M16.4611 2.21048C16.0511 1.80048 15.3411 2.08048 15.3411 2.65048V6.14048C15.3411 7.60048 16.5811 8.81048 18.0911 8.81048C19.0411 8.82048 20.3611 8.82048 21.4911 8.82048C22.0611 8.82048 22.3611 8.15048 21.9611 7.75048C20.5211 6.30048 17.9411 3.69048 16.4611 2.21048Z" fill="#A461D8"/>
<path d="M14.1614 13.75H8.16138C7.75138 13.75 7.41138 13.41 7.41138 13C7.41138 12.59 7.75138 12.25 8.16138 12.25H14.1614C14.5714 12.25 14.9114 12.59 14.9114 13C14.9114 13.41 14.5714 13.75 14.1614 13.75Z" fill="#A461D8"/>
<path d="M12.1614 17.75H8.16138C7.75138 17.75 7.41138 17.41 7.41138 17C7.41138 16.59 7.75138 16.25 8.16138 16.25H12.1614C12.5714 16.25 12.9114 16.59 12.9114 17C12.9114 17.41 12.5714 17.75 12.1614 17.75Z" fill="#A461D8"/>
</svg>
