<svg width="24" height="25" viewBox="0 0 24 25" fill="none" xmlns="http://www.w3.org/2000/svg">
<path opacity="0.35" d="M20.5054 10.9966H17.6154C15.2454 10.9966 13.3154 9.06664 13.3154 6.69664V3.80664C13.3154 3.25664 12.8654 2.80664 12.3154 2.80664H8.07537C4.99537 2.80664 2.50537 4.80664 2.50537 8.37664V17.2366C2.50537 20.8066 4.99537 22.8066 8.07537 22.8066H15.9354C19.0154 22.8066 21.5054 20.8066 21.5054 17.2366V11.9966C21.5054 11.4466 21.0554 10.9966 20.5054 10.9966Z" fill="#581C87"/>
<path d="M15.8051 3.01712C15.3951 2.60712 14.6851 2.88712 14.6851 3.45712V6.94712C14.6851 8.40712 15.9251 9.61712 17.4351 9.61712C18.3851 9.62712 19.7051 9.62712 20.8351 9.62712C21.4051 9.62712 21.7051 8.95712 21.3051 8.55712C19.8651 7.10712 17.2851 4.49712 15.8051 3.01712Z" fill="#581C87"/>
<path d="M13.5054 14.5566H7.50537C7.09537 14.5566 6.75537 14.2166 6.75537 13.8066C6.75537 13.3966 7.09537 13.0566 7.50537 13.0566H13.5054C13.9154 13.0566 14.2554 13.3966 14.2554 13.8066C14.2554 14.2166 13.9154 14.5566 13.5054 14.5566Z" fill="#581C87"/>
<path d="M11.5054 18.5566H7.50537C7.09537 18.5566 6.75537 18.2166 6.75537 17.8066C6.75537 17.3966 7.09537 17.0566 7.50537 17.0566H11.5054C11.9154 17.0566 12.2554 17.3966 12.2554 17.8066C12.2554 18.2166 11.9154 18.5566 11.5054 18.5566Z" fill="#581C87"/>
</svg>
