<svg width="25" height="25" viewBox="0 0 25 25" fill="none" xmlns="http://www.w3.org/2000/svg">
<path opacity="0.35" d="M16.8514 2.62891H8.47138C4.83138 2.62891 2.66138 4.79891 2.66138 8.43891V16.8189C2.66138 20.4589 4.83138 22.6289 8.47138 22.6289H16.8514C20.4914 22.6289 22.6614 20.4589 22.6614 16.8189V8.43891C22.6614 4.79891 20.4914 2.62891 16.8514 2.62891Z" fill="white"/>
<path d="M18.9709 9.5C18.9709 9.91 18.6409 10.25 18.2209 10.25H12.9709C12.5609 10.25 12.2209 9.91 12.2209 9.5C12.2209 9.09 12.5609 8.75 12.9709 8.75H18.2209C18.6409 8.75 18.9709 9.09 18.9709 9.5Z" fill="white"/>
<path d="M10.6309 8.52945L8.38095 10.7795C8.23095 10.9295 8.04095 10.9995 7.85095 10.9995C7.66095 10.9995 7.46095 10.9295 7.32095 10.7795L6.57095 10.0295C6.27095 9.73945 6.27095 9.25945 6.57095 8.96945C6.86095 8.67945 7.33095 8.67945 7.63095 8.96945L7.85095 9.18945L9.57095 7.46945C9.86095 7.17945 10.3309 7.17945 10.6309 7.46945C10.9209 7.75945 10.9209 8.23945 10.6309 8.52945Z" fill="white"/>
<path d="M18.9709 16.5C18.9709 16.91 18.6409 17.25 18.2209 17.25H12.9709C12.5609 17.25 12.2209 16.91 12.2209 16.5C12.2209 16.09 12.5609 15.75 12.9709 15.75H18.2209C18.6409 15.75 18.9709 16.09 18.9709 16.5Z" fill="white"/>
<path d="M10.6309 15.5295L8.38095 17.7795C8.23095 17.9295 8.04095 17.9995 7.85095 17.9995C7.66095 17.9995 7.46095 17.9295 7.32095 17.7795L6.57095 17.0295C6.27095 16.7395 6.27095 16.2595 6.57095 15.9695C6.86095 15.6795 7.33095 15.6795 7.63095 15.9695L7.85095 16.1895L9.57095 14.4695C9.86095 14.1795 10.3309 14.1795 10.6309 14.4695C10.9209 14.7595 10.9209 15.2395 10.6309 15.5295Z" fill="white"/>
</svg>
