<svg width="25" height="25" viewBox="0 0 25 25" fill="none" xmlns="http://www.w3.org/2000/svg">
<path opacity="0.35" fill-rule="evenodd" clip-rule="evenodd" d="M13.8228 2.62891H11.8228V6.71187C10.911 6.86483 10.069 7.22342 9.34598 7.73833L6.45877 4.85111L5.04456 6.26533L7.93184 9.15261C7.41711 9.87549 7.05864 10.7173 6.90571 11.6289H2.82275V13.6289H6.90571C7.05864 14.5405 7.41712 15.3823 7.93186 16.1052L5.04446 18.9926L6.45868 20.4068L9.34602 17.5195C10.069 18.0344 10.9111 18.393 11.8228 18.5459V22.6289H13.8228V18.5459C14.7344 18.393 15.5763 18.0345 16.2992 17.5197L19.1869 20.4074L20.6011 18.9932L17.7135 16.1055C18.2283 15.3826 18.5869 14.5406 18.7398 13.6289H22.8228V11.6289H18.7398C18.5869 10.7172 18.2283 9.87516 17.7134 9.15218L20.6008 6.2648L19.1866 4.85059L16.2991 7.73802C15.5762 7.22328 14.7344 6.8648 13.8228 6.71187V2.62891Z" fill="#A461D8"/>
<path fill-rule="evenodd" clip-rule="evenodd" d="M20.6008 7.67879C20.9913 7.28826 20.9913 6.6551 20.6008 6.26458L19.1866 4.85036C18.7961 4.45984 18.1629 4.45984 17.7724 4.85036C17.3819 5.24089 17.3818 5.87405 17.7724 6.26458L19.1866 7.67879C19.5771 8.06931 20.2103 8.06931 20.6008 7.67879ZM14.8228 3.62891C14.8228 3.07662 14.3751 2.62891 13.8228 2.62891H11.8228C11.2705 2.62891 10.8228 3.07662 10.8228 3.62891C10.8228 4.18119 11.2705 4.62891 11.8228 4.62891H13.8228C14.3751 4.62891 14.8228 4.18119 14.8228 3.62891ZM21.8228 14.6289C22.3751 14.6289 22.8228 14.1812 22.8228 13.6289V11.6289C22.8228 11.0766 22.3751 10.6289 21.8228 10.6289C21.2705 10.6289 20.8228 11.0766 20.8228 11.6289V13.6289C20.8228 14.1812 21.2705 14.6289 21.8228 14.6289ZM3.82275 14.6289C4.37504 14.6289 4.82275 14.1812 4.82275 13.6289V11.6289C4.82275 11.0766 4.37504 10.6289 3.82275 10.6289C3.27047 10.6289 2.82275 11.0766 2.82275 11.6289V13.6289C2.82275 14.1812 3.27047 14.6289 3.82275 14.6289ZM13.8228 20.6289C14.3751 20.6289 14.8228 21.0766 14.8228 21.6289C14.8228 22.1812 14.3751 22.6289 13.8228 22.6289H11.8228C11.2705 22.6289 10.8228 22.1812 10.8228 21.6289C10.8228 21.0766 11.2705 20.6289 11.8228 20.6289H13.8228ZM6.45881 7.67961C6.06829 8.07014 5.43512 8.07014 5.0446 7.67961C4.65408 7.28909 4.65408 6.65592 5.0446 6.2654L6.45881 4.85119C6.84934 4.46066 7.4825 4.46066 7.87303 4.85119C8.26355 5.24171 8.26355 5.87488 7.87303 6.2654L6.45881 7.67961ZM17.7727 20.4071C18.1632 20.7977 18.7964 20.7977 19.1869 20.4071L20.6011 18.9929C20.9916 18.6024 20.9916 17.9692 20.6011 17.5787C20.2106 17.1882 19.5774 17.1882 19.1869 17.5787L17.7727 18.9929C17.3822 19.3834 17.3822 20.0166 17.7727 20.4071ZM7.87297 18.9931C8.26349 19.3836 8.26349 20.0168 7.87297 20.4073C7.48244 20.7978 6.84928 20.7978 6.45875 20.4073L5.04454 18.9931C4.65402 18.6025 4.65402 17.9694 5.04454 17.5789C5.43506 17.1883 6.06823 17.1883 6.45875 17.5789L7.87297 18.9931Z" fill="#A461D8"/>
</svg>
