<svg width="25" height="25" viewBox="0 0 25 25" fill="none" xmlns="http://www.w3.org/2000/svg">
<path opacity="0.35" d="M6.66138 15.6289C6.66138 15.779 6.50556 15.8807 6.37313 15.8101C4.16461 14.6327 2.66138 12.3064 2.66138 9.62891C2.66138 5.76291 5.79538 2.62891 9.66138 2.62891C12.3388 2.62891 14.6652 4.13214 15.8425 6.34066C15.9131 6.47309 15.8114 6.62891 15.6614 6.62891C10.6908 6.62891 6.66138 10.6583 6.66138 15.6289Z" fill="#A461D8"/>
<path d="M21.2678 11.4365C22.1431 12.6051 22.6614 14.0565 22.6614 15.6289C22.6614 19.4949 19.5274 22.6289 15.6614 22.6289C14.089 22.6289 12.6376 22.1106 11.469 21.2354L21.2678 11.4365ZM15.6614 8.62891C17.2338 8.62891 18.6852 9.1472 19.8538 10.0225L10.0549 19.8203C9.17996 18.6518 8.66138 17.201 8.66138 15.6289C8.66138 11.7629 11.7954 8.62891 15.6614 8.62891Z" fill="#A461D8"/>
</svg>
