<svg width="24" height="25" viewBox="0 0 24 25" fill="none" xmlns="http://www.w3.org/2000/svg">
<path opacity="0.35" fill-rule="evenodd" clip-rule="evenodd" d="M11 3.21484C11 2.9387 10.7761 2.71484 10.5 2.71484H7C5.34315 2.71484 4 4.05799 4 5.71484V19.7148C4 21.3717 5.34315 22.7148 7 22.7148H17C18.6569 22.7148 20 21.3717 20 19.7148V13.2148C20 12.9387 19.7761 12.7148 19.5 12.7148H16C13.2386 12.7148 11 10.4762 11 7.71482V3.21484Z" fill="#A461D8"/>
<path d="M19.4948 10.1466L13.5967 3.38625C13.5182 3.29797 13.4327 3.2175 13.3414 3.14538C13.1954 3.03006 13 3.14734 13 3.33341V7.71497C13 9.37183 14.3431 10.715 16 10.715H19.4767C19.6546 10.715 19.7737 10.5342 19.6767 10.3851C19.6224 10.3016 19.5617 10.2219 19.4948 10.1466Z" fill="#A461D8"/>
<path d="M8.00146 16.0273H12.2897H15.9985M8.00146 19.0273H12.2897H14.1582" stroke="#A461D8" stroke-width="1.5" stroke-linecap="round" stroke-linejoin="round"/>
<path d="M7.49902 7.21484V5.71484M7.49902 7.21484V8.71484M7.49902 7.21484H8.99902M7.49902 7.21484H5.99902" stroke="#A461D8" stroke-width="1.5" stroke-linecap="round" stroke-linejoin="round"/>
</svg>
