<svg width="24" height="25" viewBox="0 0 24 25" fill="none" xmlns="http://www.w3.org/2000/svg">
<path d="M8.63 13.2578H7.37C7.11798 13.2578 6.99196 13.2578 6.8957 13.3069C6.81103 13.35 6.74219 13.4188 6.69905 13.5035C6.65 13.5998 6.65 13.7258 6.65 13.9778V15.6878C6.65 15.9398 6.65 16.0658 6.60095 16.1621C6.55781 16.2468 6.48897 16.3156 6.4043 16.3588C6.30804 16.4078 6.18202 16.4078 5.93 16.4078H4.22C3.96798 16.4078 3.84196 16.4078 3.7457 16.4569C3.66103 16.5 3.59219 16.5688 3.54905 16.6535C3.5 16.7498 3.5 16.8758 3.5 17.1278V18.3878C3.5 18.6398 3.5 18.7658 3.54905 18.8621C3.59219 18.9468 3.66103 19.0156 3.7457 19.0588C3.84196 19.1078 3.96798 19.1078 4.22 19.1078H5.93C6.18202 19.1078 6.30804 19.1078 6.4043 19.1569C6.48897 19.2 6.55781 19.2688 6.60095 19.3535C6.65 19.4498 6.65 19.5758 6.65 19.8278V21.5378C6.65 21.7898 6.65 21.9158 6.69905 22.0121C6.74219 22.0968 6.81103 22.1656 6.8957 22.2088C6.99196 22.2578 7.11798 22.2578 7.37 22.2578H8.63C8.88202 22.2578 9.00804 22.2578 9.1043 22.2088C9.18897 22.1656 9.25781 22.0968 9.30095 22.0121C9.35 21.9158 9.35 21.7898 9.35 21.5378V19.8278C9.35 19.5758 9.35 19.4498 9.39905 19.3535C9.44219 19.2688 9.51103 19.2 9.5957 19.1569C9.69196 19.1078 9.81798 19.1078 10.07 19.1078H11.78C12.032 19.1078 12.158 19.1078 12.2543 19.0588C12.339 19.0156 12.4078 18.9468 12.451 18.8621C12.5 18.7658 12.5 18.6398 12.5 18.3878V17.1278C12.5 16.8758 12.5 16.7498 12.451 16.6535C12.4078 16.5688 12.339 16.5 12.2543 16.4569C12.158 16.4078 12.032 16.4078 11.78 16.4078H10.07C9.81798 16.4078 9.69196 16.4078 9.5957 16.3588C9.51103 16.3156 9.44219 16.2468 9.39905 16.1621C9.35 16.0658 9.35 15.9398 9.35 15.6878V13.9778C9.35 13.7258 9.35 13.5998 9.30095 13.5035C9.25781 13.4188 9.18897 13.35 9.1043 13.3069C9.00804 13.2578 8.88202 13.2578 8.63 13.2578Z" fill="#A461D8"/>
<path opacity="0.35" d="M7.03414 4.14121C7.36196 3.95762 7.74228 3.86215 8.25063 3.8125C8.27927 5.03036 9.27535 6.0087 10.5 6.0087H15.5C16.7247 6.0087 17.7207 5.03036 17.7494 3.8125C18.2577 3.86215 18.638 3.95762 18.9659 4.14121C19.4486 4.41155 19.8472 4.81012 20.1175 5.29284C20.5 5.97586 20.5 6.88681 20.5 8.7087V17.3087C20.5 19.1306 20.5 20.0415 20.1175 20.7246C19.8472 21.2073 19.4486 21.6059 18.9659 21.8762C18.2828 22.2587 17.3719 22.2587 15.55 22.2587H10.4846C10.5189 22.1312 10.5327 22.018 10.5397 21.932C10.55 21.8063 10.5499 21.6662 10.5498 21.5618L10.5498 20.3087L11.8029 20.3087C11.9073 20.3088 12.0474 20.3089 12.1731 20.2986C12.3223 20.2864 12.5534 20.254 12.7989 20.1289C13.1094 19.9707 13.3618 19.7183 13.52 19.4078C13.6451 19.1623 13.6775 18.9312 13.6897 18.782C13.7 18.6563 13.6999 18.5162 13.6998 18.4118V17.1056C13.6999 17.0012 13.7 16.8612 13.6897 16.7354C13.6775 16.5862 13.6451 16.3551 13.52 16.1096C13.3618 15.7992 13.1094 15.5467 12.7989 15.3885C12.5534 15.2635 12.3223 15.231 12.1731 15.2188C12.0474 15.2086 11.9073 15.2086 11.8029 15.2087L10.5498 15.2087L10.5498 13.9556C10.5499 13.8512 10.55 13.7112 10.5397 13.5854C10.5275 13.4362 10.4951 13.2051 10.37 12.9596C10.2118 12.6492 9.95938 12.3967 9.64891 12.2385C9.40342 12.1135 9.17235 12.081 9.0231 12.0688C8.89738 12.0586 8.75731 12.0586 8.65289 12.0587H7.34676C7.24234 12.0586 7.10227 12.0586 6.97655 12.0688C6.8273 12.081 6.59623 12.1135 6.35074 12.2385C6.04027 12.3967 5.78785 12.6492 5.62966 12.9596C5.56505 13.0864 5.52515 13.2094 5.5 13.3192V8.7087C5.5 6.88681 5.5 5.97586 5.88251 5.29284C6.15285 4.81012 6.55141 4.41155 7.03414 4.14121Z" fill="#A461D8"/>
<path d="M10.5 2.25781H15.5C16.3284 2.25781 17 2.92939 17 3.75781L17 3.76915C16.9939 4.59236 16.3246 5.25781 15.5 5.25781H10.5C9.67535 5.25781 9.00614 4.59236 9.00004 3.76915L9 3.75781C9 2.92939 9.67157 2.25781 10.5 2.25781Z" fill="#A461D8"/>
</svg>
