<svg width="25" height="24" viewBox="0 0 25 24" fill="none" xmlns="http://www.w3.org/2000/svg">
<path opacity="0.35" d="M16.8514 2H8.47138C4.83138 2 2.66138 4.17 2.66138 7.81V16.19C2.66138 19.83 4.83138 22 8.47138 22H16.8514C20.4914 22 22.6614 19.83 22.6614 16.19V7.81C22.6614 4.17 20.4914 2 16.8514 2Z" fill="#A461D8"/>
<path d="M18.9709 8.87109C18.9709 9.28109 18.6409 9.62109 18.2209 9.62109H12.9709C12.5609 9.62109 12.2209 9.28109 12.2209 8.87109C12.2209 8.46109 12.5609 8.12109 12.9709 8.12109H18.2209C18.6409 8.12109 18.9709 8.46109 18.9709 8.87109Z" fill="#A461D8"/>
<path d="M10.6309 7.90055L8.38095 10.1505C8.23095 10.3005 8.04095 10.3705 7.85095 10.3705C7.66095 10.3705 7.46095 10.3005 7.32095 10.1505L6.57095 9.40055C6.27095 9.11055 6.27095 8.63055 6.57095 8.34055C6.86095 8.05055 7.33095 8.05055 7.63095 8.34055L7.85095 8.56055L9.57095 6.84055C9.86095 6.55055 10.3309 6.55055 10.6309 6.84055C10.9209 7.13055 10.9209 7.61055 10.6309 7.90055Z" fill="#A461D8"/>
<path d="M18.9709 15.8711C18.9709 16.2811 18.6409 16.6211 18.2209 16.6211H12.9709C12.5609 16.6211 12.2209 16.2811 12.2209 15.8711C12.2209 15.4611 12.5609 15.1211 12.9709 15.1211H18.2209C18.6409 15.1211 18.9709 15.4611 18.9709 15.8711Z" fill="#A461D8"/>
<path d="M10.6309 14.9005L8.38095 17.1505C8.23095 17.3005 8.04095 17.3705 7.85095 17.3705C7.66095 17.3705 7.46095 17.3005 7.32095 17.1505L6.57095 16.4005C6.27095 16.1105 6.27095 15.6305 6.57095 15.3405C6.86095 15.0505 7.33095 15.0505 7.63095 15.3405L7.85095 15.5605L9.57095 13.8405C9.86095 13.5505 10.3309 13.5505 10.6309 13.8405C10.9209 14.1305 10.9209 14.6105 10.6309 14.9005Z" fill="#A461D8"/>
</svg>
