<svg width="25" height="25" viewBox="0 0 25 25" fill="none" xmlns="http://www.w3.org/2000/svg">
<path opacity="0.35" fill-rule="evenodd" clip-rule="evenodd" d="M11.1614 2.62891C11.4375 2.62891 11.6614 2.85276 11.6614 3.12891V7.62889C11.6614 10.3903 13.9 12.6289 16.6614 12.6289H20.1614C20.4375 12.6289 20.6614 12.8527 20.6614 13.1289V19.6289C20.6614 21.2858 19.3182 22.6289 17.6614 22.6289H7.66138C6.00452 22.6289 4.66138 21.2858 4.66138 19.6289V5.62891C4.66138 3.97205 6.00452 2.62891 7.66138 2.62891H11.1614Z" fill="white"/>
<path d="M14.2581 3.30007L20.1562 10.0605C20.2231 10.1357 20.2838 10.2155 20.3381 10.2989C20.4351 10.4481 20.316 10.6288 20.1381 10.6288H16.6614C15.0045 10.6288 13.6614 9.28565 13.6614 7.6288V3.24723C13.6614 3.06116 13.8567 2.94388 14.0028 3.0592C14.0941 3.13132 14.1796 3.21179 14.2581 3.30007Z" fill="white"/>
<path d="M12.6614 16.2764C12.8095 16.5235 13.0159 16.7306 13.2629 16.8789C13.0162 17.027 12.8095 17.2337 12.6614 17.4805C12.5131 17.2334 12.3059 17.0271 12.0588 16.8789C12.3062 16.7306 12.5131 16.5237 12.6614 16.2764Z" stroke="white" stroke-width="3"/>
</svg>
