<svg width="24" height="25" viewBox="0 0 24 25" fill="none" xmlns="http://www.w3.org/2000/svg">
<path opacity="0.35" d="M16.1927 2.80664H7.81269C4.17269 2.80664 2.00269 4.97664 2.00269 8.61664V16.9966C2.00269 20.6366 4.17269 22.8066 7.81269 22.8066H16.1927C19.8327 22.8066 22.0027 20.6366 22.0027 16.9966V8.61664C22.0027 4.97664 19.8327 2.80664 16.1927 2.80664Z" fill="#581C87"/>
<path d="M18.3123 9.67578C18.3123 10.0858 17.9823 10.4258 17.5623 10.4258H12.3123C11.9023 10.4258 11.5623 10.0858 11.5623 9.67578C11.5623 9.26578 11.9023 8.92578 12.3123 8.92578H17.5623C17.9823 8.92578 18.3123 9.26578 18.3123 9.67578Z" fill="#581C87"/>
<path d="M9.97226 8.70719L7.72226 10.9572C7.57226 11.1072 7.38226 11.1772 7.19226 11.1772C7.00226 11.1772 6.80226 11.1072 6.66226 10.9572L5.91226 10.2072C5.61226 9.91719 5.61226 9.43719 5.91226 9.14719C6.20226 8.85719 6.67226 8.85719 6.97226 9.14719L7.19226 9.36719L8.91226 7.64719C9.20226 7.35719 9.67226 7.35719 9.97226 7.64719C10.2623 7.93719 10.2623 8.41719 9.97226 8.70719Z" fill="#581C87"/>
<path d="M18.3123 16.6758C18.3123 17.0858 17.9823 17.4258 17.5623 17.4258H12.3123C11.9023 17.4258 11.5623 17.0858 11.5623 16.6758C11.5623 16.2658 11.9023 15.9258 12.3123 15.9258H17.5623C17.9823 15.9258 18.3123 16.2658 18.3123 16.6758Z" fill="#581C87"/>
<path d="M9.97226 15.7072L7.72226 17.9572C7.57226 18.1072 7.38226 18.1772 7.19226 18.1772C7.00226 18.1772 6.80226 18.1072 6.66226 17.9572L5.91226 17.2072C5.61226 16.9172 5.61226 16.4372 5.91226 16.1472C6.20226 15.8572 6.67226 15.8572 6.97226 16.1472L7.19226 16.3672L8.91226 14.6472C9.20226 14.3572 9.67226 14.3572 9.97226 14.6472C10.2623 14.9372 10.2623 15.4172 9.97226 15.7072Z" fill="#581C87"/>
</svg>
