<svg width="25" height="25" viewBox="0 0 25 25" fill="none" xmlns="http://www.w3.org/2000/svg">
<path opacity="0.35" d="M21.3223 10.8189H18.4323C16.0623 10.8189 14.1323 8.88891 14.1323 6.51891V3.62891C14.1323 3.07891 13.6823 2.62891 13.1323 2.62891H8.89227C5.81227 2.62891 3.32227 4.62891 3.32227 8.19891V17.0589C3.32227 20.6289 5.81227 22.6289 8.89227 22.6289H16.7523C19.8323 22.6289 22.3223 20.6289 22.3223 17.0589V11.8189C22.3223 11.2689 21.8723 10.8189 21.3223 10.8189Z" fill="#A461D8"/>
<path d="M16.622 2.83939C16.212 2.42939 15.502 2.70939 15.502 3.27939V6.76939C15.502 8.22939 16.742 9.43939 18.252 9.43939C19.202 9.44939 20.522 9.44939 21.652 9.44939C22.222 9.44939 22.522 8.77939 22.122 8.37939C20.682 6.92939 18.102 4.31939 16.622 2.83939Z" fill="#A461D8"/>
</svg>
