<svg width="25" height="25" viewBox="0 0 25 25" fill="none" xmlns="http://www.w3.org/2000/svg">
<path opacity="0.35" d="M21.9841 8.99891V16.4489C21.9841 16.5989 21.9341 16.7489 21.8041 16.8789C20.3541 18.3389 17.7741 20.9389 16.2941 22.4289C16.1641 22.5689 15.9941 22.6289 15.8241 22.6289H7.85413C5.16413 22.6289 2.98413 20.4489 2.98413 17.7589V8.99891C2.98413 6.30891 5.16413 4.12891 7.85413 4.12891H17.1141C19.8041 4.12891 21.9841 6.30891 21.9841 8.99891Z" fill="#A461D8"/>
<path d="M8.77417 6.91891C8.35417 6.91891 8.02417 6.57891 8.02417 6.16891V3.37891C8.02417 2.96891 8.35417 2.62891 8.77417 2.62891C9.19417 2.62891 9.52417 2.96891 9.52417 3.37891V6.15891C9.52417 6.57891 9.19417 6.91891 8.77417 6.91891Z" fill="#A461D8"/>
<path d="M16.1941 6.91891C15.7741 6.91891 15.4441 6.57891 15.4441 6.16891V3.37891C15.4441 2.95891 15.7841 2.62891 16.1941 2.62891C16.6141 2.62891 16.9441 2.96891 16.9441 3.37891V6.15891C16.9441 6.57891 16.6141 6.91891 16.1941 6.91891Z" fill="#A461D8"/>
<path d="M15.2645 13.3398H7.84448C7.42448 13.3398 7.09448 12.9998 7.09448 12.5898C7.09448 12.1798 7.43448 11.8398 7.84448 11.8398H15.2645C15.6845 11.8398 16.0145 12.1798 16.0145 12.5898C16.0145 12.9998 15.6845 13.3398 15.2645 13.3398Z" fill="#A461D8"/>
<path d="M12.4845 17.0488H7.84448C7.42448 17.0488 7.09448 16.7088 7.09448 16.2988C7.09448 15.8788 7.43448 15.5488 7.84448 15.5488H12.4845C12.9045 15.5488 13.2345 15.8888 13.2345 16.2988C13.2345 16.7088 12.9045 17.0488 12.4845 17.0488Z" fill="#A461D8"/>
<path d="M21.9846 16.4486C21.9846 16.5986 21.9346 16.7486 21.8046 16.8786C20.3546 18.3386 17.7746 20.9386 16.2946 22.4286C16.1646 22.5686 15.9946 22.6286 15.8246 22.6286C15.4946 22.6286 15.1746 22.3686 15.1746 21.9886V18.4886C15.1746 17.0286 16.4146 15.8186 17.9346 15.8186C18.8846 15.8086 20.2046 15.8086 21.3346 15.8086C21.7246 15.8086 21.9846 16.1186 21.9846 16.4486Z" fill="#A461D8"/>
</svg>
