<svg width="25" height="25" viewBox="0 0 25 25" fill="none" xmlns="http://www.w3.org/2000/svg">
<path d="M7.5 3.16406C5.84315 3.16406 4.5 4.50721 4.5 6.16406V19.1641C4.5 20.8209 5.84315 22.1641 7.5 22.1641H17.5C19.1569 22.1641 20.5 20.8209 20.5 19.1641V6.16406C20.5 4.50721 19.1569 3.16406 17.5 3.16406H7.5Z" fill="#EDDFF7"/>
<path fill-rule="evenodd" clip-rule="evenodd" d="M9.5 11.1641C8.94772 11.1641 8.5 11.6118 8.5 12.1641C8.5 12.7163 8.94772 13.1641 9.5 13.1641H15.5C16.0523 13.1641 16.5 12.7163 16.5 12.1641C16.5 11.6118 16.0523 11.1641 15.5 11.1641H9.5ZM9.5 15.1641C8.94772 15.1641 8.5 15.6118 8.5 16.1641C8.5 16.7163 8.94772 17.1641 9.5 17.1641H13.5C14.0523 17.1641 14.5 16.7163 14.5 16.1641C14.5 15.6118 14.0523 15.1641 13.5 15.1641H9.5Z" fill="#A461D8"/>
<path d="M9.5 3.16406C9.5 2.61178 9.94772 2.16406 10.5 2.16406H14.5C15.0523 2.16406 15.5 2.61178 15.5 3.16406V4.16406C15.5 4.71635 15.0523 5.16406 14.5 5.16406H10.5C9.94772 5.16406 9.5 4.71635 9.5 4.16406V3.16406Z" fill="#A461D8"/>
</svg>
