<svg width="25" height="25" viewBox="0 0 25 25" fill="none" xmlns="http://www.w3.org/2000/svg">
<path opacity="0.35" fill-rule="evenodd" clip-rule="evenodd" d="M17.9406 17.1744C17.9406 20.1868 15.4985 22.6289 12.486 22.6289C9.47358 22.6289 7.03149 20.1868 7.03149 17.1744V2.62891H17.9406V17.1744ZM16.1224 4.44709H8.84968V8.99254H16.1224V4.44709Z" fill="#A461D8"/>
<path d="M12.4861 16.5121C12.4861 17.0142 12.079 17.4212 11.577 17.4212C11.0749 17.4212 10.6679 17.0142 10.6679 16.5121C10.6679 16.01 11.0749 15.603 11.577 15.603C12.079 15.603 12.4861 16.01 12.4861 16.5121Z" fill="#A461D8"/>
<path d="M13.8497 14.6939C14.6028 14.6939 15.2133 14.0834 15.2133 13.3303C15.2133 12.5771 14.6028 11.9666 13.8497 11.9666C13.0966 11.9666 12.4861 12.5771 12.4861 13.3303C12.4861 14.0834 13.0966 14.6939 13.8497 14.6939Z" fill="#A461D8"/>
<path fill-rule="evenodd" clip-rule="evenodd" d="M6.12226 2.62891C5.62018 2.62891 5.17335 3.06194 5.21317 3.62891C5.29809 4.16354 5.60986 4.39217 6.12226 4.45484H7.03135V16.6289C6.67224 19.9084 9.47343 22.6289 12.4859 22.6289C15.4984 22.6289 18.3331 20.0436 17.9404 16.6289V4.45484H18.8495C19.3433 4.39939 19.6522 4.18704 19.7529 3.62891C19.8014 3.06864 19.3516 2.62891 18.8495 2.62891H17.9404H16.1223H8.84953H7.03135H6.12226ZM16.1223 4.45484H8.84953V16.6289C8.84953 18.838 10.4776 20.6289 12.4859 20.6289C14.4942 20.6289 16.1223 18.838 16.1223 16.6289V4.45484Z" fill="#A461D8"/>
</svg>
