<svg width="24" height="25" viewBox="0 0 24 25" fill="none" xmlns="http://www.w3.org/2000/svg">
<path opacity="0.35" d="M21 7.98242V17.9824C21 20.9824 19.5 22.9824 16 22.9824H8C4.5 22.9824 3 20.9824 3 17.9824V7.98242C3 4.98242 4.5 2.98242 8 2.98242H16C19.5 2.98242 21 4.98242 21 7.98242Z" fill="#A461D8"/>
<path d="M18.5 10.2324H16.5C14.98 10.2324 13.75 9.00242 13.75 7.48242V5.48242C13.75 5.07242 14.09 4.73242 14.5 4.73242C14.91 4.73242 15.25 5.07242 15.25 5.48242V7.48242C15.25 8.17242 15.81 8.73242 16.5 8.73242H18.5C18.91 8.73242 19.25 9.07242 19.25 9.48242C19.25 9.89242 18.91 10.2324 18.5 10.2324Z" fill="#A461D8"/>
<path d="M12 14.7324H8C7.59 14.7324 7.25 14.3924 7.25 13.9824C7.25 13.5724 7.59 13.2324 8 13.2324H12C12.41 13.2324 12.75 13.5724 12.75 13.9824C12.75 14.3924 12.41 14.7324 12 14.7324Z" fill="#A461D8"/>
<path d="M16 18.7324H8C7.59 18.7324 7.25 18.3924 7.25 17.9824C7.25 17.5724 7.59 17.2324 8 17.2324H16C16.41 17.2324 16.75 17.5724 16.75 17.9824C16.75 18.3924 16.41 18.7324 16 18.7324Z" fill="#A461D8"/>
</svg>
