<svg width="25" height="25" viewBox="0 0 25 25" fill="none" xmlns="http://www.w3.org/2000/svg">
<path opacity="0.35" d="M20.6614 8.87891V18.6289C20.6614 21.6289 18.8714 22.6289 16.6614 22.6289H8.66138C6.45138 22.6289 4.66138 21.6289 4.66138 18.6289V8.87891C4.66138 5.62891 6.45138 4.87891 8.66138 4.87891C8.66138 5.49891 8.91135 6.0589 9.32135 6.4689C9.73135 6.8789 10.2914 7.12891 10.9114 7.12891H14.4114C15.6514 7.12891 16.6614 6.11891 16.6614 4.87891C18.8714 4.87891 20.6614 5.62891 20.6614 8.87891Z" fill="#A461D8"/>
<path d="M16.6614 4.87891C16.6614 6.11891 15.6514 7.12891 14.4114 7.12891H10.9114C10.2914 7.12891 9.73135 6.8789 9.32135 6.4689C8.91135 6.0589 8.66138 5.49891 8.66138 4.87891C8.66138 3.63891 9.67138 2.62891 10.9114 2.62891H14.4114C15.0314 2.62891 15.5914 2.87891 16.0014 3.28891C16.4114 3.69891 16.6614 4.25891 16.6614 4.87891Z" fill="#A461D8"/>
<path d="M12.6614 14.3789H8.66138C8.25138 14.3789 7.91138 14.0389 7.91138 13.6289C7.91138 13.2189 8.25138 12.8789 8.66138 12.8789H12.6614C13.0714 12.8789 13.4114 13.2189 13.4114 13.6289C13.4114 14.0389 13.0714 14.3789 12.6614 14.3789Z" fill="#A461D8"/>
<path d="M16.6614 18.3789H8.66138C8.25138 18.3789 7.91138 18.0389 7.91138 17.6289C7.91138 17.2189 8.25138 16.8789 8.66138 16.8789H16.6614C17.0714 16.8789 17.4114 17.2189 17.4114 17.6289C17.4114 18.0389 17.0714 18.3789 16.6614 18.3789Z" fill="#A461D8"/>
</svg>
