<svg width="25" height="25" viewBox="0 0 25 25" fill="none" xmlns="http://www.w3.org/2000/svg">
<path fill-rule="evenodd" clip-rule="evenodd" d="M11.6614 3.37891C10.4187 3.37891 9.41138 4.38627 9.41138 5.62891V7.62891C9.41138 8.04312 9.07559 8.37891 8.66138 8.37891C8.24716 8.37891 7.91138 8.04312 7.91138 7.62891V5.62891C7.91138 3.55784 9.59031 1.87891 11.6614 1.87891H13.6614C15.7324 1.87891 17.4114 3.55784 17.4114 5.62891V7.62891C17.4114 8.04312 17.0756 8.37891 16.6614 8.37891C16.2472 8.37891 15.9114 8.04312 15.9114 7.62891V5.62891C15.9114 4.38627 14.904 3.37891 13.6614 3.37891H11.6614Z" fill="white"/>
<path opacity="0.35" d="M2.66138 10.6289C2.66138 8.41977 4.45224 6.62891 6.66138 6.62891H18.6614C20.8705 6.62891 22.6614 8.41977 22.6614 10.6289V18.6289C22.6614 20.838 20.8705 22.6289 18.6614 22.6289H6.66138C4.45224 22.6289 2.66138 20.838 2.66138 18.6289V10.6289Z" fill="white"/>
<path d="M13.2214 10.6289H12.1014C11.8774 10.6289 11.7653 10.6289 11.6798 10.6725C11.6045 10.7109 11.5433 10.772 11.505 10.8473C11.4614 10.9329 11.4614 11.0449 11.4614 11.2689V12.7889C11.4614 13.0129 11.4614 13.1249 11.4178 13.2105C11.3794 13.2858 11.3182 13.347 11.243 13.3853C11.1574 13.4289 11.0454 13.4289 10.8214 13.4289H9.30138C9.07736 13.4289 8.96535 13.4289 8.87978 13.4725C8.80452 13.5109 8.74332 13.572 8.70497 13.6473C8.66138 13.7329 8.66138 13.8449 8.66138 14.0689V15.1889C8.66138 15.4129 8.66138 15.5249 8.70497 15.6105C8.74332 15.6858 8.80452 15.747 8.87978 15.7853C8.96535 15.8289 9.07736 15.8289 9.30138 15.8289H10.8214C11.0454 15.8289 11.1574 15.8289 11.243 15.8725C11.3182 15.9109 11.3794 15.972 11.4178 16.0473C11.4614 16.1329 11.4614 16.2449 11.4614 16.4689V17.9889C11.4614 18.2129 11.4614 18.3249 11.505 18.4105C11.5433 18.4858 11.6045 18.547 11.6798 18.5853C11.7653 18.6289 11.8774 18.6289 12.1014 18.6289H13.2214C13.4454 18.6289 13.5574 18.6289 13.643 18.5853C13.7182 18.547 13.7794 18.4858 13.8178 18.4105C13.8614 18.3249 13.8614 18.2129 13.8614 17.9889V16.4689C13.8614 16.2449 13.8614 16.1329 13.905 16.0473C13.9433 15.972 14.0045 15.9109 14.0798 15.8725C14.1653 15.8289 14.2774 15.8289 14.5014 15.8289H16.0214C16.2454 15.8289 16.3574 15.8289 16.443 15.7853C16.5182 15.747 16.5794 15.6858 16.6178 15.6105C16.6614 15.5249 16.6614 15.4129 16.6614 15.1889V14.0689C16.6614 13.8449 16.6614 13.7329 16.6178 13.6473C16.5794 13.572 16.5182 13.5109 16.443 13.4725C16.3574 13.4289 16.2454 13.4289 16.0214 13.4289H14.5014C14.2774 13.4289 14.1653 13.4289 14.0798 13.3853C14.0045 13.347 13.9433 13.2858 13.905 13.2105C13.8614 13.1249 13.8614 13.0129 13.8614 12.7889V11.2689C13.8614 11.0449 13.8614 10.9329 13.8178 10.8473C13.7794 10.772 13.7182 10.7109 13.643 10.6725C13.5574 10.6289 13.4454 10.6289 13.2214 10.6289Z" fill="white"/>
</svg>
