<svg width="25" height="25" viewBox="0 0 25 25" fill="none" xmlns="http://www.w3.org/2000/svg">
<path fill-rule="evenodd" clip-rule="evenodd" d="M11.5012 3.55664C10.2586 3.55664 9.25122 4.564 9.25122 5.80664V7.80664C9.25122 8.22085 8.91543 8.55664 8.50122 8.55664C8.08701 8.55664 7.75122 8.22085 7.75122 7.80664V5.80664C7.75122 3.73557 9.43015 2.05664 11.5012 2.05664H13.5012C15.5723 2.05664 17.2512 3.73557 17.2512 5.80664V7.80664C17.2512 8.22085 16.9154 8.55664 16.5012 8.55664C16.087 8.55664 15.7512 8.22085 15.7512 7.80664V5.80664C15.7512 4.564 14.7439 3.55664 13.5012 3.55664H11.5012Z" fill="#581C87"/>
<path opacity="0.35" d="M2.50122 10.8066C2.50122 8.5975 4.29208 6.80664 6.50122 6.80664H18.5012C20.7104 6.80664 22.5012 8.5975 22.5012 10.8066V18.8066C22.5012 21.0158 20.7104 22.8066 18.5012 22.8066H6.50122C4.29208 22.8066 2.50122 21.0158 2.50122 18.8066V10.8066Z" fill="#581C87"/>
<path d="M13.0612 10.8066H11.9412C11.7172 10.8066 11.6052 10.8066 11.5196 10.8502C11.4444 10.8886 11.3832 10.9498 11.3448 11.025C11.3012 11.1106 11.3012 11.2226 11.3012 11.4466V12.9666C11.3012 13.1907 11.3012 13.3027 11.2576 13.3882C11.2193 13.4635 11.1581 13.5247 11.0828 13.563C10.9973 13.6066 10.8852 13.6066 10.6612 13.6066H9.14122C8.9172 13.6066 8.80519 13.6066 8.71962 13.6502C8.64436 13.6886 8.58317 13.7498 8.54482 13.825C8.50122 13.9106 8.50122 14.0226 8.50122 14.2466V15.3666C8.50122 15.5907 8.50122 15.7027 8.54482 15.7882C8.58317 15.8635 8.64436 15.9247 8.71962 15.963C8.80519 16.0066 8.9172 16.0066 9.14122 16.0066H10.6612C10.8852 16.0066 10.9973 16.0066 11.0828 16.0502C11.1581 16.0886 11.2193 16.1498 11.2576 16.225C11.3012 16.3106 11.3012 16.4226 11.3012 16.6466V18.1666C11.3012 18.3907 11.3012 18.5027 11.3448 18.5882C11.3832 18.6635 11.4444 18.7247 11.5196 18.763C11.6052 18.8066 11.7172 18.8066 11.9412 18.8066H13.0612C13.2852 18.8066 13.3973 18.8066 13.4828 18.763C13.5581 18.7247 13.6193 18.6635 13.6576 18.5882C13.7012 18.5027 13.7012 18.3907 13.7012 18.1666V16.6466C13.7012 16.4226 13.7012 16.3106 13.7448 16.225C13.7832 16.1498 13.8444 16.0886 13.9196 16.0502C14.0052 16.0066 14.1172 16.0066 14.3412 16.0066H15.8612C16.0852 16.0066 16.1973 16.0066 16.2828 15.963C16.3581 15.9247 16.4193 15.8635 16.4576 15.7882C16.5012 15.7027 16.5012 15.5907 16.5012 15.3666V14.2466C16.5012 14.0226 16.5012 13.9106 16.4576 13.825C16.4193 13.7498 16.3581 13.6886 16.2828 13.6502C16.1973 13.6066 16.0852 13.6066 15.8612 13.6066H14.3412C14.1172 13.6066 14.0052 13.6066 13.9196 13.563C13.8444 13.5247 13.7832 13.4635 13.7448 13.3882C13.7012 13.3027 13.7012 13.1907 13.7012 12.9666V11.4466C13.7012 11.2226 13.7012 11.1106 13.6576 11.025C13.6193 10.9498 13.5581 10.8886 13.4828 10.8502C13.3973 10.8066 13.2852 10.8066 13.0612 10.8066Z" fill="#581C87"/>
</svg>
