<svg width="25" height="24" viewBox="0 0 25 24" fill="none" xmlns="http://www.w3.org/2000/svg">
<path fill-rule="evenodd" clip-rule="evenodd" d="M11.6614 2.75C10.4187 2.75 9.41138 3.75736 9.41138 5V7C9.41138 7.41421 9.07559 7.75 8.66138 7.75C8.24716 7.75 7.91138 7.41421 7.91138 7V5C7.91138 2.92893 9.59031 1.25 11.6614 1.25H13.6614C15.7324 1.25 17.4114 2.92893 17.4114 5V7C17.4114 7.41421 17.0756 7.75 16.6614 7.75C16.2472 7.75 15.9114 7.41421 15.9114 7V5C15.9114 3.75736 14.904 2.75 13.6614 2.75H11.6614Z" fill="#A461D8"/>
<path opacity="0.35" d="M2.66138 10C2.66138 7.79086 4.45224 6 6.66138 6H18.6614C20.8705 6 22.6614 7.79086 22.6614 10V18C22.6614 20.2091 20.8705 22 18.6614 22H6.66138C4.45224 22 2.66138 20.2091 2.66138 18V10Z" fill="#A461D8"/>
<path d="M13.2214 10H12.1014C11.8774 10 11.7653 10 11.6798 10.0436C11.6045 10.0819 11.5433 10.1431 11.505 10.2184C11.4614 10.304 11.4614 10.416 11.4614 10.64V12.16C11.4614 12.384 11.4614 12.496 11.4178 12.5816C11.3794 12.6569 11.3182 12.7181 11.243 12.7564C11.1574 12.8 11.0454 12.8 10.8214 12.8H9.30138C9.07736 12.8 8.96535 12.8 8.87978 12.8436C8.80452 12.8819 8.74332 12.9431 8.70497 13.0184C8.66138 13.104 8.66138 13.216 8.66138 13.44V14.56C8.66138 14.784 8.66138 14.896 8.70497 14.9816C8.74332 15.0569 8.80452 15.1181 8.87978 15.1564C8.96535 15.2 9.07736 15.2 9.30138 15.2H10.8214C11.0454 15.2 11.1574 15.2 11.243 15.2436C11.3182 15.2819 11.3794 15.3431 11.4178 15.4184C11.4614 15.504 11.4614 15.616 11.4614 15.84V17.36C11.4614 17.584 11.4614 17.696 11.505 17.7816C11.5433 17.8569 11.6045 17.9181 11.6798 17.9564C11.7653 18 11.8774 18 12.1014 18H13.2214C13.4454 18 13.5574 18 13.643 17.9564C13.7182 17.9181 13.7794 17.8569 13.8178 17.7816C13.8614 17.696 13.8614 17.584 13.8614 17.36V15.84C13.8614 15.616 13.8614 15.504 13.905 15.4184C13.9433 15.3431 14.0045 15.2819 14.0798 15.2436C14.1653 15.2 14.2774 15.2 14.5014 15.2H16.0214C16.2454 15.2 16.3574 15.2 16.443 15.1564C16.5182 15.1181 16.5794 15.0569 16.6178 14.9816C16.6614 14.896 16.6614 14.784 16.6614 14.56V13.44C16.6614 13.216 16.6614 13.104 16.6178 13.0184C16.5794 12.9431 16.5182 12.8819 16.443 12.8436C16.3574 12.8 16.2454 12.8 16.0214 12.8H14.5014C14.2774 12.8 14.1653 12.8 14.0798 12.7564C14.0045 12.7181 13.9433 12.6569 13.905 12.5816C13.8614 12.496 13.8614 12.384 13.8614 12.16V10.64C13.8614 10.416 13.8614 10.304 13.8178 10.2184C13.7794 10.1431 13.7182 10.0819 13.643 10.0436C13.5574 10 13.4454 10 13.2214 10Z" fill="#A461D8"/>
</svg>
