<svg width="24" height="25" viewBox="0 0 24 25" fill="none" xmlns="http://www.w3.org/2000/svg">
<path opacity="0.35" d="M22 12.3301C22 17.8529 17.5228 22.3301 12 22.3301C6.47715 22.3301 2 17.8529 2 12.3301C2 6.80723 6.47715 2.33008 12 2.33008C17.5228 2.33008 22 6.80723 22 12.3301Z" fill="white"/>
<path fill-rule="evenodd" clip-rule="evenodd" d="M14.2929 7.62297C14.6834 7.23245 15.3166 7.23245 15.7071 7.62297C16.0976 8.0135 16.0976 8.64666 15.7071 9.03718L12.7071 12.0372C12.3166 12.4277 11.6834 12.4277 11.2929 12.0372C10.9024 11.6467 10.9024 11.0135 11.2929 10.623L14.2929 7.62297ZM6.29289 10.623C6.68342 10.2324 7.31658 10.2324 7.70711 10.623L8.70711 11.623C9.09763 12.0135 9.09763 12.6467 8.70711 13.0372C8.31658 13.4277 7.68342 13.4277 7.29289 13.0372L6.29289 12.0372C5.90237 11.6467 5.90237 11.0135 6.29289 10.623ZM10 9.33008C10.5523 9.33008 11 8.88236 11 8.33008C11 7.77779 10.5523 7.33008 10 7.33008C9.44772 7.33008 9 7.77779 9 8.33008C9 8.88236 9.44772 9.33008 10 9.33008ZM10 16.3301C10 16.8824 9.55228 17.3301 9 17.3301C8.44772 17.3301 8 16.8824 8 16.3301C8 15.7778 8.44772 15.3301 9 15.3301C9.55228 15.3301 10 15.7778 10 16.3301ZM18 11.8301C18 11.2778 17.5523 10.8301 17 10.8301C16.4477 10.8301 16 11.2778 16 11.8301V12.3301C16 12.8824 15.5523 13.3301 15 13.3301C13.3431 13.3301 12 14.6732 12 16.3301V16.8301C12 17.3824 12.4477 17.8301 13 17.8301C13.5523 17.8301 14 17.3824 14 16.8301V16.3301C14 15.7778 14.4477 15.3301 15 15.3301C16.6569 15.3301 18 13.9869 18 12.3301V11.8301Z" fill="white"/>
</svg>
