<svg width="24" height="25" viewBox="0 0 24 25" fill="none" xmlns="http://www.w3.org/2000/svg">
<path opacity="0.35" fill-rule="evenodd" clip-rule="evenodd" d="M12 22.2578C17.5228 22.2578 22 17.7807 22 12.2578C22 6.73496 17.5228 2.25781 12 2.25781C6.47715 2.25781 2 6.73496 2 12.2578C2 17.7807 6.47715 22.2578 12 22.2578Z" fill="#A461D8"/>
<path d="M14.2929 7.55071C14.6834 7.16018 15.3166 7.16018 15.7071 7.55071C16.0976 7.94123 16.0976 8.5744 15.7071 8.96492L12.7071 11.9649C12.3166 12.3554 11.6834 12.3554 11.2929 11.9649C10.9024 11.5744 10.9024 10.9412 11.2929 10.5507L14.2929 7.55071Z" fill="#A461D8"/>
<path d="M6.29289 10.5507C6.68342 10.1602 7.31658 10.1602 7.70711 10.5507L8.70711 11.5507C9.09763 11.9412 9.09763 12.5744 8.70711 12.9649C8.31658 13.3554 7.68342 13.3554 7.29289 12.9649L6.29289 11.9649C5.90237 11.5744 5.90237 10.9412 6.29289 10.5507Z" fill="#A461D8"/>
<path d="M10 9.25781C10.5523 9.25781 11 8.8101 11 8.25781C11 7.70553 10.5523 7.25781 10 7.25781C9.44772 7.25781 9 7.70553 9 8.25781C9 8.8101 9.44772 9.25781 10 9.25781Z" fill="#A461D8"/>
<path d="M10 16.2578C10 16.8101 9.55228 17.2578 9 17.2578C8.44772 17.2578 8 16.8101 8 16.2578C8 15.7055 8.44772 15.2578 9 15.2578C9.55228 15.2578 10 15.7055 10 16.2578Z" fill="#A461D8"/>
<path d="M18 11.7578C18 11.2055 17.5523 10.7578 17 10.7578C16.4477 10.7578 16 11.2055 16 11.7578V12.2578C16 12.8101 15.5523 13.2578 15 13.2578C13.3431 13.2578 12 14.601 12 16.2578V16.7578C12 17.3101 12.4477 17.7578 13 17.7578C13.5523 17.7578 14 17.3101 14 16.7578V16.2578C14 15.7055 14.4477 15.2578 15 15.2578C16.6569 15.2578 18 13.9147 18 12.2578V11.7578Z" fill="#A461D8"/>
</svg>
