<svg width="25" height="25" viewBox="0 0 25 25" fill="none" xmlns="http://www.w3.org/2000/svg">
<path opacity="0.35" d="M22.1619 12.8066C22.1619 18.3295 17.6847 22.8066 12.1619 22.8066C6.63902 22.8066 2.16187 18.3295 2.16187 12.8066C2.16187 7.28379 6.63902 2.80664 12.1619 2.80664C17.6847 2.80664 22.1619 7.28379 22.1619 12.8066Z" fill="#581C87"/>
<path fill-rule="evenodd" clip-rule="evenodd" d="M14.4548 8.09953C14.8453 7.70901 15.4784 7.70901 15.869 8.09953C16.2595 8.49006 16.2595 9.12322 15.869 9.51375L12.869 12.5137C12.4784 12.9043 11.8453 12.9043 11.4548 12.5137C11.0642 12.1232 11.0642 11.4901 11.4548 11.0995L14.4548 8.09953ZM6.45476 11.0995C6.84528 10.709 7.47845 10.709 7.86897 11.0995L8.86897 12.0995C9.2595 12.4901 9.2595 13.1232 8.86897 13.5137C8.47845 13.9043 7.84528 13.9043 7.45476 13.5137L6.45476 12.5137C6.06423 12.1232 6.06423 11.4901 6.45476 11.0995ZM10.1619 9.80664C10.7141 9.80664 11.1619 9.35893 11.1619 8.80664C11.1619 8.25436 10.7141 7.80664 10.1619 7.80664C9.60958 7.80664 9.16187 8.25436 9.16187 8.80664C9.16187 9.35893 9.60958 9.80664 10.1619 9.80664ZM10.1619 16.8066C10.1619 17.3589 9.71415 17.8066 9.16187 17.8066C8.60958 17.8066 8.16187 17.3589 8.16187 16.8066C8.16187 16.2544 8.60958 15.8066 9.16187 15.8066C9.71415 15.8066 10.1619 16.2544 10.1619 16.8066ZM18.1619 12.3066C18.1619 11.7544 17.7141 11.3066 17.1619 11.3066C16.6096 11.3066 16.1619 11.7544 16.1619 12.3066V12.8066C16.1619 13.3589 15.7141 13.8066 15.1619 13.8066C13.505 13.8066 12.1619 15.1498 12.1619 16.8066V17.3066C12.1619 17.8589 12.6096 18.3066 13.1619 18.3066C13.7141 18.3066 14.1619 17.8589 14.1619 17.3066V16.8066C14.1619 16.2544 14.6096 15.8066 15.1619 15.8066C16.8187 15.8066 18.1619 14.4635 18.1619 12.8066V12.3066Z" fill="#581C87"/>
</svg>
