<svg width="25" height="25" viewBox="0 0 25 25" fill="none" xmlns="http://www.w3.org/2000/svg">
<path d="M6.5 4.16406L15.5 3.16406L17.5 5.66406L19.5 8.66406L18.5 21.1641H6.5V4.16406Z" fill="#A461D8"/>
<g clip-path="url(#clip0_4006_20894)">
<path fill-rule="evenodd" clip-rule="evenodd" d="M19.9578 7.4974L15.5972 2.49396C15.5027 2.39774 15.3947 2.30152 15.2597 2.26028C15.1517 2.19155 15.0032 2.16406 14.8682 2.16406H7.01105C6.68704 2.16406 6.36303 2.21905 6.05253 2.34276C5.74202 2.46647 5.47202 2.65891 5.24251 2.87884C5.01301 3.11252 4.82401 3.38743 4.689 3.68984C4.5675 4.00599 4.5 4.33588 4.5 4.66578V19.6623C4.5 19.9922 4.5675 20.3221 4.7025 20.6383C4.82401 20.9407 5.01301 21.2156 5.25601 21.4493C5.48552 21.683 5.76902 21.8754 6.06603 21.9854C6.36303 22.0953 6.70054 22.1641 7.02455 22.1641H17.7167C18.0407 22.1641 18.3648 22.1091 18.6753 21.9854C18.9858 21.8617 19.2558 21.6692 19.4853 21.4493C19.7148 21.2156 19.9038 20.9407 20.0388 20.6383C20.1603 20.3221 20.2413 19.9922 20.2413 19.6623V8.17094C20.2143 7.90977 20.1333 7.67609 19.9578 7.4974ZM15.0167 8.17094C14.8142 8.15719 14.6252 8.04722 14.4902 7.89602C14.3687 7.73107 14.2877 7.53863 14.3147 7.33245V4.17094L18.0002 8.17094H15.0167Z" fill="#EDDFF7"/>
<path fill-rule="evenodd" clip-rule="evenodd" d="M17.9995 8.1709H15.0295C14.827 8.15715 14.638 8.04719 14.503 7.89598C14.3815 7.73104 14.3005 7.5386 14.3275 7.33241V4.1709L17.9995 8.1709Z" fill="#A461D8"/>
<path d="M12.8439 13.9986C13.9644 13.7237 14.653 12.5828 14.3964 11.4419C14.1264 10.3011 13.0059 9.60002 11.8854 9.86119C10.7649 10.1361 10.0764 11.277 10.3329 12.4179C10.5894 13.5588 11.7234 14.2598 12.8439 13.9986Z" fill="#A461D8"/>
<path d="M14.9771 14.3285C14.8286 14.2323 14.6531 14.1911 14.4641 14.1773C14.2076 14.1773 13.9511 14.2873 13.7621 14.466C13.3706 14.8234 13.0736 15.0708 12.358 15.0708C11.656 15.0708 11.332 14.8096 10.9675 14.466C10.792 14.301 10.5895 14.1911 10.36 14.1773C10.144 14.1636 9.928 14.2048 9.7525 14.3285C9.21249 14.6722 8.10547 15.7168 8.10547 18.6034C8.10547 18.7134 8.10547 18.8234 8.10547 18.9333C8.11897 19.167 8.30797 19.3595 8.53748 19.3595H10.279H11.521H13.1411H14.3426H16.1786C16.4081 19.3595 16.6106 19.167 16.6106 18.9333C16.6106 18.8234 16.6106 18.7134 16.6106 18.6034C16.6241 15.7168 15.5171 14.6722 14.9771 14.3285ZM15.3281 17.7375H14.4641V18.6172H13.3571V17.7375H12.493V16.6103H13.3571V15.7306H14.4641V16.6103H15.3281V17.7375Z" fill="#A461D8"/>
</g>
<defs>
<clipPath id="clip0_4006_20894">
<rect width="15.7143" height="20" fill="white" transform="translate(4.5 2.16406)"/>
</clipPath>
</defs>
</svg>
