<svg width="25" height="25" viewBox="0 0 25 25" fill="none" xmlns="http://www.w3.org/2000/svg">
<g clip-path="url(#clip0_4006_7299)">
<rect x="7.5" y="8.16406" width="9" height="8" fill="#A461D8"/>
<g clip-path="url(#clip1_4006_7299)">
<path d="M12.5 2.16406C7 2.16406 2.5 6.6135 2.5 12.0517C2.5 14.194 3.16667 16.1716 4.33333 17.8195V23.0929C4.33333 24.0817 5.5 24.576 6.25 23.8345L8.83333 21.2802C10 21.6922 11.25 21.9393 12.5 21.9393C18 21.9393 22.5 17.4899 22.5 12.0517C22.5 6.6135 18 2.16406 12.5 2.16406Z" fill="#EDDFF7"/>
<path d="M16.4173 11.0625H13.4173V8.09619C13.4173 7.6018 13.0007 7.10742 12.4173 7.10742C11.834 7.10742 11.4173 7.51941 11.4173 8.09619V11.0625H8.58398C8.08398 11.0625 7.58398 11.4745 7.58398 12.0512C7.58398 12.5456 8.00065 13.04 8.58398 13.04H11.584V16.0063C11.584 16.5007 12.0007 16.9951 12.584 16.9951C13.1673 16.9951 13.584 16.5831 13.584 16.0063V13.04H16.584C17.084 13.04 17.584 12.628 17.584 12.0512C17.4173 11.4745 17.0007 11.0625 16.4173 11.0625Z" fill="#A461D8"/>
</g>
</g>
<defs>
<clipPath id="clip0_4006_7299">
<rect width="24" height="24" fill="white" transform="translate(0.5 0.164062)"/>
</clipPath>
<clipPath id="clip1_4006_7299">
<rect width="20" height="22" fill="white" transform="translate(2.5 2.16406)"/>
</clipPath>
</defs>
</svg>
