<svg width="25" height="24" viewBox="0 0 25 24" fill="none" xmlns="http://www.w3.org/2000/svg">
<path opacity="0.35" fill-rule="evenodd" clip-rule="evenodd" d="M11.1614 2C11.4375 2 11.6614 2.22386 11.6614 2.5V6.99998C11.6614 9.7614 13.9 12 16.6614 12H20.1614C20.4375 12 20.6614 12.2238 20.6614 12.5V19C20.6614 20.6569 19.3182 22 17.6614 22H7.66138C6.00452 22 4.66138 20.6569 4.66138 19V5C4.66138 3.34315 6.00452 2 7.66138 2H11.1614Z" fill="#A461D8"/>
<path d="M14.2581 2.67116L20.1562 9.43156C20.2231 9.5068 20.2838 9.58655 20.3381 9.67003C20.4351 9.81915 20.316 9.99989 20.1381 9.99989H16.6614C15.0045 9.99989 13.6614 8.65674 13.6614 6.99989V2.61833C13.6614 2.43226 13.8567 2.31498 14.0028 2.4303C14.0941 2.50241 14.1796 2.58288 14.2581 2.67116Z" fill="#A461D8"/>
<path d="M12.6614 15.6475C12.8095 15.8946 13.0159 16.1017 13.2629 16.25C13.0162 16.3981 12.8095 16.6048 12.6614 16.8516C12.5131 16.6045 12.3059 16.3982 12.0588 16.25C12.3062 16.1017 12.5131 15.8948 12.6614 15.6475Z" stroke="#A461D8" stroke-width="3"/>
</svg>
