<svg width="25" height="25" viewBox="0 0 25 25" fill="none" xmlns="http://www.w3.org/2000/svg">
<path opacity="0.35" d="M21.1614 10.8189H18.2714C15.9014 10.8189 13.9714 8.88891 13.9714 6.51891V3.62891C13.9714 3.07891 13.5214 2.62891 12.9714 2.62891H8.73138C5.65138 2.62891 3.16138 4.62891 3.16138 8.19891V17.0589C3.16138 20.6289 5.65138 22.6289 8.73138 22.6289H16.5914C19.6714 22.6289 22.1614 20.6289 22.1614 17.0589V11.8189C22.1614 11.2689 21.7114 10.8189 21.1614 10.8189Z" fill="white"/>
<path d="M16.4611 2.83939C16.0511 2.42939 15.3411 2.70939 15.3411 3.27939V6.76939C15.3411 8.22939 16.5811 9.43939 18.0911 9.43939C19.0411 9.44939 20.3611 9.44939 21.4911 9.44939C22.0611 9.44939 22.3611 8.77939 21.9611 8.37939C20.5211 6.92939 17.9411 4.31939 16.4611 2.83939Z" fill="white"/>
<path d="M14.1614 14.3789H8.16138C7.75138 14.3789 7.41138 14.0389 7.41138 13.6289C7.41138 13.2189 7.75138 12.8789 8.16138 12.8789H14.1614C14.5714 12.8789 14.9114 13.2189 14.9114 13.6289C14.9114 14.0389 14.5714 14.3789 14.1614 14.3789Z" fill="white"/>
<path d="M12.1614 18.3789H8.16138C7.75138 18.3789 7.41138 18.0389 7.41138 17.6289C7.41138 17.2189 7.75138 16.8789 8.16138 16.8789H12.1614C12.5714 16.8789 12.9114 17.2189 12.9114 17.6289C12.9114 18.0389 12.5714 18.3789 12.1614 18.3789Z" fill="white"/>
</svg>
