<svg width="25" height="25" viewBox="0 0 25 25" fill="none" xmlns="http://www.w3.org/2000/svg">
<path opacity="0.35" fill-rule="evenodd" clip-rule="evenodd" d="M11.0042 2.80664C11.2803 2.80664 11.5042 3.0305 11.5042 3.30664V7.80662C11.5042 10.568 13.7427 12.8066 16.5042 12.8066H20.0042C20.2803 12.8066 20.5042 13.0305 20.5042 13.3066V19.8066C20.5042 21.4635 19.161 22.8066 17.5042 22.8066H7.50415C5.8473 22.8066 4.50415 21.4635 4.50415 19.8066V5.80664C4.50415 4.14979 5.8473 2.80664 7.50415 2.80664H11.0042Z" fill="#581C87"/>
<path d="M14.1008 3.4778L19.999 10.2382C20.0659 10.3134 20.1266 10.3932 20.1809 10.4767C20.2778 10.6258 20.1588 10.8065 19.9809 10.8065H16.5042C14.8473 10.8065 13.5042 9.46338 13.5042 7.80653V3.42497C13.5042 3.2389 13.6995 3.12162 13.8455 3.23694C13.9369 3.30905 14.0224 3.38952 14.1008 3.4778Z" fill="#581C87"/>
<path d="M12.5042 16.4541C12.6523 16.7012 12.8587 16.9084 13.1057 17.0566C12.8589 17.2048 12.6523 17.4114 12.5042 17.6582C12.3559 17.4112 12.1487 17.2048 11.9016 17.0566C12.149 16.9083 12.3558 16.7014 12.5042 16.4541Z" stroke="#581C87" stroke-width="3"/>
</svg>
