<svg width="24" height="25" viewBox="0 0 24 25" fill="none" xmlns="http://www.w3.org/2000/svg">
<path opacity="0.35" fill-rule="evenodd" clip-rule="evenodd" d="M22 9.25786C22 9.25785 22 9.25788 22 9.25786C22 5.94415 19.3137 3.25781 16 3.25781C14.4633 3.25781 13.0615 3.83552 12 4.7856C10.9385 3.83552 9.53671 3.25781 8 3.25781C4.68629 3.25781 2 5.9441 2 9.25781C2 9.25778 2 9.25784 2 9.25781C2 16.6089 8.67146 20.0639 11.116 21.0832C11.6855 21.3206 12.3145 21.3206 12.884 21.0832C15.3285 20.0639 22 16.609 22 9.25786Z" fill="#A461D8"/>
<path d="M21.8271 11.2578H17.1594L15.9191 8.36389C15.7615 7.99621 15.4 7.75781 15 7.75781C14.5999 7.75781 14.2384 7.99621 14.0808 8.36389L12 13.2192L11.4191 11.8639C11.2615 11.4962 10.9 11.2578 10.5 11.2578H2.17285C2.29865 11.967 2.48905 12.633 2.73068 13.2578H9.84056L11.0808 16.1517C11.2384 16.5194 11.5999 16.7578 12 16.7578C12.4 16.7578 12.7615 16.5194 12.9191 16.1517L15 11.2964L15.5808 12.6517C15.7384 13.0194 16.0999 13.2578 16.5 13.2578H21.2692C21.5109 12.633 21.7013 11.967 21.8271 11.2578Z" fill="#A461D8"/>
</svg>
