<svg width="25" height="25" viewBox="0 0 25 25" fill="none" xmlns="http://www.w3.org/2000/svg">
<path opacity="0.35" d="M21.168 11.0533H18.278C15.908 11.0533 13.978 9.12328 13.978 6.75328V3.86328C13.978 3.31328 13.528 2.86328 12.978 2.86328H8.73797C5.65797 2.86328 3.16797 4.86328 3.16797 8.43328V17.2933C3.16797 20.8633 5.65797 22.8633 8.73797 22.8633H16.598C19.678 22.8633 22.168 20.8633 22.168 17.2933V12.0533C22.168 11.5033 21.718 11.0533 21.168 11.0533Z" fill="white"/>
<path d="M16.4677 3.07376C16.0577 2.66376 15.3477 2.94376 15.3477 3.51376V7.00376C15.3477 8.46376 16.5877 9.67376 18.0977 9.67376C19.0477 9.68376 20.3677 9.68376 21.4977 9.68376C22.0677 9.68376 22.3677 9.01376 21.9677 8.61376C20.5277 7.16376 17.9477 4.55376 16.4677 3.07376Z" fill="white"/>
<path d="M14.168 14.6133H8.16797C7.75797 14.6133 7.41797 14.2733 7.41797 13.8633C7.41797 13.4533 7.75797 13.1133 8.16797 13.1133H14.168C14.578 13.1133 14.918 13.4533 14.918 13.8633C14.918 14.2733 14.578 14.6133 14.168 14.6133Z" fill="white"/>
<path d="M12.168 18.6133H8.16797C7.75797 18.6133 7.41797 18.2733 7.41797 17.8633C7.41797 17.4533 7.75797 17.1133 8.16797 17.1133H12.168C12.578 17.1133 12.918 17.4533 12.918 17.8633C12.918 18.2733 12.578 18.6133 12.168 18.6133Z" fill="white"/>
</svg>
