<svg width="25" height="25" viewBox="0 0 25 25" fill="none" xmlns="http://www.w3.org/2000/svg">
<path opacity="0.35" d="M21.334 10.3267H18.444C16.074 10.3267 14.144 8.39672 14.144 6.02672V3.13672C14.144 2.58672 13.694 2.13672 13.144 2.13672H8.90398C5.82398 2.13672 3.33398 4.13672 3.33398 7.70672V16.5667C3.33398 20.1367 5.82398 22.1367 8.90398 22.1367H16.764C19.844 22.1367 22.334 20.1367 22.334 16.5667V11.3267C22.334 10.7767 21.884 10.3267 21.334 10.3267Z" fill="#A461D8"/>
<path d="M16.6337 2.3472C16.2237 1.9372 15.5137 2.2172 15.5137 2.7872V6.2772C15.5137 7.7372 16.7537 8.9472 18.2637 8.9472C19.2137 8.9572 20.5337 8.9572 21.6637 8.9572C22.2337 8.9572 22.5337 8.2872 22.1337 7.8872C20.6937 6.4372 18.1137 3.8272 16.6337 2.3472Z" fill="#A461D8"/>
<path d="M14.334 13.8867H8.33398C7.92398 13.8867 7.58398 13.5467 7.58398 13.1367C7.58398 12.7267 7.92398 12.3867 8.33398 12.3867H14.334C14.744 12.3867 15.084 12.7267 15.084 13.1367C15.084 13.5467 14.744 13.8867 14.334 13.8867Z" fill="#A461D8"/>
<path d="M12.334 17.8867H8.33398C7.92398 17.8867 7.58398 17.5467 7.58398 17.1367C7.58398 16.7267 7.92398 16.3867 8.33398 16.3867H12.334C12.744 16.3867 13.084 16.7267 13.084 17.1367C13.084 17.5467 12.744 17.8867 12.334 17.8867Z" fill="#A461D8"/>
</svg>
