<svg width="25" height="25" viewBox="0 0 25 25" fill="none" xmlns="http://www.w3.org/2000/svg">
<path opacity="0.35" fill-rule="evenodd" clip-rule="evenodd" d="M11.168 2.86328C11.4441 2.86328 11.668 3.08714 11.668 3.36328V7.86326C11.668 10.6247 13.9065 12.8633 16.668 12.8633H20.168C20.4441 12.8633 20.668 13.0871 20.668 13.3633V19.8633C20.668 21.5201 19.3248 22.8633 17.668 22.8633H7.66797C6.01111 22.8633 4.66797 21.5201 4.66797 19.8633V5.86328C4.66797 4.20643 6.01111 2.86328 7.66797 2.86328H11.168Z" fill="white"/>
<path d="M14.2647 3.53444L20.1628 10.2948C20.2297 10.3701 20.2904 10.4498 20.3447 10.5333C20.4416 10.6824 20.3226 10.8632 20.1447 10.8632H16.668C15.0111 10.8632 13.668 9.52002 13.668 7.86317V3.48161C13.668 3.29554 13.8633 3.17826 14.0094 3.29358C14.1007 3.36569 14.1862 3.44616 14.2647 3.53444Z" fill="white"/>
<path d="M11.918 13.3633H13.418C13.6941 13.3633 13.918 13.5871 13.918 13.8633V15.6133C13.918 15.7514 14.0299 15.8633 14.168 15.8633L15.918 15.8633C16.1941 15.8633 16.418 16.0871 16.418 16.3633V17.8633C16.418 18.1394 16.1941 18.3633 15.918 18.3633H14.168C14.0299 18.3633 13.918 18.4752 13.918 18.6133V20.3633C13.918 20.6394 13.6941 20.8633 13.418 20.8633H11.918C11.6418 20.8633 11.418 20.6394 11.418 20.3633V18.6133C11.418 18.4752 11.306 18.3633 11.168 18.3633H9.41797C9.14183 18.3633 8.91797 18.1394 8.91797 17.8633V16.3633C8.91797 16.0871 9.14183 15.8633 9.41797 15.8633L11.168 15.8633C11.306 15.8633 11.418 15.7514 11.418 15.6133V13.8633C11.418 13.5871 11.6418 13.3633 11.918 13.3633Z" fill="white"/>
</svg>
