<svg width="33" height="33" viewBox="0 0 33 33" fill="none" xmlns="http://www.w3.org/2000/svg">
<path opacity="0.35" d="M4.83398 13.4746C4.83398 11.2655 6.62485 9.47461 8.83398 9.47461H24.834C27.0431 9.47461 28.834 11.2655 28.834 13.4746V24.1413C28.834 26.3504 27.0431 28.1413 24.834 28.1413H8.83399C6.62485 28.1413 4.83398 26.3504 4.83398 24.1413V13.4746Z" fill="#581C87"/>
<path fill-rule="evenodd" clip-rule="evenodd" d="M14.1675 6.80729C13.4311 6.80729 12.8341 7.40425 12.8341 8.14062V9.47396H10.1675V8.14062C10.1675 5.93149 11.9583 4.14062 14.1675 4.14062H19.5008C21.71 4.14062 23.5008 5.93149 23.5008 8.14062V9.47396H20.8341V8.14062C20.8341 7.40425 20.2372 6.80729 19.5008 6.80729H14.1675Z" fill="#581C87"/>
<path fill-rule="evenodd" clip-rule="evenodd" d="M16.834 14.8066C16.0976 14.8066 15.5007 15.4036 15.5007 16.14V17.4733H14.1673C13.4309 17.4733 12.834 18.0703 12.834 18.8066C12.834 19.543 13.4309 20.14 14.1673 20.14H15.5007V21.4733C15.5007 22.2097 16.0976 22.8066 16.834 22.8066C17.5704 22.8066 18.1673 22.2097 18.1673 21.4733V20.14H19.5007C20.237 20.14 20.834 19.543 20.834 18.8066C20.834 18.0703 20.237 17.4733 19.5007 17.4733L18.1673 17.4733V16.14C18.1673 15.4036 17.5704 14.8066 16.834 14.8066Z" fill="#581C87"/>
</svg>
