<svg width="25" height="25" viewBox="0 0 25 25" fill="none" xmlns="http://www.w3.org/2000/svg">
<path opacity="0.35" fill-rule="evenodd" clip-rule="evenodd" d="M11.334 2.13672C11.6101 2.13672 11.834 2.36058 11.834 2.63672V7.1367C11.834 9.89812 14.0726 12.1367 16.834 12.1367H20.334C20.6101 12.1367 20.834 12.3606 20.834 12.6367V19.1367C20.834 20.7936 19.4908 22.1367 17.834 22.1367H7.83398C6.17713 22.1367 4.83398 20.7936 4.83398 19.1367V5.13672C4.83398 3.47986 6.17713 2.13672 7.83398 2.13672H11.334Z" fill="#A461D8"/>
<path d="M14.4307 2.80788L20.3288 9.56828C20.3957 9.64352 20.4564 9.72327 20.5107 9.80675C20.6077 9.95587 20.4886 10.1366 20.3107 10.1366H16.834C15.1771 10.1366 13.834 8.79346 13.834 7.13661V2.75505C13.834 2.56898 14.0294 2.4517 14.1754 2.56702C14.2667 2.63913 14.3522 2.7196 14.4307 2.80788Z" fill="#A461D8"/>
<path d="M12.084 12.6367H13.584C13.8601 12.6367 14.084 12.8606 14.084 13.1367V14.8867C14.084 15.0248 14.1959 15.1367 14.334 15.1367L16.084 15.1367C16.3601 15.1367 16.584 15.3606 16.584 15.6367V17.1367C16.584 17.4129 16.3601 17.6367 16.084 17.6367H14.334C14.1959 17.6367 14.084 17.7486 14.084 17.8867V19.6367C14.084 19.9129 13.8601 20.1367 13.584 20.1367H12.084C11.8078 20.1367 11.584 19.9129 11.584 19.6367V17.8867C11.584 17.7486 11.4721 17.6367 11.334 17.6367H9.58398C9.30784 17.6367 9.08398 17.4129 9.08398 17.1367V15.6367C9.08398 15.3606 9.30784 15.1367 9.58398 15.1367L11.334 15.1367C11.4721 15.1367 11.584 15.0248 11.584 14.8867V13.1367C11.584 12.8606 11.8078 12.6367 12.084 12.6367Z" fill="#A461D8"/>
</svg>
