<svg width="25" height="25" viewBox="0 0 25 25" fill="none" xmlns="http://www.w3.org/2000/svg">
<g clip-path="url(#clip0_2285_137859)">
<g clip-path="url(#clip1_2285_137859)">
<path opacity="0.4" d="M12.834 2.13672C7.33398 2.13672 2.83398 6.58616 2.83398 12.0244C2.83398 14.1667 3.50065 16.1442 4.66732 17.7921V23.0656C4.66732 24.0543 5.83398 24.5487 6.58398 23.8071L9.16732 21.2528C10.334 21.6648 11.584 21.912 12.834 21.912C18.334 21.912 22.834 17.4626 22.834 12.0244C22.834 6.58616 18.334 2.13672 12.834 2.13672Z" fill="#A461D8"/>
<path d="M16.7508 11.0351H13.7508V8.06884C13.7508 7.57446 13.3341 7.08008 12.7508 7.08008C12.1675 7.08008 11.7508 7.49206 11.7508 8.06884V11.0351H8.91748C8.41748 11.0351 7.91748 11.4471 7.91748 12.0239C7.91748 12.5183 8.33415 13.0127 8.91748 13.0127H11.9175V15.979C11.9175 16.4733 12.3341 16.9677 12.9175 16.9677C13.5008 16.9677 13.9175 16.5557 13.9175 15.979V13.0127H16.9175C17.4175 13.0127 17.9175 12.6007 17.9175 12.0239C17.7508 11.4471 17.3341 11.0351 16.7508 11.0351Z" fill="#A461D8"/>
</g>
</g>
<defs>
<clipPath id="clip0_2285_137859">
<rect width="24" height="24" fill="white" transform="translate(0.833984 0.136719)"/>
</clipPath>
<clipPath id="clip1_2285_137859">
<rect width="20" height="22" fill="white" transform="translate(2.83398 2.13672)"/>
</clipPath>
</defs>
</svg>
