<svg width="25" height="25" viewBox="0 0 25 25" fill="none" xmlns="http://www.w3.org/2000/svg">
<g clip-path="url(#clip0_2285_137864)">
<g clip-path="url(#clip1_2285_137864)">
<path opacity="0.4" d="M12.834 2.86328C7.33398 2.86328 2.83398 7.31272 2.83398 12.7509C2.83398 14.8932 3.50065 16.8708 4.66732 18.5187V23.7921C4.66732 24.7809 5.83398 25.2753 6.58398 24.5337L9.16732 21.9794C10.334 22.3914 11.584 22.6386 12.834 22.6386C18.334 22.6386 22.834 18.1891 22.834 12.7509C22.834 7.31272 18.334 2.86328 12.834 2.86328Z" fill="white"/>
<path d="M16.7508 11.7617H13.7508V8.7954C13.7508 8.30102 13.3341 7.80664 12.7508 7.80664C12.1675 7.80664 11.7508 8.21863 11.7508 8.7954V11.7617H8.91748C8.41748 11.7617 7.91748 12.1737 7.91748 12.7505C7.91748 13.2448 8.33415 13.7392 8.91748 13.7392H11.9175V16.7055C11.9175 17.1999 12.3341 17.6943 12.9175 17.6943C13.5008 17.6943 13.9175 17.2823 13.9175 16.7055V13.7392H16.9175C17.4175 13.7392 17.9175 13.3272 17.9175 12.7505C17.7508 12.1737 17.3341 11.7617 16.7508 11.7617Z" fill="white"/>
</g>
</g>
<defs>
<clipPath id="clip0_2285_137864">
<rect width="24" height="24" fill="white" transform="translate(0.833984 0.863281)"/>
</clipPath>
<clipPath id="clip1_2285_137864">
<rect width="20" height="22" fill="white" transform="translate(2.83398 2.86328)"/>
</clipPath>
</defs>
</svg>
