<svg width="45" height="44" viewBox="0 0 45 44" fill="none" xmlns="http://www.w3.org/2000/svg">
<path d="M24.4571 20.6295C29.3996 19.4627 32.4604 14.5102 31.2936 9.5677C30.1268 4.62521 25.1743 1.56438 20.2318 2.73114C15.2894 3.8979 12.2286 8.85043 13.3953 13.7929C14.5621 18.7354 19.5146 21.7962 24.4571 20.6295Z" fill="#EAE4F4"/>
<path opacity="0.4" d="M33.8805 22.0741C33.205 21.6615 32.4259 21.4554 31.6352 21.4386C30.4824 21.4142 29.3724 21.8949 28.5203 22.6718C26.8204 24.2216 25.4595 25.2972 22.3435 25.2972C19.2259 25.2972 17.8117 24.1912 16.1915 22.6846C15.4469 21.9922 14.5028 21.5155 13.4881 21.4485C12.5509 21.3866 11.606 21.5857 10.8064 22.0741C8.4001 23.5437 3.54004 28.066 3.54004 40.6224C3.54004 41.1176 3.54776 41.5953 3.56153 42.0591C3.59236 43.0994 4.45191 43.9229 5.49265 43.9229H13.1483H18.6231H25.7876H31.0742H39.1942C40.2349 43.9229 41.0944 43.0995 41.1254 42.0593C41.1391 41.5953 41.1469 41.1176 41.1469 40.6224C41.1469 28.066 36.2868 23.5437 33.8805 22.0741ZM33.0414 35.8717H30.7239V38.1892H27.7442V35.8717H25.4266V32.892H27.7442V30.5745H30.7239V32.892H33.0414V35.8717Z" fill="#EAE4F4"/>
</svg>
