<svg width="25" height="24" viewBox="0 0 25 24" fill="none" xmlns="http://www.w3.org/2000/svg">
<path opacity="0.35" d="M20.1445 8.25V18C20.1445 21 18.3545 22 16.1445 22H8.14453C5.93453 22 4.14453 21 4.14453 18V8.25C4.14453 5 5.93453 4.25 8.14453 4.25C8.14453 4.87 8.3945 5.43 8.8045 5.84C9.2145 6.25 9.77453 6.5 10.3945 6.5H13.8945C15.1345 6.5 16.1445 5.49 16.1445 4.25C18.3545 4.25 20.1445 5 20.1445 8.25Z" fill="#A461D8"/>
<path d="M16.1445 4.25C16.1445 5.49 15.1345 6.5 13.8945 6.5H10.3945C9.77453 6.5 9.2145 6.25 8.8045 5.84C8.3945 5.43 8.14453 4.87 8.14453 4.25C8.14453 3.01 9.15453 2 10.3945 2H13.8945C14.5145 2 15.0746 2.25 15.4846 2.66C15.8946 3.07 16.1445 3.63 16.1445 4.25Z" fill="#A461D8"/>
<path d="M12.1445 13.75H8.14453C7.73453 13.75 7.39453 13.41 7.39453 13C7.39453 12.59 7.73453 12.25 8.14453 12.25H12.1445C12.5545 12.25 12.8945 12.59 12.8945 13C12.8945 13.41 12.5545 13.75 12.1445 13.75Z" fill="#A461D8"/>
<path d="M16.1445 17.75H8.14453C7.73453 17.75 7.39453 17.41 7.39453 17C7.39453 16.59 7.73453 16.25 8.14453 16.25H16.1445C16.5545 16.25 16.8945 16.59 16.8945 17C16.8945 17.41 16.5545 17.75 16.1445 17.75Z" fill="#A461D8"/>
</svg>
