<svg width="24" height="24" viewBox="0 0 24 24" fill="none" xmlns="http://www.w3.org/2000/svg">
<g clip-path="url(#clip0_5676_151743)">
<path opacity="0.35" fill-rule="evenodd" clip-rule="evenodd" d="M19.4578 7.33333L15.0972 2.3299C15.0027 2.23368 14.8947 2.13746 14.7597 2.09622C14.6517 2.02749 14.5032 2 14.3682 2H6.51105C6.18704 2 5.86303 2.05498 5.55253 2.17869C5.24202 2.30241 4.97202 2.49485 4.74251 2.71478C4.51301 2.94845 4.32401 3.22337 4.189 3.52577C4.0675 3.84192 4 4.17182 4 4.50172V19.4983C4 19.8282 4.0675 20.1581 4.2025 20.4742C4.32401 20.7766 4.51301 21.0515 4.75601 21.2852C4.98552 21.5189 5.26902 21.7113 5.56603 21.8213C5.86303 21.9313 6.20054 22 6.52455 22H17.2167C17.5407 22 17.8648 21.945 18.1753 21.8213C18.4858 21.6976 18.7558 21.5052 18.9853 21.2852C19.2148 21.0515 19.4038 20.7766 19.5388 20.4742C19.6603 20.1581 19.7413 19.8282 19.7413 19.4983V8.00687C19.7143 7.7457 19.6333 7.51203 19.4578 7.33333ZM14.5167 8.00687C14.3142 7.99313 14.1252 7.88316 13.9902 7.73196C13.8687 7.56701 13.7877 7.37457 13.8147 7.16838V4.00687L17.5002 8.00687H14.5167Z" fill="#A461D8"/>
<path fill-rule="evenodd" clip-rule="evenodd" d="M17.5 8.00781H14.53C14.3275 7.99407 14.1385 7.8841 14.0035 7.7329C13.882 7.56795 13.801 7.37551 13.828 7.16932V4.00781L17.5 8.00781Z" fill="#A461D8"/>
<path d="M12.3429 13.8346C13.4635 13.5597 14.152 12.4188 13.8955 11.2779C13.6255 10.137 12.5049 9.43596 11.3844 9.69713C10.2639 9.97204 9.57539 11.1129 9.8319 12.2538C10.0884 13.3947 11.2224 14.0958 12.3429 13.8346Z" fill="#A461D8"/>
<path d="M14.4761 14.1654C14.3276 14.0692 14.1521 14.028 13.9631 14.0142C13.7066 14.0142 13.4501 14.1242 13.2611 14.3029C12.8696 14.6603 12.5726 14.9077 11.8571 14.9077C11.1551 14.9077 10.8311 14.6465 10.4665 14.3029C10.291 14.138 10.0885 14.028 9.85903 14.0142C9.64303 14.0005 9.42703 14.0417 9.25152 14.1654C8.71151 14.5091 7.60449 15.5538 7.60449 18.4404C7.60449 18.5503 7.60449 18.6603 7.60449 18.7703C7.61799 19.0039 7.807 19.1964 8.0365 19.1964H9.77803H11.0201H12.6401H13.8416H15.6776C15.9071 19.1964 16.1096 19.0039 16.1096 18.7703C16.1096 18.6603 16.1096 18.5503 16.1096 18.4404C16.1231 15.5538 15.0161 14.5091 14.4761 14.1654ZM14.8271 17.5744H13.9631V18.4541H12.8561V17.5744H11.9921V16.4472H12.8561V15.5675H13.9631V16.4472H14.8271V17.5744Z" fill="#A461D8"/>
</g>
<defs>
<clipPath id="clip0_5676_151743">
<rect width="15.7143" height="20" fill="white" transform="translate(4 2)"/>
</clipPath>
</defs>
</svg>
