<svg width="24" height="25" viewBox="0 0 24 25" fill="none" xmlns="http://www.w3.org/2000/svg">
<g clip-path="url(#clip0_2463_135772)">
<path opacity="0.35" fill-rule="evenodd" clip-rule="evenodd" d="M19.4578 7.53646L15.0972 2.53302C15.0027 2.4368 14.8947 2.34058 14.7597 2.29934C14.6517 2.23062 14.5032 2.20312 14.3682 2.20312H6.51105C6.18704 2.20312 5.86303 2.25811 5.55253 2.38182C5.24202 2.50553 4.97202 2.69797 4.74251 2.9179C4.51301 3.15158 4.32401 3.42649 4.189 3.7289C4.0675 4.04505 4 4.37495 4 4.70484V19.7014C4 20.0313 4.0675 20.3612 4.2025 20.6774C4.32401 20.9798 4.51301 21.2547 4.75601 21.4883C4.98552 21.722 5.26902 21.9145 5.56603 22.0244C5.86303 22.1344 6.20054 22.2031 6.52455 22.2031H17.2167C17.5407 22.2031 17.8648 22.1481 18.1753 22.0244C18.4858 21.9007 18.7558 21.7083 18.9853 21.4883C19.2148 21.2547 19.4038 20.9798 19.5388 20.6774C19.6603 20.3612 19.7413 20.0313 19.7413 19.7014V8.21C19.7143 7.94883 19.6333 7.71515 19.4578 7.53646ZM14.5167 8.21C14.3142 8.19625 14.1252 8.08629 13.9902 7.93508C13.8687 7.77014 13.7877 7.5777 13.8147 7.37151V4.21L17.5002 8.21H14.5167Z" fill="#A461D8"/>
<path fill-rule="evenodd" clip-rule="evenodd" d="M17.5 8.21094H14.53C14.3275 8.19719 14.1385 8.08723 14.0035 7.93602C13.882 7.77108 13.801 7.57863 13.828 7.37245V4.21094L17.5 8.21094Z" fill="#A461D8"/>
<path d="M12.3429 14.0377C13.4635 13.7628 14.152 12.6219 13.8955 11.481C13.6255 10.3401 12.5049 9.63908 11.3844 9.90025C10.2639 10.1752 9.57539 11.3161 9.8319 12.457C10.0884 13.5978 11.2224 14.2989 12.3429 14.0377Z" fill="#A461D8"/>
<path d="M14.4761 14.3686C14.3276 14.2724 14.1521 14.2311 13.9631 14.2174C13.7066 14.2174 13.4501 14.3273 13.2611 14.506C12.8696 14.8634 12.5726 15.1108 11.8571 15.1108C11.1551 15.1108 10.8311 14.8497 10.4665 14.506C10.291 14.3411 10.0885 14.2311 9.85903 14.2174C9.64303 14.2036 9.42703 14.2449 9.25152 14.3686C8.71151 14.7122 7.60449 15.7569 7.60449 18.6435C7.60449 18.7535 7.60449 18.8634 7.60449 18.9734C7.61799 19.2071 7.807 19.3995 8.0365 19.3995H9.77803H11.0201H12.6401H13.8416H15.6776C15.9071 19.3995 16.1096 19.2071 16.1096 18.9734C16.1096 18.8634 16.1096 18.7535 16.1096 18.6435C16.1231 15.7569 15.0161 14.7122 14.4761 14.3686ZM14.8271 17.7775H13.9631V18.6572H12.8561V17.7775H11.9921V16.6504H12.8561V15.7706H13.9631V16.6504H14.8271V17.7775Z" fill="#A461D8"/>
</g>
<defs>
<clipPath id="clip0_2463_135772">
<rect width="15.7143" height="20" fill="white" transform="translate(4 2.20312)"/>
</clipPath>
</defs>
</svg>
