<svg width="45" height="44" viewBox="0 0 45 44" fill="none" xmlns="http://www.w3.org/2000/svg">
<path opacity="0.4" d="M2.83398 18.5554C2.83398 14.8735 5.81878 11.8887 9.50072 11.8887H36.1676C39.8496 11.8887 42.8344 14.8735 42.8344 18.5554V36.3334C42.8344 40.0153 39.8496 43.0001 36.1676 43.0001H9.50072C5.81878 43.0001 2.83398 40.0153 2.83398 36.3334V18.5554Z" fill="#EAE4F4"/>
<path opacity="0.4" fill-rule="evenodd" clip-rule="evenodd" d="M18.3904 7.44449C17.1631 7.44449 16.1681 8.43942 16.1681 9.66673V11.889H11.7236V9.66673C11.7236 5.9848 14.7084 3 18.3904 3H27.2793C30.9613 3 33.9461 5.9848 33.9461 9.66673V11.889H29.5016V9.66673C29.5016 8.43942 28.5067 7.44449 27.2793 7.44449H18.3904Z" fill="#EAE4F4"/>
<path fill-rule="evenodd" clip-rule="evenodd" d="M22.8342 20.7773C21.6069 20.7773 20.612 21.7723 20.612 22.9996V25.2218H18.3897C17.1624 25.2218 16.1675 26.2168 16.1675 27.4441C16.1675 28.6714 17.1624 29.6663 18.3897 29.6663H20.612V31.8886C20.612 33.1159 21.6069 34.1108 22.8342 34.1108C24.0615 34.1108 25.0565 33.1159 25.0565 31.8886V29.6663H27.2787C28.506 29.6663 29.5009 28.6714 29.5009 27.4441C29.5009 26.2168 28.506 25.2218 27.2787 25.2218L25.0565 25.2218V22.9996C25.0565 21.7723 24.0615 20.7773 22.8342 20.7773Z" fill="#EAE4F4"/>
</svg>
