<svg width="45" height="44" viewBox="0 0 45 44" fill="none" xmlns="http://www.w3.org/2000/svg">
<path opacity="0.4" d="M16.872 2.6875C11.632 2.6875 7.37207 6.94747 7.37207 12.1874C7.37207 17.3274 11.392 21.4874 16.632 21.6674C16.792 21.6474 16.952 21.6474 17.072 21.6674C17.112 21.6674 17.132 21.6674 17.172 21.6674C17.192 21.6674 17.192 21.6674 17.212 21.6674C22.332 21.4874 26.3519 17.3274 26.3719 12.1874C26.3719 6.94747 22.112 2.6875 16.872 2.6875Z" fill="#EAE4F4"/>
<path d="M27.0347 26.9872C21.4548 23.2673 12.3548 23.2673 6.73489 26.9872C4.19491 28.6872 2.79492 30.9872 2.79492 33.4472C2.79492 35.9072 4.19491 38.1872 6.71489 39.8671C9.51487 41.7471 13.1948 42.6871 16.8748 42.6871C20.5548 42.6871 24.2348 41.7471 27.0347 39.8671C29.5547 38.1672 30.9547 35.8872 30.9547 33.4072C30.9347 30.9472 29.5547 28.6672 27.0347 26.9872Z" fill="#EAE4F4"/>
<path opacity="0.4" d="M38.8522 13.3677C39.1722 17.2476 36.4122 20.6476 32.5922 21.1076C32.5722 21.1076 32.5722 21.1076 32.5522 21.1076H32.4922C32.3722 21.1076 32.2522 21.1076 32.1522 21.1476C30.2123 21.2476 28.4323 20.6276 27.0923 19.4876C29.1523 17.6476 30.3323 14.8876 30.0923 11.8877C29.9523 10.2677 29.3923 8.78769 28.5523 7.52769C29.3123 7.1477 30.1923 6.9077 31.0923 6.8277C35.0122 6.4877 38.5122 9.40768 38.8522 13.3677Z" fill="#EAE4F4"/>
<path d="M42.8539 31.8663C42.6939 33.8063 41.4539 35.4863 39.3739 36.6262C37.3739 37.7262 34.8539 38.2462 32.354 38.1862C33.794 36.8862 34.6339 35.2663 34.7939 33.5463C34.9939 31.0663 33.814 28.6863 31.454 26.7863C30.114 25.7263 28.554 24.8863 26.854 24.2663C31.274 22.9863 36.8339 23.8463 40.2539 26.6063C42.0939 28.0863 43.0339 29.9463 42.8539 31.8663Z" fill="#EAE4F4"/>
</svg>
