<svg width="25" height="25" viewBox="0 0 25 25" fill="none" xmlns="http://www.w3.org/2000/svg">
<path opacity="0.35" d="M20.1445 8.45312V18.2031C20.1445 21.2031 18.3545 22.2031 16.1445 22.2031H8.14453C5.93453 22.2031 4.14453 21.2031 4.14453 18.2031V8.45312C4.14453 5.20312 5.93453 4.45312 8.14453 4.45312C8.14453 5.07313 8.3945 5.63312 8.8045 6.04312C9.2145 6.45312 9.77453 6.70312 10.3945 6.70312H13.8945C15.1345 6.70312 16.1445 5.69313 16.1445 4.45312C18.3545 4.45312 20.1445 5.20312 20.1445 8.45312Z" fill="#A461D8"/>
<path d="M16.1445 4.45312C16.1445 5.69313 15.1345 6.70312 13.8945 6.70312H10.3945C9.77453 6.70312 9.2145 6.45312 8.8045 6.04312C8.3945 5.63312 8.14453 5.07312 8.14453 4.45312C8.14453 3.21312 9.15453 2.20312 10.3945 2.20312H13.8945C14.5145 2.20312 15.0746 2.45313 15.4846 2.86313C15.8946 3.27313 16.1445 3.83312 16.1445 4.45312Z" fill="#A461D8"/>
<path d="M12.1445 13.9531H8.14453C7.73453 13.9531 7.39453 13.6131 7.39453 13.2031C7.39453 12.7931 7.73453 12.4531 8.14453 12.4531H12.1445C12.5545 12.4531 12.8945 12.7931 12.8945 13.2031C12.8945 13.6131 12.5545 13.9531 12.1445 13.9531Z" fill="#A461D8"/>
<path d="M16.1445 17.9531H8.14453C7.73453 17.9531 7.39453 17.6131 7.39453 17.2031C7.39453 16.7931 7.73453 16.4531 8.14453 16.4531H16.1445C16.5545 16.4531 16.8945 16.7931 16.8945 17.2031C16.8945 17.6131 16.5545 17.9531 16.1445 17.9531Z" fill="#A461D8"/>
</svg>
