<svg width="35" height="35" viewBox="0 0 35 35" fill="none" xmlns="http://www.w3.org/2000/svg">
<mask id="path-1-inside-1_1855_15492" fill="white">
<path fill-rule="evenodd" clip-rule="evenodd" d="M0.943947 35L35 35L35 0.9237C34.9986 19.7361 19.7538 34.9876 0.943947 35ZM35 3.05979e-06L3.0598e-06 0L0 5.44398e-06L35 3.05979e-06Z"/>
</mask>
<path fill-rule="evenodd" clip-rule="evenodd" d="M0.943947 35L35 35L35 0.9237C34.9986 19.7361 19.7538 34.9876 0.943947 35ZM35 3.05979e-06L3.0598e-06 0L0 5.44398e-06L35 3.05979e-06Z" fill="white"/>
<path d="M35 35V36H36V35H35ZM0.943947 35L0.94329 34L0.943947 36L0.943947 35ZM35 0.9237L36 0.9237L34 0.923624L35 0.9237ZM3.0598e-06 0L3.14722e-06 -1H-0.585073L-0.871739 -0.489964L3.0598e-06 0ZM0 5.44398e-06L-0.871742 -0.489959L-1.70918 1.00001L6.81196e-08 1.00001L0 5.44398e-06ZM35 34L0.943947 34L0.943947 36L35 36V34ZM34 0.9237L34 35H36L36 0.9237L34 0.9237ZM34 0.923624C33.9986 19.184 19.2012 33.988 0.94329 34L0.944605 36C20.3065 35.9873 35.9985 20.2882 36 0.923776L34 0.923624ZM2.97238e-06 1L35 1V-0.999997L3.14722e-06 -1L2.97238e-06 1ZM0.871742 0.48997L0.871746 0.489964L-0.871739 -0.489964L-0.871742 -0.489959L0.871742 0.48997ZM6.81196e-08 1.00001L35 1V-0.999997L-6.81196e-08 -0.999995L6.81196e-08 1.00001Z" fill="#E2E2EA" mask="url(#path-1-inside-1_1855_15492)"/>
<rect x="12" y="34" width="23" height="1" fill="white"/>
<rect x="34" y="12" width="1" height="23" fill="white"/>
</svg>
