<svg width="440" height="468" viewBox="0 0 440 468" fill="none" xmlns="http://www.w3.org/2000/svg">
<path d="M86.6177 40.0625C86.6177 17.9711 104.526 0.0625 126.618 0.0625H399.451C421.543 0.0625 439.451 17.9711 439.451 40.0625V303.508C439.451 325.599 421.543 343.508 399.451 343.508H395.047C372.955 343.508 355.047 361.416 355.047 383.508V427.713C355.047 449.804 337.138 467.712 315.047 467.712H40.8223C18.7309 467.712 0.822266 449.804 0.822266 427.713V165.267C0.822266 143.175 18.7309 125.267 40.8223 125.267H46.6177C68.7091 125.267 86.6177 107.358 86.6177 85.2667V40.0625Z" fill="#D9D9D9"/>
</svg>
