<svg width="360" height="384" viewBox="0 0 360 384" fill="none" xmlns="http://www.w3.org/2000/svg">
<path d="M70.4157 40C70.4157 17.9086 88.3243 0 110.416 0H320C342.091 0 360 17.9086 360 40V247.242C360 266.371 344.492 281.879 325.363 281.879V281.879C306.233 281.879 290.726 297.386 290.726 316.516V343.818C290.726 365.91 272.817 383.818 250.726 383.818H40C17.9086 383.818 0 365.91 0 343.818V137.968C0 118.523 15.7631 102.76 35.2078 102.76V102.76C54.6526 102.76 70.4157 86.9969 70.4157 67.5521V40Z" fill="#F6EFFB"/>
</svg>
