<?xml version="1.0" encoding="utf-8"?>
<!-- Generator: Adobe Illustrator 24.3.0, SVG Export Plug-In . SVG Version: 6.00 Build 0)  -->
<svg version="1.1" id="Layer_1" xmlns="http://www.w3.org/2000/svg" xmlns:xlink="http://www.w3.org/1999/xlink" x="0px" y="0px"
	 viewBox="0 0 290 309.2" style="enable-background:new 0 0 290 309.2;" xml:space="preserve">
<style type="text/css">
	.st0{fill:#F6EFFB;}
</style>
<path class="st0" d="M56.7,32.2C56.7,14.4,71.2,0,88.9,0h168.8C275.6,0,290,14.4,290,32.2v166.9c0,15.4-12.5,27.9-27.9,27.9l0,0
	c-15.4,0-27.9,12.5-27.9,27.9v22c0,17.8-14.4,32.2-32.2,32.2H32.2C14.4,309.2,0,294.8,0,277V111.1c0-15.7,12.7-28.4,28.4-28.4l0,0
	c15.7,0,28.4-12.7,28.4-28.4V32.2z"/>
</svg>
