<svg width="16" height="16" viewBox="0 0 16 16" fill="none" xmlns="http://www.w3.org/2000/svg">
<g id="Free Instagram Logo Icon - Free Download Logos Logo Icons _ IconScout-24 1">
<path id="Vector" d="M11.2857 4.03939C11.1396 4.03939 10.9969 4.0827 10.8754 4.16384C10.754 4.24498 10.6593 4.36032 10.6035 4.49525C10.5476 4.63019 10.5329 4.77867 10.5614 4.92192C10.5899 5.06516 10.6603 5.19674 10.7635 5.30002C10.8668 5.4033 10.9984 5.47363 11.1416 5.50212C11.2849 5.53061 11.4334 5.51599 11.5683 5.4601C11.7032 5.40421 11.8186 5.30956 11.8997 5.18812C11.9809 5.06668 12.0242 4.9239 12.0242 4.77785C12.0242 4.582 11.9464 4.39417 11.8079 4.25568C11.6694 4.11719 11.4816 4.03939 11.2857 4.03939ZM14.1165 5.52862C14.1045 5.01803 14.0089 4.51287 13.8334 4.03323C13.6769 3.62285 13.4334 3.25125 13.1195 2.944C12.8148 2.62857 12.4424 2.38657 12.0303 2.23631C11.552 2.05549 11.0462 1.95767 10.5349 1.94708C9.88263 1.91016 9.6734 1.91016 7.99955 1.91016C6.3257 1.91016 6.11647 1.91016 5.46416 1.94708C4.95287 1.95767 4.44714 2.05549 3.96878 2.23631C3.5575 2.38809 3.18535 2.62989 2.87955 2.944C2.56412 3.24873 2.32212 3.6212 2.17186 4.03323C1.99103 4.5116 1.89322 5.01733 1.88263 5.52862C1.8457 6.18093 1.8457 6.39016 1.8457 8.064C1.8457 9.73785 1.8457 9.94708 1.88263 10.5994C1.89322 11.1107 1.99103 11.6164 2.17186 12.0948C2.32212 12.5068 2.56412 12.8793 2.87955 13.184C3.18535 13.4981 3.5575 13.7399 3.96878 13.8917C4.44714 14.0725 4.95287 14.1703 5.46416 14.1809C6.11647 14.2178 6.3257 14.2178 7.99955 14.2178C9.6734 14.2178 9.88263 14.2178 10.5349 14.1809C11.0462 14.1703 11.552 14.0725 12.0303 13.8917C12.4424 13.7414 12.8148 13.4994 13.1195 13.184C13.4348 12.8779 13.6785 12.506 13.8334 12.0948C14.0089 11.6151 14.1045 11.11 14.1165 10.5994C14.1165 9.94708 14.1534 9.73785 14.1534 8.064C14.1534 6.39016 14.1534 6.18093 14.1165 5.52862ZM13.0088 10.5255C13.0043 10.9162 12.9336 11.3032 12.7995 11.6702C12.7013 11.938 12.5435 12.18 12.338 12.3778C12.1384 12.5812 11.8969 12.7387 11.6303 12.8394C11.2634 12.9734 10.8763 13.0441 10.4857 13.0486C9.87032 13.0794 9.64263 13.0855 8.02416 13.0855C6.4057 13.0855 6.17801 13.0855 5.56263 13.0486C5.15702 13.0562 4.75315 12.9938 4.36878 12.864C4.11388 12.7582 3.88346 12.6011 3.69186 12.4025C3.4876 12.2048 3.33176 11.9626 3.23647 11.6948C3.08623 11.3226 3.0029 10.9267 2.99032 10.5255C2.99032 9.91016 2.9534 9.68246 2.9534 8.064C2.9534 6.44554 2.9534 6.21785 2.99032 5.60246C2.99308 5.20311 3.06598 4.80735 3.2057 4.43323C3.31404 4.17349 3.48033 3.94195 3.69186 3.75631C3.87882 3.54472 4.10988 3.37668 4.36878 3.264C4.74389 3.12864 5.13924 3.0579 5.53801 3.05477C6.1534 3.05477 6.38109 3.01785 7.99955 3.01785C9.61801 3.01785 9.8457 3.01785 10.4611 3.05477C10.8517 3.05925 11.2388 3.13 11.6057 3.264C11.8854 3.36779 12.1363 3.53652 12.338 3.75631C12.5397 3.94534 12.6972 4.17645 12.7995 4.43323C12.9363 4.80796 13.0071 5.20356 13.0088 5.60246C13.0395 6.21785 13.0457 6.44554 13.0457 8.064C13.0457 9.68246 13.0395 9.91016 13.0088 10.5255ZM7.99955 4.90708C7.37543 4.9083 6.76568 5.09448 6.24734 5.44211C5.72899 5.78973 5.32532 6.2832 5.08732 6.86016C4.84933 7.43712 4.78769 8.07167 4.91019 8.68365C5.0327 9.29563 5.33385 9.85756 5.7756 10.2985C6.21734 10.7393 6.77986 11.0394 7.39208 11.1607C8.00429 11.282 8.63873 11.2191 9.21522 10.98C9.79172 10.7409 10.2844 10.3363 10.631 9.81725C10.9776 9.29823 11.1626 8.68812 11.1626 8.064C11.1634 7.64868 11.0821 7.2373 10.9234 6.85351C10.7646 6.46973 10.5316 6.12112 10.2376 5.82773C9.94366 5.53434 9.59459 5.30196 9.2105 5.14396C8.82641 4.98596 8.41487 4.90546 7.99955 4.90708ZM7.99955 10.1132C7.59425 10.1132 7.19805 9.99305 6.86106 9.76788C6.52406 9.5427 6.26141 9.22266 6.10631 8.84821C5.95121 8.47376 5.91062 8.06173 5.98969 7.66422C6.06876 7.26671 6.26393 6.90157 6.55052 6.61498C6.83711 6.32839 7.20225 6.13322 7.59976 6.05415C7.99728 5.97508 8.40931 6.01566 8.78376 6.17076C9.1582 6.32586 9.47825 6.58852 9.70342 6.92551C9.9286 7.26251 10.0488 7.6587 10.0488 8.064C10.0488 8.33311 9.99578 8.59959 9.89279 8.84821C9.78981 9.09683 9.63886 9.32274 9.44857 9.51303C9.25829 9.70332 9.03238 9.85426 8.78376 9.95724C8.53513 10.0602 8.26866 10.1132 7.99955 10.1132Z" fill="#4B4AD5"/>
</g>
</svg>
