<svg width="25" height="25" viewBox="0 0 25 25" fill="none" xmlns="http://www.w3.org/2000/svg">
<path opacity="0.4" d="M16.6685 2.58008H8.28852C4.64852 2.58008 2.47852 4.75008 2.47852 8.39008V16.7701C2.47852 20.4101 4.64852 22.5801 8.28852 22.5801H16.6685C20.3085 22.5801 22.4785 20.4101 22.4785 16.7701V8.39008C22.4785 4.75008 20.3085 2.58008 16.6685 2.58008Z" fill="#A461D8"/>
<path d="M18.7886 9.44922C18.7886 9.85922 18.4586 10.1992 18.0386 10.1992H12.7886C12.3786 10.1992 12.0386 9.85922 12.0386 9.44922C12.0386 9.03922 12.3786 8.69922 12.7886 8.69922H18.0386C18.4586 8.69922 18.7886 9.03922 18.7886 9.44922Z" fill="#A461D8"/>
<path d="M10.4486 8.48062L8.19857 10.7306C8.04857 10.8806 7.85857 10.9506 7.66857 10.9506C7.47857 10.9506 7.27857 10.8806 7.13857 10.7306L6.38857 9.98062C6.08857 9.69062 6.08857 9.21063 6.38857 8.92063C6.67857 8.63063 7.14857 8.63063 7.44857 8.92063L7.66857 9.14062L9.38857 7.42063C9.67857 7.13063 10.1486 7.13063 10.4486 7.42063C10.7386 7.71062 10.7386 8.19062 10.4486 8.48062Z" fill="#A461D8"/>
<path d="M18.7886 16.4492C18.7886 16.8592 18.4586 17.1992 18.0386 17.1992H12.7886C12.3786 17.1992 12.0386 16.8592 12.0386 16.4492C12.0386 16.0392 12.3786 15.6992 12.7886 15.6992H18.0386C18.4586 15.6992 18.7886 16.0392 18.7886 16.4492Z" fill="#A461D8"/>
<path d="M10.4486 15.4806L8.19857 17.7306C8.04857 17.8806 7.85857 17.9506 7.66857 17.9506C7.47857 17.9506 7.27857 17.8806 7.13857 17.7306L6.38857 16.9806C6.08857 16.6906 6.08857 16.2106 6.38857 15.9206C6.67857 15.6306 7.14857 15.6306 7.44857 15.9206L7.66857 16.1406L9.38857 14.4206C9.67857 14.1306 10.1486 14.1306 10.4486 14.4206C10.7386 14.7106 10.7386 15.1906 10.4486 15.4806Z" fill="#A461D8"/>
</svg>
