<svg width="25" height="25" viewBox="0 0 25 25" fill="none" xmlns="http://www.w3.org/2000/svg">
<path opacity="0.4" d="M21.3228 10.7701H18.4328C16.0628 10.7701 14.1328 8.84008 14.1328 6.47008V3.58008C14.1328 3.03008 13.6828 2.58008 13.1328 2.58008H8.89275C5.81275 2.58008 3.32275 4.58008 3.32275 8.15008V17.0101C3.32275 20.5801 5.81275 22.5801 8.89275 22.5801H16.7528C19.8328 22.5801 22.3228 20.5801 22.3228 17.0101V11.7701C22.3228 11.2201 21.8728 10.7701 21.3228 10.7701Z" fill="#A461D8"/>
<path d="M16.6229 2.79056C16.2129 2.38056 15.5029 2.66056 15.5029 3.23056V6.72056C15.5029 8.18056 16.7429 9.39056 18.2529 9.39056C19.2029 9.40056 20.5229 9.40056 21.6529 9.40056C22.2229 9.40056 22.5229 8.73056 22.1229 8.33056C20.6829 6.88056 18.1029 4.27056 16.6229 2.79056Z" fill="#A461D8"/>
<path d="M14.3228 14.3301H8.32275C7.91275 14.3301 7.57275 13.9901 7.57275 13.5801C7.57275 13.1701 7.91275 12.8301 8.32275 12.8301H14.3228C14.7328 12.8301 15.0728 13.1701 15.0728 13.5801C15.0728 13.9901 14.7328 14.3301 14.3228 14.3301Z" fill="#A461D8"/>
<path d="M12.3228 18.3301H8.32275C7.91275 18.3301 7.57275 17.9901 7.57275 17.5801C7.57275 17.1701 7.91275 16.8301 8.32275 16.8301H12.3228C12.7328 16.8301 13.0728 17.1701 13.0728 17.5801C13.0728 17.9901 12.7328 18.3301 12.3228 18.3301Z" fill="#A461D8"/>
</svg>
