<svg width="25" height="25" viewBox="0 0 25 25" fill="none" xmlns="http://www.w3.org/2000/svg">
<path opacity="0.4" d="M3.47852 10.5801C3.47852 8.92322 4.82166 7.58008 6.47852 7.58008H18.4785C20.1354 7.58008 21.4785 8.92322 21.4785 10.5801V18.5801C21.4785 20.2369 20.1354 21.5801 18.4785 21.5801H6.47852C4.82166 21.5801 3.47852 20.2369 3.47852 18.5801V10.5801Z" fill="#A461D8"/>
<path fill-rule="evenodd" clip-rule="evenodd" d="M10.4785 5.58008C9.92623 5.58008 9.47852 6.02779 9.47852 6.58008V7.58008H7.47852V6.58008C7.47852 4.92322 8.82166 3.58008 10.4785 3.58008H14.4785C16.1354 3.58008 17.4785 4.92322 17.4785 6.58008V7.58008H15.4785V6.58008C15.4785 6.02779 15.0308 5.58008 14.4785 5.58008H10.4785Z" fill="#A461D8"/>
<path fill-rule="evenodd" clip-rule="evenodd" d="M12.4785 11.5801C11.9262 11.5801 11.4785 12.0278 11.4785 12.5801V13.5801H10.4785C9.92623 13.5801 9.47852 14.0278 9.47852 14.5801C9.47852 15.1324 9.92623 15.5801 10.4785 15.5801H11.4785V16.5801C11.4785 17.1324 11.9262 17.5801 12.4785 17.5801C13.0308 17.5801 13.4785 17.1324 13.4785 16.5801V15.5801H14.4785C15.0308 15.5801 15.4785 15.1324 15.4785 14.5801C15.4785 14.0278 15.0308 13.5801 14.4785 13.5801L13.4785 13.5801V12.5801C13.4785 12.0278 13.0308 11.5801 12.4785 11.5801Z" fill="#A461D8"/>
</svg>
