<svg width="25" height="25" viewBox="0 0 25 25" fill="none" xmlns="http://www.w3.org/2000/svg">
<path opacity="0.4" d="M7.84852 22.5801H17.0985C19.7885 22.5801 21.9685 20.4001 21.9685 17.7101V8.95008C21.9685 6.26008 19.7885 4.08008 17.0985 4.08008H7.84852C5.15852 4.08008 2.97852 6.26008 2.97852 8.95008V17.7001C2.97852 20.4001 5.15852 22.5801 7.84852 22.5801Z" fill="#A461D8"/>
<path d="M8.76855 6.87008C8.34855 6.87008 8.01855 6.53008 8.01855 6.12008V3.33008C8.01855 2.92008 8.34855 2.58008 8.76855 2.58008C9.18855 2.58008 9.51855 2.92008 9.51855 3.33008V6.11008C9.51855 6.53008 9.18855 6.87008 8.76855 6.87008Z" fill="#A461D8"/>
<path d="M16.1885 6.87008C15.7685 6.87008 15.4385 6.53008 15.4385 6.12008V3.33008C15.4385 2.91008 15.7785 2.58008 16.1885 2.58008C16.6085 2.58008 16.9385 2.92008 16.9385 3.33008V6.11008C16.9385 6.53008 16.6085 6.87008 16.1885 6.87008Z" fill="#A461D8"/>
<path d="M15.2584 14.291H7.83838C7.41838 14.291 7.08838 13.951 7.08838 13.541C7.08838 13.131 7.42838 12.791 7.83838 12.791H15.2584C15.6784 12.791 16.0084 13.131 16.0084 13.541C16.0084 13.951 15.6784 14.291 15.2584 14.291Z" fill="#A461D8"/>
<path d="M12.4786 18H7.83862C7.41862 18 7.08862 17.66 7.08862 17.25C7.08862 16.83 7.42862 16.5 7.83862 16.5H12.4786C12.8986 16.5 13.2286 16.84 13.2286 17.25C13.2286 17.66 12.8986 18 12.4786 18Z" fill="#A461D8"/>
</svg>
