<?xml version="1.0" standalone="no"?>
<!DOCTYPE svg PUBLIC "-//W3C//DTD SVG 1.1//EN" "http://www.w3.org/Graphics/SVG/1.1/DTD/svg11.dtd" >
<svg xmlns="http://www.w3.org/2000/svg">
<metadata>Generated by IcoMoon</metadata>
<defs>
<font id="icomoon" horiz-adv-x="1024">
<font-face units-per-em="1024" ascent="960" descent="-64" />
<missing-glyph horiz-adv-x="1024" />
<glyph unicode="&#x20;" horiz-adv-x="512" d="" />
<glyph unicode="&#xe900;" glyph-name="Calendar" d="M725.335 789.332v42.666c0 23.564 19.103 42.666 42.665 42.666 23.567 0 42.67-19.102 42.67-42.666v-42.666h42.665c70.692 0 128-57.308 128-128v-426.668c0-141.384-114.616-256-256-256h-426.666c-141.385 0-256 114.616-256 256v426.668c0 70.692 57.307 128 128 128h85.334v42.666c0 23.564 19.103 42.666 42.666 42.666s42.667-19.102 42.667-42.666v-42.666h383.999zM128.002 533.332h767.998v128c0 23.564-19.103 42.666-42.665 42.666h-42.665c0-23.564-19.103-42.666-42.67-42.666-23.562 0-42.665 19.102-42.665 42.666h-383.999c0-23.564-19.103-42.666-42.667-42.666s-42.666 19.102-42.666 42.666h-85.334c-23.564 0-42.666-19.103-42.666-42.666v-128zM128.002 448v-213.335c0-94.254 76.41-170.665 170.666-170.665h426.666c94.259 0 170.665 76.411 170.665 170.665v213.335h-767.998z" />
<glyph unicode="&#xe901;" glyph-name="Patients" d="M331.487 626.196c0 113.662 90.37 205.804 201.846 205.804 111.475 0 201.847-92.142 201.847-205.804 0-71.369-35.631-134.254-89.745-171.169 121.442-46.319 207.898-165.713 207.898-305.694v-85.333h-640v85.333c0 139.981 86.458 259.375 207.896 305.694-54.113 36.915-89.743 99.799-89.743 171.169zM533.333 510.746c62.537 0 113.229 51.689 113.229 115.45s-50.692 115.451-113.229 115.451c-62.537 0-113.231-51.689-113.231-115.451s50.694-115.45 113.231-115.45zM533.333 385.254c-126.145 0-228.713-102.925-231.333-230.903h462.668c-2.62 127.979-105.19 230.903-231.334 230.903z" />
<glyph unicode="&#xe902;" glyph-name="Analytics" d="M426.667 874.667h170.667c47.13 0 85.333-38.205 85.333-85.333v-298.667h170.667c47.13 0 85.333-38.204 85.333-85.333v-341.333c0-23.565-19.102-42.667-42.667-42.667h-768c-23.564 0-42.667 19.102-42.667 42.667v533.333c0 47.128 38.205 85.333 85.333 85.333h170.667v106.667c0 47.128 38.205 85.333 85.333 85.333zM426.667 106.667h170.667v682.667h-170.667v-682.667zM341.333 597.333h-170.667v-490.667h170.667v490.667zM682.667 106.667h170.667v298.667h-170.667v-298.667z" />
<glyph unicode="&#xe903;" glyph-name="Billings" d="M298.667 794.667c-12.73 0-24.94-5.057-33.941-14.059s-14.059-21.211-14.059-33.941v-612.907l69.958 46.635c14.807 9.873 34.524 7.919 47.107-4.663l58.935-58.935 58.935 58.935c14.579 14.579 38.217 14.579 52.796 0l58.935-58.935 58.935 58.935c12.582 12.582 32.299 14.537 47.108 4.663l69.956-46.635v612.907c0 12.73-5.056 24.94-14.059 33.941s-21.21 14.059-33.941 14.059h-426.667zM211.928 833.405c23.005 23.005 54.205 35.928 86.738 35.928h426.667c32.533 0 63.735-12.924 86.737-35.928 23.006-23.004 35.93-54.205 35.93-86.738v-682.667c0-13.769-7.578-26.419-19.716-32.917-12.139-6.494-26.871-5.781-38.327 1.856l-102.532 68.356-63.693-63.693c-14.579-14.579-38.217-14.579-52.796 0l-58.935 58.935-58.935-58.935c-14.579-14.579-38.217-14.579-52.797 0l-63.692 63.693-102.534-68.356c-11.456-7.637-26.185-8.35-38.325-1.856-12.139 6.498-19.717 19.149-19.717 32.917v682.667c0 32.533 12.924 63.734 35.928 86.738zM346.667 661.333c0 20.619 16.715 37.333 37.333 37.333h256c20.621 0 37.333-16.715 37.333-37.333s-16.713-37.333-37.333-37.333h-256c-20.619 0-37.333 16.715-37.333 37.333zM346.667 490.667c0 20.617 16.715 37.333 37.333 37.333h256c20.621 0 37.333-16.717 37.333-37.333s-16.713-37.333-37.333-37.333h-256c-20.619 0-37.333 16.717-37.333 37.333zM517.333 320c0 20.617 16.717 37.333 37.333 37.333h85.333c20.621 0 37.333-16.717 37.333-37.333s-16.713-37.333-37.333-37.333h-85.333c-20.617 0-37.333 16.717-37.333 37.333z" />
<glyph unicode="&#xe904;" glyph-name="Cancelled" d="M682.67 917.334h-341.335c-164.949 0-298.667-133.717-298.667-298.667v-341.332c0-164.951 133.718-298.665 298.667-298.665h341.335c164.946 0 298.665 133.714 298.665 298.665v341.332c0 164.95-133.719 298.667-298.665 298.667zM128.002 618.668c0 117.821 95.513 213.334 213.334 213.334h341.335c117.821 0 213.33-95.513 213.33-213.334v-341.332c0-117.821-95.508-213.335-213.33-213.335h-341.335c-117.821 0-213.334 95.514-213.334 213.335v341.332zM444.342 455.322l-90.51 90.51c-16.662 16.662-16.662 43.677 0 60.34s43.678 16.662 60.34 0l90.509-90.51 90.508 90.51c16.666 16.662 43.679 16.662 60.339 0 16.666-16.663 16.666-43.678 0-60.34l-90.506-90.51 90.506-90.511c16.666-16.66 16.666-43.674 0-60.339-16.66-16.66-43.674-16.66-60.339 0l-90.508 90.511-90.509-90.511c-16.663-16.66-43.678-16.66-60.34 0-16.662 16.666-16.662 43.679 0 60.339l90.51 90.511z" />
<glyph unicode="&#xe905;" glyph-name="Settings" d="M512 293.052c86.255 0 156.181 69.372 156.181 154.948s-69.926 154.947-156.181 154.947-156.18-69.372-156.18-154.947c0-85.577 69.924-154.948 156.18-154.948zM512 378.385c-38.754 0-70.17 31.168-70.17 69.615s31.415 69.615 70.17 69.615c38.754 0 70.17-31.168 70.17-69.615s-31.415-69.615-70.17-69.615zM388.023 817.533c12.343 58.164 64.064 99.8 123.977 99.8s111.633-41.636 123.977-99.8l2.402-11.328c45.086-15.635 86.908-39.493 123.209-70.487l10.995 3.568c56.943 18.478 119.151-5.143 149.107-56.62s19.473-116.733-25.131-156.42l-8.61-7.663c8.905-46.686 8.819-94.549-0.077-141.103l8.687-7.727c44.604-39.689 55.087-104.943 25.131-156.42s-92.164-75.098-149.107-56.619l-11.029 3.58c-17.975-15.317-37.457-29.026-58.291-40.96-20.83-11.93-42.539-21.815-64.896-29.602l-2.389-11.264c-12.343-58.167-64.064-99.802-123.977-99.802s-111.634 41.634-123.977 99.802l-2.404 11.328c-45.084 15.633-86.907 39.492-123.206 70.485l-10.995-3.567c-56.944-18.479-119.149 5.141-149.105 56.619s-19.473 116.732 25.129 156.42l8.612 7.663c-8.905 46.686-8.82 94.549 0.074 141.103l-8.687 7.727c-44.601 39.687-55.085 104.944-25.129 156.42s92.162 75.097 149.105 56.62l11.029-3.579c17.974 15.315 37.457 29.024 58.289 40.957s42.541 21.817 64.896 29.603l2.391 11.266zM512 832c-19.238 0-35.849-13.37-39.808-32.047l-7.582-35.723c-3.319-15.647-15.181-28.139-30.724-32.362-24.324-6.608-47.848-16.335-70.144-29.105s-42.548-28.119-60.478-45.713c-11.459-11.244-28.293-15.188-43.612-10.218l-34.973 11.348c-18.285 5.933-38.26-1.652-47.879-18.181s-6.253-37.484 8.069-50.227l27.462-24.436c12.005-10.682 16.977-27.13 12.88-42.601-12.964-48.964-13.102-100.459-0.079-149.504 4.111-15.479-0.86-31.94-12.873-42.633l-27.391-24.371c-14.322-12.745-17.688-33.698-8.069-50.227s29.594-24.115 47.879-18.18l34.97 11.345c15.337 4.979 32.192 1.020 43.651-10.253 36.3-35.712 81.32-61.342 130.543-74.684 15.556-4.215 27.426-16.713 30.746-32.367l7.603-35.814c3.959-18.679 20.57-32.047 39.808-32.047s35.849 13.367 39.808 32.047l7.582 35.721c3.319 15.65 15.181 28.139 30.724 32.363 24.324 6.609 47.846 16.337 70.144 29.107s42.547 28.117 60.476 45.713c11.46 11.243 28.297 15.189 43.614 10.219l34.974-11.349c18.283-5.935 38.259 1.651 47.876 18.18 9.621 16.529 6.255 37.483-8.068 50.227l-27.46 24.435c-12.006 10.684-16.977 27.132-12.881 42.603 12.962 48.964 13.103 100.459 0.077 149.504-4.109 15.48 0.862 31.942 12.873 42.631l27.392 24.373c14.323 12.744 17.69 33.698 8.068 50.227-9.617 16.529-29.594 24.114-47.876 18.181l-34.974-11.348c-15.334-4.977-32.192-1.017-43.648 10.256-36.301 35.711-81.318 61.341-130.543 74.682-15.556 4.217-27.426 16.713-30.746 32.369l-7.603 35.813c-3.959 18.677-20.57 32.047-39.808 32.047z" />
<glyph unicode="&#xe906;" glyph-name="Notification" d="M639.147 783.32c-7.569 63.47-61.581 112.68-127.091 112.68-65.506 0-119.522-49.21-127.092-112.68-106.781-48.406-181.056-155.93-181.056-280.8v-214.089l-71.275-141.205c-14.324-28.378 6.301-61.892 38.089-61.892h220.617c17.572-49.715 64.985-85.333 120.716-85.333s103.147 35.618 120.717 85.333h220.617c31.787 0 52.412 33.515 38.089 61.892l-71.275 141.205v214.089c0 124.87-74.274 232.394-181.056 280.8zM739.447 259.046l44.612-88.38h-544.007l44.611 88.38c3.010 5.965 4.577 12.548 4.577 19.226v224.247c0 123.056 99.758 222.814 222.815 222.814 123.059 0 222.814-99.758 222.814-222.814v-224.247c0-6.677 1.57-13.261 4.578-19.226z" />
<glyph unicode="&#xe907;" glyph-name="Finished" d="M522.982 385.101l339.507 430.647c14.592 18.505 41.421 21.68 59.924 7.091s21.678-41.417 7.091-59.921l-370.012-469.331c-16.092-20.413-46.536-21.816-64.437-2.98l-184.655 194.326c-16.232 17.082-15.543 44.088 1.539 60.32s44.088 15.543 60.32-1.539l150.722-158.612zM853.33 486.399c0 23.564 19.103 42.666 42.67 42.666 23.562 0 42.665-19.102 42.665-42.666v-307.199c0-87.188-70.682-157.87-157.865-157.87h-537.602c-87.187 0-157.866 70.682-157.866 157.87v537.599c0 87.187 70.679 157.866 157.866 157.866h456.532c23.567 0 42.67-19.102 42.67-42.666s-19.103-42.666-42.67-42.666h-456.532c-40.059 0-72.534-32.475-72.534-72.534v-537.599c0-40.059 32.475-72.535 72.534-72.535h537.602c40.059 0 72.53 32.476 72.53 72.535v307.199z" />
<glyph unicode="&#xe908;" glyph-name="Queue" d="M512 746.668c23.567 0 42.67-19.102 42.67-42.666v-235.132l175.529-136.524c18.596-14.464 21.949-41.272 7.48-59.873-14.464-18.601-41.272-21.949-59.873-7.48l-191.999 149.33c-10.393 8.084-16.472 20.516-16.472 33.68v256c0 23.564 19.102 42.666 42.664 42.666zM512 917.334c259.205 0 469.335-210.128 469.335-469.333s-210.13-469.331-469.335-469.331c-259.204 0-469.331 210.125-469.331 469.331s210.128 469.333 469.331 469.333zM512 832.001c-212.076 0-383.998-171.922-383.998-384s171.922-384.001 383.998-384.001c212.081 0 384 171.924 384 384.001s-171.919 384-384 384z" />
<glyph unicode="&#xe909;" glyph-name="List" d="M354.131 375.465v145.068h-183.467v-145.068h183.467zM439.464 375.465h413.865v145.068h-413.865v-145.068zM354.131 789.332h-140.8c-23.564 0-42.667-19.103-42.667-42.667v-140.8h183.467v183.467zM439.464 789.332v-183.467h413.865v140.8c0 23.564-19.103 42.667-42.665 42.667h-371.201zM354.131 106.665v183.465h-183.467v-140.8c0-23.562 19.103-42.665 42.667-42.665h140.8zM439.464 106.665h371.201c23.562 0 42.665 19.103 42.665 42.665v140.8h-413.865v-183.465zM85.331 149.33v597.336c0 70.693 57.307 128 128 128h597.334c70.692 0 128-57.307 128-128v-597.336c0-70.692-57.308-128-128-128h-597.334c-70.693 0-128 57.308-128 128z" />
<glyph unicode="&#xe90a;" glyph-name="More" d="M298.667 448c0 47.13-38.205 85.333-85.333 85.333s-85.333-38.204-85.333-85.333c0-47.13 38.205-85.333 85.333-85.333s85.333 38.204 85.333 85.333zM597.333 448c0 47.13-38.204 85.333-85.333 85.333s-85.333-38.204-85.333-85.333c0-47.13 38.204-85.333 85.333-85.333s85.333 38.204 85.333 85.333zM896 448c0 47.13-38.204 85.333-85.333 85.333s-85.333-38.204-85.333-85.333c0-47.13 38.204-85.333 85.333-85.333s85.333 38.204 85.333 85.333z" />
<glyph unicode="&#xe90b;" glyph-name="Add" d="M554.665 490.666h298.67c23.562 0 42.665-19.102 42.665-42.666 0-23.562-19.103-42.665-42.665-42.665h-298.67v-298.67c0-23.562-19.103-42.665-42.665-42.665-23.564 0-42.666 19.103-42.666 42.665v298.67h-298.667c-23.564 0-42.666 19.103-42.666 42.665 0 23.564 19.103 42.666 42.666 42.666h298.667v298.667c0 23.564 19.102 42.666 42.666 42.666 23.562 0 42.665-19.103 42.665-42.666v-298.667z" />
<glyph unicode="&#xe90c;" glyph-name="Contract" d="M256 752h90.667v-608h-90.667c-12.73 0-24.94 5.056-33.941 14.059s-14.059 21.21-14.059 33.941v512c0 12.73 5.057 24.94 14.059 33.941s21.211 14.059 33.941 14.059zM421.333 752h346.667c12.732 0 24.939-5.057 33.941-14.059s14.059-21.211 14.059-33.941v-512c0-12.732-5.056-24.939-14.059-33.941s-21.21-14.059-33.941-14.059h-346.667v608zM256 69.333h512c32.533 0 63.735 12.924 86.737 35.93 23.006 23.002 35.93 54.204 35.93 86.737v512c0 32.533-12.924 63.734-35.93 86.738-23.002 23.005-54.204 35.928-86.737 35.928h-512c-32.533 0-63.734-12.924-86.738-35.928s-35.928-54.205-35.928-86.738v-512c0-32.533 12.924-63.735 35.928-86.737 23.004-23.006 54.205-35.93 86.738-35.93zM666.398 506.935l-58.935-58.935 58.935-58.935c14.579-14.579 14.579-38.217 0-52.796s-38.217-14.579-52.796 0l-85.333 85.333c-14.579 14.579-14.579 38.217 0 52.796l85.333 85.334c14.579 14.58 38.217 14.58 52.796 0s14.579-38.217 0-52.797z" />
<glyph unicode="&#xe90d;" glyph-name="Expand" d="M256 752h346.667v-608h-346.667c-12.73 0-24.94 5.056-33.941 14.059s-14.059 21.21-14.059 33.941v512c0 12.73 5.057 24.94 14.059 33.941s21.211 14.059 33.941 14.059zM768 752c12.732 0 24.939-5.057 33.941-14.059s14.059-21.211 14.059-33.941v-512c0-12.732-5.056-24.939-14.059-33.941s-21.21-14.059-33.941-14.059h-90.667v608h90.667zM256 69.333h512c32.533 0 63.735 12.924 86.737 35.93 23.006 23.002 35.93 54.204 35.93 86.737v512c0 32.533-12.924 63.734-35.93 86.738-23.002 23.005-54.204 35.928-86.737 35.928h-512c-32.533 0-63.734-12.924-86.738-35.928s-35.928-54.205-35.928-86.738v-512c0-32.533 12.924-63.735 35.928-86.737 23.004-23.006 54.205-35.93 86.738-35.93zM357.601 389.065l58.935 58.935-58.935 58.935c-14.58 14.579-14.58 38.217 0 52.797s38.218 14.58 52.797 0l85.332-85.334c14.579-14.579 14.579-38.217 0-52.796l-85.332-85.333c-14.58-14.579-38.218-14.579-52.797 0s-14.58 38.217 0 52.796z" />
<glyph unicode="&#xe90e;" glyph-name="Print" d="M297.262 833.405c-23.005-23.005-35.928-54.205-35.928-86.738v-133.333h-48c-32.533 0-63.734-12.924-86.738-35.928s-35.928-54.205-35.928-86.738v-170.667c0-32.533 12.924-63.735 35.928-86.737 23.004-23.006 54.205-35.93 86.738-35.93h48v-48c0-32.533 12.924-63.735 35.928-86.737 23.004-23.006 54.205-35.93 86.738-35.93h256c32.533 0 63.735 12.924 86.737 35.93 23.006 23.002 35.93 54.204 35.93 86.737v48h48c32.533 0 63.735 12.924 86.737 35.93 23.006 23.002 35.93 54.204 35.93 86.737v170.667c0 32.533-12.924 63.734-35.93 86.738-23.002 23.005-54.204 35.928-86.737 35.928h-48v133.333c0 32.533-12.924 63.734-35.93 86.738-23.002 23.005-54.204 35.928-86.737 35.928h-256c-32.533 0-63.734-12.924-86.738-35.928zM336 234.667v85.333c0 12.732 5.057 24.939 14.059 33.941s21.211 14.059 33.941 14.059h256c12.732 0 24.939-5.056 33.941-14.059s14.059-21.21 14.059-33.941v-170.667c0-12.732-5.056-24.939-14.059-33.941s-21.21-14.059-33.941-14.059h-256c-12.73 0-24.94 5.056-33.941 14.059s-14.059 21.21-14.059 33.941v85.333zM762.667 272v48c0 32.533-12.924 63.735-35.93 86.737-23.002 23.006-54.204 35.93-86.737 35.93h-256c-32.533 0-63.734-12.924-86.738-35.93-23.005-23.002-35.928-54.204-35.928-86.737v-48h-48c-12.73 0-24.94 5.056-33.941 14.059s-14.059 21.21-14.059 33.941v170.667c0 12.732 5.057 24.939 14.059 33.941 9.002 9.001 21.211 14.059 33.941 14.059h597.333c12.732 0 24.939-5.057 33.941-14.059s14.059-21.21 14.059-33.941v-170.667c0-12.732-5.056-24.939-14.059-33.941s-21.21-14.059-33.941-14.059h-48zM688 746.667v-133.333h-352v133.333c0 12.73 5.057 24.94 14.059 33.941s21.211 14.059 33.941 14.059h256c12.732 0 24.939-5.057 33.941-14.059s14.059-21.211 14.059-33.941z" />
<glyph unicode="&#xe90f;" glyph-name="Visit-Summary-with-unfilled" d="M170.667 618.667c0 70.692 57.308 128 128 128h426.667c70.694 0 128-57.308 128-128v-469.333c0-70.694-57.306-128-128-128h-426.667c-70.692 0-128 57.306-128 128v469.333zM298.667 661.333c-23.564 0-42.667-19.103-42.667-42.667v-469.333c0-23.565 19.103-42.667 42.667-42.667h426.667c23.565 0 42.667 19.102 42.667 42.667v469.333c0 23.564-19.102 42.667-42.667 42.667h-426.667zM640 362.667h-256v85.333h256v-85.333zM469.333 277.333v256h85.333v-256h-85.333zM512 789.333c-47.13 0-85.333-38.205-85.333-85.333h-85.333c0 94.257 76.41 170.667 170.667 170.667 94.255 0 170.667-76.41 170.667-170.667h-85.333c0 47.128-38.204 85.333-85.333 85.333z" />
<glyph unicode="&#xe910;" glyph-name="Medical-Certificate" d="M521.387 734.211c107.925 0 195.486-86.113 195.486-192.43 0-21.93-17.997-39.709-40.192-39.709-22.199 0-40.196 17.779-40.196 39.709 0 62.376-51.49 113.014-115.098 113.014-22.199 0-40.192 17.777-40.192 39.708s17.993 39.708 40.192 39.708zM782.874 427.593c24.431 41.698 38.409 90.078 38.409 141.679 0 156.924-129.276 284.062-288.661 284.062-159.382 0-288.661-127.139-288.661-284.062 0-52.211 14.312-101.128 39.283-143.159l-86.915-234.859c-4.816-13.013-5.633-27.119-2.349-40.546 9.205-37.632 47.651-60.621 85.871-51.341l44.925 10.906 29.090-39.108c7.606-10.227 17.897-18.206 29.775-23.091 36.213-14.895 77.971 2.044 93.271 37.828l56.422 131.968 56.422-131.968c15.3-35.785 57.058-52.723 93.274-37.828 11.874 4.885 22.165 12.864 29.773 23.091l29.090 39.108 44.924-10.906c38.221-9.28 76.668 13.709 85.871 51.341 3.285 13.427 2.466 27.533-2.347 40.546l-87.467 236.339zM589.355 290.692l68.143-159.386 51.072 68.659 80.247-19.482-65.092 175.885c-37.419-32.55-83.486-55.697-134.37-65.677zM277.85 180.484l64.744 174.955c37.551-32.341 83.692-55.258 134.611-64.998l-68.036-159.134-51.072 68.659-80.247-19.482zM532.621 364.625c-115.067 0-208.274 91.661-208.274 204.646 0 112.983 93.207 204.647 208.274 204.647s208.277-91.664 208.277-204.647c0-112.985-93.21-204.646-208.277-204.646z" />
<glyph unicode="&#xe911;" glyph-name="Discharge-Summary" d="M256 874.667h512c94.255 0 170.667-76.41 170.667-170.667v-512c0-94.255-76.412-170.667-170.667-170.667h-512c-94.257 0-170.667 76.412-170.667 170.667v512c0 94.257 76.41 170.667 170.667 170.667zM256 789.333c-47.128 0-85.333-38.205-85.333-85.333v-512c0-47.13 38.205-85.333 85.333-85.333h512c47.13 0 85.333 38.204 85.333 85.333v512c0 47.128-38.204 85.333-85.333 85.333h-512zM328.837 691.503l12.497-12.497 55.163 55.164c16.663 16.662 43.678 16.662 60.34 0s16.661-43.677 0-60.34l-85.333-85.333c-16.663-16.662-43.677-16.662-60.34 0l-42.667 42.667c-16.662 16.663-16.662 43.677 0 60.34s43.677 16.662 60.34 0zM554.615 618.667c-23.565 0.029-42.645 19.156-42.615 42.72s19.157 42.643 42.718 42.614l169.873-0.211c23.561-0.029 42.641-19.156 42.611-42.72s-19.153-42.643-42.718-42.613l-169.869 0.211zM554.615 405.333c-23.565 0.030-42.645 19.157-42.615 42.718 0.030 23.565 19.157 42.645 42.718 42.615l169.873-0.209c23.561-0.030 42.641-19.157 42.611-42.722s-19.153-42.641-42.718-42.611l-169.869 0.209zM554.615 192c-23.565 0.030-42.645 19.157-42.615 42.718 0.030 23.565 19.157 42.645 42.718 42.615l169.873-0.209c23.561-0.030 42.641-19.157 42.611-42.722s-19.153-42.641-42.718-42.611l-169.869 0.209zM328.837 478.17l12.497-12.497 55.163 55.164c16.663 16.663 43.678 16.663 60.34 0 16.661-16.661 16.661-43.678 0-60.339l-85.333-85.333c-16.663-16.661-43.677-16.661-60.34 0l-42.667 42.667c-16.662 16.661-16.662 43.678 0 60.339s43.677 16.661 60.34 0zM328.837 264.836l12.497-12.497 55.163 55.164c16.663 16.661 43.678 16.661 60.34 0s16.661-43.678 0-60.339l-85.333-85.333c-16.663-16.661-43.677-16.661-60.34 0l-42.667 42.667c-16.662 16.661-16.662 43.678 0 60.339s43.677 16.661 60.34 0z" />
<glyph unicode="&#xe912;" glyph-name="Report" d="M256 917.333h406.682c25.327 0 49.344-11.249 65.557-30.704l190.647-228.781c12.783-15.336 19.78-34.667 19.78-54.629v-453.886c0-94.255-76.412-170.667-170.667-170.667h-512c-94.257 0-170.667 76.412-170.667 170.667v597.333c0 94.257 76.41 170.667 170.667 170.667zM853.333 149.333v426.667h-128c-47.13 0-85.333 38.205-85.333 85.333v170.667h-384c-47.128 0-85.333-38.205-85.333-85.333v-597.333c0-47.13 38.205-85.333 85.333-85.333h512c47.13 0 85.333 38.204 85.333 85.333zM804.907 661.333l-79.573 95.486v-95.486h79.573zM341.333 362.667c-23.564 0-42.667 19.102-42.667 42.667s19.103 42.667 42.667 42.667h341.333c23.565 0 42.667-19.102 42.667-42.667s-19.102-42.667-42.667-42.667h-341.333zM341.333 192c-23.564 0-42.667 19.102-42.667 42.667s19.103 42.667 42.667 42.667h256c23.565 0 42.667-19.102 42.667-42.667s-19.102-42.667-42.667-42.667h-256zM341.333 533.333c-23.564 0-42.667 19.102-42.667 42.667s19.103 42.667 42.667 42.667h128c23.565 0 42.667-19.103 42.667-42.667s-19.102-42.667-42.667-42.667h-128z" />
<glyph unicode="&#xe913;" glyph-name="Edit" d="M751.974 595.28l42.056 42.055-92.692 92.696-42.056-42.056 92.692-92.696zM698.906 542.207l-92.698 92.696-346.761-346.76-21.335-114.033 114.031 21.335 346.763 346.762zM849.347 688.166c28.073-28.073 28.073-73.589 0-101.662l-452.346-452.345c-5.351-5.35-12.195-8.96-19.635-10.353l-179.318-33.546c-25.93-4.854-48.641 17.859-43.789 43.786l33.55 179.318c1.392 7.439 5 14.285 10.352 19.635l452.347 452.345c28.073 28.073 73.585 28.073 101.658 0l97.183-97.179zM833.050 89.6h-302.561c-49.802 0-49.802 75.453 0 75.453h302.561c49.802 0 49.802-75.453 0-75.453z" />
<glyph unicode="&#xe914;" glyph-name="arrow---left" d="M430.805 448.006l219.794 219.796c19.996 19.995 19.996 52.413 0 72.408-19.991 19.995-52.412 19.995-72.402 0l-256.002-256c-19.995-19.995-19.995-52.413 0-72.408l256.002-256c19.991-19.996 52.412-19.996 72.402 0 19.996 19.996 19.996 52.412 0 72.408l-219.794 219.796z" />
<glyph unicode="&#xe915;" glyph-name="reload" d="M170.667 794.839c0 20.524 16.467 37.161 36.781 37.161s36.781-16.637 36.781-37.161v-78.272c112.774 116.615 289.289 149.915 438.272 76.499 188.625-92.948 266.953-322.786 174.955-513.361-91.998-190.571-319.484-269.713-508.109-176.764-75.333 37.12-135.641 97.502-172.962 172.655-9.11 18.342-1.777 40.674 16.38 49.877s40.26 1.796 49.37-16.55c30.102-60.612 78.656-109.218 139.46-139.183 152.107-74.953 335.557-11.136 409.745 142.545s11.021 339.026-141.086 413.981c-133.376 65.724-292.587 24.989-379.516-92.458h132.876c20.314 0 36.78-16.637 36.78-37.161s-16.467-37.161-36.78-37.161h-196.165c-20.314 0-36.781 16.637-36.781 37.161v2.791c-0.008 0.595 0 195.4 0 195.4z" />
<glyph unicode="&#xe916;" glyph-name="Search" d="M210.109 747.779c-143.612-146.429-143.612-383.839 0-530.266s376.454-146.427 520.065 0c143.616 146.427 143.616 383.837 0 530.266-143.611 146.428-376.452 146.428-520.065 0zM266.885 689.889c112.255 114.458 294.257 114.458 406.513 0s112.256-300.027 0-414.484c-112.256-114.458-294.257-114.458-406.513 0s-112.256 300.027 0 414.484zM909.117 109.23l-165.786 169.032c-37.847 38.595-94.623-19.297-56.776-57.887l165.786-169.037c37.852-38.595 94.628 19.297 56.776 57.892z" />
<glyph unicode="&#xe917;" glyph-name="Preview" d="M90.026 472c78.688 193.251 241.034 317.333 421.974 317.333s343.287-124.082 421.973-317.333c6.259-15.364 6.259-32.636 0-48-78.686-193.25-241.033-317.333-421.973-317.333s-343.286 124.083-421.974 317.333c-6.257 15.364-6.257 32.636 0 48zM512 185.613c145.877 0 279.625 100.817 347.729 262.387-68.105 161.568-201.852 262.385-347.729 262.385-145.879 0-279.627-100.817-347.729-262.385 68.103-161.57 201.85-262.387 347.729-262.387zM512 292.425c-84.429 0-152.87 69.653-152.87 155.575s68.441 155.574 152.87 155.574 152.87-69.653 152.87-155.574c0-85.922-68.442-155.575-152.87-155.575zM512 371.375c41.583 0 75.294 34.304 75.294 76.625s-33.711 76.625-75.294 76.625c-41.583 0-75.294-34.304-75.294-76.625s33.711-76.625 75.294-76.625z" />
<glyph unicode="&#xe918;" glyph-name="Consult" d="M459.853 960c-62.867 0-123.158-24.973-167.611-69.426s-69.427-104.745-69.427-167.61c0-62.866 24.974-123.158 69.427-167.611s104.744-69.426 167.611-69.426c62.865 0 123.157 24.973 167.607 69.426 44.454 44.453 69.427 104.745 69.427 167.611s-24.973 123.157-69.427 167.61c-44.45 44.453-104.742 69.426-167.607 69.426zM359.285 823.529c26.672 26.672 62.847 41.656 100.567 41.656 37.717 0 73.894-14.984 100.565-41.656s41.655-62.847 41.655-100.566c0-37.72-14.985-73.895-41.655-100.567s-62.848-41.656-100.565-41.656c-37.721 0-73.895 14.984-100.567 41.656s-41.656 62.847-41.656 100.567c0 37.719 14.984 73.894 41.656 100.566zM264.471 254.639c26.672 26.675 62.847 41.655 100.567 41.655h189.629c26.18 0 47.407 21.227 47.407 47.411 0 26.18-21.227 47.407-47.407 47.407h-189.629c-62.866 0-123.158-24.977-167.611-69.427-44.453-44.454-69.426-104.747-69.426-167.612v-94.814c0-26.185 21.225-47.407 47.407-47.407s47.407 21.222 47.407 47.407v94.814c0 37.722 14.984 73.894 41.656 100.565zM819.473 201.481h-169.993c-26.18 0-47.407-21.222-47.407-47.407 0-26.18 21.227-47.407 47.407-47.407h169.993l-61.291-61.291c-18.513-18.517-18.513-48.533 0-67.046s48.529-18.513 67.042 0l142.225 142.221c4.544 4.548 7.974 9.783 10.287 15.377 2.317 5.589 3.597 11.721 3.597 18.146 0 6.481-1.301 12.655-3.652 18.283-2.261 5.414-5.568 10.492-9.924 14.929-0.119 0.119-0.235 0.239-0.354 0.358l-142.178 142.174c-18.513 18.513-48.529 18.513-67.042 0s-18.513-48.529 0-67.042l61.291-61.295z" />
<glyph unicode="&#xe919;" glyph-name="Cross" d="M572.339 448.002l211.19-211.191c16.66-16.66 16.66-43.674 0-60.339-16.66-16.66-43.679-16.66-60.339 0l-211.19 211.19-211.189-211.19c-16.663-16.66-43.677-16.66-60.34 0-16.663 16.666-16.663 43.679 0 60.339l211.189 211.191-211.189 211.189c-16.663 16.662-16.663 43.677 0 60.34s43.677 16.662 60.34 0l211.189-211.189 211.19 211.189c16.66 16.662 43.679 16.662 60.339 0s16.66-43.678 0-60.34l-211.19-211.189z" />
<glyph unicode="&#xe91a;" glyph-name="phone" d="M416.237 496.925c-7.322 7.707-8.663 25.609 0.798 46.863 35.468 94.807 40.279 112.4 17.551 136.325l-145.893 153.571c-28.018 29.493-72.536 21.985-100.063-6.991-107.787-113.46-107.787-296.598 0-410.059l272.534-286.876c108.902-114.634 286.367-114.634 395.272 0 26.619 28.025 33.215 71.34 6.64 99.312l-145.893 153.573c-24.452 25.74-41.068 20.701-132.198-16.988-21.014-10.262-35.426-9.070-41.83-2.328l-126.917 133.599zM795.4 182.93c-77.183-78.568-199.4-77.732-275.626 2.506l-272.534 286.878c-76.385 80.405-78.105 210.422-5.162 293.062l121.495-127.89-0.28-1.033c-3.813-13.941-10.857-34.767-21.056-62.095-20.789-46.518-16.845-99.183 15.389-133.114l126.917-133.598c33.152-34.897 85.781-39.262 133.769-15.597 22.242 9.108 41.106 16.217 54.143 20.302l122.945-129.423zM580.716 520.749c0 17.859-14.476 32.337-32.337 32.337-22.324 0-40.421 18.097-40.421 40.421s18.097 40.421 40.421 40.421c62.507 0 113.179-50.672 113.179-113.179 0-22.324-18.098-40.421-40.421-40.421s-40.421 18.097-40.421 40.421zM548.379 662.223c78.131 0 141.474-63.34 141.474-141.474 0-22.324 18.098-40.421 40.421-40.421s40.421 18.097 40.421 40.421c0 122.781-99.533 222.316-222.316 222.316-22.324 0-40.421-18.097-40.421-40.421s18.097-40.421 40.421-40.421zM798.989 520.749c0 138.408-112.203 250.611-250.611 250.611-22.324 0-40.421 18.097-40.421 40.421s18.097 40.421 40.421 40.421c183.059 0 331.453-148.396 331.453-331.453 0-22.324-18.098-40.421-40.421-40.421s-40.421 18.097-40.421 40.421z" />
<glyph unicode="&#xe91b;" glyph-name="Id" d="M229.053 448c0 22.324 18.097 40.421 40.421 40.421h161.684c22.324 0 40.421-18.097 40.421-40.421v-202.105c0-22.323-18.097-40.421-40.421-40.421h-161.684c-22.324 0-40.421 18.098-40.421 40.421v202.105zM309.895 407.579v-121.263h80.842v121.263h-80.842zM91.962 745.594c15.91 16.364 37.734 25.775 60.739 25.775h269.474c22.324 0 40.421-18.097 40.421-40.421s-18.097-40.421-40.421-40.421h-269.474c-0.818 0-1.84-0.323-2.776-1.286-0.973-1.001-1.715-2.596-1.715-4.488v-554.348c0-1.892 0.742-3.487 1.715-4.484 0.936-0.965 1.959-1.288 2.776-1.288h718.598c0.814 0 1.838 0.323 2.776 1.288 0.97 0.997 1.714 2.592 1.714 4.484v554.348c0 1.893-0.744 3.488-1.714 4.488-0.938 0.963-1.962 1.286-2.776 1.286h-269.474c-22.323 0-40.423 18.097-40.423 40.421s18.099 40.421 40.423 40.421h269.474c23.002 0 44.83-9.411 60.739-25.775 15.872-16.326 24.592-38.231 24.592-60.842v-554.348c0-22.609-8.72-44.512-24.592-60.842-15.91-16.362-37.737-25.772-60.739-25.772h-718.598c-23.005 0-44.83 9.41-60.739 25.772-15.872 16.33-24.594 38.233-24.594 60.842v554.348c0 22.61 8.722 44.516 24.594 60.842zM473.79 811.789c-0.968-1.355-2.211-4.16-2.211-8.084v-145.516c0-3.925 1.243-6.729 2.211-8.084h76.42c0.968 1.355 2.211 4.16 2.211 8.084v145.516c0 3.925-1.243 6.729-2.211 8.084h-76.42zM411.944 863.88c14.352 17.223 35.568 28.751 59.635 28.751h80.842c24.064 0 45.282-11.529 59.635-28.751 14.174-17.007 21.208-38.732 21.208-60.175v-145.516c0-21.443-7.033-43.168-21.208-60.175-14.352-17.223-35.571-28.751-59.635-28.751h-80.842c-24.066 0-45.282 11.529-59.635 28.751-14.173 17.007-21.208 38.732-21.208 60.175v145.516c0 21.443 7.035 43.168 21.208 60.175zM552.421 245.895c0 22.323 18.098 40.421 40.421 40.421h80.842c22.323 0 40.421-18.098 40.421-40.421s-18.098-40.421-40.421-40.421h-80.842c-22.323 0-40.421 18.098-40.421 40.421zM552.421 448c0 22.324 18.098 40.421 40.421 40.421h202.105c22.323 0 40.421-18.097 40.421-40.421s-18.098-40.421-40.421-40.421h-202.105c-22.323 0-40.421 18.097-40.421 40.421z" />
<glyph unicode="&#xe91c;" glyph-name="save" d="M878.933 644.267l-170.667 170.667c-8.533 8.533-17.067 12.8-25.6 12.8h-426.667c-34.133 0-64-12.8-85.333-38.4s-38.4-51.2-38.4-85.333v-512c0-34.133 12.8-64 34.133-85.333s55.467-34.133 85.333-34.133h512c34.133 0 64 12.8 85.333 34.133s34.133 55.467 34.133 85.333v426.667c8.533 8.533 4.267 21.333-4.267 25.6zM379.733 750.933h179.2v-93.867h-179.2v93.867zM814.933 192c0-12.8-4.267-25.6-12.8-34.133s-21.333-12.8-34.133-12.8h-512c-12.8 0-25.6 4.267-34.133 12.8s-12.8 21.333-12.8 34.133v512c0 12.8 4.267 25.6 12.8 34.133s21.333 12.8 34.133 12.8h46.933v-132.267c0-21.333 17.067-38.4 38.4-38.4h256c21.333 0 38.4 17.067 38.4 38.4v132.267h34.133l149.333-149.333v-409.6zM426.667 448c-21.333-21.333-34.133-55.467-34.133-85.333s12.8-64 34.133-85.333c21.333-21.333 55.467-34.133 85.333-34.133s64 12.8 85.333 34.133c21.333 21.333 34.133 55.467 34.133 85.333s-12.8 64-34.133 85.333c-46.933 46.933-123.733 46.933-170.667 0zM546.133 328.533c-17.067-17.067-51.2-17.067-68.267 0-8.533 8.533-12.8 21.333-12.8 34.133s4.267 25.6 12.8 34.133c8.533 8.533 21.333 12.8 34.133 12.8s25.6-4.267 34.133-12.8c8.533-8.533 12.8-21.333 12.8-34.133s-4.267-25.6-12.8-34.133z" />
<glyph unicode="&#xe91d;" glyph-name="template" d="M822.857 832h-621.713c-40.338 0-73.143-32.805-73.143-73.143v-621.713c0-40.337 32.805-73.143 73.143-73.143h621.713c40.32 0 73.143 32.806 73.143 73.143v621.713c0 40.338-32.823 73.143-73.143 73.143zM822.857 539.429h-329.143v219.428h329.143v-219.428zM201.143 758.857h219.428v-621.713h-219.428v621.713zM493.713 137.143v329.143h329.161l0.021-329.143h-329.182z" />
<glyph unicode="&#xe91e;" glyph-name="camera" d="M323.66 807.006c16.003 16.003 37.708 24.994 60.34 24.994h256c22.63 0 44.335-8.99 60.339-24.994s24.994-37.708 24.994-60.34c0-11.316 4.497-22.168 12.497-30.17s18.854-12.497 30.17-12.497h42.667c33.95 0 66.505-13.486 90.509-37.49s37.491-56.562 37.491-90.51v-384c0-33.95-13.487-66.505-37.491-90.509s-56.559-37.491-90.509-37.491h-597.333c-33.948 0-66.505 13.487-90.51 37.491s-37.49 56.563-37.49 90.509v384c0 33.948 13.486 66.505 37.49 90.51s56.562 37.49 90.51 37.49h42.667c11.316 0 22.168 4.495 30.17 12.497s12.497 18.854 12.497 30.17c0 22.632 8.99 44.337 24.994 60.34zM640 746.667h-256c0-33.948-13.486-66.505-37.49-90.51s-56.562-37.49-90.51-37.49h-42.667c-11.316 0-22.168-4.495-30.17-12.497s-12.497-18.854-12.497-30.17v-384c0-11.315 4.495-22.17 12.497-30.17s18.854-12.497 30.17-12.497h597.333c11.315 0 22.17 4.497 30.17 12.497s12.497 18.854 12.497 30.17v384c0 11.316-4.497 22.168-12.497 30.17s-18.854 12.497-30.17 12.497h-42.667c-33.946 0-66.505 13.486-90.509 37.49s-37.491 56.562-37.491 90.51zM391.32 526.012c32.006 32.007 75.415 49.988 120.68 49.988s88.674-17.981 120.678-49.988c32.009-32.004 49.988-75.413 49.988-120.678s-17.98-88.674-49.988-120.678c-32.004-32.009-75.413-49.988-120.678-49.988s-88.673 17.98-120.68 49.988c-32.006 32.004-49.987 75.413-49.987 120.678s17.981 88.674 49.987 120.678zM512 490.667c-22.63 0-44.335-8.99-60.339-24.994s-24.994-37.709-24.994-60.339c0-22.63 8.99-44.335 24.994-60.339s37.709-24.994 60.339-24.994c22.63 0 44.335 8.99 60.339 24.994s24.994 37.709 24.994 60.339c0 22.63-8.99 44.335-24.994 60.339s-37.709 24.994-60.339 24.994z" />
<glyph unicode="&#xe91f;" glyph-name="minus" horiz-adv-x="975" d="M528.252 488.619h284.448c22.44 0 40.633-18.194 40.633-40.634 0-22.445-18.193-40.638-40.633-40.638h-650.161c-22.442 0-40.635 18.193-40.635 40.638 0 22.44 18.193 40.634 40.635 40.634h365.713z" />
<glyph unicode="&#xe920;" glyph-name="delete" d="M326.972 759.465l28.676 86.026c5.808 17.423 22.112 29.174 40.477 29.174h230.399c18.365 0 34.668-11.751 40.479-29.174l28.672-86.026h199.649c23.562 0 42.665-19.102 42.665-42.666s-19.103-42.666-42.665-42.666h-36.567l-31.314-532.319c-3.978-67.656-60.006-120.484-127.78-120.484h-376.678c-67.773 0-123.799 52.828-127.779 120.484l-31.313 532.319h-35.89c-23.564 0-42.666 19.102-42.666 42.666s19.102 42.666 42.666 42.666h198.968zM416.921 759.465h188.806l-9.953 29.867h-168.897l-9.956-29.867zM773.274 674.132h-523.899l31.018-527.306c1.327-22.554 20.002-40.161 42.593-40.161h376.678c22.589 0 41.267 17.608 42.593 40.161l31.017 527.306zM583.941 565.86c1.469 23.518 21.724 41.392 45.245 39.922 23.516-1.47 41.39-21.727 39.921-45.245l-19.2-307.2c-1.469-23.516-21.724-41.39-45.245-39.921-23.516 1.469-41.39 21.724-39.921 45.245l19.2 307.198zM457.908 258.662c1.47-23.521-16.404-43.776-39.922-45.245s-43.775 16.404-45.245 39.921l-19.2 307.2c-1.47 23.518 16.403 43.775 39.922 45.245s43.775-16.404 45.245-39.922l19.2-307.198z" />
<glyph unicode="&#xe921;" glyph-name="download" d="M170.667 282.667c26.51 0 48-21.491 48-48v-85.333c0-9.903 3.933-19.396 10.935-26.398s16.497-10.935 26.399-10.935h512c9.903 0 19.396 3.934 26.398 10.935s10.935 16.495 10.935 26.398v85.333c0 26.509 21.491 48 48 48s48-21.491 48-48v-85.333c0-35.362-14.046-69.278-39.053-94.281-25.003-25.007-58.918-39.053-94.281-39.053h-512c-35.362 0-69.276 14.046-94.281 39.053-25.005 25.003-39.052 58.918-39.052 94.281v85.333c0 26.509 21.49 48 48 48zM478.059 243.392c18.743-18.743 49.139-18.743 67.883 0l213.333 213.333c18.743 18.743 18.743 49.139 0 67.883-18.743 18.745-49.139 18.745-67.883 0l-179.392-179.392-179.392 179.392c-18.745 18.745-49.137 18.745-67.883 0-18.745-18.743-18.745-49.139 0-67.883l213.333-213.333zM512 229.333c26.509 0 48 21.491 48 48v512c0 26.51-21.491 48-48 48s-48-21.49-48-48v-512c0-26.509 21.491-48 48-48z" />
</font>
</defs>
</svg>
