<svg width="43" height="42" viewBox="0 0 43 42" fill="none" xmlns="http://www.w3.org/2000/svg">
<g id="vuesax/bulk/briefcase">
<g id="briefcase">
<path id="Vector" d="M37.4073 12.2142C35.9198 10.5692 33.4348 9.74668 29.8298 9.74668H29.4098V9.67668C29.4098 6.73668 29.4098 3.09668 22.8298 3.09668H20.1698C13.5898 3.09668 13.5898 6.75418 13.5898 9.67668V9.76418H13.1698C9.54732 9.76418 7.07982 10.5867 5.59232 12.2317C3.85982 14.1567 3.91232 16.7467 4.08732 18.5142L4.10482 18.6367L4.27982 20.4742C4.29732 20.4917 4.33232 20.5267 4.36732 20.5442C4.94482 20.9292 5.53982 21.3142 6.16982 21.6642C6.41482 21.8217 6.67732 21.9617 6.93982 22.1017C9.93232 23.7467 13.2223 24.8492 16.5648 25.3917C16.7223 27.0367 17.4398 28.9617 21.2723 28.9617C25.1048 28.9617 25.8573 27.0542 25.9798 25.3567C29.5498 24.7792 32.9973 23.5367 36.1123 21.7167C36.2173 21.6642 36.2873 21.6117 36.3748 21.5592C37.1798 21.1042 37.9323 20.6142 38.6673 20.0717C38.7023 20.0542 38.7373 20.0192 38.7548 19.9842L38.8248 19.3542L38.9123 18.5317C38.9298 18.4267 38.9298 18.3392 38.9473 18.2167C39.0873 16.4492 39.0523 14.0342 37.4073 12.2142ZM23.4073 24.2017C23.4073 26.0567 23.4073 26.3367 21.2548 26.3367C19.1023 26.3367 19.1023 26.0042 19.1023 24.2192V22.0142H23.4073V24.2017ZM16.0923 9.74668V9.67668C16.0923 6.70168 16.0923 5.59918 20.1698 5.59918H22.8298C26.9073 5.59918 26.9073 6.71918 26.9073 9.67668V9.76418H16.0923V9.74668Z" fill="#625616"/>
<path id="Vector_2" opacity="0.4" d="M36.3753 21.5262C36.2878 21.5787 36.2003 21.6312 36.1128 21.6837C32.9978 23.5037 29.5503 24.7287 25.9803 25.3237C25.8403 27.0037 25.1053 28.9287 21.2728 28.9287C17.4403 28.9287 16.7053 27.0212 16.5653 25.3587C13.2228 24.8337 9.93277 23.7312 6.94027 22.0687C6.67777 21.9287 6.41527 21.7887 6.17027 21.6312C5.54027 21.2812 4.94527 20.8962 4.36777 20.5112C4.33277 20.4937 4.29777 20.4587 4.28027 20.4412L5.34777 31.8337C5.71527 35.3162 7.15027 38.9037 14.8503 38.9037H28.1853C35.8853 38.9037 37.3203 35.3162 37.6878 31.8162L38.7903 19.9512C38.7728 19.9862 38.7378 20.0212 38.7028 20.0387C37.9503 20.5812 37.1803 21.0887 36.3753 21.5262Z" fill="#625616"/>
</g>
</g>
</svg>
