<svg width="42" height="42" viewBox="0 0 42 42" fill="none" xmlns="http://www.w3.org/2000/svg">
<g id="vuesax/bulk/clipboard-text">
<g id="clipboard-text">
<path id="Vector" opacity="0.4" d="M28.4203 6.38867H13.5803C9.25781 6.38867 5.75781 9.90617 5.75781 14.2112V30.6787C5.75781 34.9837 9.27531 38.5012 13.5803 38.5012H28.4028C32.7253 38.5012 36.2253 34.9837 36.2253 30.6787V14.2112C36.2428 9.88867 32.7253 6.38867 28.4203 6.38867Z" fill="#E3E3FF"/>
<path id="Vector_2" d="M25.1126 3.5H16.8876C15.0676 3.5 13.5801 4.97 13.5801 6.79V8.435C13.5801 10.255 15.0501 11.725 16.8701 11.725H25.1126C26.9326 11.725 28.4026 10.255 28.4026 8.435V6.79C28.4201 4.97 26.9326 3.5 25.1126 3.5Z" fill="#E3E3FF"/>
<path id="Vector_3" d="M26.25 22.6631H14C13.2825 22.6631 12.6875 22.0681 12.6875 21.3506C12.6875 20.6331 13.2825 20.0381 14 20.0381H26.25C26.9675 20.0381 27.5625 20.6331 27.5625 21.3506C27.5625 22.0681 26.9675 22.6631 26.25 22.6631Z" fill="#E3E3FF"/>
<path id="Vector_4" d="M21.665 29.6631H14C13.2825 29.6631 12.6875 29.0681 12.6875 28.3506C12.6875 27.6331 13.2825 27.0381 14 27.0381H21.665C22.3825 27.0381 22.9775 27.6331 22.9775 28.3506C22.9775 29.0681 22.3825 29.6631 21.665 29.6631Z" fill="#E3E3FF"/>
</g>
</g>
</svg>
