<svg width="24" height="25" viewBox="0 0 24 25" fill="none" xmlns="http://www.w3.org/2000/svg">
<path d="M16 13.1412V17.3412C16 20.8412 14.6 22.2412 11.1 22.2412H6.9C3.4 22.2412 2 20.8412 2 17.3412V13.1412C2 9.64121 3.4 8.24121 6.9 8.24121H11.1C14.6 8.24121 16 9.64121 16 13.1412Z" fill="white"/>
<path d="M17.0998 2.24121H12.8998C9.81668 2.24121 8.37074 3.3353 8.06951 5.98022C8.00649 6.53356 8.46476 6.99121 9.02167 6.99121H11.0998C15.2998 6.99121 17.2498 8.94121 17.2498 13.1412V15.2193C17.2498 15.7762 17.7074 16.2345 18.2608 16.1715C20.9057 15.8702 21.9998 14.4243 21.9998 11.3412V7.14121C21.9998 3.64121 20.5998 2.24121 17.0998 2.24121Z" fill="white"/>
</svg>
