<svg width="42" height="42" viewBox="0 0 42 42" fill="none" xmlns="http://www.w3.org/2000/svg">
<g id="ddx">
<path id="Rectangle 6" d="M10.5 7L26.25 5.25L29.75 9.625L33.25 14.875L31.5 36.75H10.5V7Z" fill="#544166"/>
<path id="Vector" d="M34.545 12.8278L26.775 4.07781C26.6114 3.89653 26.4116 3.75149 26.1886 3.65203C25.9656 3.55257 25.7242 3.50089 25.48 3.50031H11.48C10.8986 3.49338 10.3215 3.60104 9.78163 3.81716C9.2418 4.03328 8.74983 4.35362 8.33382 4.75988C7.9178 5.16615 7.58589 5.65038 7.35703 6.18493C7.12817 6.71948 7.00685 7.29388 7 7.87531V34.1253C7.00685 34.7068 7.12817 35.2811 7.35703 35.8157C7.58589 36.3502 7.9178 36.8345 8.33382 37.2407C8.74983 37.647 9.2418 37.9673 9.78163 38.1835C10.3215 38.3996 10.8986 38.5072 11.48 38.5003H30.52C31.1014 38.5072 31.6785 38.3996 32.2184 38.1835C32.7582 37.9673 33.2502 37.647 33.6662 37.2407C34.0822 36.8345 34.4141 36.3502 34.643 35.8157C34.8718 35.2811 34.9931 34.7068 35 34.1253V14.0003C34.9989 13.5666 34.8367 13.1488 34.545 12.8278ZM15.75 21.0003H21C21.4641 21.0003 21.9092 21.1847 22.2374 21.5129C22.5656 21.8411 22.75 22.2862 22.75 22.7503C22.75 23.2144 22.5656 23.6596 22.2374 23.9878C21.9092 24.3159 21.4641 24.5003 21 24.5003H15.75C15.2859 24.5003 14.8408 24.3159 14.5126 23.9878C14.1844 23.6596 14 23.2144 14 22.7503C14 22.2862 14.1844 21.8411 14.5126 21.5129C14.8408 21.1847 15.2859 21.0003 15.75 21.0003ZM26.25 31.5003H15.75C15.2859 31.5003 14.8408 31.3159 14.5126 30.9878C14.1844 30.6596 14 30.2144 14 29.7503C14 29.2862 14.1844 28.8411 14.5126 28.5129C14.8408 28.1847 15.2859 28.0003 15.75 28.0003H26.25C26.7141 28.0003 27.1592 28.1847 27.4874 28.5129C27.8156 28.8411 28 29.2862 28 29.7503C28 30.2144 27.8156 30.6596 27.4874 30.9878C27.1592 31.3159 26.7141 31.5003 26.25 31.5003ZM25.7425 14.0003C25.3817 13.9648 25.0493 13.789 24.8169 13.5108C24.5845 13.2325 24.4707 12.8741 24.5 12.5128V7.00031L31.045 14.0003H25.7425Z" fill="#A281B9"/>
<path id="Shape" fill-rule="evenodd" clip-rule="evenodd" d="M38.5 8.16582C38.5 8.1658 38.5 8.16579 38.5 8.16578C38.5 5.58894 36.3845 3.5 33.775 3.5C32.5648 3.5 31.4609 3.94924 30.625 4.68805C29.7891 3.94924 28.6852 3.5 27.475 3.5C24.8655 3.5 22.75 5.58894 22.75 8.16578C22.75 8.1658 22.75 8.16582 22.75 8.16585C22.75 13.8823 28.0038 16.5689 29.9289 17.3615C30.3773 17.5462 30.8727 17.5462 31.3211 17.3615C33.2462 16.5689 38.5 13.8823 38.5 8.16582Z" fill="#544166"/>
<path id="Shape_2" d="M38.5 9.72222H34.7595L33.7656 7.4714C33.6394 7.18542 33.3496 7 33.0291 7C32.7085 7 32.4188 7.18542 32.2925 7.4714L30.625 11.2478L30.1595 10.1936C30.0333 9.90764 29.7435 9.72222 29.423 9.72222H22.75C22.8508 10.2738 23.0034 10.7919 23.197 11.2778H28.8946L29.8884 13.5286C30.0147 13.8146 30.3044 14 30.625 14C30.9456 14 31.2353 13.8146 31.3616 13.5286L33.0291 9.75224L33.4945 10.8064C33.6208 11.0924 33.9105 11.2778 34.2311 11.2778H38.053C38.2466 10.7919 38.3992 10.2738 38.5 9.72222Z" fill="#A281B9"/>
</g>
</svg>
