<svg width="42" height="42" viewBox="0 0 42 42" fill="none" xmlns="http://www.w3.org/2000/svg">
<g id="vuesax/bulk/document-cloud">
<g id="document-cloud">
<g id="Group">
<path id="Vector" opacity="0.4" d="M35.875 17.8325H30.8175C26.67 17.8325 23.2925 14.455 23.2925 10.3075V5.25C23.2925 4.2875 22.505 3.5 21.5425 3.5H14.1225C8.7325 3.5 4.375 7.00001 4.375 13.2475V28.7525C4.375 35 8.7325 38.5 14.1225 38.5H27.8775C33.2675 38.5 37.625 35 37.625 28.7525V19.5825C37.625 18.62 36.8375 17.8325 35.875 17.8325Z" fill="#544166"/>
<path id="Vector_2" d="M27.6495 3.86835C26.932 3.15085 25.6895 3.64083 25.6895 4.63833V10.7458C25.6895 13.3008 27.8595 15.4183 30.502 15.4183C32.1645 15.4358 34.4745 15.4358 36.452 15.4358C37.4495 15.4358 37.9745 14.2633 37.2745 13.5633C34.7545 11.0258 30.2395 6.45835 27.6495 3.86835Z" fill="#544166"/>
</g>
<g id="Group_2">
<path id="Vector_3" d="M25.8285 33.7052C21.716 34.0027 21.716 39.9527 25.8285 40.2502H35.5585C36.731 40.2502 37.886 39.8127 38.7435 39.0252C41.631 36.5052 40.091 31.4652 36.2935 30.9927C34.9285 22.7852 23.0635 25.9002 25.8635 33.7227" fill="#544166"/>
</g>
</g>
</g>
</svg>
