<svg width="42" height="42" viewBox="0 0 42 42" fill="none" xmlns="http://www.w3.org/2000/svg">
<g id="Examination">
<path id="Shape" d="M5.25 17.5C5.25 14.6005 7.60051 12.25 10.5 12.25H31.5C34.3995 12.25 36.75 14.6005 36.75 17.5V31.5C36.75 34.3995 34.3995 36.75 31.5 36.75H10.5C7.60051 36.75 5.25 34.3995 5.25 31.5V17.5Z" fill="#E3E3FF" fill-opacity="0.4"/>
<path id="Shape_2" fill-rule="evenodd" clip-rule="evenodd" d="M17.5 8.75C16.5335 8.75 15.75 9.5335 15.75 10.5V12.25H12.25V10.5C12.25 7.60051 14.6005 5.25 17.5 5.25H24.5C27.3995 5.25 29.75 7.60051 29.75 10.5V12.25H26.25V10.5C26.25 9.5335 25.4665 8.75 24.5 8.75H17.5Z" fill="#E3E3FF"/>
<path id="Shape_3" fill-rule="evenodd" clip-rule="evenodd" d="M21 19.25C20.0335 19.25 19.25 20.0335 19.25 21V22.75H17.5C16.5335 22.75 15.75 23.5335 15.75 24.5C15.75 25.4665 16.5335 26.25 17.5 26.25H19.25V28C19.25 28.9665 20.0335 29.75 21 29.75C21.9665 29.75 22.75 28.9665 22.75 28V26.25H24.5C25.4665 26.25 26.25 25.4665 26.25 24.5C26.25 23.5335 25.4665 22.75 24.5 22.75L22.75 22.75V21C22.75 20.0335 21.9665 19.25 21 19.25Z" fill="#E3E3FF"/>
</g>
</svg>
