<svg width="42" height="43" viewBox="0 0 42 43" fill="none" xmlns="http://www.w3.org/2000/svg">
<g id="vuesax/bulk/graph">
<g id="graph">
<g id="graph_2">
<path id="Vector" d="M37.9237 12.8216C36.8038 9.02413 33.6362 5.85663 29.8387 4.73663C26.9512 3.89663 24.9563 3.96663 23.5738 4.99913C21.9113 6.24163 21.7188 8.48163 21.7188 10.0741V14.4316C21.7188 18.7366 23.6787 20.9241 27.5287 20.9241H32.5513C34.1263 20.9241 36.3837 20.7316 37.6263 19.0691C38.6938 17.7041 38.7812 15.7091 37.9237 12.8216Z" fill="#E3E3FF"/>
<path id="Vector_2" opacity="0.4" d="M33.0939 24.0382C32.6389 23.5132 31.9739 23.2157 31.2914 23.2157H25.0264C21.9464 23.2157 19.4439 20.7132 19.4439 17.6332V11.3682C19.4439 10.6857 19.1464 10.0207 18.6214 9.56572C18.1139 9.11072 17.4139 8.90072 16.7489 8.98822C12.6364 9.51322 8.85641 11.7707 6.38891 15.1657C3.90391 18.5782 2.99391 22.7432 3.78141 26.9082C4.91891 32.9282 9.73141 37.7407 15.7689 38.8782C16.7314 39.0707 17.6939 39.1582 18.6564 39.1582C21.8239 39.1582 24.8864 38.1782 27.4939 36.2707C30.8889 33.8032 33.1464 30.0232 33.6714 25.9107C33.7589 25.2282 33.5489 24.5457 33.0939 24.0382Z" fill="#E3E3FF"/>
</g>
</g>
</g>
</svg>
