<svg width="42" height="43" viewBox="0 0 42 43" fill="none" xmlns="http://www.w3.org/2000/svg">
<g id="vuesax/bulk/health">
<g id="health">
<path id="Vector" opacity="0.4" d="M38.5 14.3277V25.1602H31.36C30.1875 25.1602 28.805 24.3202 28.2625 23.2877L26.4425 19.8402C25.9525 18.9127 25.2525 18.9652 24.8675 19.9277L20.8425 30.0952C20.405 31.2327 19.67 31.2327 19.215 30.0952L17.22 25.0552C16.7475 23.8302 15.2775 22.8327 13.965 22.8327L3.5 22.8852V14.3277C3.5 7.95766 7.2975 4.16016 13.6675 4.16016H28.3325C34.7025 4.16016 38.5 7.95766 38.5 14.3277Z" fill="#E3E3FF"/>
<path id="Vector_2" d="M38.5 28.9923V25.1598H31.36C30.1875 25.1598 28.805 24.3198 28.2625 23.2873L26.4425 19.8398C25.9525 18.9123 25.2525 18.9648 24.8675 19.9273L20.8425 30.0948C20.405 31.2323 19.67 31.2323 19.215 30.0948L17.22 25.0548C16.7475 23.8298 15.2775 22.8323 13.965 22.8323L3.5 22.8848V28.9923C3.5 35.2573 7.175 39.0373 13.3525 39.1423C13.545 39.1598 13.755 39.1598 13.9475 39.1598H27.9475C28.21 39.1598 28.4725 39.1598 28.7175 39.1423C34.86 39.0023 38.5 35.2398 38.5 28.9923Z" fill="#E3E3FF"/>
<path id="Vector_3" d="M3.50172 22.8848V28.6773C3.46672 28.1173 3.44922 27.5223 3.44922 26.9098V22.8848H3.50172Z" fill="#E3E3FF"/>
</g>
</g>
</svg>
