<svg width="42" height="42" viewBox="0 0 42 42" fill="none" xmlns="http://www.w3.org/2000/svg">
<g id="vuesax/bulk/lamp-charge">
<g id="lamp-charge">
<path id="Vector" opacity="0.4" d="M33.6173 11.1297C31.7973 7.45465 28.2798 4.74215 24.2023 3.84965C19.9323 2.90465 15.5573 3.91965 12.2148 6.61465C8.85477 9.29215 6.94727 13.2997 6.94727 17.5872C6.94727 22.1197 9.65977 26.8622 13.7548 29.6097V31.0622C13.7373 31.5522 13.7198 32.3047 14.3148 32.9172C14.9273 33.5472 15.8373 33.6172 16.5548 33.6172H25.5323C26.4773 33.6172 27.1948 33.3547 27.6848 32.8647C28.3498 32.1822 28.3323 31.3072 28.3148 30.8347V29.6097C33.7398 25.9522 37.1523 18.2347 33.6173 11.1297Z" fill="#544166"/>
<path id="Vector_2" d="M26.7045 38.5012C26.5995 38.5012 26.477 38.4837 26.372 38.4487C22.8545 37.4512 19.162 37.4512 15.6445 38.4487C14.997 38.6237 14.3145 38.2562 14.1395 37.6087C13.947 36.9612 14.332 36.2787 14.9795 36.1037C18.9345 34.9837 23.0995 34.9837 27.0545 36.1037C27.702 36.2962 28.087 36.9612 27.8945 37.6087C27.7195 38.1512 27.2295 38.5012 26.7045 38.5012Z" fill="#544166"/>
<path id="Vector_3" d="M21.0006 24.239C20.7731 24.239 20.5456 24.1865 20.3531 24.064C19.7231 23.6965 19.5131 22.8915 19.8631 22.279L21.3506 19.689H19.8806C19.0056 19.689 18.2881 19.304 17.9031 18.6565C17.5181 17.9915 17.5531 17.1865 17.9906 16.4165L19.8631 13.1615C20.2306 12.5315 21.0356 12.3215 21.6481 12.6715C22.2781 13.039 22.4881 13.844 22.1381 14.4565L20.6506 17.064H22.1206C22.9956 17.064 23.7131 17.449 24.0981 18.0965C24.4831 18.7615 24.4481 19.5665 24.0106 20.3365L22.1381 23.5915C21.8931 24.0115 21.4556 24.239 21.0006 24.239Z" fill="#544166"/>
</g>
</g>
</svg>
