<svg width="21" height="54" viewBox="0 0 21 54" fill="none" xmlns="http://www.w3.org/2000/svg">
<path d="M3.60417 43.3721C3.8817 43.472 5.38038 42.7393 7.48962 41.4738C14.6944 37.1331 14.761 37.7104 14.761 36.9222C14.761 36.0785 14.4501 36.2006 9.67658 38.7761C4.55888 41.5404 2.62725 42.9946 3.60417 43.3721Z" fill="white"/>
<path d="M15.9379 44.1162C16.0822 44.2605 16.2044 44.1828 16.7595 43.6721C17.581 42.9062 17.9251 41.6295 17.3146 41.6295C16.815 41.6406 15.616 43.7943 15.9379 44.1162Z" fill="white"/>
<path d="M19.5015 45.9257C17.7252 51.2765 17.2812 53.1304 17.6586 53.7632C17.9584 54.285 18.1804 53.9741 18.5467 52.5199C18.8465 51.2765 19.5348 49.0118 20.2785 46.7916C20.8891 44.971 20.9557 44.5492 20.767 44.0385C20.4895 43.3391 20.223 43.7499 19.5015 45.9257Z" fill="white"/>
<path d="M0.929413 34.6031C1.19584 34.703 3.72683 34.1369 5.29212 33.6373C5.66956 33.5152 6.66868 33.271 7.50127 33.0933C9.12206 32.7603 9.21098 32.7048 9.21098 32.072C9.21098 31.4725 9.23308 31.4725 6.52436 32.1941C1.80631 33.4486 -0.0252988 34.2368 0.929413 34.6031Z" fill="white"/>
<path d="M12.5742 47.7237C13.3513 46.8689 14.0284 46.6025 14.0284 45.781C14.0284 44.46 13.9396 44.4045 12.3521 45.9808C9.41029 48.9005 7.36765 51.698 7.7451 52.2974C8.12254 52.8636 9.488 50.71 12.5742 47.7237Z" fill="white"/>
<path d="M10.1544 7.51557C9.44392 6.67187 8.71123 6.11681 8.31159 6.11681C7.75652 6.11681 7.58989 6.80509 8.02284 7.39346C10.8759 11.3122 15.05 15.2754 15.6161 14.6204C16.1712 13.9765 15.7493 13.3216 12.9407 10.4574C11.7085 9.19187 10.4541 7.87081 10.1544 7.51557Z" fill="white"/>
<path d="M1.23978 23.0134C2.36101 23.3575 5.00313 23.7127 10.5871 25.1004C11.6972 25.3779 11.7193 25.3779 12.0523 25.0227C12.3188 24.7341 12.4188 24.179 12.2412 23.9015C12.0969 23.6683 4.32594 21.8144 1.65053 21.3704C0.607008 21.215 -0.047969 22.6248 1.23978 23.0134Z" fill="white"/>
<path d="M14.7616 2.5088C15.7052 5.88359 18.1806 12.0337 18.7468 12.3779C19.1354 12.6221 19.5128 11.6341 19.2797 10.968L18.3916 8.4924C17.0261 4.68465 15.0279 -9.91821e-05 14.7725 -9.91821e-05C14.2508 0.0110016 14.2509 0.688182 14.7616 2.5088Z" fill="white"/>
<path d="M3.36084 14.6765C3.68278 14.8652 4.55978 15.4314 6.92436 17.141C7.99008 17.9181 10.2103 19.2058 10.4768 19.2058C11.0096 19.2058 9.16682 17.696 5.48119 15.1205C4.6819 14.5655 3.93811 14.0104 3.8271 13.8772C3.28313 13.2777 2.76137 14.3212 3.36084 14.6765Z" fill="white"/>
</svg>
