<svg width="18" height="19" viewBox="0 0 18 19" fill="none" xmlns="http://www.w3.org/2000/svg">
<g clip-path="url(#clip0_677_36879)">
<path d="M8.99966 11.6707C7.38495 11.6707 6.08789 10.3736 6.08789 8.75893C6.08789 7.14423 7.38495 5.84717 8.99966 5.84717C10.6144 5.84717 11.9114 7.14423 11.9114 8.75893C11.9114 10.3736 10.6144 11.6707 8.99966 11.6707ZM8.99966 7.1707C8.12613 7.1707 7.41142 7.8854 7.41142 8.75893C7.41142 9.63246 8.12613 10.3472 8.99966 10.3472C9.87318 10.3472 10.5879 9.63246 10.5879 8.75893C10.5879 7.8854 9.87318 7.1707 8.99966 7.1707Z" fill="white"/>
<path d="M9.00013 17.2825C8.44424 17.2825 7.88836 17.0707 7.46483 16.6472L4.28836 13.4707C1.69424 10.8766 1.69424 6.64132 4.28836 4.0472C5.55895 2.77661 7.2266 2.08838 9.00013 2.08838C10.7737 2.08838 12.4413 2.77661 13.7119 4.0472C16.306 6.64132 16.306 10.8766 13.7119 13.4707L10.5354 16.6472C10.1119 17.0707 9.55601 17.2825 9.00013 17.2825ZM9.00013 3.41191C7.62366 3.41191 6.27366 3.94132 5.21483 4.97367C3.12366 7.06485 3.12366 10.4531 5.21483 12.5178L8.3913 15.6943C8.70895 16.0119 9.23836 16.0119 9.58248 15.6943L12.7589 12.5178C14.8501 10.4266 14.8501 7.03838 12.7589 4.97367C11.7266 3.94132 10.3766 3.41191 9.00013 3.41191Z" fill="white"/>
</g>
<defs>
<clipPath id="clip0_677_36879">
<rect width="18" height="18" fill="white" transform="translate(0 0.5)"/>
</clipPath>
</defs>
</svg>
