<svg width="24" height="21" viewBox="0 0 24 21" fill="none" xmlns="http://www.w3.org/2000/svg">
<path d="M19.4339 17.2709C19.2498 17.5814 19.3206 18.804 19.5189 18.9787C19.8163 19.231 20.3687 19.1823 20.4679 18.901C20.7795 18.0374 19.8446 16.5626 19.4339 17.2709Z" fill="url(#paint0_linear_612_85222)"/>
<path d="M4.02383 5.28726C3.93884 5.71415 3.98136 6.82028 4.00969 7.48007C4.02386 7.68383 4.25047 7.83908 4.53375 7.85848C5.35527 7.907 5.52524 6.83968 5.00117 5.08349C4.8737 4.64686 4.13714 4.79241 4.02383 5.28726Z" fill="url(#paint1_linear_612_85222)"/>
<path d="M7.30893 4.38514C8.52703 4.38514 9.20691 4.25903 9.20691 4.02616C9.20691 3.72537 8.1871 3.64773 6.65738 3.81268C5.01436 4.00674 5.45344 4.38514 7.30893 4.38514Z" fill="url(#paint2_linear_612_85222)"/>
<path d="M3.99588 0.0872457C3.65595 0.184274 3.75509 3.19214 4.09503 3.31827C5.02987 3.65787 5.44063 3.27949 5.32731 2.23158C5.0582 0.0484437 4.93072 -0.174731 3.99588 0.0872457Z" fill="url(#paint3_linear_612_85222)"/>
<path d="M1.19074 3.79412C0.241751 3.87175 0.000976562 3.93963 0.000976562 4.14339C0.000976562 4.46358 2.83378 4.5412 3.49949 4.24041C4.29267 3.88141 3.06039 3.63888 1.19074 3.79412Z" fill="url(#paint4_linear_612_85222)"/>
<path d="M19.5889 16.0092C19.8438 15.9898 20.0421 15.854 20.0421 15.6793C20.1129 14.5344 20.1696 13.7775 19.1356 14.0589C18.9373 14.1171 18.8948 14.8352 19.0506 15.592C19.1498 16.0286 19.1639 16.0383 19.5889 16.0092Z" fill="url(#paint5_linear_612_85222)"/>
<path d="M20.7087 16.4272C20.2696 16.5534 20.3121 16.7862 20.7937 16.8541C21.2186 16.922 22.89 16.7571 23.2157 16.6213C23.8106 16.3593 21.5585 16.1847 20.7087 16.4272Z" fill="url(#paint6_linear_612_85222)"/>
<path d="M18.7679 16.417C18.3147 16.3006 18.2156 16.3006 17.4932 16.4461C16.4026 16.6693 16.8558 16.9701 18.1164 16.8536C18.9946 16.776 19.3062 16.5625 18.7679 16.417Z" fill="url(#paint7_linear_612_85222)"/>
<path d="M17.1249 11.8475C17.479 11.44 17.3657 10.9257 16.8699 10.6055C15.6376 9.8099 14.4479 8.4515 13.7538 7.04459C13.3572 6.25866 12.3091 3.10526 12.3091 2.70745C12.3091 2.2029 11.5017 1.9506 10.9918 2.29991C10.8785 2.37753 10.7369 2.71716 10.6944 3.05676C10.4253 4.76446 8.95223 8.63586 8.11655 9.8002C7.70579 10.3727 6.85595 10.9257 5.96362 11.1974C5.19876 11.4303 5.19876 11.4691 6.14775 12.0319C8.03156 13.1574 9.41964 15.3793 10.397 18.853C11.2751 21.9676 12.819 20.9585 12.649 20.3278C12.2949 19.1052 14.377 15.0009 16.7566 12.2647L17.1249 11.8475ZM15.3119 11.4497C13.938 12.6528 12.4507 14.5352 11.7425 15.9809L11.4168 16.6601L11.2326 16.0294C9.94371 11.7505 7.32336 11.537 7.04008 11.3527C7.35169 11.1295 10.1703 9.91663 11.4734 7.12221C11.87 6.27807 11.7992 6.27807 12.1816 7.0737C12.904 8.57764 13.9096 9.8002 15.0711 10.6152L15.7368 11.081L15.3119 11.4497Z" fill="url(#paint8_linear_612_85222)"/>
<defs>
<linearGradient id="paint0_linear_612_85222" x1="19.9287" y1="17.0842" x2="19.9287" y2="19.1427" gradientUnits="userSpaceOnUse">
<stop stop-color="#4544C5"/>
<stop offset="1" stop-color="#A41BF0"/>
</linearGradient>
<linearGradient id="paint1_linear_612_85222" x1="4.63696" y1="4.82397" x2="4.63696" y2="7.86007" gradientUnits="userSpaceOnUse">
<stop stop-color="#4544C5"/>
<stop offset="1" stop-color="#A41BF0"/>
</linearGradient>
<linearGradient id="paint2_linear_612_85222" x1="7.42328" y1="3.72778" x2="7.42328" y2="4.38514" gradientUnits="userSpaceOnUse">
<stop stop-color="#4544C5"/>
<stop offset="1" stop-color="#A41BF0"/>
</linearGradient>
<linearGradient id="paint3_linear_612_85222" x1="4.56542" y1="0" x2="4.56542" y2="3.43939" gradientUnits="userSpaceOnUse">
<stop stop-color="#4544C5"/>
<stop offset="1" stop-color="#A41BF0"/>
</linearGradient>
<linearGradient id="paint4_linear_612_85222" x1="1.87253" y1="3.74634" x2="1.87253" y2="4.42933" gradientUnits="userSpaceOnUse">
<stop stop-color="#4544C5"/>
<stop offset="1" stop-color="#A41BF0"/>
</linearGradient>
<linearGradient id="paint5_linear_612_85222" x1="19.5159" y1="14" x2="19.5159" y2="16.0189" gradientUnits="userSpaceOnUse">
<stop stop-color="#4544C5"/>
<stop offset="1" stop-color="#A41BF0"/>
</linearGradient>
<linearGradient id="paint6_linear_612_85222" x1="21.8594" y1="16.3115" x2="21.8594" y2="16.8699" gradientUnits="userSpaceOnUse">
<stop stop-color="#4544C5"/>
<stop offset="1" stop-color="#A41BF0"/>
</linearGradient>
<linearGradient id="paint7_linear_612_85222" x1="17.9557" y1="16.333" x2="17.9557" y2="16.8795" gradientUnits="userSpaceOnUse">
<stop stop-color="#4544C5"/>
<stop offset="1" stop-color="#A41BF0"/>
</linearGradient>
<linearGradient id="paint8_linear_612_85222" x1="11.371" y1="2.13794" x2="11.371" y2="21.0004" gradientUnits="userSpaceOnUse">
<stop stop-color="#4544C5"/>
<stop offset="1" stop-color="#A41BF0"/>
</linearGradient>
</defs>
</svg>
