<svg width="35" height="36" viewBox="0 0 35 36" fill="none" xmlns="http://www.w3.org/2000/svg">
<path fill-rule="evenodd" clip-rule="evenodd" d="M22.313 27.6375C23.1666 24.337 23.921 20.9741 24.6454 17.6448C22.9268 18.431 21.4449 19.413 19.9017 20.5072C19.0505 19.1003 17.2822 17.2267 15.9896 16.2222C14.4949 17.7066 13.4144 19.0676 12.2295 20.7614C10.9327 19.7297 9.63264 18.9218 8.11426 18.2421C8.62488 21.397 9.34098 24.4982 10.2334 27.5665C12.0212 26.9555 13.1996 27.0028 14.7998 26.9555C17.5497 26.8741 19.592 27.1225 22.313 27.6375Z" stroke="url(#paint0_linear_612_85155)" stroke-width="1.94444" stroke-miterlimit="1.5" stroke-linecap="round" stroke-linejoin="round"/>
<path d="M1.17285 16.8506C1.99706 17.1572 2.81279 17.4947 3.64279 17.7848" stroke="url(#paint1_linear_612_85155)" stroke-width="1.94444" stroke-miterlimit="1.5" stroke-linecap="round" stroke-linejoin="round"/>
<path d="M9.17969 7.62207C9.52562 8.53623 9.94166 9.42037 10.3006 10.3285" stroke="url(#paint2_linear_612_85155)" stroke-width="1.94444" stroke-miterlimit="1.5" stroke-linecap="round" stroke-linejoin="round"/>
<path d="M20.0879 10.2329C20.7796 9.09572 21.3537 7.89211 22.0424 6.75342" stroke="url(#paint3_linear_612_85155)" stroke-width="1.94444" stroke-miterlimit="1.5" stroke-linecap="round" stroke-linejoin="round"/>
<path d="M30.0791 17.6734C31.2833 17.1386 32.5171 16.6129 33.6699 15.9719" stroke="url(#paint4_linear_612_85155)" stroke-width="1.94444" stroke-miterlimit="1.5" stroke-linecap="round" stroke-linejoin="round"/>
<defs>
<linearGradient id="paint0_linear_612_85155" x1="16.3798" y1="16.2222" x2="16.3798" y2="27.6375" gradientUnits="userSpaceOnUse">
<stop stop-color="#5D39D0"/>
<stop offset="1" stop-color="#A41BF0"/>
</linearGradient>
<linearGradient id="paint1_linear_612_85155" x1="2.40782" y1="16.8506" x2="2.40782" y2="17.7848" gradientUnits="userSpaceOnUse">
<stop stop-color="#5D39D0"/>
<stop offset="1" stop-color="#A41BF0"/>
</linearGradient>
<linearGradient id="paint2_linear_612_85155" x1="9.74015" y1="7.62207" x2="9.74015" y2="10.3285" gradientUnits="userSpaceOnUse">
<stop stop-color="#5D39D0"/>
<stop offset="1" stop-color="#A41BF0"/>
</linearGradient>
<linearGradient id="paint3_linear_612_85155" x1="21.0652" y1="6.75342" x2="21.0652" y2="10.2329" gradientUnits="userSpaceOnUse">
<stop stop-color="#5D39D0"/>
<stop offset="1" stop-color="#A41BF0"/>
</linearGradient>
<linearGradient id="paint4_linear_612_85155" x1="31.8745" y1="15.9719" x2="31.8745" y2="17.6734" gradientUnits="userSpaceOnUse">
<stop stop-color="#5D39D0"/>
<stop offset="1" stop-color="#A41BF0"/>
</linearGradient>
</defs>
</svg>
