<svg width="43" height="42" viewBox="0 0 43 42" fill="none" xmlns="http://www.w3.org/2000/svg">
<g id="Medication">
<path id="Shape" d="M26.75 15.75C26.75 21.549 22.049 26.25 16.25 26.25C10.451 26.25 5.75 21.549 5.75 15.75C5.75 9.95101 10.451 5.25 16.25 5.25C22.049 5.25 26.75 9.95101 26.75 15.75Z" fill="#A281B9"/>
<path id="Shape_2" fill-rule="evenodd" clip-rule="evenodd" d="M32.1025 18.4226C32.4852 18.0399 32.4328 17.4026 31.9632 17.1335C30.4271 16.2532 28.6473 15.75 26.75 15.75C20.951 15.75 16.25 20.451 16.25 26.25C16.25 28.1473 16.7532 29.9271 17.6335 31.4632C17.9026 31.9328 18.5399 31.9852 18.9226 31.6025L32.1025 18.4226ZM35.8665 21.0368C35.5974 20.5672 34.9601 20.5148 34.5774 20.8975L21.3975 34.0774C21.0148 34.4601 21.0672 35.0974 21.5368 35.3665C23.0729 36.2468 24.8527 36.75 26.75 36.75C32.549 36.75 37.25 32.049 37.25 26.25C37.25 24.3527 36.7468 22.5729 35.8665 21.0368Z" fill="#544166"/>
</g>
</svg>
