<svg width="42" height="43" viewBox="0 0 42 43" fill="none" xmlns="http://www.w3.org/2000/svg">
<g id="vuesax/bulk/messages">
<g id="messages">
<path id="Vector" opacity="0.4" d="M31.465 19.5427V26.5427C31.465 26.9977 31.4475 27.4352 31.395 27.8552C30.9925 32.5802 28.21 34.9251 23.0825 34.9251H22.3825C21.945 34.9251 21.525 35.1351 21.2625 35.4851L19.1625 38.2852C18.235 39.5277 16.73 39.5277 15.8025 38.2852L13.7025 35.4851C13.475 35.1876 12.9675 34.9251 12.5825 34.9251H11.8825C6.30001 34.9251 3.5 33.5427 3.5 26.5427V19.5427C3.5 14.4152 5.86251 11.6327 10.57 11.2302C10.99 11.1777 11.4275 11.1602 11.8825 11.1602H23.0825C28.665 11.1602 31.465 13.9602 31.465 19.5427Z" fill="#E3E3FF"/>
<g id="Group">
<path id="Vector_2" d="M17.4844 25.1602C16.5044 25.1602 15.7344 24.3727 15.7344 23.4102C15.7344 22.4477 16.5219 21.6602 17.4844 21.6602C18.4469 21.6602 19.2344 22.4477 19.2344 23.4102C19.2344 24.3727 18.4644 25.1602 17.4844 25.1602Z" fill="#E3E3FF"/>
</g>
<g id="Group_2">
<path id="Vector_3" d="M23.6094 25.1602C22.6294 25.1602 21.8594 24.3727 21.8594 23.4102C21.8594 22.4477 22.6469 21.6602 23.6094 21.6602C24.5719 21.6602 25.3594 22.4477 25.3594 23.4102C25.3594 24.3727 24.5719 25.1602 23.6094 25.1602Z" fill="#E3E3FF"/>
</g>
<g id="Group_3">
<path id="Vector_4" d="M11.375 25.1602C10.395 25.1602 9.625 24.3727 9.625 23.4102C9.625 22.4477 10.4125 21.6602 11.375 21.6602C12.3375 21.6602 13.125 22.4477 13.125 23.4102C13.125 24.3727 12.3375 25.1602 11.375 25.1602Z" fill="#E3E3FF"/>
</g>
<path id="Vector_5" d="M38.4653 12.5427V19.5427C38.4653 24.6877 36.1028 27.4527 31.3953 27.8552C31.4478 27.4352 31.4653 26.9977 31.4653 26.5427V19.5427C31.4653 13.9602 28.6653 11.1602 23.0828 11.1602H11.8828C11.4278 11.1602 10.9903 11.1777 10.5703 11.2302C10.9728 6.52267 13.7553 4.16016 18.8828 4.16016H30.0828C35.6653 4.16016 38.4653 6.96017 38.4653 12.5427Z" fill="#E3E3FF"/>
</g>
</g>
</svg>
