<svg width="43" height="42" viewBox="0 0 43 42" fill="none" xmlns="http://www.w3.org/2000/svg">
<g id="vuesax/bulk/messages">
<g id="messages">
<path id="Vector" opacity="0.4" d="M30.25 15.75C30.25 22.5225 24.37 28 17.125 28L15.4975 29.96L14.535 31.1151C13.7125 32.0951 12.1375 31.885 11.595 30.7125L9.25 25.55C6.065 23.31 4 19.7575 4 15.75C4 8.9775 9.88 3.5 17.125 3.5C22.41 3.5 26.9775 6.42251 29.025 10.6225C29.8125 12.18 30.25 13.9125 30.25 15.75Z" fill="#625616"/>
<path id="Vector_2" d="M39.0005 22.5055C39.0005 26.513 36.9355 30.0656 33.7505 32.3056L31.4055 37.468C30.863 38.6405 29.288 38.8681 28.4655 37.8706L25.8755 34.7555C21.6405 34.7555 17.8605 32.883 15.498 29.9605L17.1255 28.0005C24.3705 28.0005 30.2505 22.523 30.2505 15.7505C30.2505 13.913 29.813 12.1805 29.0255 10.623C34.748 11.9355 39.0005 16.7655 39.0005 22.5055Z" fill="#625616"/>
<g id="Group">
<path id="Vector_3" d="M21.5 17.0625H12.75C12.0325 17.0625 11.4375 16.4675 11.4375 15.75C11.4375 15.0325 12.0325 14.4375 12.75 14.4375H21.5C22.2175 14.4375 22.8125 15.0325 22.8125 15.75C22.8125 16.4675 22.2175 17.0625 21.5 17.0625Z" fill="#625616"/>
</g>
</g>
</g>
</svg>
