<svg width="24" height="25" viewBox="0 0 24 25" fill="none" xmlns="http://www.w3.org/2000/svg">
<path d="M20.99 9.95121C20.65 9.81121 20.2 9.74121 19.64 9.74121H14.36C12.62 9.74121 12 10.3612 12 12.1212V19.8612C12 20.4412 12.07 20.8912 12.22 21.2412C12.53 21.9612 13.19 22.2412 14.36 22.2412H19.64C21.38 22.2412 22 21.6112 22 19.8612V12.1212C22 10.9312 21.72 10.2612 20.99 9.95121ZM18 19.9912H16C15.98 19.9912 15.95 19.9912 15.93 19.9812C15.78 19.9712 15.65 19.9212 15.54 19.8212C15.36 19.6912 15.25 19.4812 15.25 19.2412C15.25 18.8312 15.59 18.4912 16 18.4912H18C18.41 18.4912 18.75 18.8312 18.75 19.2412C18.75 19.6512 18.41 19.9912 18 19.9912Z" fill="#E6FAF1"/>
<path d="M20.9898 6.43121V7.24121C20.9898 7.79121 20.5398 8.24121 19.9898 8.24121H14.3598C11.7998 8.24121 10.4998 9.55121 10.4998 12.1212V21.2412C10.4998 21.7912 10.0498 22.2412 9.49977 22.2412H7.54977C7.14977 22.2412 6.82977 21.9212 6.82977 21.5312C6.82977 21.1312 7.14977 20.8212 7.54977 20.8212H9.49977V16.9912H5.99977C3.77977 16.8812 2.00977 15.0512 2.00977 12.8012V6.43121C2.00977 4.12121 3.88977 2.24121 6.20977 2.24121H16.7998C19.1098 2.24121 20.9898 4.12121 20.9898 6.43121Z" fill="#E6FAF1"/>
</svg>
