<svg width="43" height="42" viewBox="0 0 43 42" fill="none" xmlns="http://www.w3.org/2000/svg">
<g id="vuesax/bulk/monitor">
<g id="monitor">
<path id="Vector" opacity="0.4" d="M38.9475 11.2175V22.5925H4V11.2175C4 6.965 7.465 3.5 11.7175 3.5H31.23C35.4825 3.5 38.9475 6.965 38.9475 11.2175Z" fill="#625616"/>
<path id="Vector_2" d="M4 22.6094V22.9594C4 27.2294 7.465 30.6769 11.7175 30.6769H18.4375C19.4 30.6769 20.1875 31.4644 20.1875 32.4269V34.1244C20.1875 35.0869 19.4 35.8744 18.4375 35.8744H14.2025C13.485 35.8744 12.89 36.4694 12.89 37.1869C12.89 37.9044 13.4675 38.4994 14.2025 38.4994H28.815C29.5325 38.4994 30.1275 37.9044 30.1275 37.1869C30.1275 36.4694 29.5325 35.8744 28.815 35.8744H24.58C23.6175 35.8744 22.83 35.0869 22.83 34.1244V32.4269C22.83 31.4644 23.6175 30.6769 24.58 30.6769H31.2475C35.5175 30.6769 38.965 27.2119 38.965 22.9594V22.6094H4Z" fill="#625616"/>
</g>
</g>
</svg>
