<svg width="43" height="42" viewBox="0 0 43 42" fill="none" xmlns="http://www.w3.org/2000/svg">
<g id="vuesax/bulk/note">
<g id="note">
<path id="Vector" opacity="0.4" d="M13.3975 38.5H29.585C34.2925 38.5 38.1075 34.685 38.1075 29.9775V14.6475C38.1075 9.94 34.2925 6.125 29.585 6.125H13.3975C8.69 6.125 4.875 9.94 4.875 14.6475V29.96C4.875 34.685 8.69 38.5 13.3975 38.5Z" fill="#625616"/>
<path id="Vector_2" d="M15.0078 11.0075C14.2728 11.0075 13.6953 10.4125 13.6953 9.695V4.8125C13.6953 4.095 14.2728 3.5 15.0078 3.5C15.7428 3.5 16.3203 4.095 16.3203 4.8125V9.6775C16.3203 10.4125 15.7428 11.0075 15.0078 11.0075Z" fill="#625616"/>
<path id="Vector_3" d="M27.9922 11.0075C27.2572 11.0075 26.6797 10.4125 26.6797 9.695V4.8125C26.6797 4.0775 27.2747 3.5 27.9922 3.5C28.7272 3.5 29.3047 4.095 29.3047 4.8125V9.6775C29.3047 10.4125 28.7272 11.0075 27.9922 11.0075Z" fill="#625616"/>
<path id="Vector_4" d="M26.3659 23.9922H13.3809C12.6459 23.9922 12.0684 23.3972 12.0684 22.6797C12.0684 21.9622 12.6634 21.3672 13.3809 21.3672H26.3659C27.1009 21.3672 27.6784 21.9622 27.6784 22.6797C27.6784 23.3972 27.1009 23.9922 26.3659 23.9922Z" fill="#625616"/>
<path id="Vector_5" d="M21.5009 30.4844H13.3809C12.6459 30.4844 12.0684 29.8894 12.0684 29.1719C12.0684 28.4369 12.6634 27.8594 13.3809 27.8594H21.5009C22.2359 27.8594 22.8134 28.4544 22.8134 29.1719C22.8134 29.8894 22.2359 30.4844 21.5009 30.4844Z" fill="#625616"/>
</g>
</g>
</svg>
