<svg width="42" height="43" viewBox="0 0 42 43" fill="none" xmlns="http://www.w3.org/2000/svg">
<g id="vuesax/bulk/note">
<g id="note">
<path id="Vector" opacity="0.4" d="M12.8975 39.1602H29.085C33.7925 39.1602 37.6075 35.3452 37.6075 30.6377V15.3077C37.6075 10.6002 33.7925 6.78516 29.085 6.78516H12.8975C8.19 6.78516 4.375 10.6002 4.375 15.3077V30.6202C4.375 35.3452 8.19 39.1602 12.8975 39.1602Z" fill="#E3E3FF"/>
<path id="Vector_2" d="M14.5078 11.6677C13.7728 11.6677 13.1953 11.0727 13.1953 10.3552V5.47266C13.1953 4.75516 13.7728 4.16016 14.5078 4.16016C15.2428 4.16016 15.8203 4.75516 15.8203 5.47266V10.3377C15.8203 11.0727 15.2428 11.6677 14.5078 11.6677Z" fill="#E3E3FF"/>
<path id="Vector_3" d="M27.4922 11.6677C26.7572 11.6677 26.1797 11.0727 26.1797 10.3552V5.47266C26.1797 4.73766 26.7747 4.16016 27.4922 4.16016C28.2272 4.16016 28.8047 4.75516 28.8047 5.47266V10.3377C28.8047 11.0727 28.2272 11.6677 27.4922 11.6677Z" fill="#E3E3FF"/>
<path id="Vector_4" d="M25.8659 24.6543H12.8809C12.1459 24.6543 11.5684 24.0593 11.5684 23.3418C11.5684 22.6243 12.1634 22.0293 12.8809 22.0293H25.8659C26.6009 22.0293 27.1784 22.6243 27.1784 23.3418C27.1784 24.0593 26.6009 24.6543 25.8659 24.6543Z" fill="#E3E3FF"/>
<path id="Vector_5" d="M21.0009 31.1445H12.8809C12.1459 31.1445 11.5684 30.5495 11.5684 29.832C11.5684 29.097 12.1634 28.5195 12.8809 28.5195H21.0009C21.7359 28.5195 22.3134 29.1145 22.3134 29.832C22.3134 30.5495 21.7359 31.1445 21.0009 31.1445Z" fill="#E3E3FF"/>
</g>
</g>
</svg>
