<svg width="43" height="42" viewBox="0 0 43 42" fill="none" xmlns="http://www.w3.org/2000/svg">
<g id="vuesax/bulk/people">
<g id="people">
<path id="Vector" opacity="0.4" d="M31.1759 13.5975C31.0534 13.58 30.9309 13.58 30.8084 13.5975C28.0959 13.51 25.9434 11.2875 25.9434 8.5575C25.9434 5.775 28.2009 3.5 31.0009 3.5C33.7834 3.5 36.0584 5.7575 36.0584 8.5575C36.0409 11.2875 33.8884 13.51 31.1759 13.5975Z" fill="#625616"/>
<path id="Vector_2" opacity="0.4" d="M36.8813 25.7257C34.9213 27.0382 32.1738 27.5282 29.6363 27.1957C30.3013 25.7607 30.6513 24.1682 30.6688 22.4882C30.6688 20.7382 30.2838 19.0757 29.5488 17.6232C32.1388 17.2732 34.8863 17.7632 36.8638 19.0757C39.6288 20.8957 39.6288 23.8882 36.8813 25.7257Z" fill="#625616"/>
<path id="Vector_3" opacity="0.4" d="M11.7712 13.5975C11.8937 13.58 12.0162 13.58 12.1387 13.5975C14.8512 13.51 17.0037 11.2875 17.0037 8.5575C17.0037 5.775 14.7462 3.5 11.9462 3.5C9.16367 3.5 6.88867 5.7575 6.88867 8.5575C6.90617 11.2875 9.05867 13.51 11.7712 13.5975Z" fill="#625616"/>
<path id="Vector_4" opacity="0.4" d="M11.9615 22.4866C11.9615 24.1841 12.329 25.7941 12.994 27.2466C10.5265 27.5091 7.95398 26.9841 6.06398 25.7416C3.29898 23.9041 3.29898 20.9116 6.06398 19.0741C7.93648 17.8141 10.579 17.3066 13.064 17.5866C12.3465 19.0566 11.9615 20.7191 11.9615 22.4866Z" fill="#625616"/>
<path id="Vector_5" d="M21.7123 27.7725C21.5723 27.755 21.4148 27.755 21.2573 27.7725C18.0373 27.6675 15.4648 25.025 15.4648 21.77C15.4648 18.445 18.1423 15.75 21.4848 15.75C24.8098 15.75 27.5048 18.445 27.5048 21.77C27.5048 25.025 24.9498 27.6675 21.7123 27.7725Z" fill="#625616"/>
<path id="Vector_6" d="M16.0248 31.3941C13.3823 33.1616 13.3823 36.0666 16.0248 37.8166C19.0348 39.8291 23.9698 39.8291 26.9798 37.8166C29.6223 36.0491 29.6223 33.1441 26.9798 31.3941C23.9873 29.3816 19.0523 29.3816 16.0248 31.3941Z" fill="#625616"/>
</g>
</g>
</svg>
