<svg width="42" height="42" viewBox="0 0 42 42" fill="none" xmlns="http://www.w3.org/2000/svg">
<g id="vuesax/bulk/profile-2user">
<g id="profile-2user">
<path id="Vector" d="M15.75 3.5C11.165 3.5 7.4375 7.2275 7.4375 11.8125C7.4375 16.31 10.955 19.95 15.54 20.1075C15.68 20.09 15.82 20.09 15.925 20.1075C15.96 20.1075 15.9775 20.1075 16.0125 20.1075C16.03 20.1075 16.03 20.1075 16.0475 20.1075C20.5275 19.95 24.045 16.31 24.0625 11.8125C24.0625 7.2275 20.335 3.5 15.75 3.5Z" fill="#E3E3FF"/>
<path id="Vector_2" d="M24.6397 24.7635C19.7572 21.5085 11.7947 21.5085 6.87719 24.7635C4.65469 26.251 3.42969 28.2635 3.42969 30.416C3.42969 32.5685 4.65469 34.5635 6.85969 36.0335C9.30969 37.6785 12.5297 38.501 15.7497 38.501C18.9697 38.501 22.1897 37.6785 24.6397 36.0335C26.8447 34.546 28.0697 32.551 28.0697 30.381C28.0522 28.2285 26.8447 26.2335 24.6397 24.7635Z" fill="#E3E3FF" fill-opacity="0.4"/>
<path id="Vector_3" d="M34.9834 12.8457C35.2634 16.2407 32.8484 19.2157 29.5059 19.6182C29.4884 19.6182 29.4884 19.6182 29.4709 19.6182H29.4184C29.3134 19.6182 29.2084 19.6182 29.1209 19.6532C27.4234 19.7407 25.8659 19.1982 24.6934 18.2007C26.4959 16.5907 27.5284 14.1757 27.3184 11.5507C27.1959 10.1332 26.7059 8.83816 25.9709 7.73566C26.6359 7.40316 27.4059 7.19316 28.1934 7.12316C31.6234 6.82566 34.6859 9.38066 34.9834 12.8457Z" fill="#E3E3FF"/>
<path id="Vector_4" d="M38.4824 29.0332C38.3424 30.7307 37.2574 32.2007 35.4374 33.1982C33.6874 34.1607 31.4824 34.6157 29.2949 34.5632C30.5549 33.4257 31.2899 32.0082 31.4299 30.5032C31.6049 28.3332 30.5724 26.2507 28.5074 24.5882C27.3349 23.6607 25.9699 22.9257 24.4824 22.3832C28.3499 21.2632 33.2149 22.0157 36.2074 24.4307C37.8174 25.7257 38.6399 27.3532 38.4824 29.0332Z" fill="#E3E3FF" fill-opacity="0.4"/>
</g>
</g>
</svg>
