<svg width="42" height="43" viewBox="0 0 42 43" fill="none" xmlns="http://www.w3.org/2000/svg">
<g id="vuesax/bulk/receipt-text">
<g id="receipt-text">
<path id="Vector" d="M38.5 11.1602V15.3952C38.5 18.1602 36.75 19.9102 33.985 19.9102H28V7.67766C28 5.73516 29.5925 4.16016 31.535 4.16016C33.4425 4.17766 35.1925 4.94766 36.4525 6.20766C37.7125 7.48516 38.5 9.23516 38.5 11.1602Z" fill="#E3E3FF"/>
<path id="Vector_2" opacity="0.4" d="M3.5 12.9102V37.4102C3.5 38.8627 5.14501 39.6852 6.30001 38.8102L9.2925 36.5702C9.9925 36.0452 10.9725 36.1152 11.6025 36.7452L14.5075 39.6677C15.19 40.3502 16.31 40.3502 16.9925 39.6677L19.9325 36.7277C20.545 36.1152 21.525 36.0452 22.2075 36.5702L25.2 38.8102C26.355 39.6677 28 38.8452 28 37.4102V7.66016C28 5.73516 29.575 4.16016 31.5 4.16016H12.25H10.5C5.25 4.16016 3.5 7.29266 3.5 11.1602V12.9102Z" fill="#E3E3FF"/>
<g id="Group">
<path id="Vector_3" d="M21 17.7227H10.5C9.7825 17.7227 9.1875 17.1277 9.1875 16.4102C9.1875 15.6927 9.7825 15.0977 10.5 15.0977H21C21.7175 15.0977 22.3125 15.6927 22.3125 16.4102C22.3125 17.1277 21.7175 17.7227 21 17.7227Z" fill="#E3E3FF"/>
</g>
<g id="Group_2">
<path id="Vector_4" d="M19.6875 24.7227H11.8125C11.095 24.7227 10.5 24.1277 10.5 23.4102C10.5 22.6927 11.095 22.0977 11.8125 22.0977H19.6875C20.405 22.0977 21 22.6927 21 23.4102C21 24.1277 20.405 24.7227 19.6875 24.7227Z" fill="#E3E3FF"/>
</g>
</g>
</g>
</svg>
