<svg width="42" height="42" viewBox="0 0 42 42" fill="none" xmlns="http://www.w3.org/2000/svg">
<path opacity="0.4" d="M21 38.5C30.665 38.5 38.5 30.665 38.5 21C38.5 11.335 30.665 3.5 21 3.5C11.335 3.5 3.5 11.335 3.5 21C3.5 30.665 11.335 38.5 21 38.5Z" fill="#544166"/>
<path d="M26.075 13.2823H16.2925L17.01 12.5647C17.5175 12.0572 17.5175 11.2172 17.01 10.7097C16.5025 10.2022 15.6625 10.2022 15.155 10.7097L12.1975 13.6672C12.075 13.7897 11.9875 13.9297 11.9175 14.0872C11.7775 14.4022 11.7775 14.7697 11.9175 15.0847C11.9875 15.2422 12.075 15.3822 12.1975 15.5047L15.155 18.4622C15.4175 18.7247 15.75 18.8473 16.0825 18.8473C16.415 18.8473 16.7475 18.7247 17.01 18.4622C17.5175 17.9547 17.5175 17.1147 17.01 16.6072L16.2925 15.8898H26.075C26.8975 15.8898 27.5625 16.5547 27.5625 17.3772V20.4748C27.5625 21.1923 28.1575 21.7873 28.875 21.7873C29.5925 21.7873 30.1875 21.1923 30.1875 20.4748V17.3772C30.1875 15.1372 28.3325 13.2823 26.075 13.2823Z" fill="#544166"/>
<path d="M30.0825 26.8978C30.0125 26.7403 29.925 26.6004 29.8025 26.4779L26.845 23.5204C26.3375 23.0129 25.4975 23.0129 24.99 23.5204C24.4825 24.0279 24.4825 24.8679 24.99 25.3754L25.7075 26.0928H15.925C15.1025 26.0928 14.4375 25.4278 14.4375 24.6053V21.5078C14.4375 20.7903 13.8425 20.1953 13.125 20.1953C12.4075 20.1953 11.8125 20.7903 11.8125 21.5078V24.6053C11.8125 26.8803 13.6675 28.7178 15.925 28.7178H25.7075L24.99 29.4354C24.4825 29.9429 24.4825 30.7829 24.99 31.2904C25.2525 31.5529 25.585 31.6753 25.9175 31.6753C26.25 31.6753 26.5825 31.5529 26.845 31.2904L29.8025 28.3329C29.925 28.2104 30.0125 28.0704 30.0825 27.9129C30.2225 27.5804 30.2225 27.2128 30.0825 26.8978Z" fill="#544166"/>
</svg>
