<svg width="21" height="54" viewBox="0 0 21 54" fill="none" xmlns="http://www.w3.org/2000/svg">
<path d="M17.3958 43.3722C17.1183 43.4721 15.6196 42.7394 13.5104 41.4739C6.30563 37.1333 6.23903 37.7105 6.23903 36.9223C6.23903 36.0786 6.54986 36.2008 11.3234 38.7763C16.4411 41.5405 18.3727 42.9948 17.3958 43.3722Z" fill="white"/>
<path d="M5.06211 44.1163C4.91779 44.2606 4.79557 44.1829 4.2405 43.6723C3.41901 42.9063 3.07487 41.6296 3.68544 41.6296C4.185 41.6407 5.38405 43.7944 5.06211 44.1163Z" fill="white"/>
<path d="M1.49855 45.9258C3.27476 51.2767 3.71881 53.1306 3.34136 53.7633C3.04163 54.2851 2.8196 53.9743 2.45326 52.52C2.15353 51.2766 1.46524 49.012 0.721457 46.7917C0.110885 44.9711 0.0442781 44.5493 0.233 44.0386C0.510533 43.3392 0.776963 43.75 1.49855 45.9258Z" fill="white"/>
<path d="M20.0706 34.6032C19.8042 34.7031 17.2732 34.137 15.7079 33.6374C15.3304 33.5153 14.3313 33.2711 13.4987 33.0935C11.8779 32.7604 11.789 32.7049 11.789 32.0721C11.789 31.4727 11.7669 31.4727 14.4756 32.1943C19.1937 33.4487 21.0253 34.2369 20.0706 34.6032Z" fill="white"/>
<path d="M8.42584 47.7238C7.64875 46.869 6.97157 46.6026 6.97157 45.7811C6.97157 44.4601 7.06038 44.4046 8.64786 45.981C11.5897 48.9006 13.6323 51.6981 13.2549 52.2976C12.8775 52.8637 11.512 50.7101 8.42584 47.7238Z" fill="white"/>
<path d="M10.8456 7.51569C11.5561 6.672 12.2888 6.11693 12.6884 6.11693C13.2435 6.11693 13.4101 6.80521 12.9772 7.39358C10.1241 11.3123 5.95003 15.2755 5.38387 14.6205C4.8288 13.9767 5.25065 13.3217 8.05928 10.4575C9.29153 9.19199 10.5459 7.87094 10.8456 7.51569Z" fill="white"/>
<path d="M19.7602 23.0135C18.639 23.3576 15.9969 23.7129 10.4129 25.1005C9.30279 25.3781 9.2807 25.3781 8.94766 25.0228C8.68123 24.7342 8.58121 24.1791 8.75883 23.9016C8.90314 23.6685 16.6741 21.8145 19.3495 21.3705C20.393 21.2151 21.048 22.6249 19.7602 23.0135Z" fill="white"/>
<path d="M6.23844 2.50892C5.29483 5.88371 2.81935 12.0338 2.25318 12.378C1.86464 12.6222 1.4872 11.6342 1.72032 10.9681L2.60843 8.49252C3.97389 4.68477 5.97212 2.28882e-05 6.22745 2.28882e-05C6.74921 0.0111237 6.7491 0.688304 6.23844 2.50892Z" fill="white"/>
<path d="M17.6392 14.6766C17.3172 14.8653 16.4402 15.4315 14.0756 17.1411C13.0099 17.9182 10.7897 19.2059 10.5232 19.2059C9.99036 19.2059 11.8332 17.6962 15.5188 15.1207C16.3181 14.5656 17.0619 14.0105 17.1729 13.8773C17.7169 13.2778 18.2386 14.3214 17.6392 14.6766Z" fill="white"/>
</svg>
