<svg width="24" height="25" viewBox="0 0 24 25" fill="none" xmlns="http://www.w3.org/2000/svg">
<path fill-rule="evenodd" clip-rule="evenodd" d="M15 5.24121C15 3.03207 16.7909 1.24121 19 1.24121C21.2091 1.24121 23 3.03207 23 5.24121C23 7.45035 21.2091 9.24121 19 9.24121C17.6346 9.24121 16.429 8.55709 15.7072 7.51292L8.76803 10.8956C8.91821 11.3161 9 11.7691 9 12.2412C9 12.6807 8.92912 13.1037 8.79816 13.4992L15.6976 16.9835C16.4182 15.9315 17.6285 15.2412 19 15.2412C21.2091 15.2412 23 17.0321 23 19.2412C23 21.4503 21.2091 23.2412 19 23.2412C16.7909 23.2412 15 21.4503 15 19.2412C15 19.1194 15.0054 18.9989 15.0161 18.8799L7.70513 15.1878C6.99302 15.8419 6.04314 16.2412 5 16.2412C2.79086 16.2412 1 14.4503 1 12.2412C1 10.0321 2.79086 8.24121 5 8.24121C6.0062 8.24121 6.92562 8.61273 7.62857 9.22607L15.0181 5.62389C15.0061 5.49794 15 5.37029 15 5.24121ZM21 5.24121C21 4.13664 20.1046 3.24121 19 3.24121C17.8954 3.24121 17 4.13664 17 5.24121C17 6.34578 17.8954 7.24121 19 7.24121C20.1046 7.24121 21 6.34578 21 5.24121ZM21 19.2412C21 18.1366 20.1046 17.2412 19 17.2412C17.8954 17.2412 17 18.1366 17 19.2412C17 20.3458 17.8954 21.2412 19 21.2412C20.1046 21.2412 21 20.3458 21 19.2412ZM5 10.2412C6.10457 10.2412 7 11.1366 7 12.2412C7 13.3458 6.10457 14.2412 5 14.2412C3.89543 14.2412 3 13.3458 3 12.2412C3 11.1366 3.89543 10.2412 5 10.2412Z" fill="white"/>
</svg>
