<svg width="43" height="42" viewBox="0 0 43 42" fill="none" xmlns="http://www.w3.org/2000/svg">
<g id="vuesax/bulk/status-up">
<g id="status-up">
<g id="status-up_2">
<path id="Vector" opacity="0.4" d="M28.8325 3.5H14.1675C7.7975 3.5 4 7.2975 4 13.6675V28.315C4 34.7025 7.7975 38.5 14.1675 38.5H28.815C35.185 38.5 38.9825 34.7025 38.9825 28.3325V13.6675C39 7.2975 35.2025 3.5 28.8325 3.5Z" fill="#625616"/>
<path id="Vector_2" d="M12.541 33.0756C11.8235 33.0756 11.2285 32.4806 11.2285 31.7631V28.1406C11.2285 27.4231 11.8235 26.8281 12.541 26.8281C13.2585 26.8281 13.8535 27.4231 13.8535 28.1406V31.7631C13.8535 32.4981 13.2585 33.0756 12.541 33.0756Z" fill="#625616"/>
<path id="Vector_3" d="M21.5 33.075C20.7825 33.075 20.1875 32.48 20.1875 31.7625V24.5C20.1875 23.7825 20.7825 23.1875 21.5 23.1875C22.2175 23.1875 22.8125 23.7825 22.8125 24.5V31.7625C22.8125 32.4975 22.2175 33.075 21.5 33.075Z" fill="#625616"/>
<path id="Vector_4" d="M30.459 33.0745C29.7415 33.0745 29.1465 32.4795 29.1465 31.762V20.877C29.1465 20.1595 29.7415 19.5645 30.459 19.5645C31.1765 19.5645 31.7715 20.1595 31.7715 20.877V31.762C31.7715 32.497 31.194 33.0745 30.459 33.0745Z" fill="#625616"/>
<path id="Vector_5" d="M31.7752 10.1838C31.7752 10.0963 31.7402 9.99133 31.7227 9.90383C31.7052 9.83383 31.6876 9.74633 31.6701 9.67633C31.6351 9.60633 31.5827 9.55383 31.5477 9.48383C31.4952 9.41383 31.4426 9.32633 31.3726 9.27383C31.3551 9.25633 31.3552 9.23883 31.3377 9.23883C31.2852 9.20383 31.2327 9.18633 31.1802 9.15133C31.1102 9.09883 31.0226 9.04633 30.9351 9.01133C30.8476 8.97633 30.7602 8.97633 30.6727 8.95883C30.6027 8.94133 30.5501 8.92383 30.4801 8.92383H25.3527C24.6352 8.92383 24.0402 9.51883 24.0402 10.2363C24.0402 10.9538 24.6352 11.5488 25.3527 11.5488H27.5402C23.3751 15.9238 18.1252 19.0038 12.2277 20.4913C11.5277 20.6663 11.0902 21.3838 11.2652 22.0838C11.4052 22.6788 11.9477 23.0813 12.5427 23.0813C12.6477 23.0813 12.7527 23.0638 12.8577 23.0463C19.1052 21.4888 24.6877 18.2513 29.1502 13.6663V15.3638C29.1502 16.0813 29.7452 16.6763 30.4627 16.6763C31.1802 16.6763 31.7752 16.0813 31.7752 15.3638V10.2363C31.7752 10.2188 31.7752 10.2013 31.7752 10.1838Z" fill="#625616"/>
</g>
</g>
</g>
</svg>
