<svg width="42" height="43" viewBox="0 0 42 43" fill="none" xmlns="http://www.w3.org/2000/svg">
<g id="vuesax/bulk/status-up">
<g id="status-up">
<g id="status-up_2">
<path id="Vector" opacity="0.4" d="M28.3325 4.16016H13.6675C7.2975 4.16016 3.5 7.95766 3.5 14.3277V28.9752C3.5 35.3627 7.2975 39.1602 13.6675 39.1602H28.315C34.685 39.1602 38.4825 35.3627 38.4825 28.9927V14.3277C38.5 7.95766 34.7025 4.16016 28.3325 4.16016Z" fill="#E3E3FF"/>
<path id="Vector_2" d="M12.0391 33.7358C11.3216 33.7358 10.7266 33.1408 10.7266 32.4233V28.8008C10.7266 28.0833 11.3216 27.4883 12.0391 27.4883C12.7566 27.4883 13.3516 28.0833 13.3516 28.8008V32.4233C13.3516 33.1583 12.7566 33.7358 12.0391 33.7358Z" fill="#E3E3FF"/>
<path id="Vector_3" d="M21 33.7352C20.2825 33.7352 19.6875 33.1402 19.6875 32.4227V25.1602C19.6875 24.4427 20.2825 23.8477 21 23.8477C21.7175 23.8477 22.3125 24.4427 22.3125 25.1602V32.4227C22.3125 33.1577 21.7175 33.7352 21 33.7352Z" fill="#E3E3FF"/>
<path id="Vector_4" d="M29.9609 33.7346C29.2434 33.7346 28.6484 33.1396 28.6484 32.4221V21.5371C28.6484 20.8196 29.2434 20.2246 29.9609 20.2246C30.6784 20.2246 31.2734 20.8196 31.2734 21.5371V32.4221C31.2734 33.1571 30.6959 33.7346 29.9609 33.7346Z" fill="#E3E3FF"/>
<path id="Vector_5" d="M31.2732 10.844C31.2732 10.7565 31.2382 10.6515 31.2207 10.564C31.2032 10.494 31.1857 10.4065 31.1682 10.3365C31.1332 10.2665 31.0807 10.214 31.0457 10.144C30.9932 10.074 30.9407 9.98648 30.8707 9.93398C30.8532 9.91648 30.8532 9.89898 30.8357 9.89898C30.7832 9.86398 30.7307 9.84648 30.6782 9.81148C30.6082 9.75898 30.5207 9.70648 30.4332 9.67148C30.3457 9.63648 30.2582 9.63648 30.1707 9.61898C30.1007 9.60148 30.0482 9.58398 29.9782 9.58398H24.8507C24.1332 9.58398 23.5382 10.179 23.5382 10.8965C23.5382 11.614 24.1332 12.209 24.8507 12.209H27.0382C22.8732 16.584 17.6232 19.664 11.7257 21.1515C11.0257 21.3265 10.5882 22.044 10.7632 22.744C10.9032 23.339 11.4457 23.7415 12.0407 23.7415C12.1457 23.7415 12.2507 23.724 12.3557 23.7065C18.6032 22.149 24.1857 18.9115 28.6482 14.3265V16.024C28.6482 16.7415 29.2432 17.3365 29.9607 17.3365C30.6782 17.3365 31.2732 16.7415 31.2732 16.024V10.8965C31.2732 10.879 31.2732 10.8615 31.2732 10.844Z" fill="#E3E3FF"/>
</g>
</g>
</g>
</svg>
