<svg width="36" height="36" viewBox="0 0 36 36" fill="none" xmlns="http://www.w3.org/2000/svg">
<g id="vuesax/bulk/task-square">
<g id="task-square">
<path id="Vector" opacity="0.4" d="M25.3325 0.5H10.6675C4.2975 0.5 0.5 4.2975 0.5 10.6675V25.3325C0.5 31.7025 4.2975 35.5 10.6675 35.5H25.3325C31.7025 35.5 35.5 31.7025 35.5 25.3325V10.6675C35.5 4.2975 31.7025 0.5 25.3325 0.5Z" fill="#544166"/>
<path id="Vector_2" d="M29.041 12.5215C29.041 13.239 28.4635 13.834 27.7285 13.834H18.541C17.8235 13.834 17.2285 13.239 17.2285 12.5215C17.2285 11.804 17.8235 11.209 18.541 11.209H27.7285C28.4635 11.209 29.041 11.804 29.041 12.5215Z" fill="#544166"/>
<path id="Vector_3" d="M14.446 10.8255L10.5085 14.763C10.246 15.0255 9.91352 15.148 9.58102 15.148C9.24852 15.148 8.89852 15.0255 8.65352 14.763L7.34102 13.4505C6.81602 12.943 6.81602 12.103 7.34102 11.5955C7.84852 11.088 8.67102 11.088 9.19602 11.5955L9.58102 11.9805L12.591 8.97047C13.0985 8.46297 13.921 8.46297 14.446 8.97047C14.9535 9.47797 14.9535 10.318 14.446 10.8255Z" fill="#544166"/>
<path id="Vector_4" d="M29.041 24.7715C29.041 25.489 28.4635 26.084 27.7285 26.084H18.541C17.8235 26.084 17.2285 25.489 17.2285 24.7715C17.2285 24.054 17.8235 23.459 18.541 23.459H27.7285C28.4635 23.459 29.041 24.054 29.041 24.7715Z" fill="#544166"/>
<path id="Vector_5" d="M14.446 23.0755L10.5085 27.013C10.246 27.2755 9.91352 27.398 9.58102 27.398C9.24852 27.398 8.89852 27.2755 8.65352 27.013L7.34102 25.7005C6.81602 25.193 6.81602 24.353 7.34102 23.8455C7.84852 23.338 8.67102 23.338 9.19602 23.8455L9.58102 24.2305L12.591 21.2205C13.0985 20.713 13.921 20.713 14.446 21.2205C14.9535 21.728 14.9535 22.568 14.446 23.0755Z" fill="#544166"/>
</g>
</g>
</svg>
