<svg width="43" height="42" viewBox="0 0 43 42" fill="none" xmlns="http://www.w3.org/2000/svg">
<g id="Vitals">
<path id="Shape" opacity="0.4" fill-rule="evenodd" clip-rule="evenodd" d="M39 15.7501C39 15.7501 39 15.75 39 15.75C39 9.95101 34.299 5.25 28.5 5.25C25.8108 5.25 23.3576 6.26099 21.5 7.92363C19.6424 6.26099 17.1892 5.25 14.5 5.25C8.70101 5.25 4 9.95101 4 15.75C4 15.7501 4 15.7501 4 15.7502C4 28.6145 15.675 34.6607 19.953 36.4444C20.9496 36.8599 22.0504 36.8599 23.047 36.4444C27.325 34.6607 39 28.6145 39 15.7501Z" fill="#544166"/>
<path id="Shape_2" d="M38.6976 19.25H30.5291L28.3587 14.1856C28.0829 13.5422 27.4502 13.125 26.7502 13.125C26.0501 13.125 25.4174 13.5422 25.1417 14.1856L21.5002 22.6825L20.4837 20.3106C20.2079 19.6672 19.5752 19.25 18.8752 19.25H4.30273C4.52288 20.4911 4.85609 21.6567 5.27893 22.75H17.7212L19.8917 27.8144C20.1674 28.4578 20.8001 28.875 21.5002 28.875C22.2002 28.875 22.8329 28.4578 23.1087 27.8144L26.7502 19.3175L27.7667 21.6894C28.0424 22.3328 28.6751 22.75 29.3752 22.75H37.7214C38.1442 21.6567 38.4775 20.4911 38.6976 19.25Z" fill="#544166"/>
</g>
</svg>
