<svg width="42" height="42" viewBox="0 0 42 42" fill="none" xmlns="http://www.w3.org/2000/svg">
<g id="vuesax/bulk/voice-square">
<g id="voice-square">
<path id="Vector" opacity="0.4" d="M28.3326 3.5H13.6851C7.31507 3.5 3.51758 7.2975 3.51758 13.6675V28.315C3.51758 34.685 7.31507 38.4825 13.6851 38.4825H28.3326C34.7026 38.4825 38.5001 34.685 38.5001 28.315V13.6675C38.5001 7.2975 34.7026 3.5 28.3326 3.5Z" fill="#544166"/>
<g id="Group">
<g id="Group_2">
<path id="Vector_2" d="M10.5 26.0573C9.7825 26.0573 9.1875 25.4623 9.1875 24.7448V17.2373C9.1875 16.5198 9.7825 15.9248 10.5 15.9248C11.2175 15.9248 11.8125 16.5198 11.8125 17.2373V24.7448C11.8125 25.4798 11.2175 26.0573 10.5 26.0573Z" fill="#544166"/>
</g>
<g id="Group_3">
<path id="Vector_3" d="M15.75 28.5595C15.0325 28.5595 14.4375 27.9645 14.4375 27.247V14.752C14.4375 14.0345 15.0325 13.4395 15.75 13.4395C16.4675 13.4395 17.0625 14.0345 17.0625 14.752V27.247C17.0625 27.982 16.4675 28.5595 15.75 28.5595Z" fill="#544166"/>
</g>
<g id="Group_4">
<path id="Vector_4" d="M21 31.0625C20.2825 31.0625 19.6875 30.4675 19.6875 29.75V12.25C19.6875 11.5325 20.2825 10.9375 21 10.9375C21.7175 10.9375 22.3125 11.5325 22.3125 12.25V29.75C22.3125 30.4675 21.7175 31.0625 21 31.0625Z" fill="#544166"/>
</g>
<g id="Group_5">
<path id="Vector_5" d="M26.25 28.5595C25.5325 28.5595 24.9375 27.9645 24.9375 27.247V14.752C24.9375 14.0345 25.5325 13.4395 26.25 13.4395C26.9675 13.4395 27.5625 14.0345 27.5625 14.752V27.247C27.5625 27.982 26.9675 28.5595 26.25 28.5595Z" fill="#544166"/>
</g>
<g id="Group_6">
<path id="Vector_6" d="M31.5 26.0573C30.7825 26.0573 30.1875 25.4623 30.1875 24.7448V17.2373C30.1875 16.5198 30.7825 15.9248 31.5 15.9248C32.2175 15.9248 32.8125 16.5198 32.8125 17.2373V24.7448C32.8125 25.4798 32.2175 26.0573 31.5 26.0573Z" fill="#544166"/>
</g>
</g>
</g>
</g>
</svg>
