<svg width="43" height="42" viewBox="0 0 43 42" fill="none" xmlns="http://www.w3.org/2000/svg">
<g id="vuesax/bulk/wallet">
<g id="wallet">
<path id="Vector" opacity="0.4" d="M39 21V29.75C39 35 35.5 38.5 30.25 38.5H12.75C7.5 38.5 4 35 4 29.75V21C4 16.24 6.87 12.915 11.3325 12.355C11.7875 12.285 12.26 12.25 12.75 12.25H30.25C30.705 12.25 31.1425 12.2675 31.5625 12.3375C36.0775 12.8625 39 16.205 39 21Z" fill="#625616"/>
<path id="Vector_2" d="M31.562 12.3375C31.142 12.2675 30.7045 12.25 30.2495 12.25H12.7495C12.2595 12.25 11.787 12.285 11.332 12.355C11.577 11.865 11.927 11.41 12.347 10.99L18.0345 5.285C20.432 2.905 24.317 2.905 26.7145 5.285L29.777 8.38253C30.897 9.48503 31.492 10.885 31.562 12.3375Z" fill="#625616"/>
<path id="Vector_3" d="M39 21.875H33.75C31.825 21.875 30.25 23.45 30.25 25.375C30.25 27.3 31.825 28.875 33.75 28.875H39" fill="#625616"/>
</g>
</g>
</svg>
