<svg width="992" height="267" viewBox="0 0 992 267" fill="none" xmlns="http://www.w3.org/2000/svg">
<path opacity="0.5" d="M0.955078 -284V-83.0302L68.4272 -149.414V-284H69.6654L69.4548 -283.793V-150.43L136.927 -216.813V-284H137.954V-216.813L205.427 -150.43V-284H617.463V-216.813L684.935 -150.43V-284H686.173L753.435 -217.824V-284H754.462V-216.813L821.934 -150.43V-284H1233.47V-81.3065H1029.2L1096.67 -14.9232H1233.47V-13.705L1233.26 -13.9122H1097.71L1165.18 52.4711H1233.47V53.4821H1165.18L1097.71 119.865H1233.47V120.876H1097.71L1165.18 187.26H1233.47V188.271H1166.21L1233.47 254.452V255.67H1097.71L1165.18 322.053H1233.47V929.123H821.945V795.552L754.472 861.936V929.123H753.445V861.936L685.973 795.552V928.916L686.183 929.123H684.945V794.542L617.473 728.158V929.128H205.437V861.941L205.226 861.734L205.437 861.526V795.557L137.965 861.941V929.128H136.937V862.952L69.6757 929.128H68.4376V795.557L0.965332 861.941V929.128H0.451538V322.059H204.718L137.245 255.675H0.456665V254.457L0.667358 254.664H136.218L68.7457 188.281H0.456665V187.27H68.7457L136.218 120.887H0.456665V119.876H136.218L68.7457 53.4922H0.456665V52.4813H67.7183L0.456665 -13.6949V-14.9131H136.218L68.7457 -81.2964H0.456665V-284H0.970459H0.955078ZM137.446 -215.888L69.46 -148.999V-82.3175H205.437V-148.999L137.451 -215.888H137.446ZM68.4324 -147.988L1.68457 -82.3175H68.4324V-147.988ZM479.739 861.228L547.211 794.845H411.66L344.188 861.228H479.739ZM752.715 726.435L685.243 660.051H548.665L481.193 726.435H752.715ZM891.174 861.228H1026.72L959.252 794.845H823.702L891.174 861.228ZM1164.45 457.565L1096.98 391.182V524.545L1164.45 590.928V457.565ZM1029.21 323.069L1095.95 388.74V323.069H1029.21ZM1027.45 187.563V53.1889L959.977 -13.1945V254.962L1027.45 321.346V187.983L1027.24 187.775L1027.45 187.568V187.563ZM823.696 -149.712H959.247L1026.72 -216.095H891.169L823.696 -149.712ZM548.239 -216.095H412.688L480.16 -149.712H615.711L548.239 -216.095ZM206.156 390.469L138.684 456.852H274.235L341.707 390.469H206.156ZM275.17 457.358L343.156 524.247H410.931V390.464H343.156L275.17 457.353V457.358ZM206.454 794.547V860.516L341.702 727.451H206.454V794.132L206.665 794.339L206.454 794.547ZM479.734 726.435L547.72 659.546L479.734 592.657H411.958V726.44H479.734V726.435ZM548.66 659.04H684.21L616.738 592.657H481.188L548.66 659.04ZM1096.25 793.834L1163.72 727.451H892.196L959.668 793.834H1096.25ZM1028.47 593.37V726.435H1163.72L1028.47 593.37ZM616.44 -147.988L549.693 -82.3175H616.44V-147.988ZM343.161 -148.701L275.689 -82.3175H547.211L479.739 -148.701H343.161ZM206.459 53.1889V187.563L273.931 253.946V-14.2104L206.459 -80.5938V52.7694L206.67 52.9766L206.459 53.1839V53.1889ZM478.711 591.641L411.964 525.97V591.641H478.711ZM752.715 591.641L685.243 525.257H616.44H412.688L480.16 591.641H752.715ZM890.444 726.435V660.764L823.696 726.435H890.444ZM822.972 727.445V793.116L889.72 727.445H822.972ZM891.472 726.435H1027.45V659.753L959.463 592.864L891.477 659.753V726.435H891.472ZM890.444 53.1889L822.972 -13.1945V119.871V253.946L890.444 187.563V53.1889ZM753.953 -81.0993L753.743 -81.3065H548.665L481.193 -14.9232H753.748L821.22 -81.3065H754.169L753.959 -81.0993H753.953ZM342.431 321.341V187.978L274.959 121.594V254.957L342.431 321.341ZM959.971 591.934L1027.44 658.317V391.171L959.971 457.555V591.929V591.934ZM960.696 323.064L1027.44 388.735V323.064H960.696ZM1027.23 389.953L959.966 323.777V456.129L1027.23 389.953ZM821.934 322.053V188.988L754.462 255.372V389.746L821.934 456.129V322.053ZM755.186 -14.9282H821.934V-80.5989L755.186 -14.9282ZM821.934 -13.9173H754.159L686.173 52.9716L754.159 119.86H821.934V-13.9223V-13.9173ZM343.454 187.558L410.926 253.941V53.1839L410.715 52.9766L410.926 52.7694V-13.1995L343.454 53.1839V187.558ZM343.454 321.341L410.715 255.165L343.454 188.988V321.341ZM411.953 523.529L479.425 457.145V188.988L412.164 255.165L411.953 255.372V322.053V523.524V523.529ZM685.233 53.4821H548.655L481.182 119.865H548.228L548.439 119.658L548.65 119.865H617.452H752.7L685.228 53.4821H685.233ZM480.453 321.341L547.925 254.957V121.594L480.453 187.978V321.341ZM684.93 187.978L617.458 121.594V187.558L617.668 187.765L617.458 187.972V322.554V389.741L684.93 456.124V187.967V187.978ZM618.182 120.876L684.93 186.547V120.876H618.182ZM617.458 391.176V524.241H752.705L617.458 391.176ZM616.43 120.876H549.682L616.43 186.547V120.876ZM548.958 121.589V253.941L616.219 187.765L548.958 121.589ZM547.201 120.876H480.155L479.944 121.084L479.734 120.876H411.958V253.941L547.206 120.876H547.201ZM478.701 119.865L411.953 54.1948V119.865H478.701ZM479.944 119.658L547.206 53.4821H412.683L479.944 119.658ZM685.962 120.876V187.558L753.948 254.447L821.934 187.558V120.876H685.957H685.962ZM753.435 255.372L685.962 188.988V322.352L753.435 388.735V255.372ZM685.962 323.777V457.14L753.435 523.524V390.16L685.962 323.777ZM754.462 523.524L821.724 457.348L754.462 391.171V523.524ZM755.186 524.236H821.934V458.566L755.186 524.236ZM616.43 322.554V188.983L548.958 255.367V389.741L616.43 456.124V322.554ZM547.93 256.378L480.458 322.761V456.124L547.93 389.741V256.378ZM411.953 -81.3166V51.7483L547.201 -81.3166H411.953ZM412.678 52.4661H548.228L615.701 -13.9173H480.15L412.678 52.4661ZM617.154 -13.9173L549.682 52.4661H685.233L752.705 -13.9173H617.154ZM616.43 457.56L548.444 390.671L480.458 457.56V524.241H616.435V457.56H616.43ZM479.425 458.571L412.678 524.241H479.425V458.571ZM410.926 256.383L344.178 322.053H410.926V256.383ZM274.949 120.159L342.421 186.542V53.1788L274.949 -13.2046V120.159ZM342.935 52.2589L410.921 -14.63V-81.3116H274.944V-14.63L342.93 52.2589H342.935ZM822.957 -15.641L889.704 -81.3116H822.957V-15.641ZM890.429 -80.5938L823.167 -14.4177L890.429 51.7584V-80.5938ZM958.929 591.934V458.571L891.456 524.954V658.317L958.929 591.934ZM891.456 523.529L958.929 457.145V323.782L891.456 390.166V523.529ZM958.204 323.064H822.957V456.129L958.204 323.064ZM754.154 525.252L753.943 525.46L753.733 525.252H686.687L821.934 658.317V525.252H754.159H754.154ZM341.691 322.053L206.444 188.988V322.053H341.691ZM273.916 -15.641V-81.3116H207.168L273.916 -15.641ZM548.434 -82.5298L615.695 -148.706H481.172L548.434 -82.5298ZM889.699 -82.3225L822.952 -147.993V-82.3225H889.699ZM890.937 -82.5298L958.199 -148.706H823.676L890.937 -82.5298ZM892.176 -81.3116L1027.42 51.7534V-81.3116H892.176ZM891.451 -80.5989V52.7643L958.923 119.148V-14.2155L891.451 -80.5989ZM958.923 120.578L891.451 54.1948V187.558L958.923 253.941V120.578ZM890.937 188.478L822.952 255.367V322.048H958.929V255.367L890.943 188.478H890.937ZM959.951 322.048H1026.7L959.951 256.378V322.048ZM890.937 727.643L823.676 793.819H958.199L890.937 727.643ZM890.424 659.323V391.171L823.162 457.348L822.952 457.555V525.247V659.323L823.162 659.53L822.952 659.738V725.707L890.424 659.323ZM821.194 659.025L753.722 592.642H618.172L685.644 659.025H821.194ZM686.671 660.036L753.933 726.212L821.194 660.036H686.671ZM410.91 726.419V593.354L275.663 726.419H410.91ZM410.186 592.637H274.635L207.163 659.02H342.714L410.186 592.637ZM410.186 591.626L342.924 525.45L275.663 591.626H410.186ZM410.91 590.913V525.242H344.163L410.91 590.913ZM410.91 389.438V323.767L344.163 389.438H410.91ZM206.459 -217.111H273.207L206.459 -282.782V-217.111ZM206.459 -216.1V-82.3175H274.235L342.221 -149.206L274.235 -216.095H206.459V-216.1ZM343.161 -149.717H478.711L411.239 -216.1H275.689L343.161 -149.717ZM821.945 -82.3225V-147.993L755.197 -82.3225H821.945ZM1028.17 -216.1L960.701 -149.717H1096.25L1163.72 -216.1H1028.17ZM1096.25 -148.706H959.673L892.201 -82.3225H1163.72L1096.25 -148.706ZM1028.48 323.782V389.751L1028.69 389.958L1028.48 390.166V591.934L1095.95 658.317V390.16L1028.48 323.777V323.782ZM1096.98 525.97V659.333L1164.45 725.717V592.354L1096.98 525.97ZM1165.48 725.717L1232.74 659.546L1165.48 593.37V725.722L1165.48 725.717ZM1097.19 794.334L1165.17 861.223H1232.95V727.44H1165.18L1097.19 794.329L1097.19 794.334ZM1096.25 794.84H960.696L1028.17 861.223H1163.72L1096.25 794.84H1096.25ZM821.939 660.764L755.192 726.435H821.939V660.764ZM616.435 728.158L549.687 793.829H616.435V728.158ZM615.711 727.445H411.958H343.156L275.683 793.829H548.233L615.706 727.445H615.711ZM410.206 794.84H274.656L207.184 861.223H342.734L410.206 794.84ZM207.184 862.234L274.445 928.41L341.707 862.234H207.184ZM137.23 726.429L137.441 726.222L137.651 726.429H274.229L341.702 660.046H69.1465L1.67432 726.429H137.225H137.23ZM205.73 659.035L273.202 592.652H137.651L70.1792 659.035H205.73ZM137.651 591.641H274.229L341.702 525.257H70.1792L137.651 591.641ZM341.702 524.247L274.229 457.863H137.651L70.1792 524.247H341.707H341.702ZM136.197 457.863H1.67432L68.9359 524.039L136.197 457.863ZM137.225 456.852L204.697 390.469H69.1465L1.67432 456.852H137.225ZM342.729 389.458L410.201 323.075H343.151L342.94 323.282L342.729 323.075H137.651L70.1792 389.458H342.729ZM274.651 -217.106H547.206L479.739 -283.495H207.184L274.656 -217.111L274.651 -217.106ZM481.193 -283.495L616.44 -150.43V-283.495H481.193ZM617.468 -149.419L617.678 -149.211L617.468 -149.004V-82.3225H752.715L617.468 -215.388V-149.419ZM685.967 -282.782V-149.419L753.44 -83.0352V-216.393L685.967 -282.782ZM754.467 -215.388V-83.0352L821.729 -149.211L754.467 -215.388ZM822.972 -283.495V-150.43L958.22 -283.495H822.972ZM959.673 -283.495L892.201 -217.111H1164.75L1232.23 -283.495H959.679H959.673ZM1166.21 -217.111H1232.95V-282.782L1166.21 -217.111ZM1232.95 -216.1H1165.18L1097.19 -149.211L1165.18 -82.3225H1232.95V-216.1ZM1028.48 -80.5938V-14.9232H1095.22L1028.48 -80.5938ZM1096.25 -13.9122H1028.48V119.871H1096.25L1096.46 119.663L1164.24 52.9817L1096.25 -13.9072V-13.9122ZM1028.48 120.881V186.552L1095.22 120.881H1028.48ZM1096.46 121.089L1029.2 187.265H1163.72L1096.46 121.089ZM1232.23 254.664L1164.76 188.281H1029.21L1096.68 254.664H1232.23ZM1028.48 188.994V322.059H1163.72L1028.48 188.994ZM1096.98 323.069V389.751L1164.96 456.64L1232.95 389.751V323.069H1096.98ZM1232.95 391.182L1165.48 457.565V591.939L1232.95 658.322V391.176V391.182ZM1166.21 726.435H1232.95V660.764L1166.21 726.435ZM1232.95 862.239H1166.21L1232.95 927.91V862.239ZM1164.75 862.239H892.201L959.673 928.622H1232.23L1164.76 862.239H1164.75ZM958.22 928.622L822.972 795.557V928.622H958.22ZM753.953 861.016L821.729 794.334L821.939 794.127V727.445H754.164L753.953 727.653L753.743 727.445H685.967V794.127L753.953 861.016ZM684.94 727.445H618.192L684.94 793.116V727.445ZM616.44 794.84H548.665L480.679 861.729L548.665 928.617H616.44V794.835V794.84ZM547.211 928.622L479.739 862.239H343.161L275.689 928.622H547.216H547.211ZM273.207 928.622L206.459 862.952V928.622H273.207ZM205.432 727.445H138.684L205.432 793.116V727.445ZM205.221 794.334L137.96 728.158V860.51L205.221 794.334ZM69.46 927.905L136.932 861.521V728.158L69.46 794.542V927.905ZM0.960205 860.51L136.208 727.445H0.960205V860.51ZM0.960205 725.722L67.7079 660.051H0.960205V725.722ZM68.7355 659.04L136.721 592.151L68.7355 525.263H0.960205V659.045H68.7355V659.04ZM0.960205 524.247H67.7079L0.960205 458.576V524.247ZM136.208 323.069H0.960205V456.134L136.208 323.069ZM205.437 321.341V255.67H138.689L205.437 321.341ZM137.662 254.659H205.437V120.876H137.662L137.451 121.084L69.6757 187.765L137.662 254.654V254.659ZM205.437 119.865V54.1948L138.689 119.865H205.437ZM137.451 119.658L204.713 53.4821H70.1895L137.451 119.658ZM1.6897 -13.9122L69.1619 52.4711H204.713L137.24 -13.9122H1.6897ZM205.442 51.7584V-81.3065H70.1946L205.442 51.7584Z" fill="url(#paint0_radial_31_52724)"/>
<defs>
<radialGradient id="paint0_radial_31_52724" cx="0" cy="0" r="1" gradientUnits="userSpaceOnUse" gradientTransform="translate(635.213 322.564) rotate(180) scale(480.251 472.501)">
<stop stop-color="white" stop-opacity="0.7"/>
<stop offset="0.21" stop-color="white" stop-opacity="0.9"/>
<stop offset="0.43" stop-color="white"/>
<stop offset="1" stop-color="white" stop-opacity="0"/>
</radialGradient>
</defs>
</svg>
